<svg width="700pt" height="700pt" viewBox="0 0 700 700" xmlns="http://www.w3.org/2000/svg"><g><path d="M491.91 94.21c31.8-7.85 65.43-7.69 97.35-.54 4.28 1.15 9.71 1.56 12.02 5.97 1.92 4.55 2.7 9.49 3.8 14.29 7.07 35.96 5.54 73.99-6.79 108.66-6.63 18.71-16.54 36.23-29.07 51.62-19.93 24.45-43.49 46.08-70.21 62.92-14.8 9.37-30.53 17.23-46.78 23.77 4.14 15.52 4.46 32.34-.89 47.62-3.39 9.88-9.19 18.88-16.65 26.18-20.04 19.97-39.95 40.09-60.07 59.97-5.23 4.97-15.01.62-14.72-6.62 2.53-33.93 5.43-67.84 8.12-101.76-19.57 4.46-39.18 8.77-58.89 12.48-5.94 1.13-11.6-5.03-10-10.86 3.69-19.56 7.8-39.03 12.22-58.43-33.81 2.67-67.6 5.5-101.4 8.12-7.43.7-12.27-9.3-7.15-14.69 17.06-17.28 34.34-34.37 51.48-51.58 6.91-6.78 13.37-14.23 21.81-19.17 17.9-11.07 40.46-12.4 60.41-6.72 10.78-27.02 25.51-52.5 44.08-74.93 12-14.54 25.45-27.87 39.92-39.95 20.52-17.51 45.24-29.91 71.41-36.35m-32.27 31.41c-16.59 8.61-30.89 20.88-44.28 33.77-22.24 21.51-40.79 46.86-54.18 74.76-13.3 27.93-22.55 57.62-29.53 87.7 14.58 14.68 29.37 29.15 43.81 43.96 34.68-7.9 68.98-18.97 100.35-35.95 30.75-16.81 57.68-40.19 79.72-67.36 10.36-12.76 18.6-27.22 24.4-42.6 12.88-34.48 14.07-72.76 6.09-108.51-42.03-9.51-87.95-6.14-126.38 14.23m-181.59 147.49c-14.98 14.77-29.78 29.73-44.68 44.59 27.46-2.22 54.91-4.42 82.36-6.67 4.03-16.45 8.62-32.77 14.43-48.69-17.72-4.77-38.34-2.09-52.11 10.77m51.17 59.04c-3.52 15.38-6.81 30.81-9.89 46.28 15.4-3.16 30.77-6.47 46.07-10.06-12.01-12.12-24.1-24.16-36.18-36.22m57.28 49.64c-2.34 27.42-4.47 54.86-6.68 82.29 13.74-13.68 27.42-27.42 41.16-41.11 4.66-4.47 8.71-9.65 11.42-15.54 5.88-12.44 5.95-26.9 2.67-40.07-15.88 5.8-32.16 10.39-48.57 14.43zM490.27 158.37c12.8-1.49 26.15 2.95 35.41 11.94 9.58 9.03 14.71 22.51 13.54 35.63-.95 12.71-7.78 24.78-18.11 32.21-9.41 6.91-21.64 9.71-33.14 7.79-12.27-1.92-23.48-9.4-30.09-19.89-7.55-11.7-8.99-27.04-3.81-39.96 5.74-14.97 20.21-26.14 36.2-27.72m-26.46 36.69c-3.53 14.09 3.91 29.87 17.01 36.12 13.35 6.91 31.17 2.79 40.02-9.39 6.45-8.33 7.99-19.8 4.82-29.75-12.56-.2-25.12.14-37.67-.16-3-.5-2.99-5.35.03-5.79 11.6-.27 23.21 0 34.82-.13-5.56-9.78-16.59-16.04-27.83-15.86-14.54-.22-28.21 10.75-31.2 24.96zM476.39 197.47c10.85-.4 21.74-.02 32.6-.18 1.51.07 3.41-.26 4.44 1.16 1.62 1.82 0 5.11-2.46 4.82-11.34.04-22.68.15-34.01-.05-3.05-.11-3.48-4.97-.57-5.75zM270.38 393.47c3.81-1.29 8.34.38 10.4 3.83 2.25 3.47 1.62 8.4-1.4 11.22-25.28 25.32-50.6 50.61-75.89 75.91-3.29 3.73-9.63 3.85-13.03.23-3.57-3.42-3.4-9.69.29-12.95 24.33-24.33 48.67-48.66 72.98-73 2.04-1.94 3.85-4.39 6.65-5.24zM211.39 407.6c3.99-1.6 8.91.19 10.98 3.95 2.1 3.51 1.33 8.32-1.68 11.08-17.01 17.01-34.01 34.04-51.04 51.04-3.24 3.52-9.29 3.66-12.69.29-3.7-3.31-3.72-9.69-.03-13.03 16.81-16.83 33.67-33.62 50.46-50.47 1.17-1.15 2.41-2.32 4-2.86zM275.35 432.53c4.47-2.15 10.33.24 12.05 4.87 1.38 3.31.48 7.34-2.11 9.8-9.19 9.2-18.34 18.45-27.61 27.57-3.82 3.76-10.81 2.78-13.57-1.77-2.38-3.53-1.72-8.64 1.43-11.48 8.84-8.86 17.72-17.69 26.55-26.56.97-.95 1.99-1.89 3.26-2.43zM291.51 461.65c4.2-1.35 9.11.92 10.82 4.97 1.65 3.52.58 7.89-2.28 10.45-13 12.99-25.99 25.99-38.98 38.99-2.41 2.68-6.39 3.89-9.82 2.61-4.24-1.39-6.92-6.23-5.8-10.57.62-3.11 3.28-5.12 5.37-7.27 12.19-12.18 24.38-24.36 36.56-36.55 1.17-1.15 2.52-2.19 4.13-2.63zM140.3 479.35c5.23-3.08 12.47 1.61 11.87 7.62-.07 5.98-7.64 9.86-12.51 6.35-5.13-3.02-4.74-11.43.64-13.97zM230.3 479.42c5.88-2.06 12.14 4.31 10.04 10.15-1.46 5.6-9.32 7.68-13.33 3.5-4.55-3.93-2.53-12.22 3.29-13.65zM175.45 489.65c5.82-2.04 12.13 4.17 10.11 10.03-1.4 5.81-9.63 7.89-13.61 3.4-4.28-4.02-2.17-12 3.5-13.43zM232.36 521.62c5.71-2.38 12.38 3.52 10.66 9.49-1.1 5.81-9.09 8.34-13.32 4.19-4.55-3.75-2.97-11.91 2.66-13.68zM141.41 523.55c5.69-2.17 12.13 3.71 10.41 9.58-1.11 5.71-8.91 8.26-13.17 4.27-4.78-3.74-3.09-12.23 2.76-13.85zM95.41 524.62c5.73-2.7 12.68 3.22 10.97 9.3-1.07 5.93-9.28 8.43-13.46 4.09-4.3-3.71-2.83-11.46 2.49-13.39zM176.38 532.42c4.21-2.41 10.1-.02 11.49 4.6 1.63 4.4-1.42 9.67-6.01 10.51-4.06.97-8.51-1.77-9.5-5.82-1.03-3.55.75-7.6 4.02-9.29zM182.27 571.28c5.64-3.04 12.98 2.64 11.46 8.85-.83 5.65-8.25 8.61-12.73 5.04-4.93-3.26-4.17-11.58 1.27-13.89zM114.3 595.48c5.56-1.81 11.58 3.81 10.11 9.49-.96 6.04-9.33 8.65-13.55 4.2-4.57-3.98-2.45-12.34 3.44-13.69z"/></g></svg>