<svg width="700pt" height="700pt" viewBox="0 0 700 700" xmlns="http://www.w3.org/2000/svg"><g fill="#231f20"><path d="M223.1 77.07c12.17-4.44 24.95-7.35 37.91-8 4.66-.04 9.75.43 13.54 3.4 3.92 3.21 4.32 8.83 3.45 13.48-.7 5.01-3.26 9.45-4.67 14.25-1.07 6.14-1.8 13.05-6.55 17.6-1.93 2.15-4.91 1.55-7.47 1.83-2.49 1.7-4.6 3.95-7.36 5.25-4.57 2.55-9.9 3.68-13.98 7.08-6.73 5.31-13.54 10.54-20.53 15.5-1.75 1.26-3.66 2.29-5.71 2.98 2.86-4.86 7.48-8.28 11.16-12.47-5.72 2.62-11.14 5.95-17.22 7.74-4.47 1.69-9.3 1.99-13.78 3.59 2.58.66 5.23 1.12 7.74 2.06l.31 1.45c-8.33 4.25-17.89 5.21-26.4 8.98l3.58.62c-5.8 4.42-12.23 8.13-17.38 13.34-10.18 14.14-20.29 28.5-27.59 44.39-2.79 5.11-3.32 11.21-7.1 15.8-13.36 32.49-20.25 67.62-20.32 102.73l-.43.02c-.22-19.91.95-39.91 4.91-59.46 6.14-31.36 18.95-61.16 35.82-88.2 1.5-2.33 3.03-4.65 4.19-7.17-4.34 3.03-8.03 6.87-11.7 10.66-9.74 9.93-18.08 21.32-24.03 33.92-7.35 15.13-11.12 32.08-21.32 45.74-3.09 4.52-7.19 8.18-10.78 12.27-1.46 5.76-1.88 11.73-2.62 17.62-2.14 22.84-4.43 45.91-1.52 68.8.56 6.11 2.09 12.1 2.66 18.21-1.57-3.54-1.67-7.49-2.65-11.2-7.1-35.02-10.6-71.7-2.4-106.85 3.52-15.37 9.29-30.22 17-43.97-1.81 14.11-5.3 27.94-7.74 41.93 16.25-35.24 34.56-69.96 59.04-100.26-2.12.43-4.74.31-5.98 2.43-6.59 8.65-13.75 16.9-21.85 24.16-2.42 2.15-5.1 4.17-8.38 4.72-.6-4.74 2.08-8.95 4.03-13.05 3.91-7.3 8-14.55 12.69-21.39 3.17-4.41 7.26-8.06 10.51-12.42 3.84-5.34 9.37-9.09 13.8-13.9-.97-.52-1.94-1.04-2.91-1.57.87-1.9 1.89-3.75 3.33-5.28 6.23-6.82 13.4-12.68 20.52-18.55 13.3-10.8 27.02-21.1 41.07-30.91 4.25-2.81 8.3-6.06 13.11-7.9m-33.79 36.29c-.81 1.7.62 3.2 1.6 4.42 3.47-2.29 7.66-4.39 9.14-8.58-3.93-.67-8.68.46-10.74 4.16m73.93.71c-1.55.28-1.2 2.87.45 1.94 1.49-.3 1.18-2.83-.45-1.94zM451.03 139.12c35.71 8.98 69.72 25.94 97.15 50.68 14.89 13.3 27.62 28.9 38.26 45.77 9.38 15.08 17.74 31 22.79 48.08 9.13 26.48 14.33 54.36 15.19 82.35 2.08-9.57.48-19.54 2.09-29.21.48 1.01 1.02 2.02 1.16 3.16 4.62 42.65.3 86.77-16.11 126.63-6.42 16.36-15.8 31.26-24.52 46.44-19.38 30.47-45.26 56.83-75.61 76.42-32.99 21.51-71.06 34.82-110.06 39.81-40.83 5.18-82.6 1.51-122.23-9.4-36.8-10.5-71.36-28.75-100.87-53.1-29.68-24.54-54.41-56.09-67.13-92.73 2.89 2.82 5.03 6.26 7.36 9.53 9.27 13.05 18.31 26.26 27.82 39.14 11.43 15.98 25.77 29.68 40.99 42.02 4.8 3.57 9.35 7.58 14.68 10.36-3.05-3.03-6.7-5.34-9.97-8.11-13.83-11.45-26.48-24.33-37.64-38.4-7.25-9.42-15-18.46-21.61-28.35-12.33-17.91-22.72-37.19-30.75-57.4-.57-1.32-1.25-2.59-1.98-3.81 1.98 7.44 5.6 14.42 6.86 22.06-2.94-3.76-4.39-8.37-6.41-12.62-6.41-15.19-12.33-30.65-16.28-46.67-5.92-26.88-6.56-54.57-5.86-81.97 1.13 7.02.62 14.2 1.63 21.25.69 4.67-.21 9.42.61 14.08.62-8.03-.41-16.06.12-24.08.56-10.39 2-20.88 5.79-30.62 2.11-5.85 6.64-10.4 8.69-16.27 2.98-6.19 4.9-13.03 9.06-18.56-.37 6.08-2.37 11.88-3.54 17.83-3.56 16.65-6.86 33.49-7.41 50.55-.59 41.62 6.73 83.52 22.71 122.01 3.84 9.56 8.4 18.93 14.92 26.98-10.9-22.15-19.64-45.4-25.39-69.43-.52-3.19.7-6.38.21-9.58-2.58-24.28-6.8-48.47-6.79-72.96-.41-27.91 5.56-55.56 13.96-82.02-5.05 22.39-8.96 45.11-10.09 68.08-3.7 60.77 8.64 123.34 40.12 175.87 2.33 4.31 5.07 8.39 7.9 12.39 21.34 32 49.96 58.95 82.58 79.22 37.39 23.63 81.09 38.46 125.56 38.39 17.83 1.11 35.74-.36 53.44-2.5 12.38-1.55 24.5-4.51 36.62-7.37-12.21 4.57-25.11 7.01-37.9 9.32-4.65.96-9.59.76-13.98 2.77 6.05.24 12.03-1 18-1.84 38.11-5.95 74.71-21.41 105.5-44.65 5.92-4.79 12.2-9.24 17.38-14.86-8.7 5.68-16.8 12.27-25.83 17.45-33.54 20.5-71.53 33.45-110.44 38.67-19 2.6-38.38 3.33-57.42.67-38.4-4.88-74.88-19.61-108.43-38.49-7.3-4.26-14.92-8.13-21.28-13.76-12.25-9.64-24.08-19.86-34.65-31.35-10.33-10.26-19.3-21.75-28.24-33.21-1.45-2.56-2.13-5.45-3.39-8.08-8.25-13.94-14.81-28.76-21.67-43.4-.98-2.01-1.62-4.15-1.87-6.35-1.02-7.76-5.95-14.81-5.15-22.81-1.41-5.9-2.35-12.04-4.5-17.71l-.91 3.68c.25-3.33.87-6.69.18-10.01-8.79-49.43-5.25-100.65 7.7-149.03.82-3.09 1.41-6.26 2.76-9.17-.14 1.48-.37 2.96-.73 4.41-10.26 39.06-15.14 79.7-12.62 120.06 1.99 30.02 7.96 59.94 19.25 87.89 5.4 10.69 10.94 21.36 17.68 31.28 20.94 29.2 45.64 55.9 74.29 77.68 9.43 7.23 19.34 13.93 30.16 18.93 16.3 7.91 33.31 14.43 50.83 19.11 1.11.52 3.21.42 3.21 2.12-3-.48-6.01-.81-9.01-1.2-8.34-2.69-16.46-6.11-24.99-8.13 14.33 7.18 29.59 12.46 45.14 16.31-5.79.59-11.34-1.43-16.93-2.57-6.24-1.31-12.22-3.66-18.52-4.7 2.1 1.07 4.28 1.99 6.54 2.66 12.01 3.58 24.22 6.69 36.68 8.19 15.3 1.66 30.68 2.17 46.05 2.82 11.16.49 22.29-.76 33.33-2.25-7.04-.99-14.19.08-21.22.82-10.2.74-20.34-.91-30.51-1.46l2.72-1.19c37.86 2.29 76.29-4.83 110.78-20.62-10.07 2.73-19.72 7.09-30.05 8.89 10.47-3.94 21.08-7.66 31.08-12.75 30.12-14.61 56.83-35.35 80.91-58.42l1.28 1.25c-5.75 6.65-12.2 12.69-17.42 19.78 7.04-5.33 12.53-12.3 18.36-18.85 2.94-3.33 6.41-6.59 7.33-11.13.76-1.84 2.51-3.04 3.8-4.49 4.98-4.8 9.21-10.31 13.03-16.06 1.25-2.39 4.23-3.06 5.45-5.48 6.78-10.74 12.82-22.04 21.05-31.79-5.4 17.41-14.19 33.5-23.81 48.89 22.54-28.65 37.44-63.16 43.7-99.03.54-2.96 1-5.93 1.11-8.93-2.56 12.64-5.79 25.39-12.07 36.79-3.37 5.89-5.61 12.66-10.74 17.35 4.73-11.28 9.13-22.82 10.94-34.98 5.35-33.34 3.82-67.26 2.56-100.85l1.19.56c1.49 9.76 2.89 19.56 3.91 29.38.58-10.1-1.36-20.14-3.02-30.06-2.53-10.47-4.73-21.06-8.62-31.14-12.1-33.3-32.09-63.2-54.98-90.02-25.33-23.48-55.63-41.02-87.17-54.78-4.57-2.13-9.41-3.64-13.83-6.07m-360.66 213.78c-.45 26.82 3.07 54 12.52 79.21 1.13 3.1 2.29 6.22 4.06 9.02-2.1-9.08-5.16-17.92-7.09-27.05-4.83-20.1-7.6-40.63-9.49-61.18m-8.95 3.98c-.65 5.58.6 11.1 1.33 16.6 1.09 8.51 3.12 16.83 4.72 25.24l.54-.13c-2.92-13.77-5.79-27.63-6.59-41.71m122.02 219.26c-.73 1.13 1.13 2.58 2.09 1.69.74-1.14-1.14-2.67-2.09-1.69m168.54 50.14c-3.36.03-6.73-.15-10.07.29 10.99.41 22.03.23 32.99-.85l1.68-.92c-8.22-.06-16.37 1.5-24.6 1.48zM95.31 351.01c-.16-1.72-.17-3.46.18-5.15 1.62 15.67 4.43 31.2 6.88 46.76.77 5.58 2.31 11.07 2.58 16.71-1.33-2.75-1.76-5.81-2.39-8.77-3.41-16.35-5.78-32.91-7.25-49.55zM106.37 359.87c.71 8.99 2.01 17.94 3.8 26.79.66 3.47 1.56 6.91 1.71 10.45-2.6-9.34-3.98-19.01-5.19-28.63-.4-2.85-.53-5.74-.32-8.61zM588.78 476.42c1.8-4.43 4.4-8.53 7.33-12.3-1.81 4.4-3.84 8.96-7.33 12.3zM415.5 604.64c3.17-.45 6.3-1.56 9.54-1.27-12.78 2.98-25.7 5.52-38.84 6.17-14.44 1.07-28.92.1-43.31-1.13 12.35-.23 24.72.74 37.08.03 11.91-.45 23.77-1.84 35.53-3.8z"/></g><path fill="#100e0e" opacity=".48" d="M80.3 392.46c1.43-.16 1.41 2.32.55 3.02-1.43.16-1.42-2.34-.55-3.02z"/><path fill="#070606" opacity=".22" d="M142.95 492.93c1.87.77 3.84 1.45 5.42 2.77 1.26 2.63 1.94 5.52 3.39 8.08l-.91 1.54c-2.83-4-5.57-8.08-7.9-12.39z"/><path fill="#181515" opacity=".7" d="M548.98 528.78c2.87-3.29 5.84-6.6 9.55-8.95-.92 4.54-4.39 7.8-7.33 11.13-.24-.23-.71-.7-.94-.93l-1.28-1.25z"/><path fill="#0d0c0c" opacity=".41" d="M282.67 602.09c6.3 1.04 12.28 3.39 18.52 4.7 5.59 1.14 11.14 3.16 16.93 2.57l2.1.21c-2.24 1.62 1.52 2.56 1.7.31 2.43.49 4.87.98 7.3 1.51-1.11.52-2.21 1.05-3.33 1.55-12.46-1.5-24.67-4.61-36.68-8.19-2.26-.67-4.44-1.59-6.54-2.66z"/><path fill="#1d191a" opacity=".85" d="M321.92 609.88c-.18 2.25-3.94 1.31-1.7-.31.42.07 1.27.23 1.7.31z"/></svg>