<svg width="700pt" height="700pt" viewBox="0 0 700 700" xmlns="http://www.w3.org/2000/svg"><path d="M343.07 89.04c-1.37-4.74 3.28-9.44 7.97-9.05 4.34.09 8.45 4.53 7.21 8.92-2.89 12.55-5.85 25.09-8.74 37.65-2.27-12.49-4.25-25.02-6.44-37.52zm-51.68-1.54c4.39-1.35 9.57 2 9.87 6.64.61 12.98 1.18 25.96 1.71 38.95-5.57-11.48-11-23.02-16.54-34.51-2.44-4.19.34-9.98 4.96-11.08zm108.49 7.35c.05-4.78 5.57-8.01 9.92-6.56 4.35 1.11 7.24 6.49 5.08 10.6-5.96 11.49-11.88 23.01-17.93 34.46.86-12.84 1.97-25.66 2.93-38.5zm-161.58 10.59c3.97-1.54 9 .81 10.08 5 3.86 12.2 7.88 24.36 11.64 36.61-8.2-9.51-16.35-19.04-24.58-28.52-4.38-3.7-2.54-11.46 2.86-13.09zm214.12 7.64c1.3-4.63 7.45-6.39 11.33-3.85 3.94 2.18 5.43 8.26 2.1 11.6-8.78 9.41-17.36 19.02-26.27 28.31 4.21-12.04 8.59-24.03 12.84-36.06zm-192.83 48.58c21.45-12.47 47.94-15.82 71.84-9.21 17.97 4.89 34.31 15.37 46.46 29.46 16.18-11.64 36.17-17.94 56.12-17.38 20.72.37 41.19 8.04 57.08 21.33 15.42 12.74 26.45 30.61 31.05 50.07 16.01 2.31 31.22 9.83 42.65 21.29 12.97 12.83 21.01 30.5 22.06 48.72 1.05 15.21-2.84 30.61-10.61 43.7 8.73 16.55 11.84 35.98 8.67 54.43-3.05 18.53-12.48 35.89-26.23 48.65-15.7 14.75-37.1 23.17-58.64 23.1-12.7-.04-26.17 2.18-38.09-3.46-12.82 9.99-28.04 16.84-44.05 19.7l-.32 7.38c-45.93 15.94-94.9 21.31-143.32 20.7-.01-8.97.03-17.94-.02-26.91-1.89-1.57-3.74-3.18-5.54-4.85-19.54 7.7-42.06 7.67-61.4-.65-22.37-9.33-39.83-29.35-46.2-52.73-13.87-4.53-26.3-13.41-34.87-25.26-9.82-13.34-14.49-30.31-12.98-46.81 1.55-18.73 11.2-36.68 26.09-48.18-3.24-21.28.88-43.73 12.42-62 14.19-23.1 39.34-39.02 66.32-41.84 7.59-20.57 22.47-38.36 41.51-49.25m14.57 10.52c-15.54 7.05-28.66 19.33-36.65 34.42-3.28 6.07-5.42 12.66-7.8 19.11-5.9.73-11.86 1.1-17.68 2.38-15.7 3.38-30.16 12.13-40.46 24.44-11.14 13.13-17.35 30.28-17.3 47.49-.11 7.17 1.37 14.21 2.5 21.26-6.96 5.44-14.26 10.8-19.02 18.41-9.35 13.93-11.35 32.35-5.43 48.02 4.6 12.49 14.11 23.06 26.06 28.94 5.05 2.58 10.58 3.93 15.91 5.79 1.56 5.72 2.91 11.52 5.31 16.96 5.93 13.7 16.82 25.14 30.16 31.83 12.95 6.56 28.16 8.54 42.37 5.48 6.96-1.4 13.42-4.45 20-7.02 5.07 4.64 9.84 9.65 15.48 13.62 13.37 9.7 29.91 14.86 46.41 14.66 14.21-.15 28.95-1.52 41.75-8.19 6.02-3.04 11.03-7.64 15.73-12.4 14.33.84 29.02-.71 42.23-6.66 9.77-4.04 18.1-10.65 26.29-17.2 5.51 2.48 10.73 6.22 16.98 6.47 8.34.62 16.69-.23 25.03-.2 24.42-.44 47.85-14.9 59.43-36.36 9.65-17.33 11.36-38.83 4.55-57.46-2.08-5.93-5.31-11.34-8.14-16.92 4.33-7.06 8.86-14.17 10.94-22.28 4.35-15.23 2.21-32.14-5.8-45.79-8.28-14.42-22.8-25.11-39.1-28.47-4.94-1-9.95-1.46-14.91-2.29-2.04-9.16-3.95-18.47-8.23-26.9-9.78-20.39-29.13-35.83-51.18-40.83-17.08-4-35.54-2.05-51.27 5.76-8.32 4-15.44 9.95-22.95 15.23-3.75-4.2-7.31-8.56-11.06-12.75-10.6-11.73-24.85-20.11-40.27-23.64-16.58-3.87-34.41-2.01-49.88 5.09zm6.01 10.96c12.31-7.22 27.81-9.44 41.38-4.66 6.11 2.11 11.52 5.97 15.62 10.95l-2.51 2.9c-10.41-6.77-23.55-9.93-35.68-6.42-17.04 4.82-30.36 17.94-40.09 32.23-1.18-.53-2.33-1.09-3.49-1.64 3.53-13.77 12.32-26.28 24.77-33.36zm-137.33 194.85c-3.66-14.02-.22-31.25 12.58-39.55.61.68 1.22 1.36 1.83 2.05-6.56 8.18-10.18 18.97-8.36 29.44 2.38 14.32 11.64 26.47 22.19 35.97 1.73.93 1.46 2.41.3 3.72-13.88-5.13-25.23-17.07-28.54-31.63zm407.42-9.23c1.73.23 3.46.47 5.21.71.35 13.93-3.53 27.97-11.34 39.55-10.52 15.77-27.48 27.41-46.31 30.41-10.83 1.75-22.46.04-31.68-6.15.69-1.6 1.39-3.19 2.09-4.79 11.14 2.58 23.08 2.69 33.9-1.36 14.6-5.3 26.07-16.76 34.39-29.58 5.81-8.94 10.37-18.68 13.74-28.79zm-276 162.06c48.42.43 97.09-5.63 143.36-20.17-.01 3.73-.01 7.46 0 11.19-45.89 16.14-94.9 21.67-143.35 21.2-.01-4.08-.01-8.15-.01-12.22zm0 22.89c48.43.22 97.16-5.75 143.35-20.63 0 3.74.01 7.49-.01 11.24-45.89 16.18-94.86 21.95-143.34 21.59v-12.2zm-.16 22.88c48.49.1 97.32-5.9 143.5-21.07-.14 8.64.34 17.34-.23 25.95-5.4 9.78-15.03 18.52-26.79 18.61-1.12 2.96-4.22 4.14-6.4 6.16-3.16 2.56-5.24 6.09-7.78 9.2-2.37 2.97-6.43 3.29-9.91 3.79-9.45.99-18.98.86-28.45.49-5.25-.37-10.63-.5-15.65-2.21-4.23-1.91-5.9-6.66-9.24-9.63-2.49-2.89-6.64-4.13-8.22-7.79-10.5-.58-18.75-8.12-25.64-15.35-1.98-2.52-5.15-4.66-5.19-8.15z"/></svg>