<svg width="700pt" height="700pt" viewBox="0 0 700 700" xmlns="http://www.w3.org/2000/svg"><path d="M156.44 60.43c2.98-3.08 7.74-4.21 11.79-2.78 3.53 1.14 5.8 4.25 8.39 6.71 58.08 58.01 116.01 116.18 174.19 174.1 27.36-27.59 55-54.92 82.34-82.53-.18-4.83.45-10.1 4.01-13.73 11.41-11.59 23.01-23.01 34.47-34.57 3.77-4.4 9.73-6.51 15.44-5.5 7.11-6.9 13.96-14.08 21.12-20.92 12.67-11.6 32.58-14.06 47.76-6.07 7.36 3.55 12.66 9.91 18.4 15.51 14.82 14.85 29.69 29.65 44.48 44.54 12.15 12.42 15.21 32.53 7.4 48.04-3.51 7.69-10.05 13.23-15.85 19.13-3.93 3.93-7.86 7.85-11.78 11.79.52 5.01-.94 10.3-4.65 13.84-11.64 11.63-23.27 23.28-34.93 34.89-3.51 3.62-8.7 4.87-13.61 4.52-27.57 27.67-55.21 55.26-82.84 82.88 59.15 59.25 118.39 118.39 177.57 177.6 3.23 3.02 4.47 7.97 2.9 12.12-1 3.03-3.57 5.09-5.71 7.29-29.85 29.83-59.68 59.67-89.51 89.51-2.56 2.54-5.08 5.59-8.82 6.28-4.14 1.02-8.52-.71-11.29-3.83-7.19-7.23-14.42-14.43-21.63-21.65 21.07-21.09 42.14-42.17 63.24-63.23 1.71-1.81 4.21-3.59 3.89-6.4-.16-4.01-5.7-6.19-8.42-3.14-21.98 21.85-43.84 43.82-65.79 65.71-7.55-7.54-15.1-15.08-22.63-22.63 13.24-13.28 26.53-26.51 39.77-39.8 2.19-1.85 2.29-5.5.13-7.41-1.97-1.98-5.44-1.73-7.21.4l-39.75 39.74c-7.55-7.55-15.12-15.06-22.64-22.64 13.26-13.27 26.56-26.51 39.8-39.81 2.07-1.79 2.26-5.22.32-7.16-1.9-2.15-5.54-2.05-7.38.13-13.24 13.25-26.53 26.46-39.71 39.77-7.68-7.46-15.21-15.06-22.72-22.68 13.31-13.21 26.54-26.49 39.79-39.75 2.2-1.89 2.23-5.64-.01-7.5-1.96-1.81-5.29-1.61-7.01.43l-39.83 39.82c-7.56-7.54-15.1-15.09-22.63-22.66 13.25-13.27 26.53-26.52 39.77-39.8 2.12-1.83 2.24-5.36.21-7.29-1.95-2.03-5.5-1.84-7.29.31l-39.79 39.73c-7.55-7.54-15.1-15.09-22.63-22.65 21.75-21.77 43.54-43.52 65.3-65.28 1.66-1.44 2.42-3.9 1.44-5.95-1.16-3-5.75-4.13-7.81-1.43-64.61 64.73-129.25 129.45-193.89 194.16-4.86 4.92-11.69 7.82-18.62 7.79-26.99-.09-53.99-.25-80.98-.33-8.48.1-16.33-6.08-18.92-14.05-1.24-3.19-.89-6.66-.94-10-.11-25.34-.22-50.68-.35-76.02-.1-4.78 1.06-9.59 3.48-13.72 2.21-3.98 5.7-6.97 8.85-10.18 54.47-54.52 108.96-109.03 163.43-163.56 2.13-1.82 2.3-5.4.21-7.31-1.95-2.02-5.48-1.84-7.27.31-13.23 13.23-26.5 26.43-39.69 39.71-7.67-7.47-15.25-15.04-22.72-22.71 21.34-21.12 42.47-42.47 63.77-63.64 1.32-1.43 3.11-2.76 3.33-4.85.45-2.95-2.22-5.86-5.21-5.62-2.5.1-4 2.35-5.67 3.89-21.08 21.1-42.19 42.17-63.3 63.25-7.55-7.53-15.1-15.08-22.63-22.63 13.24-13.27 26.54-26.49 39.77-39.77 2.67-2.22 2.04-6.98-1.21-8.3-2.23-1.14-4.82-.09-6.33 1.71-13.02 13.13-26.21 26.1-39.16 39.3-7.72-7.29-14.97-15.06-22.66-22.38.62-.9 1.37-1.69 2.11-2.49 12.55-12.49 25.06-25.03 37.56-37.57 3.5-2.78 1.07-9.05-3.4-8.73-1.99-.08-3.39 1.45-4.69 2.72-12.81 12.95-25.83 25.72-38.58 38.74-7.81-7.3-15.16-15.1-22.81-22.57 13.24-13.31 26.56-26.55 39.81-39.86 2.2-1.89 2.23-5.63-.05-7.47-1.96-1.83-5.29-1.58-7.01.47-13.29 13.24-26.52 26.54-39.8 39.78-7.56-7.54-15.12-15.09-22.66-22.66l39.78-39.8c1.92-1.66 2.29-4.74.7-6.75-1.78-2.53-5.83-2.61-7.78-.24l-39.73 39.74c-7.5-7.5-15.03-14.97-22.49-22.5-4.51-4.27-4.39-12.15.19-16.32 31.84-31.85 63.66-63.71 95.51-95.54m363.99 39.93c-5.19 5.23-10.44 10.4-15.61 15.65 13.22 13.33 26.58 26.52 39.74 39.91 10.14-9.84 20.02-19.95 30.05-29.9-8.94-8.93-17.83-17.92-26.84-26.78-7.45-7.12-20.47-6.54-27.34 1.12m-31.06 25.1c-3.39 2.11-3.69 7.34-.66 9.9 12.43 12.56 24.98 25 37.46 37.52 1.88 2.18 5.09 3.36 7.81 2 3.75-1.55 4.9-7.03 1.97-9.89-12.76-12.89-25.64-25.66-38.45-38.5-2.01-2.26-5.64-2.79-8.13-1.03m-30.24 30.77c-4.19 1.51-5.21 7.52-1.87 10.41 12.65 12.74 25.36 25.42 38.08 38.09 2.23 2.5 6.39 2.8 8.86.49 2.79-2.34 2.73-7.01-.02-9.36-12.7-12.69-25.39-25.4-38.11-38.07-1.73-1.86-4.59-2.56-6.94-1.56m-12.56 17.92c-104.39 104.62-208.93 209.09-313.35 313.68 3.12 3.33 7.24 5.8 11.83 6.36 7.59 1.11 15.36-2.1 20.66-7.5 83.98-84.03 167.94-168.08 251.94-252.11 2.24-2.55 6.57-2.68 8.93-.2 2.56 2.36 2.42 6.78-.2 9.06-84.1 84.19-168.23 168.35-252.32 252.54-8.53 8.13-10.21 23.44-.96 31.69 104.51-104.51 208.96-209.07 313.44-313.61-13.33-13.3-26.57-26.68-39.97-39.91m-322.81 329.09c-.04 13.98-.07 27.97-.15 41.96 5.48 5.59 11.06 11.09 16.59 16.64 6.99-6.95 13.9-13.95 20.92-20.86-7.15-7.73-11.56-17.97-11.56-28.57-9.33-.12-18.51-3.36-25.8-9.17z"/></svg>