<svg width="700pt" height="700pt" viewBox="0 0 700 700" xmlns="http://www.w3.org/2000/svg"><g><path d="M265.38 74.68c41.15-12.68 85.17-15.83 127.74-9.47 49.63 7.37 97.14 28.19 136.31 59.52 47.19 37.5 82.18 90.13 98.14 148.28 12.76 46.07 13.82 95.32 3.05 141.9-8.78 38.22-25.59 74.56-48.93 106.07-12.73-18.72-25.47-37.43-38.2-56.16 21.56-36.23 32.71-78.62 31.36-120.78-.93-40.52-13.19-80.71-35.06-114.84-25.01-39.4-62.59-70.68-105.93-88-25.64-10.35-53.22-15.79-80.85-16.13-41.19-.76-82.47 10.35-117.85 31.42-18.73-12.74-37.47-25.46-56.18-38.21 26.1-19.22 55.39-34.13 86.4-43.6zM80 79.99c67.02 45.59 134.05 91.16 201.07 136.74 26.28-13.6 56.6-19.21 86-15.76 32.46 3.58 63.51 18.28 86.96 40.99 24.45 23.42 40.58 55.34 44.73 88.96 3.94 30-1.62 61.09-15.51 87.96l136.7 201.05c-67.04-45.53-134.04-91.13-201.05-136.7-35.93 18.75-79.52 21.91-117.79 8.57-38.87-13.22-71.57-43.25-88.15-80.8-18.48-40.92-17.06-90.12 3.77-129.9-45.57-67.04-91.17-134.06-136.73-201.11m111.71 111.71c52.74 52.78 105.52 105.52 158.29 158.28 10.07-10.06 20.13-20.13 30.19-30.21-62.82-42.7-125.57-85.5-188.48-128.07m118.83 45.05c30.22 20.69 60.68 41.06 90.79 61.9 20.83 30.09 41.18 60.54 61.88 90.74 10.69-30.53 8.58-65.38-6.42-94.12-14.54-28.6-41.04-50.84-71.78-60.08-24.15-7.47-50.62-6.66-74.47 1.56m-73.8 73.79c-4.63 13.29-6.72 27.39-6.71 41.44.34 25.8 9.35 51.36 25.26 71.67 15.91 20.51 38.62 35.64 63.73 42.26 23.03 6.25 47.86 5.04 70.39-2.68-30.2-20.71-60.67-41.06-90.76-61.91-20.84-30.11-41.2-60.57-61.91-90.78zM346.34 146.55c6.65-2.36 14.49 2.44 15.49 9.39 1.47 7.04-4.64 14.27-11.8 14.07-6.83.21-12.82-6.31-11.99-13.1.35-4.71 3.79-8.98 8.3-10.36zM118.29 179c12.73 18.72 25.47 37.44 38.2 56.17-18.31 30.8-29.12 66.02-31.1 101.8-2.03 35.75 4.42 72.01 19.12 104.68 17.9 40.3 48.02 75.03 85.32 98.54 39.61 25.28 87.34 37.31 134.2 34.36 35.44-2.12 70.28-12.92 100.79-31.06 18.73 12.73 37.45 25.47 56.18 38.19-28.19 20.88-60.23 36.53-94.04 45.89-43.85 12.17-90.59 13.67-135.16 4.53-60.36-12.24-116.28-44.73-157.09-90.82-28.16-31.63-49.26-69.53-61.13-110.19-13.57-46.25-15.22-95.91-4.91-142.98 8.6-39.33 25.63-76.78 49.62-109.11zM154.36 338.54c6.98-2.48 15.15 2.97 15.59 10.34.84 6.76-5.09 13.28-11.89 13.13-6.42.19-12.23-5.54-12.07-11.97-.12-5.13 3.47-10.02 8.37-11.5zM538.43 338.52c6.96-2.43 15.07 3.01 15.52 10.35.92 7.17-5.82 13.96-13 13.09-7.15-.4-12.62-8.08-10.59-14.97.98-3.97 4.16-7.29 8.07-8.47zM346.4 530.52c6.96-2.46 15.09 2.98 15.55 10.32.93 7.19-5.84 13.99-13.04 13.1-7.08-.42-12.51-7.99-10.58-14.84.95-4.01 4.13-7.37 8.07-8.58z"/></g></svg>