<svg width="700pt" height="700pt" viewBox="0 0 700 700" xmlns="http://www.w3.org/2000/svg"><path d="M117.68 52.72c2.99-3.41 8.79-3.68 11.99-.44 10.18 10.06 20.23 20.25 30.38 30.33 8.79-8.75 17.51-17.57 26.32-26.3 3.16-3.41 9.03-3.16 12.03.34 39.32 39.34 78.67 78.65 117.97 118.01 3.32 3.06 3.31 8.78-.04 11.82-8.71 8.76-17.49 17.47-26.21 26.22 17.84 17.8 35.56 35.72 53.51 53.41 51.34-51.49 102.84-102.82 154.21-154.29 1.99-2.2 4.79-3.28 7.45-4.43 37.36-16.59 74.66-33.33 112.05-49.87 6.12-2.71 13.18 4.3 10.5 10.44-16.15 38.39-32.58 76.67-48.79 115.05-.86 2.02-1.77 4.08-3.35 5.66-51.58 51.64-103.26 103.19-154.8 154.88 75.46 75.39 150.84 150.87 226.28 226.28 3.69 3.12 3.71 9.25.05 12.4-21.85 21.82-43.65 43.69-65.53 65.46-3.19 3.29-8.91 2.94-11.86-.48l-168.01-168.05c-19.49-19.4-38.79-39-58.4-58.27-70.81 71.02-141.8 141.86-212.69 212.8-2.94 3.43-8.69 3.8-11.86.49-21.73-21.61-43.34-43.35-65.06-64.97-3.96-3.09-4.37-9.52-.47-12.82 70.32-70.31 140.61-140.66 210.97-210.94.51-.78 2.52-1.8 1.07-2.74-70.85-70.87-141.72-141.74-212.56-212.63-2.22-2.04-3.42-5.2-2.61-8.18.63-2.84 3.07-4.69 4.98-6.69 20.85-20.81 41.65-41.66 62.48-62.49m-47.83 71.16c8.15 8.15 16.32 16.28 24.46 24.44 18.11-17.95 36.14-35.99 54.2-54-8.19-8.18-16.36-16.37-24.55-24.54-18.07 17.99-36.11 36.03-54.11 54.1m122.31-50.14c-6.81 6.81-13.59 13.65-20.44 20.42 29.11 29.51 58.68 58.58 87.82 88.07 7.19-6.47 13.72-13.66 20.68-20.39-29.26-29.46-58.65-58.79-88.06-88.1m327.08 45.56c16.21 16.06 32.26 32.28 48.44 48.37 6.6-15.54 13.22-31.08 19.81-46.62-7.47-7.44-14.85-14.96-22.39-22.32-15.26 6.92-30.66 13.52-45.86 20.57m-413.28 40.67c47.64 47.66 95.28 95.32 142.93 142.96 18.05-18.02 36.09-36.05 54.12-54.09-47.66-47.67-95.31-95.33-142.98-142.98-18.04 18.02-36.06 36.06-54.07 54.11m-6.44 373.58c4.72 4.61 9.3 9.36 14.04 13.95 134.99-135.1 270.07-270.11 405.07-405.2-4.67-4.66-9.33-9.33-14-14-135.04 135.08-270.14 270.11-405.11 405.25m166.04-345.42c4.24 4.34 8.64 8.53 12.82 12.93 6.9-6.68 13.71-13.47 20.39-20.36-3.67-4.64-8.55-8.68-12.69-13.09-6.86 6.82-13.68 13.68-20.52 20.52m-125.97 385.46c4.68 4.66 9.32 9.36 14.03 13.99l405.11-405.19c-4.68-4.66-9.35-9.33-14.02-13.99-135.05 135.05-270.1 270.1-405.12 405.19m120.94-259.01c5.77 5.76 11.53 11.54 17.31 17.3 18.04-18.03 36.06-36.07 54.09-54.11l-17.29-17.29c-18.06 18.01-36.1 36.04-54.11 54.1m94.65 94.66c62.3 62.33 124.61 124.65 186.93 186.97 18.04-18.04 36.18-35.98 54.07-54.17-62.34-62.27-124.6-124.61-186.91-186.91-18.04 18.03-36.07 36.07-54.09 54.11m-284.72 153.33c18.02 18.01 36.06 36 54.03 54.06 5.89-5.74 11.64-11.61 17.47-17.41-18.02-18.04-36.05-36.06-54.08-54.08-5.81 5.8-11.64 11.59-17.42 17.43m484.38 46.38l21.18 21.18c18.05-18.03 36.12-36.02 54.11-54.11-7.07-7.07-14.12-14.15-21.2-21.2-18.05 18.02-36.15 36.01-54.09 54.13z"/></svg>