<svg width="700pt" height="700pt" viewBox="0 0 700 700" xmlns="http://www.w3.org/2000/svg"><g><path d="M66.26 93.33c5.11-2.71 10.97-3.52 16.68-3.34l457.03.02c15.24-.3 29.3 12.66 29.94 27.93.21 17.35.03 34.71.09 52.06h-20c-.03-16.7.05-33.41-.03-50.11.06-5.65-5.33-10.38-10.91-9.89h-458.09c-5.61-.52-11.04 4.22-10.94 9.91-.07 83.36-.01 166.72-.03 250.09 106.67 0 213.33-.01 320 0v20c-106.67 0-213.33-.01-320 0 .02 16.7-.04 33.41.03 50.11-.07 5.66 5.35 10.38 10.93 9.89h309.04v20h-35c4.6 18.42 9.22 36.83 13.8 55.25.37 2.5 2.48 4.76 5.13 4.71 5.35.13 10.71-.01 16.07.04v20c-56.32.01-112.64-.02-168.95.01-3.67.26-7.48-1.36-9.45-4.54-4.17-5.8.17-14.84 7.24-15.36 9.09-.31 18.2.05 27.3-.15 2.73.02 4.76-2.42 5.11-4.97 4.56-18.34 9.17-36.66 13.74-54.99-57.65-.01-115.31 0-172.97 0-5.71-.14-11.47.38-17.14-.46-11.19-1.87-20.9-10.6-23.82-21.58-1.26-4.21-1.07-8.65-1.06-12.98.01-104.99-.02-209.97.01-314.96-.19-11.03 6.39-21.77 16.25-26.69m219.54 376.68c-5 19.99-10 39.98-15 59.98 26.13.01 52.25.01 78.38 0-4.99-20-10-39.99-15-59.98-16.12-.01-32.25-.01-48.38 0zM433.48 190.71c3.77-.86 7.66-.72 11.5-.71 58.67.03 117.35-.05 176.02.03 15.69.1 29.4 14.32 28.99 29.99.01 120.02.02 240.04 0 360.05.32 15.61-13.33 29.75-28.96 29.89-57.34.1-114.69.01-172.04.04-5.64-.12-11.41.51-16.91-1.08-10.07-2.64-18.38-10.94-21.02-21.01-1.34-4.53-1.05-9.29-1.06-13.95v-353.92c-.28-13.7 10.06-26.59 23.48-29.33m-3.49 30.31c.03 16.32 0 32.65.01 48.98h200c-.02-16.69.03-33.39-.02-50.08.15-5.29-4.62-10.06-9.9-9.9-60.05-.04-120.09-.03-180.14 0-5.78-.25-10.61 5.32-9.95 11m.01 68.98v220h200v-220h-200m0 240c.01 16.67-.03 33.35.02 50.02-.19 5.34 4.64 10.15 9.98 9.96l175.99.04c2.95-.06 6.14.3 8.81-1.23 3.15-1.66 5.23-5.14 5.17-8.72.07-16.69.01-33.38.03-50.07h-200zM496.43 230.64c7.01-3.07 15.33 4.1 13.34 11.49-1.25 7.19-11.06 10.47-16.35 5.4-5.67-4.52-3.88-14.6 3.01-16.89zM536.37 230.59c2.78-.93 5.78-.52 8.67-.6 5.34.09 10.69-.13 16.03.08 5.74.34 10.07 6.53 8.71 12.06-.85 4.48-5.11 8.04-9.71 7.85-6.71.04-13.41.04-20.11 0-4.98.19-9.45-4.02-9.91-8.91-.57-4.39 2.13-8.97 6.32-10.48zM304.51 400.75c6.36-1.84 13.58-.27 18.55 4.1 5.17 4.41 7.83 11.56 6.69 18.28-1.02 6.77-5.81 12.81-12.17 15.36-6.37 2.7-14.1 1.7-19.59-2.51-5.87-4.31-8.99-12-7.74-19.19 1.12-7.51 6.94-14.03 14.26-16.04zM524.5 540.75c6.35-1.85 13.57-.28 18.54 4.09 5.2 4.41 7.86 11.6 6.7 18.33-1.03 6.76-5.82 12.77-12.16 15.32-6.37 2.7-14.11 1.7-19.6-2.51-5.86-4.31-8.97-11.99-7.73-19.16 1.11-7.53 6.93-14.05 14.25-16.07z"/></g></svg>