<svg width="700pt" height="700pt" viewBox="0 0 700 700" xmlns="http://www.w3.org/2000/svg"><g><path d="M117.42 191.06c1.42-4.49 5.1-8.19 9.59-9.62 3.23-1.07 6.67-.74 10.01-.79l429.99.01c8.41-.41 16.54 6.77 16.31 15.36.02 98.43.01 196.87 0 295.3-155.55.02-311.1.02-466.65 0-.03-96.79-.01-193.57-.02-290.36.04-3.3-.27-6.7.77-9.9m226.96-4.54c-7.38 2.42-6.47 14.38.66 16.47 5.75 1.92 11.41-4.39 10.15-9.97-.58-4.93-6.12-8.57-10.81-6.5m-199.71 22.15c-.02 85.1-.01 170.21-.01 255.31 136.89.01 273.78.01 410.66 0 .01-85.11.01-170.21 0-255.31-136.89-.02-273.77-.02-410.65 0zM358.26 281.33c2.93-1.02 6.97-1.34 9.2 1.29 2.63 2.36 1.89 6.33 1.51 9.44-7.57 30.95-14.84 61.97-22.41 92.91-1.05 3.1-1.65 7.31-5.31 8.36-3.8 1.64-9.92.46-10.48-4.38-.29-3.97.95-7.87 1.57-11.76l19.49-81.14c.91-4.16 2.27-8.22 3.95-12.12.42-1.18 1.34-2.11 2.48-2.6zM243.96 328.7c25.98-10.97 52.01-21.81 78.02-32.71.02 7.1 0 14.21.01 21.31-17.74 6.74-35.56 13.29-53.29 20.05 17.77 6.87 35.53 13.75 53.28 20.64.01 7.11.02 14.21 0 21.32-26-10.85-51.95-21.78-77.96-32.61-.1-6 .01-12-.06-18zM378 296.01c25.78 10.89 51.57 21.74 77.34 32.67-.02 6.21-.01 12.42-.01 18.62-25.76 10.93-51.55 21.8-77.33 32.69-.04-7.1.01-14.19-.04-21.29 17.67-6.92 35.38-13.74 53.09-20.57-17.51-7.36-35.44-13.77-53.08-20.84l.03-21.28zM50.02 497.32c84.38.03 168.77-.03 253.16.03.58 3.3 3.57 5.51 6.88 5.28 26.65.04 53.31.05 79.96-.01 3.29.21 6.18-2.03 6.79-5.28 84.38-.04 168.77 0 253.16-.02-.12 3.83.33 7.72-.22 11.53-2.03 2.09-5.01 2.74-7.69 3.58-7.19 1.89-14.59 2.88-21.96 3.76-22.92 2.56-46.01 3.19-69.06 3.14h-403.1c-22.7.03-45.44-.62-68.02-3.13-7.37-.88-14.76-1.87-21.95-3.75-2.71-.85-5.75-1.5-7.78-3.65-.45-3.81-.08-7.66-.17-11.48z"/></g></svg>