<svg width="700pt" height="700pt" viewBox="0 0 700 700" xmlns="http://www.w3.org/2000/svg"><g><path d="M306.83 80.75c24.26-17.63 54.38-26.04 84.17-26.61 34.2-.82 69.01 9.61 95.95 30.98 17.28 13.71 31.24 32.41 36.62 54.03 6.87 27.69 13.6 55.41 20.49 83.09 3.49-1.95 7.51-4.13 11.63-2.77 5.2 1.73 7.96 7.06 9.63 11.93 3.28 10.58 3.24 22.21-.04 32.78-1.67 5.78-5.85 10.26-8.69 15.44-3.83 6.59-6.6 13.77-8.35 21.18 6.8-.62 13.71 1.67 18.72 6.33 8.92 8.08 13.12 20.15 14.26 31.88 1.34 14.77-1.86 30.47-10.94 42.43-5.41 7.16-14.04 12.72-23.31 11.78-8.24-.68-14.99-6.38-19.59-12.9.01 8.16-.12 16.32-.18 24.48-9.83 7.2-18.95 15.32-27.67 23.82-.57-8.57 1.13-17.13.07-25.69-.03-3.9-1.92-7.89-.47-11.68 8.39-23.59 13.18-48.36 15.71-73.23-8 4.38-16.56 7.7-25.42 9.89 13.33-7.64 25.78-18.86 30.14-34.07 3.63-11.75.96-24.35-3.9-35.32-4.11-.93-8.21-1.89-12.3-2.87.93 9.69-.27 19.89-5.44 28.31-5.37 9.22-15.35 15.38-25.93 16.37-12.61 1.47-24.81-3.63-35.51-9.79-12.39-7.43-19.69-20.77-23.96-34.16-3.13-10.16-5.54-20.61-6.58-31.2-24.97-10.15-49.3-22.14-71.58-37.38-15.45 2.65-30.75 6.27-45.71 10.99 1.65 19.43-5.47 38.15-13.23 55.58-4.43 9.24-7.78 19.33-7.15 29.71.49 11.29 5.87 21.94 13.66 29.98 5.24 5.58 11.6 9.96 18.16 13.85-8.87-2.19-17.45-5.5-25.45-9.91 2.44 25.28 7.62 50.36 16.09 74.32.63 3.88-.88 7.77-.87 11.68-.88 8.17.81 16.32.22 24.5-8.76-8.44-17.91-16.47-27.7-23.7-.06-8.2-.19-16.39-.22-24.58-5 7.24-12.92 13.41-22.13 13.08-9.88-.16-18-7.18-23.19-15.05-14.15 20.87-23.51 44.94-27.09 69.91-.93 5.19-.9 10.56-2.61 15.59-2.63-4.03-4.03-8.66-5.8-13.1-3.9-10.42-8.28-20.68-11.6-31.32-6.22-19.51-9.93-39.93-9.61-60.46-12.23 10.2-22.93 22.19-31.82 35.39-2.79 3.91-4.97 8.29-8.39 11.72-.53-4.41 0-8.82.38-13.21 1.3-14.3 2.03-28.69 4.72-42.82 5.16-28.96 16.49-57.47 36.31-79.57 13.57-15.32 30.95-27.09 49.94-34.62-1.78-6.12-2.24-12.75-.26-18.89 3.43-10.97 12.57-19.3 22.63-24.31 5.97-3.04 13.18-2.84 19.08.28 4.36-18.02 8.81-36.02 13.25-54.02 5.88-23.55 21.31-44 40.86-58.07m77.46-14.56c-20.03 5.89-39.93 12.24-59.9 18.31-2.19.67-4.44 1.32-6.38 2.58-18.23 11.91-33.16 29.56-39.73 50.52 22.01-12.69 44.87-23.87 68.06-34.22 28.05-12.51 56.75-23.52 86.02-32.8-15.62-4.06-31.98-5.92-48.07-4.39m-53.71 56.33c-18.1 6.54-36.34 12.79-53.83 20.86-1.84 7.55-3.71 15.09-5.56 22.64 36.69-16.53 74.86-30.18 114.31-38.41-22.27 9.54-44.95 18.09-67.09 27.92-17.27 7.64-34.55 15.41-50.8 25.07-1.19 4.83-2.38 9.66-3.56 14.49 58.32-22.46 121.08-36.66 183.86-31.52 25.45 2.02 50.63 7.32 74.73 15.75-4.16-14.06-8.34-28.12-12.52-42.18-36.11 1.5-72.2 3.35-108.31 4.71 8.34-2.49 16.88-4.23 25.36-6.17 25.79-5.7 51.68-10.97 77.63-15.9-13.65-14.74-27.82-29.55-45.36-39.69-43.26 13.17-86.17 27.5-128.86 42.43m83.07 61.15c21.1 6.76 43.39 9.67 65.52 9.12-21.45-5.25-43.44-8.43-65.52-9.12m-65.67 2.14c49.73 31.18 106.34 49.33 163.16 62.6-4.21-10.27-7.87-20.84-9.64-31.84-23.75.9-47.77-1.54-70.51-8.65-16.35-5.15-32.17-12.86-45.04-24.35-12.69-.16-25.37.76-37.97 2.24m131.6 8.52c-13.43 3.5-27.49 3.92-41.24 2.55 20.02 7.8 41.14 12.64 62.5 14.82-.3-4.3-.31-8.61-.01-12.91-5.36-1.65-10.73-3.24-16.15-4.66-1.69-.58-3.44-.23-5.1.2m-239.2 12.2c-6.23 2.36-12.16 6.37-15.94 11.93-3.17 5.01-.14 10.91 2.99 15.1 4.29 5.62 8.74 12.02 15.74 14.37 6.79 1.95 13.1-2.54 18.07-6.64 4.09-3.42 8.7-8.24 7.3-14.08-1.86-6.53-7.07-11.37-11.79-15.95-4.24-4.14-10.5-6.86-16.37-4.73m-67.99 129.4c-6.25 31.35-.05 63.79 11.13 93.29 5.37-21.49 14.83-41.93 27.69-59.96 5.06-7.24 11.01-13.79 16.04-21.05 10.06-14.29 18.02-30.61 19.85-48.18 1.55-13.91-1.38-28.19-8.11-40.44-.89 19.67-10.46 37.76-22.41 52.96-7.56 9.33-14.31 19.31-20.11 29.83-.24-25.77 5.38-52.29 20.12-73.8 3.88-6.1 9.3-11 15.06-15.29-29.74 18.08-52.71 48.15-59.26 82.64m374.12-21.96c-.99 2.37-1.83 5-3.93 6.66-2.37 2.04-5.53 2.65-8.49 3.34-4.58 7.11-6.84 15.6-6.43 24.05-.55 9.07 2.01 18.49 7.85 25.55 3.72 4.49 9.49 7.67 15.45 6.93 7.18-.79 12.85-6.24 16.3-12.27 5.93-10.56 7.12-23.53 3.9-35.14-2.09-7.26-6.3-14.51-13.28-17.98-3.5-1.85-7.57-1.82-11.37-1.14m-323.49 55.69c3.18 4.64 7.45 8.96 13.07 10.39 5.29 1.52 11.12-.2 15.19-3.8 5.86-5.09 8.98-12.67 10.24-20.18 1.08-10.6.35-21.96-5.57-31.15-.87-1.47-2.83-1.31-4.22-1.92-6.25 17.35-16.95 32.63-28.71 46.66zM311.42 229.46c5.14-2.71 11.32-3.5 16.9-1.73 11.75 3.76 23.13 8.59 34.98 12.04 7.17 2.01 14.89 1.31 21.74-1.54-5.45 8.81-15.7 14.18-26.07 13.21 2.27 1.64 4.27 3.6 6.11 5.72-18.03-.3-36.07-.6-54.09-1.1 8.19-6.92 19.52-8.23 29.82-8.9-7.26-2.07-14.21-5.43-21.78-6.25-10.94-.81-21.93 3.96-29.07 12.24 5.27-9.29 11.79-18.58 21.46-23.69zM328.84 347.87c15.06-6.27 32.46-7.83 48.03-2.43 6.01 1.68 11.83 4.29 18.07 4.97 10.56-1.62 20.26-7.01 30.99-7.9 16.16-1.71 32.57 2.79 46.37 11.17 7.89 5.01 14.49 12.23 18.18 20.86 3.86 8.72 4.81 18.35 5.16 27.78-3.79-9.29-9.26-17.82-15.71-25.48 7.34 14.66 14.31 30.41 13.72 47.16.39 17.31 2.03 35.12 9.31 51.06 4.02 8.9 10.64 16.41 18.38 22.28-10.7-1.92-21.42-5.71-29.71-12.96-16.04-14.03-22.7-35.81-24.36-56.44-.32 14.54 1.06 29.14 4.48 43.29-9.15-12.78-13.8-28.17-16.67-43.46-1.8-9.81-2.59-19.8-2.59-29.77-.2-5.84-.46-12.4-4.56-17-4.08-4.22-10.36-4.7-15.9-4.86-24.7-.03-49.4-.02-74.11 0-5.58.13-11.93.54-16.1 4.74-4.02 4.3-4.42 10.57-4.66 16.15 0 21.15-3.33 42.64-12.15 62-1.97 4.28-4.38 8.34-7.13 12.17 3.49-14.11 4.55-28.68 4.69-43.18-1.98 18.95-7.37 38.65-20.8 52.8-8.7 9.39-21.07 14.37-33.47 16.52 8.23-6.23 15.12-14.35 19.11-23.92 7.45-17.46 8.47-36.78 8.69-55.51 1-14.57 7.16-28.15 13.58-41.05-6.45 7.66-11.91 16.18-15.71 25.46.37-11.47 1.89-23.4 8.06-33.34 6.03-10.02 16.11-16.86 26.81-21.11zM393.01 401.18c13.13-.18 26.55 1.05 39.3-2.82-10.6 4.97-20.33 13.14-24.58 24.32-3.25 8.34-4.6 18.44.11 26.5 3.87 6.58 11.88 9.21 19.15 9.22 9.78-.02 19.58-2.31 28.33-6.71 2.38 6.51 5.3 12.84 8.97 18.74-18.88 27.25-32.77 58.32-37.95 91.19-.15 2.52 1.54 5.15-.39 7.4.78 1.72.81 3.56.22 5.35 3.13 7.15 2.97 15.85-1.08 22.63 1.09 2.02.95 4.14-.42 6 1.35 5.48 6.84 8.57 8.37 14 3.46 9.88-1.11 20.31-6.95 28.28 2.89-8.9 2.37-18.46.05-27.42.49 6.89.57 13.93-1.75 20.54l-2.2-16.31c-.05 6.36.66 12.74.77 19.11-3.85-8.54-3.72-18.13-3.84-27.3-1.87 6.62-2.29 13.64-.66 20.36-2.66-5.41-6.41-11.29-4.74-17.57 1.87-4.83 6.05-8.48 7.21-13.67-1.41-1.86-1.72-3.96-.5-6.02-3.72-7.01-3.32-15.8.34-22.75-.68-1.96-.42-3.9.8-5.56-1.25-1.97-.86-4.06.44-5.86-.03-11.28-.6-22.77-4.09-33.58-2.31-7.18-7.06-14.24-14.5-16.74-8.13-2.69-18.09-1.7-24.44 4.45-5.17 4.99-7.61 12.05-9.11 18.92-1.81 8.88-2.35 17.99-2.27 27.04 1.42 1.73 1.57 3.79.51 5.74 1.13 1.71 1.31 3.62.73 5.59 3.66 6.93 4.03 15.7.35 22.71 1.12 2.06 1.01 4.26-.53 6.09 1.15 5.32 5.62 8.98 7.31 14.03 1.36 6.15-2.23 11.83-4.79 17.14 1.51-6.69 1.16-13.65-.66-20.25-.23 9.21-.07 18.8-3.92 27.39.19-6.86.81-13.69 1.15-20.54-.96 5.81-1.61 11.66-2.6 17.47-2.53-7.18-2.23-14.84-1.27-22.26-2.49 9.53-3.55 19.72-.4 29.25-4.23-5.95-7.85-12.76-8.11-20.21-.33-5.55 1.75-11.09 5.49-15.18 1.87-1.99 3.38-4.29 4.05-6.95-1.34-1.88-1.51-3.92-.37-5.92-4.03-6.74-4.32-15.47-1.09-22.59-.55-1.79-.44-3.62.18-5.36-.42-1.23-1.4-2.46-.87-3.8 1.06-3.44-.11-6.93-.71-10.33-5.88-30.41-19.16-59.05-36.71-84.45 3.64-5.93 6.56-12.27 8.96-18.78 8.85 4.44 18.79 6.76 28.69 6.67 7.23-.07 15.14-2.84 18.87-9.44 4.47-7.91 3.21-17.71.12-25.88-4.16-11.31-13.94-19.57-24.56-24.65 11.55 3.49 23.68 2.74 35.59 2.77z"/></g></svg>