<svg width="700pt" height="700pt" viewBox="0 0 700 700" xmlns="http://www.w3.org/2000/svg"><g><path d="M256.11 85.81c42.44-9.02 86.58-6.76 128.92 1.62 32.43 6.88 65.11 17.53 91.52 38.24 26.97 21.09 46.71 50.25 60.27 81.43 8.99 20.88 15.6 42.87 18.81 65.4 2.17 15.07 1.91 30.63-2.07 45.4-1.29 5.39-3.32 10.95-2.2 16.55 1.77 6.37 5.07 12.18 8.23 17.96 5.4 9.4 11.12 18.68 17.81 27.23 6.74 7.58 14.71 14.31 19.62 23.35 2.95 5.12 2.31 11.57-.18 16.74-2.83 5.72-8.26 9.56-13.79 12.41-6.28 3.24-13 5.64-18.91 9.57 3.42 8.63 6.95 17.22 10.32 25.87.98 2.23.54 4.98-1.28 6.65-4.41 4.46-9.72 7.94-15.31 10.76 2.86 4.51 5.05 9.63 5.11 15.05.06 2.3-1.41 4.51-3.56 5.35-5.37 2.38-11.72 4.95-14.13 10.77-1.66 8.48 4.19 15.79 5.57 23.81.66 9.56-3.86 18.84-10.03 25.91-11.19 12.54-28.5 17.35-44.8 17.99-28.6.83-57.25-4.27-84.17-13.84-6.06 15.12-11.81 30.37-17.17 45.76-.99 3.59-5.59 5.39-8.74 3.38-2.71-1.5-3.63-5.02-2.42-7.79 5.3-15.37 11.12-30.57 17.11-45.68-15.88-6.72-31.39-14.67-45.26-24.98-3.95-2.61-2.69-9.3 1.83-10.47 4.32-1.3 7.41 2.83 10.8 4.72 33.91 21.87 73.61 34.98 113.96 36.81 13.16.61 27 .23 39.05-5.74 8.73-4.23 15.89-12.27 17.71-21.95.77-2.85-.68-5.55-1.69-8.11-3.01-7.05-5.1-14.96-3.46-22.61 2.19-8.22 9.57-13.57 16.79-17.23-1.4-2.58-2.79-5.35-5.32-6.99-2.25-1.72-5.59-2.91-5.98-6.11-.77-3.58 2.32-7.12 5.95-7.01 6.38-.39 11.95-3.92 16.87-7.73-3.43-8.37-6.73-16.79-10.12-25.17-1.14-2.4-1.08-5.47.97-7.35 7.16-7.29 17.23-10.24 26.02-14.97 3.5-1.91 7.34-4.51 8.07-8.75.77-2.51-.99-4.7-2.32-6.62-3.42-4.53-7.33-8.65-11.29-12.69-6.65-6.5-11.66-14.43-16.75-22.15-6.43-10.34-12.86-20.9-16.49-32.6-2.64-8.78.76-17.69 2.73-26.23 4.85-20.95 1.23-42.7-4.13-63.18-9.19-33.68-24.7-66.05-47.62-92.56-12.2-14.03-26.73-26.16-43.25-34.77-13.02-6.8-26.86-11.91-40.94-16.01-24.33-7.01-49.48-11.06-74.74-12.61-38.67-2.55-78.19 2.57-114.16 17.3-17.87 7.47-34.79 17.58-48.93 30.89-10.57 9.41-18.93 21.05-25.79 33.36-11.13 20.19-18.28 42.34-23.13 64.8-4.17 19.72-6.64 39.82-7 59.98-.33 13.81 2.42 27.47 6.19 40.69 5.09 17.58 12.1 34.57 20.29 50.92 6.36 12.54 13.39 24.8 21.92 36 7.28 9.96 14.61 20.05 19.59 31.39 2.94 6.59 4.33 13.82 3.98 21.03-.87 36.23-8.53 72-19.36 106.48-3.37 10.43-6.98 20.8-11.2 30.91-1.23 3.25-5.53 4.63-8.45 2.79-2.67-1.46-3.71-4.95-2.43-7.67 13.12-33.07 22.45-67.7 27.16-102.98 1.37-12.13 2.83-24.4 1.98-36.62-2.35-13.05-10.82-23.82-18.18-34.46-13.79-17.83-24.51-37.82-33.65-58.36-8.38-19.2-15.38-39.2-18.52-59.99-1.96-12.41-1.41-25.03-.52-37.52 1.51-19.56 4.68-39.01 9.6-58 5.44-20.87 13.01-41.33 24.01-59.94 7.85-13.36 17.78-25.53 29.62-35.57 25.71-22.18 58.07-35.4 91.06-42.26zM257.46 128.87c13.85-14.05 32.8-22.93 52.46-24.57 24.88-2.29 50.39 7.49 67.61 25.54 20.26-4.35 42.06-.88 59.89 9.68 21.43 12.41 36.63 34.72 40.51 59.16 14.26 8 26.19 20.14 33.68 34.7 8.83 16.91 11.53 36.89 7.65 55.56-2.97 14.59-9.99 28.31-19.99 39.35-13.24 14.7-31.79 24.52-51.44 26.99-16.35 2.21-33.25-.75-48.05-8-9.21 14.24-22.69 25.71-38.38 32.2-17.82 7.54-38.23 8.52-56.74 2.93-8.09 36.36-18.74 72.1-29.77 107.66-13.14 41.93-27.19 83.57-41.9 124.98-.74 2.64-2.97 5.02-5.89 4.9-14.05.09-28.11.08-42.16 0-3.84.18-7-4.04-5.64-7.67 12.13-36.31 22.83-73.33 27.93-111.36 1.08-8.62 1.82-17.3 1.74-25.99-.12-11.16-3.86-21.99-9.33-31.62-7.41-13.09-17.34-24.47-26.43-36.37-14.15-18.07-26.47-38.68-29.32-61.85-.77-3.83.3-8.33-2.56-11.44-8.01-10.71-13.22-23.45-15.32-36.64-3.07-19.44.93-39.94 11.26-56.71 6.03-9.96 14.27-18.49 23.75-25.21-.51-15.88 3.41-31.9 11.54-45.57 9.51-16.23 24.59-29.1 42.14-35.87 13.52-5.3 28.41-6.79 42.76-4.78m7.2 9.81c-1.62 1.91-4.05 3.19-6.59 2.51-10.97-1.95-22.38-1.5-33.09 1.65-15.27 4.37-28.91 14.04-38.23 26.88-9.69 13.26-14.67 29.94-13.57 46.35.12 2.19.2 4.8-1.71 6.31-3.35 2.7-7.12 4.88-10.26 7.85-13.72 12.04-22.53 29.51-23.93 47.72-1.46 15.96 2.86 32.25 11.61 45.64 2.89-2.72 5.47-5.75 8.49-8.32 2.41-2.13 6.48-1.51 8.35 1.03 1.85 2.26 1.63 5.84-.49 7.86-3.28 3.51-6.79 6.8-10.18 10.21.17 5.7.9 11.36 2.09 16.93 3.41-3.33 6.76-6.71 10.11-10.11 1.57-1.54 3.35-3.36 5.75-3.21 3.23-.08 6.1 2.85 5.99 6.07.09 2.38-1.71 4.13-3.24 5.7-4.88 4.8-9.69 9.66-14.53 14.49 1.8 4.4 3.89 8.68 6.17 12.85 3.96-3.92 7.9-7.87 11.81-11.85 1.58-1.55 3.35-3.39 5.76-3.26 3.59-.13 6.67 3.5 5.94 7.02-.29 2-1.9 3.39-3.19 4.8-4.64 4.54-9.19 9.16-13.8 13.74 2.56 3.75 5.24 7.41 7.99 11.03 5.13-5.12 10.27-10.22 15.35-15.39 1.57-1.52 3.31-3.32 5.69-3.2 3.24-.11 6.14 2.81 6.05 6.04.1 2.39-1.7 4.15-3.24 5.73-5.5 5.42-10.94 10.9-16.4 16.36 2.79 3.56 5.57 7.11 8.32 10.71 4.4-4.32 8.66-8.8 13.12-13.06 2.18-2.36 6.22-2.35 8.42-.03 2.34 2.2 2.35 6.26 0 8.46-4.74 4.94-9.71 9.64-14.48 14.55 2.54 3.86 4.91 7.83 7.11 11.91 3.9-3.75 7.51-7.81 11.56-11.4 3.29-2.92 9.06-.49 9.51 3.82.69 3.54-2.47 5.91-4.64 8.15-3.84 3.55-7.13 7.71-11.45 10.72 1.72 5.19 3.01 10.53 3.68 15.97 2.01-1.97 4.29-4.56 7.46-3.85 4.28.5 6.65 6.24 3.76 9.51-3.44 3.91-7.37 7.36-10.96 11.15-.42 7.17-1.13 14.32-2.15 21.44 2.04-.03 4.4-.4 6.07 1.1 2.78 2.05 3.1 6.53.55 8.9-2.87 2.96-5.55 6.38-9.48 7.99-2.01 9.87-4.06 19.75-6.58 29.51 3.9.75 7.25 4.8 5.29 8.78-2.7 3.7-6.05 7.08-9.98 9.51-3.58 12.05-7.09 24.13-11.09 36.05 9.79-.01 19.58.01 29.38-.01 16.26-46.03 31.82-92.32 46.05-139.02 8.99-29.75 17.63-59.63 24.27-90 .76-2.8-.98-6.16 1.14-8.55 3.1-3.59 6.72-6.69 9.96-10.16 1.93-1.83 3.83-4.39 6.79-4.28 4.18-.18 7.38 4.73 5.46 8.48-1.66 2.69-4.22 4.67-6.38 6.94 14.71 4.1 30.7 3.29 44.91-2.27 15.33-5.89 28.5-17.22 36.56-31.53.8-1.18 1.42-2.65 2.77-3.31 6.8-2.71 10.26-9.86 16.22-13.78 4.71-2.47 10.4 3.21 7.93 7.93-2.54 3.79-6.3 6.55-9.33 9.93 15.87 6.67 34.11 7.47 50.45 1.98 17.22-5.66 32.07-18.11 40.68-34.06 7.68-13.99 10.41-30.6 7.72-46.33-3.5-21.77-17.78-41.4-37.35-51.54-2.59-1.08-4.31-3.48-4.41-6.29-2.84-22.11-16.72-42.4-36.24-53.16-15.15-8.53-33.51-11.14-50.44-7.16-2.1.34-4.35 1.22-6.41.27-1.54-.81-2.65-2.18-3.85-3.4-13.76-14.87-34.12-23.33-54.36-22.65-18.88.49-37.38 8.86-50.26 22.65zM273.21 140.24c3.7-1.29 7.93 1.87 7.79 5.76.05 3.18-2.82 5.15-4.74 7.28-2.12 1.91-4.08 4.77-7.25 4.73-3.21.08-6.11-2.79-6.03-6-.13-2.95 2.43-4.84 4.23-6.79 1.91-1.74 3.54-3.99 6-4.98zM291.18 158.25c3.68-1.31 7.93 1.82 7.82 5.71.1 2.95-2.42 4.88-4.25 6.8-3.48 3.24-6.59 6.87-10.19 9.97-3.27 2.91-9 .51-9.5-3.76-.75-4.13 3.27-6.59 5.68-9.22 3.54-3.08 6.25-7.28 10.44-9.5zM309.17 176.25c3.68-1.31 7.93 1.8 7.83 5.7.09 3.2-2.79 5.17-4.72 7.3-2.13 1.92-4.07 4.79-7.25 4.76-3.23.09-6.15-2.8-6.05-6.04-.11-2.93 2.44-4.8 4.22-6.74 1.9-1.74 3.53-3.97 5.97-4.98zM399.26 182.23c3.68-1.26 7.89 1.9 7.74 5.78.05 3.16-2.8 5.12-4.71 7.23-2.14 1.93-4.1 4.82-7.3 4.77-3.21.06-6.09-2.81-6.01-6.02-.12-2.94 2.43-4.82 4.22-6.76 1.92-1.75 3.57-4.03 6.06-5zM423.26 194.22c4.94-1.79 9.89 4.48 6.85 8.81-4 4.71-8.62 8.87-12.98 13.24-3.15 3.47-9.54 1.31-10.07-3.3-.73-4.38 3.66-6.87 6.16-9.7 3.39-2.94 5.97-7.01 10.04-9.05zM453.19 200.25c3.7-1.32 7.97 1.86 7.81 5.77.04 3.15-2.78 5.12-4.71 7.19-3.49 3.21-6.5 6.94-10.22 9.88-3.35 2.37-8.49-.09-9-4.08-.78-4.12 3.21-6.59 5.62-9.22 3.56-3.09 6.29-7.31 10.5-9.54zM189.25 218.23c3.69-1.26 7.9 1.9 7.75 5.79.04 3.17-2.81 5.12-4.73 7.24-2.13 1.92-4.09 4.8-7.28 4.75-3.22.07-6.12-2.83-6.01-6.06-.09-2.93 2.45-4.8 4.24-6.74 1.91-1.74 3.55-4.01 6.03-4.98zM249.17 224.25c3.7-1.32 7.96 1.83 7.83 5.73.06 3.2-2.82 5.17-4.75 7.31-2.12 1.91-4.07 4.76-7.23 4.72-3.22.08-6.12-2.79-6.04-6.01-.12-2.95 2.45-4.84 4.24-6.79 1.89-1.73 3.52-3.96 5.95-4.96zM273.21 236.24c4.95-1.85 9.96 4.45 6.9 8.81-4 4.68-8.61 8.84-12.95 13.2-3.14 3.49-9.55 1.35-10.1-3.27-.76-4.14 3.28-6.61 5.69-9.25 3.55-3.07 6.25-7.3 10.46-9.49zM201.2 242.24c3.71-1.3 7.97 1.88 7.8 5.8.02 3.18-2.84 5.15-4.79 7.25-3.48 3.2-6.48 6.93-10.21 9.85-3.37 2.3-8.45-.19-8.94-4.17-.74-4.12 3.26-6.57 5.66-9.2 3.55-3.08 6.26-7.31 10.48-9.53zM303.15 242.26c3.71-1.34 8 1.83 7.85 5.76.04 3.17-2.8 5.14-4.74 7.23-3.51 3.21-6.51 6.95-10.26 9.89-3.38 2.3-8.47-.2-8.94-4.2-.73-4.12 3.3-6.57 5.69-9.21 3.53-3.07 6.24-7.24 10.4-9.47zM339.22 242.24c3.68-1.28 7.9 1.85 7.78 5.74.06 3.21-2.85 5.19-4.78 7.34-2.11 1.9-4.06 4.74-7.22 4.69-3.22.07-6.12-2.82-6.02-6.04-.11-2.93 2.44-4.8 4.22-6.74 1.92-1.75 3.55-4.01 6.02-4.99zM207.23 272.23c3.71-1.28 7.94 1.91 7.77 5.82.02 3.15-2.8 5.08-4.7 7.19-2.15 1.94-4.13 4.84-7.35 4.77-3.2.04-6.07-2.84-5.97-6.04-.1-2.94 2.46-4.82 4.25-6.77 1.9-1.74 3.54-3.98 6-4.97zM387.22 272.24c3.68-1.28 7.91 1.86 7.78 5.75.06 3.18-2.8 5.14-4.72 7.27-2.12 1.9-4.07 4.76-7.23 4.75-3.21.1-6.13-2.76-6.07-5.97-.15-2.96 2.42-4.86 4.22-6.81 1.91-1.75 3.55-4 6.02-4.99zM399.16 296.26c4.67-1.76 9.6 3.73 7.3 8.18-2.64 3.92-6.55 6.78-9.69 10.28-2.45 2.29-4.87 5.91-8.71 5.21-4.03-.47-6.54-5.61-4.19-8.99 2.61-3.37 5.96-6.07 8.86-9.18 2.04-1.92 3.79-4.37 6.43-5.5zM285.2 308.24c3.69-1.29 7.93 1.85 7.8 5.74.06 3.2-2.82 5.17-4.75 7.31-2.14 1.92-4.1 4.8-7.3 4.72-3.19.04-6.04-2.81-5.97-6-.12-2.95 2.43-4.84 4.23-6.79 1.91-1.74 3.54-3.99 5.99-4.98zM297.18 332.25c3.71-1.32 7.99 1.86 7.82 5.79.06 2.9-2.42 4.79-4.23 6.7-3.49 3.25-6.61 6.9-10.23 10.01-3.28 2.88-8.98.47-9.48-3.78-.75-4.13 3.27-6.59 5.68-9.22 3.54-3.08 6.25-7.28 10.44-9.5z"/></g></svg>