<svg width="700pt" height="700pt" viewBox="0 0 700 700" xmlns="http://www.w3.org/2000/svg"><g><path d="M67.76 62.74c1.84-4.75 7.15-7.82 12.19-6.96 4.37.67 7.68 3.83 11.38 5.98 56.19 35.02 112.35 70.07 168.56 105.07 57.02-35.58 114.09-71.07 171.08-106.7 4.32-3.27 10.03-6.46 15.41-3.53 60.69 38.01 121.55 75.81 182.3 113.74 3.74 2.14 5.96 6.34 5.71 10.64.01 150.33-.01 300.67.01 451 .32 4.8-2.41 9.67-6.94 11.47-3.74 1.67-8.1.81-11.4-1.43-58.14-36.33-116.38-72.51-174.5-108.87-59.05 36.68-118 73.53-176.99 110.29-5.37 2.84-10.98-.43-15.28-3.64-58.09-36.27-116.19-72.51-174.34-108.68-4.59-2.31-8.55-6.69-8-12.18-.01-148.31.02-296.62-.01-444.92.11-3.75-.44-7.67.82-11.28m21.88 24.72c-.1 141.18-.02 282.36-.04 423.54-.47 3.04 2.79 4.16 4.79 5.56 51.35 31.88 102.57 63.96 153.9 95.87-.03-28.43.17-56.85-.09-85.27-1.54-2.06-1.52-4.37-.01-6.43.29-66.51.05-133.03.11-199.54-3.13-.72-9.84.9-9.31-4.21 1.7-3.51 6.34-1.37 9.33-1.57 0-41.81-.03-83.62.02-125.43-.11-1.68.23-3.92-1.7-4.69-52.32-32.63-104.62-65.3-157-97.83m181.75 98.94c-.06 44.03-.01 88.06-.03 132.09 2.38.8 6.47.16 6.97 3.45.03 3.89-4.52 2.84-6.99 2.6.07 65.9-.01 131.8.04 197.71 4.25-.47 8.44-1.51 12.72-1.7 2.28.57 2.86 4.12.62 5.12-4.31 1.41-8.91 1.63-13.39 2.2.08 28.18 0 56.37.05 84.57 52.92-32.82 105.67-65.92 158.59-98.76.12-13.97.03-27.93.05-41.89-2.67 2.14-5.11 4.63-8.09 6.35-2.41 1.19-4.93-2.38-3.09-4.26 3.39-3.34 7.19-6.27 11.15-8.9.1-33.68-.04-67.37.08-101.06-1.86.9-3.67 3.34-5.89 2.02-1.39-.9-1.84-3.01-.58-4.2 1.88-1.97 4.15-3.51 6.31-5.14.26-49.36.05-98.72.1-148.08-2.01-.7-5.42-.57-5.45-3.49.07-2.96 3.37-2.74 5.46-2.81-.01-38.25.02-76.5-.01-114.75-52.87 32.98-105.81 65.86-158.62 98.93m181.59-98.9c-.05 40.28.02 80.56-.04 120.83 3.09 1.1 6.35 1.83 9.21 3.48 1.93 1.53.43 5.19-2.04 4.77-2.46-.48-4.79-1.44-7.15-2.23.1 41.4-.19 82.8.14 124.2.56 1.29 1.66 2.62.86 4.08-1.45 3.97-.97 8.24-1.01 12.38.02 29.46 0 58.93.01 88.4 3.11-2.67 5.96-5.72 9.54-7.77 2.29-1.46 5.35 2.12 3.33 4.04-2.69 2.69-5.74 5-8.63 7.47-1.14 1.11-2.81.92-4.24 1.16.05 21.8-.08 43.59.06 65.39 52.95 32.87 105.74 65.99 158.71 98.83.04-141.19.02-282.38.01-423.56.19-1.63-.37-3.07-1.93-3.72-52.29-32.57-104.55-65.19-156.83-97.75zM132.31 134.31c1.98-.63 4.13 1.38 3.42 3.4-.93 3.98-1.98 7.96-3.5 11.75-1.29 2.71-6.02.83-4.97-2.1 1-4.17 2.02-8.41 3.77-12.34l1.28-.71zM367.37 154.64c1.56-1.39 3.59-.17 4.48 1.35 2.23 3.26 4.7 6.42 6.37 10.01.44 2.39-2.99 4.31-4.6 2.38-2.59-3.12-4.82-6.55-6.86-10.05-.94-1.14-.56-2.91.61-3.69zM125.31 156.4c1.66-1.3 4.7.35 4.19 2.47-.72 3.99-1.75 7.93-3 11.78-.39 1.91-2.96 2.55-4.36 1.33-1.88-1.54-.47-4.13-.22-6.09 1.04-3.14 1.15-6.97 3.39-9.49zM380.33 173.32c2.16-.9 3.45 1.47 4.37 2.99 1.74 3.15 3.9 6.14 5.06 9.57.03 2.57-3.77 3.88-5.08 1.54-2.21-3.27-4.18-6.7-5.92-10.23-.93-1.41-.03-3.44 1.57-3.87zM119.33 178.59c1.7-1.78 5.25.07 4.56 2.48-.72 4-1.65 7.99-2.92 11.85-.75 2.67-5.21 1.93-5.24-.83.8-4.56 1.5-9.36 3.6-13.5zM584.4 185.42c2.18-.56 4.34 2.09 2.99 4.04-2.05 3.54-4.27 7.03-6.87 10.19-1.98 2.49-6.08-.83-4.2-3.33 2.48-3.7 4.41-8.35 8.08-10.9zM347.6 193.16c4.5 4.39 8.9 8.88 13.39 13.29-4.42 4.5-8.91 8.91-13.34 13.39 4.05 3.85 7.64 8.2 12.17 11.52 1 .77 2.74 2.18 1.42 3.53-2.32 3.65-4.74 7.34-7.75 10.44-2.02.49-4.27-.45-6.2.79-4.38-4.27-8.66-8.64-12.99-12.94-4.45 4.45-8.89 8.9-13.35 13.34-4.45-4.45-8.9-8.89-13.32-13.36l13.33-13.33c-4.44-4.46-8.92-8.89-13.33-13.37 4.46-4.42 8.88-8.88 13.33-13.3 4.44 4.44 8.89 8.88 13.33 13.33 4.45-4.43 8.9-8.86 13.31-13.33zM389.28 195.84c-.19-2.41 3.36-3.95 4.82-1.9 2.42 3.74 4.23 7.91 5.62 12.14.2 2.65-2.94 2.64-4.7 3.18-4.23.87-7.89 3.31-12.03 4.43-2.13-.32-3.29-2.8-2.07-4.6 3.64-2.44 7.89-3.74 11.91-5.4-1.24-2.59-2.8-5.06-3.55-7.85zM502.87 206.56c4.38-4.53 8.89-8.94 13.33-13.41 4.46 4.44 8.89 8.91 13.36 13.34 4.44-4.46 8.88-8.89 13.33-13.34 4.45 4.43 8.86 8.89 13.34 13.29-4.4 4.51-8.9 8.92-13.33 13.4l9.17 9.16c1.73-2.18 3.22-4.63 5.37-6.44 1.99-1.32 5.09 1.24 3.82 3.4-2.89 4.73-6.35 9.2-10.6 12.79-2.7 2.15-3.28 5.77-5.42 8.35-2.02 2.44-3.95 4.99-6.34 7.08-1.99 1.31-4.7-.89-4.05-3.11 1.47-2.62 3.62-4.75 5.52-7.06-3.61-3.63-7.21-7.24-10.85-10.83-3.81 3.84-7.63 7.67-11.47 11.48 1.11 1.58 3.76 2.94 2.73 5.22-.51 1.24-2.43 2.42-3.61 1.37-3.53-2.22-6.9-4.74-10.03-7.48-1.97-1.58.08-3.81 1.12-5.21-1.8-1.8-3.6-3.6-5.39-5.4 4.45-4.43 8.89-8.88 13.34-13.32-4.44-4.45-8.84-8.91-13.34-13.28zM115.12 200.16c1.78-.78 4.23.82 3.8 2.81-.59 4.16-1.35 8.34-2.66 12.34-.96 2.49-5.39 1.5-5.09-1.19.25-3.43 1.18-6.77 1.88-10.13.41-1.38.52-3.2 2.07-3.83zM404.44 201.79c3.99-.49 8.12-1.08 12.13-.49 2.89.27 3.35 4.93.43 5.47-4.29.38-8.63.43-12.93.34-2.9-.42-2.55-5.25.37-5.32zM570.49 204.65c1.3-1.45 3.94-.39 4.33 1.38.7 1.27-.65 2.41-1.13 3.5-2.1 2.97-4.05 6.09-6.57 8.74-1.82 1.93-5.56-.81-4.17-3.09 2.16-3.74 4.69-7.3 7.54-10.53zM372.51 214.66c2.23-1.77 5.56 1.62 3.71 3.81-2.83 3.1-5.91 5.99-8.99 8.84-2.23 1.96-5.7-1.69-3.66-3.88 2.51-3.34 5.66-6.2 8.94-8.77zM399.35 214.38c1.34-1.17 3.74-.82 4.34.99 1.71 3.77 3.32 7.66 4.14 11.73.48 2.5-3.46 4.13-4.84 1.91-1.51-2.99-2.42-6.24-3.62-9.36-.47-1.73-1.8-3.83-.02-5.27zM468.44 216.47c1.38-1.59 3.36-.43 4.95.16 3.15 1.41 6.26 2.99 9.08 5 2.24 1.51.19 5.63-2.36 4.68-3.78-1.61-7.38-3.63-11.01-5.55-1.72-.69-1.91-3.06-.66-4.29zM110.41 222.41c1.67-.89 4.26.57 3.9 2.56-.44 4.11-1.06 8.25-2.13 12.26-.69 2.53-4.66 2.2-5.25-.25.27-4.63 1.08-9.26 2.38-13.71.27-.22.82-.65 1.1-.86zM166.26 227.16c2.09-.79 4.41 1.68 3.41 3.66-.42 1.67-2.4 1.62-3.7 2.18-3.17.79-6.05 2.35-9.11 3.45-2.66.79-4.49-3.37-2.16-4.82 3.44-2.34 7.43-3.93 11.56-4.47zM176.49 227.58c1.46-1.16 3.5-.24 5.16-.05 3.19.8 6.39 1.85 9.2 3.61 2.09 1.34.68 5.04-1.75 4.83-3.92-1.11-7.72-2.62-11.67-3.66-2.22-.29-2.7-3.55-.94-4.73zM488.31 227.28c1.06-1.48 3.14-.86 4.36.05 3.11 1.92 6.26 3.82 9.12 6.12 2.37 1.59-.03 5.83-2.63 4.58-3.53-1.75-6.76-4.07-9.98-6.32-1.58-.85-2.26-3.08-.87-4.43zM407.42 235.35c1.32-.51 3.17.28 3.43 1.76 1.17 4.23 2.14 8.57 2.44 12.96-.73 2.08-3.84 2.67-5.03.72-1.34-3.84-1.92-7.89-2.65-11.87-.39-1.46.22-3.2 1.81-3.57zM196.43 237.42c1.06-1.3 3.01-.9 4.11.13 3.02 2.25 6.09 4.5 8.77 7.16 2.3 1.87-.7 5.95-3.12 4.3-3.42-2.24-6.59-4.87-9.62-7.6-1.29-.98-1.33-2.92-.14-3.99zM148.33 239.34c1.87-.59 4.1 1.4 3.31 3.33-1.46 3.96-2.57 8.05-4.11 11.98-1.65 2.41-5.78.19-4.78-2.57 1.14-4.34 1.74-10 5.58-12.74zM106.17 244.96c1.6-1.17 4.62-.11 4.39 2.08-.25 4.29-.78 8.6-1.86 12.76-1.03 2.95-6.07 1.37-5.14-1.71.73-4.33.39-9.27 2.61-13.13zM344.42 249.43c2.39-1.07 5.07 2.13 3.25 4.2-2.58 3.47-5.22 7.05-8.69 9.68-2.5 1.15-5.18-2.42-3.11-4.32 2.79-3.23 5.33-6.75 8.55-9.56zM214.42 251.52c1.71-1.04 3.3.7 4.58 1.63 2.69 2.31 5.69 4.28 8.11 6.9 1.11 2.19-1.64 5.05-3.78 3.62-3.42-2.12-6.57-4.71-9.43-7.54-1.63-1.16-1.25-3.81.52-4.61zM524.27 256.9c-1.18-2.37 2.2-5.06 4.17-3.21 3.24 2.29 6.2 5.02 8.96 7.87 2.08 1.72.04 5.27-2.48 4.67-1.31-.71-2.51-1.61-3.73-2.45-2.24 2.58-4.21 5.43-6.8 7.68-1.98 1.55-5.15-1.16-3.93-3.31 1.72-3.04 4.32-5.46 6.51-8.15-.93-1.01-1.92-1.97-2.7-3.1zM410.21 258.12c1.55-1.45 4.49-.2 4.47 1.96.45 4.2.61 8.5-.05 12.69-.73 2.43-4.68 2.27-5.24-.2-.34-3.51-.1-7.05-.2-10.57.11-1.3-.31-3.05 1.02-3.88zM143.42 261.51c1.51-.8 3.74.15 3.87 1.95.56 4.17 1.01 8.39.97 12.6-.38 2.76-4.91 2.86-5.3.07-.73-3.71-.95-7.51-1.1-11.28-.19-1.33.26-2.75 1.56-3.34zM232.41 265.37c1.71-.68 3.21.78 4.67 1.47 2.7 1.72 5.65 3.02 8.26 4.88 2.07 1.51.16 5.22-2.29 4.63-4.05-1.38-7.74-3.68-11.19-6.17-1.9-1.12-1.41-4.08.55-4.81zM328.56 265.6c2.25-1.38 5.11 2.04 3.3 4.04-3.05 3.15-6.97 5.4-10.99 7.1-2.61 1.38-5.24-2.92-2.76-4.55 3.47-2.21 7-4.34 10.45-6.59zM103.34 267.4c1.7-1.44 4.65.31 4.28 2.49-.27 4.12-.51 8.29-1.47 12.31-.82 2.79-5.61 1.76-5.21-1.12.24-4.28.53-8.61 1.52-12.78.22-.23.66-.68.88-.9zM542.45 268.57c1.99-1.06 3.54 1.01 4.88 2.15 2.35 2.41 4.96 4.63 6.92 7.4 1.35 2.2-1.92 5.03-3.88 3.43-3.27-2.68-6.26-5.73-8.99-8.95-1.18-1.24-.38-3.4 1.07-4.03zM514.32 275.18c2.11-1.75 5.47 1.6 3.73 3.67-2.57 3.41-5.43 6.67-8.63 9.51-2.18 1.84-5.59-1.64-3.69-3.79 2.61-3.34 5.39-6.61 8.59-9.39zM307.29 276.14c2.62-1.73 6.51.77 4.66 3.84-3.74 2.6-8.54 3.13-12.94 3.83-2.78.74-4.61-3.46-2.18-4.97 3.4-1.18 7.02-1.63 10.46-2.7zM274.47 279.59c4.14-.68 8.46-.16 12.67-.29 2.31-.41 4 2.7 2.41 4.4-.74 1.16-2.26 1.04-3.45 1.22-3.63.22-7.33.43-10.92-.28-2.33-.41-2.76-3.97-.71-5.05zM409.22 280.31c1.76-.96 4.49.58 4.04 2.68-.67 4.27-1.86 8.57-3.95 12.38-1.27 2.18-4.96 1.02-4.97-1.43.73-3.37 2.12-6.55 2.95-9.9.48-1.29.64-2.96 1.93-3.73zM145.49 284.5c1.2-1.27 3.76-1.22 4.39.59 1.51 3.86 2.44 7.95 3.33 11.99.77 2.5-2.99 4.32-4.67 2.4-1.63-3.13-2.23-6.67-3.2-10.04-.27-1.63-1.2-3.55.15-4.94zM558.43 284.59c1.97-1.06 3.55.9 4.82 2.13 2.4 2.67 5.08 5.17 6.88 8.31.58 2.55-2.98 4.57-4.71 2.46-2.81-2.83-5.52-5.78-8.03-8.88-1.18-1.26-.4-3.37 1.04-4.02zM101.24 289.97c1.48-1.34 4.47 0 4.25 2.05-.02 4.24-.17 8.52-.94 12.69-.72 2.72-5.4 2.04-5.25-.8.05-4.28.19-8.6.98-12.8.24-.29.72-.86.96-1.14zM498.44 292.33c1.99-2.6 6.3.83 4.26 3.32-2.66 3.3-5.58 6.46-8.82 9.2-2.07 1.82-5.49-1.52-3.74-3.62 2.44-3.24 5.35-6.12 8.3-8.9zM400.3 301.34c2.03-2 5.62 1.26 3.95 3.49-2.06 3.59-4.8 6.79-7.81 9.62-2.01 2.26-6.02-.83-4.24-3.33 2.62-3.32 5.32-6.6 8.1-9.78zM573.37 301.53c2.01-1.37 3.78.74 5.01 2.12 2.25 2.74 4.71 5.38 6.45 8.49.66 2.36-2.67 4.62-4.4 2.76-2.84-2.92-5.37-6.15-7.81-9.39-1.17-1.22-.6-3.2.75-3.98zM482.55 308.72c1.89-2.76 6.47.52 4.44 3.13-2.72 3.3-5.8 6.37-9.12 9.05-2.04 1.83-5.49-1.59-3.71-3.64 2.46-3.15 5.46-5.85 8.39-8.54zM100.36 312.43c1.78-1.13 4.42.4 4.14 2.56.11 3.99.14 8.01-.27 11.98-.21 2.81-4.98 2.76-5.26.01-.46-3.64-.2-7.33-.04-10.98.15-1.27.04-2.94 1.43-3.57zM218.39 315.68c4.11-.72 8.36-1.21 12.54-.93 2.89.29 3.2 4.85.36 5.51-3.38.61-6.85.37-10.27.7-1.43-.05-3.35.54-4.17-1.07-1.21-1.39-.3-3.91 1.54-4.21zM384.38 317.27c2.29-2.15 5.76 1.58 3.79 3.83-3.23 2.89-7.27 4.8-11.28 6.36-2.55 1.32-5.22-2.6-3.03-4.44 3.41-2.08 7.04-3.79 10.52-5.75zM204.4 318.47c1.73-.34 3.69-1.44 5.37-.39 1.77 1.27 1.43 4.44-.85 4.89-3.66 1.33-7.33 2.66-11.05 3.82-2.43.9-4.48-2.71-2.66-4.48 2.78-1.86 6.05-2.8 9.19-3.84zM587.27 319.34c3.02-2.5 7.72 3.11 4.82 5.69-3.05 2.68-7.83-3.08-4.82-5.69zM285.33 321.42c3.51-.51 7.1.73 10.6 1.13 1.58.48 4.11.32 4.54 2.36.78 1.5-.77 3.89-2.5 3.55-4.26-.33-8.53-.96-12.66-2.07-2.1-.78-2.01-4.13.02-4.97zM466.49 324.37c1.77-2.15 5.33-.01 4.72 2.55-1.91 3.08-4.97 5.22-7.52 7.74-1.29.95-2.79 2.97-4.59 2.02-1.85-.54-2.53-3.21-.97-4.46 2.59-2.81 5.41-5.43 8.36-7.85zM307.24 325.33l.74-.51c4.46.23 8.9.95 13.26 1.9 2.51.65 2.22 4.64-.23 5.23-4.24.04-8.43-.82-12.56-1.7-2.37-.2-3.17-3.63-1.21-4.92zM359.43 326.56c2.2-.34 4.38-.85 6.62-.95 2.56.73 2.69 4.87-.06 5.39-4.23 1.24-8.66 1.99-13.07 1.92-1.82-.84-2.33-3.45-.81-4.82 2.31-1.01 4.88-1.06 7.32-1.54zM186.26 327.32c2.18-1.54 5.18 1.27 3.92 3.6-3.14 2.96-6.56 5.63-9.87 8.4-1.57 1.43-4.29-.2-4.19-2.19-.21-1.38 1.12-2.26 1.87-3.2 2.56-2.43 5.2-4.84 8.27-6.61zM329.42 328.35c4.11-1.62 9.18-.37 13.65-.38 2.81-.06 3.46 4.38.83 5.28-4.3.45-8.68.27-12.97-.19-2.2-.12-3.22-3.29-1.51-4.71zM100.3 335.26c1.54-1.26 4.32-.3 4.42 1.77.42 3.97.59 7.98.72 11.98.36 2.88-4.4 3.69-5.19 1-.95-3.58-.9-7.34-1-11.02.05-1.3-.15-2.87 1.05-3.73zM169.39 343.19c1.96-2.42 6.1.94 4.17 3.42-2.21 3.37-4.63 6.65-7.3 9.69-1.86 2.47-6.08-.67-4.33-3.12 2.21-3.51 4.68-6.9 7.46-9.99zM103.24 357.34c1.33-.37 3.06.39 3.29 1.85.78 4.28 1.56 8.59 1.86 12.94-.64 2.2-3.94 2.76-5.1.7-1.26-4.18-1.88-8.56-2.06-12.92-.23-1.23.96-2.23 2.01-2.57zM157.43 361.54c2.05-1.22 4.99 1.17 3.85 3.4-1.55 3.87-2.93 7.84-4.93 11.5-1.4 2.25-5.68.17-4.68-2.35 1.55-4.27 2.61-9.19 5.76-12.55zM295.32 366.42c1.33-1.12 3.6-.8 4.26.9 1.84 3.77 3.52 7.68 4.69 11.72.29 2.35-2.88 3.82-4.58 2.27-1.91-2.97-2.98-6.38-4.33-9.62-.55-1.7-1.79-3.85-.04-5.27zM415.32 368.37c2.22-2.2 5.85 1.48 3.86 3.7-3.14 3.03-6.63 5.77-10.34 8.05-2.39 1.37-5.1-2.44-3.04-4.25 2.94-2.77 6.19-5.23 9.52-7.5zM106.24 380.12c1.34-1.18 3.83-.62 4.3 1.19 1.31 4.16 2.49 8.41 3.06 12.74-.59 2.08-3.48 2.93-4.91 1.2-1.51-3.4-2.16-7.11-3.07-10.69-.26-1.48-.9-3.42.62-4.44zM397.39 382.3c2.32-2.3 6.09 1.63 3.78 3.83-3.16 2.93-6.56 5.69-10.26 7.9-2.24 1.27-4.92-2.23-3.14-4.09 2.92-2.87 6.26-5.31 9.62-7.64zM149.49 383.56c1.25-1.79 4.64-.89 4.76 1.36-.05 4.21-.52 8.44-1.11 12.61-.23 1.77-2.62 2.67-4.02 1.67-1.99-.94-1.26-3.42-1.31-5.14.5-3.48.09-7.3 1.68-10.5zM304.19 387.18c1.43-1.04 3.61-.3 4.13 1.38 1.72 3.77 3.48 7.59 4.55 11.6.1 2.68-3.97 3.83-5.13 1.36-1.73-3.43-3.14-7.01-4.41-10.63-.7-1.31-.4-2.89.86-3.71zM549.75 405.25c4.44-4.43 8.88-8.87 13.32-13.31 4.46 4.25 8.56 8.9 13.19 12.98 4.99-3.7 8.9-8.78 13.51-12.98 4.44 4.43 8.87 8.88 13.34 13.29-4.41 4.51-8.93 8.91-13.32 13.44 4.46 4.41 8.88 8.86 13.32 13.3-4.43 4.43-8.89 8.84-13.28 13.3-4.55-4.36-8.94-8.88-13.42-13.31-4.45 4.45-8.88 8.91-13.35 13.33l-13.31-13.32c4.44-4.45 8.89-8.9 13.33-13.34-4.44-4.46-8.9-8.9-13.33-13.38zM379.41 396.27c1.55-1.58 4.45-.38 4.52 1.79.44 1.34-.96 2.24-1.75 3.07-3 2.41-5.93 5-9.29 6.9-2.53 1.04-4.91-2.86-2.68-4.55 2.87-2.63 5.98-5.01 9.2-7.21zM111.46 402.28c1.26-1.23 3.91-1.12 4.49.74 1.38 3.88 2.35 7.92 3.14 11.97.85 2.74-3.78 4.42-4.96 1.83-1.66-4.12-2.67-8.53-3.36-12.9l.69-1.64zM150.3 405.33c1.31-.51 3.17.26 3.41 1.75 1.01 3.93 1.68 7.96 2.3 11.99.58 2.6-3.57 4.06-4.89 1.77-1.71-3.73-2.04-7.94-2.62-11.96-.41-1.47.24-3.14 1.8-3.55zM312.38 408.43c1.3-1.22 3.73-.96 4.36.83 1.87 3.79 3.52 7.73 4.71 11.8.21 2.62-3.83 3.89-5.04 1.55-2-4.07-3.93-8.27-4.94-12.7l.91-1.48zM187.31 410.03c4.83 3.98 8.89 8.81 13.45 13.1 4.44-4.44 8.88-8.88 13.32-13.33 4.47 4.42 8.9 8.88 13.34 13.32-4.44 4.46-8.9 8.9-13.33 13.37 4.45 4.43 8.9 8.87 13.33 13.34-4.45 4.43-8.88 8.89-13.33 13.33-4.47-4.44-8.87-8.96-13.41-13.33-4.39 4.34-8.58 8.9-13.13 13.07-4.91-3.89-8.91-8.82-13.49-13.09 4.44-4.44 8.87-8.89 13.33-13.31-4.41-4.49-8.89-8.92-13.33-13.38 4.47-4.31 8.65-8.92 13.25-13.09zM361.38 410.27c2.08-2.44 6.16.84 4.29 3.37-3 3.03-6.51 5.56-10.02 7.97-1.68 1.37-4.64-.53-4.11-2.6-.06-1.5 1.56-2.16 2.43-3.11 2.42-1.94 4.82-3.92 7.41-5.63zM493.46 421.78c4.33-.77 8.86-1.17 13.23-.47 2.58.91 2.02 5.13-.7 5.35-4.3.39-8.65.41-12.96.38-2.31-.99-2.12-4.78.43-5.26zM515.42 422.58c4.46-.55 9.09 1.34 13.3 2.86 2.88.71 2.08 5.47-.83 5.33-4-.79-7.88-2.13-11.83-3.11-2.5-.31-2.87-4.1-.64-5.08zM118.47 423.53c1.35-.69 3.22.06 3.62 1.56 1.44 3.91 2.62 7.93 3.51 12 .26 2.64-3.81 3.77-5.02 1.52-1.38-2.86-2.07-5.98-2.97-9-.54-1.97-1.72-5.07.86-6.08zM344.26 423.31c2.3-1.37 5.11 2.35 3.12 4.19-3.21 2.85-6.73 5.42-10.45 7.58-2.31 1.5-5.15-2.39-3.1-4.19 3.2-2.85 6.72-5.42 10.43-7.58zM480.31 425.33c2.55-2.16 7.43-.11 5.35 3.43-3.39 2.44-7.58 3.58-11.28 5.54-2.31 1.74-5.45-1.55-3.77-3.84 2.69-2.54 6.34-3.72 9.7-5.13zM155.39 427.44c1.29-.88 3.28-.27 3.82 1.23 1.71 3.73 3.46 7.48 4.81 11.36.66 2.35-2.82 4.15-4.48 2.42-2.37-3.23-3.68-7.09-5.08-10.8-.66-1.43-.7-3.43.93-4.21zM320.05 431.07c.32-2.71 4.56-3.41 5.34-.62 1.7 4.08 4.89 7.9 4.53 12.56-.96 2.37-3.62 1.56-5.47 1.04-2.44 1.33-4.71 3.08-7.42 3.85-2.04-.07-3.42-2.43-2.42-4.22 2.35-2.2 5.3-3.61 7.98-5.36-.92-2.39-2.1-4.71-2.54-7.25zM536.39 430.48c1.7-1.2 3.4.44 4.83 1.29 2.85 2.12 5.98 3.96 8.43 6.57 1.11 2.1-1.3 4.94-3.53 3.81-3.55-2.12-6.88-4.62-10.07-7.23-1.57-1.08-1.22-3.56.34-4.44zM125.23 445.25c1.43-1.27 3.71-.62 4.37 1.13l5.89 10.09c1.04 2.22-2.24 4.7-4.11 3.04-2.55-2.51-4.3-5.72-5.93-8.87-.79-1.64-2.01-3.93-.22-5.39zM553.3 445.32c1.09-1.05 3.03-.86 3.87.43 2.55 2.84 4.87 5.9 7.03 9.05 1.34 1.34.52 3.9-1.29 4.33-1.75.88-3.03-1.01-4.04-2.1-2.2-2.79-4.54-5.51-6.35-8.58-.65-1.01-.09-2.44.78-3.13zM164.53 448.4c.91-1.22 3.21-1.57 4.09-.15 2.46 3.27 4.61 6.8 6.71 10.32 1.59 2.34-2.03 5.38-4.06 3.39-2.55-2.64-4.3-5.92-6.21-9.02-.7-1.36-1.91-3.18-.53-4.54zM305.33 448.36c2.56-2.27 6.5 1.53 4 3.96-3.49 2.44-7.46 4.21-11.46 5.63-1.79.85-3.99-.93-3.69-2.84-.04-1.67 1.75-2.21 2.93-2.88 2.74-1.29 5.46-2.62 8.22-3.87zM329.45 450.45c1.21-1.35 3.65-1.13 4.39.62 1.8 3.68 3.4 7.49 4.63 11.41.89 2.75-3.53 4.6-4.89 2.11-2.01-4.07-3.87-8.28-4.98-12.68l.85-1.46zM282.46 457.6c1.97-.3 4.36-2.03 6.04-.22 1.28 1.27.96 3.79-.85 4.39-4.06 1.75-8.38 2.99-12.77 3.53-2.04-.52-2.94-3.24-1.42-4.78 2.83-1.42 6-1.93 9-2.92zM139.36 462.44c1.72-1.55 3.66.2 5.39.77 2.83 1.39 5.91 2.14 8.78 3.43 2.43 1.6.28 5.76-2.45 4.83-3.87-.83-7.75-2.13-11.08-4.32-1.8-.85-2.15-3.41-.64-4.71zM567.26 463.36c1.84-.69 3.13 1.16 3.83 2.58 1.67 3.31 3.58 6.53 4.73 10.07.52 2.55-3.42 4.28-4.82 2.02-2.18-3.57-4.09-7.34-5.66-11.22-.73-1.47.48-3.1 1.92-3.45zM239.14 465.17c1.65.09 3.75-.7 5.01.75 1.51 1.4.62 4.35-1.48 4.56-4.19.62-8.46 1.05-12.7.9-2.37-.48-2.73-3.94-.73-5.1 3.24-.74 6.59-.82 9.9-1.11zM176.48 468.49c.9-1.07 1.77-2.71 3.42-2.56 1.26.58 2.28 1.56 3.37 2.42 4.85-.63 9.77-1.15 14.66-.73 2.29.77 2.32 4.41.04 5.17-3.53.67-7.16.51-10.74.55.83 1.23 1.76 2.42 2.42 3.78.31 1.99-1.67 3.69-3.61 3.21-3.46-2.57-5.78-6.33-8.39-9.69-1.02 1.12-1.67 3.2-3.57 2.91-4.02.09-8.1.2-12.05-.59-2.59-.42-2.61-4.76.01-5.23 4.81-.21 9.66.13 14.44.76zM206.38 467.58c3.01-1.18 6.45-.68 9.64-1 2.04.16 4.93-.79 6.08 1.5.68 1.57-.25 3.79-2.09 3.89-3.98.5-8.01.65-12.01.55-2.56.21-3.66-3.56-1.62-4.94zM338.31 471.12c1.4-1.13 3.72-.55 4.27 1.21 1.77 3.79 3.51 7.66 4.6 11.71.04 2.4-3.51 3.72-4.86 1.68-1.73-2.82-2.73-6-4.01-9.02-.63-1.77-1.92-4.13 0-5.58zM411.43 479.45c1.6-.55 3.45 1.04 3.32 2.72.12 1.79-1.82 2.61-3.01 3.54-2.92 1.76-5.72 3.79-8.87 5.12-2.4.92-4.65-2.7-2.69-4.4 3.49-2.68 7.29-5.05 11.25-6.98zM193.27 483.27c1.84-.94 3.26.84 4.53 1.91 2.54 2.55 5.35 4.9 7.41 7.88.96 2.37-2.37 4.84-4.28 3.03-3.09-2.59-5.95-5.48-8.59-8.52-1.41-1.28-.66-3.58.93-4.3zM575.47 484.56c1.19-1.22 3.59-.93 4.26.72 1.69 3.78 3 7.76 4.03 11.77.8 2.64-3.53 4.48-4.87 2.05-1.89-4.21-3.49-8.63-4.38-13.16l.96-1.38zM390.31 491.21c2.4-1.99 6.07.77 4.46 3.56-2.85 2.51-6.62 3.63-10.08 5.03-1.45.39-3.23 1.39-4.59.22-1.49-1.07-1.49-3.76.29-4.51 3.25-1.56 6.64-2.82 9.92-4.3zM345.76 493.97c.3-2.16 3.24-3.41 4.79-1.67 2.15 3.7 3.56 7.78 5 11.8.98 2.07-1.68 3.04-2.88 4.15-3.96 2.83-8.95 3.36-13.57 4.42-2.9 1.24-5.14-3.39-2.41-4.87 4.17-1.7 8.68-2.32 13.02-3.45-1.4-3.42-3.14-6.75-3.95-10.38zM209.22 499.14c.45-.13 1.37-.4 1.83-.54 3.83 2.12 7.02 5.27 10.35 8.09 2.32 1.68.29 5.47-2.39 4.83-3.57-2.14-6.76-4.91-9.81-7.73-1.56-1.11-1.63-3.59.02-4.65zM367.45 499.58c1.93-.24 4.38-1.77 5.92.1 1.29 1.35.68 3.95-1.21 4.39-4 1.38-8.11 2.59-12.29 3.26-2.29-.21-3.28-3.34-1.59-4.86 2.89-1.41 6.1-2.01 9.17-2.89zM582.23 506.12c1.3-1.29 3.92-.75 4.39 1.09 1.16 3.87 2.02 7.85 2.62 11.86.63 2.49-2.99 4.19-4.67 2.34-1.63-3.15-1.89-6.79-2.75-10.18-.18-1.69-1.18-3.81.41-5.11zM324.42 510.55c1.6-.19 3.55-1.22 4.89.19 1.45 1.21 1.06 3.9-.78 4.51-4.09 1.34-8.32 2.42-12.59 3.05-2.33-.18-3.29-3.38-1.55-4.87 3.17-1.47 6.67-2 10.03-2.88zM226.6 513.48c1.02-1.49 2.93-1.27 4.24-.32 3.3 1.71 6.64 3.36 9.85 5.25 1.73 1.01 1.13 4.05-.74 4.58-1.4.81-2.87-.43-4.2-.82-3.05-1.51-6.18-2.97-8.88-5.05-1.17-.8-1.2-2.68-.27-3.64zM355.18 513.2c1.17-.97 3.31-1.16 4.12.35 1.99 3.63 3.45 7.55 4.79 11.47 1.28 2.62-2.96 5.04-4.62 2.66-1.72-2.84-2.74-6.04-4.01-9.1-.57-1.75-1.86-3.77-.28-5.38zM301.26 516.26c2.04-.19 4.58-1.73 6.26.1 1.15 1.25.87 3.72-.86 4.3-4.06 1.34-8.29 2.35-12.54 2.88-2.47.2-3.68-3.65-1.56-4.91 2.76-1.22 5.78-1.66 8.7-2.37zM586.46 528.5c1.35-1.58 4.31-.98 4.69 1.14.89 4.32 1.7 8.73 1.66 13.15-.89 2.31-4.74 2.32-5.26-.23-.89-4.18-1.56-8.45-1.72-12.72l.63-1.34zM363.55 534.47c1.15-1.5 3.73-1.43 4.56.36 1.23 2.18 2.28 4.53 2.69 7.02.05 2.96-4.58 3.68-5.41.8-1-2.52-3.28-5.51-1.84-8.18z"/></g></svg>