<svg width="700pt" height="700pt" viewBox="0 0 700 700" xmlns="http://www.w3.org/2000/svg"><path d="M327.53 108.73c12.35-2.53 25.73.41 35.79 8.03 10.43 7.71 17.14 20.21 17.63 33.19-.01 2.32.37 4.93-.95 6.98-1.9 2.33-5.24 2.13-7.95 2.27-23-.01-46-.04-69 .01-3.21-.15-6.88.43-9.64-1.58-2.48-2.53-1.4-6.56-1.36-9.73 1.54-19 16.81-35.64 35.48-39.17zm163.76 20.63c25.88-.42 51.79-.03 77.68-.2 3.74-.03 7.74-.15 11.09 1.83 5.03 2.65 8.05 8.34 7.75 13.98-.02 140.34-.01 280.69-.01 421.03-.08 3.7.29 7.45-.36 11.13-1.3 6.61-7.62 11.74-14.36 11.65-26.71.02-53.42.06-80.13-.02-7.76 0-14.58-7.04-14.34-14.8-.04-141.3 0-282.6-.03-423.9.04-3.37-.26-6.81.57-10.11 1.49-5.5 6.46-9.89 12.14-10.59m1 11.99c-1.68.33-1.7 2.3-1.7 3.64.02 142.34 0 284.68.01 427.02-.46 2.14 1.23 3.97 3.4 3.58 25.97-.03 51.94.07 77.9-.05 1.99.24 2.92-1.81 2.69-3.5.01-142.35-.01-284.7.01-427.04.43-2.23-1.16-4.3-3.52-3.81-26.26.11-52.55-.23-78.79.16zm-352.04 5.74c.08-5.35 4.56-10.07 9.86-10.55 5.29-.39 10.61-.04 15.91-.16 4.06.08 8.4-.5 12.14 1.45 3.77 1.82 6.47 5.79 6.4 10.03.12 6.57-.01 13.15.03 19.73 3.68.19 7.6-.63 11.11.75 3.94 2.05 3.33 6.96 3.32 10.67-.05 106.7 0 213.39-.02 320.08.26 2.82-1.34 5.83-4.18 6.6-2.25.47-4.56.3-6.83.33-17.37-.1-34.74.08-52.11-.08-3.63.11-6.95-3.17-6.49-6.86 0-96.49 0-192.99-.01-289.48-1.59-.01-3.19-.01-4.78 0 0 42.49-.01 84.98.01 127.47.13 2.49-.66 5.26-2.99 6.53-3.21 2.06-8 .1-8.78-3.64-.49-3.29-.2-6.62-.25-9.93 0-41.7.02-83.4-.01-125.11-.33-3.04 1.32-6.4 4.49-7.08 4.08-.55 8.22-.15 12.32-.25.18-8.38-.36-16.8.25-25.15 1.2-4.63 6.52-5.25 10.54-4.91.08-6.81-.12-13.63.07-20.44m11.71 1.3c0 6.4.05 12.8.11 19.21l19.32-.02v-19.18c-6.48-.02-12.95 0-19.43-.01m-9.36 32.41c-.01 104.4 0 208.8 0 313.2h44.4v-313.2h-44.4zm362.81-17.36c1.73-.84 3.74-.6 5.61-.68 13.02.12 26.03-.07 39.04.09 5.24-.11 8.07 7.01 4.63 10.78-1.98 2.81-5.7 2.38-8.7 2.4-12.99-.18-26 .21-38.98-.18-5.88-.91-6.93-9.93-1.6-12.41zm-211 5c1.66-1 3.68-.8 5.54-.88 25.33.08 50.66-.02 75.99.05 3.54-.34 6.81 2.73 6.63 6.29.08 106.7-.02 213.41.04 320.12-.09 2.73.32 5.58-.52 8.23-1.1 2.84-4.28 4.03-7.13 3.76-25.69-.05-51.37.03-77.05-.03-3.8.32-6.95-3.24-6.52-6.94-.01-108.04.01-216.07-.01-324.11-.17-2.5.71-5.23 3.03-6.49m8.98 325.55c3.99.01 7.99.01 12 .01 0-104.4 0-208.8-.01-313.2-3.97.01-7.94 0-11.91-.04-.19 104.41-.02 208.82-.08 313.23m23.99 0c5.21.02 10.41.01 15.62.01v-313.2c-5.18-.01-10.36.03-15.54-.04-.16 104.41-.01 208.82-.08 313.23m27.62-313.19v313.2h14.39c0-104.4 0-208.8-.01-313.2h-14.38zm149.44 17.87c1.91-1.34 4.38-1.02 6.59-1.11 8.31.16 16.63-.16 24.94.13 3.9.13 6.61 4.73 4.94 8.24-1.05 2.71-4.09 3.88-6.82 3.67-8.98-.09-17.98.17-26.95-.12-5.33-.23-7.24-8.08-2.7-10.81zm1.9 38.75c8.52-.6 17.1-.03 25.65-.27 3.11-.14 7.09-.06 8.68 3.19 2.34 3.9-1.15 9.26-5.65 8.81-9.03.06-18.06.09-27.09-.01-2.92.1-5.68-2.17-6.03-5.09-.51-2.92 1.54-6 4.44-6.63zm-.14 34.84c8.24-.65 16.54-.04 24.81-.29 2.79.13 6.09-.51 8.36 1.56 2.66 2.19 2.66 6.72.01 8.93-1.99 1.88-4.93 1.48-7.43 1.57-8.04-.12-16.08.09-24.12-.08-2.82.06-5.46-2.1-5.9-4.89-.6-2.93 1.37-6.09 4.27-6.8zm.12 37.17c14.55-.55 29.16-.14 43.73-.21 3.94-.24 7.23 3.98 5.9 7.74-.84 3.01-4.08 4.5-7.01 4.23-13.67-.04-27.35.08-41.02-.05-2.96.1-5.74-2.25-6.02-5.21-.43-2.88 1.57-5.87 4.42-6.5zm.13 37.17c8.15-.55 16.35-.02 24.51-.24 2.75.13 5.94-.5 8.24 1.42 2.7 2.06 2.91 6.48.45 8.81-2.54 2.55-6.45 1.64-9.67 1.82-7.97-.26-15.99.43-23.92-.33-5.7-1.36-5.4-10.53.39-11.48zm-.23 33.7c9.59-.68 19.29-.17 28.92-.26 4.96-.18 8.01 6.32 5.13 10.23-1.46 2.57-4.55 3.12-7.26 2.95-8.68-.18-17.38.22-26.05-.2-6.29-.97-6.78-10.93-.74-12.72zm.14 37.16c7.85-.68 15.78-.05 23.67-.3 3.46.07 7.96-.74 10.12 2.76 3.11 3.95-.04 10.75-5.21 10.44-9.32-.02-18.66.23-27.97-.13-6.37-.98-6.77-11.11-.61-12.77zm-.19 34.81c14.27-.64 28.63-.09 42.93-.28 3.15-.34 6.54 1.65 7.02 4.94.79 3.61-2.43 7.24-6.09 7.03-13.35.12-26.71-.02-40.06.06-2.42.05-5.21-.14-6.79-2.26-2.71-3.08-1.03-8.56 2.99-9.49zm.01 42c7.91-.67 15.89-.05 23.83-.29 3.5.12 8.06-.81 10.34 2.63 2.6 3.45.05 9.07-4.29 9.27-8.02.32-16.05-.01-24.08.15-2.99-.08-6.67.46-8.76-2.21-2.78-3.07-1.1-8.63 2.96-9.55zm-371.7 20.42c11.45-.71 22.99-.1 34.48-.3 8.64.09 17.3-.17 25.94.1 3.88.06 6.36 4.72 4.41 8.05-9.36 21.92-18.76 43.84-28.15 65.75-1.14 3.53-5.57 5.41-8.83 3.51-2.53-1.35-3.22-4.38-4.36-6.77-8.84-20.81-17.8-41.57-26.67-62.37-1.68-2.93-.19-7.16 3.18-7.97m11.65 11.7c6.38 14.91 12.76 29.82 19.15 44.72 6.39-14.9 12.78-29.8 19.14-44.72h-38.29zm148.24-11.77c25.18-.57 50.42-.03 75.62-.26 2.86.05 6.53-.39 8.36 2.37 1.55 1.94 1.13 4.62-.1 6.6-12.55 21.78-25.14 43.54-37.68 65.32-1.22 2.43-3.77 4.31-6.59 3.86-2.49-.18-4.19-2.17-5.29-4.2-12.53-21.81-25.23-43.52-37.73-65.34-2.01-3.01-.25-7.75 3.41-8.35m12.62 11.77c5.69 10.01 11.4 20 17.1 30 7.1 0 14.2-.01 21.3 0 5.71-9.99 11.43-19.98 17.1-30h-55.5m24.24 42.01c1.17 2.03 2.34 4.06 3.52 6.09 1.16-2.03 2.33-4.06 3.47-6.1-2.33 0-4.66 0-6.99.01zm174.11-39.04c1.81-.72 3.8-.54 5.72-.6 8.02.11 16.04-.06 24.06.07 3.38-.22 6.51 2.79 6.26 6.2-.04 3.29-3.12 5.93-6.35 5.74-8.01.12-16.03-.05-24.04.06-2.68-.01-5.89.18-7.73-2.18-2.58-2.81-1.46-7.86 2.08-9.29z"/></svg>