<svg width="700pt" height="700pt" viewBox="0 0 700 700" xmlns="http://www.w3.org/2000/svg"><path d="M508.63 87.63c7.89-7.85 22.13-7.01 29.25 1.48 25.56 25.45 51.23 50.79 76.76 76.27 7.04 7.21 6.89 19.88-.31 26.93-60.45 60.06-120.94 120.08-181.43 180.11 48.75 48.5 97.6 96.89 146.38 145.35 8.87 8.8 13.4 21.71 11.97 34.13-1.25 12.82-8.92 24.72-19.9 31.4-13.12 8.25-30.79 8.42-44.07.43-5.62-3.16-9.9-8.05-14.46-12.49-46.71-46.35-93.39-92.72-140.11-139.06-60.5 60.02-120.95 120.09-181.47 180.1-7.23 7.29-20.16 7.31-27.41.04-26-25.76-51.97-51.55-77.95-77.33-5.97-5.75-7.48-15.41-3.67-22.74 1.67-3.5 4.71-6.01 7.38-8.71 59.17-58.73 118.36-117.44 177.52-176.19-35.04-34.79-70.08-69.57-105.13-104.36-1.39-1.35-2.57-2.9-3.48-4.6l-48.65-91.12c-2.49-4.5-1.43-10.55 2.4-13.97 3.67-3.51 9.61-4.11 13.97-1.55 29.28 15.42 58.56 30.84 87.84 46.25 2.77 1.46 5.71 2.77 7.92 5.07 35.09 34.86 70.19 69.7 105.3 104.55 60.46-59.99 120.89-120.01 181.35-179.99m13.83 19.31c-6.46 6.43-12.93 12.82-19.37 19.25 10.97 10.92 22 21.79 32.96 32.73 2.38 2.09 2.45 6.11.18 8.3-2.19 2.33-6.26 2.35-8.43-.01-11.05-10.88-22.02-21.84-33.05-32.75-4.13 4.08-8.24 8.17-12.35 12.26 10.98 10.95 22.03 21.84 32.99 32.81 2.29 2.05 2.38 5.92.25 8.12-2.12 2.42-6.24 2.54-8.46.21-11.08-10.9-22.06-21.92-33.12-32.85-4.11 4.12-8.34 8.12-12.34 12.36 10.91 10.7 21.71 21.52 32.58 32.27 2.3 1.89 2.96 5.5 1.13 7.95-1.92 2.91-6.51 3.38-8.91.82-11.09-10.9-22.09-21.89-33.13-32.85-4.18 4.04-8.27 8.17-12.4 12.27 10.89 10.83 21.8 21.64 32.7 32.47 2.18 1.83 2.79 5.23 1.18 7.63-1.8 3.02-6.46 3.66-8.95 1.14-11.14-10.93-22.16-22-33.27-32.97-4.13 4.08-8.24 8.18-12.36 12.27 10.92 10.88 21.89 21.71 32.82 32.58 2.48 2.09 2.66 6.2.32 8.46-2.25 2.42-6.43 2.32-8.59-.16-10.98-10.85-21.91-21.75-32.89-32.59-4.13 4.06-8.24 8.15-12.34 12.24 10.9 10.9 21.87 21.73 32.78 32.61 4.32 3.4.96 11.01-4.43 10.21-3.01-.23-4.77-2.99-6.81-4.84-9.96-9.9-19.92-19.8-29.88-29.69-4.14 4.08-8.26 8.18-12.38 12.26 10.94 10.94 21.98 21.79 32.94 32.73 2.49 2.17 2.46 6.42-.06 8.57-2.25 2.15-6.16 2-8.24-.31-11.03-10.87-21.96-21.84-33.01-32.69-4.1 4.09-8.23 8.17-12.33 12.27 11 10.95 22.05 21.84 33.02 32.81 3.28 2.86 1.7 8.81-2.5 9.79-2.29.72-4.75-.26-6.28-1.99-10.86-10.79-21.71-21.57-32.57-32.34-1.97 2.02-4.14 3.83-5.87 6.06 24.23 23.7 48.12 47.75 72.25 71.56 59.51-59.07 119.02-118.14 178.52-177.22-24.1-23.92-48.19-47.85-72.3-71.75m-373.77 43.12l23.6 44.19c7.01-6.88 13.98-13.81 20.92-20.76-14.84-7.81-29.67-15.65-44.52-23.43m37.32 63.7c110.27 109.48 220.55 218.95 330.85 328.4 8.96-8.87 17.88-17.77 26.84-26.63-110.27-109.49-220.56-218.96-330.84-328.43-8.96 8.88-17.91 17.77-26.85 26.66m89.38 138.45c10.92 10.88 21.89 21.72 32.82 32.6 2.51 2.13 2.63 6.35.17 8.57-2.27 2.29-6.34 2.15-8.46-.28l-32.87-32.62c-4.13 4.09-8.27 8.16-12.36 12.28 10.96 10.91 21.96 21.78 32.91 32.7 2.38 2.08 2.5 6.09.24 8.31-2.2 2.4-6.36 2.37-8.54-.05-11.03-10.86-21.94-21.85-33-32.68-4.08 4.12-8.23 8.16-12.32 12.25l32.9 32.71c2.36 2.06 2.52 6.01.33 8.25-2.15 2.43-6.33 2.51-8.53.1-11.05-10.89-22.01-21.87-33.04-32.78-4.13 4.08-8.25 8.18-12.36 12.29 11.01 10.97 22.1 21.87 33.09 32.87 2.38 2.2 2.22 6.36-.24 8.44-2.23 2.08-6.07 1.98-8.14-.28-11.05-10.89-22.02-21.86-33.05-32.76-4.13 4.1-8.28 8.17-12.37 12.3 10.91 10.79 21.77 21.61 32.66 32.41 2.22 1.86 2.87 5.33 1.17 7.76-1.86 2.98-6.52 3.56-8.97.99-11.12-10.92-22.1-21.97-33.21-32.9-4.12 4.08-8.25 8.16-12.35 12.26 10.9 10.85 21.84 21.66 32.74 32.5 2.15 1.82 2.75 5.18 1.17 7.57-1.77 3.03-6.43 3.71-8.93 1.21-11.17-10.94-22.19-22.04-33.34-33-4.1 4.1-8.25 8.16-12.33 12.29 10.91 10.82 21.79 21.65 32.69 32.48 1.86 1.61 2.67 4.35 1.67 6.66-1.32 3.65-6.56 4.93-9.35 2.18-11.18-10.94-22.2-22.06-33.34-33.06-4.16 4.07-8.27 8.18-12.39 12.28 10.94 10.88 21.91 21.72 32.84 32.6 2.35 2 2.67 5.86.57 8.16-2.19 2.69-6.66 2.7-8.91.07-10.96-10.83-21.88-21.71-32.84-32.55-5.64 5.58-11.27 11.17-16.89 16.77 24.1 23.92 48.18 47.85 72.3 71.74l178.52-177.22c-24.08-23.93-48.18-47.84-72.28-71.76-2.81 2.76-5.61 5.54-8.38 8.34m258.13 206.48c5.01 6.23 13.81 8.99 21.43 6.44 8.48-2.43 14.17-11.56 12.82-20.24-.55-5.12-3.65-9.47-7.37-12.83-9 8.83-17.9 17.77-26.88 26.63z"/></svg>