<svg width="700pt" height="700pt" viewBox="0 0 700 700" xmlns="http://www.w3.org/2000/svg"><g><path d="M50 182.12c68.73-36.5 137.51-72.9 206.22-109.44 16.44 4.89 32.61 10.64 48.88 16.07 57.4 19.54 114.67 39.45 171.94 59.37 2.62.84 5.16 2.18 7.97 2.19 44.47.02 88.93-.04 133.4.03 10.48 17.53 21.07 34.99 31.58 52.5-1.31 2.31-2.62 4.62-3.95 6.93-23.29 0-46.59-.01-69.88 0-.02 2.92-.01 5.85.03 8.77-1.85.07-3.71.06-5.56.1-.02 30.11.02 60.22-.01 90.33.08 1.22-.92 2.09-1.52 3.03-5.77 7.29-11.41 14.68-17.17 21.98-1.61 1.79-1.65 4.3-2.45 6.46-3 7.76-9.44 13.68-12.31 21.49-1.19 7.14 8.2 12.23 13.85 8.03 4.14-2.41 4.24-7.56 4-11.78 3.04 0 6.09 0 9.14.01 1.02 7.85-2.1 16.17-9.15 20.22 24.51 17.54 48.94 35.19 73.42 52.77.02 36.12 0 72.24.01 108.36-54.95.02-109.9.02-164.85 0 .01-36.14-.02-72.27.02-108.39 24.49-17.58 48.95-35.21 73.44-52.78-6.43-3.84-10.76-11.77-8.6-19.24 2.79-8.6 9.78-14.96 13.07-23.32-6.59-8.75-13.69-17.15-20.02-26.07-.2-30.37-.01-60.75-.09-91.12-1.84-.01-3.67-.01-5.5-.01-.03-2.95-.06-5.89-.04-8.84-77.31 0-154.62-.01-231.94 0-.01 2.96-.01 5.91.01 8.87h8.16c1.49 1.3 2.98 2.6 4.5 3.87 3.61 29.64-1.53 59.96-12.44 87.62-.46 2.25-.2 4.57-.24 6.86l.01 237.77c2.64 0 5.28 0 7.93.01.01 18.46 0 36.91 0 55.37l-3.35.03c-.01 2.82-.02 5.65-.02 8.48 11.25.05 22.5 0 33.75.03.01 3.04.01 6.08 0 9.13-45.64 0-91.27.02-136.91 0-.01-3.05-.01-6.09 0-9.13 11.24-.03 22.48 0 33.73-.01.01-2.84.02-5.67.01-8.49l-3.33-.05c-.01-18.45-.01-36.9 0-55.36 2.64-.01 5.27-.01 7.91-.01 0-115.09.02-230.18 0-345.27-26.64-.15-53.27-.09-79.9-.07 0 15.44.01 30.87 0 46.31l-76.1.01c-.04-15.41.02-30.82-.03-46.23l-17.61.01c-.03-9.13 0-18.26-.01-27.4m209.6-98.89c7.43 37.06 14.86 74.12 22.33 111.18 19.45-14.34 38.9-28.68 58.32-43.08.76-.69 1.65-1.03 2.68-1.01 37.38-.05 74.76.04 112.14-.04-28.71-10.24-57.58-20.04-86.37-30.04-36.33-12.45-72.58-25.12-109.1-37.01m-190.27 98.76l92.04.02c.02 6.08-.02 12.16.03 18.24 21.01 0 42.03-.07 63.05.09 7.67-37.99 15.28-76 22.91-114-59.23 32.1-118.28 64.52-178.03 95.65m189.05-57.9c.01 25.4-.03 50.79.01 76.19 5.12-.01 10.23 0 15.35 0-5.13-25.4-10.09-50.83-15.36-76.19m-24.56 76.18c5.12.01 10.25.01 15.37 0-.05-25.17.14-50.35-.09-75.52-5.31 25.13-10.17 50.35-15.28 75.52m123.75-40.79c18.03 13.25 36.06 26.51 54.12 39.73 18.03-13.25 36.08-26.48 54.1-39.74-36.07 0-72.14-.01-108.22.01m136.22-.01c7.16 5.29 14.34 10.54 21.51 15.8 3.41-.93 7.11-1.27 10.46.13 6.3 2.27 10.22 9.11 9.36 15.71h21.67c.09-4.05 1.35-8.18 4.34-11.04 4.34-4.57 11.47-5.45 17.09-2.87 8.09-5.86 16.11-11.81 24.15-17.73h-108.58m-204.79 41.13c36.36.01 72.72.01 109.08.01-18.16-13.36-36.35-26.67-54.5-40.03-18.21 13.32-36.39 26.68-54.58 40.02m136.26 0c28.76.05 57.52-.06 86.27.05-5.8-4.54-7.48-13.1-3.57-19.42-9.4-6.87-18.77-13.78-28.17-20.64-18.18 13.33-36.36 26.65-54.53 40.01m159.55-16.82c2.64 5.61 1.48 12.39-2.76 16.88 18.64-.12 37.27-.02 55.9-.05-7.75-12.92-15.55-25.81-23.32-38.72-9.96 7.27-19.9 14.56-29.82 21.89m-67.41.71c-3.21 1.91-3.24 7.05-.04 8.97 3.38 2.54 8.86-.24 8.66-4.5.13-4.21-5.25-6.93-8.62-4.47m51.87.87c-3.44 1.35-4.36 6.36-1.57 8.8 2.96 3.13 8.9 1.17 9.36-3.11.78-4.13-4.12-7.56-7.79-5.69m-510.11 5.8c-.01 3.05-.01 6.11 0 9.17l41.94-.06c.01-3.04.01-6.07 0-9.11-13.98-.01-27.96 0-41.94 0m51.11 0c-.01 3.04-.01 6.07 0 9.11l41.94-.03c.01-3.03.01-6.05 0-9.08-13.98-.01-27.96-.01-41.94 0m414.79 11.74c-.02 2.18-.02 4.36-.01 6.55h41.95c-.01-1.76-.01-3.51-.01-5.26-2.24-1.03-4.36-2.32-6.25-3.9-9.59-.03-19.19.02-28.78-.03-2.62-.25-4.67 1.62-6.9 2.64m-292.25 6.56c.03 3.01.02 6.02-.09 9.02 14 .37 28.03.06 42.04.16.01-3.07.01-6.14 0-9.2-13.99.02-27.97-.04-41.95.02m297.79 9.16l-.01 82c10.29.03 20.59.03 30.88 0l-.01-82c-10.29-.01-20.57-.01-30.86 0m4.37 93.15c3.67 4.76 7.36 9.51 11.06 14.25 3.7-4.74 7.41-9.48 11.09-14.25-7.39-.01-14.77 0-22.15 0m-302.15 2.28c0 11.5-.01 23 .01 34.49 11.77-11.48 23.52-22.98 35.26-34.49-11.76 0-23.51-.01-35.27 0m6.65 40.8c11.76.01 23.53.01 35.29.01 0-11.51.01-23.01 0-34.5-11.77 11.49-23.54 22.98-35.29 34.49m-6.65 9.19c0 11.49-.02 22.98.01 34.47 11.77-11.47 23.51-22.98 35.26-34.48-11.76 0-23.51 0-35.27.01m6.65 40.81c11.77.01 23.53.01 35.3 0l-.01-34.51c-11.77 11.5-23.54 22.99-35.29 34.51m233.3 31.04c0 4.12-.01 8.24.01 12.36 4.57.02 9.15-.01 13.73.03-.01 3.04-.01 6.09-.01 9.14-4.59.01-9.16-.02-13.74.03.03 3.02.02 6.05-.09 9.08 4.6.3 9.21.07 13.82.15.01 3.04.01 6.09 0 9.14-4.57 0-9.14-.01-13.71 0-.02 3.05-.02 6.09-.01 9.14 4.58.02 9.16-.02 13.74.03-.03 2.99-.03 5.99.07 8.98-4.6.31-9.21.08-13.81.16-.01 3.05-.01 6.09.01 9.14 4.56.01 9.13.01 13.69 0 .03 3.05.04 6.1.03 9.16-4.59.02-9.16-.03-13.74.04.01 3.03.01 6.05-.01 9.08 4.58.08 9.16.02 13.74.04l.02 8.78c3.04 0 6.08 0 9.13.01.01-2.93.02-5.86.02-8.78 6.1-.02 12.2-.01 18.31 0-.01 2.92 0 5.84.01 8.77h9.15l.01-8.77c6.11-.02 12.21-.01 18.32 0l.02 8.77c3.04 0 6.08 0 9.13.01l.02-8.78c6.1-.01 12.2-.01 18.31 0-.01 2.92 0 5.84.01 8.77h9.12l.01-8.77c6.1-.01 12.21-.01 18.32 0-.01 2.92.01 5.85.02 8.77h9.11c.01-2.92.02-5.85.02-8.77 4.57-.02 9.15.01 13.73-.02-.01-3.05-.01-6.09 0-9.13-4.58-.03-9.16 0-13.73-.02-.01-3.05-.01-6.09-.01-9.13 4.57-.04 9.15-.01 13.73-.03.01-3.05.01-6.1 0-9.14l-13.72-.01c-.01-3.05-.01-6.1 0-9.14 4.57-.02 9.15-.01 13.73-.02 0-3.05 0-6.09-.01-9.14-4.57-.01-9.15 0-13.71 0-.02-3.05-.03-6.1-.01-9.14 4.58-.03 9.16.03 13.75-.05-.03-3.07-.03-6.13-.02-9.19-4.58-.04-9.15-.01-13.73-.03-.02-3.05-.01-6.1.01-9.15 4.57 0 9.14.01 13.71 0 .01-4.13.01-8.25.01-12.37-24.4-17.59-48.83-35.13-73.25-52.7-24.42 17.56-48.86 35.11-73.26 52.7m-239.95-21.87c0 11.49-.02 22.97.01 34.46 11.77-11.47 23.51-22.97 35.26-34.46-11.76-.01-23.51-.01-35.27 0m6.65 40.79h35.29c0-11.5.01-22.99 0-34.49-11.77 11.49-23.54 22.98-35.29 34.49m-6.65 9.19c0 11.48-.02 22.97.01 34.46 11.77-11.47 23.51-22.97 35.25-34.46-11.75-.02-23.51-.02-35.26 0m6.66 40.79c11.76.01 23.52 0 35.28 0 0-11.5.01-23 0-34.5-11.76 11.5-23.54 22.98-35.28 34.5m-6.66 9.17c0 11.49-.02 22.98.01 34.47 11.77-11.47 23.51-22.97 35.25-34.46-11.75-.02-23.51-.02-35.26-.01m6.66 40.8c11.76.01 23.52 0 35.28 0 0-11.5.01-23 0-34.5-11.76 11.5-23.54 22.98-35.28 34.5m-2.09 55.4v8.51h32.79c0-2.84.01-5.68 0-8.51-10.93-.01-21.86-.01-32.79 0zM495.67 448.26h18.29c.01 3.05.01 6.1.01 9.16-6.11 0-12.21.01-18.31 0-.02-3.06-.01-6.11.01-9.16zM523.14 448.26h18.3c.01 3.05.02 6.1.01 9.16-6.11.01-12.21 0-18.31 0-.01-3.06-.01-6.11 0-9.16zM550.71 448.19c6.07.15 12.15.04 18.22.07.01 3.05.01 6.1.01 9.16-6.1 0-12.2.01-18.3 0-.06-3.08-.05-6.16.07-9.23zM578.08 448.26h18.32c.01 3.05.01 6.1 0 9.16-6.11.01-12.22 0-18.32 0-.02-3.06-.01-6.11 0-9.16zM495.66 466.68c6.1-.02 12.2-.01 18.31-.01v9.15c-6.11-.01-12.21-.01-18.31 0-.01-3.05-.01-6.1 0-9.14zM523.14 466.67c6.1 0 12.2 0 18.31.01.01 3.04 0 6.09 0 9.14l-18.31-.01c-.01-3.05-.01-6.09 0-9.14zM550.63 466.68c6.1-.02 12.2-.01 18.31-.01v9.14c-6.11.01-12.21.01-18.31 0-.01-3.05-.02-6.09 0-9.13zM578.08 466.67c6.11 0 12.21-.01 18.32.01.01 3.04.01 6.08 0 9.13l-18.32.01c-.01-3.06-.01-6.1 0-9.15zM495.66 484.98c6.1-.02 12.2-.02 18.31-.01v9.17h-18.31c-.01-3.06-.01-6.11 0-9.16zM523.14 484.97c6.1-.01 12.2-.01 18.31 0 .01 3.05.01 6.11 0 9.17h-18.31c-.01-3.06-.01-6.12 0-9.17zM550.63 484.98c6.1-.02 12.2-.02 18.31-.01v9.17h-18.31c-.02-3.06-.02-6.11 0-9.16zM578.08 484.97c6.1-.01 12.21-.01 18.32 0 .01 3.05.01 6.11 0 9.17h-18.32c-.01-3.06-.01-6.12 0-9.17zM495.67 503.29c6.09 0 12.19.01 18.29 0 .01 3.05.02 6.1.01 9.16-6.11 0-12.21.01-18.31 0-.02-3.06-.01-6.11.01-9.16zM523.14 503.29c6.11.02 12.22-.03 18.33.03-.02 3.04-.02 6.08-.02 9.13-6.11.01-12.21.01-18.31 0-.01-3.06-.01-6.11 0-9.16zM550.62 503.32c6.1-.05 12.2-.02 18.31-.03.01 3.05.01 6.1.01 9.16-6.11.01-12.21.01-18.31 0-.01-3.05-.01-6.09-.01-9.13zM578.09 503.29c6.13.07 12.27-.14 18.41.12-.11 3.01-.12 6.02-.09 9.04-6.12.01-12.22.01-18.33 0-.02-3.06-.01-6.11.01-9.16z"/></g></svg>