<svg width="700pt" height="700pt" viewBox="0 0 700 700" xmlns="http://www.w3.org/2000/svg"><g><path d="M247.57 106.6c35.87-19.97 77.62-28.87 118.53-25.93 35.12 2.48 69.49 14.06 99.11 33.07 10.53 6.92 20.92 14.39 29.57 23.59 2.77 11.04 4.61 22.56 10.03 32.72 2.46 4.91 2.81 10.51 3.79 15.83 4.03 29.08 5.9 58.41 8.16 87.65 1.14 2.84 3.51 5 5.21 7.52 0 36 0 72 .01 108 .07 2.89-2.35 4.96-3.67 7.32-2.19 3.7-5.11 7-6.81 10.96-3.43 22.45-6.82 44.94-11.93 67.09-2.07 9.33-4.92 18.5-9.07 27.13-12.97 27.46-29.69 53.23-49.86 75.95-14.91 16.4-32.03 31.75-52.77 40.22-24.82 2.87-50.02 2.84-74.85.04-13.52-5.24-25.41-14-36.25-23.51-22-19.84-39.66-44.06-54.52-69.58-8.34-14.81-16.52-30.05-20.27-46.76-5.05-21.04-8.48-42.43-11.71-63.81-.59-3.05-.33-6.45-2.18-9.12-2.52-3.84-5.05-7.67-7.6-11.49-.87-1.35-1.92-2.75-1.73-4.45 0-36 .01-72 0-108 1.81-2.97 5.19-5.32 5.36-9.02 1.58-23.37 3.4-46.72 5.93-70.01 1.01-8.67 1.98-17.38 3.76-25.94.86-5.01 4.13-9.12 5.57-13.94 2.96-8.1 4.43-16.64 6.64-24.93 12.05-12.36 26.54-22.18 41.55-30.6m-3.64 36.27c-14.02 7.16-26.97 17.41-34.79 31.28-1.28 2.42-3.06 4.89-2.71 7.78 1.95 45.03 3.78 90.07 5.69 135.1.03 1.29-.12 2.56-.44 3.82-4.76 16.99-9.58 33.99-13.14 51.29-1.16 4.83-1.05 9.85.07 14.68 3.58 16.77 9.97 32.96 18.95 47.58 10.43 17.85 20.65 35.88 29.27 54.7 6.55 14.8 13.11 30.18 13.69 46.6 4.38 6.07 9.72 11.47 14.46 17.29 5.17-4.59 10.38-9.12 15.49-13.78 19.81-.49 39.63-.8 59.45-1.17 20.05.29 40.1.77 60.15 1.11 5.22 4.6 10.43 9.23 15.64 13.85 4.86-5.69 9.75-11.34 14.57-17.07-.04-6.73 1.29-13.38 3.18-19.81 9.83-31.46 27.12-59.82 43.41-88.24 7.34-13.4 12.65-27.98 15.56-42.99 1.49-6.58-.34-13.19-1.73-19.6-2.95-12.79-6.39-25.46-9.89-38.1-.85-3.38-2.33-6.67-2.24-10.2 1.93-44.99 3.75-89.99 5.7-134.97.37-3.12-1.62-5.76-3-8.36-7.8-13.56-20.5-23.6-34.24-30.66-15.36-7.82-32.14-12.68-49.18-15.04-5.12 37.72-10.02 75.46-15.87 113.06-1.11 5.98-1.74 12.45-5.46 17.48-3.46 4.43-9.42 5.4-14.67 5.94-11.28.85-22.61.55-33.91.47-6.82-.34-14.12-.09-20.31-3.4-6.37-3.81-7.34-11.89-8.59-18.51-6.04-38.25-10.99-76.67-16.19-115.04-16.95 2.35-33.64 7.18-48.92 14.91m14.63 398.46c-1.72 5.55-3.44 11.1-5.17 16.66 10.05 13.36 21.68 25.55 34.66 36.09 4.93-3.08 9.89-6.13 14.81-9.24 2.17-1.33 4.33-3.25 7.09-2.82 26.02.59 52.04.69 78.06.04 2.32.06 4.93-.53 6.94.97 5.9 3.69 11.79 7.4 17.72 11.05 12.95-10.57 24.6-22.73 34.62-36.11-1.74-5.55-3.44-11.12-5.19-16.67-6.71 7.8-13.37 15.64-20.07 23.44-6.69-5.65-13.35-11.34-20.05-16.98l-32.99-.71c-23.4-.89-46.8.42-70.19.69-6.77 5.6-13.42 11.35-20.14 17-6.72-7.79-13.34-15.67-20.1-23.41zM216.8 368.67c3.53-7.46 7.18-14.87 10.78-22.3 33.69 16.16 70.12 27.26 107.5 29.96 47.69 3.27 95.25-9.54 138.04-29.96 3.6 7.42 7.23 14.83 10.79 22.28-8.55 12.67-20.35 25.04-36.03 27.81-18.75 2.6-37.74 2.57-56.62 2.36-2.03-3.88-4.02-7.77-6.04-11.65-23.09 3.55-46.66 3.53-69.76.01-1.98 3.86-4 7.71-5.96 11.6-18.78.3-37.68.24-56.33-2.26-15.85-2.62-27.77-15.09-36.37-27.85m13.78 2.51c8.27 6.56 16.67 14.16 27.42 16.04 15.6 3.22 31.55 4.03 47.4 5.11 1.91-3.16 3.53-6.47 5.26-9.71-25.88-3.41-51.65-9.8-75.17-21.34-1.65 3.3-3.28 6.6-4.91 9.9m159.46 11.43c1.68 3.22 3.37 6.43 5.08 9.64 13.67-.7 27.36-1.66 40.89-3.78 6.16-1.12 12.63-2 17.99-5.47 5.65-3.54 11.05-7.48 16.11-11.83-1.63-3.3-3.26-6.6-4.9-9.89-23.52 11.53-49.28 17.94-75.17 21.33z"/></g></svg>