<svg width="700pt" height="700pt" viewBox="0 0 700 700" xmlns="http://www.w3.org/2000/svg"><path d="M82.81 291.24c89.18-66.58 178.37-133.16 267.55-199.73 89.2 66.57 178.39 133.15 267.56 199.76.01 105.9.01 211.81 0 317.72-178.37.01-356.74.02-535.12 0 0-105.91-.02-211.83.01-317.75m224.58-88.79c-13.05 7.05-23.68 18.16-30.78 31.13-11.33 20.1-14.78 44.4-9.94 66.93 3.55 15.88 11.38 31.3 24.2 41.67 14.69 11.97 33.62 17.45 52.23 19.15 20.21 1.71 41.28.27 59.98-8.17 14.14-6.26 26.33-17.24 33.1-31.25-6.29-.03-12.59-.03-18.89 0-10.58 13.55-27.46 20.49-44.14 22.59-19.47 2.39-39.92 1.19-58.08-6.72-12.86-5.58-23.21-16.29-28.76-29.11-7.92-17.56-6.85-38.08-.46-55.94 4.72-13.42 13.28-25.71 25.29-33.55 17.15-11.51 38.97-13.71 59.01-10.83 15.64 2.23 30.63 10.95 38.65 24.81 14 23.26 5.08 56.76-18.34 70.29-2.45 1.22-5.55 2.88-8.2 1.44-2.47-1.94-1.41-5.45-1.05-8.06 4.62-22.5 9.45-44.95 14.16-67.43-7.87.03-15.74-.17-23.59.1-.65 3.24-1.46 6.45-2.14 9.68-2.63-3.89-6.03-7.39-10.36-9.36-7.41-3.45-16.04-3.25-23.84-1.33-10.47 2.69-19.11 10.11-25.13 18.89-9.5 13.3-13.91 30.2-11.79 46.43 1.28 9.81 6.69 19.12 15.05 24.54 13.08 8.66 31.9 6.49 42.8-4.77 1.22 4.57 4.81 8.54 9.59 9.4 6.97 1.39 14.23.52 21.09-1.13 15.22-3.81 27.44-15.23 35.24-28.5 14.92-24.78 11.29-59.1-8.37-80.29-12.09-12.93-29.48-19.78-46.84-21.61-20.36-2.02-41.65.99-59.69 11m-205.71 95.17c-.01 95.05-.01 190.1 0 285.15 65.82-50.91 131.62-101.84 197.41-152.79-65.79-44.13-131.59-88.26-197.41-132.36m299.96 132.37c65.77 50.95 131.57 101.87 197.38 152.78.01-95.05.02-190.1-.01-285.15-65.8 44.1-131.6 88.22-197.37 132.37m-51.28-17.9c-77.89 60.28-155.8 120.56-233.69 180.86 155.79.01 311.58-.01 467.37.01-77.88-60.3-155.77-120.6-233.68-180.87zm-5.99-168.52c5.03-1.12 10.69.01 14.42 3.72 4.07 3.69 5.67 9.3 5.9 14.63.41 9.09-1.93 18.07-5.23 26.47-2.67 6.7-6.86 13.27-13.42 16.69-5.2 2.78-12.04 3.33-17.09-.08-4-2.55-6.38-6.99-7.19-11.58-1.79-9.59.03-19.45 2.93-28.64 2.91-9.43 9.51-18.96 19.68-21.21z"/></svg>