<svg width="700pt" height="700pt" viewBox="0 0 700 700" xmlns="http://www.w3.org/2000/svg"><g><path d="M317.06 161.24c27.08-9.52 57.55-9.09 84.28 1.44 10.68 4.02 20.35 10.17 30.23 15.8l75.9 43.83c-10.89 18.93-21.82 37.84-32.74 56.75-19.47-11.22-38.96-22.42-58.4-33.72-23.56 40.56-46.92 81.24-70.4 121.84 3.21 1.92 6.46 3.75 9.68 5.65-29.96 51.94-59.95 103.86-89.93 155.79-5.41 9.59-15.78 16.13-26.78 16.86-12.64 1.08-25.5-5.74-31.73-16.78-5.96-10.15-6.01-23.43-.07-33.6 30.02-52.01 60.04-104.02 90.09-156.01l9.73 5.58c23.45-40.6 46.91-81.21 70.34-121.83-9.08-5.29-18.2-10.51-27.29-15.78-9.79-6.05-21.38-9.21-32.9-8.55-18.75.81-36.56 11.74-45.85 28.03-6.48-3.77-13.02-7.44-19.45-11.29 14.38-25.04 37.97-44.61 65.29-54.01zM165.65 275.68c7.56-4.54 18.29-1.56 22.54 6.13 4.65 7.47 1.89 18.27-5.75 22.63-27.45 15.93-54.97 31.73-82.43 47.64 27.45 15.88 54.93 31.7 82.37 47.58 7.2 4.05 10.2 13.86 6.55 21.27-2.83 6.35-9.94 10.41-16.85 9.59-3.82-.28-7.1-2.38-10.31-4.27-34.44-19.9-68.9-39.78-103.34-59.67-6.71-3.66-10.11-12.24-7.68-19.5 1.22-4.06 4.11-7.53 7.82-9.59 35.7-20.59 71.37-41.24 107.08-61.81zM519.58 291.56c4.78-2.1 10.52-1.73 15.01.94 35.48 20.48 70.95 40.97 106.44 61.44 8.85 4.34 11.85 16.92 5.71 24.69-2.11 3.04-5.45 4.79-8.58 6.57-34.66 19.98-69.28 40.03-103.95 59.99-7.51 4.39-18.07 1.54-22.37-6.01-4.74-7.48-2.07-18.42 5.64-22.79 27.48-15.92 55.01-31.75 82.5-47.64-26.77-15.46-53.54-30.93-80.33-46.37-4.93-2.4-8.94-6.9-9.87-12.4-1.6-7.45 2.75-15.56 9.8-18.42z"/></g></svg>