<svg width="1200pt" height="1200pt" viewBox="0 0 1200 1200" xmlns="http://www.w3.org/2000/svg"><path d="M184.32 217.23c71.98-39.16 143.97-78.3 215.95-117.48 67.48 36.65 134.88 73.45 202.38 110.07 62.53-34.21 125.15-68.29 187.7-102.47 3.07-1.59 5.95-3.74 9.35-4.58 11.36 5.62 22.3 12.11 33.52 18.04 88.89 48.44 177.79 96.87 266.69 145.31 33.35 18.09 66.54 36.47 100.09 54.19v.34c-34.81 18.88-69.28 38.41-103.96 57.55-30.6 17-61.21 33.98-91.81 51 64.59 35.11 129.18 70.22 193.78 105.31-64.88 34.92-129.84 69.73-194.73 104.63l.01 260.21c-134.44 66.99-268.91 133.92-403.37 200.88-134.43-66.96-268.88-133.89-403.29-200.89.03-87 0-174 .01-261-64.39-34.62-128.82-69.17-193.18-103.83 65.01-35.43 130.06-70.79 195.03-106.29-61.24-34.4-122.9-68.07-184.08-102.6-4.8-2.65-9.47-5.55-14.41-7.93v-.35c61.57-33.13 122.86-66.78 184.32-100.11m-72.42 100.8c46.47 25.91 92.99 51.72 139.44 77.65 97.33-52.22 194.61-104.53 291.91-156.81-47.61-25.95-95.28-51.79-142.87-77.79-96.2 52.24-192.33 104.63-288.48 156.95m544.8-76.22c28.78 15.79 57.83 31.1 86.72 46.71 68.27 36.66 136.55 73.29 204.81 109.98 46.37-25.85 92.9-51.44 139.14-77.53-5.23-3.77-11.26-6.25-16.8-9.53-90.41-49.17-180.77-98.43-271.21-147.54-47.52 26.02-95.13 51.9-142.66 77.91m-539.91 292.52c97.19 52.17 194.41 104.27 291.55 156.51 47.56-25.59 95.04-51.34 142.56-77.02-97.06-52.57-194.19-105.03-291.26-157.58-47.62 26.02-95.3 51.92-142.85 78.09m535.91 79.44c46.51 25.89 93.3 51.28 139.86 77.07 97.22-52.13 194.41-104.32 291.54-156.6-5.77-3.85-12.13-6.7-18.12-10.16-41.58-22.6-83.12-45.27-124.72-67.83-96.17 52.55-192.39 104.99-288.56 157.52m-25.6 47.01c-.01 121.81-.01 243.63 0 365.44 107.42-53.44 214.83-106.92 322.25-160.37.01-65.91.01-131.82 0-197.73-52.43 28.11-104.84 56.25-157.26 84.36-55-30.56-109.99-61.15-164.99-91.7m-218.19 91.7c-52.74-28.31-105.45-56.67-158.19-84.97-.03 66.11-.02 132.23-.01 198.34 107.42 53.48 214.83 106.98 322.25 160.45.01-121.63.01-243.27 0-364.9-54.68 30.35-109.36 60.72-164.05 91.08z"/></svg>