<svg width="700pt" height="700pt" viewBox="0 0 700 700" xmlns="http://www.w3.org/2000/svg"><path d="M278.49 81.35c7.03-2.28 14.51-1.15 21.7-.48 17.23 2.2 34.68 6.12 49.81 14.99 14.56-8.57 31.33-12.47 47.92-14.76 8.02-.81 16.44-2.25 24.27.47 5.11 1.65 9.63 4.64 13.88 7.86 8.07-1.16 16.65-.44 23.88 3.61 26.72 14.39 48.49 36.62 65.64 61.41 3.76 5.66 7.94 11.19 10.3 17.63 2.73 7.26 3.93 14.98 4.49 22.69 8.04 6.4 14.89 14.61 18.45 24.34 4.22 11.43 7.83 23.08 10.95 34.85 2.43 8.89 1.28 18.29-.71 27.15 5.38 6.9 9.48 14.98 10.56 23.74 2.93 22.27 4.28 44.73 4.26 67.18.02 7.4-2.8 14.42-6.27 20.83 2.68 6.64 4.77 13.81 3.78 21.04-1.78 14.23-4.53 28.35-8.44 42.16-2.32 8.26-7.07 15.76-13.46 21.47.1 9.02-1.58 18.16-5.74 26.22-15.17 28.38-36.79 53.28-62.78 72.25-8.06 5.67-18.09 7.89-27.83 7.62-5.63 8.33-12.64 16.35-22.13 20.28-22.61 9.04-46.6 15.37-71.03 16.09-7.25.44-14.11-2.59-19.99-6.56-5.89 3.97-12.76 7-20.01 6.56-23.91-.68-47.38-6.83-69.57-15.49-10.17-3.73-17.71-12.11-23.59-20.89-9.95.18-20.22-2.1-28.38-8.03-25.9-19.08-47.52-44-62.51-72.48-3.98-7.89-5.59-16.79-5.45-25.58-6.39-5.71-11.16-13.2-13.46-21.47-3.89-13.79-6.69-27.9-8.45-42.12-1.01-7.24 1.09-14.42 3.79-21.07-3.5-6.39-6.32-13.41-6.3-20.81-.03-22.55 1.33-45.13 4.33-67.5 1.12-8.64 5.18-16.62 10.5-23.43-1.99-8.87-3.12-18.27-.71-27.17 3.17-12.02 6.86-23.92 11.24-35.56 3.62-9.42 10.32-17.38 18.17-23.62.81-10.85 2.81-22.05 8.83-31.33 16.25-25.6 36.93-48.95 62.73-65.23 5.55-3.33 11.08-7.07 17.52-8.43 5-1.17 10.18-.97 15.24-.35 4.43-3.38 9.19-6.47 14.57-8.08m-2.12 42.1c-.37 9.02-1.53 18.38 1.29 27.16 2.3 7.62 6.17 15.33 12.98 19.84 3.19 2.27 7.37 1.63 10.8 3.24 4.18 2.35 4.81 8.79 1.21 11.95-2.84 2.77-7.16 2.16-10.7 1.46-8.4-1.72-15.22-7.55-20.34-14.17-2.41 11.36-5.8 22.74-11.99 32.66-1.4 2.19-3.05 4.58-5.74 5.21-4.12 1.27-8.78-1.74-9.43-5.96-.64-2.66.88-5.08 2.23-7.22 5.09-7.85 7.75-16.96 9.78-26.01 3.47-16.25 4.58-32.92 4.55-49.52-1.05-1.06-2.1-2.13-3.13-3.2-2.82.48-5.44 1.67-7.83 3.21-23.28 14.08-41.74 34.97-56.19 57.79-4.13 7.75-4.66 17.05-3.48 25.62 3.16 2.46 6.23 5.02 9.27 7.63 9.77-11.2 17.55-23.98 24.45-37.11 2.6-4.73 10.22-4.45 12.74.22 2.03 3.07.76 6.85-.95 9.74-7.31 13.3-15.21 26.48-25.55 37.68 4.19 5.23 10.29 8.52 16.83 9.72 12.16 2.37 24.96 2.18 36.92-1.18 5.02-1.32 10 3.84 8.81 8.82-.6 3.91-4.53 5.83-8 6.59-11.46 2.82-23.46 3.07-35.14 1.63 7.01 12.04 12.18 25.2 14.69 38.92.68 2.83.04 6.06-2.29 7.96-3.11 2.89-8.55 2.33-11.01-1.13-1.9-3.06-1.96-6.82-2.93-10.21-6.74-27.48-25.4-50.48-47.37-67.58-6.07 3.01-10.46 8.74-12.37 15.19-3.24 9.09-6.09 18.31-8.62 27.62-1.73 5.91-.48 12.34 2.06 17.82 10.58-.34 21.45-1.33 31.21-5.73 3.4-1.48 6.81-4.63 10.77-3.11 5.55 1.57 6.98 9.81 2.22 13.11-6.74 4.81-14.91 7.07-22.9 8.84-.72 13.08-1.41 26.2-3.52 39.14-.5 4.07-4.7 7.11-8.71 6.33-3.85-.57-6.87-4.47-6.19-8.35 1.64-11.77 2.65-23.62 3.15-35.49-9.2.75-17.28 9.23-17.93 18.44-2.44 19.56-3.63 39.28-3.72 58.99-.26 4.58 2.7 8.35 5.08 11.96 13.39-2.71 26.54-6.55 39.35-11.28-.47-17.87 3.86-36.59 15.06-50.83 3.24-3.79 7.18-7.43 12.13-8.7 5.29-1.27 10.43 4.41 8.65 9.55-1.23 4.48-6.7 5.16-9.12 8.75-7.48 10-10.79 22.58-11.64 34.89 11.88-5.66 23.67-12.18 33.03-21.58 2.79-2.64 4.89-6.85 9.19-7.09 5.52-.69 10.02 5.86 7.35 10.76-2.44 4.05-6.03 7.26-9.46 10.46-12.87 11.3-28.36 19.12-44.12 25.57 14.41 7.19 25.04 21.49 27.25 37.5.39 3.68 1.46 7.95-.88 11.21-2.5 3.62-8.22 4.15-11.32 1.03-3.09-2.85-2.12-7.44-2.95-11.14-2.35-15.1-15.89-27.03-30.89-28.65-9.81-1.47-19.09 2.67-28.57 4.36-2.61 5-6.61 10.17-5.55 16.15 1.52 10.94 3.69 21.79 6.52 32.47.8 2.94 1.76 6.01 3.94 8.25 1.4.3 2.84.37 4.26.53 3.24-4.17 6.29-8.66 7.59-13.85 2.32-8.4.7-17.13-.05-25.62-.51-3.52 1.79-7.14 5.21-8.13 3.96-1.32 8.8 1.26 9.54 5.45 1.28 7.84 1.9 15.84 1.44 23.79 3.83.73 7.69 1.68 11.07 3.7 16.95 9.92 26.12 32.65 18.43 51.16-1.71 3.7-3.44 8.47-7.86 9.54-4.9 1.42-10.14-3.23-9.31-8.26 1.01-3.83 3.78-6.99 4.43-10.95 2.16-11.07-4-22.86-13.51-28.55-2.28-1.25-6.23-2.71-7.86.18-2.98 5.2-5.25 10.78-7.98 16.11-1.77 3.9-4.53 7.74-3.98 12.25.24 6.9 4.46 12.63 7.83 18.36 12.21 19.85 28.24 37.31 46.9 51.25 5.8 4.24 13.59 2.8 19.54-.34 13.48-30.78 17.86-67.25 4.53-98.84-1.54-3.07-1.19-7.08 1.51-9.38 3.42-3.34 9.85-2.25 11.79 2.18 8.57 18.94 11.03 40.23 9.39 60.84 14.04 2.48 27.29 10.6 34.72 22.95 6.72 10.82 8 24.78 3.45 36.66-1.9 5.17-9.64 6.13-12.83 1.69-2.77-3.11-1.09-7.3-.27-10.81 2.16-8.78-.93-18.28-7.1-24.72-5.25-5.72-12.52-9.12-20.01-10.78-2.2 10.8-5.18 21.46-9.45 31.62-.64 1.66-1.49 3.3-1.71 5.09.41 7.6 4.96 14.67 11.12 18.94 17.43 7.33 36.01 12.13 54.86 13.79 2.71-.01 6.04 1.06 8.13-1.26 1.41-.96 1.81-2.6 1.69-4.21v-90.1c.24-2.62-1.68-4.61-3.03-6.62-11.67-15.55-26.08-29.11-42.44-39.61-4.04-2.33-4.61-8.48-1.24-11.62 2.65-2.81 7.19-2.77 10.2-.56 13.54 8.73 25.63 19.6 36.52 31.45-.02-23.32-.02-46.64 0-69.96-9.14-7.52-19.27-13.8-29.99-18.79-6.63 5.21-11.44 12.29-17.95 17.62-8.9 7.53-20.43 11.61-31.98 12.42-5.44.02-9.04-6.79-6.1-11.33 1.57-3.04 5.14-3.71 8.21-4.1 7.78-1.08 15.44-4.09 21.25-9.5 5.5-5.06 10.02-11.1 15.77-15.92-4.93-12.78-2.81-27.13 2.33-39.5-5.18-8.8-12.33-16.33-16.81-25.56-3.48-6.88-5.16-14.98-3.04-22.53 2.4-8.78 9.15-15.64 16.55-20.56 2.71-1.94 6.66-1.85 9.19.36 3.84 2.96 3.53 9.5-.64 12.04-5.32 3.86-11.59 9-10.86 16.34 1.48 10.03 9.02 17.54 14.41 25.67 3.79-3.65 8.31-7.11 13.76-7.52 3.19-.51 6.64 1.02 8.12 3.96 2.02 3.56.44 8.86-3.53 10.27-2.61.89-5.58 1.41-7.32 3.78-5.86 6.92-8.91 15.95-9.73 24.89-.25 4.88-.05 10.32 2.93 14.41 8.7 4.41 17.45 8.83 25.44 14.5-.02-62.66 0-125.32 0-187.98-5.96 10.92-12 22.14-21.16 30.76-6.54 6.16-15.51 10.54-24.67 9.51-5.1-.94-7.6-7.69-4.41-11.76 2.43-3.71 7.36-2.83 11.05-4.04 5.67-2 9.87-6.66 13.47-11.28 9.7-12.96 15.61-28.21 24.32-41.79.85-1.29 1.51-2.74 1.39-4.33.05-11.74-.05-23.48.03-35.23-8.28-4.75-17.57-7.34-26.84-9.33-6.91-1.28-13.94-2.46-20.98-2.12-5.51 2.2-8.14 8.14-10.71 13.08m121.48-12.06c-11.31 1.89-22.66 4.78-32.73 10.41.02 11.91-.02 23.82.02 35.73 10.5 11.79 18.97 25.3 25.77 39.53 6.48 13.83 11.47 28.63 12.53 43.96.38 3-.72 6.3-3.42 7.9-3.8 2.63-9.74.7-11.13-3.74-.92-3.85-.81-7.86-1.61-11.74-3.58-18.44-11.94-35.64-22.15-51.28-.05 65.27.01 130.55-.03 195.82 8.09-5.56 16.67-10.41 25.65-14.39 4.9-10.79 4.35-23.06 3.27-34.58-1.25-9.71-3.1-19.61-7.75-28.33-1.63-3.91-7.62-2.86-8.8-7.24-2.59-5.44 2.97-11.54 8.6-10.52 7.73.7 12.33 7.91 15.47 14.22 7.93-10.22 17.69-18.86 27.91-26.72 2.97-2.56 7.83-2.37 10.45.6 2.97 3.01 2.61 8.45-.8 10.99-9.97 7.95-19.82 16.36-27.22 26.85-2.14 3.28-4.65 6.97-3.89 11.1 2.41 15.73 3.22 32.36-2.34 47.55 4.59 5.86 6.47 13.2 7.62 20.41 12.58-.59 25.28-1.48 37.82.11 3.77.26 7.5 2.97 7.82 6.94.64 4.38-3.37 8.89-7.86 8.27-11.96-1.79-24.1-.78-36.12-.26.76 6.67 1.29 13.47 3.52 19.86.99 2.97 3.16 5.36 4.18 8.32 1.23 4.61-2.92 9.52-7.66 9.17-4.65-.11-7.16-4.62-9.03-8.24-8.12-16.87-4.02-36.61-10.96-53.78-10.72 4.89-20.77 11.22-29.88 18.69.03 36.44-.02 72.87.02 109.31 6.08-4.96 11.76-10.4 16.93-16.29 4.25-4.9 8.37-10.06 10.84-16.13 1.02-3.02 3.75-5.46 7.05-5.45 4.78-.32 8.87 4.72 7.53 9.33-2 6.52-6.2 12.08-10.22 17.48-8.98 11.3-19.4 21.82-32.14 28.84v59.99c-.47 3.18 2.8 6.04 5.88 5.61 19.46-.93 38.53-6 56.65-12.99 4.47-1.49 7.28-5.54 9.85-9.24 2.22-3.17 2.85-7.07 3.78-10.75-5.17-11.76-9.04-24.08-11.52-36.68-5.84 1.38-11.58 3.61-16.29 7.41-6.88 5.32-11.67 13.71-11.47 22.54-.09 3.75 1.26 7.3 1.9 10.96.65 3.7-2.26 7.4-5.86 8.11-3.42.83-7.23-1.15-8.49-4.43-4.64-12.11-3.2-26.35 3.86-37.24 7.47-12.03 20.45-20.05 34.32-22.37-1.66-20.42.82-41.47 9.15-60.31 1.59-4.21 7.18-6.01 10.92-3.5 3.52 2.05 4.45 6.79 2.59 10.29-9.15 21.5-9.93 45.83-5.17 68.5 2.27 10.28 5.22 20.55 9.84 30.04 4.59 3.05 10.76 4.31 16.08 2.4 3.19-1.3 5.73-3.7 8.42-5.78 19.17-15.35 35.22-34.55 46.96-56.11 2.64-5.19 4.03-11.8 1.01-17.14-3.1-6.22-5.99-12.56-9.14-18.77-.88-1.38-1.51-3.45-3.42-3.61-3.68-.25-6.93 2-9.59 4.28-7.24 6.56-11.78 16.96-9.26 26.7.8 3.56 3.3 6.45 4.19 9.97.82 5.01-4.39 9.64-9.26 8.26-3.87-.82-5.64-4.77-7.22-7.96-5.47-11.47-4.14-25.35 1.99-36.29 5.53-10.06 15.1-18.64 26.81-20.2-.49-7.21.18-14.42 1.05-21.56.27-2.17.75-4.51 2.49-6.02 3.13-3.13 8.93-2.41 11.37 1.24 1.84 2.41 1.28 5.6 1 8.4-1.02 8.21-1.9 16.83.97 24.79 1.45 4.29 4.15 7.98 6.88 11.54 1.72-.41 4.16.3 5.14-1.58 1.56-2.12 2.34-4.67 3.03-7.16 2.84-10.66 4.97-21.5 6.47-32.42 1.17-6.01-2.9-11.2-5.49-16.24-8.53-1.46-16.77-5.07-25.55-4.61-11.65.4-22.99 6.72-29.21 16.61-3.77 5.65-5.07 12.43-5.51 19.1-.43 5.49-7.72 8.37-11.9 4.9-4.11-2.92-3.05-8.5-2.48-12.77 2.22-16.02 12.85-30.31 27.25-37.52-17.84-7.34-35.59-16.39-49.12-30.44-2.27-2.6-5.33-5.27-5.19-9.03 0-4.2 3.98-7.8 8.17-7.34 4.3.26 6.38 4.53 9.2 7.17 9.35 9.36 21.1 15.87 32.96 21.5-.64-10.2-3.15-20.38-8.05-29.41-1.96-3.51-4.24-7.11-7.87-9.09-2.67-1.4-5.21-3.74-5.16-6.98-.39-5 5.07-9.23 9.81-7.49 6.84 2.44 11.71 8.36 15.43 14.35 7.99 13.47 11.39 29.38 10.92 44.95 12.81 4.75 25.96 8.56 39.35 11.29 2.39-3.61 5.34-7.39 5.08-11.98-.09-18.39-1.14-36.79-3.25-55.07-.5-3.94-.62-8.13-2.73-11.63-2.45-4.5-6.8-7.41-10.78-10.41l-4.93-.15c.62 11.11 1.31 22.23 2.96 33.24.34 2.37.63 5.04-.87 7.11-2.23 3.67-7.7 4.55-11 1.84-2.23-1.58-2.84-4.39-3.17-6.92-1.74-12.31-2.55-24.73-3.15-37.13-8.17-1.84-16.67-4.01-23.41-9.21-4.22-3.51-2.55-11.16 2.72-12.66 3.96-1.52 7.37 1.63 10.78 3.11 9.72 4.36 20.53 5.36 31.06 5.72 2.92-4.57 3.37-10.36 2.74-15.62-2.72-10.79-6.11-21.41-9.9-31.87-1.98-5.67-6.29-10.34-11.54-13.18-19.52 15.23-36.41 34.86-44.7 58.47-2.14 5.59-3.18 11.49-4.65 17.26-1.04 3.93-5.77 6.12-9.51 4.72-3.46-1.13-5.72-4.95-4.95-8.53 2.35-14.06 7.68-27.53 14.83-39.82-11.67 1.44-23.65 1.18-35.1-1.62-3.19-.77-6.78-2.27-7.86-5.68-2.01-4.85 2.52-10.9 7.77-9.97 3.97.92 7.88 2.23 11.99 2.49 10.83.9 22.13.85 32.42-3.08 4.12-1.47 7.35-4.51 10.21-7.73-10.67-11.59-18.84-25.24-26.24-39.08-1.92-3.12-1.78-7.51 1.09-10.01 3.41-3.39 9.82-2.33 11.82 2.09 6.66 12.96 14.45 25.45 24.01 36.48 3.11-2.66 6.26-5.29 9.5-7.79.76-6.94.35-14.02-1.6-20.74-1.18-4.02-3.8-7.36-6.06-10.82-14.09-20.75-31.69-39.64-53.45-52.44-2.01-1.29-4.29-2.02-6.61-2.45l-3.11 3.19c-.08 13.27.68 26.58 2.71 39.71 1.65 10.3 3.94 20.63 8.39 30.12 1.4 3.12 3.51 5.84 5 8.91 1.98 4.31-1.38 9.78-6.05 10.18-3.18.49-6.17-1.4-7.77-4.05-6.81-10.19-10.37-22.14-12.91-34.02-5.07 6.58-11.83 12.35-20.14 14.14-3.79.8-8.58 1.4-11.36-1.94-3.33-3.47-2.06-9.97 2.41-11.8 3.35-1.04 7.12-.85 10.11-2.91 6.81-4.54 10.69-12.27 12.98-19.9 2.81-8.77 1.63-18.1 1.25-27.1-2.58-4.97-5.25-10.89-10.83-13.05-4.98-.47-9.99.36-14.93 1.01z"/></svg>