<svg width="700pt" height="700pt" viewBox="0 0 700 700" xmlns="http://www.w3.org/2000/svg"><path d="M240.04 98.93c.18-1.77 1.06-3.81 3.01-4.19 1.96-.31 3.45 1.25 4.51 2.68 57.87 77.26 115.72 154.53 173.62 231.76 32.69-67.38 65.33-134.79 98-202.18.97-1.96 1.79-4 2.97-5.86 1.1-1.89 3.96-2.54 5.61-.96 1.37 1.21 1.43 3.16 1.2 4.84-10.39 95.03-20.78 190.06-31.18 285.09 47.86 50.21 95.77 100.37 143.65 150.56 1.59 1.78 3.55 3.31 4.72 5.43 1.11 3.04-2.35 5.51-5.12 5.15-102.99.54-205.99 1.04-308.98 1.57-13.28.18-26.59-.1-39.85.37-32.45 10.48-64.81 21.25-97.24 31.79-2.64 1.13-5.82-.51-6.54-3.24-1.84-6.08-3.5-12.22-5.16-18.35-3.78 1.09-8.92 2.77-11.89-.85-8.53-11.11-17.08-22.22-25.44-33.45-1.79-2.18-.1-4.91 1.46-6.65 4.61-5 9.46-9.77 14.33-14.52-9.87-56.68-19.73-113.36-29.62-170.03l-71.23 30.08c-1.83.91-4.58.76-5.55-1.3-.92-1.75.05-3.68 1.16-5.07 22.66-29.38 45.32-58.76 67.98-88.15.92-1.56 2.74-2.27 4.48-1.64 16.34 3.7 32.67 7.45 49.01 11.2 2.36.26 3.61 2.42 4.98 4.08 7.98 10.02 15.99 20.01 23.99 30.01 11.08-79.38 22.05-158.78 33.12-238.17m9.69 14.62c20.52 89.25 41.11 178.48 61.65 267.72 4.27-3.66 8.45-7.41 12.7-11.09 1.29-1.24 3.17-1.76 4.92-1.36 22.37 4.03 44.74 8.06 67.1 12.1 7.09-14.56 14.14-29.14 21.2-43.71-55.85-74.56-111.68-149.13-167.57-223.66m-4.39 4.54c-10.5 75.9-21.17 151.78-31.55 227.69 19.05 23.64 37.93 47.42 56.93 71.11 12.06-10.59 24.21-21.08 36.2-31.76-20.62-88.99-41.01-178.03-61.58-267.04m150.54 281.49c7.37 3.05 14.74 6.09 22.12 9.13 13.64-11.26 27.23-22.59 40.9-33.82 1.6-1.47 4.34-1.18 5.71.49 8.71 9.07 17.34 18.22 26.07 27.28 9.32-85.5 18.7-171 28.01-256.5-40.95 84.47-81.91 168.93-122.81 253.42m-266.51-99.57c-16.42 21.39-33.04 42.64-49.35 64.12.65-.39 1.27-.81 1.86-1.26 18.35-15.68 36.77-31.26 55.11-46.94.91-.73 1.83-1.6 3.05-1.71 10.46-1.65 20.98-2.98 31.44-4.61l-42.11-9.6m13.81 19.02c16.68 90.19 33.22 180.4 50.18 270.54 29.86-48.25 59.66-96.54 89.49-144.8-34.9-43.61-69.68-87.31-104.66-130.84-11.66 1.79-23.34 3.38-35.01 5.1m-62.92 52.17c17.83-7.46 35.59-15.09 53.42-22.54 2.43-1.32 5.38.7 5.42 3.37 13.59 74.49 27.11 148.99 40.71 223.47 1.63-.45 3.27-.88 4.92-1.3-15.47-84.15-30.92-168.3-46.41-252.44-19.37 16.45-38.75 32.91-58.06 49.44m270.02 9.52c12.71 5.36 25.51 10.53 38.24 15.83 1.37-2.74 2.7-5.49 4.02-8.25-14.09-2.52-28.15-5.15-42.26-7.58m-74.62 42.36c3.99 5.03 8 10.04 12.02 15.05 11.6-18.69 23.28-37.33 34.83-56.05-15.63 13.65-31.26 27.31-46.85 41m59.59-39.97c4.9 27.33 9.77 54.65 14.68 81.98 20.39-16.88 40.79-33.76 61.16-50.67-25.29-10.42-50.55-20.9-75.84-31.31m17.97 89.51c92.34 29.26 184.66 58.56 277.01 87.79-56.33-59.08-112.69-118.12-169.04-177.18-36 29.79-71.99 59.59-107.97 89.39m-147.35 111.85l139.37-115.53c-5.02-28.04-10.01-56.09-15.05-84.12-41.46 66.53-82.92 133.07-124.32 199.65m90.41-19.36c108.68-.53 217.35-1.11 326.03-1.67-91.08-28.88-182.16-57.75-273.24-86.59-17.61 29.41-35.22 58.82-52.79 88.26m41.21-79.36c-42.85 35.25-85.49 70.78-128.18 106.22 26.82-8.76 53.63-17.6 80.46-26.34 15.93-26.61 31.94-53.18 47.72-79.88m-182.72 62.03c4.49 5.91 8.98 11.81 13.5 17.7-1.57-9.16-3.18-18.32-4.77-27.48-2.93 3.24-5.85 6.49-8.73 9.78z"/></svg>