<svg width="700pt" height="700pt" viewBox="0 0 700 700" xmlns="http://www.w3.org/2000/svg"><g><path d="M244.03 133.1c17.02-11.47 36.29-19.4 56.26-24 1.6 15.54 6.08 31.79 17.4 43.14 16.56 16.86 46.89 16.8 63.36-.14 11.22-11.37 15.65-27.53 17.26-43 30.55 6.8 59.01 22.32 81.27 44.31 34.94 33.75 55.67 78.54 85.7 116.19-13.87 14.56-27.84 29.02-41.64 43.64 16.8-11.11 33.51-22.35 50.28-33.5 10.45 11.47 22.28 21.81 35.73 29.62 11.37 6.67 23.82 11.39 36.66 14.36-5.13 17.82-10.24 35.64-15.38 53.46-47.27-4.92-94.64-8.93-142.08-11.86-4.67 7.03-11.78 12.16-15.67 19.73-1.72 3.15-2.71 6.61-3.6 10.06 4.19-.47 8.64-.28 12.32 2.01 8.07 4.74 12.33 13.9 14.11 22.76 2.48 13.14.41 27.63-7.53 38.63-4.37 6.07-11.78 10.84-19.52 9.39-6.9-1.19-11.96-6.69-15.4-12.43.06 7.39-.08 14.78-.07 22.17-6.69 7.32-13.43 14.6-20.16 21.88-.33-6.5.08-13.07-1.25-19.48.89-.21 1.79-.42 2.7-.61.06-6.11-1.09-12.15-1.34-18.21 5.06-16.88 8.61-34.22 10.25-51.78-6.2 3.37-12.8 5.99-19.65 7.71 9.91-5.85 19.24-14.09 22.9-25.34 3.49-10.1 1.37-21.22-3.12-30.65-6.62-14.74-12.8-30.67-10.82-47.14-14.49-5.68-29.83-8.83-45.21-10.85-21.46-2.71-43.21-3.05-64.76-1.29-19.51 1.72-39.1 4.99-57.42 12.13 2.04 16.91-4.54 33.19-11.32 48.3-4.38 9.48-6.05 20.69-2.22 30.63 3.92 10.71 12.92 18.52 22.48 24.19-6.85-1.7-13.44-4.33-19.63-7.7 1.52 15.86 4.38 31.61 8.87 46.91.74 2.77 2.16 5.54 1.59 8.5-.65 4.84-.99 9.71-1.11 14.6l2.69.61c-1.33 6.56-.91 13.28-1.28 19.93-6.87-7.41-13.69-14.87-20.55-22.29-.03-6.9-.1-13.79-.1-20.69-3.47 5.2-8.43 10.07-14.89 10.97-7.5 1.19-14.61-3.34-18.91-9.19-7.95-10.74-10.12-24.98-7.93-37.96 1.64-9.12 5.85-18.59 14.06-23.56 3.44-2.22 7.63-2.51 11.62-2.39-.97-3.47-1.96-6.98-3.74-10.13-3.87-7.4-10.91-12.36-15.35-19.36-47.49 2.78-94.9 6.91-142.22 11.8-5.14-17.82-10.26-35.65-15.39-53.48 18.34-4.16 35.78-12.24 50.66-23.77 22.54-17.31 39.16-40.82 54.66-64.32 12.72-19.3 24.91-39 39.16-57.22 6.92 6.01 13.72 12.16 20.7 18.09-5.73-7.46-11.64-14.77-17.43-22.18 12.67-15.66 27.17-30.02 44-41.2m42.96 57.75c-2.31 1.98-.69 5.26-1.47 7.8-1.78 2.08-5.48 3.05-5.14 6.39.37 4.23 3.55 8.18 7.61 9.44 4.48.64 8.38-3.66 12.94-2.21 4.96 1.75 9.5 4.51 14.28 6.67.37-3.7 1-7.37 1.83-11-3.71-1.95-7.69-3.41-11.18-5.75-4-2.71-2.92-8.6-6.37-11.66-3.63-2.42-9.05-2.47-12.5.32m112.63-.29c-3.3 2.93-2.36 8.36-5.84 11.22-3.37 2.56-7.47 3.92-11.18 5.91.85 3.63 1.48 7.3 1.91 11 4.54-2.08 8.87-4.69 13.59-6.38 4.53-1.52 8.43 2.66 12.88 2.2 4.18-1.16 7.49-5.25 7.8-9.58.3-3.32-3.48-4.21-5.17-6.34-.71-2.54.83-5.8-1.47-7.76-3.46-2.79-8.9-2.72-12.52-.27m-75.26 8.76c-3.75 5.8-5.27 12.86-5.6 19.68-.46 5.16 3.93 9.49 2.64 14.64-.37 3.85-1.55 9.14 2.26 11.67 4.04 1.74 8.59.71 12.84.71-.12.66-.34 1.97-.45 2.62 2.16-.44 4.15.23 5.75 1.72 3.06-1.65 6.36-.49 8.01 2.45 1.72-2.86 4.97-4.15 8.02-2.42 1.61-1.54 3.62-2.18 5.83-1.79l-.44-2.58c4.46-.09 9.55 1.34 13.55-1.2 3.76-4.02 1.08-9.86 1.36-14.69.95-3.71 2.99-7.19 2.82-11.13-.11-5.59-1.51-11.14-3.66-16.28-2.09-5.03-6.65-8.81-11.96-10-7.64-1.8-15.6-1.54-23.39-1.17-6.46.4-13.73 2.04-17.58 7.77m-22.52 47.63c-4.46 1.96-8.52-1.78-12.87-2.06-4.75.69-8.57 5.47-8.58 10.2.06 3.2 3.96 3.74 5.28 6.15.4 2.53-.89 5.8 1.55 7.61 3.22 2.4 7.86 2.39 11.39.68 3.18-1.61 3.23-5.6 4.52-8.49.82-2.62 3.15-4.28 5.52-5.39 4.77-2.3 9.5-4.68 14.31-6.89-3.76-1.65-5.32-5.44-5.59-9.29-5.18 2.49-10.23 5.26-15.53 7.48m80.5-7.2c-.3 3.89-2.17 7.58-5.94 9.11 4.69 2.15 9.29 4.47 13.94 6.71 2.41 1.13 4.82 2.78 5.67 5.46 1.27 2.86 1.32 6.77 4.4 8.43 3.7 1.86 8.8 1.86 11.97-1.05 2.05-2.07.34-5.24 1.34-7.68 1.94-1.97 5.67-3.21 5.03-6.65-.67-5.08-5.94-10.86-11.41-8.61-3.24 1.11-6.75 3.03-10.18 1.42-5.05-2.15-9.88-4.77-14.82-7.14m-46.1 18.39c1.35.63 2.71 1.26 4.08 1.87-.04-2.93-.34-5.88-1.39-8.63-2.2 1.57-2.31 4.32-2.69 6.76m23.6 2.04c1.26-.7 2.53-1.41 3.79-2.13-.35-2.3-.88-4.56-1.79-6.7-2.57 2.2-2.14 5.8-2 8.83m-18.48 2.19c2.41.72 4.93.87 7.43.55-.3-3.4-.31-7.3-2.9-9.89-4.38.03-3.92 6.22-4.53 9.34m12.75-9.46c-2.74 2.59-2.76 6.63-2.96 10.12 2.49.21 5 .03 7.4-.69-.66-3.18-.15-8.96-4.44-9.43m-134.98 154.26c-6.88 4.9-9.59 13.74-9.92 21.85-.3 8.52 1.92 17.56 7.76 24 3.33 3.69 8.57 6.03 13.54 4.63 5.85-1.66 9.72-7.04 11.75-12.49 3.62-10.05 2.77-21.65-2.42-31.01-2.41-.72-5.06-1.24-6.91-3.07-1.53-1.52-2.03-3.7-2.79-5.64-3.73-.82-7.85-.63-11.01 1.73m249.19-1.28c-.85 4.28-4.26 7.26-8.48 8.04-5.51 9.48-6.29 21.49-2.43 31.71 2.16 5.54 6.36 11.06 12.51 12.24 5.88 1.14 11.42-2.66 14.59-7.33 5.72-8.38 7.03-19.3 4.75-29.06-1.59-6.33-5.1-12.91-11.36-15.63-3.04-1.42-6.48-.92-9.58.03zM332.33 219.55c4.39-1.17 10.81-1.88 13.52 2.69 2.99 8.1-5.98 18.45-14.51 15.42-7.36-2.94-7.05-16.15.99-18.11zM357.21 219.29c3.53-.99 7.41-.7 10.82.61 7.99 2.85 6.79 17.51-1.99 18.23-6.8.78-12.56-5.73-13.1-12.12-.4-2.92 1.38-5.95 4.27-6.72zM282.98 339.86c4.18-2.44 9.34-3.28 14-1.82 9.46 2.96 18.58 6.97 28.14 9.62 5.55 1.55 11.4.72 16.73-1.24-4.42 6.77-12.26 11.06-20.42 10.38 1.64 1.39 3.2 2.88 4.7 4.43-14.25-.18-28.5-.39-42.75-.85 6.52-5.38 15.35-6.46 23.48-7.03-5.35-1.54-10.5-3.89-16.03-4.77-8.91-1.11-17.92 2.77-23.9 9.34 4.05-6.98 8.9-13.96 16.05-18.06zM403.97 338.18c4.95-1.71 10.51-.77 14.91 1.95 6.87 4.15 11.61 10.91 15.51 17.77-5.64-6.21-13.93-9.98-22.37-9.47-6.08.57-11.66 3.25-17.47 4.92 8.14.57 16.94 1.66 23.47 7.03-14.26.47-28.52.66-42.77.86 1.5-1.54 3.06-3.01 4.68-4.43-8.12.61-16.03-3.57-20.32-10.42 6.69 2.81 14.29 2.62 21-.01 7.85-2.55 15.5-5.69 23.36-8.2zM310.04 429.11c8.39-1.47 17.17-1.07 25.26 1.72 4.9 1.32 9.64 3.68 14.77 3.9 7.15-1.22 13.77-4.52 20.92-5.77 12.44-2.09 25.36.66 36.4 6.58 7.68 3.96 14.2 10.4 17.6 18.4 2.98 6.82 3.72 14.33 3.99 21.7-3-7.19-7.18-13.83-12.19-19.78 5.32 11.02 10.69 22.64 10.62 35.13.14 13.05 1.22 26.37 5.9 38.66 3.04 8.43 8.86 15.55 15.88 21.02-9.11-1.76-18.26-5.14-24.99-11.76-11.51-11.03-15.91-27.15-17.81-42.49.22 11.26 1.1 22.56 3.72 33.55-11.97-17.43-15.05-39.3-15.22-60-.25-4.36-.99-9.4-4.76-12.18-3.78-2.65-8.65-2.69-13.09-2.75-19.03.03-38.05-.03-57.08.03-5.07.06-11.3.93-13.84 5.98-3.07 6.53-1.64 13.98-2.38 20.94-1.4 16.73-5.09 33.97-14.81 47.97 2.61-10.98 3.5-22.26 3.7-33.52-1.85 14.65-5.87 29.9-16.27 40.91-6.85 7.54-16.69 11.46-26.52 13.31 4.96-4.03 9.57-8.63 12.68-14.27 6.06-10.82 7.93-23.37 8.78-35.58.53-6.3-.13-12.68 1.15-18.91 1.83-9.14 5.71-17.69 9.76-26.02-5.02 5.95-9.13 12.64-12.22 19.79.39-9.76 1.79-20.03 7.66-28.15 7.48-10.49 20.09-15.98 32.39-18.41zM320.58 472.8c11.27 3.02 22.99 1.7 34.49 1.98 7.71.18 15.5.02 22.99-2.01-7.67 3.97-14.89 9.77-18.31 17.91-2.81 6.63-4.13 14.66-.69 21.32 2.61 5.05 8.38 7.54 13.85 7.81 8.03.43 16.07-1.53 23.35-4.86 2.14 5.62 4.79 11.05 7.95 16.17-18.17 19.81-36.46 39.5-54.74 59.21-18.33-19.59-36.76-39.08-54.83-58.91 3.2-5.16 5.87-10.63 8.07-16.29 7.31 3.27 15.38 5.18 23.41 4.64 5.44-.34 11.14-2.99 13.59-8.1 3.17-6.51 1.92-14.24-.75-20.7-3.38-8.26-10.63-14.17-18.38-18.17z"/></g></svg>