<svg width="700pt" height="700pt" viewBox="0 0 700 700" xmlns="http://www.w3.org/2000/svg"><path d="M186.41 114.41c7.84-4.24 18.38-2.82 24.7 3.5 48.48 48.39 96.8 96.94 145.36 145.24 21.44-21.56 43-43.01 64.49-64.54-1.18-6.24.36-13.13 5.04-17.63 15.83-15.82 31.66-31.66 47.49-47.49 4.27-4.33 10.61-5.81 16.52-5.2 2.82-2.59 5.26-5.69 8.67-7.57 9.95-5.72 23.61-3.18 30.73 5.87 15.81 15.85 31.68 31.65 47.48 47.51 6.47 6.48 8.31 17 4.42 25.29-1.74 4.23-5.28 7.23-8.29 10.52 1.64 6.63-.37 13.98-5.18 18.83-14.83 14.87-29.71 29.68-44.53 44.57-4.63 5.16-11.49 8.69-18.56 7.76-21.95 21.75-43.83 43.58-65.72 65.4 48.12 48.04 96.19 96.15 144.27 144.24 7.52 7.23 7.62 20.4.21 27.74-21.46 21.56-43.04 43.01-64.49 64.58-6.74 7.44-19.89 8.2-27.13 1.11-48.47-48.52-96.99-96.99-145.47-145.5-33.38 33.19-66.7 66.43-100.09 99.61-6.81 6.69-17.67 8.94-26.44 5-4.32-1.71-7.5-5.2-10.68-8.43-15.5-15.53-31.05-30.99-46.52-46.55-8.3-8.34-8.28-23.12.07-31.42 33.49-33.6 67.11-67.09 100.61-100.68-48.63-48.89-97.36-97.68-145.97-146.58-6.87-6.53-7.99-18.52-1.53-25.68 20.99-21 42-41.99 62.99-63 2.36-2.32 4.57-4.92 7.55-6.5m7.87 15.73c-21.67 21.64-43.36 43.27-64.96 64.98 4.92 6.19 10.98 11.44 16.55 17.06 12.64-12.79 25.42-25.44 38.11-38.18 2.98-3.42 8.59-3.93 12.03-.92 4.04 2.96 4.71 9.41 1.08 12.97-12.84 13-25.86 25.83-38.73 38.81 3.14 3.09 6.12 6.35 9.41 9.28 6.24-6.56 12.81-12.82 19.15-19.29 1.96-1.99 4.02-4.27 6.95-4.65 5.2-1 10.44 3.59 10.43 8.81.09 2.71-1.37 5.15-3.27 6.96-6.95 6.93-13.89 13.88-20.83 20.83 3.19 3.2 6.36 6.42 9.59 9.59 7.27-7.23 14.46-14.55 21.77-21.73 2.98-2.97 8.11-3.16 11.34-.48 4.04 2.89 4.87 9.3 1.32 12.91-7.19 7.41-14.61 14.59-21.85 21.95 3.06 3.12 6.16 6.22 9.26 9.31 7.14-7.11 14.22-14.27 21.39-21.35 3.32-3.51 9.42-3.24 12.56.37 3.26 3.2 3.33 8.91.06 12.13-7.08 7.22-14.31 14.3-21.42 21.49 3.08 3.11 6.16 6.23 9.29 9.3 6.93-7 13.94-13.92 20.88-20.91 1.5-1.53 3.32-2.9 5.51-3.19 5.17-.97 10.38 3.58 10.4 8.78.1 2.71-1.35 5.18-3.26 7-7 6.97-13.99 13.97-20.97 20.96 3.18 3.21 6.36 6.43 9.57 9.61 12.95-12.94 25.88-25.89 38.83-38.82 2.93-3.29 8.35-3.8 11.77-.97 4.33 3 4.91 9.86.95 13.41-12.96 13.04-26 25.99-38.97 39.01 2.58 2.61 5.16 5.2 7.76 7.8 22.4-22.37 44.74-44.79 67.16-67.15-48.26-48.42-96.68-96.68-144.98-145.05-.91-1.17-2.77-2.15-3.88-.63m311.65 8.83c19.1 18.9 38 37.99 57.04 56.95 3.21-2.23 4.19-7.24.79-9.76-16.37-16.29-32.62-32.7-49.02-48.96-2.66-2.64-7.04-1.17-8.81 1.77m-67.31 54.66c11.19 11.17 22.36 22.36 33.55 33.54 16.08-16 32.11-32.06 48.13-48.12-11.13-11.24-22.27-22.46-33.51-33.59-16.1 16.01-32.16 32.07-48.17 48.17m91.08 1.21c-14.7 14.84-29.55 29.54-44.3 44.35l2.39 2.39 43.49-43.48c1.72-1.24-.86-2.34-1.58-3.26m-29.59 60.26c2.49 2.5 4.97 5.01 7.51 7.47 15.97-16 31.97-31.97 47.96-47.96-2.47-2.54-4.96-5.04-7.45-7.54-16.02 16-32.03 32.01-48.02 48.03m-133.01 21.97c-1.84 1.9-3.05 4.31-4.93 6.17-24.94 24.7-49.83 49.45-74.75 74.17-4.18 4.51-9.18 8.14-13.32 12.69-32.67 32.67-65.35 65.34-98.01 98.01-2.47 2.15-1.68 6.19.5 8.26 10.22 10.25 20.47 20.47 30.7 30.71 86.36-86.35 172.73-172.69 259.05-259.07-11.62-11.76-23.38-23.38-35.04-35.11-21.4 21.38-42.78 42.8-64.2 64.17m-146.89 242.91c2.01 1.94 3.82 4.1 6.01 5.86 2.3 1.68 5.69.89 7.41-1.27 84.85-84.91 169.76-169.77 254.63-254.67-3.08-3.11-6.15-6.21-9.28-9.26-86.28 86.42-172.52 172.88-258.77 259.34m138.89-93.88l6.28 6.28c13.04-12.99 26.02-26.04 39.06-39.02 3.17-3.46 9.06-3.53 12.34-.19 3.74 3.22 3.86 9.49.21 12.83l-38.72 39.26c3.08 3.11 6.21 6.18 9.27 9.31 7.41-7.2 14.59-14.65 21.99-21.86 3.14-3.21 8.71-3.19 11.9-.07 3.66 3.04 4.14 9.1.74 12.52-7.24 7.42-14.67 14.66-21.97 22.03 3.1 3.1 6.18 6.21 9.31 9.29 7.17-7.16 14.3-14.35 21.5-21.48 3.34-3.54 9.49-3.24 12.63.43 3.23 3.21 3.26 8.89-.01 12.08-7.12 7.25-14.37 14.37-21.53 21.59 3.09 3.1 6.19 6.18 9.27 9.28 7.4-7.29 14.65-14.72 22.07-21.98 3.21-3.18 8.84-3.02 11.98.21 3.52 3.09 3.86 9.01.53 12.37-7.18 7.47-14.49 14.81-21.71 22.26 3.12 3.12 6.23 6.24 9.36 9.34 6.96-6.98 13.95-13.93 20.9-20.92 1.71-1.8 3.92-3.3 6.49-3.36 5.16-.39 9.94 4.47 9.49 9.63-.13 2.48-1.57 4.63-3.31 6.31-7 6.97-13.99 13.96-20.97 20.95 3.09 3.1 6.19 6.21 9.3 9.29 12.15-12.16 24.33-24.3 36.46-36.48 2.54-2.87 6.01-5.79 10.16-4.76 6.55 1.04 9.94 10.06 4.97 14.81-12.93 13.07-26.01 26.01-38.98 39.05 4.97 4.95 9.89 9.96 14.9 14.88.8 1.11 2.33 1.15 3.15.01 21.34-21.27 42.62-42.6 63.92-63.91 1.17-.79 1.28-2.41.11-3.26-47.85-47.97-95.87-95.78-143.68-143.79-22.55 22.27-44.94 44.71-67.41 67.07zm-211.63 67.52c5.47-1.62 11.89-.28 15.97 3.81 13.5 13.52 27.02 27.02 40.52 40.53 3.47 3.49 4.32 8.83 3.33 13.5-1.51 8.59-8.97 15.22-17.2 17.33-20.66 5.46-41.31 10.98-61.97 16.43-2.03.65-4.62.57-5.77 2.71-5.98-.01-11.24-5.94-9.54-11.92 6.18-22.1 12.7-44.11 18.99-66.17 1.95-7.64 8.12-13.99 15.67-16.22m2.18 22.75c-4.86 16.6-9.77 33.19-14.63 49.8 17.38-4.57 34.75-9.19 52.13-13.77 1.37-.25 2.25-1.33 3.16-2.28-12.68-12.67-25.32-25.39-38.05-38.01-1.03 1.31-2.19 2.6-2.61 4.26z"/></svg>