<svg width="700pt" height="700pt" viewBox="0 0 700 700" xmlns="http://www.w3.org/2000/svg"><g><path d="M210.28 116.97c-.44-4.27 3.34-8.24 7.65-7.87 89.04-.03 178.08 0 267.13-.01 2.63.01 5.27-.16 7.9.19 2.83.52 5.09 3 5.53 5.83 3.41 19.06 6.74 38.14 10.1 57.21.96 3.8-1.66 8.07-5.57 8.69-4.43.43-8.88.06-13.31.18 0 25.86-.01 51.72 0 77.58 26.76.01 53.53-.04 80.29.02 3.92-.25 7.53 3.23 7.37 7.18.07 11.67.05 23.34.01 35.01.28 4.01-3.3 7.65-7.31 7.45-6.72.1-13.43-.02-20.15.03-.03 91.53 0 183.06-.02 274.59.43 4.33-3.49 8.25-7.81 7.84-128.04 0-256.09.02-384.13-.01-3.53.21-7.04-2.48-7.43-6.05-.26-2.6-.12-5.22-.13-7.82l.01-268.54c-6.8-.07-13.59.05-20.38-.04-4.07.27-7.75-3.4-7.45-7.47-.03-11.62-.05-23.24.01-34.86-.24-4.01 3.43-7.58 7.42-7.31 26.75-.06 53.51-.01 80.26-.02.02-47.27 0-94.54.01-141.8m14.39 6.53c-.02 83.03.06 166.06-.04 249.09 27.86.18 55.73-.03 83.59.1-1.8-2.25-3.3-4.72-4.5-7.34-19.55.01-39.1.02-58.65 0-3.2.24-6.4-1.75-7.42-4.82-1.65-4.22 1.69-9.44 6.27-9.49 19.99-.18 39.99 0 59.99-.09 1.93-4.37 5.19-7.98 9.25-10.49-23.05.08-46.11.12-69.16-.01-5.63.03-8.86-7.46-5.18-11.62 2.35-3.24 6.67-2.74 10.17-2.73 67.35.04 134.7.01 202.05.02 4.01-.44 7.95 2.83 7.99 6.92.3 4.29-3.77 7.94-8 7.48-39.44-.04-78.89.06-118.34-.05 5.58 3.32 9.89 9 10.55 15.58.86 6.07-1.56 12.11-5.53 16.64 45.86-.09 91.73.01 137.59-.05-.01-83.05-.01-166.1 0-249.14-83.54-.02-167.09-.02-250.63 0m265.03 43.28c1.09 0 2.19.02 3.29.04-1.07-6.1-2.09-12.21-3.25-18.28-.08 6.08-.01 12.16-.04 18.24m-352.72 106.38c-.01 6.96-.01 13.92 0 20.88 24.43 0 48.86.01 73.3 0v-3.22c-16.76-.01-33.52-.01-50.28.01-2.36.09-4.91-.44-6.53-2.3-2.82-2.84-2.5-7.98.65-10.45 1.84-1.71 4.46-1.72 6.82-1.7 16.44.05 32.89.02 49.34.02 0-.81 0-2.43-.01-3.24-24.43 0-48.86-.01-73.29 0m352.73 0c-.01 6.96-.01 13.92 0 20.88 24.43.01 48.87 0 73.3 0v-3.24c-18.03-.02-36.05.02-54.08-.01-3.88.32-7.6-2.88-7.69-6.8-.37-4.21 3.54-7.98 7.72-7.58l54.05-.01v-3.24c-24.43-.01-48.87 0-73.3 0m-324.99 35.42c.23 89.3.03 178.61.1 267.91 123.56.02 247.11 0 370.67.01.02-89.35.01-178.69 0-268.04-15.26 0-30.52-.02-45.79.01.01 21.39.01 42.78 0 64.16 4.11.11 8.23-.15 12.34.12 3.61.22 6.52 3.69 6.37 7.26-.02 3.45-2.88 6.7-6.37 6.94-4.11.27-8.22.01-12.33.1-.04 9.01.05 18.01-.03 27.02.19 4.09-3.62 7.64-7.69 7.3-87.99.01-175.98.01-263.97 0-4.12.36-7.97-3.24-7.72-7.39-.07-8.98.01-17.95-.02-26.93-4.97-.25-10.05.54-14.94-.47-5.99-1.94-6.09-11.41-.1-13.43 4.92-1.08 10.05-.22 15.05-.52-.02-21.39-.01-42.78-.01-64.16-15.19.05-30.38-.18-45.56.11m155.46 44.51c-3.92 1.85-4.31 7.92-.67 10.27 3.52 2.74 9.23.06 9.47-4.35.64-4.55-4.83-8.25-8.8-5.92m-95.5 33.98c-.01 6.63-.01 13.27 0 19.91 83.53.01 167.07.01 250.61 0v-19.92c-48.37 0-96.75 0-145.12.01-.25 4.52.61 9.2-.57 13.61-2.11 5.69-11.11 5.72-13.24.04-1.21-4.43-.32-9.12-.58-13.65-30.37-.01-60.74-.01-91.1 0zM242.38 147.49c18.86-.7 37.8-.12 56.69-.29 4.21-.34 8.04 3.59 7.55 7.79-.23 3.81-3.84 6.85-7.61 6.6-18 .01-36 .01-54 0-3.23.22-6.45-1.85-7.4-4.97-1.31-3.69 1-8.11 4.77-9.13zM243.21 173.18c69.25-.33 138.53-.04 207.78-.14 4.05-.46 8.03 2.84 8.04 6.97.26 4.3-3.83 7.92-8.06 7.43-68.64-.01-137.27.01-205.91-.01-3.46.28-6.88-2.12-7.61-5.54-1.03-3.85 1.79-8.21 5.76-8.71zM242.18 199.27c1.27-.29 2.56-.41 3.87-.38 51.65.05 103.3-.01 154.95.03 4-.37 7.78 3.09 7.71 7.11.13 4.08-3.67 7.62-7.73 7.26-52.01.02-104.01.01-156.02 0-3.38.24-6.7-2.1-7.48-5.41-.99-3.54 1.21-7.53 4.7-8.61zM241.36 225.44c1.44-.72 3.08-.65 4.65-.71 37.69.06 75.38-.03 113.07.04 3.97-.25 7.56 3.32 7.39 7.28.04 3.9-3.53 7.31-7.44 7.07-38.01.05-76.03.02-114.05.01-3.18.22-6.33-1.79-7.33-4.84-1.23-3.34.47-7.39 3.71-8.85zM242.45 276.69c2.82-.52 5.7-.25 8.55-.29l149.01.01c4.13-.31 7.9 3.46 7.55 7.61-.11 3.84-3.7 7.02-7.52 6.78-51.71.03-103.42.02-155.13 0-3.54.25-6.98-2.38-7.54-5.9-.72-3.52 1.63-7.29 5.08-8.21zM242.38 301.57c1.18-.24 2.38-.35 3.59-.32 58.33.03 116.66.02 174.98 0 3.33.15 7.25-.7 9.98 1.75 3.3 2.67 3.29 8.24-.01 10.91-2.73 2.45-6.63 1.61-9.96 1.76-57.32-.02-114.64-.03-171.96.01-3.45-.02-7.67.51-10.06-2.59-3.35-3.68-1.38-10.29 3.44-11.52zM192.48 438.66c10.4-2.29 21.61 5.03 23.77 15.43 1.93 7.82-1.39 16.55-7.97 21.17-6.41 4.75-15.66 5.12-22.44.92-6.57-3.89-10.58-11.67-9.8-19.29.64-8.84 7.73-16.66 16.44-18.23m.88 14.83c-4.16 2.13-3.87 8.85.45 10.63 4.01 2.15 9.29-1.67 8.54-6.16-.34-4.13-5.48-6.71-8.99-4.47zM236.46 438.64c9.98-2.12 20.74 4.5 23.4 14.33 2.51 8.07-.76 17.44-7.66 22.28-6.6 4.89-16.19 5.14-23.02.58-6.56-4.16-10.31-12.26-9.13-19.94 1.04-8.48 8.01-15.76 16.41-17.25m.88 14.79c-3.97 1.98-4.07 8.29-.17 10.41 3.62 2.41 9.01-.46 9.11-4.79.48-4.54-5.05-8.03-8.94-5.62zM280.45 438.62c9.72-2 20.16 4.25 23.08 13.72 2.72 7.93-.14 17.31-6.78 22.4-6.21 5.02-15.45 5.78-22.4 1.85-7.28-3.88-11.67-12.47-10.42-20.65 1.03-8.54 8.06-15.86 16.52-17.32m.9 14.75c-4.11 1.91-4.26 8.38-.25 10.5 3.64 2.38 9.01-.55 9.05-4.89.41-4.44-4.93-7.89-8.8-5.61zM324.47 438.6c7-1.3 14.55 1.4 19.11 6.87 5.33 6.1 6.4 15.45 2.59 22.59-3.82 7.64-12.76 12.23-21.19 10.82-9.61-1.29-17.41-10.2-17.35-19.9-.33-9.72 7.26-18.85 16.84-20.38m.83 14.74c-4.18 1.89-4.34 8.47-.24 10.56 3.64 2.33 8.96-.6 9-4.91.42-4.42-4.88-7.88-8.76-5.65zM368.38 438.59c7.24-1.34 15.04 1.64 19.55 7.46 4.93 6.06 5.82 15.06 2.15 21.97-3.91 7.87-13.27 12.49-21.9 10.75-9.32-1.59-16.73-10.36-16.66-19.83-.31-9.71 7.28-18.83 16.86-20.35m.84 14.73c-3.94 1.78-4.44 7.83-.83 10.22 3.58 2.9 9.53.03 9.56-4.55.4-4.41-4.86-7.86-8.73-5.67zM413.33 438.43c6.7-.86 13.71 1.87 18.04 7.06 3.9 4.51 5.63 10.78 4.58 16.65-1.14 7.08-6.36 13.32-13.12 15.72-6.71 2.54-14.71 1.13-20.14-3.56-5.81-4.79-8.52-12.95-6.72-20.26 1.79-8.15 9.07-14.68 17.36-15.61m-.07 14.82c-4.08 1.7-4.62 7.95-.91 10.34 3.59 2.83 9.46-.06 9.49-4.61.38-4.33-4.71-7.78-8.58-5.73zM456.43 438.55c6.71-1.14 13.89 1.37 18.4 6.47 4.16 4.53 6.05 11 4.99 17.07-1.15 7.32-6.66 13.72-13.72 15.99-7.22 2.47-15.72.39-20.99-5.13-5.11-5.11-7.1-13.05-5-19.96 2.07-7.42 8.71-13.27 16.32-14.44m.74 14.68c-4.16 1.7-4.66 8.09-.83 10.44 3.59 2.69 9.27-.15 9.37-4.6.46-4.35-4.64-7.88-8.54-5.84zM499.42 438.71c6.07-1.29 12.69.37 17.39 4.44 5.16 4.32 7.92 11.29 7.06 17.97-.8 7.39-6.04 14.06-12.99 16.64-6.76 2.66-14.87 1.3-20.38-3.42-6.1-4.98-8.78-13.67-6.53-21.22 1.95-7.18 8.16-12.93 15.45-14.41m1.7 14.5c-3.97 1.6-4.78 7.55-1.33 10.12 3.2 2.89 8.94.9 9.68-3.36 1.25-4.59-4.12-8.95-8.35-6.76zM213.43 478.49c7.11-1.82 15.07.59 19.96 6.06 4.74 5.1 6.53 12.71 4.55 19.38-1.8 6.41-6.93 11.74-13.27 13.77-6.59 2.23-14.28.72-19.54-3.84-5.43-4.52-8.17-11.98-6.94-18.94 1.23-7.86 7.51-14.59 15.24-16.43m3.01 14.1c-4.27 1.21-5.59 7.36-2.14 10.17 3.05 3 8.8 1.35 9.8-2.8 1.49-4.4-3.34-9.03-7.66-7.37zM257.36 478.47c6.2-1.53 13.07.04 17.94 4.19 5.29 4.35 8.11 11.49 7.15 18.29-.8 6.59-5.09 12.6-11.02 15.57-6.67 3.46-15.23 2.77-21.24-1.73-6.18-4.4-9.48-12.44-8.11-19.91 1.24-7.87 7.54-14.59 15.28-16.41m3.11 14.08c-4.08 1.06-5.71 6.71-2.75 9.74 2.85 3.54 9.21 2.1 10.27-2.32 1.49-4.35-3.22-8.95-7.52-7.42zM301.34 478.45c5.99-1.45 12.61-.02 17.42 3.86 5.55 4.32 8.57 11.65 7.58 18.62-.79 6.56-5.03 12.53-10.9 15.52-6.66 3.52-15.26 2.88-21.3-1.62-6.19-4.39-9.51-12.42-8.16-19.89 1.21-7.92 7.57-14.69 15.36-16.49m3.13 14.06c-4.18 1-5.84 6.82-2.79 9.86 2.9 3.47 9.18 1.96 10.22-2.43 1.44-4.3-3.15-8.85-7.43-7.43zM346.16 478.25c6.21-1.21 12.92.67 17.57 4.97 5.16 4.63 7.67 12 6.32 18.82-1.17 6.64-5.92 12.49-12.14 15.08-6.61 2.85-14.71 1.81-20.37-2.66-5.86-4.43-8.96-12.2-7.68-19.45 1.23-8.27 8.08-15.28 16.3-16.76m2.25 14.25c-4.22.96-5.91 6.82-2.83 9.88 2.89 3.45 9.13 1.95 10.2-2.4 1.46-4.29-3.08-8.87-7.37-7.48zM388.43 478.63c6.9-1.96 14.74.07 19.79 5.18 5.76 5.55 7.67 14.63 4.61 22.04-3.21 8.43-12.49 13.96-21.44 12.72-9.35-.99-17.25-9.18-17.86-18.57-.99-9.5 5.69-18.96 14.9-21.37m3.98 13.84c-4.35.88-6.11 6.93-2.88 9.99 2.94 3.37 9.1 1.82 10.12-2.52 1.41-4.22-2.99-8.75-7.24-7.47zM432.44 478.6c9.53-2.8 20.45 2.58 24.12 11.78 3.2 7.3 1.5 16.36-4.07 22.05-5.12 5.44-13.35 7.66-20.49 5.45-8.6-2.38-14.96-10.97-14.64-19.9-.03-8.88 6.51-17.18 15.08-19.38m3.94 13.85c-4.41.84-6.2 6.99-2.91 10.06 2.98 3.33 9.11 1.71 10.1-2.63 1.34-4.18-2.98-8.64-7.19-7.43zM476.37 478.58c5.99-1.62 12.68-.34 17.59 3.46 5.53 4.12 8.69 11.17 8.02 18.04-.54 7-5.03 13.49-11.34 16.55-6.28 3.15-14.18 2.69-20.05-1.17-6.16-3.92-9.9-11.3-9.29-18.59.46-8.49 6.85-16.17 15.07-18.29m3.12 14.11c-4.23 1.43-5.2 7.72-1.56 10.33 3.21 2.78 8.8.78 9.58-3.38 1.23-4.44-3.78-8.84-8.02-6.95zM256.42 525.63c7.37-2.24 15.87.14 20.95 5.94 5.4 5.84 6.81 14.94 3.4 22.14-3.6 8.14-12.93 13.21-21.72 11.66-9.04-1.25-16.54-9.26-17.18-18.37-1.03-9.41 5.47-18.83 14.55-21.37m3.91 13.87c-4.32 1.2-5.59 7.46-2.07 10.24 3.04 2.89 8.67 1.26 9.7-2.8 1.58-4.42-3.26-9.14-7.63-7.44zM300.4 525.61c3.44-1.01 7.06-.8 10.6-.81l83.01.02c6.97-.05 13.75 3.85 17.31 9.82 3.48 5.63 3.91 12.99 1.14 19-3.16 7.11-10.65 12.02-18.44 11.97-29.33.03-58.67.02-88 .01-10.23.19-19.6-8.43-20.24-18.64-1.03-9.43 5.51-18.86 14.62-21.37m3.99 13.85c-3.37.87-5.28 5-3.79 8.15 1.02 2.52 3.79 3.82 6.42 3.61 28.64 0 57.28-.01 85.92 0 3.59.47 7.17-2.51 6.95-6.2-.02-3.51-3.43-6.23-6.85-5.82-29.54.18-59.14-.34-88.65.26zM432.34 525.53c10.18-3.08 21.88 3.32 24.87 13.49 2.56 7.69-.09 16.73-6.36 21.84-6.04 5.2-15.21 6.25-22.28 2.57-7.16-3.52-11.81-11.54-11.17-19.52.4-8.49 6.74-16.21 14.94-18.38m3.09 14.13c-4.1 1.53-4.96 7.67-1.41 10.25 3.37 2.96 9.26.57 9.7-3.86.83-4.41-4.22-8.34-8.29-6.39z"/></g></svg>