<svg width="700pt" height="700pt" viewBox="0 0 700 700" xmlns="http://www.w3.org/2000/svg"><path d="M318.07 146.26c13.86-4.12 28.62-4.86 42.95-3.26 6.83.71 14.34 3.36 17.47 10 10.71-2.03 21.78-3.43 32.56-.99 7.77-3.68 16.58-3.29 24.96-3.4 17.3.18 35.54 3.98 49.16 15.27 7.35-3.85 15.2.79 21.68 4.29 12.31 7.56 24.65 16.34 32.16 28.99 6.03.75 11.01 4.49 15.32 8.51 8.3 7.84 15.19 17.02 21.74 26.33 5.13 7.48 9.94 15.26 13.47 23.64 1.72 3.92 2.19 8.44 5.07 11.79 9.22 11.82 16.23 25.58 18.91 40.41 1.28 7.49 1.74 15.3-.25 22.71 7.59 11.23 8.39 25.47 7.32 38.58-1.01 9.77-2.81 19.92-8.32 28.26-2.14 3.35-5.48 5.71-9.22 6.96-1.71 13.85-8.94 26.34-17.91 36.76-7.38 8.64-16.09 16.04-25.1 22.91-6.75 5.16-14.63 8.52-22.67 11.09-5.92 12.05-15.22 22.12-25.45 30.67-12.56 10.27-27.78 18.35-44.28 18.99-1.47 1.82-3.01 3.6-4.86 5.04-5.89 4.54-11.7 9.29-18.35 12.7-11.53 6.02-24.41 9.78-37.46 9.97-5.01.13-9.95-1.36-14.08-4.18-12.97 7.3-28.15 10.08-42.93 9.28-10.84-.64-21.37-4.76-29.85-11.53-4.9 3.19-11.18 2.72-16.16-.03-10.57-5.57-18.43-15.39-23.52-26.03-23.15 13.52-54.03 11.95-75.81-3.64-3.81-2.69-6.85-6.54-7.74-11.2-10.81-3.98-18.77-12.89-25.46-21.9-2.56 1.62-5.23 3.34-8.32 3.66-4.31.69-8.37-1.27-12.13-3.1-3.67 2.61-8.24 4.02-12.71 2.84-11.34-2.53-20.45-10.5-28.4-18.57-11.37-12.09-21.43-26.99-22.46-44.04-.59-4.74 1.35-9.27 4.16-12.98-6.2-8.38-10.56-18.44-10.57-29-.27-8.14 2.01-16.31 6.61-23.05-2.29-4.34-4.33-9-4.51-13.97-.49-21.84 9.48-43.59 26.27-57.55-2.5-5.49-2.51-11.89-.22-17.45 3.99-9.9 10.55-18.53 17.52-26.51 9.92-10.47 20.71-20.87 34.61-25.75.08-4.38 1.71-8.59 4.51-11.94 6.16-7.58 14.01-13.55 21.97-19.1 15.94-10.7 33.96-19.24 53.27-21.07 3.79-.5 7.61-.04 11.22 1.17 3.11-8.58 12.56-11.8 20.52-14.2 11.36-2.87 23.7-4.79 35.07-.98 2.95-2.56 6.48-4.35 10.24-5.4m7.48 10.1c-3.23.91-6.64 1.77-9.3 3.92-1.18.77-1.7 2.87.04 3.32 4.1 1.37 8.58.22 12.74 1.39 3.22.7 6.04 2.46 8.54 4.54-4.43-1.12-9.05-1.03-13.48.06-5.87 1.06-9.83 6.19-15.5 7.81-4.97 1.74-10.06-.5-14.51-2.61 6.02-1.07 12.99-1.82 17.26-6.71-6.21-7.95-17.35-7.56-26.34-6.1-7.68 1.4-15.9 2.97-22.08 8.08 6.44 3.41 14.4 5.21 18.41 11.91-6.3-2.98-13.28-4.07-20.21-3.93-7.76 7.86-18.59 11.04-28.75 14.47-6.8 2.2-12.64 6.5-17.5 11.66 3.96-10.67 14.66-16.46 24.53-20.7 3.56-1.71 7.66-2.45 10.68-5.12-12.28-1.24-24.49 2.31-35.67 7.13-13 5.83-25.21 13.6-35.69 23.28-2.36 2.45-5.32 4.8-6.13 8.27 2.22 3.67 7.47 3.55 11.17 2.71 5.15-1.44 6.85-6.9 8.81-11.23.69 2.98 1.76 6.12.99 9.2-1.79 5.16-7.17 8.59-12.6 8.36-14.31-.02-27.73 7.13-37.48 17.29-8.79 7.75-16.35 16.93-21.93 27.25-1.86 3.4-3.39 7.46-1.7 11.27 6.74-5.61 11.6-13.94 20.21-17.01 4.07-1.74 7.49 2.44 8.05 6.1 1.31 4.42-.77 8.68-2.53 12.62-1.7 3.65-1.51 7.76-1.46 11.69-1.63-2.88-3.13-5.9-3.74-9.18-1.13-4.58 1.62-9 .91-13.6-2.14 1.01-4.03 2.45-5.66 4.16-8.14 8.2-15.54 17.12-24.11 24.9-10.81 11.92-16.17 28.38-15.67 44.37.27 2.57.22 6.32 3.17 7.36 3.55-2.27 4.85-6.62 5.86-10.48 1.78 3.65 3.43 8.01 1.9 12.02-1.87 3.91-5.59 6.41-8.28 9.69-5.95 6.56-6.97 16.19-4.97 24.53 2.9 11.91 12 20.72 20.32 29.13 6.04 6.27 12.97 12.89 14.38 21.9.74 3.21-.66 6.28-1.77 9.22-.51-3.58-1.2-7.28-3.36-10.28-3.8-5.5-9.36-9.48-13.32-14.87-2.29-2.51-4.12-6.31-7.84-6.73-2.97 1.79-1.87 5.88-1.75 8.75 2.1 14.31 10.85 26.72 20.92 36.69 5.76 5.29 12.08 10.83 19.94 12.45 2.53.83 4.58-2.04 4.21-4.34-.65-4.01-2.66-7.88-1.89-12.05.43-4.21 3.37-7.63 6.87-9.77-2.18 5.01-4.35 11.02-1.58 16.24 2.43 4.45 6.41 8.39 11.34 9.87 4.48 1.16 7.13-4.52 6.31-8.21-1.49-5.22-4.69-9.77-6.16-15.02-1.77-5.55-1.96-11.71-5.41-16.62-4.4-7.27-13.82-11.24-22-8.55 2.58-2.66 5.42-5.6 9.32-6.04 4.22-.95 7.82 1.84 11.41 3.52 1.03.62 2.57.72 3.04-.63 1.45-4.59-.6-10.05-4.88-12.36-5.65-3.4-12.5-1.6-18.61-3.26-8.47-1.72-15.82-7.66-19.51-15.45-5.5-11.1-4.68-24.14-1.71-35.83 2.63-10.3 8.45-19.3 13.69-28.4 2.89-5.3 5.54-11.23 4.83-17.4-.28-3.62-4.61-6.96-7.89-4.39-4.8 3.72-5.03 10.28-6.03 15.77-1.39-4.96-2.61-10.46-.47-15.39 1.62-4.26 5.03-8.89 10.07-8.75 3.7.48 6.48 3.57 8.17 6.71 2.67 4.97 1.84 10.91.25 16.09-2.79 8.76-7.61 16.66-11.33 25.03-4.56 9.94-7.83 20.81-7.13 31.86.43 6.98 3.24 13.97 8.48 18.72 5.78 5.32 13.92 7.42 21.63 7.08 3.51-.08 6.85-2.18 8.33-5.37 2.52-5.14 2.83-10.96 3.88-16.5 1.94-12.73 7.38-24.52 11.08-36.77 2.09-6.17.6-12.91 2.79-19.07 1.25-4.11 4.56-7.49 4.79-11.93.51-5.63-4.23-10.43-2.95-16.12.77-7.03 5.57-13.43 12.39-15.57-3.25 4.78-7.14 10.17-5.99 16.29.38 2.28 3.47 3.61 5.29 2.1 3.95-3.1 6.92-7.21 10.41-10.77 4.04-4.61 8.9-8.98 10.57-15.1-2.11-2.78-4.48-5.46-5.71-8.77-.72-1.67-1.13-3.5-2.23-4.96-2.03-1.92-4.49.19-6.44 1.11-12.05 7.08-23.84 15.41-32.12 26.86-4.77 6.45-7.18 15.44-3.31 22.92 3.41 6.68 6.79 14.2 4.73 21.86-1.79 6.74-8.48 10.01-13.05 14.63-5.91 5.63-7.72 14.73-5.58 22.44 1.33 5.28 7.72 7 8.89 12.32-3.44-1.28-6.97-3.07-10.75-2.68-4.65.96-8.07 4.58-10.8 8.24.22-4.34 1.51-8.74 5.01-11.58 2.73-2.01 2.94-5.53 1.9-8.51-3.14-9.4-.15-20.71 7.66-26.95 3.45-3.15 8.2-5.18 10.34-9.55 1.75-4.94-.78-10.04-3.14-14.32-3.61-5.92-5.86-13.07-4.12-20 2.15-9.68 11-15.82 14.23-24.99 1.52-4.06.62-8.62 2.34-12.62 1.17-2.88 3.18-5.36 3.99-8.38.45-2.56-1.58-5.8-4.44-5.28-6.29 1.02-11.73 4.65-16.81 8.29 5-9.48 14.87-16.39 25.72-16.72 6.13-.56 11.68 3.13 15.41 7.7-3.57-.66-8.1-2.85-11.1.27-3.84 4.33-5.64 10.17-6.61 15.77-.32 2.16 2.62 2.94 4.2 2.2 2.65-1.21 4.75-3.28 7.11-4.93 5.74-4.3 12.38-7.2 19.15-9.46.02-9.12 3.96-17.94 10.49-24.27 7.8-8.39 19.14-13.01 25.53-22.76-.49 9.48-8.84 15.35-15.14 21.28-7.96 6.9-14.88 16.09-15.44 26.99-.72 4.11.55 8.66 4.37 10.8 3.7-3.27 6.71-7.21 10.24-10.65 3.95-4.06 8.45-7.61 12.05-12 1.5-1.5.55-4.46-1.19-5.33-4.26.22-7.89 2.75-11.16 5.24 1.36-2.88 2.81-5.9 5.45-7.84 4.47-3.66 10.41-4.51 15.99-4.79 4.59-6.17 10.6-11.41 17.64-14.59 2.09-.75 3.06-2.87 4.4-4.47 3.83-5.16 9.33-8.61 14.15-12.72-9.87-2.65-18.49 4.85-25.75 10.48 2.26-7.49 8.78-12.96 16.03-15.39 8.98-3.02 18.78-2.7 27.92-.63 5.45-2.91 11.64-4.07 17.78-3.63 6.11-7.88 16.06-11.53 25.76-12.11 6.49-6.61 15.71-8.84 24.02-12.2 1.5-.8 4.43-1.83 3.33-4.02-2.64-2.23-6.29-2.43-9.56-2.89-10.84-.98-21.9-.59-32.49 2.02m91.49 5.61c1.64 2.58 2.09 6.35-.91 8.17-7.12 4.23-16.06 2.93-23.39 6.75.87-3.17 2.91-6.05 6.16-7.08 3.82-2 9.44-1.52 11.62-5.84-5.96-1.99-12.38-1.9-18.56-1.31-13.55 1.75-26.99 5.14-39.32 11.12 12.92.52 24.81 6.07 36.46 11.16 2.85 1.12 5.73 2.62 8.87 2.63 4.36-.97 8.06-3.65 12-5.63 8.62-4.62 18.18-8.78 28.17-7.85 8.1.96 14.45 6.47 21.03 10.74.97-1.73 1.96-3.68 1.34-5.72-1.07-4.45-4.86-7.39-7.94-10.46 3.58.2 7.19 1.44 9.56 4.25 5.31 6.05 6.06 14.45 9.43 21.5 1.16 2.47 3.35 5.08 6.37 4.79 4.02-.48 7.86-2.03 11.93-2.16 9.25-.41 18.69 3.63 24.42 10.98-8.31-3.07-17.31-5.55-26.22-4.24-2.48.32-6.23 2.04-5.04 5.15 2.43 6.34 7.48 11.46 9.15 18.13 1.34 5.82-4.68 10.66-2.62 16.51 2.3 7.25 8.62 12.1 12.68 18.31 6.07 8.24 8.38 19 6.22 29.01-.91 4.51-2.56 9.84 1.03 13.67 7.73 9.2 18 16.43 23.51 27.4 4.8 9.35 7.15 21.51 1.15 30.88-.3-11.74-4.38-23.23-11.38-32.64-9.88-13.34-23.6-23.65-38.67-30.45-2.29-.82-5.53-2.69-7.47-.25-2.28 2.97-.8 6.96 1.49 9.43 4.78 5.51 10.57 10.24 14.14 16.72 2.82 4.71 4.03 10.17 4.35 15.61-2.93-6.55-7.29-12.42-12.91-16.9-6.06-5.23-14-10-15.45-18.56-1.43-6.36 2.5-14.91 9.79-14.87 6.8-.39 11.27 6.61 18 6.35 2.45-.98 3.39-3.76 4.06-6.09 1.87-7.74-.36-15.74-3.27-22.91-2.07-4.68-4.4-9.48-8.27-12.94-1.19-1.06-3.48-2.2-4.51-.35-3.66 3.94-1.59 9.48-.65 14.03-3.8-3.57-6.17-8.73-5.81-13.99.48-7.65 4.38-14.49 6-21.88 1.16-5.05-1.32-9.89-3.4-14.33-5.92-11.41-14.18-21.77-24.58-29.39-7.5-5.37-16.83-9.35-26.21-7.79-6.36 1.28-12.57 3.41-18.37 6.33-2.31 1.29-4.91 2.6-6.17 5.05-.32 2.96 2.21 5.08 4.09 6.98 4.96 4.45 10.07 8.91 13.61 14.64 2.47 3.47 4.79 8.07 9.46 8.75 4.21.5 6.39-3.83 9.21-6.14 4.2-4.31 11.3-4.3 16.12-1.03-5.73 2.23-12.46 4.75-15.08 10.83-2 5.42 2.13 10.35 5.62 14.02 6.19 6.39 13.37 13.36 13.84 22.84.32 14.91-3.28 29.52-4.98 44.26-.56 5.04.2 10.21 2.22 14.87 4.58 10.41 13.39 18 21.48 25.65 7.16 6.81 14.92 13.71 18.67 23.11 2.54 6.29 2.7 14.64-3.13 19.19.68-4.68 3.08-9.87.26-14.28-3.03-5.1-7.15-9.43-11.18-13.72-6.13-6.27-12.49-12.36-19.42-17.74-1.15-.54-2.32-2.3-3.69-1.4-1.94 3.09-3.06 6.76-5.84 9.27-3.52 3.44-8.68 4.2-13.39 4.27 7.73-4.12 12.79-12.57 12.68-21.34-.29-5.35-3.5-9.87-4.82-14.94-2.64-9.23-1.48-18.99.55-28.2 1.2-5.03 2.09-11.06-1.89-15.14-8.56-9.11-21.92-12.19-29.74-22.19-2.65-3.16-3.72-7.21-4.52-11.16 7.47 9.01 17.24 15.86 27.73 20.93 2.04.95 4.11 1.9 6.34 2.33 2.7-.17 4.24-3.21 4.3-5.64-.1-4.28-2.53-8.03-5.14-11.24-5.68-6.75-12.92-11.92-20.03-17.05-5.98-3.98-7.23-11.84-12.37-16.6-.8-.69-2.35-1.67-3.24-.59-1.45 2.34-1.97 5.11-3.38 7.47-1.13 1.97-3.33 2.9-5.1 4.14 2.27-5.21 3.44-11.1 2.31-16.74-1.79-7.16-7.44-12.53-13.28-16.63-10.46-7.14-22.63-11.48-34.98-13.98-6.31-1.12-12.79-2.14-19.2-1.32-6.14 1.06-12.26 3.37-16.98 7.53-3.69 3.18-5.89 8.51-4.09 13.25 3.05 7.7 10.74 12.29 14.11 19.8 1.47 3.19.99 6.81.73 10.2-5.75-9.59-13.7-17.53-21.01-25.89-2.51-2.62-1.18-7.71-4.84-9.29-5.21-.4-10.14 2.08-14.92 3.86-4.94 2.19-10.24 4.6-13.11 9.45 5.64 4.25 15.1 3.93 17.77 11.62-7.03-3.23-15.03-5.07-22.67-3.05-10.74 2.74-20.53 8.87-28.19 16.81-2.03 2.48-4.97 5.41-4.2 8.89 2.95 2.79 8.24 2.6 9.76 7-6.19-2.77-13.7-2.86-19.31 1.3-9.66 6.8-16.95 17.7-18.19 29.58 12.7-7.07 26.36-13.66 41.21-13.86-1.15-3.13-2.63-6.42-1.88-9.82.78-4.36 4.14-7.68 7.73-9.98 8.58-5.46 18.76-7.3 28.15-10.87 1.65-.83 4.29-1.57 4.01-3.9-2.61-3.2-7.06-4.27-11.01-4.37-7.92.59-15.1 4.35-21.89 8.18 6.53-9.37 19-12.19 29.78-11.14 6.32.56 9.97 6.21 14.65 9.68 4.03 3.06 9.2 3.54 14.06 3.98-3.34 4.05-9.2 3.33-13.6 1.68-4.92-2.08-10.08.16-14.93 1.29-8.85 2.62-17.95 5.52-25.31 11.29-3.32 2.47-6.03 7.15-3.59 11.14 3.15 5.41 5.24 11.83 3.88 18.11-1.82 5.22-7.75 6.91-12.5 8.4-12.27 3.22-25.09 5.27-36.23 11.73 7.95-9.7 20.87-12.37 32.02-16.69 4.04-1.66 9.56-3.29 10.07-8.43-6.64-3.44-14.48-1.3-21.32.38-20.58 6.45-37.94 21.27-49.61 39.18-3.44 5.52-6.81 11.28-8.27 17.69-.64 2.09.29 4.09 1.61 5.69 8.11-5.42 14.84-12.68 23.19-17.77 10.46-6.99 23.58-11.35 36.09-7.9 7.12 2 15.48 3.53 21.91-1.17 6.46-4.23 8.41-12 11.44-18.57 1.5 4.4 2.23 9.26.86 13.79-.93 3.22-3.29 5.73-4.64 8.75 1.15 3.8 6.62 2.45 9.26.96 8.07-5.44 10.35-15.63 15.96-23.09 2.3-2.74 5.37-5.07 6.31-8.7 2.41-6.51.58-13.52 1.67-20.17 3.44-12.02 19.88-15.24 29.6-9.08-6.67.76-14.5.78-19.46 6.01-4 4.7.76 12.98 6.98 11.09 14.2-3.07 28.35-6.99 42.95-7.74 7.46-.28 14.99-4.02 18.66-10.71 2.67-4.9 4.73-11.5 1.23-16.51-5.15-7.32-13.83-10.75-20.34-16.6-4.25-3.82-6.77-9.06-10.26-13.5-2.5-3.3-5.59-6.08-8.46-9.05 2.72.45 5.52.9 7.95 2.3 9.13 5 12.98 16.1 22.52 20.53 6.39 3.21 12.56 7.68 15.9 14.16 2.51 4.67 2.2 10.25.87 15.23-.59 2.65-2.08 6.05.63 8.02 9.68 8.14 21.93 13.13 30.25 22.94 3.64 4.17 6.33 10.04 4.14 15.54-5.62-10.17-13.96-18.83-24-24.7-6.64-3.79-14.55-6.38-22.21-4.49-16.12 3.44-32.27 6.96-48.71 8.49-14.47 1.36-25.68 12.56-32.9 24.38 5.75.33 11.76-.25 17.15 2.2 11.96 4.88 21.67 18.23 17.9 31.47-2.48-8.54-7.27-16.5-14.14-22.22-4.48-3.71-10.2-6.28-16.12-5.96-4.61.38-8.44 3.46-11.4 6.8-5.21 6-8.6 14.38-6.23 22.32 3.03 11.84 13.87 19.32 18.4 30.37 2.3 5.29-.45 10.79-3.26 15.25-.41-3.92-.89-7.9-2.56-11.51-3.49-8.28-10.35-14.42-14.86-22.07-2.91-4.66-3.15-10.46-6.24-15.03-2.99-4.85-8.13-8.05-13.6-9.34-9.42-2.17-20.1-1.38-28.05 4.55-8.86 6.32-13.28 16.7-20.7 24.37-3.61 3.97-9.2 5.09-13.03 8.78-6.95 6.36-11.15 15.15-13.92 24.03-1.71 5.21-.72 10.73-1.11 16.1-3.44-3.52-2.97-8.92-3.08-13.46.16-13.93 8.7-26.05 18.68-35.05 3.97-3.99 9.23-6.82 11.96-11.91 4.3-7.09 10.59-12.67 17.02-17.79 1.06-.99 2.43-1.8 3.01-3.17-.71-1.17-1.74-1.72-3.09-1.63-11.62.16-22.36 5.97-30.95 13.43-11.65 10.2-20.43 23.37-26.73 37.44-4.47 10.31-7.88 21.33-7.9 32.66-.02 14.47 9.4 28.85 23.26 33.57 5.94 1.98 13.65 1.1 17.67-4.13 2.21-2.83.75-6.34-.05-9.39-2.11-6.97.5-14.45 4.61-20.15 5.59-8.08 14.09-13.28 21.24-19.77 6.39-7.74 6.29-18.49 6.11-28 3.26 3.14 6.5 7.09 6.23 11.91.29 3.09-.93 6.94 1.49 9.4 5.39-.91 9.32-5.99 14.98-6.32 4.41-.71 7.93 2.72 12.13 3.14 5.92-.78 9.66-5.98 12.94-10.43.82 5.56-.71 11.47-5.01 15.28 9.55 8.6 10.18 22.93 18.76 32.26 2.06 2.22 5.2 3.52 8.23 2.84 6.79-1.41 11.05-8.12 17.96-9.25 3.85-.88 7.07 1.95 9.96 3.99-4.19-1.51-8.79-.98-12.63 1.19-6.3 3.06-11.26 8.81-18.28 10.3-5.22.88-9.76-2.84-12.44-6.95-6.29-9.28-9.01-20.84-17.06-28.94-4.44-4.59-11.41-6.16-17.46-4.21-11.27 3.28-21.63 9.41-30.48 17.07-6.57 5.92-12.76 13.47-13.54 22.62-.61 5.6 2.15 11.03 6.24 14.71 8.66 7.91 20.22 11.53 29.27 18.88 4.38 3.48 7.94 8.72 7.5 14.54-.54 5.23-4.6 9.09-8.25 12.48 1.26-5.02 3.73-10.9.34-15.64-4.77-6.98-12.2-11.51-19.36-15.71-5.68-3.02-11.45-6.25-17.82-7.52-3.55.47-6.54 2.75-9.94 3.78-7.47 2.76-16.06 1.41-22.76-2.73-2.42-1.41-4.54-3.39-7.2-4.36-5.98 2.17-4.8 9.63-3.64 14.5 3.85 15.09 13.15 28.65 25.07 38.55 3.34 2.6 9.23 6.51 12.37 1.61-4.24-5.48-7.61-11.84-8.11-18.87-5.14-3.88-10.43-8.67-11.4-15.4 3.98 2.63 7.44 6.23 12.14 7.58 5.67 1.62 11.48-.46 17.08-1.39-2.91 3.31-6.89 5.44-9.75 8.77-2.45 2.94-1.22 7.1.07 10.28 4.15 9.23 13.18 15.37 22.59 18.36 15.45 4.78 33.16 2.72 46.58-6.53 10.68-7.27 19.08-18.92 19.91-32.11 1.8 1.73 3.84 3.59 4.23 6.22.29 3.01-.98 5.94-.71 8.95 1.44 2.16 4.35 1.79 6.59 1.66 5.91-.63 12.08-2.87 15.87-7.67 3.57-4.46 3.21-10.83 1.23-15.89-2.38-5.84-8.24-9.22-13.94-11.17-13.56-4.56-28.35-5.17-41.24-11.74-4.54-2.21-8.43-5.49-11.84-9.17-5.35-.57-10.7-2.76-13.84-7.33 6.32 2.72 14.19 2.8 19.87-1.43 3.9-2.91 4.81-8.03 4.81-12.59 1.61 2.21 3.49 4.48 3.74 7.33.55 4.15-1.2 8.07-1.86 12.09-.51 2.45 1.48 4.51 3.53 5.47 4.58 2.23 9.71 2.9 14.66 3.89 10.71 1.98 21.82 3.71 31.34 9.34 6.04 3.52 10.89 9.29 12.54 16.17 1.77 6.84 1.62 15.05-3.64 20.37-6.52 6.78-16.27 8.24-25.06 10 2.75 3.3 6.56 5.42 10.42 7.18 10.16 4.52 21.39 6.13 32.44 6.26 13.56.32 26.65-7.56 33.59-19.06 1.93-3.45 3.76-7.59 2.54-11.57-1.55-4.19-6.24-5.86-10.27-6.61-6.11-.96-13.39-1.51-18.26 3.07-3.65 3.22-4.12 8.32-4.33 12.87-3.87-5.09-3.36-12.48.82-17.23 5.11-6.46 14.13-7.32 21.75-6.37 6.1.44 11.75 2.89 17.55 4.59 3.94 1.18 7.91-.72 11.02-3.03 7.45-5.62 12.59-14.96 11.43-24.46-1.16-18.02-18.88-30.53-17.8-49.05.25-5.6 5.09-11.04 10.94-10.65 4.29-.12 8.1 2.13 11.14 4.96-3.26-.56-6.81-1.56-9.93.09-4.36 2.13-5.7 7.9-3.94 12.18 4.8 12.92 13.22 24.6 15.05 38.52.53 4.8 4.38 8.54 9.05 9.43 10.42 2.13 21.43 1.42 31.62-1.56 9.59-3.01 19.51-8.98 23.01-18.92 2.34-6.33-3.28-11.42-4.76-17.17-1.92-5.97-.22-12.17 1.45-17.97 1.66 8.63 3.72 17.92 10 24.46 3.07 3.33 8.14 3.58 12.02 1.59 13.67-6.2 22.37-20.65 23.42-35.39 1.48 1.99 3.42 3.92 3.74 6.5.12 3.81-1.42 7.68-.06 11.42 2.55-.72 5-1.79 7.17-3.32 14.09-9.49 25.06-23.49 30.93-39.43.05 6.88-1.56 13.73-4.46 19.96-5.62 12.11-15.89 21.41-27.25 28.09 3.51 1.9 7.54 3.87 9.11 7.82 1.32 3.85-.12 7.9-.7 11.77-3-7.43-8.79-15.59-17.63-15.65-7.24.66-11.9 6.99-17.69 10.62-4.9 3.49-11.15 3.99-16.32 6.87-4.32 3.74-7.13 8.92-9.64 13.98 5.66 3.68 12.89 6.17 15.8 12.83 3.2 6.66.65 14.61-4.84 19.2.82-4 2.25-8.04 1.76-12.17-1.81-4.79-6.24-7.99-10.43-10.61-3.17-1.69-7.31-3.95-10.68-1.5-10.66 6.73-23.71 7.4-35.96 7.27-5.93.17-12.04-.52-17.79 1.22-3.08.97-3.52 4.56-4.93 7.01-2.67 5.8-7.9 10.26-14.07 11.94-4.8 1.18-8.88 4.95-10.32 9.68-.64 4.02 2.92 7.41 6.51 8.47 5.21 1.41 10.79.5 15.79-1.29 8.86-3.3 15.56-10.24 22.01-16.87-4.65 13.32-17.55 22.65-31.12 25.29-6.88 1.54-14.24-.06-20.88 2.69-4.13 1.59-6.67 5.67-10.85 7.17-3.05 1.4-7.54 2.49-7.82 6.56.49 3.66 2.48 7.14 1.95 10.91-1.11 4.23-4.65 7.42-8.43 9.34-5.08 2.37-10.97.73-15.63-1.86 4.62-.44 9.69-.38 13.63-3.23 3.85-2.61 4.43-8.94.9-12.04-2.35-2.06-5.5-2.81-8.47-3.42-9.53-1.69-19.47-1.43-28.64-4.86-7.82-2.66-14.81-7.11-22.06-10.95-2.92-1.72-6.55 1.1-6.96 4.13-.5 3.95.33 7.96 1.44 11.74 3.14 9.67 9.28 18.37 17.25 24.67 2.34 1.55 4.99 3.73 7.98 3.14 1.66-3.61-2.42-6.38-3.41-9.62-2.46-4.38-.9-9.46 1.82-13.29 4.07 11.19 11.15 21.86 21.89 27.58 11.05 6.08 24.3 5.65 36.32 3.3 10.48-2.24 21.03-7.05 27.59-15.83 2.24-3.13 4-6.85 3.86-10.77-1.19-2.88-4.77-3.49-7.53-3.26-6.86.59-13.4 2.9-19.85 5.15 3.1-3.51 6.64-6.83 11.12-8.44 9.14-3.39 19.06-2.93 28.64-3.23 10.22-.33 20.71-2.8 29.04-8.98 6.42-4.65 11.07-11.22 15.21-17.88 3.94-6.22 8.52-14.16 16.89-14.24-3.48 1.95-7.04 4.71-7.89 8.83-1.16 3.45 2.94 5.32 5.68 5.75 11.44.96 22.8-3.98 31.14-11.64 7.64-7.14 13.77-16.46 15.51-26.9 1.2-4.62-1.97-9.76-6.64-10.67-3.75-.4-7.4.8-11.01 1.61 3.88-2.93 7.89-5.84 12.49-7.55 3.77-1.47 8.57.1 10.31 3.86 1.82 2.88 2.57 7.25 6.37 8.17 5.32.72 10.32-2.06 14.75-4.67 11.56-7.42 21.31-17.34 29.96-27.93-.46 6.01-2.82 11.74-6.41 16.56-7.44 10.08-18.11 17.55-29.74 22.03-4.32 1.82-9.41 1.95-13.12 5.06-3.37 2.76-6.03 6.43-7.5 10.53-1.68 4.1 2.83 8.96 7.06 7.9 6.3-1.14 12-4.33 17.53-7.42 13.84-8.24 26.57-18.69 36.38-31.53 6.66-8.9 12.06-19.61 11.49-31-.68-6.26-2.62-12.66-6.66-17.6-1.89-2.4-5.64-4.3-8.31-1.93-8.4 6.34-12.27 16.81-14.18 26.83-1.24-6.45-2.66-13.43.33-19.63 5.16-11.34 14.66-20.15 19.29-31.81 2.79-7.12 4.61-15.36 1.97-22.78-2.44-6.2-9.69-7.58-13.99-12-3.84-4.31-3.02-10.68-1.52-15.79 1 2.63 1.73 5.51 3.7 7.64.74 1.14 2.33 1.63 3.31.44 3.51-3.45 4.87-8.52 5.37-13.28.72-5.42-2.42-10.24-5.44-14.42-7.09-9.27-16.09-16.98-25.91-23.23-6.85-4.17-14.31-8.01-22.46-8.52-2.9-.29-6.21 1.2-7.17 4.11-.08 3.48 1.94 6.55 3.03 9.76-4.41-2.75-8.89-7.1-8.3-12.76.59-4.54 5.55-6.41 9.48-7.12 7.97-1.71 15.31 2.66 22.39 5.59 2.34 1.33 5.86-.59 4.96-3.48-1.7-8.36-7.8-14.71-13.48-20.66 5.98 1.98 10.48 6.63 14.39 11.36 3 3.8 5.88 7.9 7.11 12.66.74 2.78 1.48 5.67 3.24 8.02 2.45 3.56 6.58 5.34 9.38 8.56 2.77 3.11 5.05 6.62 7.99 9.58 4.09-7.13.66-15.24-2.71-21.88-7.18-13.83-16.5-26.53-27.01-38.01-3.66-3.6-7.17-7.98-12.39-9.25-.19 3.08.07 6.19-.39 9.25-.74 2.6-3.17 4.21-5.4 5.48-7.22 3.89-15.64 5.58-22.11 10.83-2.4 1.81-3.74 4.56-4.9 7.24-.76-3.1-2.22-7.04.51-9.6 6.89-6.39 17.27-8.21 22.97-16.04 3.19-4.5 1.22-10.41-1.49-14.62-5.64-8.6-13.94-15.05-22.45-20.6-4.31-2.58-8.67-5.45-13.67-6.43-2.91-.1-3.35 3.49-4.47 5.45-1.11 3.21-3.5 5.71-6.51 7.21.94-3.7 3.46-8.34-.14-11.44-9.63-10.04-24.08-13.53-37.5-14.67-8.42-.31-17.07-.76-25.28 1.49m172.32 118.61c-.13 10-1.14 20.21-5.31 29.42-1.07 2.85-3.2 6.22-1.26 9.17 2.22 3.33 6.61 3.26 10.16 3.6 3.37 0 5.81 2.5 8.28 4.44 2.25-2.91 1.75-6.78 1.68-10.22-.84-13.11-6.07-25.71-13.55-36.41m.04 49.16c2.88 8.41 2.95 17.85-.58 26.08-1.44 4.11-4.28 7.76-4.79 12.16.15 5.36 5.58 7.78 8.82 11.17 2.37 3.63 2.31 8.45 5.14 11.84.85.91 2.64 1.89 3.59.52 3.7-4.36 5.15-10.12 6.37-15.58 1.93-11.43 2.55-23.82-2.23-34.66-2.77-6.54-9.15-11.29-16.32-11.53m-75.77 144.97c-6.7 3.35-13.28 6.97-20.32 9.56-9.96 3.83-20.57 5.88-31.23 6.01-5.82 10.68-16.58 17.89-27.84 21.84-5.26 1.94-10.88 2.29-16.41 2.69-4.99.59-7.7 5.43-9.48 9.6-1.56 4.1-5.15 6.8-7.65 10.26-.94 1.3-1.99 3.57-.2 4.68 3.79 2.22 8.43 1.45 12.59 1.11 14.08-1.92 27.55-7.89 38.69-16.68 7.88-6.28 14.85-14.92 15.51-25.37 2.27 1.61 4.81 3.57 5.02 6.59-.33 2.48-1.5 4.74-2.35 7.07 4.62 1.18 8.96-1.3 13.09-3.03 12.3-5.95 23.94-13.65 33.48-23.5 2.59-3.07 6.22-6.8 4.93-11.16-2.28-1.88-5.49-.87-7.83.33m-305.23 29.65c7.38 6.93 17.08 10.91 26.81 13.26 12.98 2.8 27.12.05 38.21-7.25 2-1.6 4.95-3.45 4.73-6.32-1.1-1.96-3.55-.71-5.08-.01-16.03 7.83-35.23 8.14-51.78 1.73-4.07-1.4-8.8-4.38-12.89-1.41zm334.96-229.9c1.53-2.33 4.23-3.26 6.82-3.84-2.7 4.37-5.18 9.15-5.13 14.43-.21 15.45 10.9 28.45 10.49 43.94.13 6.76-2.25 13.98-8.17 17.8 3.37-7.97 3.97-17.15 1.04-25.36-3.37-9.74-9.69-18.7-18.44-24.31-3.15-2.11-6.86-3.08-10.3-4.58 2.61-1.34 5.33-2.8 8.36-2.74 3.86.05 7.28 2.11 10.6 3.85.27-6.56.79-13.66 4.73-19.19zm-188.22 15.59c8.26 5.83 18.46 7.35 28.07 9.67 9.11 2.19 18.56 4.38 26.39 9.8 5.19 3.55 8.99 9.22 9.71 15.54.92 8.19-.26 17.05-5.39 23.76-1.6 1.6.21 3.61 1.33 4.88 4.35 4.36 9.47 7.88 13.83 12.24 8.51 8.06 15 18.26 18.27 29.54.94 4.03 4.28 6.75 7.91 8.36 3.21 1.32 5.64 3.85 6.91 7.1-3.33-.96-6.75-2.33-10.28-1.74-5.9 1.02-10.92 4.49-15.62 7.99.3-5.5 4.41-9.22 7.51-13.3-.81-4.73-3.35-8.96-5.45-13.22-6.4-11.66-14.8-22.94-26.71-29.39-14.38-7.89-34.09-3.69-43.96 9.42-3.86 5.14-7.24 11.63-5.73 18.23 1.45 8.06.63 16.68-3.1 24.04-3.76 7.41-10.48 13.17-18.23 16.1 2.86-3.61 6.64-6.4 9.23-10.23 5.04-7.15 6.64-16.2 6.33-24.79-.45-7.37-6.96-12.32-13.1-15.24-5.88-3-13.14-3.96-17.38-9.51-6.19-7.64-10.79-16.69-18.83-22.7 11.37 1.21 18.66 11 25.64 18.96 4.86 4.42 10.94 7.26 16.79 10.16 2.19.75 5.14 2.78 7.13.62 4.6-5.11 5.95-12.85 12.23-16.51 3.8-2.15 6.61-6.37 5.36-10.86-2.53-9.89-9.17-18.11-16.21-25.25 8.7 2.73 16.37 9.11 19.76 17.68 1.84 3.77 3.06 8.91 7.5 10.41 4.96.48 9.99.22 14.98.18 3.68 0 6.15-3.3 7.62-6.3 2.53-5.51 3.69-11.68 3.43-17.73-.4-5.88-4.89-10.43-9.59-13.46-9.2-5.89-19.81-8.91-29.81-13.1-6.17-2.61-12.78-5.48-16.54-11.35z"/></svg>