<svg width="700pt" height="700pt" viewBox="0 0 700 700" xmlns="http://www.w3.org/2000/svg"><g><path d="M51.5 93.63c3.2-8.09 11.79-13.44 20.45-13.09 185.68.02 371.37-.01 557.06.02 10.95-.2 21.07 9.37 20.97 20.42.04 133.35.02 266.71.01 400.07.37 11.3-9.53 21.7-20.89 21.59-65.21.05-130.41 0-195.62.02 3.13 21.98 6.25 43.95 9.43 65.92 14.53 0 29.06-.01 43.59 0 .02 10.28.03 20.56 0 30.85l-273.02-.01c-.02-10.28-.03-20.56 0-30.84 14.54 0 29.07-.01 43.6 0 3.19-21.97 6.3-43.94 9.44-65.92-65.19-.02-130.37.03-195.56-.02-11.41.15-21.38-10.32-20.96-21.67v-394.02c0-4.46-.33-9.13 1.5-13.32m17.26 8.36c-.01 113.81-.01 227.63 0 341.44 187.49.01 374.99.01 562.48 0 .01-113.81.01-227.61 0-341.42.28-1.43-.89-2.76-2.32-2.65-185.66-.1-371.33-.02-556.99-.04-1.61-.26-3.59.77-3.17 2.67m0 360.2c0 12.94-.04 25.87.02 38.81-.25 1.78 1.47 3.23 3.19 2.9 185.35.01 370.71.01 556.07 0 1.71.33 3.39-1.11 3.18-2.89.07-12.94.01-25.88.02-38.82-187.49-.01-374.98 0-562.48 0m207.3 126.39c49.29-.01 98.59-.01 147.88 0-3.14-21.97-6.26-43.95-9.45-65.91-43 .01-86 .01-129 0-3.18 21.96-6.3 43.94-9.43 65.91zM232.6 152.63c41.56-.01 83.13-.01 124.69 0 .01 4.86.01 9.71 0 14.57-41.56.01-83.13.01-124.69 0-.02-4.86-.01-9.71 0-14.57zM391.66 152.63c17.1-.02 34.19-.01 51.29 0 .01 4.85.01 9.71 0 14.57-17.1 0-34.19.01-51.29 0-.01-4.86-.01-9.71 0-14.57zM232.59 177.1c17.1-.01 34.19-.01 51.29 0 0 4.85 0 9.71-.01 14.57-17.09-.01-34.19.03-51.28-.02.01-4.85 0-9.7 0-14.55zM318.25 177.1c13.01-.02 26.03-.01 39.04 0l.01 14.56c-13.01.03-26.03.01-39.05.01-.01-4.86 0-9.71 0-14.57zM246.48 199.18l48.35.01c0 4.86.01 9.73 0 14.59l-48.35.01c-.02-4.87-.03-9.74 0-14.61zM232.6 226.03c17.09-.01 34.18-.01 51.28 0 0 4.87.01 9.73-.01 14.6-17.1-.02-34.19.03-51.28-.02.01-4.86-.01-9.72.01-14.58zM306.01 226.03c17.1 0 34.19-.01 51.28 0l.01 14.58c-17.09.04-34.18 0-51.27.02-.04-4.86-.02-9.73-.02-14.6zM367.18 226.04c17.1-.02 34.19-.01 51.29-.01.01 4.86-.01 9.72.01 14.58-17.1.05-34.19 0-51.29.02-.02-4.87 0-9.73-.01-14.59zM440.61 226.03c17.1-.01 34.19-.01 51.28 0 0 4.87.01 9.73-.01 14.6-17.09-.02-34.18.02-51.28-.02l.01-14.58zM232.59 250.51c25.26-.02 50.51-.02 75.77 0 0 4.85.01 9.71-.01 14.56-25.25.01-50.5.01-75.75 0-.02-4.85-.01-9.7-.01-14.56zM342.72 250.52c8.94-.04 17.88-.02 26.82-.02.04 4.82-.05 9.64.06 14.45-8.95.28-17.92.06-26.87.12-.02-4.85-.01-9.7-.01-14.55zM403.91 250.51c8.92-.04 17.84.02 26.77-.03.08 4.86.03 9.72.04 14.58-8.94.03-17.87.02-26.81.01-.01-4.86-.01-9.71 0-14.56zM208.13 274.98c25.25-.02 50.5-.01 75.76-.01.01 4.86.01 9.72-.01 14.58h-75.74c-.03-4.86-.02-9.71-.01-14.57zM330.48 275.01c8.93-.08 17.87-.03 26.81-.03.02 4.85 0 9.7.01 14.55-8.94.04-17.88.02-26.81.01-.02-4.84 0-9.69-.01-14.53zM379.42 274.98c17.1-.02 34.2-.02 51.3 0 0 4.85.01 9.71-.01 14.57-17.09 0-34.19.01-51.28-.01-.02-4.85-.01-9.7-.01-14.56zM220.36 299.45c25.21-.04 50.42.09 75.63-.06.29 4.87.07 9.75.13 14.63-25.25.02-50.51.02-75.76 0-.01-4.85-.01-9.71 0-14.57zM318.26 299.45h26.79c.02 4.86.01 9.72.01 14.57-8.94.01-17.87.02-26.81 0-.01-4.86-.01-9.71.01-14.57zM367.19 299.45h63.51c.01 4.86.01 9.71 0 14.57-21.17.02-42.34.01-63.51 0-.01-4.86-.02-9.71 0-14.57zM465.09 299.44c8.93.02 17.86.01 26.79.01.02 4.86.01 9.72.01 14.58h-26.81c-.01-4.87-.02-9.73.01-14.59zM244.83 323.93c8.94-.01 17.87-.02 26.81 0 0 4.86.02 9.72-.02 14.58-8.93-.02-17.86.01-26.79-.02-.01-4.85-.01-9.71 0-14.56zM293.79 323.93c25.26.04 50.53-.13 75.79.09-.07 4.82-.01 9.65-.04 14.48-25.25 0-50.51.02-75.76-.02 0-4.85-.01-9.7.01-14.55zM232.59 348.39c17.09-.05 34.18 0 51.27-.02.03 4.86.01 9.73.02 14.6-17.1.01-34.19.01-51.28 0-.02-4.86 0-9.72-.01-14.58zM318.26 348.37c25.24 0 50.48.01 75.72 0 .03 4.86.02 9.73.01 14.6-25.25-.01-50.5.02-75.75-.01.01-4.86 0-9.73.02-14.59zM278.28 372.87c34.5-.02 68.99-.02 103.49 0 .01 4.84-.03 9.68.03 14.52-34.5.12-69 .01-103.5.06-.04-4.86-.02-9.72-.02-14.58z"/></g></svg>