<svg width="700pt" height="700pt" viewBox="0 0 700 700" xmlns="http://www.w3.org/2000/svg"><path d="M561.45 80.76c8.36-2.9 18.38 5.61 16.29 14.37-.79 4.74-4.73 8.04-6.12 12.53-.74 2.19-1.5 4.4-2.83 6.31-78.52 103.4-157.09 206.78-235.61 310.19-.88 1.18-2.07 2.08-3.42 2.66-11.52 5.13-22.97 10.42-34.46 15.61-2.31.97-4.52 2.74-7.17 2.24-.73 7.82-5.73 15.46-13.45 17.85-12.34 3.98-25.17-.21-37.6-1.3-2.31-.04-6.32-.24-6.7 2.83.38 3.65 3.17 6.44 5.38 9.17 11.48 12.51 23.01 25 35.58 36.44 12.3 11.46 25.33 23.48 31.05 39.77 2.99 7.81 1.5 16.93-3.51 23.57-8.17 11.02-22.32 16.96-35.91 15.98-28.14-1.11-54.18-12.9-80.54-21.6 3.57 11.66 6.29 25.06.36 36.42-8.63 15.48-31.58 21.03-46.04 10.46-4.87-3.53-9.76-8.72-9.17-15.21.2-4.9 3.89-8.46 7.44-11.33-4.14-11.45-10.12-22.49-11.25-34.8-1.04-9.44.34-19.48 5.56-27.58 6.59-10.27 18.53-16.49 30.59-17.13 13.5-.81 26.71 3.06 39.32 7.45 12.53 4.42 24.66 9.87 37.12 14.48-11.05-15.75-23.44-31.05-30.03-49.37-3.11-8.83-4.07-19.26.82-27.64 3.78-6.27 10.2-11.62 17.79-12 13.7-.92 26.44 6.29 40.1 5.8 4.41-.08 8.46-2.33 11.2-5.72 2.22-2.95 6.23-3.4 9.44-1.9 2.6-13.77 5.49-27.49 8.05-41.27.32-3.16 2.92-5.22 4.76-7.55 81.89-98.79 163.81-197.57 245.69-296.37 2.32-2.71 5.72-4.13 8.2-6.67 2.66-2.66 5.37-5.52 9.07-6.69m1.72 8.41c-2.39 1.34-4.33 3.43-5.76 5.74-.29 3.4 3.15 6.71 6.54 6.14 3.71-1.25 5.83-5.37 6.11-9.06-1.12-2.35-4.45-4.3-6.89-2.82m-128.13 149.34c7.48 2.83 14.06 7.84 18.63 14.42 36.32-47.73 72.62-95.48 109.03-143.13-5.59-.7-10.51-4.46-12.69-9.64-38.28 46.15-76.62 92.25-114.97 138.35m-6.8 8.73c-40.4 48.63-80.63 97.41-121 146.06 10.32 3.28 18.48 11.14 24.63 19.8 30.5-40.22 61.03-80.42 91.54-120.63 8-10.84 16.59-21.28 24.23-32.36-1.25-6.06-6.69-10.11-11.82-12.91-2.35-.97-5.8-2.65-7.58.04m-126.95 153.7c-2.32 11.06-4.47 22.16-6.68 33.23 10.43-4.39 20.84-8.83 31.28-13.22-4.92-9.67-14.21-17.04-24.6-20.01z"/></svg>