<svg width="600pt" height="544pt" viewBox="0 0 600 544" xmlns="http://www.w3.org/2000/svg"><path d="M278.4 0h7.02c2.01.3 3.87 1.14 5.69 2.02-2.51 3.53-6.1 6.53-6.99 10.96-2.02 7.98.02 17.91 7.09 22.8 7.19 4.75 17.74-.54 19.13-8.8 1.29-8.32-2.66-16.12-4.42-24.06 20.53-1.51 40.58 4.85 59.21 12.86 10.92 4.85 22.11 9.87 30.95 18.13 1.88 1.83 3.98 3.64 4.87 6.2 4.62 13.96 14.39 26.9 28.24 32.69 20.75 9.32 44.29 7.34 65.62 14.6 11.07 3.77 20.88 12.39 24.82 23.54-8.54 4.88-17.49 8.97-26.35 13.22-19.72 9.46-39.7 18.43-60.29 25.85-8.86 3.53-18.3 5.72-26.64 10.47-2.1 1.07-2.84 3.49-4.1 5.3-2.5-2.54-3.96-5.83-4.55-9.32-.99-5.27-2.9-10.33-5.69-14.92 6.64 2.46 14.31 2.58 20.56-1.05 8.8-5 18.28-8.68 27.88-11.83 7.79-2.81 16.61-5.87 20.95-13.5 2.17-3.79-.34-8.01-2.29-11.3-6.11-9.89-17.08-15-27.32-19.53-11.17-4.65-20.92-12.27-28.83-21.36-4.6-5.09-8.38-10.87-13.21-15.76-4.45-4.54-10.77-6.26-16.47-8.66-1.93 1.95-3.88 3.88-5.83 5.82 9 5.44 16.57 13.14 21.96 22.16 3.2 5.66 8.63 9.7 11.54 15.55-10.28-4.86-13.73-17.69-24.21-22.15-.97 2.46-.87 5.23 1.18 7.12 5.98 6.35 13.25 11.65 17.84 19.22-7.25-3.94-13.23-9.82-20.56-13.62-5.33-2.77-10.75-5.44-16.54-7.14 3.17 2.52 6.79 4.37 10.03 6.78 7.14 5.47 13.92 11.4 20.53 17.49 2.11 1.92 4 4.08 5.49 6.52-2.83-1.32-5.39-3.12-7.9-4.95-8.02-5.72-17.54-8.88-27.07-11.02 8.95 6.33 18.52 12.45 24.83 21.64-6.43-2.13-12.73-5.25-19.69-4.91 6.11 7.82 15.25 13.08 19.79 22.16.89 1.61.62 3.51.75 5.28-3.84.12-7.55-.96-11.34-1.29-15.6-1.12-30.37-7.06-45.95-8.37-11.34-.94-22.66-2.84-34.07-2.28-9.34.6-18.65 1.65-27.9 3.04-21.01 3.27-42.26 9.08-59.87 21.43-5.38 3.95-10.74 8.04-15.14 13.11-4.64 5.29-7.08 12.01-10.98 17.81-7.78-3.99-13.19-11.3-20.97-15.28-5.47-3-10.91-6.13-16.79-8.27-19.05-7.1-38.58-13.17-56.61-22.69 7.76-16.24 21.43-29.55 37.77-37.05 15.29-7.47 31.5-12.87 46.75-20.42 10.95-5.37 20.05-13.87 27.76-23.21 5.06-6.02 8.35-13.38 13.98-18.95 5.22-4.96 11.93-7.88 18.45-10.72 15.24-6.21 31.38-10.65 47.89-11.36m5.58 38.85c-.97 10.72-2.56 21.42-2.6 32.2 4.33-10.18 4.18-21.44 2.6-32.2m-72.47 2.7c-4.02 1.69-7.29 4.64-10.7 7.28-9.45 7.35-18.53 15.32-29.14 21-3.14 1.76-6.61 3.04-9.33 5.45-2.34 2.08-1.89 5.69-.87 8.32 2.17 5.5 8.07 8.25 13.53 9.32 7.92 1.43 16.37.26 23.56-3.37 10.14-5.94 17.44-16.2 20.69-27.41 1.64-5.98 1.75-13.1-2.31-18.18-1.24-1.58-3.33-3.17-5.43-2.41m103.09 12.39c-1.66 6.91-1.06 14.05-.83 21.08.49 10.16 3.88 20.2 9.87 28.44 1.8 2.66 5.18 3.29 8.08 4-.19-5.9-2.69-11.34-4.13-16.98-2.37-7.8-4.09-15.79-6.55-23.57-.77-2.58-2.64-4.56-4.2-6.69-1.1-1.94-1.5-4.19-2.24-6.28zm-43.71 69.41c16.44-3.46 33.26-5.93 50.09-4.62 5.87.59 12.01.31 17.59 2.47-3.15.56-6.37.68-9.49 1.4 4.5 2.63 9.83 2.5 14.8 3.54 6.4 1.05 12.6 3.16 19.08 3.76 2.45.22 5.07.46 7.05 2.11-2.36.45-4.71.89-7.05 1.42 5.38 2.84 12.35 1.69 16.88 6.19-5.88.32-11.45-1.86-17.04-3.36-9.42-2.94-19.15-4.87-28.37-8.44-18.4-3.05-37.19-1.46-55.6.68-2.04.12-3.96.8-5.79 1.66 10.7 2.23 21.59-.26 32.37.57-1.42.84-2.83 1.67-4.25 2.49 12.57.84 25.22-.14 37.73 1.57 2.28.13 4.49.73 6.55 1.73-6.08 1.12-12.29.84-18.44.98-20.23 0-40.44 1.92-60.39 5.28-7.89 1.21-17.01 2.27-23.67-3.14 5.24-3.7 12.1-3.2 17.53-6.49-8.64-1.45-16.97 1.83-25.29 3.59-4.79 1.07-9.39-1.23-13.39-3.59 7.17-5.07 15.65-7.96 24.18-9.75 6.42-1.5 12.88-2.97 19.46-3.49-3.54 2.22-7.55 3.62-10.95 6.09 5.58-.06 10.97-1.63 16.41-2.65zm-63.43 17.97c5.07-3.54 11.99-5.54 17.88-2.89-3.02 3.59-7.69 4.86-11.54 7.3-8.24 5.2-16.05 11.25-22.42 18.67-3.73 4.29-5.38 9.98-9.21 14.19.05-6.49 3.42-12.26 6.84-17.55 5.05-7.48 11.04-14.48 18.45-19.72zm63.55 6.59c17.9-4.71 36.49-6.15 54.95-5.85 9.63.23 19.42-.46 28.92 1.43-1.28.79-2.57 1.6-3.98 2.15-10.92 3.51-21.47 8.64-30.28 16.07-2.57 2.38-6.17.64-9.08-.1-13.53-4.5-27.42-8.04-40.53-13.7zm-47.04-3.93c7.17-2.75 15.44-1.57 21.94 2.37-11.53 4.57-23.53 8.39-33.97 15.24-5.9 4.12-11.09 9.14-16.07 14.31-2.75 2.78-5.31 5.91-8.85 7.75 5.03-9.49 14.03-15.92 20.3-24.49-7.19 3.07-12.49 8.95-17.56 14.67.92-4.41 4.22-7.72 7.24-10.84 7.77-7.83 16.58-14.99 26.97-19.01zm147.32.9c5.34.27 10.78.46 15.97 1.91 2.79.75 3.26 4.04 4.11 6.35 2.57 9.4 4.88 19.22 3.29 29.01-6.73.07-11.35-5.39-17.14-7.88-11.36-5.56-24.25-5.7-36.54-7.35 5.73-3.43 11.69-6.61 18.11-8.52 7.04-1.81 14.01 1.85 19.71 5.65 3.14 2.38 5.78 5.34 9.01 7.61.14-5.63-2.17-10.91-4.59-15.86-2.54-4.98-7.71-7.6-11.93-10.92zm-371.29 8.61c1.78 2.09 3.51 4.22 5.05 6.49 9.94 14.26 20.29 28.24 31.19 41.79 9.22 11.73 18.68 23.28 28.85 34.21 16.94 18.04 34.38 35.64 52.66 52.34 6.59 6.11 14.04 11.16 20.8 17.08 25.26 20.71 52.6 38.73 80.66 55.42 16.41 9.9 33.45 18.69 50.51 27.42 18.95 9.01 38.16 17.48 57.69 25.16 20.59 7.97 41.5 15.07 62.55 21.72 11.05 3.5 22.35 6.18 33.29 10.04-3.07 3.95-7.1 7.69-12.23 8.44-4.83.38-9.58-.98-14.21-2.19-40.86-11.89-81.11-26.07-120.03-43.31-40.45-18.18-79.89-39.41-114.6-67.21-4.1-3.2-8.01-6.7-12.66-9.1 1.43 2.08 3.02 4.06 4.87 5.78 23.67 21.31 49.7 39.99 77.6 55.37 39.26 21.82 80.46 40.17 122.89 54.91 13.74 4.91 27.69 9.32 41.05 15.23 3.86 1.9 5.15 6.38 7.16 9.86 1.24-3.67.88-7.55.39-11.31 5.82 4.55 10.15 11.99 8.07 19.56-5.73 0-11.12-2.11-16.59-3.53-26.77-7.28-53.17-15.86-79.17-25.52-6.12-2.31-12.28-4.64-18-7.86-2.47-1.38-4.46-3.48-6.99-4.76-3.16-.84-6.54-.62-9.62-1.82-9.3-3.27-17.97-8.04-27.06-11.84-2.49-1-4.86-2.28-7.07-3.79l-.67-3.7c-3.61-.92-7.38-1.08-10.95-2.13-2.41-2.09-3.82-5.7-7.42-6.05-7.03-1.18-13.72-4.37-18.99-9.17-2.29-2.07-3.49-5.9-7.04-6.04-6.89-.79-13.3-4.55-17.26-10.23-8.33-2.24-15.07-7.83-22.12-12.52-10-7.18-19.9-14.53-29.24-22.55-4.13-3.25-5.12-8.55-7.05-13.13-2.35-.17-4.98.66-7.09-.72-2.14-1.23-4.36-2.36-6.35-3.82-3.02-2.42-3.91-6.39-4.53-10.01-1.69-.07-3.38-.13-5.07-.21-5.5-4.88-12.38-8.77-15.38-15.87-.65-2.86.12-5.81.25-8.69-2.57.55-5.08 1.32-7.55 2.22-3.95-2.19-5.08-6.93-8.6-9.55-8.32-7.04-14.46-16.16-21.39-24.47-2.86-3.27-5.2-7.07-5.83-11.43l-2.52-.12c-.84-2.78-2.31-5.3-4.52-7.21.31-3.17 1.57-6.14 1.96-9.29-2.18-3.36-6.22-.74-9.28-.63-3.2-2.29-5.11-5.84-7.2-9.07-5.3-8.91-10.21-18.1-13.89-27.81-3.23-8.36-4.57-17.26-6.51-25.96-1.27-5.55-1.93-11.21-2.81-16.82v-3.6zm268.66.66c5.58.73 10.97 2.4 16.35 3.97 12.08 3.9 24.29 7.57 35.82 12.93-1.51 2.61-3.13 5.16-4.91 7.6-1.09-.82-2.17-1.62-3.25-2.44-1.11 6.91-.06 13.86.29 20.78.95 12.64 3.01 25.22 3.12 37.92-.1 3.09-.49 6.96-3.53 8.61-7.25 2.84-15.53-.42-22.63 3.07-3.46 1.77-7.63 2.29-11.23.62-2.98-1.05-3.63-4.49-5.33-6.8-2.22 3.75-3.26 9.03-.29 12.65 3.67 3.23 8.88 3.55 13.05 5.92-3.12 6.75-8.3 13.47-15.95 15.1-6.67 1.14-13.41 1.89-20.17 2.2-3.25.12-6.22-1.61-8.59-3.67-4.08-3.64-8.24-7.28-11.37-11.8 9.31-2.75 16.92-8.99 25.51-13.25 2.83-1.44 5.91-2.72 7.77-5.47-3.98.5-7.57 2.3-11.25 3.76-10.73 3.71-21.87 6.26-33.16 7.49-5.12.78-9.83-1.95-14.81-2.56 1.68 4.4 5.31 7.62 7.35 11.83 2.23 4.31 4.97 8.31 7.72 12.31 7.65 11.68 15.1 23.79 25.21 33.54-1-2.44-2.17-4.81-3.22-7.23 5.12.99 9.95 3.06 15.07 4.07 9.89 2.1 20.12 2.1 29.94 4.56 2.74.71 5.96 2.06 6.79 5.06 1.62 9.15-2.53 18.39-.21 27.5 1.92 7.26 4.53 14.43 4.81 22.02-7.21 3.32-15.56 1.56-22.39-1.85-6.04-3.02-12.07-6.21-17.41-10.37-2.36-1.76.82-4.85-.56-7.07-1.2-2.73-3.17-5.01-5.03-7.32-7.4-8.48-15.17-16.62-22.86-24.85.32 2.65.61 5.33.04 7.98-3.03-3.43-5.88-7-8.98-10.36-8.6-9.56-15.36-20.73-20.13-32.66-4.97-12.36-8.38-25.54-8.28-38.95.05-17.7.39-35.41 1.06-53.09 4.25-7.78 10.43-14.42 17.19-20.1.04 1.87.09 3.74.16 5.61 4.62-2.98 7.86-7.72 12.85-10.17 7.56-3.99 16.79-5.19 24.94-2.38 5.26 2.4 10.03 5.71 14.93 8.75 6.55 4.01 11.8 10.03 19.04 12.9 1.75.97 4.49-.2 4.5-2.33.92-6.71-2.17-13.36-6.62-18.22-2.84-3.55-8.04-2.92-11.35-5.81m-54.45 47.92c-1.53.78-3.48 2.86-1.01 3.96 8.89 4.44 19.01 4.75 28.74 5.09 4.67.13 9.38-.67 13.59-2.75-8.58-1.5-17.34.03-25.95-1.13-2.05-.32-4.33-.33-6.03-1.67-1.7-2.2 1.14-4.94 3.45-4.68 3.35.84 6.4 2.75 9.92 2.99 15.72 1.74 30.67-4.56 45.97-6.88.07-.44.21-1.34.29-1.78-4.09-2.21-7.1-6.07-11.55-7.62-9.71-3.83-20.29-6.9-30.8-5.18-11.24 2.8-17.41 13.58-26.62 19.65m31.89 107c-1.3 1.27.75 3.87 2.16 2.48 1.12-1.28-.71-3.82-2.16-2.48m2.37 4.3c-.69 1.27.57 2.54 1.86 2.11 1.51-1.26-.38-3.61-1.86-2.11zm342.98-141.51c1.31-4.89 3.53-9.51 7.05-13.23.37.62 1.12 1.85 1.5 2.47v4.28c-.64 7.06-1.45 14.34-5.1 20.59-.91 3.59-.24 7.5-1.59 11.05-4.21 12.02-10.33 23.26-16.92 34.13-11.79 19.15-25.39 37.14-40.15 54.09-6.2 6.82-12.21 14.23-20.58 18.45-5.38 8.43-12.28 15.95-20.42 21.79-2.86-.48-5.7-1.01-8.55-1.52.24 2.92.97 5.89.4 8.81-2.42 2.38-6.09 1.46-9.14 1.78-.47 2.23-.66 4.56-1.61 6.66-1.93 2.17-4.71 3.36-6.74 5.42-6.09 6.01-12.77 11.48-20.02 16.03-2.09 1.52-4.73 1.38-7.17 1.47-2.84 4.48-6.87 8.01-11.1 11.14-5.81 4.23-11.46 8.69-17.51 12.57-7.31 4.76-14.48 10.03-22.83 12.86-3.13.97-5.18 3.67-7.84 5.4-7.48 5.1-15.5 9.35-23.65 13.24-2.2 1.48-4.29-.6-6.18-1.55 1.76-1.42 3.57-2.79 5.54-3.93 10.51-6.04 20.78-12.51 30.91-19.17 5.99-4.1 12.28-7.85 17.64-12.79-5.97 2.61-11.3 6.4-16.97 9.55-12.28 6.58-24.79 12.73-37.35 18.75-2.92 1.35-5.88 2.83-9.1 3.24-2.55.04-4.75-1.48-7-2.46 23.42-11.95 46.27-25.1 67.77-40.28 17.09-12.03 33.65-24.95 48.47-39.73-22.27 15.24-44.28 30.89-67.43 44.78-19.18 11.63-38.78 22.8-59.81 30.74-6.35-2.92-13.06-5.4-18.56-9.83 25.67-11.9 51.21-24.18 75.62-38.51 30.54-18.11 59.97-38.16 87.59-60.48 7.19-5.79 13.94-12.1 21.1-17.92 5.58-4.54 12.01-8.42 19.27-9.38.01-5.97 4.2-10.34 8.03-14.39 9.11-9.52 18.47-18.79 27.39-28.48 12.58-14.59 24.37-29.84 35.86-45.29 2.44-3.98 5.45-7.54 9.18-10.35m-40.54 80.09c-11.49 14.95-24.64 28.55-38.39 41.42-2.99 2.73-6.32 5.11-9.07 8.09-2.33 3.11-2.21 7.23-3 10.89 4.92-4.03 9.61-8.32 13.99-12.93 11.27-11.67 22.43-23.48 32.77-35.99 12.11-14.69 22.05-31.13 29.79-48.51-9.08 12.06-16.65 25.22-26.09 37.03zm-364.36-60c-8.13-1.63-13.24-12.38-7.93-19.22 1.22 4.1.92 8.69 3.19 12.44 1.11 1.99 3.43 2.64 5.31 3.66l-.57 3.12zm-13.88-15.62c1.82 5.86 1.86 12.85 6.88 17.14 2.67 1.47 6.12 1.85 7.63 4.85-4.55.75-10.25.91-13.4-3.09-3.51-5.47-5.52-13.33-1.11-18.9zm143.09 6.12c2.53 2.98 6.25 2.92 9.83 2.48-.95 3.8-3.11 7.24-3.41 11.21 1.89-.94 3.7-2.04 5.48-3.17l-.55 4.02c6.02 3.85 11.08 9.19 17.75 12.02 9.73 4.65 21.73 5.25 31.34-.03 4.54-2.52 9.77-3.33 14.29-5.86-1.28-1.43-2.56-2.85-3.83-4.28 1.05-3.51 2.69-8.7 7.14-8.63 1.69 1.8 1.33 4.57 2.19 6.78 2.13 6.41 2.64 13.21 2.63 19.93-.02 5.22.56 10.83-2.19 15.54-4.04 7.76-13.02 11.62-21.45 11.77-8.37.08-16.76-.51-25.04-1.7-4.79-.65-9.29-2.76-14.18-2.74 3.24 4.26 8.22 6.49 12.8 8.98 6.3 3.34 12.72 6.45 19.01 9.81-2.17 5.26-4.44 11.61-10.32 13.68-6.29 1.84-12.95.58-19.33-.08-6.76-.68-12.68-6.33-13.18-13.19 3.47-2 8.33-3.09 9.66-7.4 1.62-5.59-.84-11.36-3.81-16.03-1.31-2.24-3.56-3.59-5.93-4.46.7 5.44 4.3 10.27 3.48 15.93-4.04.5-4.54-3.97-5.33-6.86-2-11.36-2.44-22.93-4.37-34.3-1.02-7.79-3.03-15.51-2.68-23.42zm-82.6 10.47c3.1-5.55 9.45-9.29 15.87-8.49 10.15.18 22.11 3.03 27.33 12.69-6.33-1.73-11.61-6.43-18.29-6.98-8.38-.5-17.13-.92-24.91 2.78zm-45.05 2.09c-.39-1.95 1.06-3.32 2.45-4.36.6 2.35.75 4.8.16 7.17-1.99.97-2.33-1.42-2.61-2.81zm-22.06 2.04c1.05-1.98 3.21-2.71 5.18-3.37-1.58 5.23-4.4 10.03-5.38 15.44-1.38 6.67-4.34 12.94-8.22 18.51-1.97 3.01-4.86 5.48-5.85 9.06-2.47 7.36-6.21 14.19-10.21 20.81-2.42 5.29-4.04 11.86-1.04 17.26.93-3.93.52-8.17 2.34-11.87 1.76-3.73 4.13-7.16 5.71-10.98 2.82-6.03 3.73-13.01 8.12-18.23 2.68 9.13.68 18.76-1.3 27.82-1.85 8.79-6.41 16.66-8.67 25.33-1 3.63-2.14 7.24-3.82 10.63-6.62-13.78-6.76-29.5-6.1-44.45.39-5.63.2-11.46 2.34-16.78 2.21-5.72 5.85-10.73 9.31-15.75 2.78-3.81 5.44-7.83 9.24-10.71-2.22 9.53-9.36 17.14-11.02 26.87 4.88-5.48 7.95-12.29 11.26-18.76 3.49-6.64 4.02-14.49 8.11-20.83zm4.58 5.96c.32-1.34 1.21-2.43 1.92-3.57 1.85 8.06 1.15 16.41 1.52 24.61.2 5.19-.02 10.66-2.91 15.18-2.98 5.11-6.03 10.24-10.03 14.63-.72-7.27-.74-14.6-.09-21.88.28-3.11 1.06-6.36 3.38-8.62 1.45 4.87.67 10.02 1.67 14.96 3.23-11.53 1.19-23.8 4.54-35.31zm6.39-1.38c4.82.48 9.68.25 14.35-1.07-1.38 5.39-7.8 6.18-12.4 5.11-1.72-.46-1.31-2.77-1.95-4.04zm4.61 7c1.11.77 2.65 1.17 3.26 2.49 3.15 6.24 3.64 13.47 2.77 20.31-1.6-2.67-2.9-5.52-4.74-8.04-.86 5.96 1.55 11.66 2.14 17.52 1.35 11.81 1.01 23.86-1.37 35.53-2.03 8.81-6.28 17.1-12.17 23.93-3.19-12.5-2.22-25.61-2.53-38.4-.39-8.47 2.3-17.03 7.46-23.75.2-.04.6-.13.8-.18 1.86 5.8 1.23 11.97 1.27 17.96.08 2.95-.71 5.85-2.28 8.35-.97-1.64-1.93-3.28-3.02-4.85-1.13 5.65 1.52 11.1 2.78 16.51 7.21-13.22 5.63-28.85 3.39-43.14-1.64-8.18 1.48-16.16 2.24-24.24zm182.27 76.31c6.22-7.46 8.27-17.99 16.26-24.05-2.36 8.62-7.27 16.49-13.29 23.04-7.72 8.32-18.79 12.35-29.67 14.54-12.63 2.42-25.49 3.33-38.31 4.03-12.92.73-26 .54-38.73-1.99-6.93-1.35-13.99-2.88-20.13-6.51-5.6-3.36-9.8-8.56-13.27-14-2.36-3.8-5.21-7.44-6.31-11.86 8.76 4.17 13.4 13.67 21.57 18.69 5.87 1.49 12 1.2 18 1.49 16.66.08 33.31.53 49.97.06 16.65-.4 33.35-.28 49.93-2.06 1.37-.24 3.03-.16 3.98-1.38zm25.76-17.31c1.7-1.82 4.13-2.53 6.51-2.95-1.22 8.85-1.88 18.14-6.38 26.07-2.84 5.33-7.77 9.01-11.46 13.68-5.61 7.02-10.95 14.59-18.62 19.53 1.16-3.29 3.29-6.09 5.26-8.93 7.59-10.95 15.54-22.03 19.45-34.93 1.23-4.32 1.67-9.3 5.24-12.47zm-98.37 14.63c1.47-5.15 4.91-9.81 9.65-12.38 2.75-.31 5.02 1.56 7.25 2.88 3.44 2.19 6.57 4.9 8.83 8.34-2.88 1.13-5.95 1.58-9.02 1.59-5.57.06-11.18.39-16.71-.43zm82.34 3.61c3.43-5.49 5.82-11.72 10.46-16.36.45 7.16-3.67 13.31-7.33 19.08-6.09 11.06-13.03 21.62-20.25 31.98-5.49 8-11.09 16.11-18.46 22.52-1.76 1.77-4.4 1.73-6.56 2.67-2.67 1.6-4.12 4.52-5.31 7.26 3.56-1.15 6.22-4.08 9.83-5.08 1.45 4-2.91 6.47-5.53 8.57-5.34 3.26-11.22 7.05-17.77 6.13-.97-8.27 1.32-16.42 1.55-24.66.19-7.22-2.25-14.11-3.64-21.11 2.59-3.99 6.69-7 11.39-7.91 6.39-1.07 12.91-.37 19.23.84.77 6.37.33 13.98-4.55 18.7-.54 3.02-1.68 5.87-2.86 8.69 3.97-.97 6.78-4.04 9.24-7.1 11.17-14.03 21.17-28.95 30.56-44.22zm-193.99 9.76c2.12-3.31 3.47-7.11 6.08-10.11-.1 5.8-2.06 11.36-4.33 16.63-2.31 4.79-5.92 9.3-5.98 14.87-.23 1.82 1.12 3.2 2.05 4.59 1.22-4.08 1.04-8.84 4.28-12.03.14 5.59-.26 11.38-2.58 16.54-.93 2.14-4.3 1.65-5.01-.43-1.55-3.33-1.73-7.09-2.25-10.68-.36-3.32-1.15-7.13 1.03-10.02 2.23-3.12 4.72-6.07 6.71-9.36zm272.77 119.82c7.38-7.63 18.95-10.02 29.11-7.87 11.56 3.13 18.55 17.1 14.31 28.26-1.87 5.21-6.35 9.69-11.95 10.56-4.4.64-9.19.11-12.95-2.4-2.82-1.8-3.32-5.36-4.48-8.22-11.66 6.29-17.59 19.03-21.58 31.05-4.85 15.88-7.48 32.33-12.39 48.19-1.93 6.8-4.67 13.61-9.69 18.75-6.28 6.52-15.86 9.53-24.77 8.44-10.02-1.14-19.14-9.83-19.26-20.18-.33-7.49 5.94-14.16 13.18-15.23 5.7-.59 10.77 2.89 14.36 6.99 8.75-8.45 13.27-20.75 12.77-32.85-.02-7.45-2.28-14.59-4.38-21.66 3.21-1.1 6.71-1.94 9.26-4.33 11.85-11.4 16.55-28.15 28.46-39.5zm-339.01-4.01c8.96-4.97 20.33-3.83 29.04 1.16 9.92 5.79 15.73 16.16 21.26 25.83 3.83 6.32 7 13.41 12.95 18.08 2.59 2.22 6.08 2.74 9.07 4.22-1.67 7.37-4.33 14.62-4.39 22.27-.32 11.94 4.28 24.01 12.95 32.31 2.52-2.49 5.08-5.34 8.65-6.23 7.25-2.21 16.32 1.84 18.37 9.41 2.3 10.03-4.35 21.3-14.44 23.78-7.07 1.84-15.12 2.2-21.71-1.41-6.64-3.17-11.28-9.4-14.08-16.04-8.36-20.9-9.89-43.81-18.36-64.66-3.65-9.52-10.02-18.34-19.07-23.35-.73 2.88-.75 6.57-3.58 8.33-7.73 4.3-19.52 3.32-23.96-5.18-4.46-9.54-2.08-22.77 7.3-28.52zm61.11 33.02c21.66-6.24 43.15-13.08 64.22-21.09 6.44 3.64 13.06 6.92 19.66 10.26-3.54 1.41-7.45 3.52-11.31 2.12-3.16-1.38-5.58-3.97-8.45-5.83 1.25 3.33 3.08 6.39 4.59 9.6-11.56 4.13-23.42 7.33-35.1 11.1-6.28 2.05-13.12 3.59-19.65 1.79-5.26-1.34-9.96-4.34-13.96-7.95zm84.38-2.91c3.54-1.09 7.3-2.93 11.04-1.62 7.65 2.52 14.85 6.19 22.29 9.26-17.56 7.85-35.77 14.1-54.07 19.97-11.96 4.08-23.82 8.8-36.33 10.94-.11-.38-.31-1.15-.41-1.53 14.24-5 28.83-9.14 42.69-15.15-19.45 5.26-38.28 12.76-58.02 16.98.66-6.63 2.48-13.68 7.77-18.17.4 2.9.65 5.84 1.01 8.75 2.4-2.36 4.24-5.2 6.62-7.57 2.84-2.52 6.54-3.73 10.02-5.07 15.8-5.6 31.56-11.3 47.39-16.79zm199.42 17.79c2.72-4.31 8.35-3.06 12.6-2.73-.72 5.31-3.31 10.19-3.56 15.59 4.56-4.23 6.33-10.77 11.44-14.44 4.62-2.53 10.13-1.34 15.14-1.19-2.1 5.95-4.23 11.98-4.7 18.32 3.95-5.93 7.49-12.24 12.45-17.41 1.99-1.94 5.03-1.14 7.5-1 2.75.43 5.83.41 8.12 2.21 1.65 1.21 1.28 3.42 1.16 5.2-.67 4.44-2.27 8.67-3.56 12.95-1.72 5.36-4.16 10.95-9.05 14.14-4.13 2.5-9.15 2.42-13.81 2.43-12.73-.32-25.48-.55-38.17-1.74-2.94-.43-7.56-.66-7.39-4.74.05-10.31 6.01-19.48 11.83-27.59zm72.21.37c8.44-4.33 19.42-1.78 25.99 4.78 5.21 5.09 4.68 12.95 4.28 19.63-1.06 14.23-14.43 26.36-28.74 25.68-6.48-.29-12.81-3.03-17.61-7.36-3.1-2.72-2.38-8.86 1.69-10.25 3.94 1.08 6.7 4.57 10.68 5.55 4.55 1.03 10.5 1.37 13.27-3.24-4.65-1.46-10.42-.56-13.97-4.54-8.74-8.31-5.97-24.55 4.41-30.25zm-487.37 7.37c6.24-8.08 18.37-10.37 27.26-5.52 10.06 5.32 12.57 20.6 5.29 29.12-3.92 4.49-10.21 3.74-15.47 4.85 2.01 4.55 7.69 4.13 11.78 3.61 4.43-.52 7.8-3.72 11.89-5.1 4.78-.39 5.13 6.66 2.43 9.35-6.14 6.32-15.6 9-24.2 7.42-12.18-2.94-22.11-14.13-22.88-26.74-.45-5.85-.15-12.35 3.9-16.99zm39.1-5.04c1.67-3.13 5.62-3.51 8.78-3.47 3.19.15 6.94-.41 9.43 2.06 4.44 4.31 6.5 10.39 10.55 15.02.03-5.94-2.42-11.42-4.25-16.95 5.12.21 10.59-1.1 15.42 1.15 5.38 4.18 7.63 10.95 11.52 16.36-.42-6.02-2.42-11.76-4.53-17.35 4.69.02 11.1-1.78 14.14 2.97 4.58 6.49 7.9 13.8 10.53 21.27.79 2.38 1.48 5.42-.45 7.47-2.43 2.16-5.91 2.16-8.95 2.63-12.78 1.01-25.61 1.12-38.42 1.44-4.54.04-9.59-.18-13.13-3.39-5.24-3.99-6.4-10.83-8.29-16.72-1.05-4.07-3.23-8.2-2.35-12.49z" fill="#fff"/></svg>