<svg xmlns="http://www.w3.org/2000/svg" style="isolation:isolate" viewBox="0 0 256 256"><defs><clipPath id="a"><path d="M0 0h256v256H0z"/></clipPath></defs><title>Logo Git</title><g clip-path="url(#a)"><path fill="#DE4C36" d="M251.172 116.594L139.4 4.828c-6.433-6.437-16.873-6.437-23.314 0l-23.21 23.21L122.32 57.48c6.84-2.31 14.687-.76 20.14 4.694 5.48 5.49 7.02 13.402 4.653 20.266l28.375 28.376c6.865-2.365 14.786-.835 20.27 4.657 7.662 7.66 7.662 20.075 0 27.74-7.666 7.666-20.08 7.666-27.75 0-5.764-5.77-7.188-14.235-4.27-21.336l-26.462-26.462-.003 69.637c1.918.948 3.67 2.2 5.188 3.71 7.665 7.66 7.665 20.076 0 27.747-7.663 7.66-20.084 7.66-27.74 0-7.66-7.673-7.66-20.088 0-27.748 1.838-1.837 4.02-3.292 6.423-4.28V94.195c-2.405-.982-4.59-2.437-6.42-4.28-5.807-5.8-7.203-14.318-4.228-21.447L81.47 39.44 4.83 116.077c-6.44 6.443-6.44 16.884 0 23.322l111.774 111.766c6.435 6.438 16.873 6.438 23.316 0l111.25-111.25c6.44-6.44 6.44-16.886 0-23.323"/></g></svg>
