<svg xmlns="http://www.w3.org/2000/svg" viewBox="0 0 400 400"><title>Logo JavaScript</title><path fill="#fff" d="M210.47 227.48c-.15-49.29-.12-98.6-.02-147.89 36.06.1 72.13.05 108.19.02-.86 13.34-2.4 26.64-3.28 39.98-23.98.13-47.95.06-71.93.03-.13 20.31-.09 40.62-.02 60.93 22.44-3 44.94-5.68 67.43-8.38-2.56 36.8-5.87 73.54-8.38 110.33-30.61 8.42-61.42 16.09-92.06 24.35-.05-12.27.03-24.54-.05-36.81.27-1.04-.55-3.04.97-3.33 21.62-5.92 43.37-11.39 64.96-17.39.33-11.32 1.17-22.61 1.58-33.93-22.49 3.85-44.98 7.81-67.39 12.09z"/><path fill="#d6ba32" d="M25.82 5.07c113.62 0 227.25.04 340.88-.03-9.37 108.02-19.25 216-28.75 324-.99 7.71-.88 15.61-2.46 23.21-46.57 12.59-92.9 26.12-139.4 38.97-46.15-13.1-92.27-26.29-138.5-39.1-2.88-27.31-4.88-54.72-7.5-82.07-7.53-84.66-15.08-169.32-22.63-253.99-.6-3.66-1.44-7.28-1.64-10.99m171.14 30.64c-.24 4.76-.15 9.52-.13 14.28-.03 103.33.02 206.66-.03 309.99.11 1.23.33 2.46.65 3.67 37.24-10.71 74.78-20.35 111.98-31.15 8.44-93.47 16.64-186.96 24.97-280.44.44-5.49 1.25-10.96 1.17-16.49-46.2 0-92.42-.26-138.61.14m-47.05 43.92c-.16 59.39-.02 118.79-.07 178.19-21.81-6.23-43.74-12.03-65.49-18.43-.37 13.34-.1 26.7-.14 40.05 17.32 4.68 34.56 9.63 51.85 14.4 15.75 4.22 31.34 9.12 47.2 12.86-.64-6.57-.39-13.18-.43-19.77-.05-54 .16-107.96.02-161.95.38-14.69-.42-29.39.21-44.08-.18-.3-.54-.91-.72-1.22-10.8-.13-21.62.02-32.43-.05z"/><path fill="#ffda3e" d="M196.96 35.71c46.19-.4 92.41-.14 138.61-.14.08 5.53-.73 11-1.17 16.49-8.33 93.48-16.53 186.97-24.97 280.44-37.2 10.8-74.74 20.44-111.98 31.15-.32-1.21-.54-2.44-.65-3.67.05-103.33 0-206.66.03-309.99-.02-4.76-.11-9.52.13-14.28m13.51 191.77c22.41-4.28 44.9-8.24 67.39-12.09-.41 11.32-1.25 22.61-1.58 33.93-21.59 6-43.34 11.47-64.96 17.39-1.52.29-.7 2.29-.97 3.33.08 12.27 0 24.54.05 36.81 30.64-8.26 61.45-15.93 92.06-24.35 2.51-36.79 5.82-73.53 8.38-110.33-22.49 2.7-44.99 5.38-67.43 8.38-.07-20.31-.11-40.62.02-60.93 23.98.03 47.95.1 71.93-.03.88-13.34 2.42-26.64 3.28-39.98-36.06.03-72.13.08-108.19-.02-.1 49.29-.13 98.6.02 147.89z"/><path fill="#ebebeb" d="M149.91 79.63c10.81.07 21.63-.08 32.43.05.18.31.54.92.72 1.22-.63 14.69.17 29.39-.21 44.08.14 53.99-.07 107.95-.02 161.95.04 6.59-.21 13.2.43 19.77-15.86-3.74-31.45-8.64-47.2-12.86-17.29-4.77-34.53-9.72-51.85-14.4.04-13.35-.23-26.71.14-40.05 21.75 6.4 43.68 12.2 65.49 18.43.05-59.4-.09-118.8.07-178.19z"/></svg>
