<svg xmlns="http://www.w3.org/2000/svg" style="isolation:isolate" viewBox="0 0 297.45 337.343"><defs><clipPath id="a"><path d="M0 0h297.45v337.343H0z"/></clipPath></defs><title>Logo JavaScript</title><g clip-path="url(#a)"><path fill="#e4a227" d="M27.07 303.622L0 0h297.45l-27.098 303.573-121.81 33.77-121.472-33.72z"/><path fill="#f0bf26" d="M148.475 311.155l98.428-27.287L270.06 24.45H148.476v286.705z"/><path fill="#ebebeb" d="M148.418 233.794l-.162.047-41.472-11.2-2.653-29.697H66.753l5.217 58.468 76.276 21.177.172-.05v-38.743zm5.016-59.49V137.07H107.58l5.377-58.442 40.58-1.08-.103-38.724H79.29l-2.754 27.45-8.752 98.034-.908 10h86.558z"/><path fill="#fff" d="M153.182 77.597l.163-.046 40.67 2.45 3.452 38.447h37.38L228.335 46.5l-74.98-7.695-.172.048v38.744zm77.827.114l-3.192-38.888h-78.603v38.89h81.794M148.29 137.086v37.236h45.853l-4.322 48.294-41.53 11.21v38.743l76.34-21.16.558-6.29 8.752-98.035.908-10h-86.56z"/></g></svg>
