<svg xmlns="http://www.w3.org/2000/svg" style="isolation:isolate" viewBox="0 0 296.029 295.908"><defs><clipPath id="a"><path d="M0 0h296.03v295.908H0z"/></clipPath></defs><title>Logo PostCSS</title><g fill-rule="evenodd" clip-path="url(#a)"><path fill="#dd3735" d="M55.16 123.606c.402.303 1.1.5.402 1.1-.5.7-1.1 1.3-1.5 2.1-.4.703-.7.9-1.3.403.8-1.303 1.596-2.507 2.394-3.608l.003.004zM256.025 228.48l.1.798c.2-.4.2-.6.303-.798h-.404zm0 .896v-.098.098zm-20.384 39.027L218.25 171.94c-.297-.095-.696-.293-1.398-.494.2.4.304.7.402 1 .494-.1.7-.1.896-.2 0-.097 0-.196.103-.302l17.392 96.47-.003-.01zm-17.99-118.177c-.098.296-.098.6-.098.9 0-.304 0-.608.107-.904l-.007.004zm.1 1.997c-.1 0-.1 0-.198-.106v.1c.107.097.107.097.205 0l-.008.006zm-.198.798v-.702c-.292.1-.592.1-.995.2.5.19 1.002.298 1.002.495l-.008.008z"/><path fill="#dd3a0a" d="M295.4 128.71c-.2-3.904-.298-7.808-.7-11.708-.7-5.305-1.398-10.71-2.598-15.912-.9-4.302-2.392-8.407-3.896-12.51-1.9-4.802-3.797-9.705-6.197-14.307-3.897-7.405-8.994-14.013-13.69-20.917-3.107-4.405-7.102-8.005-10.102-12.51-1.698-2.6-4.197-4.8-6.695-6.796-4-3.21-8.195-6.114-12.39-8.913-3.168-2.22-6.438-4.29-9.8-6.205-2.695-1.507-5.593-2.707-8.39-4.01-3.2-1.5-6.298-3.304-9.894-4.003-.905-.19-1.702-.494-2.602-.798-2.298-.797-4.496-1.697-6.798-2.4-3.493-1.1-6.892-2.4-10.492-3.304-3.486-.9-7.086-1.496-10.686-2-3.995-.59-8.09-.8-12.09-1.19-2.556-.33-5.122-.563-7.695-.698-3.797-.202-7.693-.202-11.49-.3-1.9-.103-3.897-.304-5.796-.202-2.896.1-5.794.4-8.695.798-2.795.304-5.594.797-8.29 1.204-3.292.398-6.59.6-9.89 1.002-3.097.403-6.295 1.003-9.39 1.504-1.1.2-2.202.6-3.303.797-2.393.502-4.892.703-7.292 1.504-4.29 1.307-8.593 2.81-12.79 4.405-3.9 1.603-7.697 3.304-11.392 5.305-3.797 2.097-7.397 4.595-10.994 7.003-3.454 2.31-6.823 4.747-10.1 7.302-3.19 2.507-6.19 5.305-9.092 8.108-1.595 1.595-2.897 3.5-4.397 5.3-2.495 2.906-4.994 5.705-7.394 8.71-1.99 2.505-3.797 5.103-5.695 7.708-3.39 4.595-6.29 9.5-8.985 14.407-1.1 2.002-2.1 4.003-3.1 6-1.5 3-3.098 5.905-4.495 9.008-1.003 2.104-1.8 4.405-2.4 6.706-1.394 4.906-2.795 9.91-4.094 14.81-1.2 4.404-1.5 9.007-1.594 13.51-.102 4.003.297 7.907.695 11.91.104 1.002-.492 2.202.7 3-.4 1.1-.1 1.708.494 1.898-.69 1.102.303 1.808-.09 2.81-.104.198.302.597.492.897 0 .303-.095.702 0 1.002.107.9.505 1.8.505 2.803 0 .698.597 1.5.8 2.202.097.296 0 .798-.203 1-.6.698-.5 1.298.4 1.7.504 1.3.303 1.9.204 2.507.2.895-.1 1.195 0 1.396.8 1.603 1.103 3.403 1.197 5.203 0 .4.202.804.403 1.3.1 0 0 1.9 0 1.9.494-.296.9-.395 1.397-.596.304 1.298.6 2.506 1 3.607.5.8.5 1.194.303 1.292.4 1.8.596 3.502 1.29 5.203 0-1.9-.19-3.798-.493-5.6 1.398.5 2.598.997 3.4.997.102-.303.2-.698.303-.9l-1.7-2.096c.2.798 0 1.1 0 1.405-.4-.204-.9-.405-1.4-.606.4-.494.8-1 1.4-1.595 0-.905-.495-1.71-1.9-1.608.6-.197 1.2-.493 1.9-.698 1.1-.597-.1-1.698-.1-3.1.1-1.697-.9-3.398-1.2-5.202-.5-2.798-.4-7.002-.7-9.805-.6-.5-1.1.798-1.2.9.305 2.4.6 4.8.8 7.204-.597-2-1-4.203-1.497-6.606-.103.702-.202 1.002-.202 1.405-.492.492-.097 1.1.203 1.8-.7-.305-1.5-.2-1.5-.2v2.804c-.995-1.003-1.292-1.8-1.797-2.507-.197-.797-.303-1.595-.493-2.392.19-.505 0-.805 0-1.1-.118-.802-.22-1.604-.304-2.41.098-.098-.1-1.594-.1-1.594.798.096 1.303.19 1.8.19-1-1.29-.304-2.095.103-2.896.2-.403.9-.494 1.1-.904.798-1.5 2.1-2.696 2.1-4.603 0-.9.305-1.9.4-2.802.2-1.702.398-3.403.493-5.104.205-2.202 0-4.404.505-6.504.806-3.494 1.805-7 2.903-10.504.797-2.506 1.7-4.9 2.696-7.405 1.5-3.904 2.9-7.808 4.8-11.506 2.695-5.407 5.794-10.61 8.794-15.91 1.9-3.305 3.896-6.407 6-9.608 1.993-3.103 3.987-6.304 6.292-9.21C44.17 53.786 47.718 50 51.6 46.575c4-3.6 7.797-7.303 12.092-10.606 5.59-4.31 11.543-8.128 17.79-11.412 5.1-2.696 10.395-4.807 15.693-6.81 3.398-1.297 7.093-1.897 10.594-3 3.994-1.3 7.993-1.897 12.19-2 2.696-.102 5.297-.402 7.993-.702 2.4-.19 4.796-.395 7.397-.695-.303.397-.402.6-.5.796-1.094 1.603-2.294 3.205-3.396 4.804-.9 1.302-1.898 2.704-2.798 4.002-1.603 2.108-3.304 4.208-4.8 6.41-2.298 3.304-4.398 6.707-6.798 10.007-2.392 3.2-4.994 6.204-7.492 9.303-3.297 4.306-6.395 8.707-9.69 13.01-3 4.1-6.19 8.012-9.093 12.114-2.597 3.596-4.898 7.405-7.397 11.1L72.296 99.31c-2.9 4.19-5.83 8.36-8.794 12.508-.2.304-.5.395-.797.596-.798 1.3-.798 2.002-1.1 2.602-.8 1.5-1.596 3-2.5 4.405-.5.798-1.2 1.497-1.8 2.298-.1-1.2 1.595-1.8.797-3.304-.493.805-.998 1.504-1.496 2.305l-1.2 2.392c.4.304 1.1.505.4 1.1l-.9 1.607c.43-.255.806-.596 1.1-1.003 0 1.1-.6 1.997-1.1 2.897-.4.798-1.4 1.405-2.097 2.002l.9.5c.9-.303 1.2-.797 1.3-.5.305-.4.6-.7.7-1 .395-1.002.995-1.8 1.994-2.202.402-.2.698-.5.998-.797 3-3.106 6.1-6.106 8.795-9.41 4.2-5.108 7.998-10.405 12-15.608 1.694-2.203 3.695-4.406 5.49-6.51.298 2.302.1 4.5 0 6.608-.302 3.7-.5 7.405-.796 11.202l-.102 4.504-.303 1.102.303 3.102c-.303 3.703-.706 7.303-1.006 11.005-.102.798.296 1.603.494 2.305-.494 5.4.607 11.108-.296 16.812.698-1.102.9-1.8.9-2.5.095-.6 0-1.2 0-1.898v-1.002c.095-1.804.493-3.703.296-5.507-.2-2-.2-3.9.2-5.802.202-.797-.098-1.8.404-2.802v1.5c-.1 5.696.102 11.404-.695 17.108-.103.5.303 1.405-.798 1.302-.904 1.8.198 3.103-.797 4.102-.205.2.19 1.1.292 1.7-.402 1.205-.402 1.205.198 1.303.098 2.203.303 4.2.398 6.304 1.595-3.797.798-7.71 1.504-11.612.1 1.602.2 3.205.1 4.898 0 2.61-.1 5.108-.2 7.71 0 .5-.1 1.002-.2 1.503-.304 1.405-.4 2.802-.9 4.1-.4 1.004-.197 2.508-.197 3.704v3.81c.398 1.7-.103 2.6.197 3.6-.304 1.005-.4 1.305-.304 1.605l.304 1.5c2-.2 1.1 1.302 1.9 2.1-.6.805-.4 1.1-.4 1.507 0 .9-.095 1.702-.197 2.602 0 2.3-.1 4.602-.1 6.805l.1.895c0 .205-.1 2.81-.1 2.81.202.296 0 .596-.303.896-.095 0-.395-12.71-.395-12.71h-1.5c-.197 6 .304 11.405-.797 17.014-1.2.095-1.595.296-2.902.296-3.098 0-6.197 0-9.296.1L59 207.867l-5.493.205-7.29-.304c-3.703 0-7.3.303-10.998.4-2.697.1-5.394.1-8.09.203-1.804.095-3.607.19-5.4.395-.797.098-1.5.398-2.498.698-.304 0-1-.098-1.595 0-1.007.202-1.9.798-2.905 1.003-1.5.303-1.9.698-1.702 2.2v1c-.098.198 2.203-.304 2.203-.304-.205 0-.304.6-.608 1.102.805-.304 1.303-.502 1.804-.7 1.5.703 2.798.305 3.994.608 3.896.995 7.89 1.405 11.886 1.797 2.6.2 5.1.303 7.697.398 3.695.203 7.394.404 11.09.404l9.19-.304c4.29 0 8.596.198 12.89.304.9 0 1.9-.106 2.9-.106h7.29c6.5-.198 12.995-.304 19.492-.494 3.702-.106 7.5-.304 11.194-.406l11.393-.304c4.397-.1 8.795-.1 13.093-.19 3.297 0 6.494-.114 9.798-.21 3.69-.098 7.488-.398 11.187-.595 2-.104 4.003-.305 6-.502 2.4-.198 4.9-.494 7.29-.597 3.6-.204 7.3-.302 10.9-.504 4.496-.296 8.992-.695 13.587-.797 4.2-.2 8.495-.1 12.695-.2 3.7-.1 7.398-.302 11.195-.4l6.304-.305s4.192-.1 6.292-.304c3.597-.196 7.193-.595 10.793-.694l6.893-.102c3.695-.1 7.493-.304 11.19-.304 1.395 0 2.895.205 4.695.304-.797.702-1.3 1.1-1.9 1.602.4.1.8.304 1.2.502-.465.33-1.023.502-1.594.493-.205.506-.406.708-.607 1.71h1.8c-.7 0-1.3.9-1.998 1.5-.798-.205-1.5 0-1.9 1.1.7.396.6.696.502 1.103-1.2.395-2.1.797-1.595 2.096-.406.196-.904.398-1.405.698-.494.797-1.398.998-1.2 2.1.402.094.797.303 1.1.394l-1.5.7c-1.795 1.1-.994 1.602-.595 2.103-.304.2-.6.4-.9.5.197.9.494 1.103.596 1.103-.51.386-1.01.786-1.5 1.2-.304.9-.702 1.298-1.1 1.898-.4.6-.6 1.405-1.102 2.002-2.096 2.305-3.596 5.012-6.292 6.808-1.002.703-1.9 1.603-2.8 2.507-1.8 1.697-3.397 3.6-5.296 5.202-2.51 2.08-5.11 4.048-7.792 5.902-3.273 2.302-6.57 4.57-9.89 6.805-1.8 1.196-3.796 2.096-5.695 3.197-1.9 1.1-3.7 2.103-5.598 3.2-1.2.798-2.3 1.9-3.6 2.507-3.296 1.405-6.797 2.6-10.192 3.903-3.304 1.406-5.696 2.602-8.195 3.502-2.297.797-4.697 1.405-7.094 1.898-.797.206-1.7 0-2.6.103-1.702.304-3.4.706-5.1.904l-13.19 1.602-7.697 1.1c-1.797.1-3.696-.098-5.496-.098-1.3 0-2.696.304-4 .102-2.095-.303-4.195-.797-6.295-1.2-.495-.098-1.2-.303-1.596-.098-.797.402-1.504-.198-2.305 0-.495.102-.996-.304-1.497-.304-.403-.095-.904.106-1.405 0-1.1-.296-2.096-.695-3.304-.596-1.19.098-2.392-.502-3.684-.798-1.803-.402-3.493-.797-5.3-1.204-.7-.218-1.37-.52-1.994-.9-2.602 0-4.303-.098-5.902-.702-1.397-.494-2.696-1.196-4.196-.995-.395.1-.695-.1-1.1-.1-.305-.4-.597-1.203-.894-1.203-1.997.103-3.197-1.595-4.898-2.1-.897-.303-1.595-1.302-2.495-1.602-2.202-.9-3.994-2.8-6.493-3.1-.797-.1-1.595-.5-2.5-.796.305.395.495.695.8.995-2.9-1.404-5.595-3-8.295-4.503-.395-.1-.695-.494-.995-.7l-2.696-1.8c-1.5.305-2.1-.303-2.505-.5-2.697-1.9-5.79-3.103-8.393-5.203-1.1-.904-2.392-1.504-3.19-2.605-1.405-1.702-3.102-2.902-5-3.9-1.497-.798-2.895-1.702-4.292-2.602-.703-.5-1.405-1.1-1.405-2.203 0-.702-.296-1.405-1.196-1.002-.4-.6-.8-1.3-1.3-1.5-1.2-.494-1.997-1.405-2.897-2.203-.9-.797-1.595-1.898-2.697-2.297-2-.798-3.2-2.5-4.397-3.9-2.804-3.304-5.302-6.912-7.9-10.405-.2-.304-.6-.505-.9-.805.4 1.1.9 2 1.398 3-.995-.4-1.694-1.102-2.294-1.8-.103.102 6.892 11.61 6.892 11.61.608.9 1.102 1.802 1.702 2.702-1.23.115-2.41-.516-3-1.602-.897-1.595-1.9-2.598-3.897-2.393-.21-.722-.376-1.458-.492-2.202-.407 0-.703 0-1.405-.103 1.405 2.203 2.6 4.102 3.9 6.304-.505-.305-.798-.502-1.007-.6 1.797 1.898 3.095 4.302 5.393 5.506.5 2.297 3.097 3.398 3.697 5.6l-1.405-.303c-.797-1-1.697-1.997-2.593-3.1.196.7.492 1.3.895 1.8 1.2 1.5 2.3 3 3.7 4.304.5.51 1.2.71 1.2 1.61.796.4 1.1.494 1.396.494.206.608-.094 1.508 1.102 1.307.798 1.5 1.595 1.5 2.697 1.002 1.3 1.302 2.004 1.405 2.9.607 0 .494.1.995.1 1.398.397-.202.302-.502.302-1.003.494.4.798.6.995.797 1 1.405 1.9 2.703 3.297 3.805 1.898 1.602 3.6 3.303 5.392 4.803 3.5 2.905 7.405 5.31 11.297 7.508 4.8 2.704 9.4 5.605 14.294 8.202 5.894 3.107 12.19 5.21 18.684 6.71 2.4.502 4.698 1 7.102 1.596 2.088.607 4.192 1.507 6.292 2.005 3.198.7 6.494 1.3 9.69 1.897.696.103 1.406.205 2.204.304.892.202 1.99-.2 2.19.104.502.797.9.395 1.5.296.7-.2 1.5-.2 2.3-.2 2.797.097 5.494.697 8.292.5.608 0 1.504-.505 2.005.494.897-.4 1.398-.4 1.797-.494.106.896 0 .896-.19.995-.205.1-.505.2-.904.5 3.596.7 6.995.8 9.987 0 5.203.4 9.7-.2 13.998-1.7.398.5.698 1.2 1.298.2.2-.303.7-.405 1.103-.504.896-.2 1.997-.6 2.795-.303.903.304 1.203-.493 1.898-.493 1.204 0 2.302-.103 3.403-.304.6-.1 1.2-.4 1.898-.6-.685-.34-1.44-.512-2.203-.505 1.204-.6 2.3-1.102 3.403-1.595-.202.296-.403.695-.798.695h1.394c-.304 0-.703.9-1.2 1.5 3.592-.9 6.888-1.702 10.09-2.507-1.102-2.096 1.196-1.393 1.997-2.597-.998.305-1.996.6-3 .798 3.4-1.697 6.897-3.197 10.292-4.697-.493.6-1.1.9-1.993 1.406.6.095.997.095 1.297.19 1.595.505 1.2-.995 1.698-1.9 1.9 0 2.696-.295 3.596-.6 1-.303 1.998-.6 3-.998 1.596-.698 3.096-1.595 4.695-2.392.303-.106.797 0 1.2 0 1.1-.706 1.496-1.306 1.796-1.208 1.406.202 2.393-.303 2.796-1.595.7-.505 1.2-.903 1.697-1.207 2.195-1.2 4.29-2.4 6.494-3.6.797 0 1.2 0 1.397-.103 1.307-.607 2.507-1.298 3.703-2-.343-.144-.677-.31-1-.495.996-.205 1.292-.303 1.9-.505 2.392-2.81 5.696-4.71 8.19-6.91 1.102-.1 1.102-.4 1.102-.597.394-.502.797-1.102 1.29-1.504 2.203-2 4.595-3.703 6.597-5.803 2.893-2.884 5.66-5.892 8.293-9.016 2.393-2.802 4.8-5.6 6.798-8.704 2.8-4.302 5.195-8.707 7.694-13.215 1.8-3.197 3.398-6.4 5.202-9.6.19-.304.596-.702.896-.702 2.696-.304 5.4-.494 7.998-.798.6-.1 1.298-.494 1.898-.797-.303-.502-.5-1.102-.797-1.603l-1.406-1.71c-.395-.492-.695-1.1-.995-1.696-.305-.495-.6-.897-.9-1.406-.63-1.102-1.2-2.235-1.71-3.395-.1-.305-.304-.8-.197-1.102 1.8-3.9 2.498-8.104 4.196-12.008 1.696-4.003 2.2-8.506 3-12.81.698-4.1 1.1-8.2 1.594-12.303.304-2.9.702-5.703.797-8.605.61-4.602.404-8.91.305-13.215-.1-3.797-.304-7.7-.494-11.506l-.02-.01zM44.67 251.89l-1.997-2.5.304-.303c1.09 1.203 2.19 2.403 3.29 3.705-.6-.303-1.3-.5-1.596-.903zm1.596.903l.903-.2c.303.5.5 1.1.797 1.7-1.398-.102-2.096-.702-1.698-1.5h-.004zm103.936 41.328v-.304l5.594-.597v.293c-1.9.303-3.695.493-5.594.6v.007zm25.178-2.6c-1.394.303-2.894.504-4.292.705-.5.1-1.1.6-1.298-.303l-.6.205c.493 1.496 1.697.296 2.696.896-2.203.304-4.29.5-6.395.797v-.197c.61-.1 1.304-.2 1.9-.304v-.296c-.996-.118-1.997-.186-3-.2-.293 0-.695.4-.995.5-.4.1-.798.2-1.3.2-1.696.1-3.394.1-4.996.2l-.404-.1v-.304c6.695-.896 13.29-1.796 19.986-2.696l.2.596c-.6 0-.997.21-1.5.304l-.002-.004zm1.503-.996c2.302-.304 4.405-.5 6.6-.797-4.595 1.298-6.095 1.496-6.596.797h-.004zM89.843 88.483c3.19-4.405 6.492-8.81 9.69-13.31 1-1.31 1.796-2.712 2.795-4.01.304-.403.702-.6 1.2-1.003l-.1-.19c.4-.505.798-.91 1-1.306.51-.798.81-1.702 1.207-2.602.1-.19.4-.39.4-.39 1.404.698 1.404-.798 1.898-1.303.9-1.004 1.8-2.1 2.597-3.104.6-.797 1.2-1.5 1.702-2.4.098-.304-.202-.797-.304-1.204h-.296c.303-.197.6-.493.9-.698.098 0 .098 0 .197-.1.6-.903 1.2-1.803 1.8-2.604 1.195-1.595 2.494-3.198 3.89-4.595-.196.494-.397 1-.6 1.397l.203.103c1.2-1.603 2.498-3.103 3.698-4.71-.1-.094-.2-.196-.302-.196-.494.5-.897 1-1.398 1.502-.1-.102-.197-.2-.304-.2 1.007-1.303 2.005-2.602 3-4.102.202.304.403.7.798 1.5.406-1 .805-1.698 1.1-2.4l-.994.904-.304-.304 1.8-2.696 5.697-8.21c.702-1 1.594-1.8 2.202-2.803 1.9-3.796 4.9-6.804 7.192-10.305.502-.7 1.2-1.3 1.8-1.9.494-.607.9-.4 1.3.1l8.088 10.306c2.005 2.507 4.002 4.9 5.9 7.505 2.3 3.205 4.497 6.406 6.8 9.607 2.596 3.703 5.193 7.406 7.692 11.203 3.798 5.61 7.394 11.214 11.19 16.815 2.8 4.1 5.6 8.108 8.295 12.21h-5.104c-4.693-.096-9.493-.495-14.187-.297-6.394.304-12.888 1.002-19.283 1.504-8.096.702-16.29.797-24.38.797-2.904 0-5.802.406-8.696.608-3.5.197-6.9.398-10.396.493-4.1.205-8.09.304-12.19.407-2.3.098-4.697 0-7.196 0l.004-.02zm114.618 46.025v.904c-.098 0-.197.102-.398.102-.4-1.405-.798-2.908-1.3-4.31-.998-2.905-2.1-5.81-3.9-8.407-2.004-2.8-3.796-5.697-5.8-8.602-.495-.702-1.2-1.302-1.8-1.898-2.1-2.305-4.2-4.71-6.898-6.407-3.972-2.49-8.152-4.636-12.493-6.41-1.205-.517-2.372-1.12-3.493-1.8h2.392l17.088-.304c3.7-.095 7.3-.095 10.994-.296.896 0 1.397.304 1.898 1.1.897 1.5 1.797 3 2.795 4.505.103.198.304.494.304.798 0 2.202 0 4.504.098 6.706.095 2.3.304 4.503.395 6.804 0 2.3-.2 4.7-.1 7.1.104 3.408.202 6.913.202 10.406l.016.008zm-107.528-33.51c4.697-.2 9.19-.5 13.792-.7 3.59-.203 7.29-.305 10.883-.503 1.5-.095 2.902-.19 4.398 0-1.595.805-3.198 1.607-4.595 2.605-1.8 1.2-3.494 2.8-5.297 4.102-1.804 1.298-3.403 2.9-4.9 4.602-1.898 2.298-3.998 4.3-6 6.502-1.404 1.602-3 3.102-4.195 4.803-1.698 2.202-3.198 4.594-4.797 7.1.503-9.508 1.103-18.91.7-28.518l.012.007zm65.26 96.267c-3.202.797-6.495 1.7-9.798 2.1-2.795.403-5.697.304-8.594.304-2.605 0-5.104-.1-7.7-.305-2.9-.296-5.796-.596-8.595-1.9-2.404-1.1-4.9-2.1-7.29-3.303-2.41-1.2-4.805-2.597-6.61-4.8-1.29-1.606-3.094-2.905-4.692-4.306.303 1.2.998 2.203 2.1 2.9-.502.6-1.2.305-2.203-1.3-.296.2-.596.303-.797.4.303-.7.6-1.404.9-2-.4-.797-.9-1.7-1.3-2.506-.797-1.3-1.594-2.696-2.297-4l-.398-.9c-.5-.576-.968-1.178-1.405-1.803-.798-1.196-1.497-2.495-2.495-3.698 0 .302.102.6.102 1-.102 0-.2.1-.2.1l-2.105-5.104c-.1 0-.1 0-.197.1l1.796 6.606-.304.095c-.292-.395-.592-.797-.797-1.29-.198-.806-.798-.806-1.292-.506-.302.202-.504.9-.4 1.2.7 1.702 1.5 3.404 2.3 5.105.198.6.4 1.1.7 1.7.1.202.4.4.4.7.404.797.704 1.595 1.2 2.3l2.8 3.6c.893 1.2 1.69 2.507 2.49 3.704.1.2.4.2.495.302.505 1.5 2.202 2.598 3.402 1.998.304 2.3 2.8 3.102 3.798 5.305-.98-.4-1.947-.835-2.898-1.303-.102.1-.102.198-.205.4 1.2.6 2.4 1.2 3.494 1.898 1.006.608 2.005 1.204 2.905 1.9 1.2 1.1 2.602 1.708 4.292 2.102-.09-.303-.19-.406-.19-.406 2.795 1.303 5.697 2.704 7.892 3.798-10.394.205-21.487.406-32.98.607l-.1-5.604c0-.797.197-1.5.095-2.3-.305-4.596-.305-9.206-.9-13.71-.597-4.8-.597-9.505-.495-14.316.095-2.594-.102-5.294-.205-7.9 0-3.5 0-6.91.106-10.404 0-.5.202-.9.403-1.405h.303c.095.206 0 .506.19.608.303.304.805.798 1.006.7.595-.403 1.495-.798 1.696-1.406.494-1.196.7-2.5.7-3.7 0-.895.402-1.495.797-2.1.205-.303.303-.6.505-.997-.4-.304-.798-.502-1.3-.9.403-1.102.305-2.404 1.805-3 .197-.103.197-.608.303-.904.095-.808.19-1.708.297-2.506.197.304.303.4.493.597.057-.108.126-.21.205-.303 0-.395-.097-1.196 0-1.196 1.2-.2.7-1.5 1.3-2.1.095-.106-.102-.406-.102-.607 0-.197 0-.494.098-.494 1.394-.304 1.197-1.804 2.097-2.507.303-.2.398-.494.797-1 .797 1.4-.6 2.1-.7 3.1 1.695-1 2.196-3.4 1.197-4.1.4-.305.798-.7 1.102-1.103 1.1-1.2 2.292-2.3 3.295-3.5.702-.897 1.1-1.998 1.8-2.898.402-.502 1.2-.9 1.8-1.204 1.8-.995 3.494-2.096 4.595-3.798.2-.2.5-.398.797-.6.304-.2.904-.2 1.003-.5.102-.198-.198-.7-.4-1 .396-.2.8-.6 1.596-1.002-.304.6-.4 1.002-.6 1.405l.494.494c.904-.7 2.3-1.497 3.2-2.097 0-.094-.5-.493-.5-.493-.596.304-1.496.797-2.393 1.2l.304-.6c1.395-.9 2.792-1.8 4.292-2.507 3.494-1.594 6.995-3.197 10.493-4.697.6-.304 1.405-.1 2.1-.1.296 0 .493 0 .797-.097 1.595-.502 3.198-1.003 4.796-1.406.695-.197 1.493-.296 2.203-.296 2.99.095 5.99.095 8.986.296 1.298.1 2.498.4 3.698.798 1.54.535 3.04 1.17 4.497 1.9 1.698.91 3.297 1.905 4.9 3.006 2.897 1.9 5.593 4.003 8.49 5.704 2.8 1.7 4.998 4.003 6.798 6.608 2.202 3.098 4.697 5.9 5.696 9.702l1.496 6.608c.304 1.2 1.003 2.4.703 3.797-.505 2.507-.904 5.108-1.303 7.61-.197 1.007-.398 2.013-.296 3 .19 3.114-1.006 5.81-2.202 8.613-.403.9-1.003 1.804-1.5 2.803.244.17.513.307.797.4l.9-1.8c.102 0 .102 0 .2.104-.5 1.397-.9 2.9-1.405 4.302-1.192 3.103-2.392 6.304-3.892 9.304-.798 1.7-2.203 3.102-3.198 4.71-.995 1.396-1.796 2.896-2.795 4.2-.9 1.1-1.796 2.2-3 3-2.696 2-5.494 4-8.392 5.604-1.796 1.1-3.896 1.7-5.894 2.202l.027-.01zm-53.268-5.316l-.1.1c-.208-.098-.508-.196-.705-.398l-2.4-3.607c-.2-.296-.305-.596-.2-.995 1.103 1.7 2.204 3.304 3.4 4.9h.004zm62.164 13.707c4.493-1.898 8.192-4.595 11.583-7.7.506-.502 1.003-1 1.603-1.406 4.2-2.596 7.29-6.2 10.094-10.203 3.197-4.602 5.297-9.805 7.9-14.707.175-.38.374-.747.595-1.102-.2 11.408 1.1 22.614 2.597 33.923-11.29.4-22.785.8-34.375 1.2l.003-.003zm101.328-3l-.398.608c-.103-.205-.103-.505-.202-.91-.6 1.605-1.898.804-2.798.804-5.393.1-10.892.1-16.292.1-5.194 0-10.488 0-15.683.092-1.7 0-3.5.4-5.203.502-4.093.197-8.19.303-12.288.398-.304 0-.6-.493-1.102-.896-.176.315-.376.616-.6.9-.106-.197-.303-.395-.505-.695-.098.305-.2.6-.303.8h-.29c-.2-1.4-.6-2.698-.6-4.103 0-3 .305-6 .4-9.007.102-1.398 0-2.696 0-4.003.402.304.702.505 1.1.798.198-.39.4-.69.6-.988 0 0-.2-.106-.402-.303.19-.103.395-.304.395-.403.1-.303.304-.6.304-.796 0-.703-.206-1.303-.305-1.9.1 0 .198 0 .304-.105l.595 3h.304c-.403-.696.895-1.3-.202-2.098-.1-.102.1-.702.1-1.002-.305-.596-.495-1.196-.8-1.998.1-.098.4-.2.7-.303-.4-.2-.7-.396-1-.495 1-.904 1-1.405.1-2.404.205-.094.402-.094.402-.19 0-.903 0-1.803-.197-2.695-.2-1.01.304-2.203-1.2-2.81.092.284.227.553.4.797 0 0-.305.103-.6.304-1.3-1.204-.495-2.81-.8-4.606.7.2 1.2.402 1.7.607-.203-.706-.7-1.507-1-2.407h-.406v-6.608c0 .103.698.103 1.1.205l.096-.303-1.1-1.3.2-.2c-.798-.995-.4-2.393-.4-2.697v-7.006c1.004 1.004-.493 2.302 1.004 2.902v-.998h-.103l-.197-4.504h-.198l-.206.505h-.197l.6-23.917c.998 1.3 2.096 2.507 2.795 3.798 2.3 4.207 5.297 7.81 8.096 11.612 2.4 3.304 4.595 6.904 6.797 10.307 2.697 4.1 5.294 8.202 7.994 12.304 2.007 3.106 4.07 6.178 6.19 9.21 1.898 2.697 3.903 5.302 5.9 7.908 1.694 2.3 3.494 4.602 5.19 6.903 2.003 2.804 4 5.603 6 8.306.996 1.398 2.097 2.8 3.19 4.2.61.798 1.505 1.405 2.105 1.9-.095 0-.198 0-.395-.1.304.4.494.7.7.9 1.1.6 1.2 1.2.6 2.104l.006-.023zm5.097-25.01v-.702c0 .197.098.493 0 .7v.002zm3.398-44.126c-.1 0-.697-.607-.796-.706-.103.304 0 .6-.2 1.003-.104-.296-.8-.198-.8-.494l.495 4.2c.303-.2 1.5-.304 1.8-.6.1.1.303.198.4.198-2 1.505-1.5 3-.6 4.71.2.395.8 1.196.2 1.997-.2.2.1.798.2 1.303h.292v.19l-.9.303c-.197-.304-1.393-.896-1.393-1.405v5.112c.997.303.997 1.7 1.396 2.403.176-.243.313-.512.407-.797l.102.09c-.102.6-.2 1.2-.402 1.805-.198.897-.4 1.698-.494 2.598l.19.4c-1.095 2.505-.495 5.3-.894 7.898-.303 1.9 0 3.91-.2 5.91-.206 1.7-.61 3.5-1.003 5.2-.103.305-.304.4-.798.6.198-1.2.1-2-.102-3.1l-1.508-.7c0 1.405.797 3.304 1.1 4.9-.303-.1-1.5-.8-1.594-.8-.204 1.2-.204 2.804-.303 4.102-.102 1.003-.998 1.9-1.1 3 0 .608.698 1.003.6 2.006h.797c0-1.998.903-3.798.903-5.902h.297c.102.202.402.403.303.502-.2 1.1-.607 2.3-.5 3.402 0 .6.493 1.2.303 1.9-.205.606-.304 1.203-.406 2.103-.103-.503-.202-.7-.202-1l-1.1-.103c-.1.6.702 1.2.6 1.702-.1.097-.198.097-.4.2l-3.296-4.808c-2.605-3.797-5.202-7.606-7.8-11.506-.673-.955-1.276-1.957-1.804-3-3.092-5.325-6.53-10.44-10.29-15.315-2.894-3.698-5.203-7.708-7.9-11.6-2.49-3.703-4.99-7.307-7.488-11.013-.9-1.196-1.998-2.298-2.8-3.6-2.592-4.1-4.898-8.305-7.487-12.407-2.203-3.406-4.595-6.71-6.897-10.01-.797-1.1-1.595-2.305-2.4-3.505-.124-.21-.192-.447-.197-.69-.2-2.203-.403-4.406-.5-6.506 0-2.002.2-4.003.2-6.107v-1.8l.095-1.405.296-.395c-2.897 0-5.897-.107-8.795 0-1.9.095-2.898-.707-4.197-2.108-3.798-4.302-6.596-9.205-9.893-13.807-3.107-4.38-6.272-8.718-9.493-13.014-2.6-3.502-5.203-6.904-7.796-10.405-2.9-4.004-5.696-8.006-8.696-12.01-3.6-4.8-7.298-9.607-10.993-14.407-1.708-2.202-3.607-4.302-5.506-6.607 1.303.205 2.507.402 3.703.505l4.8.305c3.596.292 7.192.493 10.785.987 3 .406 6 1.006 9.098 1.504 6.6 1.1 13.094 2.905 19.39 5.005 3.7 1.2 7.292 2.803 10.9 4.303 8.088 3.304 15.785 7.307 23.38 11.507 2.393 1.302 3.798 3.402 5.59 5.305 2.6 2.704 5.203 5.404 7.697 8.202 2.894 3.304 5.59 6.707 8.393 10.11 2.495 3 5.088 6 7.595 9.007.797.9 1.405 2 2.096 3 1.596 2.404 3.4 4.71 4.797 7.306.995 1.906 1.595 4.11 2.294 6.21.996 3.1 1.998 6.1 3 9.204.696 2.3 1.292 4.71 1.793 7.1.403 1.608.304 3.305.798 4.9l.608 6.513c.095.2.19.5.297.702.398.394.698.797.098 1.397-.095.098-.095.493 0 .797.205-.197.304-.4.505-.7 0 .203.095.305.095.4 0 .395-.102.798 0 1.196 0 .198.198.494.296.7.2-.206.398-.305.797-.61.9 3.408 1.002 6.81 1.002 10.312 0 3.303.596 6.607-.798 9.808.296-1.1-.403-2.107-.103-3.106l.04.027z"/><path fill="#dd3735" d="M217.057 172.437c.095 0 .197.103.197.103l-.102-.114c0-.095 0-.095-.1 0l.005.01zm15.786 98.87c-1.1.8-2.203 1.5-3.6 1.8l-.205-.303c1.1-.698 2.297-1.397 3.4-2.1l.4.596.005.008zm-187.375-135.6c1.1-1.393 2.203-2.794 3.395-4.195.095.1.893.304.995.4-1.1 1.404-2.6 3.302-3.7 4.802-.204-.2-.504-.9-.7-1.002l.01-.004zm-28.386 49.045c-.797-1.7-1.595-3.505-2.392-5.202.278-.176.58-.312.896-.403 1.1 1.595 1.595 3.494 2.4 5.203 0 0-.798.4-.9.4l-.004.002zm25.49-48.038l-1.8 2.81c-.1-.106-1.2.395-1.3.297.6-.9 2.096-2.506 2.696-3.402.103.1.2.2.403.304v-.008zm179.58 138.703l.198-.1c.7.1 1.497.2 2.298.2-1.306.9-2.108.796-2.506-.1h.01zm-179.39-134.5c.105-.303.302-.6.504-.9.197 0 .493-.1.493-.1.406-.7.406-1.2.804-1.8l-.303-.203c-.596.41-1.196.912-1.796 1.31.202.198.202.304.202.502-.798-.103-1.102.304-1.5 1.397-.1.304-.6.403-1.102.798-.098.206-.197.707-.398 1.205l.102.106c-.2.202-.5.305-.5.305l-1.9 1.697c-.1.304-.197.6-.197.9.703-.7 1.9-2 2.8-2.802l.102.102 1.1-1.8.2.304c-.305.797-.6 1.694-.9 2.495-.21.1-.51.305-.51.202l-1.1 1-1.798 1.2c-.998.9-1.997 1.696-3.098 2.6-.7 1.1-1.398 2.1-2.203 3.403 1.204-.304 1.504.2 1.405 1.203 1.398.198 1.5-.9 1.9-1.7.098-.206.2-.608.398-.707.9-.797 1.898-1.495 2.897-2.297.2-.2.2-.607.2-.903 0-.1-.504-.1-.804-.202.9-1.002 2.202-2.696 3.098-3.797.5-.303 1-.705 1-1.005-.1-1.102.6-1.398 1.404-1.8-.403-.304-.505-.597-.505-.695l.004-.012zm2.004-1.1l-1.197 2-.6-.303c-.4 2.298-1.8 4.3-3.198 4.698.4.2.797.402 1.1.304.297-.103.495-.608.696-.904l2.696-3.904.904-1.504-.4-.398-.002.01zm-33.274 43.93c.502 0 1.003.098 1.595.098l.505-.7h.304l.1 1.406h-2.097c-.104-.1-.503-.705-.404-.804h-.004zm-.797-4.603c-.304-.304-.798-.6-.798-.9-.102-.395.198-.893.494-1.394.206.7.305 1.3.502 2-.102.096-.2.2-.2.297l.003-.003zm2.5-6.407c.397 1.01.796 2.112 1.2 3.114-.286.094-.554.228-.8.4l-1.298-3.103c.27-.193.576-.33.9-.402l-.003-.008zm222.454 95.674c.493-.197 1.093-.303 1.898-.493-.904.695-1.603 1.196-2.203 1.796-.102-.1-.2-.2-.303-.2l.607-1.102zM112.815 56.965l1.698-1.102.197.198c-.606.797-1.1 1.595-1.803 2.6-.098-.694-.098-1.1-.2-1.594l.102-.098.006-.004zm29.28 50.63c.9-.4 1.8-.796 2.896-1.3-.098.6-.098 1-.098 1.404-.323-.117-.66-.186-1.003-.205-.6.102-1.7.904-2.202 1.002-.094 0 .403-.797.403-.9h.005zm74.96 84.86c.198.998 2.097 1.5.198 2.498l.896.51c-.023.15-.092.29-.197.402-.2.095-.6.296-.797.19-.103 0-.304-.395-.304-.597 0-.9.102-1.8.2-3l.005-.003z"/></g></svg>
