<svg xmlns="http://www.w3.org/2000/svg" style="isolation:isolate" viewBox="0 0 1361.762 1536.001"><defs><clipPath id="a"><path d="M0 0h1361.762v1536H0z"/></clipPath></defs><title>Logo CSS3</title><g fill-rule="evenodd" clip-path="url(#a)"><path fill="#1572B6" d="M1239.362 1371.13l120.82-1353.378L1361.762 0H0l1.58 17.752 120.69 1353.6 1.006 11.29 10.872 3.01L675.732 1536h8.69l543.06-150.57 10.87-3.01 1.01-11.29z"/><path fill="#35A8DB" d="M1256.812 96h-575.93v1341.36l467.76-129.69L1256.812 96z"/><g fill="#E9E9E8"><path d="M680.242 456.36L274.03 625.538l13.473 167.493 392.74-167.92 417.77-178.613 17.32-171.34-435.09 181.204z"/><path d="M680.242 275.163h435.09l-3.43 33.914-3.43 33.91-3.43 33.912-3.43 33.92-3.43 33.912-.17 1.763H258.617l-.597-4.846-3.43-27.754-3.43-27.744-3.43-27.755-3.428-27.744-3.428-27.745-3.43-27.747h442.803zm-405.586 350.4h808.596l-14.73 169.4-780.393-1.93-13.475-167.47z"/><path d="M299.922 887.39l176.88.07 11.542 138.51 191.898 47.59 197.01-55.29 13.33-226.51 178.46-2.8-32 367.92-356.16 103.97-358.725-105.89-22.235-267.57z"/></g><g fill="#FFFFFE"><path d="M680.882 624.834l417.13-178.338 17.32-171.34-434.45 180.936v168.742z"/><path d="M680.882 275.163h434.45l-3.43 33.914-3.43 33.91-3.43 33.912-3.43 33.92-3.43 33.912-.17 1.763h-417.13V275.163zm0 350.4h402.37l-14.73 169.4-387.64-.96V625.56z"/><path d="M680.882 1073.38l196.37-55.11 13.33-226.51 178.46-2.8-32 367.92-356.16 103.97v-187.47z"/></g></g></svg>
