<svg xmlns="http://www.w3.org/2000/svg" viewBox="0 0 512 314" xmlns:xlink="http://www.w3.org/1999/xlink" preserveAspectRatio="xMidYMid"><defs><linearGradient id="b" x1="68.188%" x2="27.823%" y1="17.487%" y2="89.755%"><stop stop-color="#41873F" offset="0%"/><stop stop-color="#418B3D" offset="32.88%"/><stop stop-color="#419637" offset="63.52%"/><stop stop-color="#3FA92D" offset="93.19%"/><stop stop-color="#3FAE2A" offset="100%"/></linearGradient><path id="a" d="M57.903 1.85a5.957 5.957 0 0 0-5.894 0L3.35 29.933c-1.85 1.04-2.89 3.005-2.89 5.085v56.286c0 2.08 1.156 4.045 2.89 5.085l48.657 28.084a5.957 5.957 0 0 0 5.893 0L106.56 96.39c1.85-1.04 2.89-3.006 2.89-5.086V35.02c0-2.08-1.156-4.046-2.89-5.086L57.904 1.85z"/><linearGradient id="d" x1="43.277%" x2="159.245%" y1="55.169%" y2="-18.306%"><stop stop-color="#41873F" offset="13.76%"/><stop stop-color="#54A044" offset="40.32%"/><stop stop-color="#66B848" offset="71.36%"/><stop stop-color="#6CC04A" offset="90.81%"/></linearGradient><linearGradient id="e" x1="-4413.77%" x2="5327.93%" y1="13.43%" y2="13.43%"><stop stop-color="#6CC04A" offset="9.192%"/><stop stop-color="#66B848" offset="28.64%"/><stop stop-color="#54A044" offset="59.68%"/><stop stop-color="#41873F" offset="86.24%"/></linearGradient><linearGradient id="f" x1="-4.389%" x2="101.499%" y1="49.997%" y2="49.997%"><stop stop-color="#6CC04A" offset="9.192%"/><stop stop-color="#66B848" offset="28.64%"/><stop stop-color="#54A044" offset="59.68%"/><stop stop-color="#41873F" offset="86.24%"/></linearGradient><linearGradient id="g" x1="-9713.77%" x2="27.93%" y1="36.21%" y2="36.21%"><stop stop-color="#6CC04A" offset="9.192%"/><stop stop-color="#66B848" offset="28.64%"/><stop stop-color="#54A044" offset="59.68%"/><stop stop-color="#41873F" offset="86.24%"/></linearGradient><linearGradient id="h" x1="-103.861%" x2="100.797%" y1="50.275%" y2="50.275%"><stop stop-color="#6CC04A" offset="9.192%"/><stop stop-color="#66B848" offset="28.64%"/><stop stop-color="#54A044" offset="59.68%"/><stop stop-color="#41873F" offset="86.24%"/></linearGradient><linearGradient id="i" x1="130.613%" x2="4.393%" y1="-211.069%" y2="201.605%"><stop stop-color="#41873F" offset="0%"/><stop stop-color="#418B3D" offset="32.88%"/><stop stop-color="#419637" offset="63.52%"/><stop stop-color="#3FA92D" offset="93.19%"/><stop stop-color="#3FAE2A" offset="100%"/></linearGradient></defs><title>Logo Node.js</title><g fill="none"><path fill="#539E43" d="M253.11 313.094c-1.733 0-3.35-.462-4.854-1.27l-15.37-9.13c-2.313-1.273-1.157-1.735-.463-1.966 3.12-1.04 3.698-1.272 6.934-3.12.347-.232.81-.116 1.156.115l11.79 7.05c.46.23 1.04.23 1.385 0l46.115-26.698c.462-.23.694-.694.694-1.27v-53.28c0-.58-.232-1.04-.694-1.273l-46.115-26.582c-.462-.232-1.04-.232-1.386 0l-46.115 26.582c-.462.23-.694.81-.694 1.27v53.28c0 .464.232 1.04.694 1.273l12.598 7.28c6.82 3.468 11.095-.577 11.095-4.622v-52.587c0-.693.578-1.387 1.387-1.387h5.894c.695 0 1.388.577 1.388 1.386v52.587c0 9.13-4.97 14.447-13.638 14.447-2.658 0-4.738 0-10.633-2.89l-12.135-6.934c-3.005-1.733-4.854-4.97-4.854-8.437v-53.28c0-3.468 1.85-6.705 4.854-8.438l46.114-26.698c2.89-1.618 6.82-1.618 9.71 0l46.113 26.698c3.004 1.733 4.854 4.97 4.854 8.437v53.28c0 3.466-1.85 6.703-4.855 8.436l-46.115 26.698c-1.503.694-3.236 1.04-4.854 1.04zm14.216-36.637c-20.225 0-24.386-9.246-24.386-17.105 0-.694.578-1.387 1.387-1.387h6.01c.693 0 1.27.462 1.27 1.156.926 6.126 3.584 9.13 15.835 9.13 9.708 0 13.87-2.195 13.87-7.396 0-3.005-1.157-5.2-16.297-6.703-12.598-1.27-20.457-4.044-20.457-14.1 0-9.36 7.86-14.91 21.035-14.91 14.793 0 22.075 5.087 23 16.18 0 .35-.116.695-.347 1.042-.232.23-.578.462-.925.462h-6.01c-.577 0-1.155-.462-1.27-1.04-1.387-6.356-4.97-8.437-14.447-8.437-10.633 0-11.905 3.7-11.905 6.472 0 3.35 1.503 4.39 15.834 6.24 14.216 1.85 20.92 4.508 20.92 14.447-.116 10.17-8.437 15.95-23.116 15.95z"/><path fill="#333" d="M110.028 104.712c0-2.08-1.156-4.046-3.005-5.086l-49.004-28.2c-.81-.463-1.735-.694-2.66-.81H54.9c-.924 0-1.85.347-2.658.81l-49.004 28.2c-1.85 1.04-3.005 3.005-3.005 5.086l.117 75.817c0 1.04.578 2.08 1.502 2.542.924.578 2.08.578 2.89 0l29.124-16.643c1.85-1.04 3.005-3.006 3.005-5.086v-35.482c0-2.08 1.154-4.045 3.004-5.085l12.366-7.166c.925-.577 1.965-.81 3.005-.81 1.04 0 2.08.233 2.89.81l12.366 7.167c1.85 1.04 3.006 3.004 3.006 5.085v35.482c0 2.08 1.156 4.045 3.005 5.085l29.126 16.642c.925.578 2.08.578 3.005 0 .926-.463 1.504-1.503 1.504-2.543l-.116-75.818zM345.57.347c-.923-.463-2.08-.463-2.89 0-.923.578-1.5 1.502-1.5 2.542v75.124c0 .693-.347 1.386-1.04 1.85-.694.345-1.388.345-2.08 0l-12.252-7.05a5.957 5.957 0 0 0-5.895 0l-49.004 28.315c-1.85 1.04-3.006 3.004-3.006 5.084v56.516c0 2.08 1.156 4.046 3.005 5.086l49.003 28.316a5.957 5.957 0 0 0 5.895 0l49.004-28.316c1.85-1.04 3.005-3.005 3.005-5.086V21.844c0-2.196-1.156-4.16-3.005-5.2L345.572.346zm-4.506 143.776c0 .578-.23 1.04-.694 1.27l-16.758 9.71a1.714 1.714 0 0 1-1.503 0l-16.76-9.71c-.462-.23-.693-.808-.693-1.27v-19.417c0-.578.23-1.04.694-1.27l16.76-9.71a1.714 1.714 0 0 1 1.502 0l16.758 9.71c.463.23.694.808.694 1.27v19.417zm167.584-19.88c1.85-1.04 2.89-3.004 2.89-5.085v-13.753c0-2.08-1.156-4.045-2.89-5.085l-48.657-28.2a5.957 5.957 0 0 0-5.893 0l-49.004 28.315c-1.85 1.04-3.005 3.005-3.005 5.086v56.517c0 2.08 1.155 4.045 3.005 5.085l48.657 27.738c1.85 1.04 4.045 1.04 5.78 0L489 178.45c.925-.463 1.503-1.503 1.503-2.543 0-1.04-.578-2.08-1.503-2.543l-49.235-28.316c-.924-.577-1.502-1.502-1.502-2.542v-17.683c0-1.04.578-2.08 1.502-2.543l15.372-8.784a2.82 2.82 0 0 1 3.005 0l15.37 8.784c.926.578 1.504 1.502 1.504 2.543v13.87c0 1.04.578 2.08 1.502 2.54.925.58 2.08.58 3.005 0l29.125-16.99z"/><path fill="#539E43" d="M456.293 121.586a1.05 1.05 0 0 1 1.155 0l9.362 5.432c.347.23.578.577.578 1.04v10.864c0 .462-.23.81-.578 1.04l-9.362 5.432a1.05 1.05 0 0 1-1.155 0l-9.362-5.432c-.346-.23-.577-.578-.577-1.04v-10.864c0-.463.23-.81.578-1.04l9.363-5.432z"/><g transform="translate(134.068 70.5)"><mask id="c"><use xlink:href="#a"/></mask><use fill="url(#b)" xlink:href="#a"/><g mask="url(#c)"><path d="M51.893 1.85L3.12 29.933C1.27 30.973 0 32.94 0 35.02v56.286c0 1.387.578 2.658 1.502 3.698L56.285 1.156c-1.387-.23-3.005-.116-4.392.693zm4.74 123.203c.46-.116.924-.347 1.386-.578L106.79 96.39c1.85-1.04 3.005-3.005 3.005-5.085V35.02c0-1.503-.694-3.006-1.734-4.046l-51.43 94.08z"/><path fill="url(#d)" d="M106.676 29.934L57.788 1.85a8.025 8.025 0 0 0-1.503-.578L1.502 95.12a6.082 6.082 0 0 0 1.62 1.387l48.887 28.085c1.386.81 3.004 1.04 4.506.577l51.432-94.08c-.347-.46-.81-.81-1.272-1.155z"/></g><g mask="url(#c)"><path d="M109.797 91.305V35.02c0-2.08-1.27-4.046-3.12-5.086L57.787 1.85a5.106 5.106 0 0 0-1.85-.693l53.512 91.42c.23-.347.346-.81.346-1.27zM3.12 29.935C1.272 30.974 0 32.94 0 35.02v56.286c0 2.08 1.387 4.045 3.12 5.085l48.89 28.086c1.155.693 2.426.925 3.813.693L3.467 29.817l-.346.116z"/><path fill="url(#e)" fill-rule="evenodd" d="M50.39-8.437l-.692.347h.924l-.23-.347z"/><path fill="url(#f)" fill-rule="evenodd" d="M106.792 105.636c1.387-.81 2.427-2.196 2.89-3.698l-53.63-91.536c-1.386-.23-2.89-.116-4.16.693l-48.54 27.97 52.354 95.465a8.057 8.057 0 0 0 2.196-.693l48.89-28.2z" transform="translate(0 -9.246)"/><path fill="url(#g)" fill-rule="evenodd" d="M111.3 95.466l-.347-.578v.81l.346-.232z"/><path fill="url(#h)" fill-rule="evenodd" d="M106.792 105.636L58.02 133.72a6.973 6.973 0 0 1-2.197.694l.925 1.734 54.09-31.32v-.694l-1.388-2.312c-.23 1.618-1.27 3.005-2.658 3.814z" transform="translate(0 -9.246)"/><path fill="url(#i)" fill-rule="evenodd" d="M106.792 105.636L58.02 133.72a6.973 6.973 0 0 1-2.197.694l.925 1.734 54.09-31.32v-.694l-1.388-2.312c-.23 1.618-1.27 3.005-2.658 3.814z" transform="translate(0 -9.246)"/></g></g></g></svg>
