<svg xmlns="http://www.w3.org/2000/svg" viewBox="0 0 400 400"><title>Logo Zurb Foundation</title><path fill="#074f68" d="M59.68 0h280.66c16.8 1.67 33.09 9.48 44.03 22.48 9.07 10.32 14.16 23.64 15.63 37.21v282.66c-1.66 16.34-9.04 32.21-21.45 43.12-7.56 6.92-16.9 11.63-26.68 14.53H48.2c-16.55-4.56-31.32-15.56-39.71-30.61-4.84-8.26-7.33-17.62-8.49-27.07V59.66C1.48 46.11 6.56 32.8 15.62 22.49 26.56 9.48 42.86 1.66 59.68 0m77.03 113.31c.03 57.79.03 115.59 0 173.38 14.85.06 29.71.07 44.56-.01-.06-22.85-.04-45.71-.02-68.57 26.79.01 53.58-.2 80.36.11.31-12.85.09-25.71.1-38.57-26.83.14-53.66 0-80.5.06.04-9.14.03-18.28.02-27.43 27.36.07 54.72.04 82.07.02-.04-13-.05-26 0-38.99-42.2-.06-84.4-.07-126.59 0z"/><path fill="#fefffe" d="M136.71 113.31c42.19-.07 84.39-.06 126.59 0-.05 12.99-.04 25.99 0 38.99-27.35.02-54.71.05-82.07-.02.01 9.15.02 18.29-.02 27.43 26.84-.06 53.67.08 80.5-.06-.01 12.86.21 25.72-.1 38.57-26.78-.31-53.57-.1-80.36-.11-.02 22.86-.04 45.72.02 68.57-14.85.08-29.71.07-44.56.01.03-57.79.03-115.59 0-173.38z"/></svg>
