<svg xmlns="http://www.w3.org/2000/svg" style="isolation:isolate" viewBox="0 0 566 566"><defs><clipPath id="a"><path d="M0 0h566v566H0z"/></clipPath></defs><title>Logo Gulpjs</title><g clip-path="url(#a)"><path fill="#D34A47" d="M352.157 548.77l5.427-90.43 14.985-25.58s-34.107 13.952-91.206 13.952c-57.1 0-90.69-13.694-90.69-13.694l16.795 27.904 5.94 87.848c0 9.418 31.06 17.052 69.374 17.052 38.313 0 69.373-7.634 69.373-17.052m-17.12-422.295L346.43 81.45l63.08-66.376L392.884.914 326.1 71.62l-13.226 53.793c-9.954-.334-19.913-.5-29.873-.497-70.335 0-127.354 8.016-127.354 17.902 0 9.887 57.02 17.902 127.355 17.902 70.336 0 127.354-8.015 127.354-17.902 0-7.28-30.924-13.546-75.316-16.343"/><path fill="#FFF" d="M328.412 151.69s-2.467.553-9.724.584c-7.26.03-12.413-.047-14.466-1.917-.552-.502-.854-1.5-.85-2.174.005-1.285.917-2.042 2.08-2.516l1.098 1.724c-.478.166-.75.36-.752.57-.004.975 7.422 1.643 13.102 1.57 5.68-.07 12.545-.537 12.55-1.5 0-.29-.518-.564-1.42-.78l1.093-1.712c1.472.457 2.757 1.34 2.754 2.868-.014 2.598-3.32 2.993-5.465 3.284"/><path fill="#D34A47" d="M409.386 15.205c1.586-1.832-.82-6.518-5.376-10.465-4.557-3.945-9.537-5.66-11.126-3.827-1.587 1.832.82 6.518 5.378 10.463 4.555 3.946 9.537 5.662 11.124 3.83zm-60.263 312.68c-1.495-14.383 31.462-35.215 23.004-35.882-18.208 1.04-27.27 21.338-36.43 42.596-3.358 7.79-14.845 41.012-22.38 36.922-7.53-4.088 9.766-31.407 14.614-47.63-5.593 4.1-26.108 20.04-31.395 5.113-8.5 7.22-26.663 11.13-24.614-7.833-4.52 8.01-14.67 19.193-26.852 14.546-15.998-6.1 9.27-57.062 15.553-54.49 6.285 2.57-1.267 14.178-3.245 18.686-4.35 9.92-9.375 22.393-6.018 24.946 5.75 4.374 21.4-16.547 21.75-17.007 2.926-3.867 11.265-29.166 17.986-26.26 6.72 2.904-16.764 36.307-7.983 42.936 1.77 1.337 9.017-.826 13.425-5.595 2.852-3.085 1.87-9.918 11.378-32.59 9.507-22.67 17.98-50.905 24.5-48.754 6.52 2.15 1.146 16.642-1.193 22.044-10.976 25.354-29.956 67.24-21.005 64.07 8.95-3.17 13.612-3.356 22.377-13.613 8.765-10.256 8.36-27.15 14.203-26.792 5.844.36 4.863 5.777 3.446 9.902 5.75-6.58 27.257-20.438 32.45-6.713 6.15 16.25-30.77 39.72-21.565 38.523 8.975-1.167 23.515-10.376 29.723-18.75l17.088-153.625s-17.195 14.23-126.59 14.23c-109.394 0-124.81-13.934-124.81-13.934l14.548 140.225c7.722-21.947 26.06-66.34 54.963-64.85 13.148.68 30.7 25.996 15.665 26.854-6.364.36-7.01-12.638-14.546-14.547-5.438-1.378-13.01 3.043-17.902 7.833-9.758 9.55-30.745 47.23-27.972 66.014 3.533 23.95 33.048-8.322 38.042-17.903 3.517-6.75 5.893-26.745 13.585-24.647 7.692 2.098-.672 22.734-6.248 40.98-6.264 20.486-9.557 42.097-17.408 39.61-7.852-2.483 4.938-28.93 4.475-33.565-7.38 6.81-20.977 24.047-38.37 15.515l9.034 87.078s24.013 18.973 96.35 18.973c72.337 0 97.24-18.676 97.24-18.676l11.218-100.857c-9.18 8.938-38.23 24.81-40.09 6.92"/></g></svg>
