<svg xmlns="http://www.w3.org/2000/svg" width="2000" height="2008.276" xmlns:xlink="http://www.w3.org/1999/xlink"><defs><linearGradient id="a"><stop offset="0" stop-color="#070135"/><stop offset="1" stop-color="#612d50"/></linearGradient><linearGradient id="b" x1="314.624" x2="427.377" y1="547.206" y2="432.484" xlink:href="#a" gradientUnits="userSpaceOnUse" gradientTransform="translate(-52)"/></defs><title>Logo Bootstrap</title><g transform="translate(-3987.602 -6644.883) scale(15.62304)"><rect width="128.016" height="128.546" x="255.239" y="425.326" fill="url(#b)" ry="20.68"/><path fill="#fff" d="M320.213 480.665c3.27 0 5.75-.71 7.437-2.133 1.69-1.422 2.533-3.52 2.533-6.294 0-2.737-.844-4.817-2.533-6.24-1.688-1.457-4.167-2.186-7.437-2.186h-11.478v16.853h11.478m.7 34.827c4.168 0 7.294-.87 9.378-2.613 2.12-1.744 3.18-4.375 3.18-7.895 0-3.45-1.04-6.027-3.124-7.734-2.084-1.74-5.228-2.612-9.43-2.612h-12.18v20.852h12.18m19.292-28.64c4.455 1.28 7.904 3.644 10.347 7.093 2.443 3.45 3.664 7.68 3.664 12.694 0 7.68-2.624 13.404-7.87 17.173-5.244 3.768-13.22 5.653-23.926 5.653h-34.436v-79.628h31.15c11.172 0 19.255 1.67 24.25 5.013 5.03 3.344 7.544 8.695 7.544 16.055 0 3.876-.915 7.182-2.748 9.92-1.832 2.702-4.49 4.71-7.975 6.027" style="line-height:100%;-inkscape-font-specification:Sans Bold" font-weight="bold" font-size="109.797" letter-spacing="0" word-spacing="0" text-anchor="middle" font-family="Sans"/></g></svg>
