<svg xmlns="http://www.w3.org/2000/svg" style="isolation:isolate" viewBox="0 0 1255 1205.551"><defs><clipPath id="a"><path d="M0 0h1255v1205.55H0z"/></clipPath></defs><title>Logo jQuery</title><g fill="#0868ab" clip-path="url(#a)"><path d="M79.628 281.334C-31.392 440.884-17.56 648.472 67.234 818.02c2.02 4.067 4.132 8.063 6.216 12.073 1.33 2.522 2.583 5.126 3.966 7.62.777 1.503 1.655 2.966 2.47 4.402 1.45 2.707 2.924 5.27 4.428 7.914 2.634 4.637 5.34 9.252 8.094 13.866 1.53 2.537 3.038 5.07 4.614 7.605 3.058 4.94 6.19 9.835 9.397 14.703 1.336 2.078 2.634 4.16 4.005 6.17 4.42 6.6 8.94 13.187 13.6 19.65l.39.5c.74 1.045 1.558 2.064 2.303 3.1 4.03 5.566 8.195 11.052 12.393 16.496 1.55 1.974 3.12 3.957 4.677 5.943 3.75 4.72 7.573 9.405 11.456 14.082 1.456 1.744 2.912 3.5 4.38 5.218 5.21 6.132 10.53 12.248 15.972 18.246l.322.334.61.658c5.307 5.798 10.732 11.473 16.233 17.133 1.703 1.74 3.45 3.5 5.198 5.242 4.26 4.278 8.587 8.48 12.96 12.706 1.775 1.676 3.533 3.406 5.297 5.027 5.84 5.504 11.738 10.893 17.755 16.153.105.106.18.188.28.227 1.02.913 2.08 1.788 3.086 2.63 5.306 4.6 10.7 9.162 16.132 13.643 2.214 1.784 4.453 3.555 6.682 5.324 4.44 3.556 8.925 7.057 13.448 10.504 2.387 1.825 4.782 3.65 7.19 5.476 4.984 3.648 10.006 7.28 15.085 10.81 1.853 1.342 3.642 2.626 5.502 3.905.51.36.98.738 1.502 1.083 4.816 3.3 9.733 6.51 14.648 9.687 2.112 1.407 4.213 2.857 6.345 4.224 7.547 4.764 15.2 9.485 22.938 14.063 2.107 1.19 4.225 2.375 6.338 3.565 5.688 3.286 11.41 6.507 17.217 9.66 3.133 1.688 6.358 3.285 9.518 4.894 4.105 2.16 8.17 4.332 12.328 6.397.945.483 1.924.94 2.857 1.384 1.662.804 3.353 1.597 5.036 2.443 6.454 3.082 12.96 6.102 19.52 9.036 1.402.617 2.75 1.235 4.14 1.84 7.52 3.285 15.105 6.464 22.777 9.483 1.84.737 3.697 1.446 5.55 2.186 7.09 2.724 14.274 5.418 21.483 7.955.918.324 1.8.617 2.7.923 7.923 2.778 15.918 5.34 23.972 7.852 1.918.562 3.85 1.182 5.782 1.742 8.196 2.466 16.286 5.406 24.75 6.975 536.878 97.9 692.83-322.634 692.83-322.634-130.973 170.637-363.47 215.655-583.75 165.535-8.348-1.877-16.44-4.48-24.582-6.895-2.07-.616-4.096-1.23-6.136-1.863-7.948-2.442-15.83-5-23.67-7.7-1.073-.374-2.16-.775-3.25-1.168-7.022-2.467-13.96-5.07-20.875-7.74-1.95-.78-3.904-1.516-5.848-2.294-7.577-2.99-15.11-6.12-22.536-9.376-1.537-.648-2.998-1.33-4.5-2.003-6.39-2.884-12.71-5.793-19.02-8.825-1.812-.886-3.638-1.744-5.49-2.642-4.937-2.4-9.832-4.964-14.7-7.472-3.266-1.718-6.587-3.353-9.81-5.14-5.96-3.19-11.807-6.505-17.623-9.884-1.98-1.114-3.97-2.175-5.957-3.314-7.74-4.56-15.386-9.284-22.952-14.073-2.086-1.324-4.13-2.75-6.19-4.116-5.488-3.544-10.955-7.138-16.327-10.87-1.784-1.178-3.512-2.492-5.264-3.688-5.2-3.66-10.336-7.39-15.443-11.158-2.31-1.705-4.594-3.476-6.84-5.18-4.675-3.58-9.33-7.175-13.93-10.893-2.073-1.65-4.16-3.31-6.21-4.978-5.858-4.813-11.64-9.642-17.354-14.607-.597-.536-1.246-1.048-1.898-1.594-6.172-5.434-12.248-11-18.237-16.596-1.743-1.663-3.432-3.27-5.136-4.948-4.447-4.213-8.812-8.48-13.105-12.838-1.717-1.718-3.45-3.422-5.138-5.125-5.465-5.607-10.825-11.267-16.082-17.02-.262-.284-.538-.538-.793-.847-5.56-6.08-10.993-12.29-16.312-18.567-1.442-1.718-2.843-3.38-4.272-5.074-3.963-4.776-7.894-9.62-11.732-14.515-1.45-1.742-2.888-3.554-4.314-5.35-4.613-5.998-9.134-11.964-13.56-18.057-122.306-166.79-166.243-396.88-68.5-585.837m257.97-24.524c-80.287 115.542-75.926 270.18-13.3 392.378 10.503 20.484 22.308 40.35 35.514 59.278 12.025 17.237 25.354 37.747 41.315 51.59 5.796 6.372 11.84 12.597 18.017 18.702 1.563 1.612 3.16 3.126 4.755 4.708 5.988 5.793 12.092 11.524 18.397 17.076.26.217.49.468.753.642l.173.19c6.976 6.106 14.177 11.99 21.495 17.774 1.624 1.232 3.233 2.537 4.877 3.807 7.33 5.623 14.81 11.164 22.48 16.424.228.16.424.322.652.51 3.382 2.322 6.834 4.506 10.256 6.748 1.65 1.075 3.213 2.215 4.87 3.218 5.472 3.504 11.022 6.926 16.662 10.21.797.498 1.583.9 2.355 1.357 4.86 2.803 9.792 5.566 14.737 8.233 1.725.98 3.482 1.826 5.24 2.737 3.414 1.786 6.828 3.595 10.31 5.34.5.244 1.045.48 1.547.698 7.077 3.485 14.22 6.843 21.505 10.008 1.55.68 3.157 1.3 4.748 1.957 5.816 2.468 11.703 4.884 17.608 7.15 2.508.953 5.044 1.852 7.552 2.78 5.358 1.985 10.754 3.807 16.176 5.633 2.455.78 4.864 1.582 7.32 2.334 7.716 2.387 15.346 5.416 23.39 6.756 414.52 68.686 510.227-250.476 510.227-250.476-86.275 124.215-253.335 183.526-431.61 137.242-7.913-2.078-15.715-4.344-23.464-6.79-2.374-.72-4.707-1.5-7.058-2.28-5.513-1.782-10.995-3.684-16.426-5.657-2.49-.9-4.972-1.81-7.41-2.75-5.96-2.295-11.842-4.655-17.677-7.136-1.592-.683-3.21-1.29-4.765-2.01-7.316-3.18-14.52-6.547-21.632-10.035-3.655-1.803-7.242-3.69-10.836-5.527-2.08-1.086-4.175-2.16-6.257-3.233-4.625-2.512-9.205-5.098-13.732-7.74-1.065-.617-2.186-1.194-3.27-1.853-5.62-3.287-11.148-6.666-16.622-10.14-1.69-1.087-3.314-2.257-5.004-3.355-3.616-2.346-7.225-4.72-10.767-7.123-7.638-5.257-15.077-10.784-22.402-16.39-1.69-1.33-3.387-2.63-5.045-3.958-78.04-61.614-139.878-145.817-169.285-241.275-30.82-99.025-24.184-210.152 29.21-300.35m224.25-7.83c-47.328 69.65-51.976 156.148-19.134 233.078 34.63 81.654 105.59 145.71 188.426 176.067 3.415 1.275 6.82 2.416 10.29 3.583 1.504.47 3.003.98 4.53 1.423 4.88 1.542 9.727 3.327 14.772 4.276 228.882 44.227 290.962-117.457 307.488-141.255-54.39 78.3-145.77 97.097-257.908 69.892-8.86-2.175-18.6-5.366-27.133-8.398-10.946-3.892-21.73-8.344-32.22-13.374-19.907-9.567-38.883-21.182-56.49-34.465-100.333-76.138-162.676-221.378-97.198-339.67"/></g></svg>
