<svg xmlns="http://www.w3.org/2000/svg" viewBox="0 0 561.8 499.8"><defs><style>.a{fill:#00d8ff;}.b{fill:none;stroke:#00d8ff;stroke-width:24px;}</style></defs><title>Logo ReactJS</title><circle cx="280.9" cy="249.43" r="50.17" class="a"/><path d="M280.9 147.43c67.36 0 129.93 9.67 177.11 25.91 56.84 19.57 91.79 49.23 91.79 76.09 0 28-37 59.5-98.08 79.73-46.15 15.29-106.88 23.27-170.82 23.27-65.55 0-127.63-7.49-174.29-23.44C47.57 308.81 12 276.89 12 249.43c0-26.64 33.37-56.08 89.41-75.62 47.36-16.5 111.48-26.38 179.49-26.38zm-88.79 51.29C225.76 140.38 265.39 91 303 58.24c45.35-39.46 88.5-54.92 111.77-41.5 24.25 14 33 61.81 20.07 124.8-9.81 47.61-33.23 104.21-65.18 159.6-32.72 56.78-70.22 106.86-107.34 139.27-47 41.07-92.4 55.93-116.19 42.21-23.08-13.31-31.9-56.92-20.83-115.23 9.35-49.27 32.83-109.75 66.81-168.67zm.08 102.56C158.45 243 135.46 184 125.88 135c-11.54-59-3.38-104.08 19.87-117.54C170 3.44 215.8 19.71 263.89 62.4c36.35 32.28 73.68 80.84 105.72 136.18 32.84 56.73 57.46 114.21 67 162.58 12.12 61.21 2.31 108-21.45 121.74-23.06 13.35-65.25-.79-110.24-39.5-38-32.71-78.68-83.25-112.76-142.12z" class="b"/></svg>
