<svg xmlns="http://www.w3.org/2000/svg"><path d="M47.459 43.006l-3.438-.854-.041-.017c-.411-.137-.658-.429-.658-.912l-.003-.033v-16.434c0-13.497-10.97-16.413-18.146-16.413-3.353 0-7.497.868-11.033 2.916l-.88-2.144-13.261 1.428v5.202l5.877 1.005c.321.134.524.373.564.743v10.003l.01-.012v13.751999999999999c0 .483-.247.775-.658.913l-.078.031-3.25.825v6.16h18.788v-6.16l-3.143-.878c-.378-.146-.604-.43-.604-.892l-.002-.021v-16.709c0-6.998 6.311-6.998 7.639-6.998h.032c1.144 0 3.225.207 4.853 1.384 1.316.946 2.338 2.517 2.338 5.114v10.262h-.002v6.865l-.008.09c0 .483-.247.775-.658.912l-.007.004-3.106.867v6.16h18.875999999999998v-6.16zm10.114-18.5c0-6.998 6.269-6.998 7.588-6.998 2.062 0 7.175.666 7.175 6.498v.526l-14.764-.026zm0 8.415h25.734v-8.165c0-13.497-10.971-16.413-18.146-16.413-7.424 0-18.724 3.666-18.724 15.58v10.414c0 11.914 11.547 15.664 18.971 15.664 8.991 0 13.927-2.809 17.556-4.975v-6.523h-10.05s-2.887 2.75-7.506 2.75c-1.32 0-7.835-.5-7.835-7.498v-.834zm41.054 5.416v-20.907h10.33v-8.253h-10.33v-9.176l-11.248 1.207v7.969h-3.759v8.253h3.759v21.073c0 10.914 9.998 10.914 13.414 10.914 4.582 0 9.83-2.5 9.83-2.5v-7.498h-5.914s-1 1.25-3.584 1.25c-1.666 0-2.498-.666-2.498-2.332"/></svg>
