<svg xmlns="http://www.w3.org/2000/svg" viewBox="0 0 299 103.3" enable-background="new 0 0 299 103.3"><style type="text/css">.st0{fill:#EE7D10;}</style><path d="M129.4 9.4c13.1-9.5 30.6-11.4 46.1-7.4 12.6 3.2 23.7 11.9 29.4 23.7 2.4 4.8 4 9.9 4.8 15.1.9 5.6 1.1 11.3.6 17-1.3 14.2-8.4 28-20.2 36.3-13.1 9.5-30.6 11.5-46 7.1-9.8-2.8-18.8-8.8-24.7-17.2-5.5-7.7-8.4-16.9-9.2-26.2-.5-5.7-.3-11.4.6-17 2.1-12.3 8.5-24.1 18.6-31.4m27.6 8.4c-6.1.7-12 3.4-16 8.1-6.1 7-8 16.7-8.1 25.8.1 9.1 2 18.7 8.1 25.7 9.6 11 28.9 11 38.5.1 6.2-7 8.2-16.7 8.3-25.8-.1-9.1-2-18.9-8.2-25.9-5.5-6.4-14.4-8.9-22.6-8zm-157-13.1c0-1.2-.1-3.2 1.7-2.8 6.4-.1 12.8-.1 19.2 0 .6 21.1 0 42.3.3 63.4.3 6.6 3.5 13.4 9.6 16.4 8.1 3.9 19.3 2.6 24.8-5 4-5.4 4-12.5 3.8-19v-50.9c.1-1.6-.2-3.3.4-4.7 6.8-.2 13.7-.5 20.5.1.7 12.8.1 25.7.3 38.5v17c.2 10.8-1.2 22.3-7.7 31.2-5.8 8.1-15.4 12.5-25.1 13.7-10 1.2-20.7.7-29.9-3.8-7.3-3.5-12.8-10.2-15.3-17.9-2-5.8-2.6-12-2.6-18.2v-58zm241.2-2.6c6.8-.4 13.6-.3 20.3-.1l.5 1.6c.1 12.4 0 24.7 0 37.1v42.1c12.2.1 24.4-.3 36.5.2.9 5.9.1 12.1.4 18.1-3.4.5-6.8.3-10.1.3h-45.1c-1.1 0-3.3.1-2.8-1.7-.1-14 0-28.1 0-42.1v-51c0-1.4-.2-3 .3-4.5zm41 .3c6.4-2.3 13.9 2.5 14.6 9.2 1.2 7.1-5.9 13.9-13 12.4-6.1-.8-10.5-7.4-9-13.3.8-3.8 3.7-7.1 7.4-8.3m.7 2.3c-2.8.9-4.8 3.4-5.5 6.1-1.3 4.5 1.7 9.7 6.3 10.7 5.4 1.5 11-3.4 10.6-8.9 0-5.5-6.1-10.1-11.4-7.9zm-1.8 2.3c3.1.3 7.5-1.1 9.5 1.9 1.4 2-.5 3.8-1.7 5.2l2.2 4.5h-3.1c-.6-1.5-1.2-2.9-1.7-4.4h-2.4v4.4h-2.8v-11.6m2.8 1.9v3.6c1.7-.2 3.7.1 4.5-1.8-.8-1.9-2.8-1.6-4.5-1.8z"/><path class="st0" d="M31.8 40.7h27.7v17h-27.7v-17zm48.8 0h30.4c-.9 5.6-1.1 11.3-.6 17h-29.7c-.1-5.7-.1-11.3-.1-17zm129.2 0h31.1v17h-30.5c.5-5.7.3-11.4-.6-17zm52.2 0h27.8v17h-27.8v-17z"/></svg>