<svg xmlns="http://www.w3.org/2000/svg" viewBox="0 0 266.2 75.9" enable-background="new 0 0 266.2 75.9"><style type="text/css">.st0{fill:#FFFFFF;} .st1{fill:#231F20;} .st2{fill:#F18225;}</style><path class="st0" d="M125.2 2.6c.6-1.2 3.8-.6 4.1.9-1.5.2-2.9-.1-4.1-.9zm-1.2 5.7c-1.8-1.8-.8-4.6 1.1-5.8-.3 2.2-.3 4.3-.2 6.5l1.5-2.5 3.3 2.9c-1.8-.2-4.5 1.1-5.7-1.1zm5.2-4.9l.4.1c.9 1 1.4 4-.3 4.4-.8-1.3-.2-3-.1-4.5zm-3 1.1c3-1.7.3 3.2 0 0z"/><path class="st1" d="M53.8 7.8c8.7-10.7 27.7-10.4 35.7 1 2 2.8 3.3 6.1 3.9 9.5.3 2.4.3 4.8.2 7.2-.5 5.7-3 11.3-7.4 15-8.1 7.2-21.4 7.3-29.7.4-9.3-8.1-10.1-23.5-2.7-33.1m13.5.7c-4.5 1.5-7.3 6-7.9 10.6-.7 5-.3 10.7 2.9 14.9 4.5 5.8 14.7 5.4 18.6-.9 3.2-5.5 3.4-12.7.9-18.5-2.3-5.5-9.1-8.1-14.5-6.1zm58.3-7.6c3.8-1.1 7.7 3.3 5.9 6.9-1.3 3.3-6.1 4.1-8.4 1.4-2.5-2.6-.9-7.4 2.5-8.3m-.4 1.7c1.3.8 2.6 1.1 4.1.9-.4-1.5-3.5-2.1-4.1-.9m-1.2 5.7c1.1 2.2 3.9.9 5.8 1.1l-3.3-2.9-1.5 2.5c-.1-2.2-.1-4.3.2-6.5-2 1.2-3 4-1.2 5.8m5.2-4.9c-.1 1.4-.7 3.2.1 4.5 1.6-.4 1.2-3.3.3-4.4l-.4-.1m-3 1.1c.3 3.2 3-1.7 0 0zm-126.1-3.6h9.4v26.5c-.1 3.2.7 6.9 3.7 8.6 3.6 2.1 9.2 1.8 11.6-1.9 1.8-2.4 1.6-5.6 1.7-8.5v-24.7c3.2 0 6.3 0 9.5.1-.1 5.7-.1 11.4 0 17.1v7.4c.2 5.8-.8 12.2-5.4 16.2-5.6 4.7-13.7 5-20.5 3.1-5.9-1.7-9.6-7.6-9.9-13.5-.2-10.1 0-20.3-.1-30.4zm106.8 0h9.5v35.9h16.3v8.3c-8.6 0-17.2.1-25.8 0-.1-14.8 0-29.5 0-44.2zm-103.2 55.3c1.8-1.6 4.3-4.3 6.7-2.6-2.1 1.2-4.2 2.5-6.7 2.6zm17.5-3.7c1.7.5 3.1 1.5 4.5 2.5 1.2-.9 2.3-2.2 4-2.4-.6 2-2.6 3.8-4.7 3.9-1.6-.9-2.7-2.5-3.8-4zm107.8 3.9c1.6-1.9 4.2-4.4 6.8-2.8-2.1 1.2-4.3 2.3-6.8 2.8zm-128.9 1.8l1.6-1.2c.4 4.7-.2 9.5.4 14.2.7 3.9 7 4 8.6.7.8-4.7-.1-9.4.6-14.1.4-.2 1.2-.5 1.5-.7 0 4.7.3 9.4-.1 14.1-.9 6-11.4 6.2-12.4.1-.3-4.3-.4-8.7-.2-13.1zm21 .4c2-1.3 4.5-1.6 6.8-1.1 1.2.5 3.5.7 2.7 2.6-2.6-.5-5.5-1.9-8.1-.3-4.1 2.4-4.1 8.7-1.6 12.3 2.5 2.9 6.6 2.2 9.7.9.3 2.9-3.6 2.7-5.6 2.8-8.2-.2-10.2-12.9-3.9-17.2zm13.3-1c3 0 6.1-.2 9.1.1l.9 1.4c-2.7.2-5.4.2-8.2.2v6c2.5 0 5.1-.3 7.5.4l-.3 1.1c-2.4.3-4.8.1-7.3.1v7c2.8 0 5.6 0 8.3.1l-.9 1.3c-3 .4-6.1.1-9.2.2.1-5.9.1-11.9.1-17.9zm12 0c3.3-.3 6.6 0 9.9-.2l.5 1.6-4.6.3v16.2l-1.8.1v-16.3l-4.8-.3c.1-.3.6-1 .8-1.4zm13.8-.2l3.3.3c2.9 5.4 5.1 11.3 8.2 16.7.2-5.7 0-11.3.1-17l1.8.1-.1 18h-3.4c-2.7-5.6-5.1-11.3-8.1-16.7-.3 5.7 0 11.3-.2 17l-1.7-.5c-.1-5.9-.2-11.9.1-17.9zm32.3.5c2.4-.9 5-.6 7.3.4 4-1.3 8.2-.5 12.3-.7v1.7h-4.3c-.2 5.4.3 10.8-.2 16.2l-1.6.4v-16.5c-2-.2-4-.3-5.9-.5l.6 1.6c-2.6-1-5.6-2.2-8.2-.6-4.1 2.6-4.1 8.9-1.4 12.5 2.4 2.7 6.3 2 9.3.8l.3 1.7c-2.6.9-5.3 1.6-8 .6-7.1-2.8-7.2-14.8-.2-17.6zm20.7-.6l1.8.5c2 5.4 3 11.1 4.7 16.6 2.2-5.3 3.1-11.1 5.1-16.5l2-.7c-1.6 6.3-3.8 12.4-5.5 18.6-1 0-2 .1-2.9.1-1.7-6.2-3.7-12.4-5.2-18.6zm17.9.5l1.6-.5c.1 3 0 6.1 0 9.1v1.4c0 2.7 0 5.3-.1 8-.4-.1-1.3-.3-1.8-.3.3-5.9-.1-11.8.3-17.7zm24.9 8.4c-.3-5.7 5.6-10.4 11.1-8.7 8.1 2 8.2 15.6.2 17.9-5.1 1.9-11.2-2-11.2-7.6l-.1-1.6m5.4-6.5c-3.8 2-4.4 7.3-2.8 11 2 4.5 9.1 4.6 11.5.5 1.5-2.9 1.5-6.8-.2-9.6-1.8-2.8-5.7-3.2-8.5-1.9zm17.1-2.1h3.3c2.8 5.6 5.3 11.3 8.2 16.8.3-5.5-.2-11 .2-16.5l1.5-.7c.1 3.1.1 6.1.1 9.2v1.4c0 2.6 0 5.2-.1 7.8h-3.2c-2.9-5.5-5.1-11.3-8.3-16.7l-.1 17-1.6-.5c-.3-5.9.2-11.9 0-17.8zm36.8-.5c.4.2 1.2.5 1.5.7.5 5.3-.1 10.7.1 16.1h7.3l.1 1.6h-9.2v-9.1l.2-9.3zm13.3.9c.4-.3 1.2-.8 1.6-1 .2 6.2 0 12.3.1 18.5l-1.8.3c0-5.9-.2-11.9.1-17.8zm8.2-.5h3.3c2.8 5.6 5.2 11.4 8.2 16.9l.2-17.2c.4.2 1.2.5 1.5.6.4 5.9 0 11.8.2 17.7l-3.4.1c-2.8-5.6-5.3-11.3-8.1-16.8-.5 5.6-.1 11.2-.2 16.8l-1.8-.1.1-18zm19.5.1c3 0 6.1-.3 9.1.1.2.3.6 1.1.9 1.4-2.7.2-5.4.2-8.1.2v6.1c2.5.2 5.3-.6 7.6.6-1.5 2.3-5.2.5-7.6 1.1 0 2.3 0 4.7-.1 7h7.8l-.1 1.7c-3.1-.1-6.3 0-9.4 0-.2-6.2-.1-12.2-.1-18.2zm-176.4 0h1.9c-.1 6.1.1 12.2-.1 18.2l-1.7-.4c0-5.9 0-11.9-.1-17.8z"/><path class="st2" d="M14.3 18c4 .2 8.1.1 12.1.1v7.5c-4.1 0-8.1 0-12.2.1.1-2.7.1-5.2.1-7.7zm21.6.1c4.3 0 8.7 0 13-.1-.1 2.5-.3 5-.3 7.5h-12.7v-7.4zm57.4.2c4.4-.3 8.9-.2 13.3-.2v7.5c-4.4 0-8.8 0-13.1-.1.1-2.4.1-4.9-.2-7.2zm23.1-.2h12c0 2.5.1 5 .1 7.6l-12-.1c-.2-2.6-.2-5.1-.1-7.5zm16.3 48.3c7.7-.3 15.5 0 23.2-.2l.1 1.6-23.3-.1v-1.3zm59.2 0c7.8-.2 15.6-.2 23.3 0v1.4c-7.8.1-15.6 0-23.3 0v-1.4z"/></svg>