<svg viewBox="0 0 400 155" xmlns="http://www.w3.org/2000/svg"><g fill="#fff"><path d="M193.1 42.29c.61-1.19 3.78-.56 4.06.88-1.46.21-2.81-.08-4.06-.88zM191.95 48.04c-1.78-1.8-.82-4.57 1.15-5.75-.29 2.15-.33 4.32-.19 6.48l1.51-2.49c1.11.95 2.21 1.91 3.31 2.87-1.87-.22-4.63 1.04-5.78-1.11zM197.16 43.17l.42.06c.94 1.05 1.35 4.02-.3 4.4-.82-1.31-.24-3.02-.12-4.46zM194.16 44.19c2.95-1.63.29 3.27 0 0z"/></g><g fill="#231f20"><path d="M121.71 47.5c8.65-10.68 27.7-10.36 35.68.96 1.99 2.82 3.25 6.13 3.88 9.52.26 2.39.31 4.8.21 7.21-.54 5.67-3 11.27-7.37 15.02-8.07 7.21-21.43 7.32-29.73.45-9.27-8.11-10.05-23.56-2.67-33.16m13.53.76c-4.52 1.48-7.34 6.03-7.88 10.59-.66 5.05-.33 10.68 2.88 14.86 4.49 5.81 14.72 5.42 18.57-.91 3.24-5.53 3.36-12.69.9-18.53-2.31-5.42-9.02-8-14.47-6.01zM193.58 40.67c3.76-1.1 7.72 3.29 5.88 6.9-1.26 3.33-6.13 4.1-8.38 1.37-2.55-2.61-.97-7.42 2.5-8.27m-.48 1.62c1.25.8 2.6 1.09 4.06.88-.28-1.44-3.45-2.07-4.06-.88m-1.15 5.75c1.15 2.15 3.91.89 5.78 1.11-1.1-.96-2.2-1.92-3.31-2.87l-1.51 2.49c-.14-2.16-.1-4.33.19-6.48-1.97 1.18-2.93 3.95-1.15 5.75m5.21-4.87c-.12 1.44-.7 3.15.12 4.46 1.65-.38 1.24-3.35.3-4.4l-.42-.06m-3 1.02c.29 3.27 2.95-1.63 0 0zM68.08 40.63c3.12-.02 6.24-.02 9.36-.03.01 8.82 0 17.65 0 26.47-.06 3.17.72 6.9 3.7 8.6 3.6 2.14 9.18 1.78 11.63-1.94 1.79-2.45 1.64-5.61 1.66-8.49-.02-2.5-.03-4.99-.03-7.48.02-5.72.02-11.44.01-17.16 3.15 0 6.31-.01 9.46.09-.07 5.7-.06 11.4-.02 17.11.02 2.48.03 4.95.01 7.43.15 5.76-.84 12.18-5.36 16.21-5.56 4.72-13.71 5-20.45 3.08-5.88-1.67-9.62-7.57-9.86-13.49-.24-10.13 0-20.27-.11-30.4zM174.85 40.63l9.48-.02c.02 5.72.04 11.44-.02 17.17-.04 2.47-.02 4.95 0 7.43.04 3.78.04 7.56.02 11.35l16.35-.03c.04 2.75.04 5.5.03 8.25-8.61.04-17.21.07-25.82 0-.1-14.72-.06-29.43-.04-44.15zM71.62 95.9c1.76-1.58 4.26-4.29 6.73-2.56-2.1 1.16-4.25 2.47-6.73 2.56zM89.15 92.23c1.68.47 3.12 1.48 4.54 2.47 1.23-.9 2.35-2.18 3.96-2.38-.61 2-2.56 3.83-4.7 3.89-1.65-.91-2.73-2.49-3.8-3.98zM196.96 96.09c1.59-1.9 4.2-4.45 6.81-2.81-2.13 1.24-4.37 2.36-6.81 2.81zM68.09 97.96c.39-.3 1.19-.92 1.58-1.23.42 4.73-.18 9.5.39 14.21.73 3.89 6.98 4.03 8.56.71.84-4.65-.14-9.43.57-14.1.39-.16 1.16-.48 1.54-.65.04 4.69.29 9.41-.12 14.08-.95 6.03-11.38 6.24-12.39.13-.27-4.37-.38-8.77-.13-13.15zM89.07 98.32c2-1.3 4.54-1.56 6.84-1.05 1.24.46 3.49.69 2.66 2.55-2.64-.48-5.52-1.9-8.06-.3-4.09 2.45-4.09 8.69-1.6 12.29 2.48 2.88 6.62 2.2 9.71.9.26 2.86-3.57 2.73-5.56 2.84-8.36-.22-10.27-12.97-3.99-17.23zM102.31 97.28c3.02.03 6.07-.23 9.09.11l.91 1.4c-2.73.16-5.45.15-8.18.16.01 2.01.01 4.02.01 6.04 2.51.02 5.09-.33 7.53.39l-.28 1.14c-2.41.3-4.84.14-7.26.13.01 2.35.01 4.69-.01 7.04 2.78 0 5.56-.01 8.35.14l-.95 1.27c-3.03.44-6.11.12-9.16.24-.06-6.02.02-12.04-.05-18.06zM114.34 97.37c3.28-.29 6.59-.02 9.88-.17l.46 1.55c-1.54.12-3.08.21-4.61.31.03 5.39 0 10.79.01 16.19l-1.81.13c-.02-5.44-.01-10.87-.01-16.31-1.61-.08-3.21-.18-4.81-.29.22-.35.67-1.05.89-1.41zM128.13 97.14c1.1.06 2.2.17 3.3.34 2.92 5.45 5.14 11.27 8.21 16.65.17-5.65.01-11.3.06-16.95l1.76.14c-.05 6-.04 12.01-.08 18.01-.85 0-2.54-.02-3.39-.03-2.66-5.58-5.15-11.25-8.1-16.68-.29 5.66.02 11.34-.24 17.01-.43-.13-1.29-.4-1.72-.54.05-5.98-.09-11.97.2-17.95zM160.43 97.58c2.35-.93 4.99-.6 7.28.39 3.96-1.27 8.17-.52 12.26-.72v1.68l-4.27.03c-.16 5.39.25 10.81-.19 16.2-.41.11-1.23.32-1.64.42.02-5.49-.01-10.98.03-16.46-1.98-.17-3.97-.27-5.94-.53l.65 1.56c-2.6-1.01-5.58-2.23-8.23-.62-4.08 2.55-4.06 8.92-1.38 12.47 2.45 2.68 6.31 2 9.29.76l.27 1.73c-2.55.86-5.34 1.55-7.97.57-7.03-2.67-7.13-14.68-.16-17.48zM181.15 97l1.79.49c1.98 5.41 3.01 11.14 4.74 16.64 2.23-5.31 3.14-11.06 5.13-16.46.49-.17 1.48-.53 1.97-.71-1.63 6.25-3.76 12.35-5.51 18.56-.98.03-1.96.07-2.93.11-1.71-6.22-3.65-12.37-5.19-18.63zM199.06 97.49l1.6-.5c.07 3.04.03 6.08.03 9.13v1.41c.01 2.67.01 5.34-.06 8.01-.44-.08-1.33-.26-1.78-.35.19-5.89-.22-11.81.21-17.7zM223.91 105.97c-.33-5.68 5.58-10.44 11.06-8.66 8.07 2.02 8.17 15.61.2 17.86-5.14 1.88-11.18-1.98-11.18-7.57l-.08-1.63m5.48-6.55c-3.84 2.03-4.38 7.34-2.8 11 1.96 4.48 9.1 4.64 11.49.47 1.53-2.95 1.52-6.77-.2-9.64-1.83-2.7-5.69-3.16-8.49-1.83zM246.46 97.28h3.33c2.77 5.6 5.27 11.33 8.23 16.84.27-5.51-.17-11.04.23-16.54.38-.17 1.15-.51 1.54-.68.12 3.07.06 6.14.06 9.21v1.44c.01 2.61 0 5.22-.09 7.83-1.08-.02-2.15-.03-3.22-.03-2.89-5.49-5.12-11.34-8.31-16.67-.1 5.66.03 11.32-.06 16.97l-1.57-.51c-.47-5.94.04-11.91-.14-17.86zM283.27 96.85c.39.18 1.16.54 1.55.73.55 5.34-.06 10.74.13 16.11 2.44.03 4.89.03 7.34-.01l.07 1.61c-3.07 0-6.14 0-9.21-.01.03-2.59.05-5.16.04-7.74v-1.39c-.01-3.1-.03-6.21.08-9.3zM296.51 97.72c.39-.26 1.19-.76 1.58-1.01.22 6.16.02 12.33.12 18.5l-1.78.29c.05-5.92-.2-11.87.08-17.78zM304.7 97.26l3.3-.01c2.83 5.57 5.24 11.36 8.23 16.85.21-5.72-.03-11.45.16-17.17.39.15 1.16.46 1.55.62.44 5.88.02 11.8.17 17.71l-3.39.08c-2.79-5.55-5.25-11.26-8.11-16.77-.45 5.59-.11 11.21-.19 16.81l-1.8-.09c.09-6.01.07-12.02.08-18.03zM324.21 97.32c3.02-.02 6.06-.25 9.07.05.22.35.65 1.05.86 1.4-2.68.19-5.37.19-8.06.15-.01 2.03-.03 4.05-.01 6.08 2.49.15 5.28-.6 7.57.6-1.47 2.33-5.2.53-7.56 1.06-.01 2.34-.05 4.67-.07 7.01 2.58.02 5.17.04 7.76.01l-.11 1.65c-3.14-.05-6.28-.03-9.42.01-.06-6.01-.01-12.02-.03-18.02zM147.87 97.32l1.87.03c-.12 6.08.08 12.16-.13 18.24l-1.73-.41c.03-5.96.03-11.91-.01-17.86z"/></g><g fill="#f18225"><path d="M82.28 57.69c4.04.15 8.08.11 12.12.07 0 2.49.01 4.98.03 7.48-4.05-.02-8.1-.01-12.15.06-.02-2.54 0-5.07 0-7.61zM103.85 57.8c4.33 0 8.66.03 12.99-.06-.13 2.51-.25 5.01-.32 7.52-4.22-.01-8.44.01-12.66-.03.02-2.48.01-4.95-.01-7.43zM161.27 57.98c4.44-.29 8.89-.24 13.34-.17 0 2.49 0 4.98-.01 7.46-4.38-.04-8.75-.02-13.12-.08.1-2.41.05-4.82-.21-7.21zM184.31 57.78c3.98.01 7.97.03 11.96-.04.02 2.53.05 5.05.06 7.58l-12.02-.11c-.02-2.48-.04-4.96 0-7.43zM200.69 106.12c7.74-.28 15.48-.04 23.22-.15l.08 1.63c-7.76-.08-15.53-.01-23.3-.07v-1.41zM259.85 106.11c7.78-.18 15.56-.23 23.34.04v1.39c-7.78.09-15.56-.02-23.34.01v-1.44z"/></g></svg>
