<svg width="512pt" height="512pt" viewBox="0 0 512 512" xmlns="http://www.w3.org/2000/svg"><g fill="#00fc01"><path d="M0 0h110.17c.08 37.33 0 74.67.04 112 .07 5.38.08 10.77-.39 16.13-11.83.6-23.68.08-35.52.22-.61 6.2-.52 12.43-.46 18.65-.08 18.08-.05 36.16.25 54.23-12.23.22-24.45-.02-36.67.13.01 36.43.02 72.86-.01 109.28 12.23.13 24.46-.11 36.68.13-.42 21.74-.23 43.49-.26 65.24.05 2.54.31 5.06.48 7.59 11.84.06 23.69-.41 35.52.21.17 2.72.39 5.45.4 8.19-.07 40 .01 80-.04 120h-110.19v-512zM365.32 0h146.68v512h-146.7c.11-42.69-.01-85.37.05-128.06 12.08-.91 24.21-.21 36.31-.36.25-16.19.03-32.39.11-48.58.1-7.92-.42-15.86.55-23.74 11.79-1.26 23.68-.27 35.51-.58 1.27-12.14-.87-24.32.36-36.45 12.12-.93 24.29-.07 36.44-.5-.08-11.82-.07-23.64-.01-35.46-5.21-.11-10.42-.05-15.62-.31-6.94-.42-13.88.68-20.81-.17-1.19-12.14.86-24.33-.36-36.47-11.84-.31-23.72.64-35.52-.52-.96-8.24-.43-16.53-.54-24.8-.07-15.88.12-31.76-.09-47.64-12.11-.23-24.25.56-36.33-.41-.04-42.65.03-85.3-.03-127.95z"/></g><g fill="#393939"><path d="M110.17 0h255.15c.06 42.65-.01 85.3.03 127.95 12.08.97 24.22.18 36.33.41.21 15.88.02 31.76.09 47.64.11 8.27-.42 16.56.54 24.8 11.8 1.16 23.68.21 35.52.52 1.22 12.14-.83 24.33.36 36.47 6.93.85 13.87-.25 20.81.17 5.2.26 10.41.2 15.62.31-.06 11.82-.07 23.64.01 35.46-12.15.43-24.32-.43-36.44.5-1.23 12.13.91 24.31-.36 36.45-11.83.31-23.72-.68-35.51.58-.97 7.88-.45 15.82-.55 23.74-.08 16.19.14 32.39-.11 48.58-12.1.15-24.23-.55-36.31.36-.06 42.69.06 85.37-.05 128.06h-255.11c.05-40-.03-80 .04-120-.01-2.74-.23-5.47-.4-8.19-11.83-.62-23.68-.15-35.52-.21-.17-2.53-.43-5.05-.48-7.59.03-21.75-.16-43.5.26-65.24 11.96.13 23.93-.02 35.89.06.09 24.09-.08 48.18.09 72.27 24.3.14 48.6.01 72.9.07.09 12.27-.01 24.55.04 36.82 36.33.02 72.65.02 108.98 0 .04-12.28-.03-24.55.03-36.83 24.31-.03 48.61.05 72.92-.03.15-24.1-.02-48.21.08-72.31 12.29-.06 24.59.07 36.88-.06v-109.52c-12.29-.13-24.59-.01-36.88-.06-.09-24.18.05-48.36-.06-72.54-24.31-.11-48.61-.05-72.91-.03-.12-12.2 0-24.4-.06-36.6-12-.02-23.99-.02-35.98 0-.03 60.66 0 121.33-.01 181.99-12.08-.01-24.16.05-36.24-.03-.03-60.65-.03-121.29 0-181.93-12.25-.08-24.5-.03-36.75-.03-.06 12.2.07 24.4-.06 36.6-24.29-.02-48.58-.09-72.87.03-.19 24.18 0 48.36-.1 72.53-11.96.08-23.93-.07-35.89.06-.3-18.07-.33-36.15-.25-54.23-.06-6.22-.15-12.45.46-18.65 11.84-.14 23.69.38 35.52-.22.47-5.36.46-10.75.39-16.13-.04-37.33.04-74.67-.04-112zM37.42 201.36c12.22-.15 24.44.09 36.67-.13-.15 36.51-.15 73.03 0 109.54-12.22-.24-24.45 0-36.68-.13.03-36.42.02-72.85.01-109.28z"/></g><path fill="#fff" d="M183.01 92.01c12.25 0 24.5-.05 36.75.03-.03 60.64-.03 121.28 0 181.93 12.08.08 24.16.02 36.24.03.01-60.66-.02-121.33.01-181.99 11.99-.02 23.98-.02 35.98 0 .06 12.2-.06 24.4.06 36.6 24.3-.02 48.6-.08 72.91.03.11 24.18-.03 48.36.06 72.54 12.29.05 24.59-.07 36.88.06v109.52c-12.29.13-24.59 0-36.88.06-.1 24.1.07 48.21-.08 72.31-24.31.08-48.61 0-72.92.03-.06 12.28.01 24.55-.03 36.83-36.33.02-72.65.02-108.98 0-.05-12.27.05-24.55-.04-36.82-24.3-.06-48.6.07-72.9-.07-.17-24.09 0-48.18-.09-72.27-11.96-.08-23.93.07-35.89-.06-.15-36.51-.15-73.03 0-109.54 11.96-.13 23.93.02 35.89-.06.1-24.17-.09-48.35.1-72.53 24.29-.12 48.58-.05 72.87-.03.13-12.2 0-24.4.06-36.6z"/></svg>