<svg width="960pt" height="452pt" viewBox="0 0 960 452" xmlns="http://www.w3.org/2000/svg"><g fill="#c1ebff"><path d="M579.44 1.7c4.97-2.37 12.96-2.66 16.22 2.48.24 9.26.05 18.54.1 27.81.37 2.8-2.59 4.25-4.86 4.86-4.24.99-9.31.92-12.84-1.94-1.29-.91-.97-2.59-1.05-3.94.06-8.69-.03-17.38.05-26.07-.13-1.5 1.22-2.53 2.38-3.2zM477.44 19.68c4.65-2.63 11.13-.24 13.03 4.74l32.09 74.71c2.24 4.34.4 10.17-3.93 12.4-4.56 2.63-11.03.51-13.03-4.37-10.83-25.12-21.6-50.25-32.38-75.38-2.05-4.34-.06-9.97 4.22-12.1zM685.23 19.24c6.92-3.07 15.02 4.58 12.24 11.65-10.63 25.16-21.55 50.21-32.27 75.33-1.21 3.46-4.42 6.18-8.13 6.41-4.65.55-9.28-2.95-10.06-7.56-.78-3.39 1.08-6.51 2.34-9.52 10.13-23.6 20.27-47.2 30.39-70.8.97-2.49 2.96-4.59 5.49-5.51zM581.5 54.66c3.66-1.03 7.75-.96 11.27.58 1.51.66 3.15 1.93 2.98 3.78.03 13.36.02 26.73.01 40.09.27 2.22-1.85 3.62-3.66 4.28-3.57 1.28-7.6 1.28-11.19.1-1.88-.68-4.2-2.04-3.89-4.38 0-13.4-.03-26.8.01-40.21-.1-2.43 2.52-3.6 4.47-4.24zM439.48 67.71c1.84-.58 4.48-1.03 5.73.85 5.61 7.18 11.2 14.36 16.75 21.58 1.49 1.78.29 4.24-.8 5.9-2.41 3.33-5.99 6.03-10.09 6.78-1.58.4-3.38-.15-4.23-1.59-5.4-6.95-10.81-13.9-16.2-20.86-1.64-1.57-.94-4 .12-5.68 2-3.21 5.16-5.7 8.72-6.98zM726.38 67.52c4.57-1.09 8.93 2.12 11.88 5.31 1.52 1.88 3.48 4.81 1.76 7.13-5.52 7.2-11.11 14.35-16.68 21.51-2.08 2.75-6.04 1.04-8.48-.29-3.46-2.19-7.56-5.64-7.01-10.16 5.04-6.97 10.55-13.61 15.73-20.48.89-1.02 1.56-2.35 2.8-3.02zM364.5 79.74c3.32-1.38 7.32-.57 9.93 1.89 20.69 17.63 41.41 35.24 62.09 52.89 5.17 4.09 3.8 13.21-2.31 15.64-3.49 1.59-7.78.75-10.5-1.9-20.69-17.67-41.46-35.25-62.12-52.95-5.08-4.27-3.34-13.4 2.91-15.57zM799.43 79.55c4.5-1.6 9.92.89 11.64 5.34 1.65 3.86.3 8.63-3.05 11.12-20.74 17.62-41.43 35.31-62.19 52.91-3.83 3.26-10.22 2.51-13.21-1.51-3.23-3.87-2.44-10.16 1.56-13.19 20.53-17.48 41.06-34.95 61.58-52.44 1.09-.92 2.28-1.8 3.67-2.23zM429.17 301.17c3.95-1.1 8.47.73 10.49 4.31 2.35 3.82 1.4 9.22-2.13 12-20.69 17.64-41.4 35.27-62.11 52.89-4.03 3.82-11.22 2.86-14.11-1.87-2.56-3.78-1.78-9.4 1.79-12.27 20.54-17.53 41.13-35 61.66-52.53 1.29-1.1 2.72-2.14 4.41-2.53zM737.51 301.59c3.29-1.43 7.33-.75 9.99 1.68 20.73 17.66 41.49 35.3 62.2 52.98 3.54 2.87 4.31 8.42 1.78 12.19-3.11 5.21-11 5.64-14.99 1.22-20.53-17.56-41.16-35-61.67-52.58-5.01-4.2-3.41-13.19 2.69-15.49zM512.41 339.63c5.25-1.95 11.58 1.96 12.19 7.52.58 3.26-1.17 6.22-2.37 9.12-9.9 23.05-19.81 46.08-29.68 69.14-1.29 4.59-5.59 8.46-10.59 7.75-6.05-.45-10.26-7.59-7.55-13.08 10.66-24.89 21.37-49.76 32.04-74.65 1.01-2.7 3.18-4.95 5.96-5.8zM654.44 339.63c4.48-1.64 9.9.84 11.64 5.27l30.7 71.45c2.09 3.95 3.66 9.1.57 13-3.79 5.72-13.56 4.79-16.1-1.62-10.85-25.16-21.64-50.34-32.44-75.52-2.25-4.81.58-11.03 5.63-12.58zM581.46 348.61c4.44-1.69 9.9-1.69 13.97.97 1.93 1.14 1.5 3.53 1.56 5.42-.07 12.68.04 25.37-.05 38.05-.08 2.72-3.25 3.79-5.44 4.38-4.03.78-8.67.63-12.06-1.93-1.47-1.02-1.23-2.93-1.25-4.46.08-13-.06-26 .07-39 0-1.77 1.79-2.78 3.2-3.43zM449.3 349.34c4.38-1.36 8.74 1.76 11.7 4.74 1.76 1.99 4.03 5.2 2.07 7.76-5.59 7.18-11.13 14.4-16.76 21.55-1.44 1.91-4.23 1.21-6.14.54-3.95-1.65-7.66-4.67-9.1-8.81-.96-2.29 1.13-4.01 2.31-5.68 5.39-6.62 10.27-13.72 15.92-20.1zM718.44 349.53c1.97-.74 4.81-1.21 6.14.89 5.73 7.56 11.9 14.83 17.3 22.61.08 4.63-4.02 8.06-7.71 10.17-2.4 1.23-6.24 2.55-8.06-.23-5.3-6.81-10.57-13.64-15.89-20.44-.77-1-1.73-2.2-1.23-3.55 1.2-4.52 5.27-7.76 9.45-9.45zM578.36 418.28c1.53-3.11 5.56-3.67 8.67-3.86 3.45.02 7.86.46 9.78 3.76.38 9.28.07 18.59.15 27.88.36 3.88-4.26 4.84-7.04 5.94h-4.62c-2.02-.69-4.09-1.39-5.81-2.66-1.73-1.21-1.19-3.53-1.3-5.31.16-8.58-.21-17.18.17-25.75z"/></g><g><path d="M839.38 146.55c7.04-2.22 15.03 3.18 15.8 10.47 1.12 7.1-5.03 14.14-12.18 14.12-6.57.26-12.62-5.45-12.76-12.01-.34-5.65 3.72-11.08 9.14-12.58zM262.43 164.01c5.7-.05 11.4-.07 17.09.02l-.01 116.49c-5.69 0-11.38.01-17.07 0-.02-4.35.02-8.69-.03-13.03-6.4 8.7-16.69 14.07-27.37 15.1-12.39 1.16-25.47-2.36-34.81-10.78-9.04-7.99-14.08-19.84-14.91-31.75-1.15-13.92 2.94-28.73 12.96-38.78 9.9-10.13 24.91-14.26 38.75-12.32 9.97 1.37 19.55 6.54 25.37 14.87.08-13.27.01-26.55.03-39.82m-38.82 41.7c-6.31 1.8-11.91 5.96-15.35 11.55-4.92 7.91-5.86 17.83-4 26.83 1.73 8.32 7.05 16.05 14.84 19.74 11.12 5.26 25.82 3.84 34.7-5.08 7.1-7.14 9.49-17.85 8.37-27.63-.81-7.86-4.36-15.67-10.66-20.62-7.74-6.15-18.56-7.39-27.9-4.79zM391.63 163.98c5.7 0 11.41-.02 17.11.01.04 13.28-.05 26.56.05 39.85 5.97-8.64 16-13.81 26.29-15.01 13.31-1.57 27.57 2.38 37.24 11.89 9.4 9.09 13.87 22.4 13.67 35.31.03 12.82-4.64 25.95-14.07 34.86-10.4 9.99-25.9 13.76-39.91 11.07-9.17-1.72-17.37-6.96-23.22-14.16-.09 4.24-.02 8.48-.05 12.72-5.7 0-11.41.01-17.11 0 0-38.85-.01-77.69 0-116.54m37.86 41.59c-9.89 2.46-17.52 11.02-19.68 20.87-2.28 9.95-1.06 21.21 5.18 29.56 10.69 14.43 35.39 14.57 46.3.32 5.54-7.11 7.2-16.59 6.22-25.39-.85-7.91-4.49-15.75-10.91-20.65-7.57-5.86-18-7.08-27.11-4.71zM735.66 165.6c5.69-.02 11.38.04 17.07-.03.1 8.39.01 16.78.04 25.17l24.42.01.01 14.81c-8.14.02-16.28 0-24.42.01.06 15.48-.15 30.97.11 46.44.08 5.35 1.55 12.07 7.3 14 5.77 1.66 12.23.89 17.61-1.74-.05 5.2-.01 10.41-.02 15.61-8.14 3.36-17.38 3.66-25.92 1.81-6.15-1.29-11.85-5.4-13.99-11.45-3.04-8.4-1.99-17.52-2.21-26.27-.01-12.8.01-25.61-.01-38.41-6.54.02-13.08-.01-19.61.02-.14-4.94-.05-9.88-.07-14.83 6.56-.02 13.13 0 19.69-.01-.01-8.38 0-16.76 0-25.14zM10.7 204.78c17.08-20.86 52.81-21.6 71.06-1.9-4.3 3.92-8.61 7.85-12.91 11.78-4.95-5.32-11.58-9.37-18.97-9.87-9.78-1.25-20.36 2.8-25.73 11.3-8.08 12.6-7.94 31.01 2.55 42.22 10.97 11.8 32.4 11.52 42.4-1.42 4.26 3.86 8.17 8.1 12.29 12.11-8.14 9.07-20.34 13.64-32.36 13.77-14.38.63-29.44-4.79-38.59-16.21-13.9-17.37-13.64-44.49.26-61.78zM118.54 189.78c12.24-2.87 25.6-.94 36.36 5.61 11.64 6.93 19.96 19.15 22.06 32.55 2.2 13.06-1.37 27-9.77 37.26-9.08 11.38-23.65 17.98-38.18 17.59-14.39-.09-28.6-7.05-37.29-18.55-8.81-11.35-11.78-26.85-8.08-40.7 4.2-16.59 18.23-30.04 34.9-33.76m1.96 15.94c-6.29 1.81-11.87 5.97-15.3 11.55-4.73 7.58-5.74 17.01-4.22 25.69 1.48 8.54 6.64 16.65 14.52 20.6 11.61 5.83 27.43 4.11 36.25-5.9 6.38-7.18 8.42-17.34 7.34-26.68-.83-7.79-4.36-15.51-10.58-20.43-7.75-6.2-18.62-7.45-28.01-4.83zM305.34 200.31c9.96-9.27 24.18-13.07 37.55-11.5 10.69.95 21.18 6.02 27.75 14.65 8.49 10.8 10.64 25.08 10.01 38.45l-72.01.01c.14 6.13 2.5 12.2 6.83 16.59 7.58 7.81 19.38 10.99 29.95 8.75 7.48-1.7 13.46-6.98 18.26-12.71 4.25 3.34 8.59 6.57 12.87 9.88-6.51 8.58-16.03 14.83-26.61 17.02-14.82 3.18-31.64 1.14-43.51-8.93-20.93-17.64-21.34-53.88-1.09-72.21m20.79 3.82c-9.75 3.84-17.11 13.53-17.49 24.1 17.96.01 35.92.01 53.88 0-.31-5.85-1.61-11.87-5.14-16.68-6.91-9.55-20.76-11.46-31.25-7.42zM610.92 204.95c6.05-12.45 21.54-19.15 34.8-15.41-.23 6.15-.53 12.29-.72 18.44-8.38-2.23-18.15-1.74-25.26 3.67-6.68 5.25-8.69 14.23-8.82 22.32-.04 15.52 0 31.04-.02 46.55-5.7-.01-11.39.01-17.08-.01 0-29.92-.01-59.84 0-89.76l17.08-.01c.01 4.74-.01 9.47.02 14.21zM665.18 192.96c9.73-4.91 21.31-5.64 31.79-2.89 7.5 1.96 14.43 6.51 18.51 13.19-4.4 3.37-8.85 6.68-13.24 10.05-6.76-8.73-20.28-11.87-29.7-5.72-4.89 3.1-4.74 10.77-.29 14.18 6.56 5.31 15.47 5.25 23.22 7.62 7.68 2.17 15.91 5.72 19.8 13.16 3.96 8.15 3.57 18.48-1.26 26.2-5.45 8.43-15.56 12.37-25.15 13.61-8.82.91-18.04.6-26.35-2.74-6.38-2.55-11.64-7.26-15.7-12.72 4.29-3.57 8.61-7.11 12.93-10.64 5.17 5.25 11.63 9.91 19.21 10.47 6.21.44 13.13-.51 17.93-4.81 3.92-3.45 3.61-10.16-.36-13.44-5.56-4.77-13.2-5.38-20.01-7.14-7.21-1.92-14.84-4.12-20.23-9.58-5.58-5.67-6.61-14.43-4.94-21.91 1.62-7.43 7.14-13.54 13.84-16.89zM871.33 211.17c7.17-11.92 19.89-20.23 33.65-22.14 14.46-2.25 29.9 2.37 40.47 12.55 8.56 8.02 13.67 19.37 14.55 31.02v5.79c-.91 17.11-11.87 33.18-27.57 40.1-14.1 6.45-31.31 5.65-44.67-2.24-10.55-6.12-18.54-16.5-21.63-28.3-3.35-12.29-1.47-25.92 5.2-36.78m32.13-5.6c-6.58 1.75-12.45 6.06-15.96 11.9-4.77 7.82-5.69 17.52-3.92 26.38 1.62 8.07 6.57 15.63 13.95 19.5 11.33 5.91 26.8 4.53 35.89-4.86 6.72-6.94 9.08-17.14 8.19-26.55-.66-8.02-4.09-16.04-10.42-21.18-7.61-6.27-18.38-7.63-27.73-5.19zM497.95 190.75c5.69 0 11.39-.01 17.09 0 0 17.39.02 34.78 0 52.17-.2 7.15 1.52 15.14 7.41 19.8 10.24 7.63 27.09 4.58 33.53-6.66 3.42-5.72 4.42-12.53 4.47-19.1.01-15.41 0-30.81 0-46.21 5.68-.01 11.36-.01 17.04 0v89.77h-17.04c-.02-4.66.06-9.31-.04-13.97-4.04 7.8-11.76 13.2-20.24 15.13-10.92 2.57-23.55.97-32.12-6.73-6.98-6.23-9.94-15.8-10.08-24.92-.05-19.76-.01-39.52-.02-59.28zM834.18 190.75c5.7-.01 11.41-.01 17.12 0v89.77c-5.71.01-11.41 0-17.12 0v-89.77zM798.39 257.59c6.63-3.03 15.04 1.23 16.83 8.21 2.07 6.63-2.59 14.18-9.33 15.56-6.42 1.63-13.44-2.86-14.89-9.26-1.6-5.81 1.86-12.29 7.39-14.51z"/></g></svg>