<svg viewBox="0 0 2425 749" xmlns="http://www.w3.org/2000/svg" fill-rule="evenodd" clip-rule="evenodd"><path d="M.022 374.039l216.017-374.153h432.033l216.017 374.153-216.017 374.151h-432.033l-216.017-374.151z" fill="#c12f93"/><path d="M455.279 415.591l15.849-63.561h-62.902l-15.85 63.561h62.903zm190.192-125.136l-13.868 55.615c-1.156 3.974-3.714 5.959-7.676 5.959h-80.981l-15.849 63.561h77.018c2.476 0 4.54.993 6.191 2.98 1.651 2.317 2.146 4.635 1.487 6.952l-13.869 55.615c-.825 3.972-3.384 5.958-7.676 5.958h-80.98l-20.06 81.438c-1.156 3.972-3.714 5.959-7.677 5.959h-55.473c-2.641 0-4.787-.993-6.439-2.98-1.485-1.987-1.981-4.304-1.485-6.952l19.317-77.465h-62.903l-20.059 81.438c-1.156 3.972-3.715 5.959-7.677 5.959h-55.721c-2.476 0-4.54-.993-6.191-2.98-1.485-1.987-1.981-4.304-1.485-6.952l19.316-77.465h-77.018c-2.476 0-4.54-.993-6.191-2.978-1.485-1.987-1.982-4.304-1.485-6.952l13.868-55.617c1.156-3.972 3.714-5.958 7.676-5.958h80.981l15.849-63.561h-77.018c-2.477 0-4.54-.993-6.191-2.98-1.651-2.317-2.146-4.635-1.487-6.952l13.868-55.615c.826-3.972 3.385-5.959 7.677-5.959h80.98l20.06-81.436c1.156-3.972 3.797-5.959 7.924-5.959h55.473c2.477 0 4.54.993 6.192 2.98 1.485 1.986 1.981 4.303 1.485 6.952l-19.317 77.464h62.903l20.059-81.436c1.156-3.972 3.797-5.959 7.924-5.959h55.474c2.476 0 4.54.993 6.191 2.98 1.485 1.986 1.981 4.303 1.485 6.952l-19.316 77.464h77.018c2.476 0 4.54.994 6.191 2.98 1.485 1.987 1.98 4.304 1.485 6.952z" fill="#fff"/><path d="M1690.348 214.384h262.437v41.99h-107.474v307.927h-47.485v-307.927h-107.478v-41.99zm222.449 221.447c0-19.329 2.999-37.408 8.996-54.237 5.997-16.83 14.413-31.409 25.246-43.74 10.825-12.33 23.825-21.994 38.991-28.992 15.158-6.999 31.738-10.498 49.738-10.498 14.993 0 28.574 2.583 40.741 7.748 12.16 5.165 22.741 11.581 31.738 19.246v-20.996h40.993v196.953c0 12.664 3.085 20.912 9.247 24.744 6.162 3.833 12.913 5.749 20.245 5.749l-9.498 34.991c-31.989 0-51.323-12.997-57.988-38.991-3.996 5.333-8.58 10.581-13.745 15.746-5.165 5.165-11.076 9.748-17.741 13.747-6.665 3.999-14.169 7.165-22.498 9.498-8.329 2.333-17.498 3.5-27.491 3.5-16.336 0-31.581-3.167-45.742-9.499-14.161-6.332-26.494-15.329-36.989-26.993-10.503-11.664-18.832-25.744-24.994-42.24-6.17-16.496-9.247-35.075-9.247-55.737zm126.966 94.477c12.662 0 24.665-2.999 35.992-8.998 11.335-5.999 20.826-13.83 28.495-23.494v-139.467c-8.996-6.332-18.911-11.414-29.744-15.246-10.833-3.832-22.247-5.749-34.242-5.749-11.995 0-22.993 2.332-32.994 6.998-10.001 4.665-18.581 11.247-25.74 19.745-7.167 8.498-12.748 18.746-16.752 30.743-3.996 11.997-5.997 25.161-5.997 39.49 0 13.997 2.002 26.911 5.997 38.741 4.003 11.83 9.663 21.994 16.995 30.493 7.332 8.498 15.912 15.08 25.748 19.745 9.828 4.665 20.575 6.998 32.24 6.998zm271.94-231.944c14.993 0 28.409 2.499 40.239 7.498 11.83 4.999 22.074 11.163 30.741 18.495v-19.996h40.993v253.94c0 21.661-2.834 40.157-8.502 55.486-5.66 15.33-13.745 27.911-24.241 37.741-10.495 9.831-23.079 17.079-37.743 21.745-14.664 4.665-30.992 6.998-48.992 6.998-15.661 0-30.654-1.833-44.988-5.499-14.326-3.666-27.161-9.165-38.489-16.496l16.493-38.991c7.999 6.332 17.333 11.58 28.001 15.746 10.66 4.166 23.66 6.249 38.983 6.249 23.668 0 42.241-6.165 55.743-18.495 13.494-12.331 20.245-32.326 20.245-59.986v-31.993c-6.665 7.998-16.25 15.58-28.747 22.745-12.497 7.165-27.412 10.747-44.737 10.747-14.664 0-28.998-2.916-42.994-8.748-13.997-5.832-26.321-14.33-36.989-25.494-10.66-11.164-19.248-24.828-25.74-40.99-6.5-16.163-9.75-34.742-9.75-55.737 0-19.329 3.164-37.241 9.498-53.737 6.327-16.497 14.915-30.743 25.74-42.74 10.833-11.997 23.581-21.412 38.245-28.244 14.664-6.832 30.325-10.247 46.99-10.247zm4.993 225.947c13.337 0 25.332-2.999 35.992-8.998 10.668-5.998 19.335-12.996 25.999-20.995v-135.967c-7.669-5.333-16.501-10.164-26.494-14.497-10.001-4.332-21.996-6.498-35.992-6.498-10.331 0-20.245 2.083-29.744 6.249-9.498 4.165-17.914 10.247-25.246 18.245-7.332 7.998-13.164 17.746-17.498 29.244-4.333 11.497-6.5 24.744-6.5 39.741 0 14.329 2.167 27.243 6.5 38.741 4.333 11.497 10.166 21.328 17.498 29.493 7.332 8.165 15.747 14.413 25.246 18.745 9.499 4.332 19.578 6.499 30.238 6.499zM1167.99 570.3l-43.489-94.978c-10.998-23.661-24.83-40.49-41.495-50.488-16.658-9.998-37.986-14.997-63.985-14.997h-7.497v154.464h-47.486v-348.917c17.994-1.667 34.911-2.916 50.736-3.749 15.833-.834 33.08-1.25 51.739-1.25 21.328 0 39.988 2.249 55.986 6.748 15.998 4.499 29.328 10.915 39.988 19.246 10.668 8.331 18.746 18.163 24.249 29.492 5.495 11.331 8.25 23.828 8.25 37.492 0 24.327-7.253 43.906-21.745 58.736-14.499 14.829-35.411 25.91-62.737 33.242 6.665 2.999 12.827 6.416 18.495 10.248 5.668 3.832 10.998 8.498 15.998 13.997 4.993 5.499 9.915 12.08 14.742 19.745 4.836 7.665 9.75 16.996 14.75 27.993l37.986 81.981-44.486 20.996zm-101.477-319.924c-11.328 0-21.493.166-30.489.5-9.004.333-17.168.833-24.5 1.499v117.472h54.989c23.997 0 43.489-5.332 58.483-15.996 15.001-10.664 22.498-25.994 22.498-45.989 0-16.662-7.002-30.409-20.991-41.24-13.997-10.831-33.998-16.246-59.99-16.246zm230.947 313.925h-44.988v-259.939h44.988v259.939zm-22.498-304.428c-8.666 0-16.077-3.083-22.239-9.248-6.17-6.165-9.255-13.58-9.255-22.245 0-9.664 2.834-17.329 8.502-22.994 5.668-5.665 13.329-8.498 22.993-8.498 8.666 0 16.085 3.083 22.247 9.248 6.162 6.165 9.247 13.58 9.247 22.245 0 9.664-2.834 17.33-8.494 22.995-5.668 5.665-13.337 8.498-23 8.498zm107.976-27.993h34.493v81.98h71.985v38.991h-71.985v125.47c0 9.664 1.083 17.829 3.25 24.494 2.167 6.665 5.079 11.997 8.745 15.996 3.666 3.999 8.085 6.915 13.251 8.748 5.165 1.833 10.582 2.749 16.242 2.749 8.329 0 16.163-1.333 23.495-3.999 7.332-2.666 14.334-5.832 20.999-9.498l12.497 35.991c-6.673 3.999-15.669 7.914-26.996 11.747-11.328 3.832-23.165 5.749-35.49 5.749-24.994 0-44.745-8.165-59.236-24.494-14.499-16.33-21.744-39.991-21.744-70.984v-121.971h-44.988v-38.991h45.985l9.498-81.98zm181.453 220.947c3.007 24.327 11.5 43.323 25.497 56.986 13.997 13.663 32.491 20.495 55.492 20.495 14.994 0 28.488-1.583 40.482-4.748 12.003-3.166 23.495-7.249 34.493-12.248l10.503 38.491c-12.003 5.665-25.497 10.164-40.49 13.497-15.001 3.332-31.832 4.999-50.491 4.999s-35.49-3.083-50.491-9.248c-14.993-6.165-27.742-14.997-38.237-26.494-10.495-11.497-18.581-25.661-24.249-42.49-5.66-16.83-8.494-36.075-8.494-57.737 0-19.328 2.834-37.324 8.494-53.987 5.668-16.663 13.667-31.076 23.997-43.24 10.331-12.164 22.663-21.661 36.989-28.493 14.334-6.832 30.332-10.247 47.995-10.247 18.659 0 34.987 3.166 48.984 9.498 13.997 6.332 25.662 14.997 34.995 25.994 9.326 10.998 16.328 23.828 20.991 38.491s7.002 30.16 7.002 46.489c0 11.664-.502 22.994-1.499 33.992h-181.963zm70.485-115.473c-19.664 0-35.741 6.665-48.238 19.995-12.497 13.33-20.08 32.993-22.741 58.986h142.462c0-25.327-6.327-44.823-18.989-58.486-12.67-13.664-30.168-20.495-52.493-20.495z"/></svg>