<svg xmlns="http://www.w3.org/2000/svg"><path d="M66.375 94.03H35.702l-7.04 22.627H0L35.702 1.677h37.21l36.036 114.98H72.91L66.376 94.03zM60.34 68.888l-9.386-33.354-9.386 33.354H60.34zm161.077 47.77h-80.62V1.675h35.533V88.5h45.087v28.157zm40.732 0h-35.54V1.675h35.53v114.98zm36.37-39.22c3.01 10.223 10.72 13.91 20.95 13.91 4.52 0 13.57-.67 13.57-7.04 0-7.038-8.887-8.38-14.08-9.386-21.62-4.19-47.27-10.056-47.27-37.377 0-11.23 5.532-22.292 14.75-28.83C295.84 2.18 308.072 0 319.472 0c19.946 0 39.22 8.213 46.26 28.16l-29.162 8.88c-3.35-8.548-9.72-11.565-18.603-11.565-4.693 0-11.398 1.34-11.398 7.375s8.38 7.207 12.74 8.213c10.893 2.18 22.46 4.023 32.515 9.22 11.23 6.033 17.096 16.76 17.096 29.33 0 27.657-27.49 38.72-51.29 38.72-24.135 0-45.59-10.057-51.79-35.03l32.683-5.868zm126.88 39.22h-33.52V29.33h-24.14V1.676h81.29v27.656H425.4v87.325zM540.22 94.03h-30.67l-7.04 22.627h-28.662l35.7-114.98h37.212l36.035 114.98H546.76l-6.537-22.627zm-6.035-25.142L524.8 35.534l-9.386 33.354h18.772zm85.886 47.77h-35.7V1.675h46.93c11.23 0 23.81.335 33.69 6.034 10.73 6.37 17.1 17.76 17.1 30.17 0 10.89-4.19 21.28-12.74 28.16-8.88 7.2-20.28 8.88-31.34 8.88h-17.94v41.73zm9.22-66.374c8.05 0 17.77-.503 17.77-11.23 0-10.225-8.71-11.062-16.76-11.062h-10.22v22.292h9.22zM730.7 94.03h-30.67l-7.042 22.627h-28.66l35.7-114.98h37.21l36.035 114.98h-36.035L730.7 94.03zm-6.032-25.142l-9.387-33.354-9.38 33.354h18.78zm85.818 47.77h-35.7V1.675h58.495c10.06 0 21.12 1.34 29.67 7.04 9.56 6.034 14.08 16.258 14.08 27.488 0 15.085-6.7 24.137-20.28 30.338l20.79 50.12h-39.22l-16.77-43.92h-11.06v43.918zm0-68.553h12.906c7.71 0 16.928-1.174 16.928-11.063 0-3.855-2.01-7.542-5.53-9.386-3.017-1.508-6.704-1.508-10.056-1.508h-14.248v21.957zm125.88 68.552h-33.522V29.332H878.71V1.676H960v27.656h-23.633v87.325z"/></svg>
