<svg viewBox="0 0 260 178" xmlns="http://www.w3.org/2000/svg"><g><path d="M17.4 1.67c8.57-2.48 17.93-1.45 26.14 1.85-1.98 3.84-3.99 7.68-6.01 11.5-5.14-1.83-12.33-4.52-16.2.98 1.19 1.62 2.41 3.56 4.62 3.79 6.34 1.37 13.93 2.61 17.36 8.88 1.95 2.38 1.01 5.5 1.27 8.3.93 6.8-4.57 12.79-10.4 15.45-11.01 4.86-24.07 2.8-34.18-3.31v-.93c3.22-3.22 4.52-7.84 6.8-11.72 4.54 2.83 9.67 5.38 15.17 5.14 2.05-.12 4.55-1.19 4.93-3.45.31-2.26-1.86-3.62-3.71-4.22-4.98-1.63-10.68-1.73-14.88-5.22-4.28-3.44-4.76-9.59-3.67-14.6 1.45-6.17 6.84-10.72 12.76-12.44zM63.22 7.73c7.1-9.89 22.4-9.36 31.19-2.1 7.01 5.48 10.55 14.59 9.88 23.37.13 7.89-3.45 15.74-9.67 20.64-8.83 7.27-23.24 7.41-31.43-.97.05 10.06 0 20.12.04 30.18-6.14-.1-12.28.65-18.4-.09.2-14.91-.42-29.85.68-44.73-.97-6.97-.58-14-.65-21.01.03-3.76-.23-7.56.45-11.28 5.69.18 11.39-.03 17.08.1 1.79 1.23.41 4.02.83 5.89m7.22 8.81c-7.46 1.96-10.19 11.9-5.94 17.95 4.05 5.92 13.63 6.29 18.51 1.21 4.39-5.02 3.72-13.99-2.04-17.73-3.02-2.17-7.04-2.15-10.53-1.43zM105.61 19.05c2.3-8.31 8.82-15.56 17.22-17.91 8.11-2.46 17.38-.42 23.4 5.62-.19-1.67-.38-3.33-.53-5 6.14-.05 12.29-.02 18.43-.02.08 7.3-.24 14.61.25 21.9.88-6.31 3.75-12.42 8.68-16.56 8.46-7.4 21.4-9.14 31.49-4.17-.44 4.94 1.2 10.4-1.18 14.95-4.58-3.91-11.91-4.08-16.38.04-5.68 4.68-5.73 14.46-.06 19.16 4.51 3.88 11.83 4.07 16.41.21 2.5 4.42.7 9.91 1.23 14.79-9.11 4.2-20.49 3.72-28.86-2-6.2-4.03-10.48-10.81-11.31-18.18-.52 7.12-.18 14.26-.27 21.39-5.97.03-11.94-.06-17.91.07-.5-2.05-.33-4.14-.05-6.21-.19.3-.55.91-.74 1.22-6.32 7.38-17.59 8.13-26 4.19-12.04-5.74-18.01-20.99-13.82-33.49m28.16-3.14c-8.17.22-12.99 9.79-9.57 16.85 3.33 7.79 15.6 8.51 20.3 1.69 2.86-4.28 2.65-10.42-.54-14.47-2.42-3.01-6.43-4.34-10.19-4.07zM209.93 8.93c5.69-6.49 14.65-9.07 23.06-8.72 7.96.11 16.29 3.16 21.15 9.72 4.56 5.83 5.73 13.46 5.65 20.67-12.8.04-25.6-.02-38.4.03.35 3.33.98 7.09 3.87 9.22 4.94 3.53 13.09 3.2 16.39-2.46 5.85-.07 11.7-.09 17.54.01-2.09 8.27-9.1 14.54-17.3 16.47-10.54 2.36-22.86 1.01-30.94-6.76-6.73-6.38-8.63-16.34-7.08-25.21 1.37-4.57 2.53-9.5 6.06-12.97m11.67 11.25c7.15.01 14.3.02 21.45 0-.88-3.1-2.86-5.98-5.92-7.22-6.06-2.76-14 .53-15.53 7.22zM86.29 72.35c2.66-.03 5.32-.03 7.98-.02-.01 2.7-.02 5.4-.12 8.1 20.72.07 41.44.05 62.15.01-.04-2.7-.06-5.39-.12-8.08 2.66-.04 5.32-.04 7.98-.03-.03 6.25-.01 12.5-.02 18.75h-77.78c-.05-6.24.04-12.49-.07-18.73zM43.86 108.84c9.04.05 18.09-.11 27.13.07 6.29.2 13.53 2.34 16.35 8.54 3.38 7.5 2.81 18.73-5.35 22.92 3.3.9 6.8 1.83 9.2 4.45 4.47 4.45 4.77 11.25 4.31 17.17 1.75-6.48 4.6-12.59 6.83-18.9 4.43-11.39 8.59-22.9 13.16-34.23 6.36.35 13.03-.57 19.2.45 8.24 21.65 16.25 43.4 24.34 65.1.12-.75.21-1.5.25-2.26-.08-21.1 0-42.2-.04-63.31 8.91 0 17.82-.03 26.73.01 6.9.12 14.44 1.92 19 7.5 6.46 8.44 5.81 22.13-2.45 29.18-2.25 1.96-5.1 3.04-7.99 3.65 7.05 9.37 14.1 18.74 21.26 28.02-7.33-.02-14.67-.01-22-.01-5.7-8.73-11.05-17.69-16.92-26.3-.03 8.77-.06 17.53.02 26.3-11.74-.04-23.48.08-35.21-.06-2.29-3.37-3.08-7.73-4.77-11.48-8.06-.06-16.12-.02-24.19-.03l-4.65 11.57c-6.28 0-12.56-.01-18.84 0 1.12-2.66 2.19-5.36 3.37-8-5.12 5.91-13.11 7.98-20.66 8.04-9.37.02-18.73 0-28.09.01.02-22.8 0-45.6.01-68.4m17.7 13.6l.01 13.2c3.09-.12 6.45.11 9.19-1.58 3.22-2.31 3.19-7.82-.02-10.12-2.76-1.63-6.1-1.35-9.18-1.5m115.28.05c.01 5.66.01 11.31 0 16.97 3.59.02 7.47.09 10.66-1.82 4.83-2.86 4.55-11.23-.54-13.69-3.15-1.49-6.71-1.43-10.12-1.46m-51.97 7.52c-2.41 7.3-4.76 14.63-7.32 21.89 4.82.09 9.65-.06 14.47.15-2.24-7.39-4.67-14.73-7.15-22.04m-63.33 18.75c.05 4.94.03 9.89.01 14.83 4.45-.14 9.23.5 13.33-1.62 4.44-2.45 4.07-10.19-.69-12.05-4-1.67-8.43-1.08-12.65-1.16z"/></g></svg>
