<svg xmlns="http://www.w3.org/2000/svg" viewBox="0 0 960 118.3" enable-background="new 0 0 960 118.3"><path d="M66.4 94h-30.7l-7 22.6h-28.7l35.7-115h37.2l36 115h-36l-6.5-22.6zm-6.1-25.1l-9.3-33.4-9.4 33.4h18.7zm161.1 47.8h-80.6v-115h35.5v86.8h45.1v28.2zm40.7 0h-35.5v-115h35.5v115zm36.4-39.3c3 10.2 10.7 13.9 21 13.9 4.5 0 13.6-.7 13.6-7 0-7-8.9-8.4-14.1-9.4-21.6-4.2-47.3-10.1-47.3-37.4 0-11.2 5.5-22.3 14.8-28.8 9.4-6.5 21.6-8.7 33-8.7 19.9 0 39.2 8.2 46.3 28.2l-29.2 8.8c-3.4-8.5-9.7-11.6-18.6-11.6-4.7 0-11.4 1.3-11.4 7.4s8.4 7.2 12.7 8.2c10.9 2.2 22.5 4 32.5 9.2 11.2 6 17.1 16.8 17.1 29.3 0 27.7-27.5 38.7-51.3 38.7-24.1 0-45.6-10.1-51.8-35l32.7-5.8zm126.9 39.3h-33.5v-87.4h-24.1v-27.6h81.2v27.7h-23.6v87.3zm114.8-22.7h-30.7l-7 22.6h-28.7l35.7-115h37.2l36 115h-36l-6.5-22.6zm-6-25.1l-9.4-33.4-9.4 33.4h18.8zm85.9 47.8h-35.7v-115h46.9c11.2 0 23.8.3 33.7 6 10.7 6.4 17.1 17.8 17.1 30.2 0 10.9-4.2 21.3-12.7 28.2-8.9 7.2-20.3 8.9-31.3 8.9h-17.9l-.1 41.7zm9.2-66.4c8 0 17.8-.5 17.8-11.2 0-10.2-8.7-11.1-16.8-11.1h-10.2v22.3h9.2zm101.4 43.7h-30.7l-7 22.6h-28.7l35.7-114.9h37.2l36 115h-36l-6.5-22.7zm-6-25.1l-9.4-33.4-9.4 33.4h18.8zm85.8 47.8h-35.7v-115h58.5c10.1 0 21.1 1.3 29.7 7 9.6 6 14.1 16.3 14.1 27.5 0 15.1-6.7 24.1-20.3 30.3l20.8 50.1h-39.2l-16.8-43.9h-11.1v44zm0-68.6h12.9c7.7 0 16.9-1.2 16.9-11.1 0-3.9-2-7.5-5.5-9.4-3-1.5-6.7-1.5-10.1-1.5h-14.2v22zm125.9 68.6h-33.5v-87.4h-24.1v-27.6h81.2v27.7h-23.6v87.3z"/></svg>