<svg viewBox="0 0 377 66" xmlns="http://www.w3.org/2000/svg"><path d="M28.97 0h7.72c11.23.85 21.18 8.42 26.22 18.29 3.37 6.61 3.49 14.32 2.57 21.53-2.46 13.62-14.69 24.85-28.48 26.18h-7.74c-14.82-1.18-27.61-13.89-29.26-28.6v-7.58c.82-15.16 13.92-28.4 28.97-29.82m-.55 3.6c-8.8 1.37-16.88 6.86-21.24 14.66-4.57 7.84-5.22 17.82-1.63 26.17 5.48 14.01 22.57 21.93 36.77 16.79 14.3-4.42 23.44-20.72 19.54-35.21-3.22-14.62-18.68-25.04-33.44-22.41zm126.73 9.97c3.38-.04 6.77-.04 10.16-.04-.01 9.18-.09 18.36.01 27.53-.26 1.59 1.32 2.25 2.28 3.14.08 2.68.1 5.35.12 8.03-3.95.59-10.13 1.34-10.9-4.06-4.86 6.91-16.35 5.42-20.13-1.82-3.73-6.97-2.43-17.69 5.18-21.53 4.61-2.45 10.48-.82 13.51 3.34-.23-4.86-.09-9.73-.23-14.59m-6.69 18.98c-4.31 1.9-4.7 9.24-.2 11.14 3.05 1.71 7.8-1.01 7.06-4.69.78-3.73-3.08-7.94-6.86-6.45zm158.92-16.99c3.38.01 6.75.01 10.13-.01l-.08 8.77c1.83-.01 3.67-.01 5.51 0-.03 2.5-.03 5-.02 7.5-1.81 0-3.63 0-5.44-.01.2 3.74-.6 7.65.53 11.26 1.62 1.08 3.52-.11 5.22-.33.59 2.66 1.22 5.32 1.84 7.97-3.94 1.36-8.21 2.63-12.38 1.63-2.91-.66-5.14-3.37-5.19-6.35-.21-4.71.01-9.43-.06-14.15l-3.27-.07c-.06-2.48-.11-4.96-.16-7.43.86-.01 2.59-.03 3.46-.03-.03-2.92-.05-5.84-.09-8.75zm-287.92 2.06c8.49-.62 17.07-.08 25.59-.27 2.25-.35 4.74 1.27 4.78 3.66.05 5.67.17 11.35-.07 17.01-.13 2.35-2.71 3.27-4.73 3.1-8.02-.01-16.06.12-24.08-.06-2.26.17-4.11-1.78-4.02-4-.18-5.04-.12-10.1-.03-15.14-.08-1.81.88-3.57 2.56-4.3m.89 2.83c-1.21 5.64-.18 11.89-.48 17.76 9.01.05 18.02.2 27.02.04.16-5.9.66-11.95-.2-17.79-8.77-.37-17.57-.13-26.34-.01zm14.32 3.61c.91-3.1 5.74-3.59 7.38-.85 1.37 1.7-.03 3.72-.66 5.38-1.9.2-3.82.17-5.72-.04-.42-1.45-1.56-2.92-1-4.49zm44.95 2.61c7.36-5.32 18.95-3.44 23.65 4.55-3.25 1.02-6.5 2.02-9.76 2.99-1.6-1.02-3.32-2.55-5.36-1.84-5.03 1.51-5.07 10.08-.04 11.65 2 .9 3.74-.96 5.35-1.85 3.25.96 6.5 1.95 9.76 2.9-4.76 8.62-17.8 10.12-24.84 3.56-6.21-5.7-5.65-17.03 1.24-21.96zm32.79-2.01c6.68-2.33 15.4-.6 19.2 5.81 3.46 6.18 2.4 15.25-3.72 19.42-6.96 4.72-18.19 3.57-22.71-4.01-4.58-7.31-1.35-18.62 7.23-21.22m4.08 7.96c-4.63 2.3-3.91 10.75 1.45 11.64 4.49.17 6.6-5.43 4.81-9.02-.9-2.43-3.89-3.76-6.26-2.62zm56.96-6.19c7.23-4.93 19.15-3.32 23.16 5.01 1.11 2.97 2.01 6.92.73 9.76-6.52.28-13.06-.25-19.58.31 1.19 1.44 2.15 3.48 4.2 3.82 2.61.73 4.82-1.1 6.74-2.56 2.77.74 5.52 1.53 8.28 2.29-4.81 8.56-17.66 10.05-24.9 3.86-6.54-5.81-5.8-17.51 1.37-22.49m4.26 8.76c3.32.1 6.65.1 9.98.03-.96-1.61-1.64-3.76-3.73-4.18-2.98-1.04-5.24 1.72-6.25 4.15zm20.93-10.8c3.08-.08 6.17-.12 9.26-.07l-.34 3.93c4.32-5.27 14.48-6.93 18.12-.12 3.12-3.73 8.49-5.51 13.14-3.85 3.44 1.31 4.93 5.28 4.71 8.74-.16 6.37.1 12.75.08 19.13-3.35-.01-6.7-.01-10.05 0-.07-5.35.12-10.71-.04-16.05.16-1.8-1.37-2.94-2.44-4.11-1.96 1.2-4.72 2.44-4.8 5.12-.14 5.01.05 10.03-.02 15.04-3.35-.01-6.7-.01-10.04 0-.07-5.39.17-10.78-.06-16.16.04-1.77-1.21-3.72-3.17-3.54-2.21.88-4.48 2.88-4.22 5.48-.09 4.74.04 9.48.01 14.21-3.35 0-6.7 0-10.05.01-.12-9.25.17-18.51-.09-27.76zm52.94 1.15c6.67-3.42 16.17-2.23 20.65 4.16 2.46 3.32 2.44 7.64 2.32 11.59-6.66-.02-13.33-.12-19.99.09.88 1.46 1.64 3.29 3.49 3.75 2.67 1.16 5.2-.69 7.16-2.32 2.82.67 5.62 1.46 8.41 2.25-4.58 8.05-16.17 9.86-23.61 4.87-8.23-5.5-7.35-20.01 1.57-24.39m2.79 9.67c3.32.08 6.65.08 9.98-.01-1-1.78-2-4.08-4.36-4.27-2.85-.68-4.66 2.05-5.62 4.28zm20.95-10.85c3.06-.06 6.13-.06 9.19-.07-.05.96-.17 2.86-.23 3.82 3.41-3.68 8.75-5.3 13.61-4.02 3.85.96 5.57 5.29 5.51 8.91.05 6.38-.03 12.77.01 19.15-3.35-.01-6.7-.01-10.05-.01-.07-5.36.17-10.73-.06-16.09.15-1.89-1.36-3.66-3.29-3.62-2.1.7-4.44 2.32-4.54 4.74-.16 4.99.04 9.98-.03 14.98-3.35-.01-6.7-.01-10.04 0 0-9.27.24-18.53-.08-27.79zm57.15.33c5.4-1.86 11.88-1.22 16.41 2.42 7.14 5.94 6.26 19.23-2.18 23.59-7.2 3.87-18.2 2.18-21.83-5.81-3.99-7.23-.51-17.69 7.6-20.2m4.83 7.69c-5.29 1.59-4.92 10.84.63 11.83 3.32.37 5.84-3.07 5.52-6.18.24-3.23-2.75-6.69-6.15-5.65zm17.4-8.16c3.09.02 6.19.02 9.29.05-.12 1.71-.23 3.42-.34 5.13 2.33-3.32 5.66-6.07 9.97-5.91-.03 3.06-.07 6.11-.05 9.16-2.98.45-6.25.59-8.69 2.62-.5 5.6-.05 11.25-.18 16.87-3.33 0-6.66 0-9.99.01.11-9.31.11-18.62-.01-27.93zm-333.74 2.56c2.85-.36 5.72-.31 8.58-.32v1.22c-2.86-.17-5.99.64-8.58-.9zm12.2 2.06c1.34-.74 2.77.45 4.15.56 2.26.73 4.38-1.08 6.61-.7 1.78 1.94 2.98 5.81.74 7.81-3.49.71-7.12.37-10.66.29-4.15-.02-3.12-6.1-.84-7.96zm-11.51 1.42c2.63.01 5.26.01 7.88-.01.01.29.03.85.03 1.13-2.65-.01-5.31-.01-7.96-.01l.05-1.11zm-.02 4.02c2.62.01 5.25.01 7.87-.01l.05 1.12c-2.64 0-5.28-.01-7.93 0l.01-1.11zm-11.09 8.56c15.19.17 30.39.18 45.58 0-.07 1.87-.59 4.16-2.89 4.24-12.79.26-25.61.07-38.41.1-2.61.29-4.36-1.86-4.28-4.34z"/></svg>