<svg xmlns="http://www.w3.org/2000/svg" viewBox="0 0 208.54 61.16"><title>logo--cs copy2</title><path d="M46.79 17.16q.33 2.54-1.11 9.07a64.07 64.07 0 0 1-3.73 12q-2.67 6-5.22 6.15a3.62 3.62 0 0 1-2.57-1 3.29 3.29 0 0 1-1.37-2.27 1.67 1.67 0 0 1 .27-1.05q-1.79-16.32-2.06-22.23a4.34 4.34 0 0 1-.94-1.88 1.94 1.94 0 0 1 .94-1.68 3.25 3.25 0 0 1 1.86-.78 2.23 2.23 0 0 1 1.56.42q4.81-2.3 6.44-2.41a3.8 3.8 0 0 1 1.74.3 6.85 6.85 0 0 1 2.55 2 6.64 6.64 0 0 1 1.66 3.4m-5.26-.77a1.23 1.23 0 0 0-1-.39q-1.18.08-4.45 3.07 0 2.87.22 6.33.36 4.95 1.19 10.17 1.66-5.05 3-10.58 1.41-6 1.27-7.9a1.22 1.22 0 0 0-.2-.71M66 39.11a2.61 2.61 0 0 1-2.68 2.07 2.43 2.43 0 0 1-1.32-.18 2.5 2.5 0 0 1-1-1.61 24.45 24.45 0 0 0-1.16-3.32 6.68 6.68 0 0 1-2 4.41 6.32 6.32 0 0 1-4.22 2.46q-2.78.2-4.11-3.41a9.67 9.67 0 0 1-.46-2.53q-.25-3.54 3.18-6.31 2.84-2 5.73-3.89a5.51 5.51 0 0 0 .04-1.31 1.27 1.27 0 0 0-.75-1.34 3.75 3.75 0 0 0-1.09-.15 1.78 1.78 0 0 0-1.28.61l-.9 1a5.32 5.32 0 0 0-1.08 1.49 1.83 1.83 0 0 1-1.19 1 2.11 2.11 0 0 1-1.84-.56 2.56 2.56 0 0 1-.93-1.81 2.06 2.06 0 0 1 .23-1.13 7.61 7.61 0 0 1 2.44-2.6 12.78 12.78 0 0 1 6.54-2.08 3.5 3.5 0 0 1 3.68 2.18 25.45 25.45 0 0 1 1.35 6.06 67.65 67.65 0 0 0 1.41 7.89 3.09 3.09 0 0 0 .74 1.21 2.36 2.36 0 0 1 .67 1.31 1.94 1.94 0 0 1 0 .54m-7.29-8.89q-1.1.69-2.17 1.42a8.48 8.48 0 0 0-2 1.86 4.47 4.47 0 0 0-1.18 2.76 3.37 3.37 0 0 0 .82 1.85 1.05 1.05 0 0 0 .88.47q1-.07 2-2.36a25.77 25.77 0 0 0 1.61-6m2.55-18.22a2.94 2.94 0 0 1-.67 1.92q-1.15 1.61-1.21 1.73-.29.78-.58 1.53a2.39 2.39 0 0 1-.76 1.28 2.26 2.26 0 0 1-.94.26 2.77 2.77 0 0 1-1.51-.29 1.17 1.17 0 0 1-.72-1 1.1 1.1 0 0 1 0-.42 18.26 18.26 0 0 1 3.41-5.75 1.29 1.29 0 0 1 .93-.41 2.51 2.51 0 0 1 1.34.29 1.07 1.07 0 0 1 .69.83M93.24 38.76a2.12 2.12 0 0 1-2.14 1.57 3.73 3.73 0 0 1-3.38-1.33q-.63-.8-1-5.71l-.14-2q-.06-1.33-.1-1.87-.18-2.63-.48-2.69-.59-.19-3.12 10.93v1.84a1.69 1.69 0 0 1-.64 1.5 2.29 2.29 0 0 1-1.08.35 3.66 3.66 0 0 1-2.16-.53 3.09 3.09 0 0 1-1.42-1.62 25 25 0 0 1-.74-5.53q-.36-6.06-.34-5.83a3 3 0 0 0-.35-1.62q-.77 1.51-1.32 2.89a17 17 0 0 0-1.41 5.46 4.23 4.23 0 0 0 .09 1.79 1.68 1.68 0 0 1-.23 1.58 2 2 0 0 1-1.3.51 3.81 3.81 0 0 1-1.88-.38 3.67 3.67 0 0 1-1.46-1.07q-.64-.9-1.08-5.5l-.64-9a4.43 4.43 0 0 0-.38-1 3.22 3.22 0 0 1-.34-1 1.2 1.2 0 0 1 .14-.66q.44-.8 2.46-.94 2.47-.18 3.06 1a1.34 1.34 0 0 1 .15.52 2.31 2.31 0 0 1-.29 1 2.34 2.34 0 0 0-.28 1.09l.31 4.34q1-2.48 2.57-6.3l.37-1a2.49 2.49 0 0 1 .56-.92 2.09 2.09 0 0 1 1.38-.48 7.51 7.51 0 0 1 3.11.46q1.59.57 1.7 1.52a2.67 2.67 0 0 1-.18 1.52 1.72 1.72 0 0 0-.26.88l.51 8.22q.49-1.43 1.73-6.65 1-4 1.59-4.47a4.2 4.2 0 0 1 2.43-.79q3-.22 3.28 1.52.3 4.64 1.12 15.53a1.56 1.56 0 0 0 .83 1 1.63 1.63 0 0 1 .86 1.11 2.18 2.18 0 0 1-.1.73M108.33 33.66a6.29 6.29 0 0 1-1.83 3.23 5.2 5.2 0 0 1-2 1.25 8.6 8.6 0 0 1-3.57.94 5.43 5.43 0 0 1-4.73-2.95 15.09 15.09 0 0 1-2-6.9 17.59 17.59 0 0 1 1.11-8q1.6-3.86 4.68-4.54a9.45 9.45 0 0 1 1.17-.16q4.53-.32 5.38 5.2a8.25 8.25 0 0 1-1.62 5.7 12.9 12.9 0 0 1-5.92 5.1 13.45 13.45 0 0 0 .79 1.93 1.62 1.62 0 0 0 1.51.85 3.33 3.33 0 0 0 1.82-.82 3.68 3.68 0 0 0 1.06-1.19 1.57 1.57 0 0 0 .24-.88 1.53 1.53 0 0 1 .72-1.18 1.18 1.18 0 0 1 .53-.15 2.48 2.48 0 0 1 1.83.77 2 2 0 0 1 .8 1.8m-6.93-13q-1.52.11-2.32 2.35a11.83 11.83 0 0 0-.62 5.78 6.82 6.82 0 0 0 3.12-2.9 6.64 6.64 0 0 0 1.25-3.84 1.25 1.25 0 0 0-1.44-1.39" transform="translate(-.23 -2.42)" fill="#bb0d1d"/><path d="M125.58 7.65a1.71 1.71 0 0 1-.58 1.35 1.27 1.27 0 0 0-.53.94q-.1.2.54 10.25.65 10.7.27 13.87a3.4 3.4 0 0 1-1.42 2.11 3.83 3.83 0 0 1-2.72 1q-1.81-.1-4-2.43-1.08-1.18-4.5-5.72l-1.07-.79a1.89 1.89 0 0 1-.62-1.46q0-.69 1.56-1.22a12.07 12.07 0 0 1 2.91-.55 2.46 2.46 0 0 1 1.15.07 2.37 2.37 0 0 1 .92 1.58 5.41 5.41 0 0 0 .55 1.83q.37.85.79 1.74a1.24 1.24 0 0 0 .93.89q1.11 0 .16-13.28-.31-4.34-.74-8.78 0-.38-.13-1.08c-.07-.47-.11-.79-.13-1q-.12-1.67 1.87-2.2a4.6 4.6 0 0 1 2.73.68q2 1 2.07 2.18M133.95 6a2.94 2.94 0 0 1-.66 1.92q-1.15 1.61-1.22 1.73-.29.79-.58 1.53a2.39 2.39 0 0 1-.79 1.28 2.26 2.26 0 0 1-.94.26 2.77 2.77 0 0 1-1.51-.29 1.17 1.17 0 0 1-.72-1 1.14 1.14 0 0 1 0-.42 18.25 18.25 0 0 1 3.47-5.74 1.29 1.29 0 0 1 .93-.41 2.5 2.5 0 0 1 1.34.29 1.07 1.07 0 0 1 .69.83m-.22 9.73a4.15 4.15 0 0 1-.47 1.7 4.23 4.23 0 0 0-.46 1.89l.8 11.19a8 8 0 0 0 .57 2.12 8.12 8.12 0 0 1 .56 1.89 1.26 1.26 0 0 1-.53 1.19 3.76 3.76 0 0 1-2 .76 2.22 2.22 0 0 1-2.13-.84q-.89-1.16-1.32-7.21-.1-1.45-.27-4.51t-.26-4.48a11 11 0 0 0-.23-1.41 11 11 0 0 1-.2-1.23 3 3 0 0 1 .76-2.24 2 2 0 0 1 1.38-.48 6.84 6.84 0 0 1 2.08.18 2.52 2.52 0 0 1 1.37.65 1.49 1.49 0 0 1 .34.82M151 33.59q-.38 1.06-2.74 1.23a2.5 2.5 0 0 1-2-.47.72.72 0 0 1-.23-.52 3 3 0 0 1 .13-.85 5.05 5.05 0 0 0 .16-.89 5 5 0 0 1-3.93 2.77q-3.16.23-4.86-3.25a19.35 19.35 0 0 1-1.61-7 15.79 15.79 0 0 1 1.19-7.47q1.64-3.75 4.42-4 1.56-.11 3.38 2.28l-.35-4.91a3.63 3.63 0 0 0-.56-1.51 3.58 3.58 0 0 1-.6-1.41 1.7 1.7 0 0 1 .14-.77 3.11 3.11 0 0 1 3-1.94 2.18 2.18 0 0 1 2.46 1.21 2.76 2.76 0 0 1 .21.86 3.64 3.64 0 0 1-.21 1.14 3.7 3.7 0 0 0-.16 1.22l1.55 21.69a2.3 2.3 0 0 0 .38 1 2.27 2.27 0 0 1 .37.95 1.62 1.62 0 0 1-.11.66m-6-9.67a14.33 14.33 0 0 0-1-4.06q-1-2.45-1.74-2.4t-1.24 2.42a20.17 20.17 0 0 0-.11 4.33c0 .28 0 .74.06 1.37l.1 1.41q.31 4.3 2.17 4.17.88-.06 1.42-2.59a16 16 0 0 0 .35-4.65M159 33.44a2.9 2.9 0 0 1-2.71 1.65 2.84 2.84 0 0 1-2.76-1.1 1.61 1.61 0 0 1-.29-.82 5 5 0 0 1 .18-1.28 5.15 5.15 0 0 0 .16-1.46l-1.93-24.57-.15-2.06a1.43 1.43 0 0 1 1-.89 6.25 6.25 0 0 1 2-.47 2.45 2.45 0 0 1 2 .43 2 2 0 0 1 .5 1.13 5.46 5.46 0 0 1-.2 1.41 5.56 5.56 0 0 0-.19 1.6l1.64 22.83a4.85 4.85 0 0 0 .43 1.48 4.81 4.81 0 0 1 .42 1.33 1.55 1.55 0 0 1-.14.78" transform="translate(-.23 -2.42)" fill="#e3a900"/><path d="M24.72 20.9c-.06-.77-.42-1.35-.82-1.29l-23 2.71a1.35 1.35 0 0 0-.62 1.5c.06.77.42 1.35.82 1.29l23-2.71a1.35 1.35 0 0 0 .62-1.5M24.72 26.63c-.06-.77-.42-1.35-.82-1.3l-13.5 1.75a1.35 1.35 0 0 0-.62 1.5c.06.77.42 1.35.82 1.29l13.5-1.75a1.35 1.35 0 0 0 .62-1.5M25 32.56c-.08-.77-.46-1.34-.86-1.27l-6.15 1a1.35 1.35 0 0 0-.58 1.52c.08.77.46 1.34.86 1.27l6.15-1a1.35 1.35 0 0 0 .58-1.52" transform="translate(-.23 -2.42)" fill="#d2011c" fill-rule="evenodd"/><path d="M160.06 24.47l4.38-4.38a13.78 13.78 0 0 1 .46-2.79q.74-2.54 2-2.51a2.05 2.05 0 0 1 1.73 1.12l2.87-2.91c-.13-.13-.25-.27-.39-.39a6.44 6.44 0 0 0-4.93-1.56 8.64 8.64 0 0 0-2.26.47q-2.09.76-3.21 4.28a19.19 19.19 0 0 0-.77 7.32c0 .45.08.88.13 1.31" transform="translate(-.23 -2.42)" fill="#e3a900"/><path d="M169.35 26.51c0 .1 0 .2-.05.3q-.69 3.15-1.77 3.07-1.69-.15-2.42-2.77c0-.18-.1-.38-.14-.6h-4.53a12.79 12.79 0 0 0 1.71 4.07 6 6 0 0 0 5.65 3q3.54-.26 5.28-4.17a14 14 0 0 0 .92-2.9h-4.64zM182.8 24.69a21.78 21.78 0 0 0-5.33-14.55l-3 3a17.62 17.62 0 0 1 4.1 11.57h4.21zM173.08 14.54l-10.16 10.15h13.68a15.66 15.66 0 0 0-3.52-10.15zm-4.83 9.06a1 1 0 1 1 1-1 1 1 0 0 1-1 1zm4.44-.68a.77.77 0 1 1 .77-.77.77.77 0 0 1-.77.76zm0-3a1.34 1.34 0 1 1 1.31-1.39 1.34 1.34 0 0 1-1.35 1.35zM195.36 25.09a2.05 2.05 0 0 1-.41 1.2 6.87 6.87 0 0 0-.84 1.36q-1.45 2.59-3.18 2.71a3.5 3.5 0 0 1-3.32-1.84 10 10 0 0 1-1.34-4.68 12.41 12.41 0 0 1 .84-5.79q1.18-2.78 3.35-2.93a3.14 3.14 0 0 1 2.89 1.69 7.15 7.15 0 0 1 1.12 3.42 4.65 4.65 0 0 1 0 .91 1.26 1.26 0 0 1-1.41 1 2 2 0 0 1-1.59-.46 2.18 2.18 0 0 1-.35-1.3v-.75s0-.59-.05-.75q-.08-1.16-.49-1.13t-.75 2.61a25.37 25.37 0 0 0-.16 4.8q.18 2.58 1 2.53 1-.07 1.38-1.73a1.58 1.58 0 0 0 .17-.95.9.9 0 0 1 .25-.83 1.73 1.73 0 0 1 .89-.26 2.6 2.6 0 0 1 1.36.24 1.09 1.09 0 0 1 .72 1M207.27 16.27a1.66 1.66 0 0 1-.55 1.08c-.5.52-.79.83-.87.94l-5.14 8.09 3.83-.89a3.66 3.66 0 0 0 .76-.32 2.1 2.1 0 0 1 .79-.28 1.54 1.54 0 0 1 1.28.57 2.24 2.24 0 0 1 .61 1.37 1.43 1.43 0 0 1-.28 1 1.16 1.16 0 0 1-.86.44h-.75a3.38 3.38 0 0 0-.83.06l-4.75 1.09a3.74 3.74 0 0 0-.91.43 1.73 1.73 0 0 1-.91.32 2.78 2.78 0 0 1-1.72-.54 1.82 1.82 0 0 1-.82-1.38 1.93 1.93 0 0 1 0-.31 1.62 1.62 0 0 1 .45-1 8.87 8.87 0 0 0 .68-.72l5.22-8.4-2.76.56a2.66 2.66 0 0 0-.54.19 1.68 1.68 0 0 1-.55.17 1.08 1.08 0 0 1-.5-.09 2 2 0 0 1-1.6-1.68 1.9 1.9 0 0 1 .4-1.25 1.07 1.07 0 0 1 .85-.45 6.64 6.64 0 0 1 .81 0 4.93 4.93 0 0 0 .85 0l4-.75a3.64 3.64 0 0 0 .84-.28 2.73 2.73 0 0 1 .84-.25 1.82 1.82 0 0 1 1.48.73 2.14 2.14 0 0 1 .65 1.56M178.52 29.36a2.21 2.21 0 0 1 2.22-2.36 2.16 2.16 0 0 1 2.18 2.33 2.2 2.2 0 0 1-2.26 2.33 2.17 2.17 0 0 1-2.15-2.33" transform="translate(-.23 -2.42)" fill="#e3a900"/><path d="M44.29 61.6a1.13 1.13 0 0 1 0 .18 1 1 0 0 1-.51.87 2.33 2.33 0 0 1-1.17.42 1.1 1.1 0 0 1-.61-.07.79.79 0 0 1-.31-.36.87.87 0 0 0-.3-.37l-3.79-2.15.26 1.49a1.67 1.67 0 0 0 .29.46 1.18 1.18 0 0 1 .28.59.85.85 0 0 1-.41.7 1.19 1.19 0 0 1-.69.25 2.1 2.1 0 0 1-1.15-.24 1.31 1.31 0 0 1-.75-.78 1.07 1.07 0 0 1 0-.16.5.5 0 0 1 .19-.43.46.46 0 0 0 .2-.34l-1.21-9.28a1.77 1.77 0 0 0-.22-.55 1.42 1.42 0 0 1-.2-.5.79.79 0 0 1 .51-.73 2.06 2.06 0 0 1 .91-.3 1.49 1.49 0 0 1 .55 0 .54.54 0 0 1 .33.26.24.24 0 0 0 .21.17 10 10 0 0 0 1-.43 5.91 5.91 0 0 1 2-.57 2.56 2.56 0 0 1 2.09.73 1 1 0 0 1 .26.67 7.2 7.2 0 0 1-1.13 3.47 15.47 15.47 0 0 1-2.46 3.47l4.43 2.63.85.33a.92.92 0 0 1 .55.57zm-5.13-9.83a2.29 2.29 0 0 0-1.09.77q-.15.14-1.13 1.22l.18 2.93a15.47 15.47 0 0 0 1.65-2.61 4.71 4.71 0 0 0 .67-2 .26.26 0 0 0-.27-.31zM48.82 53.87a5.24 5.24 0 0 1 1.37 3.66 7.33 7.33 0 0 1-.51 3.54 2.65 2.65 0 0 1-2.27 1.79 2.55 2.55 0 0 1-2.41-1.28 6.54 6.54 0 0 1-1-3.18 8.23 8.23 0 0 1 .33-3.15 2.62 2.62 0 0 1 1.38-1.84 3.68 3.68 0 0 1 1-.2 2.77 2.77 0 0 1 2.11.66zm-1.82.93q-.54 0-.86 1.08a6 6 0 0 0-.14 2.05 12.41 12.41 0 0 0 .29 2.16 1.33 1.33 0 0 0 1 1.19q.46 0 .76-1.32a9.63 9.63 0 0 0 .18-2.76q-.23-2.38-1.23-2.4zM57.53 53.92a1 1 0 0 1-.34.68q-.47.5-.55.6l-3.24 5.14 2.42-.57a2.31 2.31 0 0 0 .48-.21 1.34 1.34 0 0 1 .5-.18 1 1 0 0 1 .82.36 1.43 1.43 0 0 1 .39.87.91.91 0 0 1-.17.66.74.74 0 0 1-.55.28h-.48a2.09 2.09 0 0 0-.52 0l-3 .7a2.38 2.38 0 0 0-.57.27 1.1 1.1 0 0 1-.58.21 1.76 1.76 0 0 1-1.14-.32 1.15 1.15 0 0 1-.52-.87 1.2 1.2 0 0 1 0-.2 1 1 0 0 1 .28-.65 5.85 5.85 0 0 0 .43-.46l3.29-5.34-1.75.36a1.7 1.7 0 0 0-.34.12 1.08 1.08 0 0 1-.35.11.69.69 0 0 1-.32-.06 1.29 1.29 0 0 1-1-1.06 1.21 1.21 0 0 1 .28-.78.67.67 0 0 1 .54-.29h.51a3.24 3.24 0 0 0 .54 0l2.53-.48a2.3 2.3 0 0 0 .53-.18 1.75 1.75 0 0 1 .53-.16 1.15 1.15 0 0 1 .94.46 1.36 1.36 0 0 1 .41.99zM65.38 52.26a.93.93 0 0 1 .15.43 1.77 1.77 0 0 1-.22.84 7 7 0 0 0-.4.87q-.57 2.11-1.47 5.33a4.16 4.16 0 0 1-.44 1.58 1.26 1.26 0 0 1-1.17.66 1.64 1.64 0 0 1-1.05-.24.82.82 0 0 1-.24-.59v-.34a2.07 2.07 0 0 0-.09-.49l-2.11-5.86a2 2 0 0 0-.47-.61.74.74 0 0 1-.29-.62 1 1 0 0 1 1.11-.8 2.25 2.25 0 0 1 .39 0q.65.08 1.42 2.15t1.32 3.87l1.32-5.36a3.65 3.65 0 0 1 .17-.56 1 1 0 0 1 .39-.44 1.38 1.38 0 0 1 .65-.2 1 1 0 0 1 1.03.38zM70.41 52.29a5.24 5.24 0 0 1 1.37 3.71 7.32 7.32 0 0 1-.51 3.54 2.65 2.65 0 0 1-2.27 1.74 2.55 2.55 0 0 1-2.43-1.28 6.54 6.54 0 0 1-1-3.18 8.24 8.24 0 0 1 .33-3.15 2.62 2.62 0 0 1 1.38-1.84 3.7 3.7 0 0 1 1-.2 2.77 2.77 0 0 1 2.13.66zm-1.81.92q-.54 0-.86 1.08a6 6 0 0 0-.19 2.05 12.41 12.41 0 0 0 .29 2.16 1.33 1.33 0 0 0 1 1.19q.46 0 .76-1.32a9.62 9.62 0 0 0 .18-2.76q-.14-2.38-1.17-2.4zM79.13 52.34a1.05 1.05 0 0 1-.34.68q-.47.5-.55.6l-3.24 5.13 2.42-.57a2.31 2.31 0 0 0 .48-.18 1.32 1.32 0 0 1 .5-.18 1 1 0 0 1 .82.36 1.43 1.43 0 0 1 .39.87.91.91 0 0 1-.17.66.74.74 0 0 1-.55.28h-.48a2.07 2.07 0 0 0-.52 0l-3 .7a2.35 2.35 0 0 0-.57.27 1.1 1.1 0 0 1-.58.21 1.77 1.77 0 0 1-1.09-.34 1.16 1.16 0 0 1-.54-.83 1.21 1.21 0 0 1 0-.2 1 1 0 0 1 .28-.65 5.86 5.86 0 0 0 .43-.46l3.29-5.34-1.75.36a1.66 1.66 0 0 0-.34.12 1.07 1.07 0 0 1-.35.11.69.69 0 0 1-.32-.06 1.29 1.29 0 0 1-1-1.06 1.2 1.2 0 0 1 .25-.82.67.67 0 0 1 .54-.29 4.12 4.12 0 0 1 .51 0 3.18 3.18 0 0 0 .54 0l2.53-.48a2.29 2.29 0 0 0 .53-.18 1.74 1.74 0 0 1 .53-.16 1.15 1.15 0 0 1 .94.46 1.36 1.36 0 0 1 .41.99zM86.19 53.12q.37 5.08.27 3.5a14.94 14.94 0 0 1-.15 3.82q-.39 1.85-1.54 2.09a2 2 0 0 1-1.13-.14.83.83 0 0 1-.64-.62.43.43 0 0 1 .08-.27.59.59 0 0 1 .58-.21.87.87 0 0 0 .56-.07q.5-.4.09-5.94-.1-1.28-.31-3.11a2.39 2.39 0 0 0-.14-.51 2.39 2.39 0 0 1-.14-.54q0-.57.87-.64a1.57 1.57 0 0 1 1.17.28 1.15 1.15 0 0 1 .36.83q0 .26 0 .76t.07.77zm-.25-3.35a.63.63 0 0 1-.62.31 1.66 1.66 0 0 1-.73-.08.6.6 0 0 1-.48-.49 1.14 1.14 0 0 1 0-.28 1.14 1.14 0 0 0 0-.25 3.46 3.46 0 0 0-.06-.36 3.37 3.37 0 0 1-.06-.39.72.72 0 0 1 .16-.57.93.93 0 0 1 .67-.31 1.14 1.14 0 0 1 .67.16.65.65 0 0 1 .35.53 1.9 1.9 0 0 1-.06.48 1.41 1.41 0 0 0 0 .5.76.76 0 0 0 .1.31.69.69 0 0 1 .09.26.55.55 0 0 1-.03.18zM89.78 46.85a1.26 1.26 0 0 1-.28.83l-.5.74-.25.66a1 1 0 0 1-.34.55 1 1 0 0 1-.4.11 1.19 1.19 0 0 1-.65-.13.5.5 0 0 1-.36-.4.49.49 0 0 1 0-.21 7.84 7.84 0 0 1 1.46-2.47.55.55 0 0 1 .4-.18 1.08 1.08 0 0 1 .58.12.46.46 0 0 1 .34.38zm-.09 4.15a1.78 1.78 0 0 1-.2.73 1.82 1.82 0 0 0-.19.81l.35 4.81a3.47 3.47 0 0 0 .25.91 3.48 3.48 0 0 1 .24.81.54.54 0 0 1-.23.51 1.62 1.62 0 0 1-.86.33 1 1 0 0 1-.91-.36 7.88 7.88 0 0 1-.57-3.1q0-.62-.12-1.94t-.12-1.92a4.71 4.71 0 0 0-.1-.59 4.57 4.57 0 0 1-.09-.53 1.28 1.28 0 0 1 .32-1 .86.86 0 0 1 .59-.21 2.93 2.93 0 0 1 .89.07 1.08 1.08 0 0 1 .59.28.64.64 0 0 1 .16.39zM96.93 58.72a1.23 1.23 0 0 1-1.18.53 1.07 1.07 0 0 1-.87-.2.31.31 0 0 1-.1-.22 1.3 1.3 0 0 1 .06-.37 2.14 2.14 0 0 0 .07-.38 2.16 2.16 0 0 1-1.69 1.19 2.09 2.09 0 0 1-2.09-1.39 8.31 8.31 0 0 1-.7-3 6.78 6.78 0 0 1 .5-3.21 2.37 2.37 0 0 1 1.9-1.7 1.89 1.89 0 0 1 1.45 1l-.15-2.11a1.56 1.56 0 0 0-.26-.65 1.53 1.53 0 0 1-.26-.61.73.73 0 0 1 .06-.33 1.34 1.34 0 0 1 1.33-.88.94.94 0 0 1 1.06.51 1.2 1.2 0 0 1 .09.37 1.57 1.57 0 0 1-.07.49 1.61 1.61 0 0 0-.07.52l.68 9.32a1 1 0 0 0 .16.42 1 1 0 0 1 .16.41.69.69 0 0 1-.08.29zm-2.57-4.15a6.18 6.18 0 0 0-.44-1.74 1.35 1.35 0 0 0-.75-1q-.38 0-.53 1a8.62 8.62 0 0 0 0 1.86v1.19q.14 1.85.94 1.79.38 0 .61-1.11a6.86 6.86 0 0 0 .17-1.99zM100.24 58.66a1.24 1.24 0 0 1-1.16.71 1.22 1.22 0 0 1-1.19-.47.69.69 0 0 1-.12-.35 2.17 2.17 0 0 1 .07-.55 2.23 2.23 0 0 0 .07-.63l-.84-10.56-.07-.88a.61.61 0 0 1 .43-.39 2.72 2.72 0 0 1 .86-.2 1.05 1.05 0 0 1 .87.18.85.85 0 0 1 .22.49 2.34 2.34 0 0 1-.09.61 2.39 2.39 0 0 0-.08.69l.72 9.81a2.09 2.09 0 0 0 .19.64 2 2 0 0 1 .18.57.66.66 0 0 1-.06.33zM107.83 57.33a1.12 1.12 0 0 1-1.15.89 1 1 0 0 1-.53-.08 1.07 1.07 0 0 1-.41-.69 10.51 10.51 0 0 0-.5-1.43 2.87 2.87 0 0 1-.85 1.89 2.72 2.72 0 0 1-1.82 1.09 1.78 1.78 0 0 1-1.77-1.46 4.17 4.17 0 0 1-.25-1.1 3.13 3.13 0 0 1 1.36-2.71l2.47-1.73a2.35 2.35 0 0 0 0-.54.55.55 0 0 0-.32-.58 1.6 1.6 0 0 0-.48-.05.76.76 0 0 0-.55.26l-.39.45a2.29 2.29 0 0 0-.46.64.78.78 0 0 1-.51.45.91.91 0 0 1-.79-.24 1.1 1.1 0 0 1-.4-.78.89.89 0 0 1 .1-.48 3.27 3.27 0 0 1 1-1.16 5.49 5.49 0 0 1 2.81-.9 1.5 1.5 0 0 1 1.61.93 11 11 0 0 1 .59 2.6 29 29 0 0 0 .61 3.39 1.33 1.33 0 0 0 .32.52 1 1 0 0 1 .29.55.86.86 0 0 1 .02.27zm-3.14-3.81l-.93.61a3.6 3.6 0 0 0-.84.8 1.91 1.91 0 0 0-.5 1.19 1.45 1.45 0 0 0 .35.8.45.45 0 0 0 .38.2 1.42 1.42 0 0 0 .85-1 11.07 11.07 0 0 0 .69-2.6zM119 48.32a.93.93 0 0 1 .15.43 1.77 1.77 0 0 1-.22.84 7.1 7.1 0 0 0-.4.87q-.57 2.11-1.47 5.33a4.15 4.15 0 0 1-.43 1.58 1.26 1.26 0 0 1-1.17.66 1.64 1.64 0 0 1-1.05-.24.82.82 0 0 1-.24-.59v-.34a2.06 2.06 0 0 0-.09-.49l-2.08-5.85a2.07 2.07 0 0 0-.47-.61.73.73 0 0 1-.29-.62 1 1 0 0 1 1.11-.8 2.15 2.15 0 0 1 .4 0q.65.08 1.42 2.15t1.32 3.87l1.32-5.36a3.65 3.65 0 0 1 .17-.56 1 1 0 0 1 .39-.44 1.39 1.39 0 0 1 .63-.15 1 1 0 0 1 1 .32zM125.32 55a2.71 2.71 0 0 1-.79 1.39 2.23 2.23 0 0 1-.86.54 3.7 3.7 0 0 1-1.53.41 2.34 2.34 0 0 1-2-1.26 6.48 6.48 0 0 1-.86-3 7.56 7.56 0 0 1 .47-3.44 2.91 2.91 0 0 1 2-2 4 4 0 0 1 .5-.07q1.95-.14 2.32 2.23a3.55 3.55 0 0 1-.69 2.45 5.55 5.55 0 0 1-2.53 2.19 5.81 5.81 0 0 0 .34.83.7.7 0 0 0 .65.36 1.43 1.43 0 0 0 .78-.35 1.57 1.57 0 0 0 .46-.51.67.67 0 0 0 .1-.38.66.66 0 0 1 .32-.39.49.49 0 0 1 .23-.07 1.07 1.07 0 0 1 .79.33.87.87 0 0 1 .3.74zm-3-5.57a1.25 1.25 0 0 0-1 1 5.08 5.08 0 0 0-.26 2.48 2.93 2.93 0 0 0 1.34-1.25 2.85 2.85 0 0 0 .6-1.66.54.54 0 0 0-.67-.56zM136.6 44.66l-1.94 9.81a.62.62 0 0 0 0 .15 3.63 3.63 0 0 0 .07.41 3.68 3.68 0 0 1 .07.45 1.11 1.11 0 0 1-.23.81.92.92 0 0 1-.67.35 2.08 2.08 0 0 1-1.37-.55 1.76 1.76 0 0 1-.81-1.18 1.46 1.46 0 0 1 .06-.37.72.72 0 0 0 0-.36l-2.56-9.18a.85.85 0 0 0-.36-.33.68.68 0 0 1-.36-.5q-.05-.74 1.34-.84a3 3 0 0 1 1.12.12 1 1 0 0 1 .65.49.63.63 0 0 1 0 .19 1.12 1.12 0 0 1-.1.44.8.8 0 0 0-.06.46l1.63 6.06 1.19-6.66a1.6 1.6 0 0 0 0-.35v-.42000000000000004a.91.91 0 0 1 .4-.83 1.36 1.36 0 0 1 .71-.23 2.31 2.31 0 0 1 1.25.26 1 1 0 0 1 .63.78.76.76 0 0 1 0 .29.83.83 0 0 1-.33.35.67.67 0 0 0-.33.38zM144.57 54.63a1.12 1.12 0 0 1-1.15.89 1 1 0 0 1-.53-.08 1.07 1.07 0 0 1-.41-.69 10.47 10.47 0 0 0-.5-1.43 2.87 2.87 0 0 1-.85 1.89 2.71 2.71 0 0 1-1.81 1.06 1.78 1.78 0 0 1-1.77-1.46 4.15 4.15 0 0 1-.25-1.1 3.13 3.13 0 0 1 1.37-2.71l2.46-1.68a2.4 2.4 0 0 0 0-.54.55.55 0 0 0-.32-.58 1.62 1.62 0 0 0-.48-.05.77.77 0 0 0-.55.26l-.39.45a2.27 2.27 0 0 0-.46.64.78.78 0 0 1-.51.45.9.9 0 0 1-.79-.24 1.1 1.1 0 0 1-.4-.78.89.89 0 0 1 .1-.48 3.28 3.28 0 0 1 1-1.16 5.49 5.49 0 0 1 2.81-.9 1.5 1.5 0 0 1 1.58.94 11 11 0 0 1 .59 2.6 29.11 29.11 0 0 0 .61 3.39 1.33 1.33 0 0 0 .32.52 1 1 0 0 1 .29.55.84.84 0 0 1 .04.24zm-3.14-3.81l-.93.61a3.59 3.59 0 0 0-.84.8 1.91 1.91 0 0 0-.5 1.19 1.45 1.45 0 0 0 .35.8.45.45 0 0 0 .38.2 1.42 1.42 0 0 0 .85-1 11 11 0 0 0 .69-2.6zM150.4 52.69a2.78 2.78 0 0 1-2.54 3 2.24 2.24 0 0 1-1.5-.56 6 6 0 0 1-1.16-1.25 1.73 1.73 0 0 1-.42-.84 1.14 1.14 0 0 1 1.1-.49 1.42 1.42 0 0 1 .63.07.76.76 0 0 1 .48.51.8.8 0 0 0 .2.46.92.92 0 0 0 .66.48.51.51 0 0 0 .38-.31 1.21 1.21 0 0 0 .14-.69 1.55 1.55 0 0 0-.12-.48 2.32 2.32 0 0 0-.94-.69 6.62 6.62 0 0 1-1.45-1 2.67 2.67 0 0 1-.84-1.78 3.41 3.41 0 0 1 .56-2.2 2.23 2.23 0 0 1 1.76-1.06 2 2 0 0 1 1.81.74 2 2 0 0 1 .51 1.39 1 1 0 0 1 .23.64 1.12 1.12 0 0 1-.3.86 1.07 1.07 0 0 1-.71.4 1.16 1.16 0 0 1-1-.66 1 1 0 0 1-.15-.51v-.81q0-.42-.34-.4c-.32 0-.45.35-.41 1a2 2 0 0 0 .73 1.47 5.53 5.53 0 0 0 1.11.58 3 3 0 0 1 1.05.66 2.49 2.49 0 0 1 .53 1.47zm-1.77-9.8a.86.86 0 0 1 .51.14.51.51 0 0 1 .28.39 3.58 3.58 0 0 1-1.16 1.6l-.29.34-.29.34a1 1 0 0 1-.68.3.83.83 0 0 1-.64-.41l-.26-.34-.27-.34a2.29 2.29 0 0 1-1-1.09.46.46 0 0 1 .08-.29 1 1 0 0 1 .23-.25 1.09 1.09 0 0 1 .32-.17 1.26 1.26 0 0 1 .32-.07.72.72 0 0 1 .47.42 3.3 3.3 0 0 0 .81.93l.73-1a1.84 1.84 0 0 1 .37-.4l.2-.08a.74.74 0 0 1 .26-.02zM156.94 52.68a2.72 2.72 0 0 1-.79 1.39 2.23 2.23 0 0 1-.86.54 3.69 3.69 0 0 1-1.53.41 2.33 2.33 0 0 1-2-1.26 6.47 6.47 0 0 1-.86-3 7.56 7.56 0 0 1 .47-3.44 2.91 2.91 0 0 1 2-2 4 4 0 0 1 .5-.07q1.95-.14 2.32 2.23a3.55 3.55 0 0 1-.69 2.45 5.55 5.55 0 0 1-2.53 2.19 5.82 5.82 0 0 0 .34.83.7.7 0 0 0 .65.36 1.43 1.43 0 0 0 .78-.35 1.58 1.58 0 0 0 .46-.51.68.68 0 0 0 .1-.38.66.66 0 0 1 .31-.51.5.5 0 0 1 .23-.07 1.07 1.07 0 0 1 .79.33.88.88 0 0 1 .31.86zm-3-5.57a1.25 1.25 0 0 0-1 1 5.08 5.08 0 0 0-.26 2.48 2.93 2.93 0 0 0 1.32-1.23 2.85 2.85 0 0 0 .54-1.65.54.54 0 0 0-.54-.59zM168.3 53.58a.91.91 0 0 1-.92.68 1.6 1.6 0 0 1-1.45-.55 6.57 6.57 0 0 1-.43-2.45l-.06-.87v-.8a2.55 2.55 0 0 0-.2-1.17q-.25-.08-1.33 4.7v.79a.73.73 0 0 1-.28.66 1 1 0 0 1-.47.15 1.57 1.57 0 0 1-.94-.24 1.33 1.33 0 0 1-.61-.7 10.76 10.76 0 0 1-.32-2.38q-.16-2.6-.15-2.5a1.29 1.29 0 0 0-.15-.7q-.33.65-.57 1.24a7.29 7.29 0 0 0-.6 2.34 1.81 1.81 0 0 0 0 .77.72.72 0 0 1-.1.68.86.86 0 0 1-.56.22 1.64 1.64 0 0 1-.81-.16 1.57 1.57 0 0 1-.62-.46 6.26 6.26 0 0 1-.47-2.36l-.26-3.85a1.93 1.93 0 0 0-.17-.45 1.38 1.38 0 0 1-.15-.43.52.52 0 0 1 .06-.28 1.27 1.27 0 0 1 1.06-.41 1.24 1.24 0 0 1 1.31.43.58.58 0 0 1 .07.23 1 1 0 0 1-.12.44 1 1 0 0 0-.12.47l.06 1.85q.41-1.07 1.1-2.71l.16-.44a1.05 1.05 0 0 1 .24-.4.89.89 0 0 1 .59-.21 3.23 3.23 0 0 1 1.34.2.92.92 0 0 1 .73.65 1.15 1.15 0 0 1-.08.65.74.74 0 0 0-.11.38l.23 3.53q.22-.61.74-2.85a5.21 5.21 0 0 1 .68-1.92 1.81 1.81 0 0 1 1-.34q1.31-.1 1.41.65.13 2 .49 6.67a.67.67 0 0 0 .36.41.7.7 0 0 1 .37.51.94.94 0 0 1 .05.33zM184.15 52.41a.91.91 0 0 1-.92.68 1.6 1.6 0 0 1-1.45-.55 6.58 6.58 0 0 1-.43-2.45l-.06-.87v-.8a2.54 2.54 0 0 0-.2-1.17q-.25-.08-1.33 4.7v.79a.73.73 0 0 1-.28.66 1 1 0 0 1-.47.15 1.57 1.57 0 0 1-.94-.24 1.33 1.33 0 0 1-.61-.7 10.73 10.73 0 0 1-.32-2.38q-.16-2.6-.15-2.5a1.3 1.3 0 0 0-.15-.7q-.33.65-.57 1.24a7.3 7.3 0 0 0-.6 2.35 1.81 1.81 0 0 0 0 .77.72.72 0 0 1-.1.68.86.86 0 0 1-.56.22 1.64 1.64 0 0 1-.81-.16 1.57 1.57 0 0 1-.62-.46 6.28 6.28 0 0 1-.47-2.36l-.28-3.86a1.91 1.91 0 0 0-.16-.45 1.37 1.37 0 0 1-.15-.43.52.52 0 0 1 .06-.28 1.27 1.27 0 0 1 1.05-.41 1.24 1.24 0 0 1 1.31.43.57.57 0 0 1 .07.23 1 1 0 0 1-.12.44 1 1 0 0 0-.12.47l.14 1.86q.41-1.07 1.1-2.71l.16-.44a1.07 1.07 0 0 1 .24-.4.89.89 0 0 1 .59-.21 3.22 3.22 0 0 1 1.34.2.92.92 0 0 1 .73.65 1.14 1.14 0 0 1-.08.65.75.75 0 0 0-.11.38l.22 3.57q.22-.61.74-2.85a5.21 5.21 0 0 1 .68-1.92 1.81 1.81 0 0 1 1-.34q1.31-.1 1.41.65.13 2 .49 6.67a.67.67 0 0 0 .36.41.7.7 0 0 1 .37.51.94.94 0 0 1 0 .28zM190.36 50.23a2.71 2.71 0 0 1-.79 1.39 2.23 2.23 0 0 1-.86.54 3.7 3.7 0 0 1-1.53.41 2.34 2.34 0 0 1-2-1.26 6.48 6.48 0 0 1-.86-3 7.56 7.56 0 0 1 .47-3.44 2.91 2.91 0 0 1 2-2 4 4 0 0 1 .5-.07q1.95-.14 2.32 2.23a3.55 3.55 0 0 1-.69 2.45 5.54 5.54 0 0 1-2.53 2.19 5.87 5.87 0 0 0 .34.83.7.7 0 0 0 .65.36 1.43 1.43 0 0 0 .78-.35 1.57 1.57 0 0 0 .46-.51.67.67 0 0 0 .1-.38.66.66 0 0 1 .31-.51.5.5 0 0 1 .23-.07 1.07 1.07 0 0 1 .79.33.87.87 0 0 1 .31.86zm-1.93-11.33a.86.86 0 0 1 .51.14.51.51 0 0 1 .28.39 3.58 3.58 0 0 1-1.16 1.6l-.29.34-.29.34a.94.94 0 0 1-.65.29.83.83 0 0 1-.64-.41l-.26-.34-.27-.34a2.28 2.28 0 0 1-1-1.09.46.46 0 0 1 .08-.28 1 1 0 0 1 .23-.25 1.11 1.11 0 0 1 .32-.17 1.27 1.27 0 0 1 .32-.07.72.72 0 0 1 .47.42 3.73 3.73 0 0 0 .81.93l.73-1a1.89 1.89 0 0 1 .38-.4l.2-.08a.76.76 0 0 1 .23-.02zm-1.06 5.76a1.25 1.25 0 0 0-1 1 5.07 5.07 0 0 0-.26 2.48 2.93 2.93 0 0 0 1.34-1.25 2.85 2.85 0 0 0 .54-1.65.54.54 0 0 0-.62-.58zM196.25 49.32a2.78 2.78 0 0 1-2.54 3 2.24 2.24 0 0 1-1.5-.56 6 6 0 0 1-1.21-1.29 1.74 1.74 0 0 1-.42-.84 1.14 1.14 0 0 1 1.1-.49 1.42 1.42 0 0 1 .63.07.76.76 0 0 1 .48.51.8.8 0 0 0 .2.46.92.92 0 0 0 .66.48.51.51 0 0 0 .38-.32 1.21 1.21 0 0 0 .14-.69 1.55 1.55 0 0 0-.12-.48 2.33 2.33 0 0 0-.94-.69 6.61 6.61 0 0 1-1.45-1 2.67 2.67 0 0 1-.84-1.78 3.41 3.41 0 0 1 .56-2.2 2.23 2.23 0 0 1 1.76-1.06 2 2 0 0 1 1.81.74 2 2 0 0 1 .51 1.39 1 1 0 0 1 .23.64 1.11 1.11 0 0 1-.3.86 1.07 1.07 0 0 1-.71.4 1.16 1.16 0 0 1-1-.66 1 1 0 0 1-.15-.51v-.81c0-.28-.13-.42-.34-.4s-.45.35-.41 1a2 2 0 0 0 .73 1.48 5.53 5.53 0 0 0 1.11.58 3 3 0 0 1 1.05.66 2.49 2.49 0 0 1 .58 1.51zM201.9 43.64a1.31 1.31 0 0 1-.42-.08 1.32 1.32 0 0 0-.43-.07.57.57 0 0 0-.23.07l-.58.35.41 5.59a1.57 1.57 0 0 0 .39.78 1.1 1.1 0 0 1 .33.77.87.87 0 0 1-.44.61 1.8 1.8 0 0 1-.84.28 1.19 1.19 0 0 1-1.25-.68 6 6 0 0 1-.22-1.45q-.08-.82-.17-2.55-.11-2-.15-2.49a1.32 1.32 0 0 0-.3.23.73.73 0 0 1-.44.22 1.43 1.43 0 0 1-.46-.06q-1.17-.31-1.2-.72a.54.54 0 0 1 0-.22.49.49 0 0 1 .4-.33 2.61 2.61 0 0 0 .56-.16 14 14 0 0 0 1.32-.8l-.1-1.42a1.45 1.45 0 0 0-.08-.41 1.45 1.45 0 0 1-.12-.39.51.51 0 0 1 .06-.28 1.31 1.31 0 0 1 1.1-.74 1.22 1.22 0 0 1 1.23.57 1 1 0 0 1 .16.42.62.62 0 0 1-.17.42.61.61 0 0 0-.17.41l.06.8a2.75 2.75 0 0 0 .62-.49.82.82 0 0 1 .46-.26h.18a1.21 1.21 0 0 1 1.12 1.17 1 1 0 0 1-.14.6.57.57 0 0 1-.49.31zM208.76 48.88a2.71 2.71 0 0 1-.79 1.39 2.22 2.22 0 0 1-.86.54 3.7 3.7 0 0 1-1.53.41 2.33 2.33 0 0 1-2-1.26 6.48 6.48 0 0 1-.86-3 7.56 7.56 0 0 1 .47-3.44 2.91 2.91 0 0 1 2-2 4 4 0 0 1 .5-.07q1.95-.14 2.32 2.23a3.55 3.55 0 0 1-.69 2.45 5.55 5.55 0 0 1-2.53 2.19 5.92 5.92 0 0 0 .34.83.7.7 0 0 0 .65.36 1.43 1.43 0 0 0 .78-.35 1.58 1.58 0 0 0 .46-.51.67.67 0 0 0 .1-.38.66.66 0 0 1 .31-.51.5.5 0 0 1 .23-.07 1.07 1.07 0 0 1 .79.33.88.88 0 0 1 .31.86zm-1.93-11.33a.87.87 0 0 1 .51.14.51.51 0 0 1 .28.39 3.58 3.58 0 0 1-1.16 1.6l-.29.34-.29.34a1 1 0 0 1-.65.29.83.83 0 0 1-.64-.41l-.26-.34-.27-.34a2.29 2.29 0 0 1-1-1.09.46.46 0 0 1 .08-.28 1 1 0 0 1 .23-.25 1.1 1.1 0 0 1 .32-.17 1.24 1.24 0 0 1 .32-.07.72.72 0 0 1 .47.42 3.71 3.71 0 0 0 .81.93l.74-1a1.86 1.86 0 0 1 .36-.4l.2-.08a.74.74 0 0 1 .24-.02zm-1.06 5.76a1.25 1.25 0 0 0-1 1 5.07 5.07 0 0 0-.26 2.48 2.93 2.93 0 0 0 1.34-1.25 2.85 2.85 0 0 0 .54-1.65.54.54 0 0 0-.62-.58z" transform="translate(-.23 -2.42)" fill="#bfbebd"/></svg>