<svg width="345pt" height="61pt" viewBox="0 0 345 61" xmlns="http://www.w3.org/2000/svg"><g><path d="M13.24 8.36c4.52-.26 10.06-.7 13.24 3.21 3.53 5.04 3.21 11.55 3.38 17.43-.15 6.69.56 13.65-1.74 20.08-1.24 3.82-5.14 6.18-9.06 6.16-4.14.15-9.14.36-12.04-3.18-2.99-4.01-3-9.32-3.37-14.1-.03-7.66-.59-15.52 1.57-22.96.97-3.64 4.29-6.33 8.02-6.64m2.27 8.7c-1.73 6.12-.65 12.59-.96 18.87.33 3.54-.75 7.54 1.3 10.7 3.42.61 2.71-3.44 2.97-5.61-.21-7.91.63-15.9-.6-23.74l-2.71-.22zM32.38 8.25c3.37 0 6.73.01 10.1-.01 2.3 7.65 3.99 15.49 6.62 23.04.3-7.67.07-15.34.13-23.02 3.32-.02 6.64-.05 9.96.08-.58 6.54-.29 13.11-.26 19.66-.15 8.88-.03 17.77-.06 26.66h-10.27c-2.04-7.78-4.59-15.44-6.17-23.33-.43 7.75-.19 15.52-.24 23.28-3.27.07-6.54.05-9.81.05v-46.41zM81.66 8.26c3.89-.01 7.78-.02 11.67.01l8.48 46.44c-3.42.02-6.84.01-10.26.01l-1.16-7.49c-2.02.01-4.03.01-6.04.01-.43 2.48-.78 4.97-1.04 7.47-3.44.02-6.88.03-10.31-.02 2.66-15.51 5.85-30.94 8.66-46.43m3.73 29c1.01-.01 3.03-.01 4.03-.01-.54-3.79-.9-7.6-1.32-11.4-.54-2.3-.61-4.67-.63-7.02-.79 6.13-1.37 12.28-2.08 18.43zM102.65 8.26c5.76.05 11.54-.14 17.3.08 3.43.2 6.69 2.43 7.74 5.77 2.23 6.36 1.81 13.23 1.87 19.87-.07 5.28-.13 10.76-2.2 15.69-1.32 3.28-4.92 5.04-8.32 5.04-5.47.11-10.95.02-16.42.02.07-15.49.01-30.98.03-46.47m10.8 7.87c-.04 10.28-.09 20.56.03 30.84 1.41-.3 3.21-.23 3.67-1.98 1.1-5.25.55-10.66.69-15.99-.16-4.13.45-8.55-1.44-12.38-.99-.17-1.97-.33-2.95-.49zM130.02 8.27c3.8-.03 7.6-.02 11.41 0 .9 10.29 1.94 20.57 2.87 30.86.78-10.31 2.48-20.55 3.37-30.86 3.72-.03 7.45-.03 11.17-.01-2.78 15.47-5.8 30.9-8.6 46.37-3.94.05-7.87.02-11.8.03-2.88-15.44-5.81-30.89-8.42-46.39zM159.78 8.3c7.15-.07 14.3-.09 21.45.01-.04 3.14-.06 6.27.05 9.41-3.53.78-7.16.34-10.73.43v8.1c3.29 0 6.58 0 9.87.02-.01 3.15-.01 6.31 0 9.46-3.29.02-6.58.02-9.86.02-.01 3-.01 6.01-.01 9.01l10.94.01c.01 3.32 0 6.64.02 9.96-7.23.02-14.46.05-21.69-.02-.03-15.47.04-30.94-.04-46.41zM183.65 8.26c5.36.06 10.73-.18 16.08.11 4.31.3 7.93 3.71 8.41 8.03.79 5.34 1.43 13.36-5.12 15.27 2.8 1.02 5.09 3.35 5.38 6.42.47 5.5.1 11.05.21 16.57-3.6 0-7.2.02-10.8-.04-.23-5.93.56-11.94-.55-17.81-.94-.29-1.87-.57-2.8-.86-.09 6.23-.03 12.46-.04 18.7-3.59.01-7.18.02-10.77-.01v-46.38m10.8 7.88c-.05 3.91-.06 7.82 0 11.73l2.92-.42c1.51-3.38 1.49-7.41.03-10.8l-2.95-.51zM209.39 8.16c7.67.01 15.35-.02 23.03.02-.01 3.65.02 7.31-.04 10.97-2.21 0-4.43.01-6.63.05.03 11.82 0 23.64.01 35.46-3.31 0-6.62.03-9.92-.08.02-11.81 0-23.62.01-35.43-2.13.01-4.26.01-6.38.03-.13-3.67-.09-7.35-.08-11.02zM233.8 8.31c3.67-.09 7.34-.06 11.01-.06v46.41c-3.67 0-7.34.02-11-.05.01-15.43.02-30.87-.01-46.3zM249.58 11.61c3.46-3.99 9.53-4.13 14.16-2.47 4.98 1.94 5.58 7.97 5.71 12.57-3.01.05-6.03.03-9.04.06-.13-1.79-.52-3.54-1.19-5.21-3.99-.01-3.46 4.53-1.87 6.89 2.76 4.32 8.05 6.13 10.91 10.36 3.19 4.54 2.74 10.66 1.03 15.66-1.33 3.8-5.43 5.67-9.21 5.77-3.44.1-7.44.37-10.14-2.17-3.47-3.15-3.41-8.3-3.49-12.62l9.2-.03c.19 2.25-.2 7.07 3.44 6.06 2.68-2.67.84-6.85-1.86-8.71-4.69-3.4-9.4-7.67-10.48-13.64-.61-4.27-.5-9.33 2.83-12.52zM272.38 8.25c3.68 0 7.36-.01 11.05.02-.02 15.46-.01 30.92-.01 46.37-3.68.03-7.36.02-11.04.02v-46.41zM285.83 8.33c3.44-.12 6.87-.09 10.31-.05 2.03 8.06 4.64 15.98 6.33 24.13.64-8.02.2-16.08.32-24.12 3.25-.06 6.51-.04 9.76-.04v46.41c-3.46 0-6.92.01-10.38-.02-2.27-7.77-4.1-15.69-6.68-23.36.14 7.78.24 15.58.18 23.38-3.29 0-6.57.04-9.85-.1.05-15.41.03-30.82.01-46.23zM315.53 18.84c.45-4.39 2.91-9.07 7.52-10.16 4.57-.78 10.21-1.13 13.7 2.53 3.24 3.7 2.79 8.96 2.81 13.53-3.32.01-6.64.01-9.95-.01-.13-2.87.41-6.02-1.35-8.53-.55.46-1.1.91-1.64 1.37-.65 5.46-.42 10.97-.45 16.45.05 4.03-.18 8.13.77 12.08.77.25 1.56.42 2.38.52.65-2.34.99-4.74 1.08-7.16l-2.58-.08c.06-3.22-.32-6.5.48-9.66 3.82.13 7.65.07 11.47.07.09 8.29.02 16.58.04 24.87h-6.36l.03-2.65c-2.95 3.79-8.5 3.73-12.59 2.1-3.54-1.43-5.01-5.43-5.42-8.95-.94-8.73-.93-17.59.06-26.32z"/></g></svg>