<svg viewBox="0 0 328 119" xmlns="http://www.w3.org/2000/svg"><g><path d="M142.66 17.67c13.1-9.5 30.63-11.4 46.06-7.45 12.6 3.2 23.72 11.93 29.42 23.67 2.38 4.75 3.98 9.88 4.84 15.11.94 5.61 1.15 11.33.61 16.99-1.29 14.19-8.43 28.01-20.17 36.32-13.09 9.5-30.64 11.46-46 7.08-9.82-2.77-18.75-8.81-24.66-17.17-5.49-7.65-8.39-16.91-9.21-26.23-.48-5.66-.3-11.38.64-16.99 1.93-12.25 8.3-24.02 18.47-31.33m27.55 8.43c-6.07.68-11.98 3.43-15.97 8.12-6.15 7.03-8.02 16.72-8.09 25.8.09 9.06 1.97 18.73 8.14 25.71 9.55 11.02 28.88 11.03 38.47.06 6.23-6.98 8.16-16.69 8.26-25.79-.07-9.12-1.97-18.86-8.19-25.89-5.49-6.39-14.42-8.97-22.62-8.01zM13.23 13.02c-.01-1.21-.13-3.22 1.72-2.84 6.41-.08 12.82-.06 19.23.02.58 21.12-.03 42.27.31 63.4.31 6.55 3.45 13.42 9.58 16.4 8.06 3.92 19.35 2.6 24.79-5.04 3.98-5.45 3.96-12.51 3.82-18.96l-.01-17c-.01-11.31.03-22.63-.02-33.94.1-1.57-.22-3.26.44-4.74 6.8-.2 13.72-.49 20.48.14.67 12.8.09 25.7.29 38.54 0 5.67-.01 11.33 0 17 .23 10.77-1.16 22.25-7.71 31.18-5.75 8.08-15.39 12.52-25.05 13.71-10.05 1.19-20.71.65-29.95-3.81-7.31-3.49-12.86-10.18-15.31-17.86-2.01-5.84-2.65-12.07-2.61-18.22.01-19.33.01-38.66 0-57.98zM254.4 10.38c6.75-.45 13.58-.31 20.34-.07l.47 1.58c.09 12.37 0 24.74.04 37.11v17c-.01 8.37-.01 16.74-.01 25.11 12.18.14 24.38-.27 36.54.19.9 5.95.09 12.09.4 18.12-3.35.53-6.75.31-10.13.33l-45.12.01c-1.15-.01-3.25.14-2.84-1.69-.08-14.02 0-28.05-.03-42.07-.01-5.67-.01-11.33 0-17-.01-11.32.03-22.64-.02-33.97.05-1.55-.14-3.15.36-4.65zM295.45 10.71c6.35-2.33 13.88 2.45 14.56 9.15 1.23 7.14-5.87 13.92-12.95 12.43-6.08-.84-10.49-7.39-8.98-13.35.77-3.79 3.68-7.04 7.37-8.23m.68 2.29c-2.75.9-4.79 3.36-5.48 6.13-1.27 4.5 1.68 9.74 6.3 10.75 5.39 1.52 11.03-3.43 10.59-8.92-.02-5.53-6.16-10.15-11.41-7.96zM294.32 15.28c3.13.31 7.45-1.15 9.54 1.95 1.42 2-.55 3.79-1.74 5.23l2.19 4.55h-3.09c-.59-1.45-1.16-2.91-1.74-4.37l-2.35.01c-.01 1.46-.01 2.91-.01 4.37-.7-.01-2.1-.01-2.8-.01-.02-3.91-.02-7.82 0-11.73m2.83 1.92c-.01 1.2-.01 2.39 0 3.59 1.66-.22 3.74.09 4.52-1.82-.8-1.89-2.86-1.58-4.52-1.77z"/></g><g fill="#ee7d10"><path d="M45 49h27.67l.01 17h-27.68v-17zM93.86 49h30.33c-.94 5.61-1.12 11.33-.64 16.99-9.89.02-19.79.01-29.69.01-.01-5.67 0-11.33 0-17zM222.98 49h31.08c-.01 5.67-.01 11.33 0 17-10.16 0-20.32.01-30.47-.01.54-5.66.33-11.38-.61-16.99zM275.25 49h27.75v17h-27.75v-17z"/></g></svg>
