<svg xmlns="http://www.w3.org/2000/svg" viewBox="0 0 167.62 65.83"><defs><style>.cls-1{fill-rule:evenodd;}</style></defs><path class="cls-1" d="M11 11h43.86v43.86h-43.86v-43.86zm-11-11h65.83v11h-11l11 11v43.83h-65.83v-65.83zm25.46 47.4h-7v-29h10.54l3.95 14.48 4-14.48h10.45v29h-7v-18l-5.7 18h-3.54l-5.7-18v18z"/><path class="cls-2" d="M76.8 10.92h4.58l3.2 8.59 1.14 3.34h.12l1.16-3.34 3.11-8.59h4.55v19.08h-4v-7c0-.47 0-1 .06-1.55s.09-1.14.15-1.72l.13-1.67q.09-.83.18-1.54h-.13l-1.58 4.48-2.93 7.42h-1.74l-2.93-7.42-1.53-4.43h-.11q.09.7.18 1.54t.16 1.7q.07.87.13 1.72t.06 1.47v7h-4v-19.08zm31.32 14.58h-5.84l-1.17 4.5h-4.4l6-19.13h5.19l6 19.13h-4.6zm-.88-3.37l-.44-1.76q-.41-1.44-.79-3.05t-.76-3.11h-.12l-.72 3.12q-.37 1.6-.78 3l-.47 1.76h4.08zm8.76-11.21h4.43l5 9.5 1.88 4.22h.12q-.15-1.52-.34-3.4a35.49 35.49 0 0 1-.19-3.58v-6.74h4.11v19.08h-4.43l-5-9.53-1.88-4.17h-.12q.15 1.58.34 3.4a33.81 33.81 0 0 1 .19 3.52v6.78h-4.11v-19.08zm28.44 14.58h-5.84l-1.17 4.5h-4.43l6-19.13h5.19l6 19.13h-4.58zm-.88-3.37l-.44-1.76q-.41-1.44-.79-3.05t-.76-3.11h-.12l-.72 3.12q-.37 1.6-.78 3l-.47 1.76h4.08zm8.72-11.21h7a13.27 13.27 0 0 1 2.92.31 6.59 6.59 0 0 1 2.38 1 5 5 0 0 1 1.6 1.91 6.53 6.53 0 0 1 .59 2.92 6.56 6.56 0 0 1-.6 2.9 5.64 5.64 0 0 1-1.63 2 6.92 6.92 0 0 1-2.37 1.17 10.55 10.55 0 0 1-2.87.38h-2.67v6.49h-4.31v-19.08zm6.72 9.21q3.52 0 3.52-3.05a2.38 2.38 0 0 0-.89-2.11 4.64 4.64 0 0 0-2.63-.62h-2.4v5.78h2.4zm-83.11 25.27a11.3 11.3 0 0 1 .75-4.24 9.41 9.41 0 0 1 2-3.15 8.56 8.56 0 0 1 3-2 9.87 9.87 0 0 1 3.65-.68 7.56 7.56 0 0 1 3.51.76 9.17 9.17 0 0 1 2.42 1.73l-2.38 2.67a5.93 5.93 0 0 0-1.48-1.06 4.58 4.58 0 0 0-2-.38 4.82 4.82 0 0 0-2 .42 4.64 4.64 0 0 0-1.6 1.22 5.59 5.59 0 0 0-1 1.94 8.44 8.44 0 0 0-.37 2.58 7.05 7.05 0 0 0 1.33 4.59 4.91 4.91 0 0 0 4 1.63 4.48 4.48 0 0 0 1.14-.15 2.36 2.36 0 0 0 .91-.44v-3.24h-3.2v-3.52h7v8.8a8.55 8.55 0 0 1-2.7 1.64 9.78 9.78 0 0 1-3.7.67 10.25 10.25 0 0 1-3.62-.63 8.33 8.33 0 0 1-2.95-1.86 8.6 8.6 0 0 1-2-3.06 11.57 11.57 0 0 1-.72-4.24m29.99 9.44l-3.67-6.89h-2.38v6.89h-4.31v-19.12h6.89a13.27 13.27 0 0 1 2.86.29 6.51 6.51 0 0 1 2.33 1 4.91 4.91 0 0 1 1.58 1.83 6.2 6.2 0 0 1 .59 2.84 6.07 6.07 0 0 1-.92 3.48 5.63 5.63 0 0 1-2.48 2l4.34 7.66h-4.84zm-6-10.33h2.23a4.06 4.06 0 0 0 2.6-.72 2.56 2.56 0 0 0 .9-2.13 2.13 2.13 0 0 0-.9-2 5 5 0 0 0-2.6-.56h-2.28v5.37zm21.48 10.69a8.85 8.85 0 0 1-3.54-.69 7.67 7.67 0 0 1-2.74-2 9.1 9.1 0 0 1-1.78-3.14 13 13 0 0 1-.63-4.2 12.83 12.83 0 0 1 .64-4.17 8.66 8.66 0 0 1 1.78-3.08 7.61 7.61 0 0 1 2.74-1.92 9.8 9.8 0 0 1 7.07 0 7.55 7.55 0 0 1 2.74 1.92 8.82 8.82 0 0 1 1.78 3.08 12.73 12.73 0 0 1 .63 4.15 13 13 0 0 1-.63 4.2 9.1 9.1 0 0 1-1.78 3.14 7.69 7.69 0 0 1-2.74 2 8.85 8.85 0 0 1-3.54.69m0-3.73a3.57 3.57 0 0 0 3.11-1.69 8.07 8.07 0 0 0 1.14-4.59 7.66 7.66 0 0 0-1.14-4.49 3.8 3.8 0 0 0-6.22 0 7.66 7.66 0 0 0-1.14 4.49 8.07 8.07 0 0 0 1.14 4.59 3.57 3.57 0 0 0 3.11 1.69m12.18-15.73h4.34v10.7a6.72 6.72 0 0 0 .85 3.93 2.92 2.92 0 0 0 2.47 1.12 3 3 0 0 0 2.49-1.12 6.54 6.54 0 0 0 .88-3.93v-10.7h4.17v10.28q0 4.81-1.92 7a7 7 0 0 1-5.62 2.2 7.23 7.23 0 0 1-5.69-2.2q-2-2.2-2-7v-10.28zm19.62 0h7a13.26 13.26 0 0 1 2.92.31 6.56 6.56 0 0 1 2.37 1 5 5 0 0 1 1.56 1.97 7.44 7.44 0 0 1 0 5.82 5.63 5.63 0 0 1-1.63 2 6.93 6.93 0 0 1-2.37 1.18 10.54 10.54 0 0 1-2.87.38h-2.67v6.48h-4.31v-19.14zm6.72 9.21q3.52 0 3.52-3.05a2.38 2.38 0 0 0-.89-2.11 4.63 4.63 0 0 0-2.62-.62h-2.41v5.78h2.41z"/></svg>