<svg xmlns="http://www.w3.org/2000/svg" viewBox="0 0 110.6 50" enable-background="new 0 0 110.6 50"><path d="M47.5 43l-3.5-.8c-.4-.1-.7-.4-.7-.9v-16.5c0-13.5-11-16.4-18.1-16.4-3.4 0-7.5.9-11 2.9l-.9-2.1-13.3 1.3v5.2l5.9 1c.3.1.5.4.6.7v23.8c0 .5-.2.8-.7.9h-.1l-3.2.9v6.2h18.8v-6.2l-3.1-.9c-.4-.1-.6-.4-.6-.9v-16.7c0-7 6.3-7 7.6-7 1.1 0 3.2.2 4.9 1.4 1.3.9 2.3 2.5 2.3 5.1v17.300000000000004c0 .5-.2.8-.7.9l-3.1.8v6.2h18.9v-6.2zm10.1-18.5c0-7 6.3-7 7.6-7 2.1 0 7.2.7 7.2 6.5v.5h-14.8zm0 8.4h25.7v-8.2c0-13.5-11-16.4-18.1-16.4-7.4 0-18.7 3.7-18.7 15.6v10.4c-.1 11.9 11.5 15.7 18.9 15.7 9 0 13.9-2.8 17.6-5v-6.5h-10.1s-2.9 2.8-7.5 2.8c-1.3 0-7.8-.5-7.8-7.5v-.9zm41 5.4v-20.9h10.4v-8.2h-10.4v-9.2l-11.2 1.2v8h-3.8v8.3h3.8v21.1c0 10.9 10 10.9 13.4 10.9 4.6 0 9.8-2.5 9.8-2.5v-7.5h-5.9s-1 1.3-3.6 1.3c-1.6-.1-2.5-.8-2.5-2.5"/></svg>