<svg width="600pt" height="600pt" viewBox="0 0 600 600" xmlns="http://www.w3.org/2000/svg"><g><path d="M77.25 99.25c71.59-.01 143.18.01 214.76-.01 19.1.48 38.22 2.1 56.98 5.82 17.54 3.48 34.88 8.81 50.6 17.45 14.83 8.15 28.2 19.8 36.09 34.96 9.21 17.45 10.27 38.27 6.14 57.29-3.61 16.42-14.39 30.5-28.03 40-20.12 14.09-43.92 21.56-67.36 28.06 26.64 4.7 53.45 11.26 77.34 24.34 17.02 9.28 32.24 22.83 40.9 40.4 9.53 18.82 11.45 40.63 9.4 61.37-2.13 21.04-11.87 41.33-27.73 55.45-10.62 9.86-23.45 17.06-36.96 22.16-18.27 7.17-37.81 10.51-57.35 11.57-28.66 1.92-57.39 1.29-86.09 1.39-62.86.05-125.73-.09-188.58.07-.12-2.28-.13-4.55-.12-6.81 16.67-.02 33.34 0 50.01-.01v-386.75c-16.67-.01-33.34.02-50.01-.01.01-2.25.01-4.49.01-6.74m171.25 6.75c0 57.92-.01 115.84.01 173.75 15.86-.01 31.71 0 47.57 0 5.22-.01 10.4-1.91 14.38-5.29 6.66-5.73 10.01-14.22 12.43-22.44 4.55-16.58 5.04-33.91 5.35-51-.43-22.52-2.06-45.27-8.31-67.01-2.14-6.65-4.39-13.58-9.07-18.93-4.51-4.48-10.89-6.3-16.94-7.53-14.99-2.66-30.29-1.16-45.42-1.55m-.01 181.27l.02 205.48c17.18 0 34.36-.02 51.54.01 5.28.24 10.72-.66 15.35-3.33 8.41-4.66 13.54-13.36 17-22.04 6.39-16.67 7.56-34.74 7.87-52.42-.34-24.5-.82-49.12-4.67-73.37-2.73-16.43-6.82-34.59-20.54-45.49-7.57-6.1-17.41-8.83-27.02-8.87-13.18.03-26.37-.02-39.55.03zM456 104.51c13.67.01 27.34-.07 41.01.03 9.09.45 18.95.36 26.83 5.61 7.68 5.13 11.77 14.13 13.58 22.91 2.24 11.49 1.27 24.17-5.3 34.15-6.09 9.05-15.78 16.57-27.12 16.63-16.39.36-32.8.08-49.2.14.11-.36.34-1.09.46-1.45 3.16-.14 6.33.03 9.5-.04-.02-25.49-.01-50.99-.01-76.48-3.25-.01-6.5-.01-9.75-.01v-1.49m34 1.5v76.49c4-.12 8.04.33 12.01-.32 4.09-.82 6.29-4.91 7.34-8.6 2.23-8.34 2.76-17.02 3.1-25.6.07-10.15.3-20.37-1.11-30.44-.9-4.09-1.96-9.74-6.8-10.8-4.78-1-9.7-.69-14.54-.73z"/></g></svg>