<svg xmlns="http://www.w3.org/2000/svg" viewBox="0 0 1200 400"><path fill="#f4690b" d="M206.2 248.3h20.8c1 3.5 3.6 5.3 7.8 5.3 4.2 0 6.3-1.4 6.3-4.2 0-1.8-1.6-3.1-4.8-3.8l-12-2.4c-11.2-2.4-16.9-8.3-16.9-17.8 0-6.3 2.5-11.4 7.5-15.1 5-3.7 11.2-5.6 18.6-5.6 8.2 0 14.6 1.7 19.2 5.2 4.7 3.5 7.5 8.4 8.5 14.6h-19.7c-.8-3.3-3.3-4.9-7.5-4.9-3.8 0-5.7 1.4-5.7 4.1 0 1.7 1.4 2.9 4.2 3.4l12.1 2.9c11.4 2.6 17.1 8.8 17.1 18.4 0 6.3-2.5 11.3-7.5 14.9-5 3.6-11.4 5.4-19.2 5.4-8 0-14.6-1.8-19.7-5.3-5.1-3.7-8.2-8.7-9.1-15.1zm69-2.2v-23.5h-9v-16.6h9v-16.9h21.1v16.9h12.7v16.6h-12.8v20.4c0 4.5 2.2 6.8 6.5 6.8 2.4 0 4.7-.5 6.8-1.4v18.1c-2.8 1.3-6.8 1.9-11.8 1.9-15 0-22.5-7.4-22.5-22.3zm70.8-41.6c8.7 0 15.4 2.2 20.2 6.6 4.8 4.4 7.1 10.6 7.1 18.6v37.5h-20.5v-3.1c-1.1 1.1-3 2.1-5.8 2.9-2.8.9-5.8 1.3-8.8 1.3-6.3 0-11.7-1.7-15.9-5.2-4.3-3.5-6.4-8.3-6.4-14.5 0-5.8 2.2-10.5 6.7-14.1 4.4-3.6 10.1-5.4 16.9-5.4 5.8 0 10.3 1.1 13.5 3.4v-3.9c0-2.1-.6-3.8-1.9-5.2-1.3-1.4-3.1-2.1-5.6-2.1-3.7 0-6.1 1.5-7.2 4.5h-20.3c.9-6.1 3.9-11.1 8.9-15.2s11.4-6.1 19.1-6.1m6.8 45.6v-3.5c-1.5-2.8-4.4-4.2-9-4.2-2.4 0-4.4.5-6 1.5-1.6 1-2.4 2.4-2.4 4.3 0 2 .8 3.5 2.4 4.5 1.6 1 3.6 1.5 6 1.5 4.5 0 7.5-1.4 9-4.1zm72.1-44.4v20.5c-2.4-1.3-5.4-1.9-8.8-1.9-6.1 0-9.7 2.3-10.9 6.9v35.9h-21.3v-61.1h21.3v5.4c3.4-4.5 8-6.8 13.9-6.8 2.6.1 4.5.4 5.8 1.1zm13.4 40.4v-23.5h-9v-16.6h9v-16.9h21.1v16.9h12.8v16.6h-12.8v20.4c0 4.5 2.2 6.8 6.5 6.8 2.4 0 4.7-.5 6.8-1.4v18.1c-2.8 1.3-6.8 1.9-11.8 1.9-15 0-22.6-7.4-22.6-22.3zM536.5 212c4.7-4.9 11-7.3 18.9-7.3 6.3 0 11.4 2 15.1 6.1 3.7 4 5.6 9.5 5.6 16.4v40.1h-21.3v-34.9c0-5.9-2.3-8.8-6.9-8.8-1.9 0-3.6.6-5 1.7s-2.4 2.7-2.9 4.8v37.3h-21.2v-34.9c0-5.9-2.3-8.8-6.9-8.8-1.9 0-3.6.6-5 1.7-1.5 1.1-2.4 2.7-2.9 4.8v37.3h-21.3v-61.5h21.3v5c3.5-4.3 8.8-6.4 15.8-6.4 6.9.1 12.5 2.5 16.7 7.4zm101.3 1.6c5.8 5.9 8.6 13.6 8.6 23.1s-2.9 17.1-8.6 23c-5.8 5.9-13.3 8.9-22.6 8.9-9.2 0-16.8-3-22.6-8.9-5.8-5.9-8.7-13.6-8.7-23s2.9-17.1 8.7-23.1c5.8-5.9 13.3-8.9 22.6-8.9 9.2 0 16.8 2.9 22.6 8.9zm-15.1 33.4c1.8-2.6 2.7-6.1 2.7-10.4 0-4.4-.9-7.8-2.7-10.5-1.8-2.6-4.4-3.9-7.6-3.9-3.2 0-5.7 1.3-7.5 3.9-1.8 2.6-2.7 6.1-2.7 10.5 0 4.3.9 7.7 2.7 10.3 1.8 2.6 4.3 3.9 7.5 3.9 3.3.1 5.8-1.2 7.6-3.8zm32 20.2v-61.2h21.3v5.3c4-4.4 9.5-6.7 16.5-6.7 6.7 0 12 2 15.8 6.1 3.9 4 5.8 9.5 5.8 16.4v40.1h-21.2v-34.9c0-2.6-.7-4.7-2-6.3-1.4-1.6-3.4-2.4-6-2.4-2.2 0-4.1.6-5.6 1.8-1.6 1.2-2.7 2.8-3.2 4.9v37h-21.4zm109.7 0v-4.9c-1.5 1.7-3.7 3.2-6.5 4.4-2.8 1.2-5.6 1.8-8.6 1.8-8.5 0-15.2-3-20.1-9-4.9-6-7.3-13.7-7.3-22.9s2.4-16.9 7.3-22.9c4.8-6 11.5-9 20.1-9 3 0 5.9.6 8.6 1.8 2.8 1.2 4.9 2.7 6.5 4.4v-32.1h21.3v88.4h-21.3zm0-22.6v-16.2c-.8-1.6-2.1-3-3.8-4.1-1.7-1.1-3.6-1.6-5.6-1.6-3.6 0-6.5 1.3-8.6 3.9-2.1 2.6-3.1 5.9-3.1 10 0 4 1 7.3 3.1 9.9 2.1 2.6 4.9 3.9 8.6 3.9 4.5-.1 7.6-2 9.4-5.8zm87.3 22.6h-20.5v-3.1c-1.1 1.1-3 2.1-5.8 2.9-2.8.9-5.8 1.3-8.8 1.3-6.3 0-11.7-1.7-15.9-5.2-4.3-3.5-6.4-8.3-6.4-14.5 0-5.8 2.2-10.5 6.7-14.1 4.4-3.6 10.1-5.4 16.9-5.4 5.8 0 10.3 1.1 13.5 3.4v-3.9c0-2.1-.6-3.8-1.9-5.2-1.3-1.4-3.1-2.1-5.6-2.1-3.7 0-6.1 1.5-7.2 4.5h-20.1c.9-6.1 3.9-11.1 8.9-15.2 5-4 11.4-6.1 19.1-6.1 8.7 0 15.4 2.2 20.2 6.6 4.8 4.4 7.1 10.6 7.1 18.6v37.5zm-20.5-17.1v-3.5c-1.5-2.8-4.4-4.2-9-4.2-2.4 0-4.4.5-6 1.5-1.6 1-2.4 2.4-2.4 4.3 0 2 .8 3.5 2.4 4.5 1.6 1 3.6 1.5 6 1.5 4.4 0 7.4-1.4 9-4.1zm54.3 49h-21.1l13.7-33.4-22.8-59.7h22.2l11.7 34.8 11.4-34.8h21.2l-36.3 93.1z" /><path fill="#ffd111" d="M523 169.4c-1.6 0-3.1-.4-4.5-1.2-2.8-1.6-4.5-4.6-4.5-7.9v-29.9h18.1v14.2l39.5-22.8-39.5-22.8v15.2h-18.1v-30.8c0-3.2 1.7-6.2 4.5-7.9 2.8-1.6 6.3-1.6 9.1 0l66.8 38.5c2.8 1.6 4.5 4.6 4.5 7.9s-1.7 6.2-4.5 7.9l-66.8 38.5c-1.5.7-3 1.1-4.6 1.1zm24.2-137c-5 0-9.1-4.1-9.1-9.1v-14.2c0-5 4.1-9.1 9.1-9.1s9.1 4.1 9.1 9.1v14.3c-.1 5-4.1 9-9.1 9zm-72.5 30.6c-2.3 0-4.6-.9-6.4-2.6l-10.1-10.1c-3.5-3.5-3.6-9.3 0-12.8 3.5-3.5 9.3-3.6 12.8 0l10.1 10.1c3.5 3.5 3.6 9.3 0 12.8-1.7 1.7-4 2.6-6.4 2.6zm145 0c-2.3 0-4.7-.9-6.4-2.7-3.5-3.5-3.5-9.3 0-12.8l10.4-10.3c3.5-3.5 9.3-3.5 12.8 0s3.5 9.3 0 12.8l-10.4 10.3c-1.8 1.8-4.1 2.7-6.4 2.7zm44.6 71.3h-14.3c-5 0-9.1-4.1-9.1-9.1s4.1-9.1 9.1-9.1h14.3c5 0 9.1 4.1 9.1 9.1-.1 5.1-4.1 9.1-9.1 9.1zm-219.9 0h-14.3c-5 0-9.1-4.1-9.1-9.1s4.1-9.1 9.1-9.1h14.3c5 0 9.1 4.1 9.1 9.1 0 5.1-4 9.1-9.1 9.1z"/></svg>
