<?xml version="1.0" standalone="no"?>
<!DOCTYPE svg PUBLIC "-//W3C//DTD SVG 1.1//EN" "http://www.w3.org/Graphics/SVG/1.1/DTD/svg11.dtd" >
<svg xmlns="http://www.w3.org/2000/svg">
<metadata></metadata>
<defs>
<font id="prometheusregular" horiz-adv-x="1705" >
<font-face units-per-em="2048" ascent="1638" descent="-410" />
<missing-glyph horiz-adv-x="1024" />
<glyph horiz-adv-x="0" />
<glyph horiz-adv-x="682" />
<glyph unicode=" "  horiz-adv-x="1024" />
<glyph unicode="&#x09;" horiz-adv-x="1024" />
<glyph unicode="&#xa0;" horiz-adv-x="1024" />
<glyph unicode="!" horiz-adv-x="497" d="M102 168q0 16 1 31.5t3 31.5v11q2 4 5.5 19t5.5 24q4 20 11 37.5t17 35.5q8 16 13 23q2 0 4 5t4 5v2q10 14 23.5 28.5t31.5 18.5q16 4 25 4q20 0 39 -6q23 -10 36 -28.5t23 -36.5v-2q0 -2 2 -4q2 0 4 -2l2 -7q2 -4 7.5 -16t7.5 -16q12 -27 18 -60l2 -4q0 -4 2 -8 q0 -6 2 -10q4 -14 4 -30.5v-31.5q0 -23 -2 -45t-8 -45q0 -4 -2 -5t-2 -5q-4 -10 -11.5 -22.5t-17.5 -20.5q-6 -4 -12 -7t-12 -7q-8 -6 -16.5 -9.5t-18.5 -7.5h-2q-23 -6 -45 -6h-15q-4 2 -9 2t-11 2q-2 2 -6 2q-4 2 -9.5 3t-9.5 3q-37 20 -56 51t-26 72q0 8 -1 15.5t-1 15.5 zM139 522v1522h226v-1522h-226z" />
<glyph unicode="&#x22;" horiz-adv-x="806" d="M106 1635.5q-6 35.5 3 76.5q4 6 5 13.5t5 15.5q6 14 13 28.5t13 28.5q4 4 5 10q4 2 13 15.5l13 19.5q10 16 23.5 30.5t29.5 29.5q12 12 19 16q2 -2 6 2t6 4v2q14 10 32.5 18.5t37.5 4.5q12 0 24 -4q10 -4 18.5 -9.5t14.5 -11.5q16 -16 22.5 -38.5t10.5 -45.5v-2 q0 -2 -2 -4q2 0 4 -2v-8v-35q2 -27 -4 -61v-7q-2 -4 0 -8q-2 -4 -2 -10q-4 -14 -9.5 -29.5t-9.5 -27.5q-10 -23 -19 -43.5t-24 -36.5q-2 -4 -4 -4t-4 -4q-18 -20 -43 -31q-8 -2 -14 -1t-13 -3q-10 -4 -19 -3t-19 1h-2q-20 2 -46 12q-2 0 -6 2t-6 2q-4 4 -8 6t-10 6q0 4 -4 4 q-12 8 -15 13q-29 33 -35 68.5zM387 1443q-6 36 2 77q4 6 5 13t5 15q6 14 13.5 28.5t13.5 29.5q4 4 4 10q4 2 13.5 15.5t13.5 19.5q10 16 23.5 30.5t29.5 28.5q12 12 18 16q2 -2 6.5 2.5t6.5 4.5v2q14 10 32.5 18t36.5 4q12 0 25 -4q10 -4 18.5 -9t14.5 -11q16 -16 22 -39 t10 -45v-2q0 -2 -2 -5q2 0 4 -2v-8v-35q2 -27 -4 -61v-6q-2 -4 0 -8q-2 -4 -2 -11q-4 -14 -9 -29.5t-9 -27.5q-10 -23 -19.5 -43t-23.5 -37q-2 -4 -4 -4t-4 -4q-18 -20 -43 -31q-8 -2 -14.5 -1t-12.5 -3q-10 -4 -19.5 -3t-19.5 1h-2q-20 2 -45 12q-2 0 -6 2.5t-6 2.5 q-4 4 -8.5 6t-10.5 6q0 4 -4 4q-12 8 -14 12q-29 33 -35 69z" />
<glyph unicode="#" horiz-adv-x="1064" d="M133 905q0 18 11.5 34.5t35.5 27.5q43 4 87 8t87 6q10 104 26.5 204.5t45.5 203.5q10 18 25.5 27t31.5 9q25 0 43.5 -18t16.5 -53q-27 -92 -42.5 -184.5t-25.5 -186.5h86t86 -2q6 41 13.5 80t15.5 80q10 53 19.5 118.5t35.5 112.5q20 37 55 37q29 0 49.5 -25.5t6.5 -66.5 q-8 -8 -18.5 -52t-20.5 -97.5t-17.5 -101.5t-9.5 -65q-2 -6 -2 -12t-2 -10q27 -2 53.5 -2h53.5q27 -8 40 -25.5t13 -38.5q0 -20 -14.5 -36.5t-43.5 -22.5h-62.5t-61.5 2q-16 -76 -29.5 -150.5t-28.5 -150.5q39 2 78 2h78q27 -8 40 -25.5t13 -37.5t-14.5 -37t-42.5 -23h-86 t-86 -2q-6 -45 -6 -90t-9 -92q-6 -53 -20 -106.5t-25 -106.5q-18 -47 -59 -47q-16 0 -33.5 10t-27.5 33v2q-2 6 -1 13t1 13q2 0 2 2q0 4 2 9h-2q0 2 1 2t1 2q2 14 6 34.5t8 40t7 34t3 16.5q16 55 20.5 112.5t10.5 114.5q-35 -2 -70 -3t-69 -3q-2 -14 -4 -27.5t-5 -27.5 q-8 -41 -13 -87.5t-12 -94.5t-19.5 -93t-32.5 -84q-49 -59 -105 -4q0 4 -4 4q-12 23 -9 44.5t17 33.5q4 10 6 22.5t7 22.5q10 72 24 141.5t27 139.5q-20 -2 -40 -4.5t-40 -4.5q-31 4 -46.5 20.5t-15.5 39.5q0 18 11.5 34.5t36.5 26.5q29 4 57.5 6t56.5 7l6 36 q10 72 16.5 142.5t12.5 142.5q-76 -2 -149 -12q-31 4 -46.5 20.5t-15.5 38.5zM430 545q35 4 71 5t70 3q4 18 8.5 37.5t8.5 38.5v2q10 57 19 113.5t20 115.5q-41 0 -83 1t-83 1q-8 -80 -14.5 -158.5t-16.5 -158.5zM492 61v2q0 5 2 9q0 -6 -2 -11z" />
<glyph unicode="$" horiz-adv-x="976" d="M102 1393q0 66 32 116t79 88.5t104.5 66.5t108.5 50q4 2 9 5t5 5v181h105v-191l43 -8t93 -21.5t93 -32t43 -42.5v-144h-10q-10 4 -33.5 15.5t-51.5 24t-52.5 22.5t-34.5 14q-4 2 -33 9.5t-43 11.5h-4q-12 0 -13 -8.5t-1 -16.5v-22q0 -25 1 -84.5t2 -126t3 -126t2 -83.5 q70 -29 129 -64t103 -81t68.5 -106.5t24.5 -139.5q0 -104 -45 -193.5t-145 -140.5l-28.5 -9.5t-48 -16.5t-46 -17.5t-20.5 -14.5v-170h-101v162q0 2 -33.5 14.5t-75.5 26.5t-80 27.5t-44 17.5q-8 4 -21.5 12.5t-26 15.5t-20.5 13l-8 6v172q27 -18 62.5 -41.5t74.5 -43 t78 -34t76 -14.5h4q2 0 6 3t4 5v478q0 2 -28.5 17t-64.5 33.5t-70.5 36t-47.5 27.5q-76 61 -99.5 140t-23.5 176zM262 1358q0 -33 13.5 -71t36 -70.5t55 -54t69.5 -21.5v415q-39 0 -70.5 -18t-55 -47t-36 -64.5t-12.5 -68.5zM541 481q43 0 77.5 21.5t57 53.5t35 72t12.5 77 q0 33 -4 55t-13.5 40.5t-26.5 36t-44 40.5q-4 2 -13.5 10t-22.5 17t-26.5 15.5t-23.5 6.5q-2 0 -2 -1t-2 -1h-4v-443z" />
<glyph unicode="&#x26;" horiz-adv-x="1214" d="M57 299v16q8 135 76 253t184 190q25 16 51.5 29.5t55.5 27.5q-20 33 -39.5 66.5t-36.5 70.5q-18 39 -27.5 83t-9.5 91q0 59 13.5 119t40 113t64.5 97t85 73q82 49 148 49q61 0 106 -35t74.5 -91t44 -127t14.5 -140q0 -106 -31 -187q-35 -94 -108.5 -146t-161.5 -93 q68 -86 145.5 -164t147.5 -160q14 27 31.5 61.5t37 65.5t45 54.5t56.5 27.5q29 -4 44 -21.5t15 -37.5q0 -31 -24 -52l-4 -4q-14 -16 -17.5 -22t-13.5 -23q-18 -31 -35.5 -62.5t-38.5 -64.5l-8 -12l-8 -12q43 -59 70.5 -111.5t46.5 -122.5q12 -41 22 -80q4 -8 8 -24 q0 -2 2 -4q0 -2 2 -2h-2q10 -12 11 -35q0 -23 -16.5 -41t-45.5 -18q-8 0 -24 4q-29 14 -43.5 46.5t-23.5 72.5t-17.5 79t-24.5 64q-12 18 -23.5 37.5t-23.5 38.5q-94 -90 -211 -148q-63 -33 -114.5 -49t-121.5 -33q-31 -6 -59 -6q-63 0 -121.5 22.5t-104.5 62.5t-74 95.5 t-28 118.5zM176 299q0 -25 6.5 -46.5t20.5 -37.5q41 -47 92 -66.5t106 -19.5t112.5 17.5t112 45t103.5 64.5t88 78q-43 53 -83 96t-93 102q-41 45 -77 88.5t-70 90.5q-78 -35 -145.5 -80t-108.5 -119q-8 -16 -19.5 -39.5t-21 -52.5t-16.5 -60.5t-7 -60.5zM438 1128 q2 -33 8.5 -64.5t16.5 -64.5q12 -37 28.5 -70.5t36.5 -66.5q70 33 131.5 76t102.5 115q12 23 18 56.5t6 74.5q0 39 -6 79t-18 74.5t-30.5 62t-43.5 40.5q-29 12 -51 12q-47 0 -84 -39t-62.5 -92t-39 -107.5t-13.5 -85.5z" />
<glyph unicode="'" horiz-adv-x="526" d="M106 1615q-6 36 3 77q4 6 5 13t5 15q6 14 13 28.5t13 29.5q4 4 5 10q4 2 13 15.5l13 19.5q10 16 23.5 30.5t29.5 28.5q12 12 19 16q2 -2 6 2.5t6 4.5v2q14 10 32.5 18t37.5 4q12 0 24 -4q10 -4 18.5 -9t14.5 -11q16 -16 22.5 -39t10.5 -45v-2q0 -2 -2 -4q2 0 4 -3v-8v-35 q2 -27 -4 -61v-6q-2 -4 0 -8q-2 -4 -2 -11q-4 -14 -9.5 -29.5t-9.5 -27.5q-10 -23 -19 -43t-24 -37q-2 -4 -4 -4t-4 -4q-18 -20 -43 -31q-8 -2 -14 -1t-13 -3q-10 -4 -19 -3t-19 1h-2q-20 2 -46 12q-2 0 -6 2.5t-6 2.5q-4 4 -8 6t-10 6q0 4 -4 4q-12 8 -15 12q-29 33 -35 69 z" />
<glyph unicode="(" horiz-adv-x="462" d="M78 397q0 129 7 265.5t25.5 263.5t48 233.5t72.5 173.5q23 31 43.5 60.5t40.5 60.5q25 27 54 27q23 0 40 -16.5t17 -43.5q0 -20 -12 -41q-18 -29 -40 -54.5t-38 -55.5q-41 -78 -67.5 -175.5t-43 -204t-23.5 -219t-7 -222.5q0 -117 6 -224.5t16 -199.5q4 -43 18.5 -84 t31 -82t29.5 -82t17 -86q-8 -29 -25.5 -42.5t-37.5 -13.5q-18 0 -35.5 12.5t-24.5 41.5q-2 41 -15 79.5t-29.5 76.5t-31 77t-18.5 80q-8 72 -13 174.5t-5 220.5z" />
<glyph unicode=")" horiz-adv-x="604" d="M102 1446q0 25 17.5 41t42.5 16q29 0 51 -22q27 -27 54.5 -51.5t47.5 -53.5q49 -70 84 -156.5t56.5 -185t31 -202t9.5 -207.5q0 -143 -15.5 -277.5t-38.5 -243.5q-12 -53 -32.5 -101t-43 -96t-41 -97.5t-24.5 -102.5q-8 -29 -25.5 -42t-37.5 -13q-23 0 -40.5 16.5 t-17.5 48.5v9q6 55 24.5 104t40 96t43 95.5t34.5 101.5q23 102 38 231t15 269q0 94 -8.5 189t-26.5 184t-49 167t-76 140q-20 29 -46.5 52t-51.5 48q-14 20 -15 43z" />
<glyph unicode="*" horiz-adv-x="1980" d="M102 1526v8q0 25 17.5 34t39 12t39 3t17.5 6q0 4 -5 9.5t-9 9.5q-4 6 -4 11t-2 11q-4 14 -12.5 18.5t-20.5 14.5q-2 2 -5 7t-10 5q-4 0 -7 -2t-7 -2q-10 0 -14 12.5t-4 16.5q0 10 9 17t19 7q12 0 26.5 -5t25.5 -9q16 -4 18 -15.5t12 -21.5t24.5 -18t26.5 -17 q-2 10 0.5 19.5t2.5 19.5q0 20 -9.5 28.5t-9.5 31.5q0 10 3 18t16 8q16 0 28 -12t17 -27q0 -16 4 -24q8 -6 14 -11.5t10 -15.5q6 -10 8 -19t5 -22l2 -4q0 -2 2 -2q0 -2 2 -4q0 -4 6 -18.5t6 -18.5q10 -12 21.5 -12h25.5h14q16 2 24.5 9t18.5 7q14 0 22.5 -13t8.5 -24 q0 -10 -9 -16t-17 -6h-33q-4 0 -17.5 -13.5l-17.5 -17.5q2 -10 0 -18t-2 -19q0 -23 16.5 -53.5t32.5 -50.5q4 -4 10 -10.5t11 -12.5q12 -12 18 -28.5t18 -26.5q2 -4 5.5 -13.5t3.5 -13.5q2 -2 3 -4t3 -4q27 -4 45 -8t41 -4h16l4 2q8 14 31 22q10 8 31.5 10.5t21.5 16.5 q0 10 -1 19.5t-1 19.5q0 16 2 30.5t6 30.5q10 29 33 37q8 2 13.5 3t5.5 12q0 4 0 2t-3 2q-2 4 -6 20q-2 8 -4 15q-2 6 -6 26.5t-6 24.5q-2 10 -11.5 41.5t-13.5 42.5q-6 20 -23.5 25t-33.5 7.5t-29.5 9.5t-13.5 29q0 12 7 16.5t16 4.5q49 0 84 -14q18 -10 30.5 -18.5 t30.5 -8.5q8 0 16.5 24.5t12.5 32.5q12 16 28.5 27.5t36.5 21.5q4 4 20.5 4.5t24.5 0.5q6 0 10.5 -3.5t8.5 -5.5t15 -7t13 -5q16 -10 30.5 -33.5t21.5 -44.5q0 -2 2 -12t6 -12v-6.5t4 -4.5q6 0 10 6.5t12 10.5q2 2 9.5 4t9.5 4q6 4 14 5t12 5q2 2 9.5 10.5t9.5 10.5 q18 16 47 22t53 13h4q6 0 16.5 -4.5t10.5 -12.5q0 -10 -6 -23.5t-19 -17.5l-55 -16q-10 -4 -16 -14.5t-9 -18.5q-2 -10 -7 -35.5t-5 -30.5q0 -2 -2 -11t-3 -20.5t-2 -20.5t-1 -11q-2 -10 -6 -22.5t-4 -22.5t9 -13t13 -14q2 -2 3 -6t3 -6v-10t1 -16.5t4.5 -15.5t9.5 -7 q4 0 12 3t8 7q0 10 -8 17.5t-8 17.5t3 11t7 9q0 2 2 7q2 2 2 4t2 4v2l2 2q4 6 13.5 8t9.5 6q0 6 -5 10.5t-5 14.5q0 6 2 10t6 6t8 6t5 15.5t5 11.5l19 6q4 0 6 6t4 8q0 2 5 7.5t7 7.5q14 16 17.5 22t29.5 6q6 6 14.5 18.5t14.5 12.5h18q8 0 14.5 9.5t16.5 11.5q2 0 9 1t10 1 q6 0 12 3t10 3q16 2 34.5 4t35.5 6h9t11 2t6 4t3 2t3 2h13q2 2 5 3t5 3l2 7q2 2 9 4t7 4q2 0 8.5 6t10.5 10q6 6 6 14.5t4 14.5q2 8 6 11t4 9q0 4 -1 9.5t-1 9.5t3 10t3 12q-2 4 -4 10.5t-4 10.5v16q0 6 -2 8t-4 11q-4 14 -8 32.5t-14 28.5q-4 6 -13.5 16.5t-11.5 20.5 q-4 10 -5 16t-7 17q-10 10 -22.5 16t-12.5 16t8 16.5t16 6.5q20 0 36 -15.5t28 -25.5q2 -2 2 -3t2 -3q4 -4 12 -17.5t13 -17.5q4 -8 5 -12t5 -15q4 -6 7 -11t5 -11q2 -8 8 -21q4 -10 4 -18t5 -14q4 -4 8 -18.5t6 -18.5v-29q0 -2 2 -11t2 -11v-5q0 -6 -6 -10t-6 -10 q4 -8 4 -18t-4 -14.5t-15 -8.5v-29l-4 -4q-2 -2 -4 -2t-2 -2q-6 -4 -8 -11t-6 -11q-2 0 -7.5 -4.5t-5.5 -6.5q-6 -4 -10 -9t-8 -9q-2 0 -6 -4q-2 -2 -4 -2l-4 -4l-9.5 -9.5t-11.5 -7.5q0 -2 -6 -2q-4 -2 -8 -7t-8 -9q-6 -4 -12.5 -3t-10.5 -3l-6 -6q-4 -4 -4 -5l-2 -2 q-4 -2 -10.5 -1t-10.5 1l-4 -4q-16 -10 -39 -8q-4 -8 -12 -9t-16 -1q-2 0 -8.5 -5t-8.5 -5q-4 -6 -12 -5t-12 -4q-10 -6 -15.5 -14t-17.5 -8q-4 0 -4 1t-4 1t-4 -3t-4 -5q-8 -20 -21 -29q-4 -4 -9 -7t-9 -7q-6 -4 -11.5 -14.5t-5.5 -14.5q6 -10 6 -20t-6 -15.5t-12 -9.5 l-12 -8t-6 -12q0 -10 9 -17.5t9 -17.5q0 -14 -9 -17.5t-9 -11.5l8 -6l10 -10q6 -8 7 -18.5t11 -14.5q14 -4 23.5 -5t21.5 -1q16 0 27 4q10 0 41 2t41 2h4q16 0 33.5 -2t36.5 -2q10 0 14 11l8 22q14 25 35 45q2 0 7 3t5 5q16 10 34 42t18 50q0 12 -12.5 14t-28 4.5t-27.5 8.5 t-12 24q0 10 8 19.5t18 9.5q6 0 13.5 -2t13.5 -2q4 0 12 3t15 5q6 2 11 2t11 4q10 10 13.5 25.5t13.5 27.5q6 16 13 18.5t11 20.5q6 27 33 27q12 0 27.5 -10.5t19.5 -24.5q2 -2 2 -6q0 -8 2 -8q0 -4 2 -4q8 0 12.5 2t10.5 2q23 0 32 -18.5t9 -41.5v-11t-2 -13 q-2 -4 -9.5 -12.5t-7.5 -10.5q0 -6 6.5 -12t10.5 -10q4 -10 7 -19.5t3 -19.5q0 -6 -3 -18.5t-9 -24.5t-13.5 -20.5t-15.5 -8.5q-2 4 -2 10.5v10.5q0 8 1 14t1 16q0 8 -5 19.5t-11 11.5q-16 0 -23 -2q-4 -4 -18.5 -9t-18.5 -7q0 -4 -4 -4l-10 -21q-6 -12 -6 -31 q-4 -18 -12.5 -36.5t-8.5 -38.5q0 -6 1 -12.5t1 -12.5q0 -12 -4 -18.5t-14 -16.5q-4 -10 -6 -21.5t-12 -21.5q-6 -8 -12.5 -12t-12.5 -12q-4 -8 -4 -16.5t-4 -12.5q-8 -6 -13.5 -11t-15.5 -7q-2 0 -13.5 -1.5t-13.5 -3.5q-8 0 -32.5 -4t-30.5 -6h-4q-16 0 -20.5 8.5 t-14.5 8.5h-4q-4 -2 -15.5 -3.5t-15.5 -1.5h-98q-37 -14 -84 -14q-8 0 -15.5 1t-15.5 1q-6 0 -7 -14t-11 -21q-23 -8 -23 -18q0 -14 11.5 -22.5t11.5 -20.5q0 -16 -16.5 -20.5t-16.5 -14.5v-2q25 -25 25 -47v-12q0 -2 -1 -4t-1 -7q-2 -4 -2 -6v-43q0 -55 -13.5 -106 t-27.5 -105v-4q-4 -8 -6.5 -21.5t-6.5 -25.5q-4 -14 -6 -31v-47q0 -6 -4 -11t-4 -11q0 -53 -12.5 -85t-42.5 -73q-10 -14 -22.5 -27.5t-12.5 -33.5q0 -18 2 -42t4 -42q2 -16 13.5 -24.5t11.5 -22.5q0 -8 -7.5 -10.5t-11.5 -8.5v-8q0 -8 1 -14.5t1 -12.5q0 -29 -26 -28 q-8 0 -12.5 2t-4.5 12q0 8 3 12t3 8q0 10 -8 11q-4 0 -5 -4t-3 -9q-2 -14 -9 -41.5t-24 -27.5q-8 0 -11 6t-3 12q0 12 3 27.5t3 28.5q0 10 -8 10t-12.5 -7.5t-7.5 -14.5l-6 -14t-11 -7q-12 0 -15.5 11t-3.5 19q0 4 10.5 19.5t12.5 23.5q6 27 12 52.5t11 52.5q4 14 4 34.5 t8 37.5q8 14 18 20l4 2q2 0 2 2q16 8 16.5 25.5t0.5 32.5q0 14 -2 25t-2 24q0 16 4 31.5t10 31.5q4 8 9 16.5t5 18.5q0 16 -4 25v57q4 6 4 22.5v22.5v4q0 4 -2 25.5t-2 25.5q0 8 -8 8h-12q-16 0 -26.5 9.5t-26.5 9.5q-8 0 -13.5 -9.5t-9.5 -13.5q-6 -4 -16.5 -7t-16.5 -7 q-4 -4 -4 -5t-4 -1v-2q8 0 14.5 2t14.5 2h12q16 -10 22.5 -26.5t6.5 -35.5q0 -10 -2 -18q-4 -20 -8.5 -39.5t-6.5 -42.5q0 -2 -1 -10t-2 -17.5t-2 -18.5t-1 -11q0 -4 -1 -13.5t-1 -11.5v-8q0 -16 8 -21.5t8 -17.5q0 -20 -20 -20q-10 0 -16.5 7t-10.5 15t-8 15.5t-10 7.5 q-4 0 -4 -6q0 -8 3 -14.5t3 -14.5q0 -20 -21 -21h-6q-2 0 -6 2t-4 5q-4 10 -12 18t-8 18v5q0 6 2 6v2q0 2 -6 8q-12 0 -25.5 5t-13.5 22q0 14 7 25t7 22q0 10 -6 10q-12 0 -22.5 -9.5t-20.5 -13.5q-14 -6 -25.5 -12t-25.5 -10q-4 -4 -8.5 -8t-8.5 -7q-8 -4 -17 -6t-18 -6 q-2 -2 -10 -11t-10 -11q-14 -10 -32.5 -13.5t-35.5 -3.5q-35 0 -48 29t-13 57v6q4 8 9 18.5t11 16.5q2 0 7.5 4t7.5 6l8 7q18 27 34.5 47t32.5 43q2 6 11 14q10 16 20 36.5t21 41.5l35 51q8 4 16 19q4 4 8 9t6 9l37 33l8 8l8 8q14 10 26.5 18.5t16.5 24.5q2 4 2.5 10.5 t2.5 10.5q4 8 9 14t5 12t-13.5 22.5t-19.5 24.5q-18 18 -30.5 32.5t-20.5 39.5q-6 10 -14 10t-14.5 -8t-12.5 -12q-4 -2 -14.5 -3t-14.5 -5h-14q-16 0 -26.5 9t-20.5 13q-23 8 -43.5 12t-40.5 13q-2 0 -10.5 3t-10.5 3h-4q-4 0 -6 -5t-4 -12.5t-6 -12.5t-14 -5q-8 0 -21.5 7 t-27 17.5t-24.5 21.5t-15 17q-4 8 -4.5 18.5t-4.5 14.5q-6 8 -11 13.5t-9 9.5q-10 10 -12 21.5t-7 25.5q-4 4 -7 8t-7 8q-6 14 -6 35q0 10 3 18.5t3 18.5q0 8 -2 16t-8 34t-8 34t-6.5 14t-8.5 15q-4 4 -7 12t-7 12q-8 6 -17.5 9t-15.5 10q-6 6 -18 14q-2 2 -8.5 5t-8.5 5 q-14 8 -26 17.5t-29 9.5q-14 0 -25.5 -2t-23.5 -2q-2 -2 -14 -2h-6.5t-4.5 4zM848 625q0 -2 4 -2t14.5 11t10.5 15h-9l-8 -8l-4 -4l-4 -4q0 -2 -2 -3t-2 -5z" />
<glyph unicode="+" horiz-adv-x="1361" d="M102 920v210h1158v-210h-1158zM627 1544h211l2 -1157h-211z" />
<glyph unicode="," horiz-adv-x="526" d="M106 91.5q-6 35.5 3 76.5q4 6 5 13t5 16q6 14 13 28.5t13 28.5q4 4 5 10q4 2 13 15.5l13 19.5q10 16 23.5 30.5t29.5 28.5q12 12 19 17q2 -2 6 2t6 4v2q14 10 32.5 18.5t37.5 4.5q12 0 24 -5q10 -4 18.5 -9t14.5 -11q16 -16 22.5 -39t10.5 -45v-2q0 -2 -2 -4q2 0 4 -2v-8 v-35q2 -27 -4 -62v-6q-2 -4 0 -8q-2 -4 -2 -10q-4 -14 -9.5 -29.5t-9.5 -28.5q-10 -23 -19 -43t-24 -36q-2 -4 -4 -4.5t-4 -4.5q-18 -20 -43 -30q-8 -2 -14 -1t-13 -3q-10 -4 -19 -3.5t-19 0.5h-2q-20 2 -46 13q-2 0 -6 2t-6 2q-4 4 -8 6t-10 6q0 4 -4 4q-12 8 -15 13 q-29 33 -35 68.5z" />
<glyph unicode="-" horiz-adv-x="1361" d="M102 920v210h1158v-210h-1158z" />
<glyph unicode="." horiz-adv-x="497" d="M102 168q0 16 1 31.5t3 31.5v11q2 4 5.5 19t5.5 24q4 20 11 37.5t17 35.5q8 16 13 23q2 0 4 5t4 5v2q10 14 23.5 28.5t31.5 18.5q16 4 25 4q20 0 39 -6q23 -10 36 -28.5t23 -36.5v-2q0 -2 2 -4q2 0 4 -2l2 -7q2 -4 7.5 -16t7.5 -16q12 -27 18 -60l2 -4q0 -4 2 -8 q0 -6 2 -10q4 -14 4 -30.5v-31.5q0 -23 -2 -45t-8 -45q0 -4 -2 -5t-2 -5q-4 -10 -11.5 -22.5t-17.5 -20.5q-6 -4 -12 -7t-12 -7q-8 -6 -16.5 -9.5t-18.5 -7.5h-2q-23 -6 -45 -6h-15q-4 2 -9 2t-11 2q-2 2 -6 2q-4 2 -9.5 3t-9.5 3q-37 20 -56 51t-26 72q0 8 -1 15.5t-1 15.5 z" />
<glyph unicode="/" horiz-adv-x="2125" d="M102 0l1659 2048h262l-1706 -2048h-215z" />
<glyph unicode="0" horiz-adv-x="2093" d="M102 1030q0 221 77 412.5t207 331t301 219.5t360 80q188 0 359 -80t301 -219.5t207 -331t77 -412.5t-77 -412.5t-207 -331t-301 -219t-359 -79.5t-359.5 79.5t-301.5 219t-207 331t-77 412.5zM315 1036q0 -174 58.5 -326.5t158 -265t232.5 -178t283 -65.5t282.5 65.5 t233 178t159 265t58.5 326.5t-58.5 327t-159 265.5t-233.5 178t-282 65.5q-150 0 -283 -65.5t-232.5 -178t-158 -265.5t-58.5 -327z" />
<glyph unicode="1" horiz-adv-x="432" d="M100 0v2038h222v-2038h-222z" />
<glyph unicode="2" horiz-adv-x="1398" d="M102 1524q0 80 27 152.5t73 134t108.5 110.5t131.5 82q49 23 107.5 33t109.5 18h43q86 0 169 -24.5t155 -68.5t130 -107.5t93 -141.5q23 -53 28 -112.5t5 -118.5q0 -33 -3 -76t-12.5 -88t-23.5 -86t-35 -68l-737 -938h825v-223h-1169v123q27 20 40 52t40 50l784 1016 q16 18 28.5 45t22 55.5t13.5 57.5t4 53q0 27 -8.5 58.5t-12.5 54.5q-12 57 -40.5 106t-69.5 84t-93.5 55.5t-111.5 20.5q-66 0 -126 -12.5t-111.5 -40t-89.5 -73.5t-58 -112q-4 -18 -10 -53t-19 -55q0 -2 -2 -2t-2 -2h-14h-19h-33.5t-50 1t-51 2t-33.5 1q0 4 -1 18.5 t-1 18.5z" />
<glyph unicode="3" horiz-adv-x="1490" d="M102 14v185h73.5t113 1t113 1h75.5q98 2 209 12t204 45t154.5 107.5t61.5 201.5q0 102 -37 170t-97.5 109t-139 60.5t-163.5 26.5t-169 7t-156 2v166l608 725h-850v213h1287l-779 -895l-24 -31q152 -4 290 -24.5t244.5 -80t169 -169t62.5 -291.5q0 -143 -47.5 -246.5 t-131 -171t-199.5 -100.5t-253 -33h-55q-20 0 -65.5 1t-101 2t-116.5 2t-116.5 2t-99.5 2t-65 1z" />
<glyph unicode="4" horiz-adv-x="1187" d="M103 882.5q-1 30.5 20 59.5l708 1083l11 21h243v-8q-2 -4 -5 -12.5t-5 -12.5l-647 -985h408v115h249v-1141h-249v813h-732q0 37 -1 67.5z" />
<glyph unicode="5" horiz-adv-x="1452" d="M102 12v185h73.5t113 1t113 1h75.5q98 2 208 12t204 45t155.5 107.5t61.5 201.5q0 106 -39 175t-105.5 110t-152.5 57.5t-178 18.5q-29 2 -98.5 5t-148.5 5t-149.5 3t-99.5 1v1102h1084v-205h-842v-719q111 -2 226.5 -3t224 -14.5t203.5 -45t166 -94t112 -162t41 -246.5 q0 -143 -47.5 -246.5t-131.5 -171t-199.5 -100.5t-250.5 -33h-55h-65.5t-101 1t-116.5 2t-116.5 2t-99.5 2t-65 3z" />
<glyph unicode="6" horiz-adv-x="1335" d="M102 549q0 96 37 186t97 164l759 1149h238l-674 -942l-24 -31h12q31 0 61.5 5t63.5 5q111 0 212 -43t179 -116.5t124 -173t46 -209.5q0 -113 -47 -212.5t-125 -173t-180.5 -115.5t-212.5 -42q-115 0 -217.5 43t-179 116.5t-123 174t-46.5 215.5zM303 551 q0 -80 29.5 -148.5t81 -117.5t120 -78t146.5 -29t146.5 29t119.5 79t81 118.5t30 146.5t-30 145.5t-81 117.5t-119.5 79t-146.5 29t-146.5 -29t-120 -78t-81 -116.5t-29.5 -147.5z" />
<glyph unicode="7" horiz-adv-x="1689" d="M102 -2l1123 1864h-1123v188h1485l-1253 -2052h-232z" />
<glyph unicode="8" horiz-adv-x="1447" d="M102 592q0 129 52.5 242.5t150.5 199.5q35 29 66.5 46.5t64.5 41.5q4 0 4 4t-5 9.5t-7 7.5q-104 86 -158.5 178t-54.5 227q0 106 40 196.5t109.5 157t161.5 104.5t197 38q104 0 198.5 -37t164 -102.5t110.5 -156.5t41 -200q0 -121 -44 -208t-130 -169q-8 -8 -31.5 -22 t-23.5 -21v-2q0 -2 2 -2l2 -2q33 -20 64.5 -38.5t60.5 -45.5q98 -90 153.5 -202.5t55.5 -247.5q0 -129 -50.5 -238.5t-134.5 -188.5t-196.5 -124t-237.5 -45q-129 0 -242.5 45t-198.5 125t-134.5 189.5t-49.5 240.5zM289 608q0 -96 33.5 -177t92 -139.5t139.5 -92t177 -33.5 h60q82 14 149.5 52t116.5 93.5t76.5 127t27.5 155.5t-33.5 160.5t-92 135t-135.5 93.5t-163 35q-66 0 -129 -17.5t-118.5 -51.5t-99.5 -83t-68 -112q-12 -35 -22.5 -72t-10.5 -74zM412 1550q0 -66 24.5 -123t66.5 -100t99 -67.5t123 -24.5q63 0 120.5 24.5t101.5 66.5 t69.5 99.5t25.5 122.5q0 63 -25.5 120.5t-68.5 102t-101.5 70t-121.5 25.5t-120.5 -25.5t-100.5 -70t-67.5 -102t-24.5 -118.5z" />
<glyph unicode="9" horiz-adv-x="1335" d="M102 0l674 942l25 31h-13q-31 0 -61.5 -5t-62.5 -5q-111 0 -212.5 43t-179 116.5t-124 173t-46.5 209.5q0 113 47.5 212.5t125 173t180 115.5t213.5 42q113 0 216 -43t180 -116.5t123 -174t46 -215.5q0 -96 -37 -186t-96 -164l-760 -1149h-238zM279 1497 q0 -78 29.5 -145.5t80.5 -117.5t120 -79t146 -29q78 0 146.5 29t120 78t81 116.5t29.5 147.5t-29.5 148.5t-81 117.5t-120 78t-146.5 29t-146.5 -29t-119.5 -79t-80.5 -118.5t-29.5 -146.5z" />
<glyph unicode=":" horiz-adv-x="800" d="M63 168q0 16 1.5 31.5t3.5 31.5v11q2 4 5 19t5 24q4 20 11 37.5t17 35.5q8 16 13 23q2 0 4 5t4 5v2q10 14 23.5 28.5t31.5 18.5q16 4 25 4q20 0 39 -6q23 -10 36 -28.5t23 -36.5v-2q0 -2 2 -4q2 0 4 -2l2 -7q2 -4 7.5 -16t7.5 -16q12 -27 18 -60l2 -4q0 -4 2 -8 q0 -6 2 -10q4 -14 4 -30.5v-31.5q0 -23 -2 -45t-8 -45q0 -4 -2 -5t-2 -5q-4 -10 -11 -22.5t-18 -20.5q-6 -4 -12 -7t-12 -7q-8 -6 -16.5 -9.5t-18.5 -7.5h-2q-23 -6 -45 -6h-14q-4 2 -9.5 2t-11.5 2q-2 2 -6 2q-4 2 -9 3t-10 3q-37 20 -56 51t-25 72q0 8 -1.5 15.5 t-1.5 15.5zM63 721q0 16 1.5 31.5t3.5 31.5v11q2 4 5 19t5 24q4 20 11 37.5t17 35.5q8 16 13 23q2 0 4 5t4 5v2q10 14 23.5 28.5t31.5 18.5q16 4 25 4q20 0 39 -6q23 -10 36 -28.5t23 -36.5v-2q0 -2 2 -4q2 0 4 -2l2 -7q2 -4 7.5 -16t7.5 -16q12 -27 18 -60l2 -4q0 -4 2 -8 q0 -6 2 -10q4 -14 4 -30.5v-31.5q0 -23 -2 -45t-8 -45q0 -4 -2 -5t-2 -5q-4 -10 -11 -22.5t-18 -20.5q-6 -4 -12 -7t-12 -7q-8 -6 -16.5 -9.5t-18.5 -7.5h-2q-23 -6 -45 -6h-14q-4 2 -9.5 2t-11.5 2q-2 2 -6 2q-4 2 -9 3t-10 3q-37 20 -56 51t-25 72q0 8 -1.5 15.5 t-1.5 15.5z" />
<glyph unicode=";" horiz-adv-x="526" d="M106 91.5q-6 35.5 3 76.5q4 6 5 13t5 16q6 14 13 28.5t13 28.5q4 4 5 10q4 2 13 15.5l13 19.5q10 16 23.5 30.5t29.5 28.5q12 12 19 17q2 -2 6 2t6 4v2q14 10 32.5 18.5t37.5 4.5q12 0 24 -5q10 -4 18.5 -9t14.5 -11q16 -16 22.5 -39t10.5 -45v-2q0 -2 -2 -4q2 0 4 -2v-8 v-35q2 -27 -4 -62v-6q-2 -4 0 -8q-2 -4 -2 -10q-4 -14 -9.5 -29.5t-9.5 -28.5q-10 -23 -19 -43t-24 -36q-2 -4 -4 -4.5t-4 -4.5q-18 -20 -43 -30q-8 -2 -14 -1t-13 -3q-10 -4 -19 -3.5t-19 0.5h-2q-20 2 -46 13q-2 0 -6 2t-6 2q-4 4 -8 6t-10 6q0 4 -4 4q-12 8 -15 13 q-29 33 -35 68.5zM125 721q0 16 1 31.5t3 31.5v11q2 4 5 19t5 24q4 20 11.5 37.5t17.5 35.5q8 16 12 23q2 0 4 5t4 5v2q10 14 23.5 28.5t32.5 18.5q16 4 24 4q20 0 39 -6q23 -10 36 -28.5t24 -36.5v-2q0 -2 2 -4q2 0 4 -2l2 -7q2 -4 7 -16t7 -16q12 -27 19 -60l2 -4 q0 -4 2 -8q0 -6 2 -10q4 -14 4 -30.5v-31.5q0 -23 -2 -45t-8 -45q0 -4 -2.5 -5t-2.5 -5q-4 -10 -11 -22.5t-17 -20.5q-6 -4 -12.5 -7t-12.5 -7q-8 -6 -16 -9.5t-19 -7.5h-2q-23 -6 -45 -6h-14q-4 2 -9 2t-12 2q-2 2 -6 2q-4 2 -9 3t-9 3q-37 20 -56.5 51t-25.5 72 q0 8 -1 15.5t-1 15.5z" />
<glyph unicode="&#x3c;" horiz-adv-x="1757" d="M102 1030l1553 1004l-2 -207l-1223 -787q-2 0 -5 -3l-5 -5v-4v-4l10 -10q14 -10 52 -35t81 -53.5t81 -54t54 -35.5q2 -4 14.5 -13.5t16.5 -11.5l913 -602l-2 -207z" />
<glyph unicode="=" horiz-adv-x="1361" d="M102 920v210h1158v-210h-1158zM102 1288v211h1158v-211h-1158z" />
<glyph unicode="&#x3e;" horiz-adv-x="1757" d="M102 2034l1553 -1004l-1538 -1028l-2 207l913 602q4 2 16.5 11t14.5 14q14 10 53 35.5t82 54t81 53.5t52 35l10 10v4v4l-5 5t-5 3l-1223 787z" />
<glyph unicode="?" horiz-adv-x="1398" d="M0 592q0 16 20 22h50q27 0 52 -3t54 -3q27 0 48.5 8.5t45.5 12.5q2 0 11.5 1t20.5 3t20.5 3t11.5 1q6 0 21.5 3t33 7t34.5 8t26 7q4 0 22 6t27 10q14 2 14 20q0 4 -6 9l-182 61q-14 6 -28.5 5t-27.5 9q-10 4 -11 14.5t-9 16.5q-12 12 -29.5 18.5t-34.5 14.5 q-12 6 -29.5 17t-33 26.5t-26.5 33t-11 33.5q0 8 10 12.5t15 4.5q10 0 17 -11.5t11 -15.5l64 -63q25 -25 57 -35q14 -4 25.5 -5t25.5 -7q33 -16 58.5 -34t68.5 -18h13q-16 25 -22.5 41.5t-6.5 44.5q0 51 20.5 68.5t75.5 17.5q20 0 39.5 -7t40.5 -7q14 0 22 14q4 23 6.5 47.5 t6.5 47.5q2 4 4 11t2 11q2 2 6 15.5t10 29t10.5 27.5t6.5 16q6 18 6 39v41q0 31 -8.5 60.5t-17.5 58.5t-17 58.5t-8 60.5q0 45 17 75.5t46 51t64.5 35t72.5 24.5l160 72q23 10 45.5 40.5t22.5 55.5q0 45 -35 65.5t-74 20.5q-61 0 -106 -35t-93 -69q-74 -57 -167 -58 q-47 0 -96.5 12.5t-90.5 36.5q-2 2 -7 6.5t-5 8.5v2q0 6 6 6h2l131 -35q6 -2 15.5 -2h17.5q61 0 109.5 33t93.5 71.5t93 71.5t111 33q84 0 143.5 -42t59.5 -132q0 -78 -52 -124t-120 -73l-215 -82q-20 -8 -24.5 -37.5t-4.5 -46.5q0 -39 18.5 -74.5t33.5 -70.5q14 -37 14 -88 q0 -53 -12.5 -105.5t-28.5 -103.5v-21q0 -18 3 -35.5t26 -17.5q25 0 49 7.5t49 7.5q41 0 60.5 -18.5t19.5 -63.5q0 -29 -13.5 -61t-48.5 -32q-10 0 -20 3.5t-21 3.5q-6 0 -6 -7q0 -6 6.5 -6h10.5q41 0 86 2t84 19q37 16 58.5 31.5t62.5 13.5q29 12 59.5 27.5t48.5 42.5 q4 8 13.5 29.5t25.5 21.5q18 0 18 -19q0 -31 -10 -47t-26.5 -26.5t-37 -18.5t-40.5 -20q-23 -10 -40.5 -27.5t-41.5 -22.5q-6 -2 -27.5 -5t-27.5 -5l-209 -71q8 -14 13 -18.5t19 -8.5q123 -23 246 -18q10 -4 16.5 -5.5t16.5 -1.5h12q2 0 15.5 2t28 5.5t26.5 6.5t16 3 q25 4 46.5 5t45.5 9q14 -4 15 -22q0 -4 -2 -9q-4 -4 -22.5 -11t-22.5 -11q-4 -2 -12.5 -7t-12.5 -5h-121q-12 0 -22.5 -9.5t-22.5 -9.5h-2q-6 0 -20.5 3t-30.5 7t-30.5 7.5t-20.5 3.5q-4 2 -20.5 3t-20.5 1q-2 0 -13.5 3t-15.5 3h-12q-20 0 -39 -6t-39 -6q-8 -8 -8 -13 q0 -8 6 -13t10 -9q6 -4 23.5 -15.5t36 -23.5t35 -22.5t22.5 -14.5q25 -16 50.5 -23.5t47.5 -21.5q12 -8 18.5 -16.5t16.5 -18.5q27 -14 53.5 -23.5t50.5 -21.5q10 -4 30 -7t20 -20q0 -20 -19.5 -21t-34.5 -1q-20 0 -37.5 15.5t-33.5 25.5q-23 12 -47.5 14t-44.5 17 q-23 16 -49.5 37.5t-56.5 41t-61.5 32.5t-62.5 13q-2 0 -10 -4v-12q0 -16 4 -31.5t6 -31.5l49 -95q2 -2 5.5 -7t5.5 -7q2 -4 11 -13t18 -19.5t17.5 -19.5t12.5 -13q6 -12 13 -26.5t20 -25.5q10 -6 31.5 -23.5t25.5 -19.5q14 -10 39 -12t25 -25q0 -18 -17.5 -26t-32.5 -8 q-18 0 -27 10t-20 22q-6 6 -22.5 24.5t-20.5 23.5q-16 16 -35.5 22t-33.5 25q-4 6 -12.5 22.5t-17.5 33.5t-17.5 32.5t-10.5 21.5q-12 20 -31.5 52t-38 63t-33.5 54.5t-18 25.5l-4 2q-4 -10 -14 -17.5t-20 -7.5h-7q-2 0 -10 3t-10 3h-2q-4 0 -11.5 -11t-14.5 -24.5 t-14 -26.5t-9 -17q-4 -6 -11.5 -17.5t-15.5 -24t-15 -23.5t-9 -13q-16 -29 -25.5 -62t-26.5 -63q-6 -14 -18 -21.5t-23 -19.5q-45 -59 -71 -129q-2 -6 -11.5 -10.5t-19.5 -7.5t-20.5 -4t-14.5 -1q-10 0 -15 7.5t-5 17.5q0 8 9 16t21.5 17.5t24.5 18.5t18 20q2 4 10.5 14 t16.5 22.5t15.5 23.5t11.5 15q4 12 6 27.5t10 28.5q8 14 19.5 24t21.5 25q4 4 8 13t6 15t9.5 21.5t14.5 33t13 34t8 22.5q4 6 7.5 16.5t3.5 20.5q0 4 -10.5 8t-14.5 4q-33 0 -69.5 -19.5t-59.5 -39.5q-2 -2 -13.5 -12.5t-23.5 -20.5t-24.5 -20.5t-14.5 -12.5 q-20 -18 -49 -28.5t-51 -20.5q-2 -2 -4 -2t-6 -2l-9 -4q-6 -4 -26.5 -20.5t-24.5 -20.5q-6 -6 -22.5 -10t-24.5 -4q-20 0 -20 20q0 10 16 21.5t36.5 22.5t41 19.5t27.5 12.5q6 4 18 10t14 8t10.5 9.5t15.5 14.5l14 14l9 9q12 8 25.5 11.5t26.5 11.5q31 20 56.5 46t53.5 48 q10 10 27.5 15.5t17.5 19.5q0 18 -23.5 20t-37.5 2h-6q-6 -2 -22.5 -5t-35 -8t-36 -9t-23.5 -6q-18 -4 -33.5 -13.5t-34.5 -9.5q-23 0 -45 4t-45 4q-27 0 -51.5 -7t-50.5 -7h-6l-66 16q-8 2 -8 17z" />
<glyph unicode="@" horiz-adv-x="1748" d="M102 641q0 20 2 31q4 4 7 4q8 0 11 -11.5t5 -15.5q0 -4 2 -14t5 -21.5t6 -21.5t3 -12q2 -6 9.5 -31t9.5 -29q0 -2 2 -6t2 -6q27 -53 59.5 -105.5t77.5 -95.5q12 -12 30.5 -18t18.5 -27q0 -14 -14 -29q27 -18 48.5 -36.5t49.5 -34.5q23 -14 50.5 -18.5t52.5 -16.5l98 -16 l8 -2h2h2l4 2q6 0 24.5 1t27.5 1q29 2 57.5 7t56.5 9q2 4 16.5 9t31 11.5t30.5 10.5t18 4t5 4q10 6 18 8t20 6q14 6 24.5 16.5t31.5 6.5q8 18 21.5 23t29.5 16q2 2 11 10t11 10q2 0 4.5 2t4.5 2q2 2 8 4t10 2l4 11q4 2 9.5 9t9.5 9q2 0 4 2q2 0 3 1t3 1q14 10 24.5 30.5 t32.5 20.5q0 16 16.5 29.5t24.5 24.5q2 2 6 9t4 9q10 16 17.5 18.5t11.5 6.5v8q4 14 12.5 25.5t18.5 25.5q8 10 11 23.5t11 23.5q2 4 10.5 9t8.5 10l-2 4v2q0 14 8 25.5t12 23.5q8 27 11.5 38t21.5 34q0 4 -2 8t-2 8q0 10 5 19.5t9 19.5q4 16 3 34.5t1 34.5q2 0 2 3l2 2 q0 2 2 4q4 4 5 4q-2 2 -2 4q-2 2 -3 8v12q0 20 1.5 43t3.5 41q2 6 4 11.5t2 11.5q0 10 -5.5 17t-5.5 18q-4 35 -8 67.5t-22 65.5q0 -2 -1 -2t-1 -2q-2 -2 -7.5 -10.5t-7.5 -10.5q-16 -20 -34.5 -35.5t-34.5 -35.5q-4 -4 -5 -23.5t-1 -28.5q0 -14 1 -25.5t1 -23.5v-24l-4 -19 v-16q0 -4 -1.5 -14.5t-1.5 -14.5q-2 -8 -10 -8l-4 2q0 10 -5 18.5t-5 18.5q0 2 1 7t1 7v2v2q0 8 -1 24.5t-1 18.5v10.5t-4 10.5q-2 -2 -2 -5t-2 -5q0 -4 -2 -28t-2 -28t-4.5 -23.5t-6.5 -25.5q0 -12 -8 -12q-12 0 -12 20.5v26.5q0 8 -1 19.5t3 21.5l-6 49h-2q-4 -4 -9.5 -11 t-7.5 -9q-4 -4 -13 -25t-11 -27q8 -86 -33 -164q-8 -16 -14 -27t-9 -30q0 -14 6.5 -25.5t15.5 -21.5t16.5 -20.5t7.5 -22.5q0 -16 -9.5 -32.5t-17.5 -28.5q-2 -2 -14.5 -18.5t-16.5 -18.5q-4 -8 -4 -15q-8 -23 -14 -40t-25 -35q-2 -2 -15 -11.5t-16 -11.5q0 -2 -2 -4l-4 -4 q-6 -14 -14 -17.5t-18 -7.5q0 -6 -9 -6l-7 -2t-16 -3t-17.5 -2t-10.5 -1h-19.5t-31.5 2t-29.5 6t-13.5 10q0 14 11 29.5t20 24.5q4 4 18 19t19 20q2 4 4 6t2 3t2 3q10 14 31.5 32.5t23.5 28.5l18 76q-2 4 -2 12.5t2 12.5q0 4 6.5 15t8.5 15q10 29 14 62t4 61q0 8 1 15.5 t-3 15.5q-37 -16 -50 -37.5t-38 -50.5q-4 -29 -13 -43t-22.5 -20.5t-32 -7.5t-42.5 -1q-14 0 -23.5 -9t-22.5 -9q-4 0 -17 3t-26.5 8t-23.5 10t-10 10q0 2 2 4t2 4q2 2 12 10t12 10q0 2 7.5 9.5l9.5 9.5q18 14 31.5 15t29.5 7q33 12 39 44t12 61q4 16 12.5 28.5t10.5 24.5 q-2 0 -2 2v4v4q0 4 -2 20.5t-4 20.5q-10 33 -40 72t-55 65q-16 16 -36.5 33.5t-36.5 38.5q-10 14 -21.5 17t-11.5 26t6 40t6 38h-2q-4 -8 -12 -25.5t-19.5 -35t-23.5 -31t-25 -13.5q-10 0 -25.5 10.5t-15.5 22.5h-2q0 -8 -8 -8h-4q-2 0 -7 1t-5 3h-4q-6 0 -8.5 -7t-8.5 -7 h-51q-6 0 -10 6t-8 10q-29 39 -35 79t-6 87q0 10 1 15t7 20q2 6 10 20.5t15.5 30.5t14.5 30.5t11 20.5q10 23 17.5 42.5t17.5 41.5q23 45 55.5 98.5t69.5 87.5q0 4 -8 5q-10 0 -37 -11.5t-33 -21.5q-6 -8 -11 -17.5t-14 -17.5q-12 -14 -25 -24.5t-28 -22.5 q-14 -16 -23.5 -39t-27.5 -37q-4 -4 -17.5 -11t-17.5 -9q-6 2 -6 8q0 12 7 27.5t15.5 31t15.5 30.5t7 28v6t-4 4h-2q-2 0 -4 -3t-4 -3l-19 -39q-4 -10 -16 -19.5t-23 -9.5v14l19 39v6q0 14 -10 15q-10 0 -23.5 -5t-21.5 -10q-4 -4 -12.5 -15t-12.5 -11h-49l-19 -12h-34 q-2 0 -3.5 -1.5t-3.5 -1.5h-6h-2h-2l-2 3q0 6 7 8t7 10q-2 0 -8 -1t-8 -3h-2q-6 0 -6 4v2q8 10 19.5 15.5t21.5 11.5q23 14 43 30.5t47 28.5q0 2 3 2t3 2q4 0 15.5 2t13.5 2q10 2 17 8.5t18 10.5q10 4 25.5 7t23.5 5q23 4 44 17.5t44 13.5l51 28q8 12 28.5 12.5t30.5 2.5 q55 12 106.5 31.5t106.5 23.5q53 31 106.5 55.5t115.5 24.5q23 0 41 -5t38 -20q0 16 7.5 38t25.5 22q8 0 10 -4q4 -4 12.5 -13.5t10.5 -11.5q6 -8 15.5 -13t9.5 -18v-6q-10 -18 -18.5 -38.5t-8.5 -45.5q0 -18 2 -36.5t2 -35.5q0 -20 -6 -40.5t-8 -42.5v-56l-4 -16l2 -2h2 q8 4 19 19.5t20.5 36t16.5 39.5t11 30q4 23 5 47t10 47q2 4 6 20.5t6 20.5t9 20.5t9 20.5q2 6 8.5 21.5t12.5 30.5t14 26.5t19 11.5q10 0 13 -17.5t7 -21.5q4 -10 16.5 -18.5t12.5 -18.5t-8.5 -19t-12.5 -18q-10 -16 -23.5 -42.5t-13.5 -47.5q0 -6 10.5 -16t10.5 -21 q0 -16 -9.5 -25t-13.5 -24q0 -2 -1 -3t-1 -3v-4q0 -2 -1 -11.5t-1 -11.5q-2 -8 -8 -31.5t-8 -29.5v-2q0 -4 7 -8t9 -8v-3q0 -16 -9 -26t-13 -23h6q2 0 13 6.5t16 10.5q16 10 24 26.5t19 30.5q23 35 49 70t55 69q6 6 12 13.5t17 7.5q6 0 12 -7.5t11 -17.5t8 -20t3 -17 q0 -16 -19 -34.5t-28 -32.5q-16 -29 -26 -64t-35 -59v-2q0 -2 6 -8t6 -13q0 -16 -17.5 -27.5t-17.5 -31.5q27 0 39.5 13.5t30.5 13.5t18 -21q0 -10 -7 -17t-14 -13.5t-14.5 -13.5t-7.5 -15q0 -6 7.5 -8t11.5 -2q16 0 27.5 10t25.5 10t14 -20v-11q-10 -14 -32.5 -23.5 t-22.5 -29.5q0 -6 8.5 -7t12.5 -1h4q4 2 18.5 6t18.5 4h2q8 0 11 -7t3 -13q0 -12 -9 -18.5t-20.5 -12.5t-21.5 -14.5t-15 -20.5h7q18 0 30.5 9t28.5 9q18 0 18 -20q0 -16 -12 -20.5t-22 -10.5q-4 -2 -15.5 -8t-15.5 -10q0 -4 -6 -10v-2q0 -4 4 -5.5t8 -1.5q18 0 32.5 11.5 t33.5 11.5h6t6 -2q4 -2 6 -7t2 -9q0 -14 -11 -22.5t-25.5 -17t-26 -18.5t-11.5 -26q0 -4 6 -5h9q12 0 23 8.5t26 8.5q10 0 12 -8.5t2 -16.5v-8q-6 -8 -17.5 -12t-21.5 -9.5t-17 -12.5t-7 -19v-4q2 0 5 -2t5 -2q12 -4 32.5 -4h30.5q8 -6 9 -19q0 -12 -7.5 -17t-17.5 -8.5 t-21.5 -4.5t-19.5 -7q-2 0 -2 -1t-2 -1q-2 -4 -5 -9t-5 -7v-2q4 0 9 -1t7 -1h2q4 0 22.5 3t22.5 5h4q2 0 7.5 -2t5.5 -6v-21q0 -10 -12.5 -12t-28 -5t-27.5 -10.5t-12 -25.5q0 -8 11 -9t24.5 -2t24.5 -5.5t11 -18.5q0 -10 -7 -16t-17 -8q-6 0 -24.5 -1t-22.5 -1 q-4 -4 -9.5 -7.5t-5.5 -11.5q0 -10 13 -10h32q10 -2 11 -19q0 -23 -15.5 -26.5t-31.5 0.5q-6 -2 -12.5 -9.5t-6.5 -11.5q0 -8 8.5 -9t17.5 -2t17 -5t8 -16q0 -16 -11 -19.5t-25.5 -5.5t-25.5 -4t-11 -14q0 -10 10 -13q4 0 17.5 -1t17.5 -1q10 -4 10 -18q0 -23 -21 -23 q-6 0 -12 1t-10 1t-21.5 -5t-17.5 -13q0 -12 6 -19.5t13.5 -12.5t13.5 -10t6 -13q0 -20 -19 -21q-10 0 -18 7t-18 7q-18 0 -19 -10q0 -16 7.5 -21t14.5 -8.5t14 -6.5t7 -13q0 -20 -20 -20q-14 0 -23.5 6t-19.5 6t-17 -8v-13q0 -16 14.5 -22t14.5 -19q0 -10 -5 -17t-13 -7 q-14 0 -22.5 10t-25.5 10q-4 0 -6 -2v-12q0 -12 6.5 -18.5t13.5 -11.5t13 -10t6 -15q0 -18 -20 -19q-16 0 -26.5 15.5t-27.5 15.5q-10 0 -13 -11.5t-3 -19.5q0 -14 9.5 -22t9.5 -21q0 -4 -5.5 -11t-13.5 -7q-14 0 -22.5 17.5t-18.5 17.5h-2q0 -2 -1 -7.5t-1 -7.5l-4 -6 q4 -10 19.5 -15t15.5 -22q0 -20 -21 -20q-16 0 -25.5 15.5t-25.5 15.5h-2q-14 -12 -14 -25q0 -12 9 -21.5t9 -19.5q0 -6 -6 -13t-16 -7q-8 0 -13.5 6t-8.5 13t-7 13t-10 6h-2q-2 -2 -4 -6t-5 -4q0 -2 -1 -2t-1 -2q-2 -2 -2 -4t1 -4t1 -4q2 -4 7.5 -13.5t9.5 -11.5v-6 q0 -6 -5 -12t-14 -6q-14 0 -20 15t-17 26q-10 -8 -16 -13.5t-6 -15.5q0 -8 4 -15.5t4 -15.5q0 -10 -6 -14t-12 -4h-4q-10 12 -14.5 19t-10.5 22h-2q0 -2 -4 -4t-6 -4l-2 -3v-2q0 -10 7 -18t7 -18q0 -4 -7 -9.5t-13 -5.5q-10 0 -13.5 6.5t-6.5 13.5t-5 13t-8 6q-8 0 -14.5 -8 t-6.5 -14q0 -4 1 -9.5t1 -11.5q0 -18 -16 -18t-20.5 17.5t-8.5 17.5t-10 -4.5t-6 -8.5q0 -8 3 -14t3 -14q0 -16 -16 -17q-10 0 -14.5 6t-5.5 13.5t-1 13.5t-6 6q-4 0 -10 -3t-6 -7v-41q0 -4 -8.5 -4h-10.5q-14 0 -16 17.5t-2 25.5h-8q-4 0 -8.5 -3t-4.5 -7v-33q0 -4 -4 -5 t-8 -1q-10 0 -12 6t-3 13t-2 13.5t-10 6.5q-4 0 -10 -9q0 -12 -2 -25.5t-18 -13.5q-14 0 -21 11v10q0 12 4 22q0 4 -4 5l-2 -2q-2 0 -2 -3q-2 0 -4 -2v-32q0 -2 -4 -5.5t-6 -3.5q-4 0 -7 3.5t-5 5.5q0 4 -3.5 20.5t-13.5 16.5q-16 0 -20 -19.5t-15 -19.5q-12 0 -12 16 q0 4 1 10t1 10q0 6 -2 7l-8 -7q0 -2 -3 -11t-3 -13l-2 -4q-2 0 -2 -1t-2 -1h-5h-6t-4 4v26q-2 6 -2 9.5t-4 3.5q-10 0 -15 -13.5t-7 -17.5q-2 -2 -3.5 -2t-3.5 -2q-8 0 -11 6t-3 12t2 11.5t2 11.5q-8 0 -11 -5t-4 -10.5t-3 -10.5t-8 -5q-10 0 -11 15q0 6 1 12t1 12v2 q0 2 -2 4q-16 0 -19 -13t-13 -13t-15 2v8q0 8 3 13t3 11q-12 0 -13 -13t-13 -13q-10 0 -11 10v2v2q0 2 3 4l4 4q-2 0 -2 2v4v7h-5q-4 -4 -8 -12.5t-12 -8.5q-10 0 -10 10q0 8 1 16.5t1 18.5q-8 0 -8 -13t-13 -13q-12 0 -12 10t1 15t1 16q-8 0 -10 -8.5t-10 -8.5t-9 10 q0 6 1 11.5t1 11.5t-2 6q-6 -4 -11 -11t-11 -7q-12 0 -12 8q0 6 4 11t4 13v2l-2 3q-6 0 -9.5 -6.5t-11.5 -6.5t-8 8t4 13.5t4 11.5q-2 0 -4 1t-4 1t-6 -8t-8 -8q-2 0 -5 2t-8 2q-6 0 -9 -5t-11 -5q-6 0 -7 1t-7 9l-2 4q-14 47 -29.5 89t-34.5 87q-35 80 -53.5 146.5 t-18.5 154.5zM899 1206q27 -35 41 -71.5t23 -77.5q0 -4 6 -14.5t13 -21.5t13 -20.5t11 -9.5h2l6 41q0 8 10 24.5t14 20.5t16.5 15.5t14.5 13.5q14 10 28.5 16t30.5 21q20 18 41 40.5t35 47.5h-6q-23 0 -44 -5t-46 -7q-6 0 -16.5 -1t-20.5 -2.5t-18.5 -2.5t-10.5 -1h-98 q-4 0 -22.5 -1t-22.5 -1v-4zM1014 1710q10 -6 17 -16.5t24 -14.5q10 10 19 33t13 35h-2q-2 0 -3 -1t-3 -1h-4q-6 -4 -24.5 -7t-22.5 -7q-2 0 -8 -6.5t-6 -12.5v-2z" />
<glyph unicode="A" horiz-adv-x="2891" d="M102 2l1346 2042l1341 -2042h-262l-602 916h-958l-602 -916h-263zM1120 1153h652l-324 500z" />
<glyph unicode="B" horiz-adv-x="1435" d="M68 0v211h544q80 0 166 19.5t156 61.5t115 108.5t45 160.5q0 104 -55.5 171t-145.5 106t-201 55q-112 17 -227 21q-74 3 -144 2h-75q-58 -1 -107 -2q-39 0 -71 1v234q35 1 78.5 1t95.5 -1q35 -1 70 -1q72 0 148 3q114 4 227.5 19.5t203.5 52.5t146.5 101.5t56.5 166.5 q0 96 -44 163.5t-114 110.5t-156 62.5t-168 19.5h-544v211h745q115 0 213 -44t170 -119.5t112 -176t40 -211.5q0 -74 -28 -138t-72 -122.5t-98 -111t-108 -101.5v-10q53 -49 107.5 -101.5t98.5 -110.5t72 -122.5t28 -138.5q0 -111 -41 -211t-113 -175t-169 -120t-212 -45 h-745z" />
<glyph unicode="C" horiz-adv-x="2279" d="M102 1020q0 219 87 406.5t234.5 325.5t342.5 217t408 79q166 0 319.5 -46t283.5 -132t233.5 -208t170.5 -273q10 -25 20.5 -60t18.5 -71.5t13 -71.5t5 -62h-233l-10 31q-43 150 -118 277t-179.5 220t-236.5 145t-287 52q-170 0 -321 -63.5t-264.5 -175t-180 -262 t-66.5 -324.5q0 -172 66.5 -322.5t180 -261t264.5 -175t321 -64.5q139 0 272 61.5t243.5 162.5t190.5 230t115 267h246q0 -39 -15.5 -98.5t-37 -121t-45 -118t-40.5 -88.5q-68 -121 -171 -215.5t-227 -159t-260 -97t-271 -32.5q-213 0 -408 77.5t-342.5 216t-234.5 327 t-87 407.5z" />
<glyph unicode="D" horiz-adv-x="1540" d="M102 -2v211q119 0 247 26.5t250 76.5t230.5 123t189.5 165t129 201.5t48 234.5q0 123 -48 230.5t-131 198.5t-192.5 163t-231.5 121t-248 75.5t-243 26.5v201q156 0 314.5 -30.5t307 -91t279 -148.5t226.5 -202t152.5 -253t56.5 -301t-56.5 -301t-152.5 -254t-226.5 -203 t-279 -148.5t-307 -91t-314.5 -30.5z" />
<glyph unicode="E" horiz-adv-x="1280" d="M55 0v211h1157v-211h-1157zM55 924v211h1157v-211h-1157zM55 1847v211h1157v-211h-1157z" />
<glyph unicode="F" horiz-adv-x="1280" d="M55 924v211h1157v-211h-1157zM55 1847v211h1157v-211h-1157z" />
<glyph unicode="G" horiz-adv-x="2279" d="M102 1022q0 225 84 413.5t228.5 323.5t340 211t416.5 76q193 0 374 -68.5t326.5 -191.5t243 -291t121.5 -367h-239l-12 11q-33 143 -108 272t-181.5 226.5t-240.5 153.5t-284 56q-166 0 -315 -64.5t-264 -176t-182.5 -259t-67.5 -313.5q0 -170 66.5 -320.5t179 -263 t263 -179t320.5 -66.5q143 0 271.5 63.5t234 166t185.5 231.5t127 260h239l-12 -928h-248v317q-178 -154 -369.5 -235.5t-427.5 -81.5q-221 0 -416.5 76t-340 211t-228.5 323.5t-84 413.5z" />
<glyph unicode="H" horiz-adv-x="1288" d="M-283 918v212h1241v918h228v-2048h-228v918h-1241z" />
<glyph unicode="I" horiz-adv-x="432" d="M100 0v2046h222v-2046h-222z" />
<glyph unicode="J" horiz-adv-x="1259" d="M102 0v201q0 4 24 8t54.5 9t59 9t39.5 6q125 37 241.5 110t205.5 174t142.5 224t53.5 263v1046h235v-1155q0 -47 -12 -96t-29 -90q-61 -160 -162.5 -291t-233.5 -223.5t-289 -143.5t-329 -51z" />
<glyph unicode="K" horiz-adv-x="1173" d="M102 877v327l682 844h287l-842 -1006l840 -1042h-231z" />
<glyph unicode="L" horiz-adv-x="1280" d="M55 0v211h1157v-211h-1157zM55 10v2038h221v-2038h-221z" />
<glyph unicode="M" horiz-adv-x="2140" d="M102 2036l11 10h254q10 0 19 -7t15 -14l664 -839q4 -6 16.5 -18.5l16.5 -16.5h6h6q0 2 4 6l6 6l672 883h246v-2046h-226v1659l-38 -33l-664 -807h-6h-6l-33 33z" />
<glyph unicode="N" horiz-adv-x="2142" d="M102 2048h287l1426 -1751v1751h225v-2050h-225z" />
<glyph unicode="O" horiz-adv-x="2336" d="M76 1030q0 221 89 412.5t238.5 331t346 219.5t413.5 80t414 -80t346.5 -219.5t237.5 -331t88 -412.5t-88 -412.5t-237.5 -331t-346.5 -219t-414 -79.5t-413.5 79.5t-346 219t-238.5 331t-89 412.5zM322 1036q0 -174 66.5 -326.5t182 -265t268 -178t324.5 -65.5 t324.5 65.5t268.5 178t182.5 265t66.5 326.5t-66.5 327t-182.5 265.5t-268.5 178t-324.5 65.5t-324.5 -65.5t-268 -178t-182 -265.5t-66.5 -327z" />
<glyph unicode="P" horiz-adv-x="1413" d="M88 1847v211h746q115 0 213 -44t169.5 -119.5t111.5 -176t40 -211.5q0 -109 -38 -211t-107.5 -181t-164.5 -127t-212 -48h-518v-940h-230v1120h93.5t141.5 1t141.5 2t92.5 1q96 2 193.5 14.5t176.5 50.5t128 109.5t49 192.5q0 96 -44 163.5t-113.5 110.5t-155.5 62.5 t-168 19.5h-545z" />
<glyph unicode="Q" horiz-adv-x="2342" d="M102 1024q0 225 84 413.5t228.5 323.5t340 211t416.5 76t416 -76t340.5 -211t229.5 -323.5t84 -413.5q0 -117 -24 -221.5t-68 -198.5t-107.5 -181t-143.5 -171v-12q6 -12 25 -41t40.5 -62t39.5 -62.5t27 -41.5q4 -2 7 -10.5t3 -10.5h-262l-78 109q-131 -63 -257 -92 t-272 -29q-221 0 -416.5 76t-340 211t-228.5 323.5t-84 413.5zM342 1036q0 -170 66.5 -320.5t179 -263t263 -179t320.5 -66.5q25 0 89.5 9t134 24.5t123 36t53.5 45.5q0 2 -1 3t-1 3v2l-129 207h260l57 -78q61 49 106.5 117.5t75 145.5t44 158t14.5 156q0 166 -66.5 313.5 t-180.5 259t-263.5 176t-315.5 64.5t-315 -64.5t-264 -176t-182.5 -259t-67.5 -313.5z" />
<glyph unicode="R" horiz-adv-x="1703" d="M33 1841v207h680q2 0 16 -3t31.5 -6t35 -7t27.5 -7q100 -25 185.5 -70.5t144.5 -111t93 -152.5t34 -196q0 -158 -78 -267.5t-213 -193.5v-22l649 -1002h-264l-719 1112l-10 23q14 10 37 18t47.5 15.5t47 12.5t34.5 11q104 35 170 106.5t66 188.5q0 94 -48.5 177 t-142.5 118q-16 6 -40.5 14.5t-49.5 15.5t-44.5 13t-21.5 6h-667z" />
<glyph unicode="S" horiz-adv-x="1357" d="M86 1581q0 88 42 168t108.5 145.5t147.5 111.5t161 65h139q123 0 233.5 -16.5t217.5 -84.5q10 -8 27.5 -24.5t17.5 -20.5v-233h-13q-109 57 -223.5 107t-238.5 50q-72 0 -136.5 -19.5t-116 -58t-81 -96t-29.5 -133.5q0 -96 40 -159.5t105.5 -109.5t148.5 -79t170 -67.5 t170 -77.5t148.5 -107.5t105.5 -157t40 -227.5q0 -139 -48 -247.5t-134.5 -182.5t-202 -113t-250.5 -39q-123 0 -231.5 38t-215.5 98q-16 10 -41.5 26.5t-25.5 18.5v278q63 -43 127.5 -83t133.5 -70.5t141.5 -50t150.5 -19.5q76 0 140.5 26.5t111.5 73.5t72.5 111.5 t25.5 138.5v84q-12 43 -37.5 77t-57.5 61.5t-69 51t-72 44.5q-4 4 -21 12t-22 10q-145 57 -266 105.5t-208 118t-136 176t-49 280.5z" />
<glyph unicode="T" horiz-adv-x="1869" d="M55 1841v217h1760v-217h-742v-1841h-233v1841h-785z" />
<glyph unicode="U" horiz-adv-x="1892" d="M88 768v1280h207v-1257q0 -6 4 -29t10 -49.5t13.5 -52t11.5 -37.5q31 -96 92 -174t141 -133.5t174.5 -86t192.5 -30.5q96 0 188 26.5t172 76.5t142.5 123t99.5 165q4 12 11 31.5t13.5 39t10.5 34t4 18.5v1335h217v-1358q0 -92 -41 -183t-94 -163q-133 -184 -322.5 -276.5 t-416.5 -92.5q-164 0 -314.5 60.5t-265.5 167t-182.5 251t-67.5 314.5z" />
<glyph unicode="V" horiz-adv-x="2889" d="M102 2048h273l1052 -1610q0 -2 4.5 -6t6.5 -6h6h6q2 2 5 6t7 6q12 20 45 70.5t70 107t69.5 107.5t47.5 72q4 4 16 21.5t16 21.5l787 1210h274l-1343 -2042z" />
<glyph unicode="W" horiz-adv-x="4237" d="M102 2046h273l1052 -1608q0 -2 3.5 -6t5.5 -6h8h4l12 12q12 18 45 68.5t70 108t69.5 107.5t47.5 71q4 4 16 21t16 22l377 589q2 2 6 6.5t7 4.5h2q2 0 3 1t3 1l4 -2l289 -445l8 -10l356 -543l12 -12h5h6l6 6t4 6l1053 1608h270l-1339 -2040l-678 1028l-674 -1028z" />
<glyph unicode="X" horiz-adv-x="2148" d="M102 2046h287l670 -825q2 -2 5 -6.5t5 -4.5q0 -2 2 -2h4l4 2q2 0 6.5 4.5l6.5 6.5l669 825h285l-840 -1006l838 -1040h-232l-700 838l-33 32h-4h-6q-4 -4 -16.5 -16t-16.5 -16l-700 -838h-232l838 1040z" />
<glyph unicode="Y" horiz-adv-x="2162" d="M102 2048h289l674 -831q2 -2 6 -5.5t6 -3.5l2 -2q0 -2 2 -2l4 4q2 0 6.5 3t6.5 6l674 831h288l-858 -1026v-1022h-233v1008l-25 32z" />
<glyph unicode="Z" horiz-adv-x="2148" d="M102 0l1495 1849h-1484v197h1933l-1514 -1815l-10 -26h1524v-205h-1944z" />
<glyph unicode="[" horiz-adv-x="581" d="M123 -2q0 61 1 124t3 122q6 268 15.5 532t15.5 533q-8 16 -8 26q0 37 40 58q47 14 96.5 23t98.5 9t97 -11t93 -36q23 -23 23 -49q0 -25 -17.5 -42t-45.5 -17q-8 0 -25 4q-55 29 -125 29q-27 0 -53.5 -4.5t-52.5 -10.5q-6 -262 -14.5 -521t-14.5 -521q-2 -61 -3 -129 t-1 -135v-80t4 -76q29 -4 58.5 -6t58.5 -2t58.5 1t57.5 1q31 -4 46.5 -21.5t15.5 -40.5t-17.5 -42t-52.5 -19q-29 0 -58.5 -1t-58.5 -1q-49 0 -98 5t-94 26q-16 12 -22.5 21t-10.5 28q-6 55 -8 111.5t-2 111.5z" />
<glyph unicode="\" horiz-adv-x="2125" d="M102 2048h263l1658 -2048h-215z" />
<glyph unicode="]" horiz-adv-x="581" d="M29 1360q0 20 14 37.5t43 23.5q63 -2 125.5 -13t126.5 -15q8 20 24.5 30.5t32.5 10.5q23 0 39.5 -16.5t20.5 -47.5q-2 -365 -8.5 -726t-8.5 -726q-2 -2 -2 -6q29 -16 29 -51q0 -18 -11.5 -36t-35.5 -28q-68 -23 -150 -20.5t-153 -1.5q-35 0 -52.5 18.5t-17.5 40.5 q0 20 14.5 38.5t42.5 25.5h39h82h49.5t46.5 4q-4 8 -4 14q2 340 7.5 677t9.5 677q-63 6 -125.5 16t-128.5 12q-27 10 -38 26.5t-11 35.5z" />
<glyph unicode="^" horiz-adv-x="1314" d="M102 1202l553 846l557 -844h-112l-326 500q0 2 -5 9t-7 7q-6 8 -20.5 30t-30 45.5t-28.5 45t-19 29.5q-2 0 -3.5 2t-3.5 2h-2h-2l-2 -2q0 -2 -2 -2l-434 -668h-113z" />
<glyph unicode="_" horiz-adv-x="2244" d="M102 -248l2 221l2038 -2v-221z" />
<glyph unicode="`" />
<glyph unicode="a" />
<glyph unicode="b" />
<glyph unicode="c" horiz-adv-x="1583" d="M102 111v1214l91 92h1261q10 0 15.5 -7t7.5 -16.5t2 -19.5v-14q0 -10 -1 -25.5t-6.5 -30t-15.5 -23.5t-26 -9h-1102q-16 0 -32.5 -15.5t-29 -36t-20.5 -42t-8 -31.5v-879q0 -10 8 -31.5t20.5 -42t28.5 -36t33 -15.5h1102q16 0 26 -9t15.5 -23.5t6.5 -28.5t1 -25v-15 t-2 -19.5t-7.5 -17.5t-15.5 -7h-1239q-14 0 -33.5 12.5t-37 29.5t-30 36.5t-12.5 34.5z" />
<glyph unicode="d" />
<glyph unicode="e" horiz-adv-x="1603" d="M102 0v1417h1373q12 0 17 -9t6 -20.5t1 -22.5v-15v-14.5t-2 -27t-7 -25.5t-15 -11h-1102q-41 0 -64.5 -33t-35 -76t-13.5 -86t-2 -63q0 -23 2 -67t13.5 -87t35 -74.5t64.5 -31.5h921l9 -13q4 -6 7 -12t7 -10q4 -6 12 -23.5t10 -21.5v-10v-13q-6 -12 -23.5 -33.5 t-21.5 -21.5h-968q-31 0 -45.5 -25.5t-19.5 -59.5q-4 -28 -4 -54v-11q1 -30 1 -43q0 -20 2 -63t13.5 -86t35 -76t64.5 -33h1102q10 0 15 -11t7 -25.5t2 -26.5v-14v-15.5t-1 -23t-6 -20.5t-17 -9h-1373z" />
<glyph unicode="f" />
<glyph unicode="g" />
<glyph unicode="h" horiz-adv-x="1617" d="M102 29v1405q2 0 27 -1t53.5 -6.5t52 -17.5t23.5 -35v-493q0 -16 12.5 -36t29.5 -36t36.5 -28.5t34.5 -12.5h876q14 0 35 7t40 19.5t33.5 29t14.5 34.5v537q0 4 12.5 13t20.5 11q6 0 22.5 2t35 3t33.5 2t22 1v-1429q-6 0 -21.5 1t-34 2t-35 3t-22.5 2q-8 2 -20.5 10.5 t-12.5 12.5v514q-6 2 -14 8q-6 4 -11.5 8t-9.5 8q-8 4 -24.5 13.5t-20.5 9.5h-964q-23 0 -45.5 -22.5t-22.5 -45.5v-471q0 -18 -9 -27.5t-23.5 -14.5t-29 -5h-24.5h-13.5t-23.5 1t-22.5 6t-10.5 18z" />
<glyph unicode="i" />
<glyph unicode="j" horiz-adv-x="1556" d="M102 111v338q0 12 9.5 17t21.5 6t22.5 1h14.5q6 0 23.5 -1t21.5 -1q0 -12 3 -41t7 -61.5t7.5 -61t5.5 -39.5q2 -14 9 -33.5t18 -37t26.5 -29.5t36.5 -12h901q8 0 21.5 7t25.5 17t21.5 21.5t9.5 21.5v1172q0 10 11 15t25.5 7t27.5 2h15q4 0 16 1h7l15 -1q12 -2 21 -7 t9 -17v-1262q0 -4 -9 -21.5t-13 -23.5q-8 -10 -22.5 -25.5t-29 -30t-26 -24.5t-13.5 -10h-1126q-10 0 -28.5 12.5t-37 29.5t-33 36.5t-14.5 34.5z" />
<glyph unicode="k" />
<glyph unicode="l" />
<glyph unicode="m" horiz-adv-x="1865" d="M102 51v1323l23 45q2 2 19.5 3t27.5 1q45 0 95 -50t101.5 -133t104.5 -188.5t104.5 -215t100.5 -215t94 -188.5t86 -133t76 -50q12 0 24.5 3t18.5 21q135 266 276.5 519.5t284.5 513.5q20 37 31.5 61.5t24 37.5t30.5 19.5t57 6.5q10 0 33 -4.5t27 -8.5l22 -45v-1323 q0 -18 -10 -28.5t-23.5 -14.5t-28.5 -5t-26 -1h-14t-26.5 2t-27 7t-12.5 16v897q0 29 -19.5 39t-39.5 10q-25 0 -62.5 -68.5t-86 -171t-106.5 -223.5t-121.5 -223.5t-133.5 -171t-141 -68.5q-35 0 -85 68.5t-106.5 171t-114 222.5t-106.5 222.5t-88 171t-55 68.5 q-10 0 -34 -3t-24 -20v-921q0 -4 -14 -12.5t-20 -10.5q-4 0 -30 -1t-38 -1q-8 0 -25.5 1t-19.5 1z" />
<glyph unicode="n" />
<glyph unicode="o" horiz-adv-x="1624" d="M102 156v1101q0 4 9.5 20.5t13.5 27.5q0 2 11 19t26.5 37.5t30 38t22.5 17.5h1217l90 -92v-1237l-113 -90h-1194q-8 0 -22.5 16.5t-30 37t-26.5 39t-11 20.5q-4 8 -13.5 25.5t-9.5 19.5zM260 246q0 -2 9.5 -20.5t13.5 -24.5q2 -4 11 -12.5t11 -10.5q10 -4 36 -13t32 -9 h878q18 0 41 9t44.5 25.5t35.5 36t14 41.5v879q0 47 -32.5 78.5t-79.5 31.5h-901q-6 0 -24.5 -5t-38 -14t-35 -21.5t-15.5 -24.5v-946z" />
<glyph unicode="p" horiz-adv-x="1619" d="M102 25v1392h1303q2 0 13.5 -10t24.5 -24.5t27.5 -30t22.5 -25.5q6 -8 15.5 -24.5t9.5 -20.5v-539q0 -16 -15.5 -40.5t-37 -48t-45 -41t-38.5 -17.5h-1056q-14 0 -26.5 -12.5t-22 -28.5t-14.5 -32.5t-5 -24.5v-451q0 -18 -9 -27.5t-23.5 -14.5t-29 -5h-24.5h-13.5 t-23.5 1t-22.5 6t-10.5 18zM256 1014q0 -27 2 -69t12.5 -82t34 -68.5t66.5 -28.5h899q14 0 34.5 12.5t37 28.5t28.5 35.5t12 34.5v272q0 14 -12 33.5t-28.5 36t-37 29t-34.5 12.5h-899q-43 0 -66.5 -29t-34 -69t-12.5 -80.5t-2 -67.5z" />
<glyph unicode="q" />
<glyph unicode="r" horiz-adv-x="1609" d="M102 6v1411h1291q8 0 22.5 -16.5t28.5 -37t25.5 -38.5t11.5 -20q6 -8 15 -24.5t9 -20.5v-488q0 -4 -9 -21.5t-15 -23.5q-37 -45 -84 -69.5t-97.5 -38t-97.5 -19.5t-85 -12t-60.5 -16.5t-22.5 -32.5q0 -2 2 -6.5t2 -6.5q6 -4 21.5 -12t33 -19.5t33 -20.5t21.5 -13 q20 -14 65 -46t95.5 -68t93.5 -66.5t59 -42.5q18 -14 27.5 -22.5t13.5 -15.5t5 -17.5t1 -28.5q0 -29 -3 -51.5t-23 -43.5q-23 8 -88.5 51.5t-151.5 102.5t-181 126t-177 124t-138.5 94t-62.5 37h-358q-2 0 -18.5 -9.5t-24.5 -13.5q-8 -8 -21 -14q-8 -4 -14 -8v-512 q0 -4 -12.5 -12.5t-18.5 -10.5q-6 0 -21.5 -2t-34 -3t-34.5 -2t-23 -1zM258 860q0 -4 5 -13t12.5 -19.5t15.5 -20.5t12 -14q6 -4 31.5 -12.5t34.5 -8.5h868q6 0 24.5 5t38 14.5t34 21.5t14.5 25v333q0 18 -13.5 35t-31 28t-36 18.5t-30.5 7.5h-868q-14 0 -34 -7.5t-36 -18.5 t-28.5 -27.5t-12.5 -35.5v-311z" />
<glyph unicode="s" horiz-adv-x="1574" d="M102 51v10q0 14 3.5 32t11.5 33t21.5 25.5t31.5 10.5h1053q29 0 59.5 15.5t30.5 49.5v338l-45 33h-1030l-8 6q-9 6 -20 15.5t-22.5 19.5t-17.5 16q-10 8 -27.5 24.5t-17.5 20.5v627q0 2 17.5 19.5t27.5 25.5l38.5 27.5t29.5 17.5h1210q12 0 16 -9q4 -8 6 -20q2 -7 2 -15 v-8q-2 -11 -2 -15v-14.5t-1 -27t-6 -25.5t-15 -11h-1098q-2 0 -19.5 -12.5t-27.5 -22.5q-12 -10 -28.5 -30.5t-16.5 -37.5v-290q0 -16 15.5 -38t37 -40.5t44 -31.5t38.5 -13h987q16 0 31.5 -15.5t28 -36t20.5 -41t8 -30.5v-494q0 -4 -8 -21.5t-12 -23.5q-10 -10 -24.5 -25.5 t-29 -29.5t-25.5 -24.5t-13 -10.5h-1231q-2 0 -10.5 17.5t-12.5 29.5z" />
<glyph unicode="t" horiz-adv-x="1693" d="M41 1417h1376q4 0 20.5 -17.5t24.5 -27.5v-10v-12q-2 -4 -11 -21.5t-13 -23.5q-2 -4 -5 -10.5t-8 -10.5l-8 -12h-493q-10 0 -27.5 -9.5t-34 -21.5t-28 -26.5t-11.5 -22.5v-1141l-35 -45q-2 0 -19 -2t-28 -2q-10 0 -34.5 2t-28.5 2q-8 0 -21.5 8.5t-13.5 12.5v1190l-55 55 h-516q-4 0 -12.5 12t-10.5 21q0 6 -1 22t-3 34.5t-3 34t-1 21.5z" />
<glyph unicode="u" horiz-adv-x="1644" d="M102 137v1282q0 4 26 13.5t42 9.5q18 0 48 -9.5t30 -13.5v-1194q0 -10 17.5 -22.5t40 -21.5t42 -15t25.5 -6h878q31 0 63 20.5t48 44.5q12 135 18 283q6 150 8 300q1 75 1.5 148.5t-1.5 145.5q-2 144 -4 272l23 45h113q0 -41 2 -127t4.5 -194.5t5 -228t4.5 -228.5t4 -196 t2 -128v-53q0 -23 -9 -65.5t-25.5 -86.5t-42 -77t-58.5 -33h-1192q-4 0 -20.5 17.5t-24.5 27.5q-8 8 -19.5 23.5t-22.5 30t-18 25.5z" />
<glyph unicode="v" />
<glyph unicode="w" />
<glyph unicode="x" />
<glyph unicode="y" />
<glyph unicode="z" />
<glyph unicode="{" horiz-adv-x="581" d="M12 559q0 37 39 55q8 2 30.5 6.5t41.5 8.5q4 4 15.5 13t23.5 20.5t22.5 22.5t16.5 22q16 29 21 59.5t5 60.5q0 16 -1 30.5t-1 31.5q-2 53 -6 106.5t-4 106.5q0 88 22.5 167t96.5 144q23 20 54.5 22.5t60.5 8.5q6 2 18 2q29 0 44 -17.5t15 -39.5q0 -18 -11 -36t-36 -28 q-18 -4 -37.5 -5t-35.5 -11q-43 -23 -55.5 -75t-12.5 -112q0 -35 2 -66.5t2 -54.5q2 -31 2 -62.5v-64.5q0 -86 -15.5 -162.5t-72.5 -136.5q8 -4 15.5 -7t15.5 -7q45 -29 60 -80t15 -112q0 -76 -12 -159t-12 -155q0 -57 14 -98q14 -39 40 -57.5t55.5 -30.5t61.5 -23.5 t58 -35.5q23 -23 23 -50q0 -25 -17.5 -42t-44.5 -17q-20 0 -43 16q-16 16 -37.5 23.5t-44.5 15.5q-66 23 -101.5 56.5t-63.5 95.5q-16 35 -21.5 72.5t-5.5 78.5q0 53 7 106.5t11 100.5q0 -4 -2 -18.5t-2 -24.5q4 31 9.5 71t5.5 79q0 53 -17 84l-25 2q-24 2 -56.5 8 t-65.5 18.5t-49 30.5q-14 20 -15 43z" />
<glyph unicode="|" horiz-adv-x="425" d="M102 0v2046h222v-2046h-222z" />
<glyph unicode="}" horiz-adv-x="581" d="M-37 1391q0 16 8.5 31.5t30.5 25.5q10 4 22.5 6t22.5 2q23 0 44.5 -7t43.5 -17q63 -27 102 -56.5t60.5 -62.5t29 -68t7.5 -71q0 -43 -5 -89.5t-5 -95.5q0 -39 6 -80t22 -84q14 -39 41 -63.5t55.5 -39.5t56 -23.5t44.5 -14.5q39 -20 39 -57q0 -18 -12.5 -35t-34.5 -27 q-55 -2 -88 -22.5t-51.5 -54t-24.5 -77.5t-6 -92q0 -47 3 -93t3 -87q0 -49 -6 -113.5t-26.5 -124t-59.5 -104.5t-105 -57q-31 -6 -61.5 -10t-61.5 -11q-35 0 -52 18.5t-17 41.5q0 20 14 38.5t43 24.5q27 4 48.5 5t39 6.5t33.5 14.5t35 30q39 41 49 107.5t10 144.5 q0 41 -1 81.5t-1 81.5q0 96 16.5 182.5t81.5 137.5q-55 43 -98 106.5t-49 126.5q-2 8 -2 16.5v18.5q0 41 4 95.5t4 107.5q0 59 -10 109.5t-41 70.5q-29 18 -55.5 27.5t-55.5 21.5h-6q-4 0 -6 -1t-8 -3q-33 0 -51.5 18.5t-18.5 43.5z" />
<glyph unicode="~" horiz-adv-x="1220" d="M49 459v8q12 53 53 109.5t97.5 102.5t121 75.5t125.5 29.5q59 0 107 -32q27 -20 59.5 -61.5t65.5 -82.5t64.5 -73.5t56.5 -34.5h8q47 0 86 27.5t72.5 67.5t62.5 82t57 73q25 10 39 10q27 0 42.5 -15.5t15.5 -39.5q0 -23 -13 -43q-33 -35 -69.5 -84.5t-79.5 -95.5 t-92 -77.5t-107 -31.5q-10 0 -19 1t-20 3q-68 14 -113.5 60t-82.5 95.5t-74 88t-88 38.5q-35 0 -77 -21.5t-97 -72.5q-29 -27 -49.5 -52t-30.5 -64q-8 -29 -25.5 -42.5t-38.5 -13.5q-23 0 -40 16.5t-17 49.5z" />
<glyph unicode="&#xa1;" horiz-adv-x="497" d="M102 1878q0 -16 1 -31.5t3 -31.5v-11q2 -4 5.5 -19t5.5 -24q4 -20 11 -37.5t17 -35.5q8 -16 13 -23q2 0 4 -5t4 -5v-2q10 -14 23.5 -28.5t31.5 -18.5q16 -4 25 -4q20 0 39 6q23 10 36 28.5t23 36.5v2q0 2 2 4q2 0 4 2l2 7q2 4 7.5 16t7.5 16q12 27 18 60l2 4q0 4 2 8 q0 6 2 10q4 14 4 30.5v31.5q0 23 -2 45t-8 45q0 4 -2 5t-2 5q-4 10 -11.5 22.5t-17.5 20.5q-6 4 -12 7t-12 7q-8 6 -16.5 9.5t-18.5 7.5h-2q-23 6 -45 6h-15q-4 -2 -9 -2t-11 -2q-2 -2 -6 -2q-4 -2 -9.5 -3t-9.5 -3q-37 -20 -56 -51t-26 -72q0 -8 -1 -15.5t-1 -15.5zM139 2 h226v1522h-226v-1522z" />
<glyph unicode="&#xa2;" horiz-adv-x="4919" d="M102 1698q0 8 7.5 21.5t19.5 13.5h1178q14 0 29.5 -15.5t21.5 -27.5l149 -281v-10h-1257l-144 272q-4 8 -4 27zM279 1343h1257q2 0 8 -6q0 -4 5 -14t10 -10q16 -31 40.5 -78t47 -91t39.5 -77l16 -33v-4h-1262zM473 969h1264l153 -297v-13q0 -4 -2 -19t-12 -15h-1198 q-4 0 -12 8q-2 0 -9.5 5t-11.5 9l-2 4zM737 463v4q0 6 4 6h37l4 -2q6 -25 15 -47q6 -20 12 -41t10 -33q4 -18 9.5 -38.5t17.5 -37.5v-2l2 2q8 0 8 5q0 6 4 19t8 26.5t8.5 25.5t6.5 19q4 14 7 32.5t9 35t16.5 28.5t28.5 12q14 0 24.5 -5t14.5 -21l45 -166q2 -10 12 -11h2 q12 16 17.5 41t11.5 47q2 6 6 19.5t9.5 29t9.5 30t6 20.5q2 2 5 7t9 5h33l2 -2v-2v-2q0 -6 -4 -17.5t-8 -24.5t-7.5 -24.5t-5.5 -17.5q-4 -16 -9 -32.5t-11 -35.5q-4 -14 -8 -33.5t-10.5 -37t-17.5 -29.5t-32 -12q-12 0 -22 4t-15 20l-51 181h-4q-16 0 -17 -17.5t-5 -28.5 q-2 -8 -7.5 -27.5t-11.5 -41t-11 -39.5t-7 -27q-4 -12 -17.5 -19t-23.5 -7q-14 0 -23.5 8t-13.5 18zM1165 297v43v19.5t1 28.5t1 28.5v19.5q8 14 22.5 25.5t31.5 11.5h178q6 0 6 -4v-6t-1 -12.5t-5 -10.5h-158q-16 0 -22.5 -17t-6.5 -28q0 -4 1 -22.5t12 -18.5h164q2 0 4 -4 t2 -6q0 -4 -2 -10t-4 -6h-158q-10 0 -14.5 -13.5t-4.5 -19.5q0 -10 5.5 -32.5t23.5 -22.5h158q4 0 5 -6.5t1 -10.5q0 -2 -1 -8t-5 -6h-168q-45 0 -55.5 25.5t-10.5 62.5zM1423 471l4 2h43l3 -2l4 -4q6 -6 16 -20.5t22.5 -30t22.5 -28.5t14 -19q4 0 6.5 -1t6.5 -1q6 0 9 3 t7 9q2 2 12.5 15.5t21.5 27.5t21.5 27.5t12.5 17.5l4 4q2 2 4 2h45q0 -8 -4 -12q-27 -35 -54.5 -74t-56.5 -74v-104h-47v108l-96 123q-2 0 -4 2q-2 4 -10 17q-4 6 -7 12zM1505 1609.5v26.5q0 12 3 31t11.5 34t21.5 26.5t32 11.5h731q18 0 31.5 -11.5t21.5 -26.5t11.5 -33.5 t3.5 -31.5v-26.5t-5 -22.5l-354 -678q-12 -23 -31.5 -36t-42.5 -13t-43 13.5t-28 35.5l-357 678q-6 12 -6 22.5zM1735 262v199q0 2 2 4q0 2 1 3t1 3q2 2 4 2h39v-180q0 -10 6 -31.5t22 -21.5h160q0 -2 2 -2l2 -2v-13v-12l-10 -2h-160q-20 0 -44.5 13.5t-24.5 39.5zM1999 209 q0 4 5 13t7 14l100 204q10 16 19 24.5t29 8.5q14 0 22 -2t17 -16l104 -209q0 -8 5 -16.5t7 -18.5v-2h-43q-6 0 -10 10l-9 22.5t-11.5 22.5t-14.5 10h-137q-6 0 -6 -6l-4 -4l-29 -55h-51zM2028 735q0 16 1 27.5t11 25.5l348 672q20 47 74 47q53 0 73 -41l353 -688 q8 -12 9 -23.5t1 -25.5q0 -31 -20.5 -63.5t-61.5 -32.5h-713q-37 0 -56 34.5t-19 67.5zM2103 315q0 -10 8 -10h93q4 0 6 5t2 7v9q-4 10 -20.5 40.5t-22.5 41.5q-4 4 -6 9t-11 5l-4 -2l-45 -101v-4zM2333 211v238q0 16 15 20t26 4q35 0 50 -27.5t34 -56.5v-2q0 -2 2 -4 l75 -109q4 -10 11 -10h6q0 8 1 30.5t1 31.5v137l4 4q6 6 4 6h31l6 -6v-236q0 -16 -14.5 -22t-24.5 -6q-16 0 -24.5 6t-18.5 18q-6 8 -22.5 33t-34 52.5t-32.5 52t-22 34.5l-10 11q-4 0 -8 -1t-6 -1v-197l-8 -2h-13h-20h-4q-2 0 -4 2zM2546 1613.5v22.5q0 39 21.5 73t66.5 34 l721 -4q18 0 30.5 -12.5t19.5 -30t10 -37t3 -31.5q0 -4 -1 -7t-1 -7v-10l-354 -686q-10 -25 -28.5 -41.5t-47.5 -16.5q-49 0 -76 41l-358 694q-6 10 -6 18.5zM2632 209v264h217q12 0 29.5 -11t17.5 -26q0 -8 1 -28.5t1 -44t1 -43t1 -27.5v-19q0 -23 -15.5 -44t-41.5 -21 h-211zM2685 244h141q10 0 17.5 12t7.5 18v136q0 20 -16.5 26t-30.5 6q-2 0 -10.5 1t-19.5 1h-21.5h-16.5h-26.5t-18.5 -2l-6 -6v-192zM3021 668q0 8 6 18l151 295h1264v-6q-31 -59 -57 -113q-25 -47 -50.5 -95t-41.5 -81q-8 -14 -25.5 -33.5t-34.5 -19.5h-1184 q-12 0 -20 12.5t-8 22.5zM3070 252v184q0 18 18.5 27.5t30.5 9.5h178q6 0 6 -2v-10v-12q0 -8 -6 -9h-162q-4 0 -11 -11t-7 -17v-148q0 -4 9 -14t14 -10h157q6 0 6 -4v-11v-14q0 -2 -2 -2h-4h-168q-16 0 -37.5 10t-21.5 33zM3211 1042l162 314h1266l-162 -314h-1266z M3342 250v182q0 16 21.5 28.5t34.5 12.5h147q20 0 37.5 -15.5t17.5 -37.5v-162q0 -23 -22.5 -36t-38.5 -13h-137h-8h-7q-2 0 -2 2q-14 4 -28.5 14.5t-14.5 24.5zM3391 264q0 -4 9.5 -12t13.5 -8h113q10 0 18 12t6 23v53v44t-2 44q-6 10 -16 16q-2 0 -4 2q-2 0 -2 2h-113 q-8 0 -15.5 -9t-7.5 -13v-154zM3408 1409v12l147 285q4 10 22.5 23.5t26.5 13.5h1180q14 0 23.5 -13.5t9.5 -25.5v-6q-8 -14 -27.5 -52t-41 -80t-41 -80t-25.5 -52l-17 -25h-1257zM3633 209v264h207q16 0 33.5 -9t21.5 -32v-31q0 -61 -29.5 -73.5t-86.5 -8.5q-10 -2 -11 -12 v-4q6 -4 20.5 -16.5t31 -24.5t32 -24.5t21.5 -16.5q0 -4 4 -6t4 -6h-51l-142 106v2l-2 -2l-6 -6v-100h-47zM3682 344q0 -2 2 -4t2 -4h2q4 2 10.5 5t8.5 3h104q2 0 12.5 5t16.5 9q4 6 5 18.5t1 18.5q0 10 -4 27.5t-18 17.5h-136l-6 -8v-88zM3924 211v260l8 6h35q47 0 84 -1 t84 -3q14 0 24 -6q4 -4 12.5 -13.5t8.5 -11.5v-96q0 -14 -19.5 -22.5t-29.5 -10.5q-37 -4 -75 -5t-73 1q-6 -6 -6 -4q-2 0 -2 -1t-2 -1h-4v-92q0 -2 -2 -2h-6h-21h-12zM3971 354l8 -8h127q23 0 27 20.5t4 34.5q0 20 -11.5 29.5t-26.5 12.5t-33.5 2t-30.5 -1q-4 0 -24.5 -1 t-27.5 -1q-4 -2 -6 -2l-6 -4v-82z" />
<glyph unicode="&#xa3;" horiz-adv-x="2787" d="M102 -213q0 2 2 2q2 -2 0 -2q-2 -2 -2 0zM104 -225l5 -4h-5v4zM279 1575q0 6 5 6h11q12 0 16 -8q0 -4 4 -23.5t7 -25.5v-7.5t4 -9.5q6 12 8 36t18 24q8 0 12.5 -8.5t7.5 -17.5t5 -17t8 -8q2 4 4 14t4 21.5t4 20.5t6 9h25q2 0 2 -8v-6l-27 -125h-26l-4 4q-4 10 -8.5 22.5 t-10.5 22.5q0 2 -1 2t-1 2h-2q-2 -6 -9 -29.5t-11 -23.5h-25l-2 2q-4 20 -8 41q-4 16 -8 33.5t-6 29.5q0 6 -1 12.5t-1 14.5zM281 1352v6h340l335 -461q0 -2 2 -4t5 -2h4l342 467h346l340 -463q0 -4 4 -4h2l2 2l338 465h342l2 -2l-555 -684h-311l-332 465l-4 4h-2l-342 -469 h-336zM285 604h34v-59q0 -4 -5 -4h-7q-4 0 -8 8t-7 19.5t-5 21.5t-2 14zM326 600v2q0 2 2 2h26v-61q0 -2 -6 -2q-10 0 -14 16q0 4 -3 21.5t-5 21.5zM383 449v155h80q2 -4 6 -6t6 -4t4 -2l4 -4v-45q-10 -6 -10 -15q0 -6 10 -12v-49l-20 -18h-80zM412 477h41v33l-7 6h-12h-10 q-2 0 -3 -1t-3 -1q-2 -2 -6 -2v-35zM412 545h41v33h-41v-33zM446 1442v135l7 4h98q8 0 8 -14v-6q0 -4 -4 -5h-72l-6 -32h49l6 -2v-25h-49l-4 -6l4 -27h70q4 0 5 -5t1 -7t-1 -6t-5 -4h-107zM510 465v106h6q4 0 6 1t4 1h2q2 -2 4 -2t5 -2v-88l8 -4h30v90l3 4h8q4 0 6 1t4 1 q10 0 10 -6v-112q0 -6 -6 -6q-4 0 -11 4t-11 8q-4 -4 -7.5 -7t-7.5 -5h-35l-4 2l-8 8q-4 2 -6 6zM573 1581h25q2 0 6 -1t4 -3l23 -43l2 -2h2q4 0 8 7t8 16.5t9.5 17.5t11.5 8h22q4 0 4 -6v-2l-47 -74v-57h-33v57l-2 4q-6 8 -20 32t-21 32q-2 8 -2 14zM631 449v120q0 6 5 5 t9 -1h8q2 0 4 -2v-122h-26zM631 594v8q0 18 16 19h6q2 0 4 -3v-28h-24zM657 360v7v4q0 6 2 6h1641q6 0 6 -8q0 -4 -2 -9q-53 -78 -123 -134t-150.5 -98t-168.5 -68.5t-176 -43.5q-8 -2 -27 -4t-37 -5t-34.5 -5t-22.5 -2h-189q-2 0 -16 2t-32.5 5t-37 5t-28.5 4 q-178 27 -338 112t-267 232zM657 1675v4q0 8 2 15q70 94 163 161.5t199.5 110.5t220.5 62.5t228 19.5q197 0 388 -55q25 -8 50 -18.5t48 -20.5q92 -41 174 -96.5t147 -133.5q4 -4 16.5 -19t12.5 -26v-2l-4 -4h-1643q-2 0 -2 2zM686 356l2 -6q4 -4 11.5 -13t9.5 -11 q4 -4 13 -14.5t13 -14.5q2 -4 12.5 -13.5t22.5 -20.5t22.5 -21.5t16.5 -14.5q4 -4 12 -9t15 -5q4 0 22.5 12.5t18.5 14.5v2q-27 27 -48.5 57.5t-40.5 60.5l-2 5h-94q-2 -2 -4 -3q-2 0 -2 -2v-4zM686 449v155q0 6 10 10l13 4h2l2 -4v-165h-27zM686 1690q0 -2 2 -2h98l9 8 q2 4 14 23.5t14 23.5q2 2 10.5 11t17.5 20.5t16 19.5t10 12v6q-4 4 -16.5 10.5t-16.5 8.5l-4 4l-4 4h-2h-3q-2 0 -7 -6t-7 -6q-6 -4 -16 -13.5t-21.5 -19.5t-21.5 -20.5t-15 -14.5q-2 -2 -17 -19.5t-24 -23.5q-4 -6 -10 -14t-6 -12zM717 1442v135q0 4 8 4h10h8l7 -2v-109 l4 -6h65v-2q0 -2 1 -2t1 -2v-6v-8q0 -2 -2 -2h-102zM741 467v84q0 10 9.5 16t17.5 6h2q6 0 19.5 -3t19.5 -3v37q0 6 10 10t15 4q4 0 4 -6v-161q0 -2 -7 -2q-6 0 -10 4t-12 4t-14 -8h-35zM743 1350v6h445l-225 -338zM772 477h37v68h-37v-68zM817 356q0 -2 1 -3t1 -3l2 -4 q6 -6 17.5 -23.5t13.5 -21.5q2 -2 16.5 -19.5t24.5 -25.5q4 -10 10 -10h2q6 2 17.5 6t23.5 7t22.5 6t14.5 3q4 4 15.5 5t11.5 8v4q-10 18 -20.5 38.5t-22.5 36.5q-8 0 -27.5 1t-42.5 1t-44.5 1.5t-29.5 1.5h-2q-4 -4 -4 -5v-4zM817 1690q0 -2 2 -2h144l8 6q8 18 18 35.5 t21 33.5v4q0 8 -14.5 10.5t-16.5 2.5q-10 2 -39 10t-37 12h-2l-24 -24q-2 -4 -10.5 -14.5t-12.5 -14.5t-17.5 -25.5t-17.5 -25.5zM831 1442v10l43 115q2 14 19 14q12 0 18 -8t8.5 -17.5t6.5 -17.5q2 -4 6 -17.5t9 -27.5t10 -26.5t5 -14.5l2 -6v-2q0 -2 -2 -2h-24l-2 2 q-4 2 -7 12t-3 14q-2 0 -2 1.5t-5 1.5l-4 2h-32q-10 0 -10.5 -16.5t-10.5 -16.5h-25zM852 195q6 0 10 -9q57 -35 114.5 -63.5t123.5 -50.5q6 -2 14 -2q10 0 10 2q0 6 -9 7t-13 5q-10 6 -36 18.5t-30 16.5q-82 39 -137 100q-2 0 -3 1t-3 1q-8 0 -24.5 -9t-16.5 -15v-2z M852 1847q6 -4 18.5 -12t24.5 -8h2q2 2 10 9t13 9q4 2 15 11.5t22.5 18.5t22.5 17.5t15 10.5q4 4 19.5 13t19.5 11q23 14 45.5 22.5t44.5 22.5v2q0 4 -10 4q-16 0 -31.5 -7t-31.5 -13q-102 -39 -195 -100l-4 -7v-2v-2zM868 449v122l4 2h7q4 0 10 -1t6 -5v-118h-27zM868 590 v28q0 1 4 3q2 0 8.5 -1.5t12.5 -1.5q2 -6 2 -16v-7t-2 -5h-25zM881 1501l2 -2h20q0 16 -6 33q-2 0 -2 -4q0 -2 -2 -2q-8 -8 -10 -15q-2 -6 -2 -10zM918 231q0 -4 6 -10q4 -4 13 -12t13 -8q90 -72 197 -117q6 4 15 7t16 9l-2 2q-4 2 -18.5 14.5t-18.5 14.5q-33 29 -58.5 59.5 t-50.5 63.5q-6 6 -12 6q-23 0 -50.5 -9t-47.5 -15zM918 1819l2 -2l2 -2q0 -2 2 -3l8 -4q4 -2 6 -2q6 0 17.5 -3t23.5 -6t23.5 -6t15.5 -3h2q10 10 19.5 22.5t17.5 20.5q18 27 41.5 48.5t48.5 43.5q8 6 16 12.5t15 12.5q-4 4 -15.5 10t-17.5 6h-2q-6 -2 -16.5 -7t-21.5 -11.5 t-21.5 -11.5t-12.5 -7q-8 -2 -21.5 -10t-17.5 -10q-10 -6 -25.5 -16.5t-29.5 -20.5t-25.5 -18.5t-13.5 -10.5l-18 -22h-2zM920 449v120l2 2h2q8 0 11 -3t11 -3q6 0 12.5 4t20.5 4q4 0 9 1t9 -3q6 -6 11 -8l6 -6v-108h-31v96h-37v-96h-26zM977 1442v135q0 4 4 4h6q16 0 23 -8 l37 -57l8 -9v70q0 4 8 4h10h6l4 -2h2v-137h-26l-47 71l-2 -8v-59l-6 -4h-27zM995 356q0 -6 5.5 -18t13.5 -24.5t14 -22.5t10 -10h4l177 20q2 0 6 8v4q-2 4 -4 17.5t-7 17.5q0 4 -3 10.5t-7 6.5h-203q-6 -1 -6 -9zM995 1688h211q4 0 6 5t2 7q4 4 6.5 18.5t4.5 20.5v2 q0 4 -7.5 5t-9.5 1l-161 18l-5 2q-6 0 -14 -11t-15 -24.5t-12.5 -26.5t-5.5 -17zM1042 436h70v31q-10 0 -14 -3t-19 -3h-16l-4 2l-17 16v72q0 2 1 4t1 6q4 2 8.5 6t6.5 4h41q2 0 5 -3t7 -3q8 0 12 3t11 3q8 0 8 -2v-139q0 -6 -8.5 -15t-14.5 -9h-57q-6 0 -13.5 10t-7.5 20z M1051 264q0 -10 20.5 -35.5t47 -51t51 -46t32.5 -20.5h4q10 2 37 8t37 10q4 0 8 6q-18 35 -31.5 74t-27.5 78h-15l-163 -21v-2zM1051 1788q0 -8 8 -8l166 -21q4 0 5 4t1 6t7 18.5t7 20.5q4 10 14.5 37t14.5 35q2 4 7 16.5t7 16.5v2l-4 4l-74 20h-6q-12 0 -36.5 -20.5 t-51 -47t-46 -51t-19.5 -32.5zM1073 492l4 -5l35 2v56h-39v-53zM1118 1442v135l2 2l4 2h76q4 0 16.5 -7t12.5 -15v-101q-4 -4 -10 -8l-13 -8h-88zM1145 55q14 -4 30.5 -8t32.5 -4v2l-8 4q-4 2 -8 2t-8 2q-14 10 -31 10q-8 0 -8 -4v-4zM1145 1985l4 -3q2 0 11 3.5t19.5 6.5 t19.5 7l9 4h-6q-2 0 -11 -2t-19.5 -4t-18.5 -4t-8 -4v-4zM1149 1466h47v90h-41l-6 -4v-86zM1178 74l2 -2l77 -23h11q0 4 -3 4t-8 2q-4 2 -13 7.5t-18 10.5t-17.5 10t-10.5 7q-2 -4 -11 -7t-9 -7v-2zM1178 1972q0 -12 20 -12l2 4l64 31v4h-13l-73 -25v-2zM1225 94 q4 -4 19.5 -12t19.5 -10q23 -10 55.5 -23.5t56.5 -13.5q0 6 -17.5 18.5t-21.5 18.5q-4 4 -17 21.5t-15 19.5q-4 4 -7 4q-6 0 -18 -3t-24.5 -7.5t-21.5 -7.5t-9 -5zM1225 1952q2 -4 12 -7t22.5 -6.5t23.5 -5.5t15 -2q6 0 6.5 1t4.5 12q4 4 11 13t7 11q4 2 15.5 14.5 t17.5 16.5q0 2 6 4t6 6h-10q-2 0 -18.5 -3t-24.5 -7q-6 -4 -26.5 -12.5t-30.5 -12.5t-21.5 -8t-15.5 -14zM1225 2007h6q0 2 -4 2t-2 -2zM1227 39q0 -2 2 -2t2 2h-4zM1229 449v155h82q2 -4 6 -6t5 -4t3 -2q2 -2 2 -4v-45q-2 -4 -4 -6t-2 -9q0 -4 3 -6t3 -6v-49l-18 -18h-80z M1237 348q0 -4 4 -20q2 -8 4 -15l6 -10h13h22q18 0 45 2t53 4q31 2 64 4l2 2v50h-207q-6 0 -6 -11v-6zM1237 1690q0 -2 2 -2h211v43l-2 4q0 2 -14.5 3t-35 2t-42 2t-35.5 1h-37h-35q-4 -2 -8 -24.5t-4 -24.5v-4zM1255 285q10 -35 18.5 -57.5t22.5 -55.5q4 -8 9.5 -21.5 t15.5 -13.5h4q8 0 25.5 2t37 3t37 3t25.5 5v143l-2 2h-35q-41 0 -74.5 -1t-81.5 -5l-2 -2v-2zM1255 1499v6v8l5 3h75q4 0 4 -5.5v-7.5v-4q0 -2 -2 -4h-80zM1255 1759l19 -2h18.5t39 -1l45 -2t36.5 -3h21h14l2 4v143l-2 3q-31 2 -65.5 7t-63.5 5q-6 0 -16.5 -21.5t-21.5 -48 t-18.5 -50.5t-7.5 -30v-4zM1260 477h38v39h-38v-39zM1260 545h38v33h-38v-33zM1260 672v6l75 113l2 4l138 211l6 6h2l2 -6l221 -332l-2 -2h-444zM1327 113q23 -29 54.5 -56.5t68.5 -27.5v100q-33 0 -55.5 -1t-55.5 -5q-6 -2 -9 -2t-3 -4v-4zM1327 1929q0 -2 4 -4 q6 0 18.5 -1t27 -2t27.5 -2t19 -1h15h10l2 2v98q0 2 -6 2q-31 0 -57.5 -24.5t-43.5 -44.5q-4 -2 -10 -7.5t-6 -15.5zM1356 465v92l6 6q4 4 6 5t4 3h4q2 0 2 1t2 1h2q8 0 28 -1t24 -1q14 -8 17 -15t3 -19q0 -16 -2 -21q-4 -4 -9 -11t-9 -7h-48q-4 0 -4 -6v-5v-7t4 -5h64 q2 0 2 -8v-2l-18 -16h-58h-4q-2 0 -2 2q-8 4 -10 8q-2 2 -4 6zM1356 1575v2q0 4 4 4h22q6 0 11.5 -8t9.5 -17.5t8 -16.5t10 -7h2q6 16 13.5 32.5t27.5 16.5h10.5t6.5 -4t-2 -10q-4 -8 -19.5 -31t-21.5 -33l-4 -6v-55h-31v57q-4 4 -16.5 24.5t-16.5 24.5q-4 6 -9 12.5 t-5 14.5zM1382 537q0 -12 4 -13h37q2 0 2 13v4q0 2 -2 4h-37q-4 0 -4 -4v-4zM1470 549v2q0 10 7.5 19.5t7.5 33.5q4 6 11 10t11 4q6 0 6 -6v-14v-15.5t7 -9.5q4 0 12 2.5t8 -8.5q0 -2 -1 -5t-1 -7v-8h-27v-72h27v-26h-35l-18 16v78q0 4 -7.5 4t-7.5 2zM1475 29q12 0 31.5 11 t39 25.5t33.5 30t14 25.5v2q-6 0 -28.5 3t-30.5 3h-29h-30v-100zM1475 150q6 -2 21 -3.5t33.5 -3.5t35 -3t22.5 -1h12h9q0 2 1 2t1 2q20 39 39 78q2 6 5 15.5t7 19.5l8 20v13q-47 4 -98 5t-96 1v-145zM1475 315l4 -2q33 -2 61 -4q25 -2 51.5 -4t44.5 -2h19h18q8 4 11.5 25.5 t3.5 27.5q0 8 -7 9h-206v-50zM1475 1688h208q2 0 3 6q0 23 -11 49h-28h-33q-8 0 -27.5 -1t-42 -2t-42 -2t-27.5 -3v-47zM1475 1755l4 -4h10h20q18 2 45 3t54 3q29 2 61 2l2 4q0 2 -6 16.5t-10 24.5q-8 27 -18.5 47.5t-22.5 42.5q-2 6 -10 15q-31 -4 -63 -5t-66 -3v-146z M1475 1919h47q2 0 12 1t20.5 1t20.5 1t12 1h2l4 2v2q-18 33 -53 58q-10 10 -26.5 22t-32.5 12h-6v-100zM1501 1458v119q0 4 4 4h6h11.5t9.5 -4v-111h47v111q0 4 7 4h9h9l4 -2h2v-123q-2 0 -4 -2l-4 -4l-7 -6q-2 -2 -6 -2h-67q-6 0 -13.5 6t-7.5 10zM1530 35q0 -4 4 -5t6 -1 h6q29 6 50.5 11t48.5 15q4 2 16 9.5t24.5 13.5t22.5 12t10 8v2q-23 8 -46 13.5t-46 5.5q-12 0 -27.5 -22.5t-27.5 -33.5q-21 -20 -41 -28zM1530 2019q6 -10 14 -14t17 -10q16 -16 30.5 -31.5t28.5 -34.5h10h17q6 2 33.5 8.5t37.5 8.5v2q-6 8 -15 13t-17 9q-2 2 -18.5 9.5 t-20.5 11.5q-2 0 -10.5 2t-12.5 6q-10 2 -25.5 6t-17.5 4q-2 4 -18.5 7t-24.5 5h-4zM1548 551q0 10 5.5 13t7.5 9q0 4 1 15.5t1 15.5q2 6 10 10t12 4q6 0 6 -6v-14t1 -15.5t7 -9.5q8 -2 14.5 -1t6.5 -9q0 -2 -1 -9t-5 -7h-25v-66q0 -4 6 -4q4 -2 10.5 -2h8.5v-26h-33l-20 16 v78q0 4 -6.5 3t-6.5 5zM1628 1563v6q0 4 1 8t5 4h119v-25h-41l-4 -2v-112h-33v112l-6 2h-39zM1630 137q2 0 2 -1t2 -1l97 -18h16q6 4 12 10q4 4 9.5 8t9.5 8q10 8 25.5 24.5t25.5 27.5q2 4 15.5 21t19.5 26q2 4 6 10t4 10v2l-2 2l-170 21h-4q-2 0 -4 -6q-16 -41 -29.5 -71 t-34.5 -71v-2zM1630 1909q4 -4 13.5 -23.5t11.5 -25.5q2 -2 8 -15.5t8 -17.5q0 -2 3 -12.5t7.5 -21.5t8.5 -20.5t6 -9.5h10q12 0 22.5 1t24.5 1q12 2 29.5 4.5t35 4.5t31 4t15.5 2l10 2v2q0 6 -2 8q-2 4 -10.5 15.5t-10.5 13.5q-4 6 -15 21.5t-13 17.5q-6 4 -27.5 24.5 t-30.5 30.5l-11 11t-17 7h-4q-4 -2 -13.5 -4t-21.5 -4t-23.5 -4t-17.5 -2q-2 0 -9.5 -2t-11.5 -2zM1634 475v72q0 8 7.5 15t11.5 9q6 4 18 3t15 -1h22q8 0 16.5 -6t8.5 -16v-33l-21 -20h-43q-4 0 -4 -5.5v-7.5v-6q0 -4 4 -4h62l2 -8l-21 -18h-59l-17 16q-2 2 -2 10z M1665 530q0 -6 4 -6h35v21h-35q-4 0 -4 -8v-7zM1671 35q2 -6 6 -6t9 6h-15zM1671 2019q2 -4 6 -5t6 -1v6h-12zM1673 51h13l90 27v2q0 8 -11.5 10t-15.5 2q-12 0 -21.5 -8t-19.5 -12q-2 -2 -16.5 -9.5t-16.5 -9.5zM1673 1995l33 -17q2 -4 15.5 -11t15.5 -9q8 -4 12 -4 q6 0 15.5 4t13.5 10q-4 2 -19.5 7t-33 10.5t-33 9.5t-19.5 4v-4zM1698 39q4 -2 8 -2h2q6 0 19.5 3t29 6t29.5 6t20 3q4 4 8.5 5t8.5 6q-4 4 -8.5 5t-8.5 1h-4q-10 -2 -31.5 -10.5t-31.5 -10.5q-4 -2 -22.5 -6t-18.5 -6zM1698 2007q8 0 24 -4q4 0 15.5 -4t25 -9t24.5 -9.5 t17 -6.5h2q2 0 10.5 2t8.5 6h-2l-13 9l-92 18h-20v-2zM1702 309q0 -8 2 -8l168 -16h6q4 0 7 -1t5 5q4 6 14.5 28.5t14.5 28.5q2 4 2 10q0 8 -6 9h-197q-2 0 -6 -5q-10 -24 -10 -51zM1702 1739q2 -16 4 -27q2 -10 5 -17t7 -7h203q0 8 -2 12l-18 37q-6 10 -11 22l-2 4h-30 l-154 -16q-2 0 -2 -8zM1739 1446v4q4 0 5 2t3 2q8 31 19.5 60.5t21.5 58.5q6 8 18 8h9.5t7.5 -2l49 -133v-2q0 -2 -2 -2h-25q-10 0 -11 16.5t-9 16.5h-39q-8 0 -8 -16.5t-9 -16.5h-22q-8 0 -8 4zM1757 567q0 4 8 4q6 0 10.5 -3t10.5 -3q8 0 14 4t12 4q10 0 17.5 -3t7.5 -13 v-6q0 -2 -2 -4h-45l-2 -4v-94h-29zM1765 104l4 -2q4 -2 17.5 -5t17.5 -3h2h2q6 0 15 4q18 10 38.5 19.5t39.5 21.5q8 4 22 14.5t16 10.5q4 2 14.5 10t22 17.5t20.5 16.5t13 9q2 2 7 6t7 8v5q0 4 -8 4l-104 22h-4q-8 0 -11 -6q-4 -10 -22.5 -34.5t-24.5 -31.5q0 -2 -8 -10 t-18.5 -19t-21.5 -21.5t-17 -16.5q-4 -2 -9.5 -6t-9.5 -6v-7zM1765 1942l4 -5q4 -4 5 -4q0 -2 8 -8t12 -10l21.5 -21.5t19.5 -21.5q16 -16 29.5 -35.5t29.5 -38.5q4 -8 5.5 -9t9.5 -1q23 0 51.5 7t50.5 11q4 0 8 2t4 9v2q-43 41 -94 71.5t-104 57.5q-10 4 -12.5 4h-6.5 q-10 0 -20 -2t-21 -6v-2zM1776 1356h448l-223 -336h-2q0 4 -1 4t-1 2zM1796 1497h11.5t7.5 6v2q0 6 -3.5 14.5t-3.5 12.5h-2q-8 0 -9 -15.5t-1 -19.5zM1835 78q8 -2 11 -3t7 -1h5q4 2 18 6t18 4q59 23 116.5 51.5t109.5 65.5l2 2q-2 4 -11.5 8t-20.5 8t-21.5 6t-14.5 2 q-2 0 -4 -2q-55 -41 -103.5 -74.5t-109.5 -60.5q-2 -4 -2 -10v-2zM1835 1964q59 -31 109.5 -64.5t101.5 -74.5q4 -4 10 -4h4q8 2 24.5 6t22.5 6q2 2 3 4t6 4q2 2 6 2v2l-15 10q-6 4 -14 8.5t-12 8.5q-20 14 -42 26.5t-42 22.5q-4 0 -15.5 5t-23.5 10.5t-24.5 10.5t-14.5 5 q-14 6 -31.5 14t-34.5 8q-4 0 -11 -2t-7 -6v-2zM1888 1442v135q0 2 5 3t8 1q12 0 20 -8l41 -68l8 11v61q0 4 4 4h6h9q2 0 3 -1t3 -1h4v-137h-27q-4 0 -10 11t-13 24.5t-15.5 24.5t-14.5 11v-71h-31zM1907 604h26l4 -2q0 -6 4.5 -29.5t6.5 -29.5v-8.5t4 -6.5q2 6 5 22.5 t3 20.5q4 10 5 15.5t11 5.5q6 0 11 -12q2 -4 6 -20.5t6 -20.5h2q6 0 6 6q2 6 4 28.5t2 28.5l2 2h25v-18q0 -2 -2 -16.5t-4 -34t-5.5 -40t-5.5 -32.5q0 -2 -1 -3t-1 -3v-6q-2 -2 -6 -2h-16q-4 0 -6 6t-4 8q0 4 -4.5 21.5t-6.5 21.5q-6 0 -6 -8l-14 -43l-4 -6h-21l-2 2l-2 6z M1913 276l123 -28h4q4 0 14 13t19 20q4 4 13 15t19.5 23.5t18.5 23.5t8 17q-4 4 -4 5h-176q-2 0 -8.5 -11.5t-13.5 -27t-12 -28.5t-5 -19v-3zM1913 1763l6 -12q2 -4 11 -27.5t16 -27.5l6 -8h180q0 6 -8 12q-8 10 -22.5 30.5t-18.5 24.5q-2 2 -11.5 12.5t-13.5 14.5 q-2 4 -6 9t-6 7h-8h-6l-117 -26q-2 -2 -2 -7v-2zM2030 1442v135l4 4h6h14l4 -2v-137h-28zM2058 467v84q0 8 10.5 15t14.5 7h51q4 0 14.5 -7t10.5 -15v-84l-21 -18h-59zM2066 244q4 -4 11 -4q4 -2 6 -2q6 -2 26.5 -9.5t24.5 -9.5h4q10 0 15.5 5t11.5 14q29 27 60.5 54 t51.5 62v2q0 8 -2 9h-110l-6 -5q-20 -31 -45 -60t-48 -56zM2066 1802q27 -27 47.5 -54.5t40.5 -53.5q2 -6 7 -6h116q0 6 -18 29.5t-43 48t-47.5 44t-30.5 19.5q-4 0 -14 -4t-22.5 -8.5t-23 -8.5t-12.5 -6zM2089 479l6 -2h14h13h4q2 0 2 2v66h-39v-66zM2161 1456v107 q0 4 10 10t14 8h27h14t20.5 -3t17.5 -8t7 -14h-71l-5 -2v-90h68q-2 0 8 -6q0 -4 -10 -10t-14 -6h-68q-2 0 -4 2q-4 4 -4 6q-4 0 -8 4zM2181 567q0 4 8 4t12.5 -3t12.5 -3q6 0 12 4t15 4q25 0 24 -26h-45l-6 -4v-94h-29zM2281 449v155q0 6 9.5 10t13.5 4q6 0 6 -4v-165h-29z M2288 1458v101q0 8 12 15t16 7h60q2 0 5 -2t5 -2q4 -2 10 -8q2 -4 4 -6v-107l-6 -6l-12 -8h-70h-4q-2 0 -2 2q-2 2 -4 5t-6 5zM2324 1466h41v90h-34l-7 -4v-86zM2337 467v90q0 4 7 8t11 6h10q4 0 8.5 1t8.5 1q10 0 16 -6h2l2 2v2v31q0 8 11.5 12t15.5 4q6 0 6 -12v-151 q0 -8 -8 -9q-12 0 -21 15q-4 -4 -8 -7t-10 -5h-31q-4 0 -12 7t-8 11zM2365 477h33l4 4v64h-37v-68zM2429 1442v135l8 4h74q10 0 19.5 -7t9.5 -11v-50l-15 -16v-10l21 -37v-8h-35l-23 41q-4 10 -6 11t-6 1h-8q-4 -2 -4 -12v-37l-2 -4h-33zM2458 520v31q0 2 8 9t12 11l4 2h2 q6 0 13.5 -1t15.5 -1h18l19 -14v-8h-53q-8 0 -9.5 -5t-1.5 -7q0 -8 2 -9l9 -4h34l19 -18v-39q0 -4 -7.5 -11t-13.5 -7h-51l-16 16v10h57l2 4q0 2 -1 9.5t-1 9.5h-39zM2462 1534q0 -4 2 -6q0 -2 2 -4q0 -2 2 -2h39v34h-37l-6 -4q-2 -2 -2 -4v-6v-8zM2568 1442v139h84 q6 0 17.5 -7t11.5 -15v-43q-2 -2 -2 -5q0 -2 -2 -4q-6 -6 -11 -8q-4 -2 -6 -4h-55l-4 -4v-49h-33zM2578 543v61h29v-10l-12 -51q0 -4 -4 -3t-6 1h-5q-2 0 -2 2zM2603 1522h41l2 4v6q0 4 1 6t1 4q-2 0 -2 2v4v4l-6 4h-37v-34zM2619 543v61h31l-14 -59q-4 -4 -10 -4h-5 q-2 0 -2 2z" />
<glyph unicode="&#xa4;" horiz-adv-x="3350" d="M102 1722v4v7v2q6 0 10.5 1t10.5 1q8 0 14 -19q4 -2 10.5 -19.5t10.5 -23.5q2 -4 5 -16t9 -12t13.5 20.5t11.5 28.5q2 0 4 5t5 13t7 14.5t10 8.5q8 0 13.5 -6.5t5.5 -12.5q4 -6 15 -32.5t15 -34.5q0 -4 2 -4q6 0 11.5 11t11.5 24.5t10 26.5t6 17q2 0 3 -1t3 -1v11h11.5 t9.5 2h4q6 0 6 -4h-2q-10 -25 -19.5 -49.5t-21.5 -49.5q0 -2 -6 -13t-8 -13q-2 -4 -4 -10.5t-10 -6.5h-13l2 2q0 4 -6 9.5t-6 7.5q0 4 -2 10q-4 10 -6 8l-2 4v2h2q-6 4 -5 6t1 9q-4 0 -4 8h-2l-5.5 11t-9.5 7t-11 -13t-10 -28.5t-12.5 -29t-17.5 -13.5t-14 13l-2 2 q-6 4 -6 20l-5 -2q-2 0 -2 8v2q0 2 -2 4q-4 4 -4 7q-2 6 -6 22q-2 2 -4 1t-2 1v6q0 4 -6 11v10l-4 4q-2 2 -2 7t-2 9h-2v4q0 4 -5 0q-2 0 -2 2zM104 1294v2l2 4l-2 9v16v12q2 2 2 4q0 4 -1 5.5t-1 5.5t1 7t1 7l-2 4v2v2l2 15l-2 8v22v13h5l-3 2q0 2 3 2l4 2h2h354l502 -508 q14 -16 30 -17q10 0 17 5l520 520h272l502 -520q2 0 7 -2.5t10 -2.5q4 0 10 2.5t10 4.5l508 518h102h144h90h16v-11v-24v-37v-45q-2 -10 -2 -20.5t-6 -18.5l-750 -752q-16 -2 -30 -2h-49q-45 0 -87 -1t-90 -1q-12 0 -14 6l-489 498q-10 14 -25 14q-8 0 -20 -12l-512 -506 h-17h-104h-22.5t-41 -1t-42 -1h-25.5q-2 0 -4 1t-7 1h-6h-4l-121 121l-2 2l-31.5 31.5t-33.5 32.5q-6 6 -9 8t-10 12l-196 195v4q-10 10 -22.5 21.5t-22.5 23.5q-4 4 -6 5t-5 5l-57 55l-4 5l-231 233q-6 6 -7 14zM106 1423h3v2l-3 5v-7zM106.5 1413q-0.5 -2 2.5 -2q2 0 2 2 t-2 2t-2.5 -2zM152 1604q0 2 2 2t2 -2t-2 -2t-2 2zM152 1671q0 -2 2 -2t2 2t-2 2t-2 -2zM258 1597q0 2 2 2t2 -2t-2 -2t-2 2zM360 1620v4q0 4 2 6q-2 0 -2 2h2l-2 2v49h2q0 4 -1 6.5t-1 6.5q0 16 11.5 27.5t27.5 11.5h109v-23q0 -6 -4 -6h-2h-94q-2 0 -10.5 -1t-8.5 -5v-21 l4 -4h113l2 -2v-22v-2h-2h-105q-2 0 -5 -1t-5 -1l-2 -2v-17l2 -2q4 -4 10 -4h20.5t30 -1t30 -1h20.5t6 -2v-25l-2 -2h-4q-4 0 -6 1t-7 1q-2 -2 -4 -2h-82l-14 2h4q-10 -2 -16 7.5t-10 13.5l-5 4zM365 1633q0 -1 2 -1v2q-2 0 -2 -1zM377 313v11v4q0 2 2 2h35v-23 q0 -4 -6.5 -3t-6.5 -3q0 -8 4.5 -14t4.5 -15q-14 0 -23.5 13.5t-9.5 27.5zM406 1669q2 0 2 2t-2 2v-4zM440 301v29h33v-23h-2q0 -2 -8 -2v-4q2 -4 4 -10t4 -8v-4v-3q0 -2 -2 -2h-4h-2q-4 0 -7 5.5t-5 9.5q-2 2 -3.5 4t-3.5 4zM518 205v125h2h15q6 0 13 1t11 1h10q18 0 39 -5 t21 -28q0 -16 -17 -29h2q10 -8 13.5 -13t3.5 -17q0 -16 -10.5 -25.5t-26.5 -11.5q-8 0 -35 -1t-35 -1h-2l-2 2q-2 0 -2 2zM524 1733l2 2q10 0 15.5 1t11.5 1q8 0 12 -4l51 -52q4 0 7 2q4 0 10 8.5t10 8.5q4 8 14.5 21.5t16.5 13.5h37l2 -2l-4 -4q-18 -18 -37 -38t-35 -36 l-6 -6v-52q0 -6 -5 -6h-10h-8q-4 4 -8 4q0 12 1 24.5t1 22.5v9q-2 4 -4 5t-4 5l-9 9t-10 9l-4 4q-2 2 -12 13.5t-14 13.5q-8 6 -17 23h-4zM553 223h29q12 0 12 21v6q-6 8 -13.5 9t-17.5 1q-2 -2 -4 -2h-4l-2 -2v-33zM553 283l2 -2h10q10 0 18.5 2t8.5 14t-8.5 14t-16.5 2 h-10l-4 -2v-28zM602 1648q0 -1 2 -1t2 1t-2 1t-2 -1zM666 231v60q0 6 6 6q4 0 13 -1t13 -1v-8v-56q0 -8 11 -8q12 0 20 10q0 4 1 14.5t1 14.5v12v21h4h25h2v-21v-32v-22.5t-2 -14.5l-2 -2h-21q-4 0 -5 5t-1 7q-4 0 -13 -7t-20 -7q-33 0 -32 30zM735 1718v2q0 4 2 4l2 2v3 l-2 2v2l2 2h11.5t11.5 2h2v-2q4 -4 4 -13v-90q0 -6 10 -8t15 -2h69q2 0 6 -1t4 -5v-25h-79q-12 0 -27.5 5.5t-22.5 15.5q0 8 -2 8q-4 16 -4 34.5t2 33.5q-2 0 -2 2v4q0 4 1 5t1 5q-2 6 -3 8t-1 6zM737 1717q0 -1 2 -1v2q-2 0 -2 -1zM739 1715q0 -1 2 -1v2q-2 0 -2 -1z M739 1732q0 -1 2 -1v2q-2 0 -2 -1zM748 1610q2 0 2 1t-2 1v-2zM780 1321v4v113h355l104 -109v-4l-235 -231l-209 209q0 4 -7 10q0 2 -3 4t-5 4zM795 205v16v15v59q4 2 11 1t11 -1h10h2v-84q0 -8 -6 -8h-10t-10 -1t-8 3zM795 313v17l2 2h8q4 0 8 1t8 1h2q0 -2 2 -2h4v-6v-9 q0 -2 -2 -4h-32zM860 207v123l4 2h29v-121q0 -8 -6 -8h-8h-10.5t-8.5 4zM887 1591q0 4 2 7.5t4 7.5l47 75q6 2 10 11.5t9.5 19.5t11.5 17.5t14 7.5t12 -4l84 -136q2 0 2 -4q0 -2 -2 -2h-32q-2 0 -2 2t-1.5 2t-1.5 2q-4 4 -9 16.5t-9 16.5q-16 2 -27.5 2h-25.5h-27 q-6 -2 -8 -10q-4 -2 -8 -12.5t-8 -14.5l-2 -2q0 -2 -2 -2h-31zM922 246q0 23 4 38t30 15q12 0 27 -10h2v41l6 2h27v-119l-2 -8q-2 -2 -4 -2h-6q-2 0 -7.5 1t-7.5 1t-3 4t-1 6h-2q-4 0 -11 -6t-18 -6q-23 0 -28.5 10t-5.5 33zM956 231q0 -2 2 -4t5 -2h4q2 0 10 1t8 5v41 q0 6 -8 7.5t-12 1.5q-8 0 -9 -9v-41zM965 1665q0 -4 4 -4h30l5 4q0 4 -7.5 15.5t-13.5 11.5q-4 0 -11 -11.5t-7 -15.5zM1053 207v4v4v49q0 14 2 31h2h30v-90h-32q-2 0 -2 2zM1054 320.5q1 3.5 1 5.5v4q0 4 4 4h12q10 0 16 -2l3 -2l-3 -15l-2 -2h-6q-16 0 -24 2q-2 2 -1 5.5z M1100 1593v17v16v90q4 20 16 21q4 0 7 -2t7 -2l78 -80l11 -6v-2q6 0 6 4v80l2 4l2 2h6t6 2h2q12 0 14 -4v-25v-25q0 -10 -1 -38.5t-1 -38.5q-2 -14 -18 -15h-2q-2 0 -6 2t-6 2l-84 84q0 2 -4 2t-5 -4v-75q0 -8 -4 -11h-20q-6 0 -6 2zM1118 205v12v19q0 2 1 10t1 17v16.5v9.5 v2l2 4h27l2 -4q-2 0 -2 -2v-4q8 0 17.5 7t21.5 7q10 0 18 -4t8 -14v-74l-2 -2h-26l-2 2v24q0 4 -1 12.5t-1 14.5v14l-4 4h-4q-6 0 -12.5 -2t-8.5 -10q-2 -6 -2 -24.5v-24.5q0 -2 -1 -3t-1 -3v-4h-29h-2zM1247 225v51q0 12 11.5 18.5t21.5 6.5q12 0 29 -12q4 0 3 4t3 4h24 v-86q0 -23 -17 -30t-34 -7q-25 0 -37 10q4 12 17 13q4 0 5 -2t5 -5h8q6 0 13.5 1.5t7.5 7.5v18h-2q-4 -2 -9.5 -5t-9.5 -3h-8q-18 0 -29 12q0 2 -2 4zM1278 254q0 -8 2 -16.5t14 -8.5q6 0 13 7q2 10 2 26v8q-6 6 -17 6q-10 0 -12 -7t-2 -15zM1282 1593v125q0 4 1 8.5t1 6.5 l2 2h115q10 0 23.5 -8.5t13.5 -20.5v-74q0 -16 -12.5 -28.5t-26.5 -12.5h-113zM1313 1632q0 -2 1 -2t1 -2v-4l2 -2h80q2 0 7 3t5 7v68q0 4 -5 4h-7t-4 1t-4 1h-7h-30h-29q-6 0 -8 -4q-2 -14 -2 -23.5v-25.5v-21zM1446 205v37v43.5t2 44.5v2h4q2 0 4 2h29q20 0 47 -3t27 -30 q0 -12 -5.5 -15t-11.5 -14q2 -2 4 -3t4 -3q12 -12 13 -20q0 -18 -12.5 -29.5t-30.5 -11.5h-72h-2zM1456 532v25v23q2 8 2 34.5v32.5q4 8 8 12l201 197l201 -203q4 -4 4 -8v-8v-2v-20.5t-1 -30t-2 -29.5t-1 -20q0 -8 -4 -9h-404zM1464 1634v13v11t6 7l50 -2v-27l-2 -2h-13 h-41zM1483 227l2 -2h10q8 0 19.5 2t11.5 17q0 12 -10.5 15t-22.5 3h-6t-4 -4v-31zM1483 289q0 -4 4 -6h12q8 0 15.5 2t7.5 12q0 16 -13 16h-24q-2 -2 -2 -4v-4v-10v-6zM1497 1726v3q0 4 4 4h31l53 -56h6q2 4 8 11q4 4 8.5 7t8.5 7q0 2 6 8l8 8t5 7.5t7 5.5h33v-11l-73 -73 v-56q0 -4 -7.5 -4h-11.5h-8q-6 0 -6 4q0 6 1 24.5t1 22.5v2q0 6 -2 9.5t-6 7.5q-10 8 -34 34.5t-32 34.5zM1591 233v15q0 25 7.5 39t35.5 14q25 0 33 -10t8 -35v-8l-2 -2h-51q-2 0 -2 -4v-2q0 -14 12 -19h10q8 0 14.5 2t16.5 2q2 0 2 -4v-6q0 -6 -4 -8q-10 -2 -31 -2 q-16 0 -26.5 2t-20.5 14q0 4 -1 7t-1 5zM1620 262h27l2 2v4q-1 19 -15 19q-10 0 -12 -8.5t-2 -16.5zM1698 281v16h14l2 4q4 8 2 16.5t2 12.5v2h27q2 0 2 -13.5t2 -17.5q6 -4 11 -2t9 -2v-6q0 -6 -2 -8q-2 0 -7 -1t-7 -1q-6 0 -6 -5v-45q0 -6 8 -6q2 0 6 -1t6 -1l2 -2v-12 q0 -4 -4 -4h-6h-8q-8 0 -22.5 3t-14.5 15v58h-16zM1700 1683v23v18q2 6 8 7.5t10 1.5q6 0 11 -2q2 -27 1 -52.5t3 -50.5q6 -8 16 -8h61q14 0 15 12v90q0 4 2 7l2 2h24v-107q0 -16 -12 -24.5t-26 -10.5q-4 0 -21.5 -1t-21.5 -1h-9q-18 0 -37.5 6t-23.5 31q0 6 -1 29.5 t-1 29.5zM1788 285v4q0 10 14 12q0 4 1 11t1 12v6l2 2h29l2 -2v-21v-6q0 -2 2 -4h14l7 -4v-10l-5 -2q-2 0 -8 -1t-8 -1h-2v-50q0 -6 11.5 -5t11.5 -3v-14l-7 -4h-10q-16 0 -22 2t-17 14v60q0 2 -7 1t-9 3zM1886 248q0 29 7.5 42t35.5 13q41 0 41 -41v-12v-2q-10 -2 -18 -2 h-29h-8v-4q0 -18 12 -21h10h14.5t14.5 4l2 -2q0 -2 1 -5t1 -5q0 -6 -7 -7t-9 -1h-19h-16q-23 4 -28 14.5t-5 28.5zM1890 1704v22l4 5h140v-27l-4 -4h-45q-8 0 -9 -6v-78v-15.5t-2 -9.5l-2 -4h-26v113h-2h-7h-41l-4 2q0 2 -2 2zM1915 264q2 -2 4 -2h4q4 0 10 1t9 1v4 q0 18 -13 19q-14 0 -14 -19v-4zM2001 211v20v29v23q0 8 2 14v2h29v-14h2q4 4 12 11t18 7l2 -2v-27l-2 -2q-2 0 -9 -2t-9 -2q-2 -2 -6 -2q-2 0 -4 -2l-2 -2q0 -6 -1 -21.5t-1 -21.5q0 -8 -2 -10l-2 -2h-25zM2019 1587q0 4 2 6l78 123q0 4 6 10.5t13 6.5q12 0 16 -11 q4 -4 16.5 -25.5t16.5 -27.5q10 -16 19 -31.5t20 -31.5q0 -4 4 -9q2 -4 4 -6v-2q-2 -2 -6 -2h-10h-7q-10 0 -14 6t-7 13.5t-8 13.5t-14 6h-65l-8 -2q-2 -4 -7.5 -13t-7.5 -14q-4 -4 -6 -7t-6 -3h-29zM2099 1661q0 -6 2 -6h33v6q0 4 -6 14.5t-10 10.5q-6 0 -12.5 -10.5 t-6.5 -14.5zM2103 1325q0 4 2 6l107 107h346v-6v-11v-14v-82l-2 -2l-215 -217l-10 -10h-2l-2 2l-211 215zM2130 334l4 2h8q4 0 6 1t6 1l5 -2h4l20 -82l2 -2l2 4v4q4 8 8.5 20.5t8.5 24.5q6 14 10 29v2l29 2q2 0 2 -2l2 -2v-2l20 -76l2 -4h2l27 86h26l3 -4v-2v-2l-37 -117 q0 -6 -9 -6h-20q-2 0 -4 2l-2 2l-27 80h-2q-2 -2 -2 -6q-2 -4 -2 -13l-2 -6q-4 -6 -10 -26.5t-8 -24.5q0 -2 -1 -2t-1 -2q-2 -2 -2 -4h-31zM2238 1589v8v62t5 59q4 14 16 15q6 0 8 -2l88 -86q2 -2 6 -3h2l2 3v81l5 5h24l2 -2v-13v-60.5t-2 -58.5q0 -10 -16 -10q-8 0 -13 4 l-84 82q0 2 -4 2q-6 0 -4 -2q0 -8 -2 -36.5t-2 -37.5v-7t-4 -5h-24zM2339 237.5v12.5q0 29 9 42t38 13q45 0 45 -45q0 -14 -2 -28.5t-19 -20.5q-2 -2 -6 -2q-2 0 -4 -2h-33l-12 4l-12 14q-4 4 -4 12.5zM2372 236q0 -4 6 -7.5t10 -3.5q2 0 10 8q2 10 2 12.5v12.5t-2 19.5 t-12 9.5q-14 0 -14 -13v-38zM2427 1589v4q0 8 1 25.5t1 37t1 37t1 23.5q0 8 2 13l2 2h25l2 -5v-6q0 -31 -1 -64.5t-3 -62.5q0 -6 -4 -6h-25zM2460 209v4v2q0 10 1 40t1 40q2 2 2 4t2 4h8q10 0 18 -2v-2v-12q6 4 13.5 11t17.5 7h2l2 -2v-27q0 -4 -16.5 -5t-18.5 -7l-2 -55 h-30zM2546 1632l2 64q2 14 12 24.5t25 10.5l100 2q4 0 5 -6.5t1 -10.5v-6q0 -2 -1 -3t-1 -3v-2l-10 -2q-8 2 -37 2t-37 -2h-18q-6 0 -7.5 -6t-1.5 -11q-2 -10 -2 -18v-31v-2q0 -8 6.5 -11t12.5 -3h2h12t21.5 1t21.5 1h14h9h7t5 -4v-25q0 -4 -4 -4h-84q-23 0 -38 10.5 t-15 34.5zM2554 209v24v23q0 10 1 39t1 37q2 4 9 4h11h7l2 -2v-117l-2 -10q-2 -2 -5 -2h-6h-8q-8 0 -10 4zM2611 246q0 20 3 40.5t28 20.5q12 0 16 -2t8.5 -6t8.5 -4q2 2 2 9v9v15q0 2 1 5t1 5l2 2h26v-2q0 -2 1.5 -9t1.5 -12q0 -4 -1.5 -16t-1.5 -14v-56v-11t-2 -9h-26 q-4 0 -2 5t-2 5q-10 -6 -15.5 -9t-17.5 -3q-23 0 -27 10.5t-4 26.5zM2646 240q0 -6 4 -7.5t8 -1.5q12 0 15 5q4 8 3 13t-1 13v17q0 4 -7.5 6t-11.5 2q-10 0 -10 -13v-34zM2726 1612v4v70q0 29 19.5 38t41.5 9h2q6 0 23.5 -1t21.5 -1q39 -6 39 -45v-30t-2 -30 q-4 -33 -32.5 -36t-53.5 -3q-14 0 -30.5 3t-26.5 16q-2 0 -2 6zM2738 217q0 4 5 11.5t10 7.5q4 0 10 -4.5t10 -4.5q12 0 12 6q0 4 -7 7.5t-16 7.5t-16.5 10t-7.5 16q0 16 12.5 24.5t28.5 8.5q6 0 17.5 -1t15.5 -11q-2 -2 -5 -6t-7 -4q-6 0 -11.5 2t-9.5 2q-10 0 -10 -8 q0 -6 7 -8.5t16.5 -5.5t16.5 -9t7 -18q0 -18 -15.5 -24.5t-31.5 -6.5h-10q-4 0 -12.5 3t-8.5 5zM2755 1628q0 -4 4 -6t8 -2h63q4 0 8.5 3t4.5 9q0 2 1 16.5t1 18.5v6q0 10 -2 21q-6 10 -23 9t-27 -1t-24 -1t-14 -18v-55zM2845 326v4v6q0 2 2 4h30l2 -2v-8v-12.5t-4 -10.5 q-2 -4 -7 -11t-7 -7q-4 -6 -10 -6l-4 2l4 12t2 14v2q-8 0 -8 13zM2902 315v11v8l2 4v2h31l4 -6v-6q0 -12 -2 -19q-2 -4 -7 -12t-10 -10q0 -2 -2 -4h-12q0 8 5 13t5 15q0 4 -6 2t-8 2zM2908 1589v43v64v18q0 6 2 12l4 5h105q43 0 43 -45q0 -16 -9.5 -30t-29.5 -18 q-2 0 -9.5 -1t-9.5 -1q-8 0 -8 -4q2 -6 19.5 -14t21.5 -12q4 -2 12.5 -8.5t12.5 -6.5v-2l-2 -2h-49q-2 0 -5 2q-2 0 -4 2q-4 4 -24.5 18.5t-26.5 18.5q-4 2 -4 3t-4 1t-4 -6q-2 -4 -2 -16.5v-16.5q-2 -6 -6 -6h-13h-8zM2939 1675q0 -4 4 -6q10 -2 16.5 -2h14.5q10 0 22.5 1 t24.5 1h2q2 0 2 1t2 1l4 2v23q0 2 -5 3t-7 1h-37h-6q-4 0 -6 1t-4 1t-9.5 -1t-9.5 -1q-6 0 -7 -6t-1 -11v-8zM3097 1587v2v23v35v71q0 2 1 7.5t3 5.5h108q10 0 24.5 -8.5t14.5 -20.5v-33q0 -20 -18.5 -27.5t-34.5 -7.5h-64q-2 0 -2 -1t-2 -1q0 -4 -1 -18.5t-1 -20.5v-2 q0 -2 -2 -2l-2 -2h-24zM3127 1677q0 -4 1 -6t1 -4q12 -2 23.5 -2h23.5q2 0 10.5 1t12.5 1t12 1t8 5v19q0 2 -8 6q-4 2 -6 2h-59h-2q-4 0 -9.5 1t-5.5 -3t-1 -10.5t-1 -8.5v-2z" />
<glyph unicode="&#xa5;" />
<glyph unicode="&#xa6;" horiz-adv-x="6774" d="M104 1323q0 10 1 13t10 14h34.5t52 1t52.5 1h35h43.5t55.5 -1t48.5 -1h24.5q18 0 66 -1t101.5 -2t102.5 -2.5t68 -1.5q10 -2 18 -10q14 -88 47 -176v-4q0 -2 2 -4v-4q0 -4 -6 -4l-43 -6q-10 0 -66.5 -4.5t-127 -8.5l-141 -8t-109.5 -6q-4 0 -33 -1t-43 -1h-21.5t-26.5 1 t-23 1h-11q-45 0 -62.5 24.5t-37.5 59.5q-2 31 -6.5 63.5t-4.5 67.5zM104 1526q0 10 1 18t16 12h141h144q80 0 226 -1t334.5 -3t407.5 -3t444.5 -3t444.5 -4t407.5 -3t335 -2t226.5 -3q51 -4 96 -32.5t68 -76.5h6q16 0 21 19.5t18 30.5q35 31 76.5 47t91.5 12q729 -4 1452 6 t1454 10h143q8 -2 12 -16q2 -55 -24.5 -83t-79.5 -36q-61 -2 -173 -3t-257.5 -2t-313 -3t-341 -3t-341 -2t-313 -2t-257.5 -2t-173 -1h-909q-10 0 -22.5 -7.5t-25 -15.5t-22.5 -14t-16 -6h-6q-16 16 -32.5 27.5t-39.5 15.5q-66 0 -185.5 1t-274 2t-334 2t-364 2t-364.5 2 t-334.5 2t-274.5 1h-185h-70q-27 0 -85 1t-130 2t-153 3t-152.5 4t-130 3t-84.5 3q-47 4 -73 27t-26 74zM158 1030q0 10 8 16.5t14 6.5l633 39h86q2 0 7 -6.5t7 -10.5q35 -41 67 -82t73 -78v-2q0 -10 -12.5 -11t-16.5 -1l-305 -53h-23l-252 -41h-20q-53 0 -86 11t-56.5 32.5 t-44 53.5t-44.5 73q-8 12 -21.5 24.5t-13.5 28.5zM416 741q0 14 11 16.5t22 4.5l626 106h47q63 -43 123 -72.5t135 -60.5l6 -6v-2v-2q-2 0 -6 -3t-6 -5l-461 -135q-18 -4 -47.5 -5.5t-46.5 -1.5q-23 0 -45 1.5t-45 5.5q-8 4 -34.5 11t-37.5 11q-4 2 -15 6t-24.5 9.5 t-25.5 9.5t-19 8q-10 4 -35.5 17.5t-52 28.5t-48 31.5t-21.5 26.5zM903 1315v18q0 4 6 4h936l19 -14l1 -11q1 -12 2 -27t3 -30.5t2 -27.5v-4q0 -2 1 -4t1 -5q0 -12 -14.5 -14t-24.5 -4l-729 -47h-41q-80 0 -121 43t-41 123zM930 539q0 8 14 10l518 153h29q78 -20 159 -34.5 t158 -26.5q16 4 17 -12l-2 -2q-12 -6 -43 -20.5t-66 -30t-65.5 -30t-42.5 -20.5q-59 -23 -116.5 -31t-117.5 -8q-102 0 -201.5 9.5t-199.5 23.5q-4 2 -22.5 4.5t-18.5 14.5zM1018 1092v10l811 47q4 0 13 1t13 1q8 0 21.5 1t19.5 -5q4 -8 13.5 -34t11.5 -32q4 -10 6 -13 t2 -11q0 -6 -13 -9.5t-31.5 -6.5t-37 -5t-28.5 -6l-541 -86h-41q-20 0 -35.5 -1t-34.5 5q-16 6 -40.5 22.5t-49 38t-42 43t-17.5 40.5zM1257 889q0 10 15 12l645 103h55l72 -70v-4q0 -2 2 -4q0 -4 -14 -11l-422 -124q-10 -4 -34 -6.5t-32 -4.5h-2q-72 0 -144.5 32t-131.5 65 q-8 2 -9 12zM1649 494v12l290 123h383v-11l-153 -92q-23 -12 -53.5 -20t-55.5 -12q-20 0 -71.5 -1t-109.5 -2.5t-109.5 -2.5t-71.5 -1h-12q-6 0 -21.5 1t-15.5 6zM1655 752q0 8 10 10l418 127h33q43 -18 70.5 -27.5t70.5 -21.5q0 -2 2 -2t2 -1t2 -1q2 -2 4 -2v-3v-4 q-12 -4 -39.5 -16t-59.5 -26.5t-59.5 -27t-37.5 -18.5q-10 -4 -38 -13t-46 -13h-74h-78q-10 2 -33.5 5t-50.5 8t-51.5 8t-34.5 5q-10 0 -10 13zM1939 1333h1346q33 0 66.5 -20.5t44.5 -52.5q-4 -2 -20.5 -5.5t-36 -6.5t-38 -7t-26.5 -8q-111 -45 -156 -117t-59 -182 q0 -10 -1 -21.5t-3 -11.5h-734q-63 0 -128.5 28.5t-119 76t-89 108t-41.5 125.5q0 6 -1 18.5t-1 27.5t-1.5 28.5t-1.5 19.5zM2103 702q0 6 4 10.5t9 4.5l262 110q2 2 25.5 4.5t33.5 2.5h105h71l23 -7v-2q0 -12 -8 -14q-8 -4 -28 -16.5t-43.5 -26.5t-43 -26.5t-27.5 -16.5 q-10 0 -10 -8q-10 -2 -29.5 -8.5t-21.5 -6.5h-322zM2212 494q0 4 4 10t8 6q39 27 81 54.5t83 49.5q4 2 12 7.5t10 5.5h275v-9l-8 -8t-18.5 -17t-23 -20.5t-18.5 -17.5q-20 -20 -48.5 -40.5t-61.5 -20.5h-295zM2544 702q0 12 10 15q25 16 52.5 36.5t57 38t60.5 30t63 12.5h13 q4 0 18 -1.5t29.5 -2.5t30 -2t20.5 -1v-4l-10 -9q-9 -9 -21 -21.5t-25.5 -25.5t-21.5 -22q-12 -10 -32.5 -26.5t-39.5 -16.5h-204zM2628 500v2v4l127 121l12 2l10 1q10 1 23.5 1h28h22.5h32.5h41t36 -1t19.5 -1h26.5t28.5 -2v-4q0 -2 2 -5q0 -6 -10 -14q-31 -45 -64.5 -77.5 t-93.5 -32.5h-233q-2 0 -4 2zM2849 709l2 4q0 2 2 4q6 6 20.5 19.5t29.5 28.5t28.5 27.5t19.5 18.5q2 4 5 5t7 5q4 2 9 6h106q6 0 12.5 -9t12.5 -20.5t11 -22.5t7 -13q4 -6 21.5 -26.5t23.5 -26.5v-7h-313q-2 0 -2 3q-2 2 -2 4zM3015 506l2 4q4 6 15 21.5t23.5 32t23.5 30.5 t16 20q2 2 5 7.5t5 5.5h264q10 0 13 -10.5t3 -20.5q0 -39 -26.5 -70.5t-67.5 -31.5h-268q-8 0 -8 12zM3146 950q0 51 21.5 94t57 74t82 48.5t95.5 17.5q47 0 93 -17.5t82 -49.5t58.5 -75t22.5 -94q0 -57 -21.5 -103t-57.5 -78t-84 -48.5t-101 -16.5t-98.5 19.5t-79 52.5 t-52 78t-18.5 98zM3406 1260q0 6 6 12q33 39 68.5 48t85.5 13h237h240q29 0 92 -1t143 -2t168 -1t168 -1t143.5 -1h94.5v-35q0 -74 -25.5 -137t-70 -113.5t-104.5 -85t-128 -51.5q-6 -4 -25.5 -4h-23.5q-16 0 -59.5 -2t-91.5 -3t-91 -2t-59 -1h-178h-164q-8 0 -22.5 1l-29 2 t-24.5 3l-10 2l-4 4q-4 160 -88 245t-242 107q-6 0 -6 3zM3416 592q0 6 1 14t7 12q39 8 82 8.5t80 0.5h104q8 -6 23.5 -22.5t30 -35t26 -37t11.5 -30.5q0 -2 -1 -4t-1 -4q-8 0 -28 -1t-43.5 -2.5t-44 -2.5t-28.5 -1h-43q-29 0 -59.5 3.5t-57 13.5t-43 30.5t-16.5 57.5z M3635 709v4q23 27 41.5 53.5t36.5 56.5l2 2q2 0 4 2h109l121 -114v-11q-47 -6 -96.5 -6h-94.5h-115q-8 4 -8 13zM3760 627h277q4 -2 8 -6q10 -10 14 -13q12 -10 29.5 -26.5t34 -31.5t27.5 -28l12 -12v-16h-246q-47 0 -77 26.5t-54 61.5q-4 4 -14.5 17t-10.5 28zM3899 823 l7 4h159l8 -4q8 -4 13 -4q8 -6 29.5 -19.5t44 -28.5t44 -28.5t29.5 -17.5l17 -16l2 -4l-2 -3q-43 -2 -72 -4t-64 -2q-37 0 -66.5 10.5t-54 27t-47 40t-47.5 49.5zM4116 614v2v2l9 9h44.5t69.5 1t69 1h44h10q8 0 12.5 1t12.5 -3l186 -117v-16h-284q-25 0 -49.5 13t-47 32.5 t-42 40t-34.5 34.5zM4168 819v4l2 2q2 0 4 2h246q59 -35 124.5 -55t126.5 -55q6 0 7 -15h-303q-2 0 -11.5 2.5t-20.5 6.5t-20.5 7t-13.5 7l-131 82q-2 0 -6 4t-4 8zM4481 618v5v4q0 2 5 2h9h365l289 -129v-6h-391q-74 0 -140.5 37.5t-126.5 76.5q-2 2 -6 5t-4 5zM4534 831 q0 12 27 15.5t39 9.5q10 4 40.5 16.5t41.5 16.5h35l426 -129v-4q0 -8 -9.5 -11.5t-13.5 -5.5q-10 -2 -34.5 -5t-52.5 -8t-53.5 -8t-33.5 -5h-70h-67q-23 4 -68 20.5t-91 35.5t-81 37.5t-35 24.5zM4751 922v2v2q2 0 2 2t2 4t3 4l65 68h45l635 -103q4 -2 14.5 -3t14.5 -9 q-6 -10 -18.5 -16.5t-20.5 -10.5q-59 -29 -116.5 -54.5t-123.5 -25.5q-23 0 -37 1t-35 8l-417 124q0 2 -5.5 4.5t-7.5 2.5zM4868 1059q0 8 4 22.5t11.5 29.5t14.5 26.5t13 11.5h6q8 0 37 -1t61.5 -3t62.5 -3t38 -1h14l631 -45q6 0 6 -11q0 -10 -10 -22q-43 -43 -90 -85 t-111 -42h-20l-656 111q-2 0 -6 4t-6 8zM4923 1200v17v22q2 18 6.5 50t4.5 34l6 4q61 0 117 2q47 0 98 1t86 3q154 2 305.5 3t302.5 1h14.5t10.5 -4v-10q0 -4 2 -8q0 -168 -158 -168h-6l-778 49zM4970 629q0 12 18.5 15t22.5 5q2 0 14.5 2t26 3t25.5 3t16 2q6 0 31 5.5 t54.5 11.5t58 11t43.5 9q10 2 12 3t3 2t3 1h12h13l508 -153q4 -2 11 -5t7 -9q-94 -33 -210 -38t-214 -5h-22.5t-34 1t-33.5 1h-22q-16 4 -50 11t-55 15q-12 6 -46 20.5t-72 32t-71.5 33t-45.5 21.5zM5409 727l2 2l2 4q0 2 2 2q8 4 29.5 14.5t45 21.5t45 21.5t29.5 14.5 q4 2 17.5 10t29 17.5t28.5 17.5t18 10q8 4 9 5t11 1h14l639 -108l29 -15v-4q0 -10 -14.5 -19t-20.5 -13q-82 -55 -177 -94.5t-200 -39.5q-16 0 -37.5 1.5t-37.5 5.5l-422 127q-2 2 -13.5 5t-15.5 3q-2 0 -6 4l-4 4zM5732 901v14q78 78 140 166l2 4h123l563 -38l37 -5v-6v-4 q0 -2 2 -2q0 -16 -6.5 -28.5t-16.5 -28.5q-20 -35 -41.5 -65.5t-47.5 -54.5t-58.5 -38t-73.5 -14q-27 0 -59.5 3t-66.5 8t-64.5 12t-53.5 16zM5915 1147v2q0 4 3 14.5t7 21.5t7 20t3 12q2 6 6 22t8.5 34.5t8.5 36t6 23.5l10 4l58 1q57 1 136.5 2t163.5 2t140 1h112h70l4 -6 v-10q0 -4 1 -8t1 -6q0 -27 -1 -57.5t-7 -59.5t-22.5 -52.5t-47.5 -35.5q-20 -8 -52 -7t-44 1h-63l-498 33l-4 4q-6 6 -6 8z" />
<glyph unicode="&#xa7;" />
<glyph unicode="&#xa8;" />
<glyph unicode="&#xa9;" horiz-adv-x="1908" d="M23 1681v19q0 6 1 19.5t1 15.5q2 8 10 24.5t12 20.5q8 8 33.5 24.5t32.5 18.5q2 0 28.5 3t38.5 3t38 -3t28 -3q8 -2 24.5 -18.5t20.5 -24.5q2 -4 4 -16.5t4 -27t4 -26.5t2 -14q-4 0 -28.5 6t-30.5 12q-2 0 -4 10.5t-5.5 21.5t-6.5 21.5t-5 12.5q0 2 -12 3t-20 1 q-4 0 -18.5 -1t-16.5 -3q-8 -4 -24.5 -20.5t-20.5 -24.5q-2 -4 -2 -9v-12q0 -4 1 -13t1 -11q2 -4 11 -12.5t13 -8.5q2 -2 18.5 -5t36 -6t35 -6t19.5 -5q6 -4 16 -13.5t21.5 -19.5t19.5 -20.5t10 -16.5q4 -2 5 -22.5t1 -30.5t-1 -32t-5 -24q-2 -8 -11 -22t-19.5 -28.5 t-20.5 -26t-16 -13.5q-2 -2 -25.5 -4t-38.5 -2q-14 0 -40.5 2t-28.5 4q-4 2 -13.5 10.5t-20.5 18.5t-20.5 20.5t-11.5 16.5q-4 8 -10 38t-6 38q6 0 30.5 -2t30.5 -7q2 0 9.5 -9t11.5 -13q2 -4 11 -23.5t13 -21.5t10 -2h19q8 0 21.5 1t15.5 1q4 2 13 11t9 13q0 2 1 22.5 t1 33.5q0 6 -1 27.5t-1 25.5q-8 0 -26.5 2t-40 6t-41 8t-25.5 9q-6 2 -16 11t-20.5 19t-19.5 20.5t-11 16.5t-2 12zM201 528v27q0 8 2 18t19.5 27.5t23.5 20.5h43h47q4 0 12 -9.5t10 -15.5q2 -2 3 -12.5t1 -12.5q-2 0 -13 1t-13 1l-45 23h-10h-11q-6 -2 -15 -10t-9 -13 q-2 -10 -2 -18v-27q0 -6 1 -23.5t1 -19.5q0 -4 9 -12t15 -10h11h10l45 22q2 0 13 2t13 2q0 -4 -1 -14t-3 -12q-2 -4 -10 -13.5t-12 -9.5q-2 0 -19.5 -1t-27.5 -1q-8 0 -24.5 1t-18.5 1q-6 2 -23.5 19.5t-19.5 25.5q0 2 -1 19.5t-1 23.5zM225 819v447h201v-33h-156v-123 q8 0 34 -8t32 -15q2 0 3 -4t1 -6t-1 -7t-3 -5q-4 -2 -14.5 -6t-22.5 -7t-23.5 -5.5t-17.5 -2.5v-225h-33zM336 129q4 6 14 18.5t20.5 25.5t19.5 25.5t13 18.5q4 8 13.5 25.5t9.5 19.5q0 4 -9 12.5t-14 10.5q-10 2 -33.5 2t-33.5 -2q2 4 10 12t12 10q2 0 14.5 1t18.5 1 q8 0 20.5 -1t14.5 -1q4 -2 12 -10t11 -12q0 -2 1 -15.5t1 -19.5t-1 -18.5t-1 -14.5q-4 -8 -21.5 -33.5t-24.5 -33.5l46 -21h-113zM356 1489.5v34.5v42.5t1 53.5t1 47.5v22.5q0 8 3.5 27.5t6.5 41t7 40t6 24.5q4 0 22.5 2t22.5 2q8 0 25.5 -2t19.5 -2t9 -7.5t12 -13.5 q6 -6 15 -23.5t9 -21.5q0 -2 1 -20.5t1 -28.5q0 -4 -1 -10t-1 -12v-17q-2 -4 -19.5 -21.5l-25.5 -25.5q-4 -2 -15.5 -8t-23.5 -14.5t-23.5 -14.5t-17.5 -8v-199l-33 -22v32.5t-1 51t-1 50zM401 508q0 10 1 26.5t1 18.5q0 4 9.5 12t13.5 8q2 0 14.5 1t18.5 1q8 0 19 -1t14 -1 q6 0 15 -8t9 -12q0 -2 1 -18.5t1 -26.5t-1 -26.5t-1 -18.5q0 -4 -9 -12.5t-15 -10.5q-2 0 -13.5 -1t-19.5 -1q-6 0 -18.5 1t-14.5 1q-4 2 -13.5 10.5t-9.5 12.5q0 2 -1 18.5t-1 26.5zM403 1647q2 0 5.5 -2.5t7.5 -2.5h2q2 0 4 3q2 0 4 2q8 4 25.5 21.5t19.5 21.5q0 2 1 14 t1 16q0 8 -1 21.5t-1 15.5q0 4 -9 12.5t-13 10.5h-7h-6q-2 0 -2 2q-2 0 -2 -1t-2 -1h-4zM424 494q0 -4 2 -9q2 -4 10 -12t13 -10q2 -2 11 -3t11 -1v98q-2 0 -11 -1t-11 -3q-4 -2 -12.5 -11.5t-10.5 -13.5t-2 -8v-12v-14zM471 887v268q0 2 5 13.5t12.5 24.5t14.5 27.5 t13 22.5q4 4 11.5 13.5t9.5 9.5h178q4 0 20.5 -16.5t24.5 -26.5q4 -8 13 -24.5t9 -20.5v-291q0 -4 -9 -20.5t-13 -24.5q-8 -10 -24.5 -26.5t-20.5 -16.5h-199zM489 217q0 14 1.5 40t1.5 28q0 4 9 12t15 10q2 0 13.5 1t19.5 1q6 0 18.5 -1t14.5 -1q4 -2 13 -10t9 -12 q0 -2 1 -28t1 -40t-1 -39.5t-1 -27.5q0 -4 -9 -11.5t-13 -9.5q-2 0 -14.5 -1t-18.5 -1q-8 0 -19.5 1t-13.5 1q-6 2 -15 9t-9 12q0 2 -1.5 27.5t-1.5 39.5zM537 150h22v135h-22v-135zM537 395h22v178q6 0 23.5 1t21.5 1q10 0 26.5 -1t18.5 -1q4 0 12.5 -8t8.5 -12q2 4 11 12 t13 8h4q2 0 3 1t4 1q2 0 4 -1t4 -1h2q4 -2 11 -21.5t11 -23.5q4 -2 6 -2h7h6q2 0 4 2q4 6 13 23.5t9 21.5h158v-133h-35v113q-4 0 -17.5 -9t-15.5 -16q-4 -4 -7 -16t-7 -26.5t-6 -27t-2 -18.5h-35v88q-2 -6 -10 -21t-17.5 -32.5t-17.5 -33t-10 -21.5q0 -4 -9.5 -13.5 t-13.5 -11.5t-8 -2h-14q-2 0 -10.5 1t-10.5 1q4 2 11.5 11.5t9.5 13.5v8q0 4 1 6t1 4q0 4 -1 13.5t-1 11.5q0 4 -3 14t-6.5 20.5l-6.5 19.5t-5 11q0 -6 -6 -18t-13 -26.5t-14.5 -27t-11.5 -16.5q-2 -2 -11 -5t-21.5 -6t-22.5 -6t-12 -3q-6 -4 -23.5 -12.5t-21.5 -12.5z M537 909l22 -45q4 -2 21.5 -4t25.5 -2q6 0 15.5 1t19.5 2t18.5 2t10.5 1q8 2 25.5 19.5t19.5 25.5q0 2 3 21.5t7 44t7 50.5t5 40v27v18q-2 4 -10 20.5t-12 24.5q-2 4 -10.5 13.5t-10.5 9.5t-27.5 1t-39.5 1t-39 -1t-29 -1t-13 -9.5t-9 -13.5v-246zM537 1378l45 23v401 l-45 21h157l-45 -21v-401l45 -23h-157zM582 508q0 -8 9 -24.5t13 -20.5q4 2 11.5 10t11.5 12v9q0 4 1 7t1 7q0 2 -1 5t-1 7v8q-4 4 -11.5 13.5t-11.5 11.5q-4 -4 -13 -20.5t-9 -24.5zM649 262q4 8 20.5 24.5t24.5 20.5q4 2 11.5 4t9.5 2v-184h-21q0 6 -3 22.5t-7 34t-8 32.5 t-6 22q-2 4 -9.5 12t-11.5 10zM737 1370v453q6 0 23.5 2t21.5 2q10 0 26.5 -2t18.5 -2t10.5 -7.5t12.5 -13.5t13 -23.5t9 -21.5v-12t1 -27.5t1 -31v-23.5v-27.5t-1 -35t-1 -29.5v-15q-2 -10 -5 -33.5t-6 -48t-6 -45t-5 -28.5q-2 -6 -10.5 -14.5t-12.5 -8.5q-6 0 -18 -2 t-26.5 -3t-27 -2t-18.5 -1zM780 217q0 10 1 26.5t1 18.5q2 10 10.5 26.5t12.5 18.5h12q4 0 9 1t10 1q8 0 20 -1t16 -1q4 -2 13.5 -10t9.5 -12q0 -2 1 -28t1 -40t-1 -39.5t-1 -27.5q0 -4 -9 -11.5t-14 -9.5q-4 0 -16 -1t-20 -1h-19q-6 0 -12 2q-4 2 -12.5 18.5t-10.5 26.5 q0 2 -1 18.5t-1 24.5zM782 1423l23 21v336h-23v-357zM827 145q4 0 11.5 1t11.5 4q4 2 13 11t9 13q0 2 1 13.5t1 19.5q0 2 -1 7t-1 11v15q-4 6 -11 23.5t-11 21.5h-4h-4q-2 0 -2 2q-4 0 -7.5 -1t-5.5 -1v-140zM827 819v447l21.5 -21.5t23.5 -21.5q2 -4 15.5 -21.5t28 -36 t27.5 -35t18 -20.5q4 -8 26.5 -24.5t28.5 -20.5v201h57v-447q-4 2 -12 10.5t-12 12.5q-8 12 -32 45t-50.5 67.5t-51 66.5t-32.5 44v-246h-56zM895 1378v45v45q0 20 3 70.5t6 107t6 106.5t5 71l158 -11h-112v-198h67q-6 0 -16.5 -3t-20.5 -9.5t-19 -13.5t-11 -11 q-2 -2 -5.5 -15.5t-6.5 -31t-6 -34.5t-3 -28q-2 -10 -1 -23t3 -26q2 -14 2 -30h129zM915 621q-2 4 2.5 6t10.5 2t10 -2t2 -6q-4 -10 -12 -10.5t-13 10.5zM940 195q-4 6 7 8t25.5 2t26 -2t7.5 -8q-8 -10 -33 -10.5t-33 10.5zM981 508q0 10 1 26.5t1 18.5q0 4 9 12t14 8 q6 0 20 2.5t29.5 4.5t30 3t18.5 1q0 -8 -1 -28.5t-3 -43.5t-4 -43t-2 -29q0 -8 -8.5 -25.5t-12.5 -19.5q-6 -2 -18.5 -1t-26.5 3t-26.5 4t-18.5 7h66q-4 4 -21.5 16t-21.5 16t-13.5 12.5t-9.5 10.5t-1 18.5t-1 26.5zM1004 494q0 -4 2 -9q2 -4 10 -12t12 -10q4 2 11.5 10 t9.5 12q0 4 2 9q0 4 1 7t1 7q0 2 -1 5t-1 7q-2 4 -2 8q-2 4 -9.5 13.5t-11.5 11.5q-4 -2 -12 -11.5t-10 -13.5t-2 -8v-12v-14zM1026 141v4q0 2 2 5q4 4 22.5 23.5t22.5 21.5q4 4 12.5 22.5t8.5 22.5q2 4 0 22.5t-2 22.5h-64q2 4 10.5 12t10.5 10q4 0 17 1t21 1q4 0 15.5 -1 t15.5 -1q6 -4 22.5 -20.5t20.5 -24.5q-2 8 7.5 24.5t17.5 20.5q2 2 19.5 3t25.5 1t24.5 -1t18.5 -3t9 -27.5t11 -39.5v-23v-22q-4 -12 -11 -38t-9 -28t-19.5 -5t-25.5 -3t-24.5 3t-18.5 5q-6 2 -13.5 14.5t-14.5 25.5t-12 27.5t-5 20.5l-68 -76h68l-113 -12q0 2 -1 5t-1 7z M1118 1233v33h279q0 -4 -4 -11.5t-9 -11.5q-2 -2 -11 -5t-20.5 -6t-21.5 -6t-12 -3q-10 -4 -22.5 -13.5t-12.5 -11.5v-379h-65v414h-101zM1118 1378v445h221q10 0 25.5 -16.5t19.5 -26.5q0 -2 1 -25.5t1 -38.5q0 -12 -1 -38.5t-1 -30.5t-8 -21.5t-12 -23.5l-25 -25 q-4 -4 -21.5 -11t-23.5 -10q4 -8 13.5 -26.5t20.5 -40t21.5 -40.5t14.5 -26q2 -4 9 -12t11 -10q4 4 12.5 21.5t10.5 21.5q2 6 6 29.5t7 49t6.5 49t3.5 30.5q2 10 5 30.5t7 42t7 39t3 21.5q0 6 3 18t7 26.5t7.5 27t5.5 16.5q2 0 5 2t5 2q0 -2 2 -2h4q2 -2 6 -2 q4 -2 12.5 -9.5t10.5 -11.5q2 -20 9 -70.5t14 -107.5t13.5 -108.5t8.5 -71.5q0 -6 1 -18.5t2 -26t1 -25.5v-18h-29q0 6 -3 18t-7 25.5t-7 26t-3 18.5q-4 8 -11.5 24.5t-11.5 20.5h-6h-4q-2 0 -2 2q-2 0 -3 -1t-3 -1h-4q-2 -2 -10.5 -18.5t-12.5 -26.5q-4 -6 -12 -32t-10 -34 q-6 0 -28 -1t-28 -1q-12 0 -32.5 1t-22.5 1t-11.5 8.5t-13.5 14.5q-4 4 -16 23.5t-26.5 43t-28 43t-17.5 23.5t-16 12t-16 10v-178h-56zM1141 440v181q0 -4 8 -12.5t12 -12.5q8 -4 34 -12.5t34 -10.5v-133q0 6 -3 18.5t-7.5 27t-7.5 26.5t-5 16t-9 13.5t-11 11.5 q-4 -6 -13.5 -23.5t-11.5 -21.5q-4 -8 -12 -32.5t-8 -35.5zM1186 1622h108v158h-108v-158zM1204 217q0 -8 1 -24.5t1 -18.5q0 -4 9.5 -13t13.5 -11q6 2 14 11t8 13q0 2 1 18.5t1 24.5q0 10 -1 26.5t-1 18.5q0 4 -8 12.5t-14 10.5q-4 -2 -13.5 -10.5t-9.5 -12.5 q0 -2 -1 -18.5t-1 -26.5zM1274 573q0 8 8 25.5t12 22.5q6 -4 15.5 -21.5t9.5 -26.5q0 -6 2 -25.5t3 -41t2 -39.5t1 -27h-33q-2 0 -6 15.5t-7 37t-5 44t-2 36.5zM1339 262q4 8 21.5 24.5t23.5 20.5q4 2 11.5 4t11.5 2v-184h-23q0 6 -3 22.5t-6 34t-6 32.5t-5 22 q-4 4 -12.5 12t-12.5 10zM1405 1122v21q0 4 1 18.5t1 16.5q2 6 10 23.5t13 21.5q8 8 33.5 24.5t33.5 18.5q2 0 28.5 3t39.5 3q12 0 37.5 -3t27.5 -3q6 -2 23.5 -18.5t21.5 -24.5q2 -4 4 -17.5t4.5 -28t3.5 -26.5t1 -14q-4 0 -29 6t-29 12q-2 2 -4 11.5t-5 21.5t-6 22.5 t-5 12.5q0 2 -13.5 3t-19.5 1t-19.5 -1t-17.5 -3q-6 -4 -22.5 -19.5t-20.5 -25.5q-2 -4 -2 -9v-14q0 -4 1 -12t1 -10q2 -4 10.5 -12.5t12.5 -10.5t20 -5t34.5 -6t35 -6t20.5 -6q6 -2 16.5 -11t21.5 -19t19.5 -20.5t10.5 -16.5q2 -2 3 -22.5t1 -32.5q0 -10 -1 -32t-3 -24 q-2 -8 -11.5 -21.5t-19.5 -27.5t-20.5 -26.5t-16.5 -14.5q-2 -2 -26.5 -4t-36.5 -2q-14 0 -41 2t-29 4q-4 2 -14 10.5t-21.5 18.5t-20.5 21.5t-11 17.5q-2 4 -4.5 15t-4.5 23.5t-4 22t-2 13.5q4 0 29.5 -3.5t30.5 -3.5q2 0 10 -9t12 -13q2 -4 10.5 -23.5t12.5 -21.5 q6 -2 12 -2h18q8 0 20.5 1t14.5 1q6 2 15.5 10t9.5 12q0 2 1 23.5t1 32.5q0 8 -1 28.5t-1 26.5q-8 0 -27.5 2t-41 6t-40 8t-26.5 8q-4 2 -14.5 10.5t-22 19.5t-20.5 21.5t-11 14.5q-2 6 -2 12zM1427 508q0 10 1.5 26.5t1.5 18.5q0 4 9 20.5t13 22.5q2 4 10 13t13 12v-226 q-4 2 -12.5 11.5t-10.5 13.5q-4 6 -13 22.5t-9 20.5q0 2 -1.5 18.5t-1.5 26.5zM1454 129q4 6 14.5 18.5t20.5 25.5t19.5 25.5t13.5 18.5q4 8 13 25.5t9 19.5q0 4 -9 12.5t-13 10.5q-10 2 -34 2t-34 -2q2 4 10.5 12t12.5 10q2 0 14 1t18 1q8 0 20.5 -1t14.5 -1q4 -2 12.5 -10 t10.5 -12q0 -2 1 -15.5t1 -19.5t-1 -18.5t-1 -14.5q-4 -8 -21.5 -33.5t-23.5 -33.5l45 -21h-113zM1464 1568q0 -5 3 -9.5t8 -2.5q10 4 10 10.5t-10 10.5q-4 2 -7.5 -1t-3.5 -8zM1518 508q0 10 1 26.5t1 18.5q0 4 8 12t12 8q8 2 35 6.5t35 4.5v-31h-45v-90h45v-33q-8 0 -35 4 t-35 6q-4 2 -12 10.5t-8 12.5q0 2 -1 18.5t-1 26.5zM1599 1823h87v-221h112v231q8 0 28.5 -3t28.5 -7q2 -2 10.5 -9.5t10.5 -11.5v-21.5t1 -33.5t1 -34.5v-22.5v-27.5t-1 -36t-1 -33v-16.5q0 -12 -3 -35.5t-7 -48.5t-7.5 -45.5t-3.5 -24.5q-4 -10 -22 -27.5t-25 -17.5h-198 v56h176v100q-8 0 -26.5 3t-40 6t-40 7t-26.5 6q-2 0 -10.5 8.5l-12.5 12.5q-4 8 -12 25.5t-8 19.5q-2 12 -4 41t-3 60.5t-2.5 60t-1.5 39.5zM1653 395q2 6 6 18.5t7 27t6 27.5t3 17v23v20q0 6 -3 18.5t-6 28t-7 27.5t-6 19h12h10q4 -6 13.5 -24.5t9.5 -23.5v-26 q0 -10 1 -21.5t1 -17.5q0 -14 -1 -40t-1 -28q0 -4 -9.5 -21.5t-13.5 -23.5l-10 -2q-2 0 -6 1t-6 1z" />
<glyph unicode="&#xad;" horiz-adv-x="1361" d="M102 920v210h1158v-210h-1158z" />
<glyph unicode="&#xae;" d="M76 1030q0 221 89 412.5t238.5 331t346 219.5t413.5 80t414 -80t346.5 -219.5t237.5 -331t88 -412.5t-88 -412.5t-237.5 -331t-346.5 -219t-414 -79.5t-413.5 79.5t-346 219t-238.5 331t-89 412.5zM322 1036q0 -174 66.5 -326.5t182 -265t268 -178t324.5 -65.5 t324.5 65.5t268.5 178t182.5 265t66.5 326.5t-66.5 327t-182.5 265.5t-268.5 178t-324.5 65.5t-324.5 -65.5t-268 -178t-182 -265.5t-66.5 -327zM700 1530v125h414q2 0 27.5 -5t38.5 -10q123 -31 200.5 -109.5t77.5 -211.5q0 -94 -48 -160.5t-130 -120.5v-12l395 -606h-162 l-436 674l-4 14q16 12 50 20.5t48 14.5q66 23 106 64.5t40 113.5q0 57 -30 106.5t-87 71.5q-10 4 -25.5 9t-31 10.5t-26.5 8.5t-13 3h-404z" />
<glyph unicode="&#xbc;" horiz-adv-x="2134" d="M102 0l1659 2048h262l-1706 -2048h-215zM160 594h157v1448h-157v-1448zM1334.5 626.5q0.5 -20.5 0.5 -46.5h518v-578h179v811h-179v-82h-288l458 699l4.5 9l4.5 9v6h-174l-7 -14l-503 -770q-14 -23 -13.5 -43.5z" />
<glyph unicode="&#xbd;" horiz-adv-x="2611" d="M102 0l1659 2048h262l-1706 -2048h-215zM134 422v1448h159v-1448h-159zM1197 1074q0 56 19 107t51.5 94.5t76.5 78t93 57.5q34 16 75.5 23.5t77.5 12.5h30q61 0 119.5 -17t109 -48t91.5 -76t65 -100q17 -37 20.5 -79t3.5 -84q0 -23 -2 -53t-9 -62t-17 -61t-24 -48 l-520 -660h582v-158h-824v87q19 14 28 36.5t28 35.5l553 716q11 12 20 31.5t15.5 39.5t9.5 40.5t3 36.5q0 19 -6 41.5t-9 38.5q-9 40 -29 74.5t-49 59.5t-66 39.5t-78 14.5q-47 0 -89 -9t-78.5 -28.5t-63.5 -52t-41 -78.5q-3 -13 -7 -37.5t-13 -38.5q0 -2 -2 -2q-1 0 -1 -1 h-10h-13h-23.5t-35.5 0.5t-36 1.5t-24 1q0 3 -0.5 13t-0.5 13z" />
<glyph unicode="&#xbe;" horiz-adv-x="2535" d="M102 616v127q14 0 52.5 1t80 1t79.5 1.5t53 1.5q70 2 148.5 8t144 31.5t109.5 76.5t44 144q0 109 -56.5 163t-138 75.5t-176 22.5t-170.5 3v119l433 512h-603v151h912l-553 -635l-17 -22q106 -2 205 -16.5t173.5 -56.5t118.5 -120t44 -207q0 -102 -32.5 -174.5t-92 -121 t-141.5 -71t-178 -22.5h-39q-23 0 -79 1t-120.5 2t-121 2t-79.5 3zM504 0l1659 2048h262l-1706 -2048h-215zM1736 627q-1 20 13 43l504 770l6 14h174v-6q-2 -4 -4 -9t-4 -9l-459 -699h289v82h178v-811h-178v578h-518q0 27 -1 47z" />
<glyph unicode="&#xbf;" horiz-adv-x="1398" d="M0 1391q0 4 2 8q4 4 22.5 11t22.5 11q4 2 12.5 7.5t12.5 5.5h121q12 0 22 9t23 9h2q6 0 20 -3t30.5 -7t31 -7t20.5 -3q4 -2 20.5 -3.5t20.5 -1.5q2 0 13.5 -3t15.5 -3h12q20 0 38.5 6.5t39.5 6.5q8 8 8 12q0 8 -6 13t-10 9q-6 4 -23.5 15.5t-36 24t-35 22.5t-22.5 14 q-25 16 -50.5 23.5t-47.5 21.5q-12 8 -18.5 16.5t-16.5 18.5q-27 14 -53.5 23.5t-51.5 21.5q-10 4 -29.5 7t-19.5 20q0 20 19.5 21t33.5 1q20 0 38 -15t34 -26q23 -12 47.5 -14t44.5 -16q23 -16 49.5 -38t56 -41.5t61.5 -32.5t63 -13q2 0 10 4v12q0 16 -4 31.5t-6 32.5 l-50 94q-2 2 -5 7t-5 7q-4 4 -12 13.5t-17.5 19.5t-18.5 19.5t-11 13.5q-6 12 -13.5 26.5t-19.5 24.5q-10 6 -31.5 23.5t-25.5 19.5q-14 10 -39 12t-25 25q0 18 17.5 26.5t31.5 8.5q18 0 27.5 -10.5t19.5 -22.5q6 -6 22.5 -24.5t20.5 -22.5q16 -16 36 -22.5t34 -24.5 q2 -6 10.5 -22.5t17.5 -34t17 -33t12 -21.5q12 -20 32 -52t38 -62.5t33.5 -54.5t17.5 -26l4 -2q4 10 14.5 17.5t20.5 7.5h6q2 0 10.5 -3t10.5 -3h2q2 0 10 11t15.5 24.5t14.5 27t9 17.5q4 6 11 17t15.5 23.5t15.5 22.5t9 14q16 29 25.5 62t25.5 63q6 14 18.5 21.5t22.5 19.5 q45 59 72 129q2 6 11.5 10.5t19.5 7.5t20 4t15 1q10 0 15 -7t5 -18q0 -8 -9 -16t-21.5 -17.5t-25 -19.5t-18.5 -18q-4 -4 -11 -14.5t-15 -23t-16.5 -23.5t-10.5 -15q-4 -12 -6 -27.5t-10 -27.5q-8 -14 -19.5 -24.5t-21.5 -25.5q-4 -4 -8.5 -13t-6.5 -15q-4 -6 -10 -21.5 t-13 -33t-13.5 -34t-8.5 -22.5q-4 -6 -7 -16t-3 -21q0 -4 10.5 -8t14.5 -4q33 0 69.5 19.5t59.5 39.5q2 2 13 12.5t23.5 20.5t23.5 20.5t15 12.5q20 18 49 28.5t52 20.5q2 0 10 4l8 4q6 4 26.5 20.5t24.5 20.5q6 6 22.5 10.5t25.5 4.5q20 0 20 -21q0 -10 -16.5 -21.5 t-37 -22.5t-41 -19.5t-26.5 -12.5t-18.5 -10t-14.5 -8q-4 -2 -11 -9.5t-14 -14.5t-14.5 -14t-9.5 -9q-12 -8 -25.5 -11.5t-25.5 -11.5q-31 -20 -56.5 -45.5t-53.5 -48.5q-10 -10 -28 -15t-18 -20q0 -18 24 -20t38 -2h6q6 2 22.5 5t35 8t36 9t23.5 6q18 4 33.5 13.5t33.5 9.5 q23 0 45.5 -4t44.5 -4q27 0 51.5 7t51.5 7h6l66 -16q8 -2 8 -17q0 -16 -21 -22h-49q-27 0 -52.5 3t-53.5 3q-27 0 -48.5 -8t-46.5 -13q-2 0 -11 -1t-20.5 -3t-20.5 -3t-11 -1q-6 0 -21.5 -3t-33 -7l-35 -8t-25.5 -6q-4 0 -22.5 -6.5t-26.5 -10.5q-14 -2 -14 -20q0 -4 6 -8 l182 -62q14 -6 28.5 -5t26.5 -9q10 -4 11.5 -14.5t9.5 -16.5q12 -12 29.5 -18t33.5 -15q12 -6 30 -17t33 -26.5t26.5 -33t11.5 -33.5q0 -8 -10.5 -12.5t-14.5 -4.5q-10 0 -17 11.5t-11 15.5l-64 63q-25 25 -57 35q-14 4 -25.5 5t-26.5 8q-33 16 -58 33.5t-68 17.5h-13 q16 -25 22.5 -41.5t6.5 -44.5q0 -51 -20.5 -68.5t-75.5 -17.5q-20 0 -40 7t-40 7q-16 0 -23 -14q-4 -23 -6 -47.5t-6 -46.5q-2 -4 -4 -11.5t-2 -11.5q-2 -4 -6 -16.5t-10.5 -27.5t-10.5 -28.5t-6 -15.5q-6 -18 -6 -38.5v-41.5q0 -31 8 -60.5t17.5 -58t17.5 -58.5t8 -61 q0 -45 -17.5 -75.5t-46 -51t-64.5 -35t-73 -24.5l-159 -72q-23 -10 -45.5 -40.5t-22.5 -55.5q0 -45 35 -65.5t74 -20.5q61 0 106 35t92 70q74 57 168 57q47 0 96.5 -12.5t90.5 -36.5q2 -2 7 -6t5 -9v-2q0 -6 -6 -6h-2l-131 35q-6 2 -15.5 2h-17.5q-61 0 -109.5 -32.5 t-93.5 -71.5t-93 -72t-112 -33q-84 0 -143 42t-59 132q0 78 52 124t120 73l215 82q20 8 24 37.5t4 46.5q0 39 -18.5 74.5t-32.5 70.5q-14 37 -14 88q0 53 12 105.5t29 103.5v21q0 18 -3 35.5t-26 17.5q-25 0 -49.5 -7t-48.5 -7q-41 0 -60.5 18t-19.5 64q0 29 13 60.5 t48 31.5q10 0 20.5 -3t20.5 -3q6 0 6 6t-6 6h-10q-41 0 -86 -2t-84 -19q-37 -16 -59.5 -32.5t-61.5 -12.5q-29 -12 -59.5 -27.5t-48.5 -41.5q-4 -8 -13.5 -30t-25.5 -22q-18 0 -19 19q0 31 10.5 47t27 26.5t37 18.5t40.5 21q23 10 40 27.5t42 21.5q6 2 27.5 5t27.5 5l209 72 q-8 14 -13 18t-20 8q-123 20 -245 19q-10 4 -16.5 5t-16.5 1h-12q-4 0 -16.5 -2t-27 -5t-27.5 -6.5t-16 -3.5q-25 -4 -46 -5t-46 -9q-14 4 -14 23z" />
<glyph unicode="&#x2dc;" />
<glyph unicode="&#x2000;" horiz-adv-x="1036" />
<glyph unicode="&#x2001;" horiz-adv-x="2073" />
<glyph unicode="&#x2002;" horiz-adv-x="1036" />
<glyph unicode="&#x2003;" horiz-adv-x="2073" />
<glyph unicode="&#x2004;" horiz-adv-x="691" />
<glyph unicode="&#x2005;" horiz-adv-x="518" />
<glyph unicode="&#x2006;" horiz-adv-x="345" />
<glyph unicode="&#x2007;" horiz-adv-x="345" />
<glyph unicode="&#x2008;" horiz-adv-x="259" />
<glyph unicode="&#x2009;" horiz-adv-x="414" />
<glyph unicode="&#x200a;" horiz-adv-x="115" />
<glyph unicode="&#x2010;" horiz-adv-x="1361" d="M102 920v210h1158v-210h-1158z" />
<glyph unicode="&#x2011;" horiz-adv-x="1361" d="M102 920v210h1158v-210h-1158z" />
<glyph unicode="&#x2012;" horiz-adv-x="1361" d="M102 920v210h1158v-210h-1158z" />
<glyph unicode="&#x2013;" horiz-adv-x="1392" d="M102 223l2 221l1186 -2v-221z" />
<glyph unicode="&#x2014;" horiz-adv-x="2244" d="M102 223l2 221l2038 -2v-221z" />
<glyph unicode="&#x2018;" horiz-adv-x="526" d="M106 1615q-6 36 3 77q4 6 5 13t5 15q6 14 13 28.5t13 29.5q4 4 5 10q4 2 13 15.5l13 19.5q10 16 23.5 30.5t29.5 28.5q12 12 19 16q2 -2 6 2.5t6 4.5v2q14 10 32.5 18t37.5 4q12 0 24 -4q10 -4 18.5 -9t14.5 -11q16 -16 22.5 -39t10.5 -45v-2q0 -2 -2 -4q2 0 4 -3v-8v-35 q2 -27 -4 -61v-6q-2 -4 0 -8q-2 -4 -2 -11q-4 -14 -9.5 -29.5t-9.5 -27.5q-10 -23 -19 -43t-24 -37q-2 -4 -4 -4t-4 -4q-18 -20 -43 -31q-8 -2 -14 -1t-13 -3q-10 -4 -19 -3t-19 1h-2q-20 2 -46 12q-2 0 -6 2.5t-6 2.5q-4 4 -8 6t-10 6q0 4 -4 4q-12 8 -15 12q-29 33 -35 69 z" />
<glyph unicode="&#x2019;" horiz-adv-x="526" d="M107 1815.5q6 35.5 34 68.5q3 4 15 12q4 0 4 5q6 4 10 6t8 6q2 0 6 2t6 2q25 10 46 12h2q10 0 19 1t19 -3q6 -4 12.5 -3t14.5 -1q25 -10 43 -31q2 -4 4 -4t4 -4q14 -16 23.5 -36.5t19.5 -43.5q4 -12 9.5 -27.5t9.5 -29.5q0 -6 2 -10q-2 -4 0 -8v-7q6 -35 4 -61v-35v-8 q-2 -2 -4 -2q0 -2 1 -2t1 -2v-2q-4 -23 -10.5 -45.5t-22.5 -38.5q-6 -6 -14 -11.5t-19 -9.5q-12 -4 -24 -4q-18 -4 -37 4t-33 19v2q-2 0 -6 4t-6 2q-6 4 -19 16q-16 14 -29.5 28.5t-23.5 31.5q-4 6 -13 19t-13 15q0 6 -5 11q-6 14 -13 28.5t-13 28.5q-4 8 -5 15.5t-5 13.5 q-8 41 -2 76.5z" />
<glyph unicode="&#x201c;" horiz-adv-x="806" d="M106 1635.5q-6 35.5 3 76.5q4 6 5 13.5t5 15.5q6 14 13 28.5t13 28.5q4 4 5 10q4 2 13 15.5l13 19.5q10 16 23.5 30.5t29.5 29.5q12 12 19 16q2 -2 6 2t6 4v2q14 10 32.5 18.5t37.5 4.5q12 0 24 -4q10 -4 18.5 -9.5t14.5 -11.5q16 -16 22.5 -38.5t10.5 -45.5v-2 q0 -2 -2 -4q2 0 4 -2v-8v-35q2 -27 -4 -61v-7q-2 -4 0 -8q-2 -4 -2 -10q-4 -14 -9.5 -29.5t-9.5 -27.5q-10 -23 -19 -43.5t-24 -36.5q-2 -4 -4 -4t-4 -4q-18 -20 -43 -31q-8 -2 -14 -1t-13 -3q-10 -4 -19 -3t-19 1h-2q-20 2 -46 12q-2 0 -6 2t-6 2q-4 4 -8 6t-10 6q0 4 -4 4 q-12 8 -15 13q-29 33 -35 68.5zM387 1443q-6 36 2 77q4 6 5 13t5 15q6 14 13.5 28.5t13.5 29.5q4 4 4 10q4 2 13.5 15.5t13.5 19.5q10 16 23.5 30.5t29.5 28.5q12 12 18 16q2 -2 6.5 2.5t6.5 4.5v2q14 10 32.5 18t36.5 4q12 0 25 -4q10 -4 18.5 -9t14.5 -11q16 -16 22 -39 t10 -45v-2q0 -2 -2 -5q2 0 4 -2v-8v-35q2 -27 -4 -61v-6q-2 -4 0 -8q-2 -4 -2 -11q-4 -14 -9 -29.5t-9 -27.5q-10 -23 -19.5 -43t-23.5 -37q-2 -4 -4 -4t-4 -4q-18 -20 -43 -31q-8 -2 -14.5 -1t-12.5 -3q-10 -4 -19.5 -3t-19.5 1h-2q-20 2 -45 12q-2 0 -6 2.5t-6 2.5 q-4 4 -8.5 6t-10.5 6q0 4 -4 4q-12 8 -14 12q-29 33 -35 69z" />
<glyph unicode="&#x201d;" horiz-adv-x="806" d="M104 1597v35v8q2 2 5 2q-2 0 -3 5v2q4 23 10.5 45t22.5 39q6 6 14.5 11t18.5 9q12 4 25 4q18 4 36.5 -4t32.5 -18v-2q2 0 6 -4.5t7 -2.5q6 -4 18 -16q16 -14 29.5 -28.5t23.5 -30.5q4 -6 13.5 -19.5t13.5 -15.5q0 -6 4 -10q6 -14 13 -28.5t14 -29.5q4 -8 5 -15t5 -13 q8 -41 2 -77t-35 -69q-2 -4 -14 -12q-4 0 -4 -4q-6 -4 -10.5 -6t-8.5 -6q-2 0 -6 -2.5t-6 -2.5q-25 -10 -45 -12h-2q-10 0 -19.5 -1t-19.5 3q-6 4 -12.5 3t-14.5 1q-25 10 -43 31q-2 4 -4 4t-4 4q-14 16 -23.5 37t-19.5 43q-4 12 -9 27.5t-9 29.5q0 6 -2 11q2 4 0 8v6 q-6 35 -5 61zM385 1790v35v8q2 2 4 2q-2 0 -2 4v2q4 23 10 45.5t23 38.5q6 6 14 11.5t19 9.5q12 4 24 4q18 4 36.5 -4.5t33.5 -18.5v-2q2 0 6 -4t6 -2q6 -4 19 -16q16 -14 29.5 -28.5t23.5 -31.5l13 -19.5t13 -15.5q0 -6 5 -10q6 -14 13 -28.5t13 -28.5q4 -8 5 -15.5 t5 -13.5q8 -41 2 -77t-34 -68q-3 -5 -15 -13q-4 0 -4 -4q-6 -4 -10 -6t-8 -6q-2 0 -6.5 -2t-6.5 -2q-25 -10 -45 -12h-2q-10 0 -19 -1t-20 3q-6 4 -12 3t-14 1q-25 10 -43 31q-2 4 -4 4t-4 4q-14 16 -23.5 36.5t-19.5 43.5q-4 12 -9.5 27.5t-9.5 29.5q0 6 -2 10q2 4 0 8v7 q-6 35 -4 61z" />
<glyph unicode="&#x2022;" horiz-adv-x="800" d="M102 897q0 33 2 65.5t7 63.5q0 4 1 11t1 10q2 8 9 40.5t9 47.5q10 41 25.5 77.5t33.5 71.5q4 12 11.5 24.5l13.5 22.5q2 2 7 11.5t7 9.5v4q20 29 49 56.5t66 37.5q27 10 51 10q41 0 78 -14q43 -16 69.5 -54t49.5 -77q0 -2 2 -5t4 -7l4 -3l2 -2q0 -4 2 -6q0 -2 2 -6 q4 -8 16.5 -34.5t16.5 -32.5q10 -29 20.5 -60t14.5 -59q4 -4 4 -10q0 -10 1 -9.5t3 -9.5q2 -4 2 -9t2 -9q8 -29 9 -63t1 -64q0 -47 -5 -93.5t-17 -89.5q0 -4 -3 -9t-3 -9q-10 -23 -24.5 -47.5t-37.5 -40.5q-12 -10 -23.5 -15.5t-23.5 -15.5q-16 -10 -33.5 -17t-40.5 -16h-2 q-47 -12 -92 -12h-26q-12 4 -21.5 5t-23.5 5q-3 2 -13 2q-10 4 -19 7.5t-18 7.5q-76 41 -113.5 103.5t-49.5 146.5q-2 16 -4.5 30.5t-2.5 28.5z" />
<glyph unicode="&#x202f;" horiz-adv-x="414" />
<glyph unicode="&#x205f;" horiz-adv-x="518" />
<glyph unicode="&#x2122;" horiz-adv-x="1320" d="M74 1524v73h610v-73h-258v-639h-80v639h-272zM727 1595l4 4h88q6 0 12 -6l232 -295l6 -6t6 -4h2h2l4 4l234 307h86v-714h-80v579l-12 -12l-232 -281h-2h-2q-2 2 -5 5.5t-7 5.5z" />
<glyph unicode="&#x25fc;" horiz-adv-x="1024" d="M0 0z" />
</font>
</defs>
</svg>
