<svg baseProfile="tiny" xmlns="http://www.w3.org/2000/svg" width="200" height="200"><path shape-rendering="optimizeSpeed" fill="#fff" d="M0 0h200v200h-200z"/><path shape-rendering="optimizeSpeed" d="M7 7h5v5h-5zM12 7h5v5h-5zM17 7h5v5h-5zM22 7h5v5h-5zM27 7h5v5h-5zM32 7h5v5h-5zM37 7h5v5h-5zM47 7h5v5h-5zM52 7h5v5h-5zM72 7h5v5h-5zM87 7h5v5h-5zM92 7h5v5h-5zM97 7h5v5h-5zM102 7h5v5h-5zM112 7h5v5h-5zM122 7h5v5h-5zM137 7h5v5h-5zM142 7h5v5h-5zM147 7h5v5h-5zM157 7h5v5h-5zM162 7h5v5h-5zM167 7h5v5h-5zM172 7h5v5h-5zM177 7h5v5h-5zM182 7h5v5h-5zM187 7h5v5h-5zM7 12h5v5h-5zM37 12h5v5h-5zM72 12h5v5h-5zM97 12h5v5h-5zM117 12h5v5h-5zM122 12h5v5h-5zM127 12h5v5h-5zM132 12h5v5h-5zM157 12h5v5h-5zM187 12h5v5h-5zM7 17h5v5h-5zM17 17h5v5h-5zM22 17h5v5h-5zM27 17h5v5h-5zM37 17h5v5h-5zM47 17h5v5h-5zM62 17h5v5h-5zM67 17h5v5h-5zM72 17h5v5h-5zM77 17h5v5h-5zM82 17h5v5h-5zM87 17h5v5h-5zM107 17h5v5h-5zM122 17h5v5h-5zM127 17h5v5h-5zM132 17h5v5h-5zM137 17h5v5h-5zM147 17h5v5h-5zM157 17h5v5h-5zM167 17h5v5h-5zM172 17h5v5h-5zM177 17h5v5h-5zM187 17h5v5h-5zM7 22h5v5h-5zM17 22h5v5h-5zM22 22h5v5h-5zM27 22h5v5h-5zM37 22h5v5h-5zM47 22h5v5h-5zM52 22h5v5h-5zM62 22h5v5h-5zM72 22h5v5h-5zM77 22h5v5h-5zM82 22h5v5h-5zM87 22h5v5h-5zM92 22h5v5h-5zM102 22h5v5h-5zM117 22h5v5h-5zM132 22h5v5h-5zM137 22h5v5h-5zM142 22h5v5h-5zM157 22h5v5h-5zM167 22h5v5h-5zM172 22h5v5h-5zM177 22h5v5h-5zM187 22h5v5h-5zM7 27h5v5h-5zM17 27h5v5h-5zM22 27h5v5h-5zM27 27h5v5h-5zM37 27h5v5h-5zM47 27h5v5h-5zM52 27h5v5h-5zM57 27h5v5h-5zM62 27h5v5h-5zM77 27h5v5h-5zM82 27h5v5h-5zM87 27h5v5h-5zM92 27h5v5h-5zM102 27h5v5h-5zM127 27h5v5h-5zM137 27h5v5h-5zM142 27h5v5h-5zM157 27h5v5h-5zM167 27h5v5h-5zM172 27h5v5h-5zM177 27h5v5h-5zM187 27h5v5h-5zM7 32h5v5h-5zM37 32h5v5h-5zM52 32h5v5h-5zM67 32h5v5h-5zM72 32h5v5h-5zM92 32h5v5h-5zM102 32h5v5h-5zM112 32h5v5h-5zM117 32h5v5h-5zM132 32h5v5h-5zM137 32h5v5h-5zM157 32h5v5h-5zM187 32h5v5h-5zM7 37h5v5h-5zM12 37h5v5h-5zM17 37h5v5h-5zM22 37h5v5h-5zM27 37h5v5h-5zM32 37h5v5h-5zM37 37h5v5h-5zM47 37h5v5h-5zM57 37h5v5h-5zM67 37h5v5h-5zM77 37h5v5h-5zM87 37h5v5h-5zM97 37h5v5h-5zM107 37h5v5h-5zM117 37h5v5h-5zM127 37h5v5h-5zM137 37h5v5h-5zM147 37h5v5h-5zM157 37h5v5h-5zM162 37h5v5h-5zM167 37h5v5h-5zM172 37h5v5h-5zM177 37h5v5h-5zM182 37h5v5h-5zM187 37h5v5h-5zM52 42h5v5h-5zM62 42h5v5h-5zM87 42h5v5h-5zM92 42h5v5h-5zM97 42h5v5h-5zM102 42h5v5h-5zM107 42h5v5h-5zM122 42h5v5h-5zM142 42h5v5h-5zM7 47h5v5h-5zM12 47h5v5h-5zM17 47h5v5h-5zM22 47h5v5h-5zM37 47h5v5h-5zM47 47h5v5h-5zM77 47h5v5h-5zM87 47h5v5h-5zM92 47h5v5h-5zM97 47h5v5h-5zM102 47h5v5h-5zM107 47h5v5h-5zM112 47h5v5h-5zM117 47h5v5h-5zM137 47h5v5h-5zM142 47h5v5h-5zM147 47h5v5h-5zM152 47h5v5h-5zM167 47h5v5h-5zM172 47h5v5h-5zM177 47h5v5h-5zM187 47h5v5h-5zM7 52h5v5h-5zM17 52h5v5h-5zM32 52h5v5h-5zM42 52h5v5h-5zM72 52h5v5h-5zM87 52h5v5h-5zM92 52h5v5h-5zM97 52h5v5h-5zM102 52h5v5h-5zM107 52h5v5h-5zM117 52h5v5h-5zM122 52h5v5h-5zM127 52h5v5h-5zM187 52h5v5h-5zM7 57h5v5h-5zM12 57h5v5h-5zM17 57h5v5h-5zM27 57h5v5h-5zM37 57h5v5h-5zM57 57h5v5h-5zM97 57h5v5h-5zM112 57h5v5h-5zM122 57h5v5h-5zM132 57h5v5h-5zM137 57h5v5h-5zM157 57h5v5h-5zM167 57h5v5h-5zM7 62h5v5h-5zM17 62h5v5h-5zM47 62h5v5h-5zM62 62h5v5h-5zM67 62h5v5h-5zM72 62h5v5h-5zM82 62h5v5h-5zM97 62h5v5h-5zM102 62h5v5h-5zM107 62h5v5h-5zM117 62h5v5h-5zM127 62h5v5h-5zM132 62h5v5h-5zM147 62h5v5h-5zM152 62h5v5h-5zM157 62h5v5h-5zM162 62h5v5h-5zM167 62h5v5h-5zM172 62h5v5h-5zM177 62h5v5h-5zM7 67h5v5h-5zM22 67h5v5h-5zM32 67h5v5h-5zM37 67h5v5h-5zM47 67h5v5h-5zM57 67h5v5h-5zM62 67h5v5h-5zM67 67h5v5h-5zM72 67h5v5h-5zM77 67h5v5h-5zM82 67h5v5h-5zM87 67h5v5h-5zM92 67h5v5h-5zM122 67h5v5h-5zM127 67h5v5h-5zM132 67h5v5h-5zM142 67h5v5h-5zM152 67h5v5h-5zM157 67h5v5h-5zM162 67h5v5h-5zM172 67h5v5h-5zM177 67h5v5h-5zM187 67h5v5h-5zM7 72h5v5h-5zM17 72h5v5h-5zM22 72h5v5h-5zM32 72h5v5h-5zM42 72h5v5h-5zM47 72h5v5h-5zM62 72h5v5h-5zM77 72h5v5h-5zM82 72h5v5h-5zM87 72h5v5h-5zM102 72h5v5h-5zM137 72h5v5h-5zM142 72h5v5h-5zM162 72h5v5h-5zM167 72h5v5h-5zM172 72h5v5h-5zM182 72h5v5h-5zM187 72h5v5h-5zM7 77h5v5h-5zM12 77h5v5h-5zM32 77h5v5h-5zM37 77h5v5h-5zM47 77h5v5h-5zM57 77h5v5h-5zM67 77h5v5h-5zM72 77h5v5h-5zM77 77h5v5h-5zM97 77h5v5h-5zM102 77h5v5h-5zM117 77h5v5h-5zM132 77h5v5h-5zM147 77h5v5h-5zM152 77h5v5h-5zM172 77h5v5h-5zM177 77h5v5h-5zM7 82h5v5h-5zM17 82h5v5h-5zM22 82h5v5h-5zM27 82h5v5h-5zM42 82h5v5h-5zM52 82h5v5h-5zM77 82h5v5h-5zM82 82h5v5h-5zM87 82h5v5h-5zM102 82h5v5h-5zM107 82h5v5h-5zM112 82h5v5h-5zM147 82h5v5h-5zM152 82h5v5h-5zM162 82h5v5h-5zM187 82h5v5h-5zM7 87h5v5h-5zM22 87h5v5h-5zM27 87h5v5h-5zM37 87h5v5h-5zM42 87h5v5h-5zM47 87h5v5h-5zM72 87h5v5h-5zM112 87h5v5h-5zM117 87h5v5h-5zM122 87h5v5h-5zM127 87h5v5h-5zM142 87h5v5h-5zM162 87h5v5h-5zM167 87h5v5h-5zM172 87h5v5h-5zM177 87h5v5h-5zM182 87h5v5h-5zM187 87h5v5h-5zM7 92h5v5h-5zM17 92h5v5h-5zM22 92h5v5h-5zM27 92h5v5h-5zM42 92h5v5h-5zM52 92h5v5h-5zM62 92h5v5h-5zM67 92h5v5h-5zM77 92h5v5h-5zM82 92h5v5h-5zM92 92h5v5h-5zM107 92h5v5h-5zM122 92h5v5h-5zM127 92h5v5h-5zM132 92h5v5h-5zM142 92h5v5h-5zM157 92h5v5h-5zM172 92h5v5h-5zM177 92h5v5h-5zM182 92h5v5h-5zM187 92h5v5h-5zM12 97h5v5h-5zM22 97h5v5h-5zM27 97h5v5h-5zM32 97h5v5h-5zM37 97h5v5h-5zM42 97h5v5h-5zM47 97h5v5h-5zM82 97h5v5h-5zM107 97h5v5h-5zM117 97h5v5h-5zM127 97h5v5h-5zM137 97h5v5h-5zM142 97h5v5h-5zM147 97h5v5h-5zM152 97h5v5h-5zM157 97h5v5h-5zM162 97h5v5h-5zM167 97h5v5h-5zM172 97h5v5h-5zM177 97h5v5h-5zM182 97h5v5h-5zM187 97h5v5h-5zM12 102h5v5h-5zM17 102h5v5h-5zM22 102h5v5h-5zM32 102h5v5h-5zM42 102h5v5h-5zM52 102h5v5h-5zM67 102h5v5h-5zM77 102h5v5h-5zM87 102h5v5h-5zM92 102h5v5h-5zM117 102h5v5h-5zM127 102h5v5h-5zM137 102h5v5h-5zM142 102h5v5h-5zM147 102h5v5h-5zM162 102h5v5h-5zM172 102h5v5h-5zM7 107h5v5h-5zM12 107h5v5h-5zM37 107h5v5h-5zM47 107h5v5h-5zM52 107h5v5h-5zM62 107h5v5h-5zM72 107h5v5h-5zM77 107h5v5h-5zM87 107h5v5h-5zM92 107h5v5h-5zM102 107h5v5h-5zM112 107h5v5h-5zM122 107h5v5h-5zM137 107h5v5h-5zM147 107h5v5h-5zM152 107h5v5h-5zM162 107h5v5h-5zM167 107h5v5h-5zM182 107h5v5h-5zM7 112h5v5h-5zM12 112h5v5h-5zM27 112h5v5h-5zM32 112h5v5h-5zM47 112h5v5h-5zM62 112h5v5h-5zM87 112h5v5h-5zM97 112h5v5h-5zM102 112h5v5h-5zM107 112h5v5h-5zM112 112h5v5h-5zM117 112h5v5h-5zM122 112h5v5h-5zM147 112h5v5h-5zM7 117h5v5h-5zM12 117h5v5h-5zM17 117h5v5h-5zM22 117h5v5h-5zM37 117h5v5h-5zM42 117h5v5h-5zM47 117h5v5h-5zM62 117h5v5h-5zM67 117h5v5h-5zM77 117h5v5h-5zM92 117h5v5h-5zM107 117h5v5h-5zM112 117h5v5h-5zM117 117h5v5h-5zM122 117h5v5h-5zM127 117h5v5h-5zM147 117h5v5h-5zM152 117h5v5h-5zM162 117h5v5h-5zM167 117h5v5h-5zM172 117h5v5h-5zM7 122h5v5h-5zM17 122h5v5h-5zM27 122h5v5h-5zM47 122h5v5h-5zM62 122h5v5h-5zM72 122h5v5h-5zM87 122h5v5h-5zM102 122h5v5h-5zM107 122h5v5h-5zM127 122h5v5h-5zM132 122h5v5h-5zM137 122h5v5h-5zM147 122h5v5h-5zM157 122h5v5h-5zM162 122h5v5h-5zM167 122h5v5h-5zM172 122h5v5h-5zM177 122h5v5h-5zM12 127h5v5h-5zM17 127h5v5h-5zM27 127h5v5h-5zM32 127h5v5h-5zM37 127h5v5h-5zM52 127h5v5h-5zM57 127h5v5h-5zM67 127h5v5h-5zM72 127h5v5h-5zM77 127h5v5h-5zM82 127h5v5h-5zM92 127h5v5h-5zM117 127h5v5h-5zM127 127h5v5h-5zM132 127h5v5h-5zM137 127h5v5h-5zM157 127h5v5h-5zM177 127h5v5h-5zM182 127h5v5h-5zM12 132h5v5h-5zM17 132h5v5h-5zM42 132h5v5h-5zM47 132h5v5h-5zM67 132h5v5h-5zM77 132h5v5h-5zM82 132h5v5h-5zM92 132h5v5h-5zM102 132h5v5h-5zM117 132h5v5h-5zM127 132h5v5h-5zM142 132h5v5h-5zM147 132h5v5h-5zM152 132h5v5h-5zM157 132h5v5h-5zM162 132h5v5h-5zM167 132h5v5h-5zM182 132h5v5h-5zM187 132h5v5h-5zM12 137h5v5h-5zM22 137h5v5h-5zM27 137h5v5h-5zM32 137h5v5h-5zM37 137h5v5h-5zM42 137h5v5h-5zM52 137h5v5h-5zM77 137h5v5h-5zM87 137h5v5h-5zM97 137h5v5h-5zM102 137h5v5h-5zM112 137h5v5h-5zM127 137h5v5h-5zM137 137h5v5h-5zM182 137h5v5h-5zM7 142h5v5h-5zM32 142h5v5h-5zM42 142h5v5h-5zM62 142h5v5h-5zM77 142h5v5h-5zM112 142h5v5h-5zM117 142h5v5h-5zM157 142h5v5h-5zM162 142h5v5h-5zM182 142h5v5h-5zM187 142h5v5h-5zM17 147h5v5h-5zM32 147h5v5h-5zM37 147h5v5h-5zM47 147h5v5h-5zM72 147h5v5h-5zM82 147h5v5h-5zM87 147h5v5h-5zM97 147h5v5h-5zM102 147h5v5h-5zM112 147h5v5h-5zM132 147h5v5h-5zM147 147h5v5h-5zM152 147h5v5h-5zM157 147h5v5h-5zM162 147h5v5h-5zM167 147h5v5h-5zM177 147h5v5h-5zM182 147h5v5h-5zM47 152h5v5h-5zM52 152h5v5h-5zM57 152h5v5h-5zM62 152h5v5h-5zM82 152h5v5h-5zM87 152h5v5h-5zM92 152h5v5h-5zM107 152h5v5h-5zM112 152h5v5h-5zM117 152h5v5h-5zM122 152h5v5h-5zM127 152h5v5h-5zM132 152h5v5h-5zM142 152h5v5h-5zM147 152h5v5h-5zM167 152h5v5h-5zM172 152h5v5h-5zM7 157h5v5h-5zM12 157h5v5h-5zM17 157h5v5h-5zM22 157h5v5h-5zM27 157h5v5h-5zM32 157h5v5h-5zM37 157h5v5h-5zM57 157h5v5h-5zM67 157h5v5h-5zM77 157h5v5h-5zM82 157h5v5h-5zM107 157h5v5h-5zM117 157h5v5h-5zM127 157h5v5h-5zM137 157h5v5h-5zM147 157h5v5h-5zM157 157h5v5h-5zM167 157h5v5h-5zM177 157h5v5h-5zM182 157h5v5h-5zM187 157h5v5h-5zM7 162h5v5h-5zM37 162h5v5h-5zM57 162h5v5h-5zM62 162h5v5h-5zM67 162h5v5h-5zM87 162h5v5h-5zM92 162h5v5h-5zM97 162h5v5h-5zM122 162h5v5h-5zM142 162h5v5h-5zM147 162h5v5h-5zM167 162h5v5h-5zM7 167h5v5h-5zM17 167h5v5h-5zM22 167h5v5h-5zM27 167h5v5h-5zM37 167h5v5h-5zM52 167h5v5h-5zM57 167h5v5h-5zM62 167h5v5h-5zM77 167h5v5h-5zM82 167h5v5h-5zM87 167h5v5h-5zM92 167h5v5h-5zM97 167h5v5h-5zM102 167h5v5h-5zM112 167h5v5h-5zM127 167h5v5h-5zM137 167h5v5h-5zM147 167h5v5h-5zM152 167h5v5h-5zM157 167h5v5h-5zM162 167h5v5h-5zM167 167h5v5h-5zM182 167h5v5h-5zM7 172h5v5h-5zM17 172h5v5h-5zM22 172h5v5h-5zM27 172h5v5h-5zM37 172h5v5h-5zM47 172h5v5h-5zM52 172h5v5h-5zM57 172h5v5h-5zM62 172h5v5h-5zM87 172h5v5h-5zM97 172h5v5h-5zM102 172h5v5h-5zM107 172h5v5h-5zM112 172h5v5h-5zM122 172h5v5h-5zM132 172h5v5h-5zM152 172h5v5h-5zM157 172h5v5h-5zM162 172h5v5h-5zM177 172h5v5h-5zM7 177h5v5h-5zM17 177h5v5h-5zM22 177h5v5h-5zM27 177h5v5h-5zM37 177h5v5h-5zM47 177h5v5h-5zM57 177h5v5h-5zM62 177h5v5h-5zM67 177h5v5h-5zM77 177h5v5h-5zM87 177h5v5h-5zM92 177h5v5h-5zM107 177h5v5h-5zM122 177h5v5h-5zM127 177h5v5h-5zM142 177h5v5h-5zM152 177h5v5h-5zM162 177h5v5h-5zM167 177h5v5h-5zM7 182h5v5h-5zM37 182h5v5h-5zM47 182h5v5h-5zM57 182h5v5h-5zM72 182h5v5h-5zM77 182h5v5h-5zM87 182h5v5h-5zM97 182h5v5h-5zM102 182h5v5h-5zM107 182h5v5h-5zM122 182h5v5h-5zM127 182h5v5h-5zM132 182h5v5h-5zM152 182h5v5h-5zM162 182h5v5h-5zM177 182h5v5h-5zM7 187h5v5h-5zM12 187h5v5h-5zM17 187h5v5h-5zM22 187h5v5h-5zM27 187h5v5h-5zM32 187h5v5h-5zM37 187h5v5h-5zM47 187h5v5h-5zM62 187h5v5h-5zM67 187h5v5h-5zM72 187h5v5h-5zM77 187h5v5h-5zM92 187h5v5h-5zM102 187h5v5h-5zM117 187h5v5h-5zM122 187h5v5h-5zM127 187h5v5h-5zM132 187h5v5h-5zM137 187h5v5h-5zM157 187h5v5h-5zM172 187h5v5h-5zM177 187h5v5h-5zM182 187h5v5h-5zM187 187h5v5h-5z"/></svg>