<svg width="462pt" height="173pt" viewBox="0 0 462 173" xmlns="http://www.w3.org/2000/svg"><g><path d="M249.62 33.19c21.78-11.02 43.57-22 65.36-32.99-10.58 23.6-21.18 47.19-31.79 70.78-2.82-6.59-5.59-13.19-8.4-19.78-12 11.8-24.02 23.57-35.98 35.41 7.4 7.39 14.79 14.79 22.18 22.18 6.21-1.58 12.41-3.21 18.62-4.78l35.38 35.99c-8.4 2.21-16.81 4.38-25.2 6.6-2.2 8.39-4.39 16.79-6.61 25.18-11.79-11.88-23.78-23.56-35.42-35.59 1.75-6.09 3.21-12.27 4.83-18.39-7.41-7.4-14.79-14.83-22.22-22.2-7.57 7.67-15.31 15.18-22.8 22.92 1.7 6.13 3.21 12.31 4.82 18.47-11.79 11.8-23.58 23.6-35.4 35.38-2.21-8.38-4.41-16.75-6.57-25.14-8.39-2.28-16.81-4.41-25.22-6.63 11.8-11.82 23.6-23.65 35.45-35.42 6.16 1.64 12.34 3.19 18.51 4.82 7.63-7.58 15.21-15.21 22.82-22.81-12.19-12.2-24.38-24.41-36.59-36.58-3 5.57-5.99 11.14-8.95 16.73-11.13-21.71-22.01-43.55-33.04-65.32 23.6 10.57 47.18 21.17 70.76 31.77-6.58 2.83-13.18 5.58-19.76 8.4l35.97 35.98c12.03-11.96 24.01-23.98 36.01-35.98-5.58-3.02-11.19-5.98-16.76-9m25.78.61c1.81 1.08 3.89 1.82 5.43 3.29.84 1.4 1.51 2.92 2.54 4.2 2.27-5.12 4.68-10.18 7-15.27-5 2.58-9.99 5.17-14.97 7.78m-105.57-7.18c2.37 4.8 4.77 9.59 7.18 14.37 1.91-3.31 4.67-5.91 8.31-7.21-5.16-2.41-10.32-4.79-15.49-7.16m94.74 93.6c-.98 3.76-1.93 7.52-3 11.25 5.11 5.32 10.41 10.47 15.61 15.69.98-3.74 2.04-7.47 2.91-11.25 3.78-1.19 7.66-2.05 11.48-3.11-5.17-5.22-10.38-10.4-15.57-15.61-3.81 1-7.63 1.98-11.43 3.03m-95.95 13.77c3.99 1.03 8 1.99 11.99 3.04.98 3.98 1.99 7.96 2.97 11.95 5.03-5.36 9.98-10.79 15.01-16.16-.99-3.82-2-7.62-3-11.43-3.8-1-7.61-2.01-11.42-2.99-5.17 5.2-10.39 10.37-15.55 15.59zM.6 69.18c43.8 0 87.6.01 131.39 0 .01 4 .01 8 0 12-43.79.01-87.59.01-131.39 0-.01-4-.01-8 0-12zM330.6 69.19c43.8 0 87.6-.01 131.4 0v12c-43.8-.01-87.6.01-131.4-.01-.02-4-.02-8 0-11.99zM.6 92.6c43.8-.01 87.6-.01 131.4 0 0 4 .01 8-.01 12-43.8-.02-87.6.02-131.4-.02 0-4 0-7.99.01-11.98zM330.6 92.6c43.8-.02 87.6-.01 131.4-.01v12c-43.8 0-87.6.02-131.41-.01-.01-3.99 0-7.99.01-11.98z"/></g></svg>