<svg width="418pt" height="72pt" viewBox="0 0 418 72" xmlns="http://www.w3.org/2000/svg"><g><path d="M181.18 0h.56c8.79 9.47 18.18 18.39 27.26 27.58 7.28-7.24 14.52-14.52 21.79-21.78 1.87-1.85 3.85-3.61 5.36-5.8h.32c2.96 2.65 5.65 5.6 8.52 8.36-9.15 9.26-18.42 18.4-27.58 27.64 9.15 9.25 18.46 18.35 27.56 27.65-2.72 2.78-5.64 5.37-8.15 8.35h-.56c-8.75-9.5-18.21-18.36-27.26-27.59-9.06 9.23-18.53 18.09-27.28 27.59h-.48c-2.6-2.93-5.51-5.57-8.23-8.39 9.16-9.23 18.4-18.38 27.57-27.61-9.16-9.25-18.45-18.36-27.56-27.66 2.73-2.77 5.63-5.38 8.16-8.34zM.2 30c49.99.01 99.99-.01 149.98.01.01 3.99.01 7.99 0 11.98-49.99.02-99.99 0-149.98.01-.02-4-.02-8 0-12zM267.8 30.01c50-.02 99.99 0 149.99-.01.01 4 .01 8 0 12-50 0-99.99.01-149.99 0-.01-4-.01-8 0-11.99z"/></g></svg>