<svg width="512pt" height="512pt" viewBox="0 0 512 512" xmlns="http://www.w3.org/2000/svg"><g fill="#424242"><path d="M124.42 0h322.08c16.61 1.11 32.85 8.07 44.67 19.86 12.34 11.9 19.66 28.52 20.83 45.57v9.22c-42.65.03-85.29-.02-127.94.02-.11 28.77-.04 57.55-.03 86.32-.19 1.37.38 3.14-.8 4.2-3.21 3.25-6.48 6.43-9.7 9.67-.01-36.63.05-73.25.05-109.88.86-17.3 8.84-34.02 21.43-45.88 3.18-3.13 6.88-5.65 10.4-8.38-92.14-.13-184.28-.04-276.41-.05-17.43-.42-34.72 8.4-44.62 22.74-6.49 9.17-9.92 20.42-9.71 31.66-.02 127.64-.04 255.28.01 382.93 63.98 0 127.96-.04 191.93.01-.01 16.36 7.9 32.49 20.99 42.33 11.6 9.01 27.06 12.75 41.52 10.2 17.98-3.02 33.82-15.94 40.45-32.92 2.78-6.83 3.91-14.25 3.75-21.6.08-45.12-.01-90.24.15-135.36 3.54-3.44 7-6.98 10.52-10.44.03 49.26.03 98.52 0 147.79.09 16.77-6.86 33.38-18.7 45.24-11.02 11.09-26.17 17.7-41.74 18.75h-263.08c-16.02-1.07-31.66-8.02-42.69-19.76-10.58-10.84-16.74-25.57-17.78-40.62v-3.61c21.33-.04 42.67-.02 64-.01-.01-127.67-.02-255.34 0-383-.39-18.55 7.82-37.04 21.83-49.19 10.65-9.38 24.47-14.84 38.59-15.81m278.1 26.58c-10.43 9.68-17 23.27-18.3 37.42 38.95-.01 77.91-.02 116.87 0-1.08-11.4-5.48-22.49-12.73-31.37-9.77-12.31-24.7-20.4-40.37-21.71-16.47-1.63-33.49 4.25-45.47 15.66m-390.8 432.09c1.64 7.6 4.79 14.93 9.52 21.13 9.8 13.4 26.17 21.63 42.78 21.53 73.37-.03 146.74.05 220.11-.04-.97-.93-2-1.79-3.09-2.56-12.71-9.69-21.55-24.29-24.18-40.06-81.72-.02-163.43-.02-245.14 0zM106.67 42.67c78.21-.03 156.43-.02 234.63 0 .03 3.54.02 7.09.01 10.63-78.23.09-156.47-.03-234.7.05.06-3.56.05-7.12.06-10.68zM106.66 96.01c78.24-.03 156.47-.03 234.7 0 .02 3.49-.1 6.99.02 10.49-29.12.38-58.26.03-87.39.17-49.12-.12-98.26.17-147.38-.14.09-3.51.05-7.02.05-10.52zM354.95 208.72c35.04-35.39 70.38-70.5 105.6-105.72 2.5 2.54 5.05 5.02 7.52 7.6-7.56 7.48-15.05 15.03-22.57 22.55 2.45 2.55 4.94 5.05 7.47 7.53 4.67-4.23 8.48-9.79 14.54-12.17 7.75-3.31 17.39-1.33 23.25 4.72 5.16 5.19 10.39 10.3 15.5 15.54 3.19 3.21 4.8 7.57 5.74 11.91v5.26c-.93 4.7-2.91 9.27-6.4 12.63-30.11 30.11-60.22 60.22-90.34 90.33-2.55-2.46-5.01-5.01-7.5-7.52-31.29 31.15-62.45 62.43-93.69 93.63-13.29 13.5-26.75 27.22-43.29 36.77-6.93 3.99-14.49 7.64-22.65 7.75-1.28-.18-2.08.85-2.89 1.63-4.92 4.96-9.81 9.96-14.84 14.81-2.49-2.52-5.05-4.98-7.44-7.59 5.51-5.44 11.01-10.91 16.43-16.44-.31-7.56 2.75-14.72 6.3-21.23 7.58-13.8 17.96-25.85 29.18-36.82 34.22-34.24 68.47-68.44 102.68-102.7-2.53-2.5-5.07-4.98-7.53-7.54 25.12-25.15 50.29-50.25 75.39-75.42-2.48-2.52-4.98-5.02-7.52-7.47-25.09 25.11-50.27 50.14-75.27 75.35-2.67-2.35-5.03-5.02-7.67-7.39m112.93-67.86c-27.59 27.6-55.21 55.18-82.78 82.8 2.47 2.54 5.07 4.97 7.53 7.53-32.72 32.76-65.47 65.48-98.2 98.22-11.95 12.1-24.73 23.62-34.17 37.89-4.34 6.69-8.75 13.7-10.26 21.65 3.82-.79 7.47-2.2 10.94-3.98 17.35-8.77 31.12-22.82 44.6-36.51 34.06-34.05 68.1-68.11 102.17-102.15 2.58 2.44 5.02 5.02 7.55 7.52 27.61-27.58 55.19-55.18 82.78-82.78 4.3-3.89 4.36-11.25.19-15.26-5.21-5.17-10.32-10.44-15.6-15.54-4.05-3.79-11.02-3.5-14.75.61zM106.67 149.34c62.11-.04 124.22.01 186.33-.02 16.12.1 32.25-.17 48.37.13-.1 3.54-.01 7.07-.01 10.61-78.14-.16-156.29.06-234.43-.11-.71-3.35-.11-7.11-.26-10.61zM106.67 202.68c78.22-.04 156.43-.04 234.64-.01.01 3.55.05 7.09-.04 10.64-78.22.07-156.44-.04-234.65.05.05-3.56.04-7.12.05-10.68zM106.66 256.01c64-.02 128-.05 192 .01.01 3.54.02 7.08-.02 10.62-64-.03-128.02.15-192.02-.09.07-3.52.04-7.03.04-10.54zM106.66 309.34c42.66-.03 85.33-.02 127.99 0 .01 3.52-.03 7.04.05 10.57-42.64.25-85.3-.01-127.94.13-.22-3.56-.12-7.13-.1-10.7zM106.67 362.68c42.66-.06 85.32-.02 127.98-.02.04 3.55.01 7.1-.02 10.65-42.67.06-85.34-.04-128.01.05.05-3.56.05-7.12.05-10.68z"/></g></svg>