<svg width="512pt" height="512pt" viewBox="0 0 512 512" xmlns="http://www.w3.org/2000/svg"><g fill="#424242"><path d="M189.63 0h46.83c10.78.89 19.55 10.54 19.67 21.31 7.62.09 15.25-.1 22.88.09 10.52.58 19.51 10.01 19.62 20.54.05 14.46.03 28.92.01 43.38-56.87.01-113.74.01-170.6 0-.06-14.46-.11-28.92.01-43.38.06-10.41 8.87-19.78 19.26-20.48 7.71-.28 15.44-.14 23.15-.05.19-10.63 8.58-20.13 19.17-21.41m-6.41 15.31c-3.25 4.94-1.43 11.15-1.9 16.68-10.82.1-21.64-.1-32.45.08-5.3.02-9.98 4.65-10.15 9.92-.18 10.87.04 21.74-.1 32.61 49.77.12 99.54.03 149.31.05.15-10.55 0-21.1.07-31.64.34-5.94-5.11-11.38-11.05-11.01-10.54.06-21.08-.05-31.62.04-.04-3.67.08-7.35-.03-11.03-.04-5.46-4.88-10.42-10.4-10.33-13.96-.06-27.92 0-41.87-.03-3.79-.22-7.69 1.45-9.81 4.66zM0 21.33l125.54-.01c-2.73 3.2-4.77 6.89-6.44 10.74-36.14-.12-72.29-.01-108.44-.06-.01 156.44 0 312.88 0 469.33l405.34-.01c0-15.5-.04-31.01.01-46.51 3.57-.9 7.14-1.84 10.67-2.94-.05 20.04-.01 40.09-.03 60.13h-426.65v-490.67zM301.08 21.3c41.85.07 83.71-.01 125.57.04.02 55.57 0 111.15 0 166.72-3.54-1.07-7.11-2.03-10.71-2.86.13-51.07 0-102.14.06-153.2-36.22.01-72.44.05-108.66-.03-1.37-3.93-3.6-7.49-6.26-10.67zM42.68 63.96c-.3-11.06 9.39-21.15 20.46-21.26l54.23-.09c-.06 3.57-.06 7.14-.05 10.71-17.77.06-35.53-.05-53.3.04-6.13-.27-11.35 5.61-10.68 11.65-.02 134.64-.02 269.28.01 403.92-.43 5.82 4.72 11.11 10.52 11.04 99.39.03 198.77.04 298.16 0 5.65.48 11.1-4.29 11.24-9.98.13-3.95.01-7.9.06-11.85 3.51.25 7.03.48 10.55.43-.02 6.79 1.15 14.11-2.17 20.37-3.61 7.24-11.54 12.04-19.65 11.71-99.36 0-198.73.03-298.1-.01-8.12.1-15.87-4.94-19.29-12.26-2.79-5.38-1.83-11.59-2.02-17.4.02-132.34-.03-264.68.03-397.02zM309.33 53.32c-.01-3.56-.08-7.13.09-10.69 17.86.07 35.71-.02 53.57.04 11.23-.13 21.25 10.03 21 21.25.04 39.12.03 78.24 0 117.36-3.56.12-7.11.33-10.66.55-.02-39.26.03-78.53-.02-117.79.21-5.61-4.72-10.65-10.3-10.69-17.9-.06-35.79.01-53.68-.03zM170.64 106.64c56.89.05 113.78-.03 170.67.04.01 3.56 0 7.12.05 10.68-56.89-.09-113.79.02-170.68-.05-.02-3.56-.08-7.11-.04-10.67zM85.34 170.65c.02-21.34-.11-42.68.06-64.01l63.91.03c.08 21.33-.06 42.66.07 63.99-21.35-.02-42.69.02-64.04-.01m10.65-53.33c.05 14.23.01 28.46.01 42.68 14.21-.03 28.42 0 42.63 0 .08-14.23-.01-28.45.03-42.67-14.23-.01-28.45.02-42.67-.01zM170.57 149.39c56.88-.17 113.77.03 170.65-.11.17 3.59.1 7.19.14 10.78-56.9-.13-113.79.01-170.69-.07 0-3.53.02-7.07-.1-10.6zM311.59 214.46c20.02-13.83 44.08-21.7 68.41-22.37 26.05-.89 52.33 6.45 74.09 20.82 20.03 13.09 36.26 31.91 46.22 53.67 7.37 15.86 11.19 33.26 11.69 50.72v8.87c-1.16 15.98-4.61 31.88-11.34 46.48-14.26 31.89-42.21 57.37-75.35 68.49-35.76 12.39-76.95 7.73-108.96-12.49-23.16-14.39-41.54-36.36-51.46-61.78-10.16-25.6-11.62-54.53-4.24-81.06 7.85-28.81 26.31-54.51 50.94-71.35m62.46-11.36c-20.38 1.69-40.3 8.85-57.02 20.64-21.75 15.15-38.29 37.79-45.63 63.3-7.63 25.78-5.98 54.22 4.67 78.91 11.38 26.89 33.22 49.14 59.88 61.04 34.34 15.77 76.28 13.25 108.5-6.5 27.94-16.71 48.35-45.5 54.57-77.49 4.75-23.49 2.04-48.45-7.71-70.35-10.16-23.07-27.99-42.69-50-54.98-20.26-11.51-44.06-16.57-67.26-14.57zM85.31 213.31c21.34.04 42.68 0 64.01.02-.01 21.32.05 42.65-.02 63.97-21.32.07-42.65.02-63.97.02-.02-21.34.02-42.67-.02-64.01m10.69 10.74c.02 14.21-.01 28.41.03 42.61 14.21 0 28.42-.02 42.64 0-.04-14.21-.01-28.42-.01-42.63-14.22-.01-28.44-.07-42.66.02zM170.61 213.43c41.57-.25 83.15-.03 124.72-.11-3.82 3.48-7.64 6.95-11.21 10.68-37.82.01-75.64.04-113.46-.02 0-3.52.03-7.03-.05-10.55zM170.67 256.01c30.14-.02 60.28-.05 90.43.01-1.84 3.5-3.49 7.08-5.15 10.66-28.45-.13-56.9.13-85.35-.13.1-3.51.06-7.03.07-10.54zM368.14 362.77c28.92-28.91 57.82-57.83 86.74-86.72l7.5 7.43c-31.28 31.57-62.84 62.88-94.23 94.35-18.88-18.75-37.57-37.69-56.5-56.38 2.25-2.75 4.95-5.09 7.41-7.65 16.46 16.22 32.71 32.66 49.08 48.97zM85.32 320.02c21.31-.08 42.62.02 63.92-.05.17 21.34.11 42.7.03 64.04-21.31-.03-42.63.04-63.95-.03.01-21.32.01-42.64 0-63.96m10.68 10.64c.01 14.22.02 28.44 0 42.66 14.2.03 28.4-.04 42.6.04.06-14.25.15-28.52-.05-42.77-14.18.16-28.37.02-42.55.07zM170.67 320.01c24.87-.03 49.75-.04 74.62.01.07 3.55.28 7.09.55 10.63-25.1-.07-50.21.16-75.31-.11.17-3.51.13-7.02.14-10.53zM170.67 373.31c-.08-3.55-.03-7.09.01-10.63 27.13-.05 54.26-.03 81.39-.01 1.23 3.6 2.61 7.14 3.83 10.75-28.41-.23-56.82 0-85.23-.11z"/></g></svg>