<svg width="512pt" height="512pt" viewBox="0 0 512 512" xmlns="http://www.w3.org/2000/svg"><g fill="#424242"><path d="M238.34 0h13.37c10.05.5 20.1 1.28 30.04 2.92-5.36 2.62-10.58 5.54-15.62 8.72-42.78-3.95-86.86 4.26-124.77 24.67-25.41 13.6-48.03 32.9-64.07 56.96-13.96 20.93-22.66 45.54-23.79 70.75-.2 3.58.07 7.2-.63 10.74-2.85 15.24-5.77 30.48-9.74 45.47-4.22 16.74-11.63 32.88-22.87 46.07-2.37 1.23-5.16 1.89-6.93 4.05-3.65 3.82-3.53 10.43.16 14.19 2.12 2.33 5.27 3.62 8.42 3.47 10.47-.09 20.95.07 31.42-.07.05 14.18-.11 28.36.09 42.53-3.57.42-7.17.09-10.75.2 0 7.11-.05 14.23 0 21.34 7.11-.1 14.23.03 21.34 0-.01 17.65.02 35.31-.01 52.97-.09 8.37 6.97 14.73 14.1 17.88 10.55 5.14 22.56 3.57 33.89 3.78 10.05.31 20.34-.96 30.14 1.93 17.7 4.71 32.32 19.25 37.17 36.91 3.38 11.66 1.51 23.91 2.09 35.87 63.97-.06 127.95.01 191.92-.04.26-24.45-.59-48.93.79-73.37 1.74-28.51 6.19-56.86 13.46-84.49 4.65-18.31 11.12-36.08 17.12-53.97 5.4-16.11 10.9-32.19 16.31-48.29.93-.58 1.86-1.17 2.79-1.78 2.23 2.41 4.52 4.76 6.7 7.22-7.8 22.6-15.33 45.29-23.01 67.93-13.7 39.56-21.55 81.15-23.13 122.98-.7 24.81-.15 49.64-.34 74.46h-213.35c-.01-11.36.06-22.72-.05-34.07-.6-17.2-12.74-33.22-29.14-38.42-8.81-3.2-18.27-1.9-27.42-2.19-11.37-.29-23.08 1.17-34.1-2.35-7.94-2.4-15.42-6.81-20.67-13.32-3.72-4.7-6.04-10.59-5.95-16.62.01-14.12.01-28.24 0-42.36-4.08-.12-8.16.16-12.22-.15-5.48-.62-9.75-6.17-9.05-11.62.32-4.64 4.07-8.45 8.51-9.46-4.55-1.51-8.53-5.42-8.58-10.44-.38-5.97 4.9-10.95 10.68-11.22-.08-7.04.13-14.08-.08-21.12-7.85-.11-15.72.19-23.57-.14-9.62-.87-17.46-8.95-19.01-18.33v-4.88c.78-6.81 4.84-13.26 10.99-16.43 1.19-.71 2.64-1.14 3.48-2.31 8.81-11.43 14.73-24.87 18.28-38.81 3.97-15.38 7.19-30.95 9.82-46.61.1-20.8 4.41-41.59 13.02-60.56 16.38-36.78 46.94-66.08 82.31-84.65 30.86-16.38 65.62-24.69 100.44-25.94zM337.31 0h10.08c25.47 1.5 50.56 10.23 70.9 25.74 20.48 15.41 36.23 37.08 44.34 61.42 8.87 26.21 8.92 55.33.04 81.55-6.07 18.3-16.53 35.08-30.01 48.85 26.27 28.3 52.91 56.28 79.34 84.45v.08c-2.58 2.19-4.9 4.67-7.47 6.86l-1.58-.96c-26.06-27.69-52.09-55.4-78.19-83.06-13.68 11.71-29.74 20.68-47.04 25.76-29.67 8.93-62.6 6.47-90.62-6.76-26.39-12.27-48.31-33.87-60.94-60.09-11.36-23.15-15.23-49.81-11.34-75.27 4.34-29.25 19.38-56.68 41.52-76.25 22.1-19.86 51.31-31.33 80.97-32.32m-6.23 11.12c-34.45 2.77-67.01 21.93-86.43 50.48-14.91 21.51-22.25 48.17-20.35 74.29 1.61 26.09 12.47 51.46 30.08 70.75 18.19 20.28 43.69 33.85 70.69 37.54 24.85 3.52 50.79-1.22 72.75-13.4 23.84-13.11 42.94-34.72 52.76-60.13 10.51-26.54 10.72-56.98.63-83.68-9.07-24.49-26.68-45.64-48.97-59.21-21.14-12.96-46.47-18.88-71.16-16.64z"/></g></svg>