<svg width="512pt" height="512pt" viewBox="0 0 512 512" xmlns="http://www.w3.org/2000/svg"><g fill="#424242"><path d="M0 51.75c.74-11.02 10.89-20.28 21.97-19.75 154-.03 308 0 462-.01 5.08-.04 10.44-.43 15.18 1.79 7 2.91 11.78 9.83 12.85 17.24v324.37c-1.08 10.43-10.4 19.29-20.98 19.24-55.13.07-110.27-.01-165.4.04-.54 8.6-.02 17.31 1.74 25.75 2.79 9.56 5.38 19.19 8.24 28.73 2.92 7.53 7.62 14.27 13.08 20.18 4.65-.02 9.3 0 13.96.01.02 3.56.03 7.12.03 10.68-71.11-.05-142.23.03-213.34-.04l-.02-10.67c6.47-.03 12.94.14 19.41-.08 6.15-7.1 11.86-15.02 14.15-24.28 2.31-8.69 5.03-17.27 7.28-25.97 1.46-8 1.88-16.21 1.43-24.33-56.86.01-113.73.03-170.6-.01-10.54.06-19.78-8.68-20.98-19.03v-323.86m16.68-8.01c-3.84 1.81-6.23 6.02-6.03 10.23.01 81.56.02 163.12-.01 244.68 163.57-.02 327.13.06 490.69-.04-.02-81.88.03-163.77-.03-245.65.03-5.86-5.55-10.74-11.32-10.31-154.35.02-308.69.01-463.04 0-3.42.09-7.07-.48-10.26 1.09m-6.01 265.63c0 21.54-.07 43.09.04 64.63.11 5.73 5.61 10.37 11.24 10.01l469.17-.04c5.65-.09 10.5-5.38 10.21-11.01 0-21.21-.01-42.42 0-63.63-163.55.03-327.11-.05-490.66.04m186.5 127.86c-3.18 11.43-7.97 22.5-14.97 32.13 50.92-.05 101.84-.06 152.76 0-3.95-5.4-7.2-11.3-9.83-17.45-7.46-18.04-11.18-37.74-10.22-57.26-37.53.01-75.06.01-112.59 0 .66 14.35-1.24 28.77-5.15 42.58zM282.42 74.66c3.75-.06 7.5.01 11.26.01-21.35 64-42.71 127.99-64.07 191.97-3.75.01-7.49.01-11.23.01 21.33-64 42.72-127.99 64.04-191.99zM191.93 111.23c.06 4.12.21 8.26-.09 12.39-31.9 17.28-63.6 34.94-95.43 52.37 31.87 17.57 63.79 35.06 95.66 52.64-.12 4.03-.06 8.07-.08 12.11-35.56-19.63-71.27-39.01-106.73-58.84.2-4.05-.15-8.12.21-12.17 35.55-19.38 71-38.96 106.46-58.5zM320 111.26c35.58 19.59 71.26 39.02 106.73 58.81-.09 3.95-.12 7.9-.02 11.85-35.46 19.84-71.22 39.17-106.76 58.89.03-4.03.13-8.05-.02-12.07 31.77-17.77 63.78-35.15 95.66-52.73-31.83-17.45-63.55-35.11-95.45-52.42-.39-4.1-.03-8.22-.14-12.33zM250.42 331.62c8.21-3.21 18.31 1.64 20.79 10.11 2.94 8.1-2.18 17.73-10.35 20.17-7.89 2.74-17.41-1.96-19.95-9.94-3.03-7.92 1.51-17.6 9.51-20.34m2.75 10.47c-3.5 1.95-3.23 7.61.35 9.31 3.56 2.13 8.46-1.31 7.79-5.36-.28-3.74-5.03-6.01-8.14-3.95z"/></g></svg>