<svg width="449pt" height="600pt" viewBox="0 0 449 600" xmlns="http://www.w3.org/2000/svg"><path d="M198.97 2.55c44.61-.52 89.26.11 133.77 3.18 19.99 1.49 40.03 3.45 59.58 8.11 10.26 2.48 20.93 4.99 29.62 11.3 6.93 5.08 10.38 13.34 12.69 21.34 2.85 10.45 6.39 20.74 8.09 31.47 4.12 25.05 5.17 50.46 6.28 75.78v61.56c-.73 26.47-2.69 52.9-5.77 79.2-4.63 41.21-9.71 83-24.73 121.94-11.39 30.1-31.2 56.01-52.23 79.99-20.85 23.4-43.22 45.47-67.2 65.65-17.21 14.14-37.38 25.48-59.6 29.04-.79 1.92-1.32 4.03-2.66 5.68-2.14 2.27-5.44 2.74-8.38 3.21h-5.46c-2.77-.58-5.85-1-7.93-3.11-1.47-1.61-1.94-3.83-2.74-5.78-24.08-3.8-45.6-16.84-63.81-32.56-23.92-20.69-46.47-43.01-67.17-66.92-19.02-22.11-36.69-46.02-47.36-73.38-16.14-40.87-21.08-84.93-25.95-128.27-5.64-48.78-6.67-98.01-4.79-147.05 1.23-25.07 2.45-50.33 7.8-74.92 3.3-10.94 5.52-22.31 10.36-32.72 4.52-9.5 14.4-14.67 24.02-17.67 25.1-7.73 51.4-10.35 77.49-12.15 25.33-1.74 50.71-2.47 76.08-2.92m-66 6.1c-22.73 1.47-45.57 3.03-67.89 7.86-9.02 1.95-18.12 4.01-26.49 8-5.18 2.46-9.87 6.17-12.86 11.11-3 4.99-4.57 10.66-6.19 16.2-2.47 8.93-5.38 17.77-6.79 26.95-4.23 26.53-5.45 53.42-6.26 80.24-.98 43.31.24 86.73 5.23 129.79 4.8 43.16 9.65 87.08 25.7 127.79 10.26 26.6 27.39 49.78 45.73 71.33 22.87 26.37 47.71 51.12 74.64 73.35 15.69 12.22 33.65 22.35 53.45 25.8-4.18-16.48-7.68-33.14-9.99-49.99-1.02-8.91-2.35-18-.74-26.92.99-6.18 6.43-10.7 6.53-17.14 1.69-11.95-3.98-23.74-12.9-31.47 6.55 1.06 13.06 2.44 19.7 2.88 14.62 1.51 29.35-.08 43.71-2.87-2.61 2.71-5.35 5.35-7.4 8.53-5.11 7.51-6.84 17.14-4.93 25.99 1.02 4.66 4.7 8.18 5.74 12.84 1.61 6.83.95 13.94.4 20.86-2.22 19.34-6.06 38.47-10.89 57.31 26.37-4.62 48.88-20.64 68.21-38.36 15.34-13.64 29.93-28.11 44.01-43.03 23.32-25.38 46.06-52.33 59.67-84.33 16.91-40.14 22.17-83.84 27.01-126.76 3.23-27.77 5.34-55.68 5.87-83.63.77-36.35.12-72.78-3.27-108.99-1.43-13.95-3.04-28.02-7.31-41.44-2.59-8.54-4.25-17.57-8.89-25.32-4.94-7.98-14-11.91-22.61-14.59-17.98-5.27-36.59-8.11-55.22-9.79-28.89-2.67-57.91-3.74-86.92-4.31-42.69-.76-85.41-.25-128.05 2.11zm-56.4 88.7c19.84-4.37 40.45-3.69 60.5-1.21 13.61 1.57 26.95 5.99 38.56 13.31 7.45 4.66 14.45 10.07 20.88 16.05 6.15 7 6.32 17.14 5.11 25.9-3.32-4.37-6.27-9.02-9.86-13.18-9.36-10.84-20.68-20.07-33.46-26.57-10.33-5.3-21.76-7.96-33.15-9.84-19.17-2.98-39.25-1.88-57.55 4.8-16.64 7.88-26.66 24.38-35.59 39.7.46-7.93 4.35-15.2 8.64-21.71 8.55-12.59 20.58-24.04 35.92-27.25zm235.39-.81c17.26-2.47 34.86-3.2 52.21-1.16 10.28 1.25 20.85 3.82 29.19 10.29 9.49 7.19 17.34 16.62 22.57 27.33 2.03 4.16 3.53 8.64 3.88 13.29-6.11-10.31-12.37-20.72-20.97-29.19-4.92-4.87-10.58-9.25-17.22-11.45-25.04-8.15-52.48-6.56-77.33 1.46-17.27 5.94-32.31 17.3-44.21 31.01-3.67 4.16-6.58 8.89-9.95 13.28-1.27-8.99-1.02-19.64 5.74-26.52 10.29-9.13 21.54-17.56 34.44-22.63 6.92-2.86 14.23-4.68 21.65-5.71zm-254.26 40.23c11.26-8.3 25.41-11.95 39.28-11.9 8.48-.08 16.86 1.44 25.18 2.97 17.92 3.69 35.69 9.67 50.88 20.08 8.33 5.89 16.54 13.02 20.49 22.66 2.15 5.53-.27 13.73-6.51 15.34 5.46 4.06 11.26 9.05 12.56 16.08 1.18 6.54-3.12 12.53-8.02 16.36 2.41-4.43 5.25-9.08 4.7-14.36-.36-5.7-4.35-10.3-8.81-13.48-7.69-5.68-15.75-10.84-23.43-16.53-12.08-9.17-24.18-18.7-38.24-24.68-14.6-6.47-30.95-9.02-46.79-6.78-12.58 1.73-25.19 6.16-34.86 14.63-3.38 2.85-5.88 6.51-8.58 9.97 3.79-12.15 12.01-22.77 22.15-30.36zm237.87 1.75c15.6-6.99 32.4-11.02 49.33-13.11 16.78-1.92 34.69.96 48.63 10.96 10.43 7.62 18.8 18.46 22.74 30.82-3.14-4-6.07-8.26-10.18-11.35-12.64-10-29.14-14.05-45.03-14.09-19.69-.09-38.73 7.44-54.74 18.54-11 7.59-21.26 16.2-32.49 23.46-6.29 4.91-14.59 8.55-17.58 16.5-2.4 6.36.79 12.75 3.99 18.15-4.93-3.86-9.3-9.91-8.07-16.49 1.4-6.98 7.13-11.97 12.59-16-5.01-1.01-6.96-6.43-7.4-10.93.1-4.84 2.98-9.06 5.75-12.82 8.48-10.6 20.22-18.08 32.46-23.64zm-264.87 71.69c-4.49-6.32-6.24-15.78-.64-22.03.1 3.62-.46 7.26.03 10.87.77 4.17 3.76 7.41 6.44 10.51 5.29 5.64 10.87 11.63 18.46 14.05-1.98 1.83-3.91 3.8-6.36 5-11.87 5.95-20.65 17.39-23.98 30.18-2.71 9.83-2.23 20.2-.62 30.18 2.64 16.71 8.04 33.75 19.58 46.54 8.1 9.06 20.2 14.42 32.39 13.85 11.01-.6 21.69-3.81 32.04-7.46 20.4-7.2 39.56-17.35 58.83-27.06 4.36-1.84 8.46-4.49 13.14-5.42 5.83-1.07 11.03 4.87 10.4 10.48-2.48-2.36-4.69-5.93-8.42-6.18-6.51 1.41-12.87 5.52-15.33 11.96-3.33 8.36-3.22 17.89-1.02 26.51 1 4.27 4.87 6.77 8.89 7.76-.43 1.54-.86 3.1-1.3 4.65-5.32-1.25-10.32-4.71-11.9-10.18-3.14-10.4-2.93-22.07 1.44-32.11-23.03 11.79-46.43 23.58-71.7 29.75 4.58 7.49 9.52 14.87 15.67 21.19 3.89 3.46 7.43 7.3 11.14 10.96 6.94 6.64 16.82 8.95 26.18 9.04 8.59.01 17.31-.19 25.66-2.43 5.52-1.45 10.37-4.8 14.05-9.11 6.79-7.84 12.71-16.38 18.54-24.94-2.6-2.78-5.97-4.58-9.4-6.11-3.73 4.07-9.61 4.98-14.87 4.66-1.88.02-3.46-1.02-4.83-2.19 2.93-3.41 7.19-5.77 11.79-5.44 8.59-.26 15.83 5.02 22.06 10.31 7.78 6.35 18.77 9.49 28.32 5.42 9.06-3.33 14.93-12.01 24.28-14.72 4.99-1.32 10.85-1.82 15.33 1.25 1.26.98 3.18 1.92 3.01 3.81-3.15 2.39-7.44 1.68-11.07 1.13-3.09-.45-5.9-1.99-8.09-4.19-3.41 1.53-6.82 3.25-9.37 6.06 6.44 9.4 12.85 18.92 20.68 27.23 7.21 7.39 18.09 8.56 27.86 9.07 10.45.51 21.71.55 30.94-5.1 5.13-3.07 8.72-7.95 13.08-11.92 7.7-6.71 13.29-15.41 18.67-23.98-25.26-6.18-48.7-17.92-71.7-29.78 4.21 9.89 4.5 21.26 1.63 31.54-1.49 5.69-6.51 9.52-12.08 10.79-.46-1.55-.92-3.11-1.37-4.65 2.89-1.01 6.22-2.07 7.7-5.02 2.89-5.8 2.89-12.54 2.58-18.86-.52-7.16-3.01-15.15-9.57-18.97-2.76-1.48-5.64-3.36-8.85-3.33-3.35.79-5.4 3.88-7.78 6.12-.27-4.26 2.34-8.68 6.42-10.12 2.52-.94 5.28-.33 7.68.69 12.41 5.32 24.14 12.07 36.35 17.82 16.13 7.61 32.59 14.88 50 18.98 9.05 2.17 18.71 3.21 27.72.3 13.26-3.96 23.03-15.12 28.9-27.23 6.26-12.86 9.34-27.08 10.49-41.27.85-11.06-1.01-22.58-6.65-32.24-4.46-7.6-10.94-14.12-18.83-18.1-2.56-1.21-4.58-3.2-6.58-5.15 7.43-2.32 12.92-8.12 18.09-13.64 2.85-3.25 6.05-6.66 6.83-11.08.38-3.55-.11-7.12.09-10.67 5.47 6.3 3.79 15.62-.67 21.95-2.56 3.07-6.06 5.16-8.89 7.97 1.74 3.83 6.35 3.75 9.77 5.12-4.46.91-9.2.65-13.39 2.67 12.33 7.93 21.38 20.81 24.07 35.28 3.16 16.73-.54 33.83-5.08 49.94-1.03 24.2-5.79 48.29-14.57 70.89-4.67 12.06-11.04 23.35-17.31 34.64-10.08 18.02-21.26 35.38-31.97 53.02-3.41 5.55-7.14 10.89-10.78 16.29-1.13 1.65-2.24 3.47-4.17 4.28.25-1.4.72-2.74 1.49-3.93 10.13-17.16 20.85-33.97 30.63-51.34 7.81-13.91 16.06-27.58 23.15-41.88 10.28-22.32 15.62-46.61 18.79-70.88-4.86 10.07-12.06 19.04-21.33 25.36-4.51 9.93-8.32 20.19-12.88 30.12-8.73 19.39-17.49 38.93-29.44 56.6-3.75 5.31-7.56 10.69-12.47 15.01 7.62-13.84 16.07-27.24 23.23-41.34 6.44-12.63 13.02-25.28 17.47-38.77 1.26-4.12 2.71-9.35-.61-12.9-2.91-2.95-7.38-2.1-11.09-1.9-7.67 14.88-16.31 29.45-27.35 42.11-6.09 6.86-13.81 12.61-22.79 14.95-5.73 1.42-11.61 2.09-17.46 2.71-15.3 1.44-30.68 2.21-46.05 1.97-5.81-.04-12.19-1.28-15.93-6.16-5.73-7.37-11.95-14.52-15.94-23.04-1.07-2.34-2.32-4.61-4.25-6.35-2.86 2.15-3.89 5.69-5.58 8.69-3.45 6.63-8.3 12.35-12.79 18.29-2.3 3.02-5.02 6.03-8.75 7.24-4.13 1.32-8.54 1.33-12.83 1.4-15.74-.05-31.5-.8-47.14-2.57-6.44-.88-13.07-1.63-19-4.48-7.2-3.25-13.21-8.64-18.21-14.67-10.28-12.23-18.32-26.13-25.77-40.21-3.96-.07-9.2-.99-11.67 3-3.09 5.03.02 10.98 1.51 16.04 10.34 26.59 25.04 51.17 39.27 75.8-3.39-2.65-5.96-6.15-8.61-9.49-7.29-9.76-13.32-20.39-18.85-31.22-9.74-19.39-18.38-39.31-26.54-59.41-.51-1.68-2.15-2.49-3.43-3.51-8.2-5.88-14.26-14.29-18.64-23.29 2.56 20.34 6.9 40.56 14.08 59.79 4.75 13.11 12.1 25.03 18.84 37.17 9.09 15.84 17.97 31.81 27.65 47.3 4.8 7.61 9.27 15.43 13.94 23.13l-.51 1.62c-9.13-10.91-15.95-23.53-23.54-35.52-11.28-17.96-22.14-36.19-32.03-54.95-14.67-27.6-21.7-58.77-23.27-89.84-4.62-16.63-8.5-34.34-4.59-51.52 2.97-13.79 11.92-25.77 23.62-33.46-4.21-2.08-9.01-1.8-13.51-2.69 3.48-1.31 8.17-1.23 9.92-5.12-2.79-2.8-6.24-4.88-8.82-7.89zm47.71.44c10.91-2.94 22.27-3.96 33.53-3.86 18.9.48 38.17 7.44 51.49 21.15-16.96 3.04-34.29 3.19-51.47 2.97-12.04-.2-24.22-.77-35.92-3.85-5.19-1.35-10.42-3.4-14.16-7.4 4.28-4.83 10.51-7.21 16.53-9.01zm209.9 17.28c12.45-12.76 30.08-19.69 47.7-20.95 11.69-.63 23.51.36 34.91 3.03 6.86 1.8 14.09 4.17 18.94 9.65-4.43 4.84-10.97 6.68-17.13 8.15-14.02 3.11-28.47 3.08-42.76 3.2-13.92-.13-27.93-.56-41.66-3.08zm-147.28 193.06c5.35.21 10.65.95 15.98 1.41 19.95 2.04 40.03 1.1 60.05 1.15 27-.53 54.11 1.5 81.03-1.48 4.17-.36 8.33-.96 12.53-1.08-22.06 8.94-46.38 7.71-69.72 7.34-24.63-.96-49.35 1.64-73.92-.88-8.81-1.32-17.68-3.1-25.95-6.46zm-30.46 4.76c17.45 11.13 35.58 22.89 56.56 25.64 19.86 2.35 39.91 1.79 59.87 1.58 17.67.31 35.39.52 53.02-1.04 6.73-.61 13.41-1.92 19.81-4.15 15.02-4.89 28.17-13.84 41.52-22.03-18.81 20.51-46.39 33.03-74.31 33.02-14.67.38-29.34 1.09-44.02 1.03-14.36-.19-28.7-.75-43.05-1.2-23.36-.93-45.79-11.04-63.2-26.41-2.23-1.98-4.52-3.95-6.2-6.44z"/></svg>