<svg width="750pt" height="859pt" viewBox="0 0 750 859" xmlns="http://www.w3.org/2000/svg"><path d="M342.39 8.4c3.18-.5 6.41-.43 9.62-.42 14.01.07 28.01-.05 42.02.05 6.04-.09 11.98 1.2 18.01 1.4 17.95.19 35.81 2.27 53.66 3.78 39.55 4.93 78.98 10.95 118.01 19.07 17.24 4.94 33.18 14.45 45.67 27.34 8.56 8.24 16.55 17.33 22.01 27.97 3.72 7.18 8.99 13.5 11.91 21.11 3.11 6.59 4.71 13.74 7.54 20.43 9.42 21.67 13.39 45.14 18.03 68.15.92 4.6.8 9.35 1.97 13.91 1.25 5.41.51 11.01.98 16.48 3.12 8.72.67 18.12 2.31 27.07 1.91 7.25 1.32 14.81 1.87 22.23-.44 12.7 1.42 25.33.82 38.04.31 6.04-.9 12.02-.7 18.06.63 12.69-1.18 25.32-1.29 38-.06 7.38-1.52 14.62-1.87 21.98-1.1 10.79-1.72 21.64-3.23 32.4-.24 7.23-2.18 14.26-2.54 21.48-1.31 6.03-1.75 12.2-3.07 18.23-.71 4.58-.58 9.29-2.03 13.75-2.43 16.76-6.9 33.14-9.73 49.84-3.34 10.71-5.83 21.68-9.33 32.35-2.58 9.63-6.91 18.69-9.57 28.29-3.82 18.04-12.15 34.74-21.77 50.33-2.05 4.66-5.95 8.08-8.49 12.43-2.56 4.63-6.66 8.12-9.58 12.51-8.66 10.6-17.78 20.82-27.35 30.61-10.82 10.53-21.19 21.54-32.66 31.37-7.64 6.31-14.52 13.5-22.34 19.6-7.26 6.5-15.4 11.9-22.77 18.27-2.37 2.26-4.11 5.2-6.91 7.01-5.42 3.52-10.25 7.87-15.58 11.54-4.82 3.07-8.11 7.91-12.77 11.21-11.69 9.98-24.62 18.35-37.89 26.06-6.23 2.94-12.54 5.68-19.01 8.05-5.56 2.75-11.83 3.29-17.61 5.44-6.59.84-13.03 3.03-19.74 2.58-8.15.55-16.38.76-24.47-.52-4.01-.68-8.2.1-12.08-1.31-3.56-1.26-7.32-1.87-10.84-3.22-3.05-1.65-6.13-3.25-9.31-4.62-4.62-1.9-8.39-5.5-13.28-6.79-2.7-.58-3.86-3.43-6.07-4.82-14.62-9.42-27.93-20.69-41.35-31.71-16.64-14.31-32.69-29.29-48.43-44.57-4.87-5.45-10.26-10.39-15.37-15.6-8.19-7.15-14.97-15.74-23.13-22.9-7.18-7.17-13.66-14.99-20.9-22.1-6.1-6.58-12.72-12.7-18.21-19.83-9.44-12.6-18.22-25.79-24.85-40.11-5.52-10.91-9.84-22.36-14.3-33.73-3.36-10.93-7.67-21.61-9.93-32.86-1.26-5.76-3.42-11.27-4.88-16.97-1.63-9.25-3.61-18.45-5.94-27.54-1.16-4.83-1.17-9.84-2.32-14.66-3.85-18.02-5.39-36.39-8.11-54.58-.58-13.68-2.73-27.23-2.96-40.93.04-5.71-1.47-11.31-1.11-17.03-.85-21.99-1.27-44.01-.98-66.02.71-11.64-.26-23.33.94-34.93-.01-8.7.37-17.38 1.37-26.01 2.07-30.65 5.47-61.25 11.1-91.47 3.41-22.51 9.58-44.49 17.01-65.98 3.69-10.88 9.17-21.02 15.31-30.69 3.72-4.88 7.97-9.37 12.51-13.49 7.28-5.18 16.46-6.11 24.65-9.21 5.88-1.4 11.46-3.85 17.48-4.65 15.33-4.56 31-7.82 46.58-11.35 11.59-2.39 23.15-5.05 34.84-6.94 12.06-2.43 24.36-3.38 36.48-5.53 10.36-.82 20.63-2.72 31.02-3.17 10.95-1.06 22.01-.74 32.93-2.16m-7.65 10.4c-2.11.16-4.19.43-6.28.69-7.6-.78-15.23.09-22.72 1.4-8.19 1.61-16.6 1.37-24.79 2.97-36.34 4.48-72.34 11.8-107.73 21.22-2.49.42-4.97.98-7.3 1.95-6.61 1.55-13.16 3.29-19.64 5.34-8.49 2.71-18.09 3.7-24.79 10.17-8.42 8.28-13.31 19.27-18.15 29.86-6.97 17.07-12.12 34.85-15.95 52.88-5.56 23.96-8.82 48.34-11.85 72.72-.73 11.68-2.83 23.25-2.64 34.98l-.88-.08c.13 6.82-.65 13.61-.78 20.43-.63 4.92-.29 9.9-.54 14.85l-.03-.98c-1.61 8.95.01 18.1-1.07 27.12-.37 10.54-.4 21.11.36 31.64.35 6.94-.68 13.98.7 20.85l.03-.99c.17 8.95.18 17.91 1.47 26.79l-.19 9.49.94-.11c-.3 11.76 1.92 23.33 2.63 35.03 4.56 39.23 11.04 78.39 22.12 116.38 9.58 33.18 22.58 65.88 42.91 94.03 4.71 7.14 10.75 13.24 16.49 19.53 4.96 4.71 9.15 10.15 14.14 14.83 6.51 6.17 12.21 13.12 18.69 19.32 13.1 12.89 25.79 26.2 39.13 38.83 25.19 24.01 51.23 47.39 80.22 66.77 10.42 6.73 21.3 12.98 33.11 16.9 8.12 2.78 16.82 2.1 25.19 3.42-2.41-3.12-5.06-6.12-6.73-9.73-2.85-6.02-3.89-12.67-5.28-19.13-3.15-19.22-7.92-38.24-8.97-57.76.53-6.27.52-12.56-.01-18.82.34-8.42 2.1-16.68 4.23-24.8 2.32-8.5 5.18-17.73 1.87-26.37-3.79-9.13-10.79-16.33-17.12-23.73 24.89.7 49.82.09 74.72.31-3.62 5.38-8.59 9.71-11.99 15.26-3.48 5.57-6.98 11.87-6.35 18.67 1.18 7.07 3.41 13.91 5.15 20.86 1.07 4.19 1.34 8.53 2.26 12.75-.45 11.29-.41 22.6-.04 33.9-1.18 6.95-1.22 14.08-2.95 20.95-2.98 13.41-4.59 27.08-7.79 40.44-1.67 6.05-4.99 11.5-8.82 16.43 21.62-2.52 42.43-10.25 60.96-21.58 17.76-10.35 32.67-24.64 48.74-37.28 23.95-19.62 47.94-39.26 70.36-60.62 22.49-21.63 44.25-44.4 61.34-70.64 9.17-14.11 16.84-29.36 21.18-45.67.94-4 1.63-8.08 3.26-11.88 4.68-11.22 8.26-22.85 11.36-34.59 7.18-24.8 11.95-50.21 16.44-75.61 2.18-13.73 4.36-27.49 5.57-41.34l.95.06c.15-4.09.49-8.16.58-12.24.31-1.89.48-3.8.59-5.71l.92.15c.08-5.58.72-11.14.74-16.73.47-2.52.59-5.08.55-7.63l.62.04c.5-6.11.97-12.22.8-18.36.52-4.12.42-8.28.65-12.41 2.3-13.41 1.35-27.08 1.22-40.61.08-1.73.18-3.45.06-5.17.34-14.83.36-29.67-.64-44.47l-.76.02c-.15-3.22-.07-6.45-.51-9.65.11-5.78-.37-11.53-.85-17.29l-.69-.06c-.11-1.89-.25-3.79-.55-5.66-.07-4.9-.14-9.88-1.48-14.62l-.4-2.47c-.32-3.41-.65-6.83-.86-10.25l-1.01.09c-.08-.44-.22-1.3-.29-1.74-.14-3.48-.46-6.94-.69-10.41l-.9.13c-2.94-19.84-8.42-39.26-14.99-58.19-8.01-21.63-18.32-42.79-33.61-60.26-13.26-15.53-31.35-26.88-51.12-31.97-18.55-3.63-37.13-7.13-55.8-10.15-12.18-1.6-24.21-4.23-36.47-5.13-9.31-1.47-18.67-2.56-28.03-3.61-7.38-.17-14.62-1.87-21.99-2.17-6.09.03-12.13-.95-18.22-.89l.21-.27c-2.73-.64-5.56-.26-8.33-.37-6.6-1.13-13.34.02-19.97-.81-3.45-.43-6.93-.45-10.39-.36-7.67-1.4-15.53-.71-23.27-.56-6.73.96-13.56.46-20.26 1.48zm-170.46 120.48c8.24-2.93 16.8-5.57 25.64-5.36 3.12-.04 6.25-.12 9.38-.1 3.12.13 6.27.07 9.38.46 2.87.47 5.73.98 8.59 1.48 29.92 6.34 57.96 20.56 81.87 39.48-.26.45-.79 1.34-1.06 1.78-13.24-8.27-29.04-10.56-44.01-13.96-14.48-1.91-28.88-5.02-43.54-5 2.98.97 6.03 1.68 9.12 2.19 26.72 5.97 51.75 18.24 73.8 34.33 11.07 8.44 21.72 17.63 30.14 28.79 2.72 3.85 1.62 10.27-3.02 12.17-4.87 3.23-10.86 1.22-15.73-.92-1.83-1.68-3.04.89-1.17 1.97 2.25 2.73 3.21 6.22 4.54 9.43 7.91 18.41 13.8 37.74 17.26 57.48-3.87-3.55-6.5-8.14-9.75-12.21-21.15-27.99-46.6-53.36-77.27-70.79-13.92-7.88-28.83-14.24-44.53-17.49-5.49-1.58-11.22-1.79-16.76-3.07-4.09-.94-8.3-.84-12.47-.85-2.47-.05-4.95-.09-7.42-.01-3.54.05-7.11.12-10.6.8-13.39 2.48-27.38 4.25-39.28 11.38 2.45-6.26 4.42-12.71 7-18.93 4.68-10.15 10.16-20.05 17.29-28.72 8.87-10.36 19.7-19.47 32.6-24.33m37.89 17.71l.01 1c2.52.01 5.04.02 7.56.07l-.05-1.07h-7.52zm332.53-22.52c2.95-.67 6.03-.48 9.04-.63 3.51-.05 7.02-.07 10.54-.02 18.85.71 37.39 8.79 50.77 22.11 10.84 10.81 19.16 23.98 25.08 38.05 2.1 5.95 4.59 11.77 6.42 17.81-2.72-2.03-5.74-3.54-8.73-5.1-.77-.7-1.66-.99-2.67-.89-4.14-.47-8.02-2.12-12.09-2.92-5.18-1.39-10.54-1.82-15.74-3.03-3.51-.68-7.09-.67-10.64-.74-2.87-.12-5.75-.24-8.61-.21-4.14.04-8.29.22-12.36 1.01-11.82 2.2-23.77 4.26-35.04 8.62-27.2 10.44-51.74 27.28-72.1 48.05-14.16 13.5-26.41 28.86-37.86 44.7-.35-1.36-.68-2.72-.96-4.09.4-4.88 1.95-9.57 3.15-14.3 4.33-16.59 10.49-32.64 17.57-48.24-5.36 1.2-11.21 4.42-16.55 1.44-5.9-1.87-6.38-10.62-2.32-14.51 12.81-15.35 28.63-28.07 45.82-38.2 20.82-12.59 43.95-21.66 68.07-25.22 2.45-.08 4.92-.27 7.3-.93-3.1-.42-6.23-.32-9.3.21-6.6 1.12-13.35.82-19.93 2.08-14.18 2.04-28.45 3.81-42.28 7.69-9.52 2.28-18.97 5.33-27.26 10.66l.31-2.27c13.67-11.02 28.81-20.12 44.7-27.57 13.27-5.75 27.07-10.71 41.45-12.79 1.43-.07 2.84-.33 4.22-.77zm-332.02 130.94c7.08-2.1 14.72-1.53 22-1.03 4.14.9 8.36 1.32 12.59 1.45 8.12.77 16.02 3.05 23.94 4.93 15.74 4.9 31.69 11.62 43.03 24.03 2.95 3.23 5.18 7.08 6.84 11.12.68 3.71 1.02 7.47 1.14 11.24-6.44 11.94-19.02 18.86-31.14 23.86-14.75 5.64-30.49 8.74-46.25 9.29-6.37-.15-12.69.8-19.04 1.03-2.46-.04-4.89-.46-7.31-.79-5.17-.73-10.42-.67-15.59-1.43-8.61-1.44-16.91-4.2-25.18-6.9-9-3.71-17.49-10.24-27.74-9.36-17.2.83-33.25 9.05-46.58 19.54-4.84 3.64-8.38 8.74-13.37 12.21 2.21-5.52 6.4-9.91 10.39-14.18 9.06-9.4 20.52-15.82 31.42-22.75-8.52.18-16.42 4.08-23.35 8.77-4.12 2.43-7.54 5.92-11.87 8.03 2.45-5.23 7.34-8.6 11.51-12.36 4.88-4.35 10.52-7.68 16.08-11.05-2.72-3.33-6.04-6.18-8.32-9.86-5.64-8.93-9.98-18.73-12.85-28.89 3.13 2 4.05 5.79 5.92 8.78 4.69 8.23 9.84 16.75 17.78 22.24 3.87 2.92 9.22 3.89 13.8 2.13 6.52-2.57 11.62-7.64 16.01-12.95 7.7-8.92 15.08-18.2 23.99-25.97 4.83-4.61 11.16-7.57 17.74-8.61 1.64-.14 3.19-.73 4.67-1.43 1.69-.72 3.59-.41 5.38-.43 1.49.2 2.98-.07 4.36-.66m6.85 9.48l-.82.4c-.64-1.51-3.68-.88-3.41.83-11.65.82-22.63 6.22-31.51 13.64-8.96 7.68-14.52 18.34-18.79 29.15 8.86 7.7 20.36 11.22 31.76 13 2.78.95 5.74.92 8.65.85 2.15.27 4.27.77 6.42 1.1 3.04 1.18 6.34.97 9.54.88 11.74.58 23.54.55 35.28-.01 3.52.09 7.17.43 10.53-.88 12.52-2.14 25.79-4.66 35.84-13.02-5.34 1.29-10.53 3.09-15.87 4.36-2.99.39-5.99.71-8.99.99l.06.99-.89.17c-4.89.22-9.87.22-14.63 1.51-1.13.1-2.26.24-3.38.41-5.79.09-11.63-.59-17.36.47h-.92c-6.36-1.13-12.82-.32-19.23-.5l-1.6-.22c-4.57-1.65-9.51-1.3-14.26-1.87-9.02-2.36-18.32-4.2-26.75-8.33-2.8-1.58-6.49-3.85-6.02-7.58 1.66-3.44 4.57-6.16 7.42-8.65 12.45-9.7 27.46-15.68 42.8-18.97 1.1 1.52 5.02 1.26 5.05-.86l.86-.06 9.92.34-.15-1.03c1.89-.05 3.77.05 5.66.13 5.36 1.35 10.94 1.21 16.41 1.69 14.35 2.92 27.24 10.23 40.09 16.94.66 1.27 2.01 3.14 3.61 2.82.35-1.71-2.22-4-3.8-3.28-.36-.99-.95-1.82-1.75-2.49-7.99-6.65-17.41-11.31-27.04-15.08-8.87-3.03-17.88-5.96-27.26-6.88l.07-.75c-8.46-.98-17.09-1.47-25.54-.21zm298.09-5.54c3.5-1.83 7.52-1.32 11.32-1.44 7.71.01 15.43-.02 23.14-.02 3.11.08 6.43-.16 9.23 1.48 1.01.67 2.22.89 3.43.71 4.72-.2 9.08 2.01 13.27 3.9 5.24 2.43 9.68 6.22 13.63 10.38 8.24 8.14 14.92 17.7 23.11 25.89 4.85 4.78 10.95 9.78 18.24 8.88 5.76-.79 10.16-5.1 13.93-9.2 6.57-7.29 11.05-16.14 15.53-24.79.31.22.92.66 1.23.89-4.85 13.67-10.29 28.14-21.54 37.9 9.02 4.47 16.77 11.01 24.13 17.79 1.94 1.73 3.29 3.97 4.24 6.38-9.95-7.26-20.1-15.36-32.59-17.52-1.07-.46-2.48-1.37-3.54-.43-.53 1.5 1.69 1.75 2.69 1.94 11.57 6.57 22.78 14.11 31.84 23.94 2.75 3.85 6.85 7.1 7.57 12.05-2.21-1.98-4.14-4.25-6.13-6.43-9.9-10.16-22.41-17.43-35.6-22.43-9.84-3.18-20.85-5.25-30.78-1.25-7.71 3.32-14.92 7.97-23.23 9.76-8.02 2.6-16.28 4.21-24.62 5.35-13.35 1.3-26.8 1.1-40.15.01-.42-.08-1.26-.23-1.67-.3-4.08-.86-8.25-1.16-12.36-1.77-19.35-3.49-39.5-9.95-53.27-24.72-1.57-1.97-3.94-3.92-3.78-6.66.08-2.09.12-4.18.08-6.27-.1-4.9 2.84-9.09 5.42-13 4.07-6.22 10.41-10.39 16.46-14.48 7.85-4.67 16.28-8.33 25.03-10.96 7.01-2.11 14.1-4.85 21.51-4.83 1.45.18 2.93-.07 4.23-.75m-7.64 11.44c-16.13 3.98-31.9 10.69-44.65 21.53-.86.92-2.24 1.77-2.17 3.19-2.61-2.01-1.92 3.78-.07.79 6.8-4.95 14.47-8.44 21.97-12.18 8.65-4.2 17.97-6.96 27.45-8.53 5.59.61 11.17-.72 16.76-.06 3.38.35 6.77.31 10.16.16 17.69 2.84 34.98 9.65 49.04 20.89 2.52 2.5 5.06 5.19 6.54 8.46-1.16 3.25-3.97 5.58-7.08 6.9-7.45 3.31-15.28 5.69-23.22 7.47-5.06.99-10.24 1.12-15.31 1.98-6.52 1.12-13.25-.19-19.68 1.41-1.48-.03-2.96-.03-4.43 0-5.76-1.54-11.77-.52-17.65-.72-3.49-.88-7.07-1.18-10.65-1.14l.03-.82c-4.04-.16-8.07-.5-12.09-.92-6.06-1.48-12.27-2.61-17.93-5.37-1.73-.91-3.46-1.8-5.21-2.66.73 1.23 1.47 2.46 2.22 3.7l.75-.26c13.23 9.81 30.15 11.62 46.01 13.24 5.54 1.98 11.5.75 17.23 1 5.39-.22 11.01.99 16.18-1.02 3.69-.71 7.45-.71 11.15-1.33 1.07 1.59 5.09 1.43 5.17-.74 3.25-.43 6.55-.61 9.78-1.24.76 1.69 4.45 1.25 4.23-.79 9.95-1.39 19.38-5.56 27.3-11.72-2.65-6.12-5.07-12.41-8.82-17.96-3.62-5.28-8.22-9.8-13.05-13.96-11.61-8.35-26.06-12.82-40.37-12.14.26-1.91-4.24-1.99-4.12-.09-8.56-.46-17.15 1.02-25.47 2.93zm-162.77 1.34c2.36 4.92 2.53 10.47 2.82 15.83.15 2.81.46 5.61.93 8.4.38 2.37.67 4.76.89 7.16.3 18.15.6 36.31.45 54.48-.02 18.73.28 37.5-1.23 56.2-.81 9.73-1.8 19.47-3.48 29.1-1.19 7.15-2.84 14.44-1.64 21.71.34 6.29 4.97 11.92 10.84 13.99 7.03 2.38 14.14 4.59 21.39 6.2 3.64.54 7.44.73 11.04-.16 6.41-1.83 12.97-3.12 19.19-5.58 4.66-1.4 9.11-4.45 10.91-9.12 2.61-6.45 1.56-13.49 1.04-20.21-2.21-12.25-4.32-24.63-4.49-37.11-.07-6.73-.82-13.43-1.6-20.11l-.09-.82c-.41-19.69-.06-39.39-.18-59.09-.24-11.69.93-23.34 1.68-35 .54-7.45.57-15.03 2.62-22.27.36 3.58.99 7.12 1.62 10.66.66 6.84 1.03 13.74 1.15 20.63.06 2.79.33 5.59.83 8.34 1.64 11.44 4.46 22.66 6.87 33.93-.13 1.02.15 1.92.82 2.71 2.43 5.57 3.87 11.53 6.32 17.11 5.88 13.94 13.71 27.05 22.99 39 7.19 10.1 16.12 19.01 21.93 30.06 4.78 9.4 4.38 20.93-.33 30.27-3.4 6.69-7.15 13.42-12.51 18.76 2.13-5.44 5.8-10.16 7.46-15.8 2.41-7.57 3.06-16.06-.39-23.44-4.81-9.97-13.47-17.18-21.1-24.91-4.21-3.8-8.45-7.55-12.35-11.68-2.79-2.54-5.66-6.27-9.93-5.19-1.07 6.43-.38 12.94.95 19.28.06.73.19 2.2.26 2.93-.06 1.8.14 3.6.61 5.36 2.06 12.43 2.43 25.41-1.17 37.61-1.57 3.83-3.65 7.49-6.27 10.7-7.77 7.2-17.84 11.32-27.96 13.99-3.45.6-6.92 1.07-10.38 1.64-3.79.55-7.66.55-11.44 0-3.15-.54-6.32-1-9.47-1.52-11.31-3.05-22.37-8.95-29.6-18.38-2.47-4.08-3.62-8.87-4.52-13.51-1.19-9.48-.58-19.05.11-28.54.13-1.16.31-2.31.54-3.45.88-4.05 1.53-8.15 1.65-12.29.14-4.91.45-9.9-.81-14.7-4.05 1.09-7.23 3.87-9.99 6.89-5.62 6.06-12.1 11.22-17.79 17.21-6.25 6.16-12.94 12.55-15.8 21.09-2.08 6.38-1.51 13.27.3 19.64 1.33 4.64 4.12 8.71 5.28 13.4-5.19-4.76-8.12-11.4-11.07-17.67-2.93-5.83-2.84-12.53-2.28-18.87 1.4-7.48 5.95-13.79 10.21-19.91 8.59-11.12 17.8-21.86 25.07-33.94 13.68-20.92 21.27-45.27 25.24-69.8.64-3.16 1.11-6.35 1.38-9.57.2-2.14.32-4.29.61-6.42.99-7.1 1.77-14.24 1.59-21.41-.01-4.61-.23-9.23.28-13.81zm320.92 33.01c4.31-5.81 15.55-4.25 16.8 3.33.01 2.04.06 4.09.13 6.14-.5 7.58-11.56 9.34-16.17 4.49-4.2-3.29-4.03-10.09-.76-13.96zm-399.87 127.01c3.85 2.22 8.17 5.15 8.91 9.87-1.38 6.17-6.68 10.15-11.65 13.46-12.38 7.5-26.32 11.85-40.19 15.71-14 3.03-28.11 5.73-42.4 6.91 10.5 18.8 21.45 37.35 31.84 56.21 2.13 3.51 5.73 5.88 9.46 7.4 5.12.58 10.31-.18 15.42.6 6.08.82 12.23.57 18.35.58 6.45-.02 12.93.26 19.34-.59 9.5-.33 19.21-1.14 28.06-4.9 3.78-1.65 6.79-4.48 9.53-7.48 10.05-9.44 19.05-19.94 27.28-30.99 4.67.65 8.59 3.6 13.1 4.81 5.25 1.9 10.78 2.77 16.3 3.45 7.9.94 15.98.94 23.78-.84 5.65-1.06 11.36-2.06 16.78-4.04 3.92-1.31 7.63-3.25 11.69-4.14 9.41 11.48 17.27 24.51 28.76 34.15 5.58 5 13.44 5.16 20.42 6.49 6.86 1.63 13.93 1.75 20.92 2.29 8.16 1.61 16.49.18 24.69 1.24 4.62.69 9.24-.28 13.82-.78 2.57-.48 5.71-.34 7.45-2.66 16.03-19.95 32-39.96 48.12-59.86-25.77-2.15-51.62-7.13-75.28-17.88-7.36-3.81-15.63-7.76-19.56-15.49-2.31-5.65 2.85-10.43 7.78-12.01 2.13.81 3.82 2.41 5.68 3.7 16.82 12.1 36.11 20.45 56.02 25.97 3.23 1.02 6.59 1.66 9.71 3.01 1.31.69 2.79.95 4.27.73 2.65-.32 5.3.08 7.73 1.22 1.96.86 4.13 1.03 6.25.82 6.86-.39 13.75.14 20.61-.36 3.11.11 6.18-.51 9.15-1.41 9.5-2.48 18.99-6.03 26.6-12.42 5.02-4.04 8.47-9.65 13.46-13.67-.03 2.14-.21 4.29-.8 6.37-2.78 10.67-5.53 21.36-9.2 31.78-3.21 10.83-7.28 21.45-12.62 31.43-22.31 48.57-54.27 91.89-87.9 133.14-11.89 14.07-23.7 28.21-36.55 41.43-2.8 2.77-5.2 6.06-8.7 8.03 1.54-3.23 3.7-6.09 5.95-8.85 7.56-9.86 14.2-20.38 21.41-30.49 16.21-25.23 32.37-50.56 46.24-77.17-3.84 2.54-6.86 6.05-10.43 8.91-9.25 7.67-19.25 14.41-29.69 20.33-14.1 7.43-29.38 12.58-45.1 15.2-2.85.45-5.75.69-8.63.45 5.27-2.68 11.49-2.57 17.09-4.44 27.53-8.56 51.55-25.87 71.67-46.18 8.16-8.57 16.3-17.27 22.69-27.27 7.36-14.2 14.11-28.71 20.81-43.22 4.55-8.84 7.84-18.26 12.36-27.11-4.38 2.14-10.61 1.59-13.23 6.35-11.47 17.52-22.72 35.17-34.12 52.75-5.02 9.01-11.49 17.09-17.9 25.13-6.98 7.52-14.52 15.66-25 17.87-6.91.73-13.88.25-20.81.36-30.71.08-61.42-.17-92.13.13-2.58-2.16-4.23-5.16-6.22-7.83-7.97-11.54-16.95-22.33-25.88-33.14-2.22-2.46-4.13-5.36-7.01-7.1-3.17-.63-7.66-1.2-9.66 1.95-8.66 11.71-17.25 23.45-26.05 35.04-3.04 4.29-7.31 7.42-11.25 10.81-24.6.33-49.2.05-73.8.14-11.15-.1-22.31.23-33.45-.21-9.85-2.49-20.29-4.51-28.44-11.02-5.05-4.26-9.64-9.2-13.14-14.82-12.83-23.81-25.93-47.46-38.97-71.15-2.08-4.36-7.59-4.62-11.53-6.41 12.22 27.42 24.73 54.76 38.91 81.23 9.06 12.4 20.47 22.89 32.08 32.87 16.74 13.72 35.73 25.1 56.62 31.2 5.32 1.81 11.08 1.75 16.36 3.68-.53.1-1.58.3-2.1.41-4.62.62-9.26-.57-13.78-1.38-26.16-5.16-50.31-18.33-70.27-35.82-1.46-1.26-2.95-2.48-4.47-3.66.67 1.27 1.35 2.54 2.07 3.79 18.6 33.16 38.88 65.38 61.05 96.28 2.61 3.93 6.02 7.3 8.11 11.57-3.2-1.57-5.34-4.45-7.65-7.03-10.86-11.18-21.37-22.72-31.16-34.84-24.41-28.69-47.13-58.86-67.26-90.71-10.38-16.74-20.18-33.94-27.95-52.05-7.23-12.11-10.59-25.93-15.07-39.17-2.23-9.41-6.03-18.52-6.82-28.22 4.56 2.77 6.88 7.88 10.92 11.24 5.94 5.61 13.29 9.59 21.07 12.02 2.42.82 4.97 1.32 7.25 2.51 1.01.67 2.22.9 3.42.71 1.29-.09 2.57-.01 3.84.24 9.07 2.52 18.6 2.05 27.7-.03 1.32-.21 2.65-.28 3.99-.21 1.49.17 2.99-.06 4.37-.66 6.81-1.82 13.64-3.76 20.57-5.07 1.02.05 1.9-.27 2.65-.97 8.02-3.5 16.54-5.95 24.28-10.12 10.22-5.06 20.52-10.42 29.06-18.1zm40.21 153.39c-2.82-1.53.21-5.35 2.53-5.36 25.99-.35 52-.04 78-.14 23.08-.16 46.17.34 69.25-.29 1.46 1.27 2.63 2.83 3.87 4.33-4.22 2.13-8.87 3.37-13.58 3.72-1.44 0-2.87.23-4.23.72l-2.9.65c-5.6.5-11.25.61-16.83 1.42-2.09.27-4.2.48-6.3.59-21.53.06-43.07-.05-64.6.07-1.77-.13-3.52-.38-5.28-.62-6.85-.97-13.79-.88-20.68-1.4-6.4-1.17-13.24-.97-19.25-3.69z"/><path fill="#111" opacity=".73" d="M334.74 18.8c6.7-1.02 13.53-.52 20.26-1.48 7.74-.15 15.6-.84 23.27.56-9.2.4-18.44-.3-27.61.6-5.3.45-10.62.04-15.92.32z"/><path fill="#101010" opacity=".69" d="M305.74 20.89c7.49-1.31 15.12-2.18 22.72-1.4-7.54.82-15.15.9-22.72 1.4z"/><path fill="#191919" opacity=".19" d="M408.63 19.05c2.77.11 5.6-.27 8.33.37l-.21.27c-2.72.08-5.44-.18-8.12-.64z"/><path fill="#141414" opacity=".53" d="M165.92 47.03c2.33-.97 4.81-1.53 7.3-1.95-2.41.73-4.86 1.34-7.3 1.95z"/><path fill="#161616" opacity=".62" d="M189.86 132.92c3.16.03 6.36.07 9.44.9-3.13-.02-6.26.06-9.38.1l-.06-1z"/><path fill="#161616" opacity=".58" d="M543.74 133.84c3.42-1.12 7.11-1.14 10.54-.02-3.52-.05-7.03-.03-10.54.02z"/><path fill="#161616" opacity=".4" d="M208.68 134.28c2.93-.05 5.89.29 8.59 1.48-2.86-.5-5.72-1.01-8.59-1.48z"/><path fill="#191919" opacity=".35" d="M530.48 135.24c-.2-2.03 3.45-2.47 4.22-.77-1.38.44-2.79.7-4.22.77z"/><path fill="#adadad" d="M202.17 156.99h7.52l.05 1.07c-2.52-.05-5.04-.06-7.56-.07l-.01-1z"/><path fill="#b0b0b0" opacity=".97" d="M533.49 157.44c3.07-.53 6.2-.63 9.3-.21-2.38.66-4.85.85-7.3.93l-2-.72z"/><path fill="#1f1f1f" opacity=".56" d="M299.14 175.24c2.7.08-.11 4.49-1.06 1.78.27-.44.8-1.33 1.06-1.78z"/><path opacity=".35" d="M676.98 192.06l.9-.13c.23 3.47.55 6.93.69 10.41-.66-3.41-1.21-6.83-1.59-10.28zm-185.04 158.96c4.11.61 8.28.91 12.36 1.77-4.19.06-8.46-.09-12.36-1.77z" fill="#141414"/><path fill="#151515" opacity=".59" d="M146.67 199.88c3.49-.68 7.06-.75 10.6-.8-3.43 1.11-7.05.86-10.6.8z"/><path fill="#161616" opacity=".62" d="M164.69 199.09c4.17.01 8.38-.09 12.47.85-4.16-.1-8.43.46-12.47-.85z"/><path fill="#151515" opacity=".64" d="M565.71 199.91c4.07-.79 8.22-.97 12.36-1.01l.01 1.08c-4.13-.04-8.25-.17-12.37-.07z"/><path fill="#151515" opacity=".62" d="M586.68 199.11c3.55.07 7.13.06 10.64.74-3.56.06-7.2.36-10.64-.74z"/><path fill="#151515" opacity=".32" d="M678.86 204.08l1.01-.09c.21 3.42.54 6.84.86 10.25-.74-3.37-1.39-6.75-1.87-10.16z"/><path fill="#1b1b1b" opacity=".37" d="M625.15 205.8c1.01-.1 1.9.19 2.67.89-1.4 1.15-2.29.85-2.67-.89z"/><path opacity=".39" d="M681.13 216.71c1.34 4.74 1.41 9.72 1.48 14.62-.93-4.82-1.26-9.73-1.48-14.62zm-461.82 65.98c3.25-.3 6.51-.61 9.77-.69l.15 1.03-9.92-.34z" fill="#161616"/><path fill="#323232" opacity=".75" d="M303.67 236.59c-1.87-1.08-.66-3.65 1.17-1.97l-1.17 1.97z"/><path opacity=".45" d="M683.16 236.99l.69.06c.48 5.76.96 11.51.85 17.29-.82-5.75-1.26-11.55-1.54-17.35zm.1 147.96c.12-6.13.65-12.24 1.42-18.32.17 6.14-.3 12.25-.8 18.36l-.62-.04z" fill="#151515"/><path opacity=".37" d="M72.02 252.9l.88.08c.16 6.82-.6 13.62-1.66 20.35.13-6.82.91-13.61.78-20.43zm402.91 76.3c4.02.42 8.05.76 12.09.92l-.03.82c-4.08-.05-8.14-.62-12.06-1.74z" fill="#151515"/><path fill="#161616" opacity=".5" d="M224.68 264.38c4.22.13 8.48.39 12.59 1.45-4.23-.13-8.45-.55-12.59-1.45z"/><path fill="#151515" opacity=".54" d="M685.21 263.99l.76-.02c1 14.8.98 29.64.64 44.47-1.03-9.13-.37-18.32-.58-27.48-.09-5.67-.65-11.31-.82-16.97z"/><path opacity=".64" d="M198.32 266.07c-.03-1.92 3.48-2.06 4.36-.66-1.38.59-2.87.86-4.36.66zm320.5.96c7.76.04 15.52.04 23.29.02l-.03.84c-7.71 0-15.43.03-23.14.02l-.12-.88z" fill="#171717"/><path fill="#161616" opacity=".45" d="M188.27 267.93c-.29-2.05 3.55-3.02 4.67-1.43-1.48.7-3.03 1.29-4.67 1.43z"/><path fill="#181818" opacity=".61" d="M503.39 270.1c-.07-1.9 3.37-2.19 4.23-.75-1.3.68-2.78.93-4.23.75z"/><path fill="#1b1b1b" opacity=".65" d="M551.31 269.37c.59-1.5 3.66-1.02 3.43.71-1.21.18-2.42-.04-3.43-.71z"/><path fill="#131313" opacity=".51" d="M209.53 274.89c8.45-1.26 17.08-.77 25.54.21l-.07.75c-8.44-1.08-16.97-1.12-25.47-.96z"/><path fill="#1f1f1f" opacity=".37" d="M205.3 276.12c-.27-1.71 2.77-2.34 3.41-.83-1.01.69-2.21.98-3.41.83z"/><path fill="#1e1e1e" opacity=".35" d="M525.45 277.86c-.12-1.9 4.38-1.82 4.12.09-1.38.12-2.77.09-4.12-.09z"/><path fill="#181818" opacity=".53" d="M234.74 282.13c5.5.1 11.07.19 16.41 1.69-5.47-.48-11.05-.34-16.41-1.69z"/><path fill="#1d1d1d" opacity=".67" d="M213.4 283.61c1.62-.58 3.33-.81 5.05-.86-.03 2.12-3.95 2.38-5.05.86z"/><path fill="#181818" opacity=".71" d="M408.3 285.73c.17-1.32.44-2.63.82-3.91 1.54 4.71.75 9.71.8 14.57-.63-3.54-1.26-7.08-1.62-10.66z"/><path fill="#181818" opacity=".64" d="M502.51 285.59c8.9-1.42 18.02-1.34 26.92.1-3.39.15-6.78.19-10.16-.16-5.59-.66-11.17.67-16.76.06z"/><path fill="#161616" opacity=".36" d="M70.67 287.2l.03.98c1.27 17.16-2.07 34.28-.4 51.42.85 8.71.67 17.48.39 26.22l-.03.99c-1.38-6.87-.35-13.91-.7-20.85-.76-10.53-.73-21.1-.36-31.64 1.08-9.02-.54-18.17 1.07-27.12z"/><path fill="#151515" opacity=".61" d="M336 295.85l.93.09c.18 7.17-.6 14.31-1.59 21.41 0-7.18.88-14.32.66-21.5z"/><path fill="#151515" opacity=".67" d="M419.56 296.35l.19.84c.28 1.37.61 2.73.96 4.09l.19.75c-.94.38-1.87.77-2.79 1.17.47-2.28.93-4.58 1.45-6.85z"/><path fill="#1a1a1a" opacity=".76" d="M340.03 297.96l.86-.12c.05 2.83.03 5.67.07 8.52-.47-2.79-.78-5.59-.93-8.4z"/><path fill="#757575" opacity=".96" d="M291.05 300.3c1.58-.72 4.15 1.57 3.8 3.28-1.6.32-2.95-1.55-3.61-2.82l-.19-.46z"/><path fill="#565656" opacity=".84" d="M453.09 306.3c-1.85 2.99-2.54-2.8.07-.79l-.07.79z"/><path fill="#161616" opacity=".33" d="M311.08 305.91c1.67 3.51 2.37 7.47 1.14 11.24-.12-3.77-.46-7.53-1.14-11.24z"/><path fill="#131313" opacity=".22" d="M405.08 307.89l.6.11c-.75 11.66-1.92 23.31-1.68 35 .12 19.7-.23 39.4.18 59.09-.65-1.96-1.18-3.97-1.15-6.04.17-17.68.07-35.37.07-53.05-.42-11.75 1.43-23.39 1.98-35.11z"/><path d="M81.34 312.27c3.52-1.01 7.84-.94 10.51 1.93 4.67 3.89 4.4 11.62-.17 15.48-4.52 3.32-11.86 2.57-15.1-2.22-3.66-5.02-1.03-13.11 4.76-15.19zm216.89 176.85c.7-3.4 4.64-4.65 7.72-4.25 5.83.49 11.09 3.48 16.28 5.95 3.02 2.62 5.85 7.48 3.51 11.37-1.77-.31-3.56-.29-5.33-.16-7.19.2-14.52-2.72-19.6-7.84-1.41-1.32-2.42-3.13-2.58-5.07zm127.03 3.05c4.99-2.17 10.18-4.81 15.76-4.53 2.83-.03 4.44 2.47 6.11 4.35-2.67 7.1-10.05 10.99-17.21 12.01-3.67.55-7.37.87-11.06 1.17-2.18-5.15 1.65-10.94 6.4-13z" fill="#010101"/><path fill="#171717" opacity=".56" d="M341.85 313.52l-.03-.87c1.03 7.07.41 14.25 1.17 21.35.03 21.67.06 43.34-.01 65-.96 8.38.09 16.93-1.91 25.2 1.51-18.7 1.21-37.47 1.23-56.2.15-18.17-.15-36.33-.45-54.48z"/><path fill="#151515" opacity=".6" d="M434.89 319.64c-1.89-.6-1.86-5.74.08-6.27.04 2.09 0 4.18-.08 6.27z"/><path fill="#151515" opacity=".53" d="M686.06 331.99c-.09-6.13-.08-12.27.49-18.38.13 13.53 1.08 27.2-1.22 40.61.13-7.42.85-14.81.73-22.23z"/><path fill="#1b1b1b" opacity=".73" d="M411.07 317.02l.91-.15c-.04 2.83-.09 5.66-.08 8.49-.5-2.75-.77-5.55-.83-8.34z"/><path opacity=".64" d="M674.93 318.47c1.99.43 2.07 5.66.13 6.14-.07-2.05-.12-4.1-.13-6.14zm-252.04 119.92c2.09.25 2.04 4.19.61 5.36-.47-1.76-.67-3.56-.61-5.36z" fill="#1a1a1a"/><path fill="#262626" opacity=".65" d="M451.79 321.17c1.75.86 3.48 1.75 5.21 2.66-.56.19-1.68.58-2.24.78l-.75.26c-.75-1.24-1.49-2.47-2.22-3.7z"/><path fill="#151515" opacity=".53" d="M333.35 333.34c-.01-3.24.38-6.48 1.38-9.57-.27 3.22-.74 6.41-1.38 9.57z"/><path fill="#121212" opacity=".41" d="M268.16 326.18c3-.28 6-.6 8.99-.99-2.94.82-5.94 1.42-8.93 1.98l-.06-.99z"/><path fill="#131313" opacity=".37" d="M195.95 327.14c4.75.57 9.69.22 14.26 1.87-4.78-.37-9.62-.53-14.26-1.87zM252.7 328.85c4.76-1.29 9.74-1.29 14.63-1.51-4.81 1.04-9.73 1.29-14.63 1.51z"/><path opacity=".6" d="M211.81 329.23c6.41.18 12.87-.63 19.23.5-6.41.15-12.87.54-19.23-.5zm34.84 5.5c3.5-.42 7.02-.57 10.53-.88-3.36 1.31-7.01.97-10.53.88zM231.96 329.73c5.73-1.06 11.57-.38 17.36-.47-5.74.92-11.58.65-17.36.47z" fill="#121212"/><path opacity=".29" d="M624.38 330.15c1.06-.94 2.47-.03 3.54.43l-.85 1.51c-1-.19-3.22-.44-2.69-1.94zm-190.07 268.37c1.36-.49 2.79-.72 4.23-.72.15 1.99-3.47 2.38-4.23.72z" fill="#191919"/><path fill="#171717" opacity=".29" d="M519.72 332.8c6.43-1.6 13.16-.29 19.68-1.41-6.4 1.86-13.09 1.82-19.68 1.41z"/><path fill="#131313" opacity=".6" d="M186.76 331.91c2.88.29 5.78.42 8.65.85-2.91.07-5.87.1-8.65-.85z"/><path fill="#191919" opacity=".27" d="M497.64 332.08c5.88.2 11.89-.82 17.65.72-5.89.21-11.85.54-17.65-.72z"/><path fill="#131313" opacity=".61" d="M201.83 333.86c3.17.32 6.37.5 9.54.88-3.2.09-6.5.3-9.54-.88z"/><path fill="#171717" opacity=".59" d="M560.28 334.52c1.37-.43 2.78-.7 4.23-.79.22 2.04-3.47 2.48-4.23.79z"/><path fill="#181818" opacity=".63" d="M545.33 336.5c1.69-.41 3.42-.66 5.17-.74-.08 2.17-4.1 2.33-5.17.74z"/><path fill="#151515" opacity=".65" d="M500.77 337.85c11.13.38 22.29.4 33.41-.02-5.17 2.01-10.79.8-16.18 1.02-5.73-.25-11.69.98-17.23-1z"/><path fill="#131313" opacity=".28" d="M192.89 349.11c5.17.76 10.42.7 15.59 1.43-5.24.69-10.62.53-15.59-1.43z"/><path fill="#101010" opacity=".67" d="M215.79 351.33c6.35-.23 12.67-1.18 19.04-1.03h.97c-6.61.94-13.34 1.94-20.01 1.03z"/><path fill="#111" opacity=".33" d="M505.97 353.09c13.35 1.09 26.8 1.29 40.15-.01-13.2 2.62-26.93 2.38-40.15.01z"/><path fill="#1c1c1c" opacity=".59" d="M418.77 359.29c1.73.44 2 1.35.82 2.71-.67-.79-.95-1.69-.82-2.71z"/><path fill="#1a1a1a" opacity=".23" d="M72.16 392.61c.48 3.1.75 6.24.75 9.38l-.94.11.19-9.49z"/><path fill="#141414" opacity=".4" d="M681.05 409.16c.21-5.55.69-11.1 1.66-16.58-.02 5.59-.66 11.15-.74 16.73l-.92-.15z"/><path fill="#121212" opacity=".57" d="M404.27 402.91c.78 6.68 1.53 13.38 1.6 20.11l-.79.1c-.18-6.74-.81-13.46-.81-20.21z"/><path fill="#151515" opacity=".34" d="M678.93 427.05c.21-4.1.75-8.16 1.53-12.18-.09 4.08-.43 8.15-.58 12.24l-.95-.06z"/><path fill="#161616" opacity=".6" d="M422.63 435.46c-1.33-6.34-2.02-12.85-.95-19.28.37 6.42.56 12.85.95 19.28z"/><path fill="#161616" opacity=".59" d="M324.06 429.9l.93.1c-.12 4.14-.77 8.24-1.65 12.29.25-4.13.57-8.26.72-12.39z"/><path fill="#161616" opacity=".45" d="M322.69 474.28c-2.54-9.27-1.72-19.21.11-28.54-.69 9.49-1.3 19.06-.11 28.54z"/><path fill="#1a1a1a" opacity=".61" d="M202.27 471.34c.34-1.77 1.22-2.09 2.65-.97-.75.7-1.63 1.02-2.65.97z"/><path fill="#1b1b1b" opacity=".67" d="M138.38 476.36c.6-1.49 3.68-1.03 3.42.71-1.2.19-2.41-.04-3.42-.71z"/><path fill="#1b1b1b" opacity=".69" d="M177.33 477.07c-.01-1.92 3.49-2.08 4.37-.66-1.38.6-2.88.83-4.37.66z"/><path fill="#1a1a1a" opacity=".69" d="M562.39 476.34c.88-1.37 4.34-1.16 4.27.73-1.48.22-2.96-.04-4.27-.73z"/><path fill="#161616" opacity=".62" d="M145.64 477.31c9.21 1.06 18.49.79 27.7-.03-9.1 2.08-18.63 2.55-27.7.03z"/><path fill="#161616" opacity=".66" d="M601.06 478.45c3.06-.69 6.23-.73 9.34-1.11-2.97.9-6.04 1.52-9.15 1.41l-.19-.3z"/><path fill="#1a1a1a" opacity=".68" d="M574.39 478.29c1.62-.95 5.72-1.25 6.25.82-2.12.21-4.29.04-6.25-.82z"/><path fill="#1b1b1b" opacity=".65" d="M320.41 502.03c1.77-.13 3.56-.15 5.33.16-.61 1.7-5.09 1.72-5.33-.16z"/><path fill="#141414" opacity=".55" d="M418.86 505.17c3.69-.3 7.39-.62 11.06-1.17l.12.85c-3.6.34-7.19.75-10.79 1.01l-.39-.69z"/><path fill="#141414" opacity=".54" d="M356.81 506.17c3.15.52 6.32.98 9.47 1.52-3.22-.04-6.44-.39-9.47-1.52z"/><path fill="#141414" opacity=".49" d="M377.72 507.69c3.46-.57 6.93-1.04 10.38-1.64-3.27 1.45-6.85 1.72-10.38 1.64z"/><path fill="#111" opacity=".47" d="M361.61 517.19c7.94.15 15.86-.38 23.78-.84-7.8 1.78-15.88 1.78-23.78.84z"/><path fill="#101010" opacity=".38" d="M229.65 552.31c12.56-.17 25.13-.14 37.69-.01-6.41.85-12.89.57-19.34.59-6.12-.01-12.27.24-18.35-.58z"/><path fill="#161616" opacity=".3" d="M222.55 585.84c11.14.44 22.3.11 33.45.21 24.6-.09 49.2.19 73.8-.14l.06.93c-31.28.14-62.57 0-93.86.07-4.81.01-9.75.5-14.39-1.12l.94.05zM415.87 586.18c30.71-.3 61.42-.05 92.13-.13 6.93-.11 13.9.37 20.81-.36l.13 1.25c-31.98-.12-63.96.01-95.94-.06-5.71-.05-11.49.54-17.13-.7z"/><path fill="#0e0e0e" opacity=".89" d="M300.91 589.04c47.04-.11 94.08.03 141.12-.07 2.09-.03 4.19.22 6.22.78-23.08.63-46.17.13-69.25.29-26 .1-52.01-.21-78 .14l-.09-1.14z"/><path fill="#181818" opacity=".51" d="M183.82 590.97c1.52 1.18 3.01 2.4 4.47 3.66-.8.03-1.6.08-2.4.13-.72-1.25-1.4-2.52-2.07-3.79z"/><path fill="#151515" opacity=".39" d="M317.72 599.23c6.89.52 13.83.43 20.68 1.4-6.92.31-13.91.21-20.68-1.4z"/><path fill="#161616" opacity=".39" d="M414.58 600.59c5.58-.81 11.23-.92 16.83-1.42-5.47 1.56-11.18 1.72-16.83 1.42z"/><path fill="#111" opacity=".59" d="M343.68 601.25c21.53-.12 43.07-.01 64.6-.07-2.39.51-4.83.76-7.26.75-13.68-.15-27.35-.03-41.02-.08-5.44-.05-10.94.46-16.32-.6z"/><path fill="#161616" opacity=".6" d="M274.44 631.42c1.69-.67 3.08.4 4.23 1.54-2.19.14-4.39-.04-6.33-1.13.52-.11 1.57-.31 2.1-.41z"/><path fill="#1a1a1a" opacity=".21" d="M335.53 646.69c4.79-.67 9.64-.84 14.47-.73 20.25.31 40.5-.3 60.74.3l-.49.74c-24.9-.22-49.83.39-74.72-.31z"/><path fill="#171717" opacity=".78" d="M399.32 714.54c1.05 5.42.62 10.97.69 16.46-.08 5.81.41 11.69-.73 17.44-.37-11.3-.41-22.61.04-33.9z"/><path fill="#191919" opacity=".75" d="M346.56 740.41c-.81-6.24-.81-12.58-.01-18.82.53 6.26.54 12.55.01 18.82z"/></svg>