<svg width="1024pt" height="937pt" viewBox="0 0 1024 937" xmlns="http://www.w3.org/2000/svg"><g fill="#212121"><path d="M107.57 0h606.74c2.48 1.14 4.76 3.19 5.08 6.06 1.06 4.57-2.38 9.95-7.28 9.93-200.37.02-400.74.01-601.11.01-18.5.48-36.52 11.78-44.19 28.77-5.61 11.91-5.2 25.4-4.85 38.23.1 46.67 0 93.34.05 140-.07 3.58-.6 8.07-4.24 9.83-3.15 2.2-7.47.85-9.9-1.78-1.92-2.21-1.65-5.3-1.72-8.02-.36-51.01-.02-102.02-.18-153.03.35-7.57 1.15-15.22 3.55-22.45 3.6-10.37 9.53-19.96 17.46-27.58 10.98-10.76 25.46-17.57 40.59-19.97zM756.83 0h159.56c17.51 2.59 34.07 11.5 45.44 25.13 10.15 11.83 15.77 27.21 16.06 42.77.29 31.42-.07 62.86.13 94.29 9.53 2.77 18.95 6.68 26.57 13.19 10.39 8.71 16.48 21.39 19.41 34.43v11.95c-3.78 23.26-22.66 43.42-46 47.63-.02 128.9.04 257.8-.05 386.7-.2 4.4-4.49 8.46-8.96 7.86-2.36-.6-4.86-1.84-5.8-4.23-1.68-3.68-1.14-7.84-1.2-11.76l.02-378.73c-2.47-.59-4.94-1.16-7.42-1.61-50.91 89.71-101.91 179.37-152.91 269.03-2.38 4.18-5.66 8.3-5.72 13.34.1 99.32-.01 198.64.06 297.97-.05 2.63-.35 5.29-1.21 7.81-2.38 4.97-10.32 5.39-13.34.84-2.13-4.91-1.35-10.42-1.47-15.62-.05-88.63.09-177.26-.07-265.88-12.48 22.04-25.34 43.88-37.47 66.12 5.88 10.82 9.11 23.65 6.47 35.89-2.61 14.06-11.15 26.8-22.89 34.92-11.2 7.86-25.56 11.64-39.09 8.92-17.22-3.19-32.28-15.32-39.78-31.05-4.11-8.89-6.36-19.02-4.47-28.76.91-6.59 3.22-12.87 6.02-18.87-12.29-10.53-24.4-21.27-36.72-31.77-.24 11.47.46 22.97-.37 34.42-.25 5.21-7.03 8.92-11.43 5.94-3.33-1.55-4.21-5.55-4.21-8.88 0-15.21.04-30.42-.02-45.63-45.25-38.99-90.21-78.32-135.37-117.42-8.8 9.11-20.11 15.95-32.6 18.46v422.6h168c.1-75.34-.23-150.67.2-226-.01-2.47-.03-5.2 1.71-7.16 2.43-2.58 6.71-3.93 9.84-1.75 4.04 1.97 4.16 7.04 4.26 10.93l-.02 223.97 168 .02c.3-6.19-.92-12.7 1.42-18.6 2.97-4.76 11.1-4.29 13.44.83 1.85 5.72.95 11.83 1.13 17.74 29.34.05 58.67 0 88.01.02 13.19-.42 26.61 1.43 39.6-1.58 12.91-2.85 24.43-11.3 31.07-22.73 4.89-8.34 7.7-18.03 7.35-27.73-.05-36.63.03-73.25-.04-109.88-.17-3.6 1.14-7.82 4.73-9.31 4.25-2.48 10.14.88 10.86 5.57.22 1.53.22 3.09.26 4.66.34 30.99.14 61.99.14 92.99-.11 8.99.56 18.06-1.11 26.96-2.83 15.86-11.73 30.29-23.75 40.88 2.24 2.58 5.16 5.43 4.88 9.15-.9 4.55-5.54 7.22-9.95 7.04-291.01-.09-582.02.06-873.04-.08-3.79-.03-8.01-2.1-8.76-6.14-1.28-4.05 2.46-7.09 4.69-9.9-10.59-9.32-18.82-21.52-22.55-35.19-2.06-7.38-2.4-15.1-2.35-22.72l-.04-112.58c-23.22-4.2-41.97-24.11-45.98-47.19v-12.01c3.7-23.29 22.58-43.56 45.99-47.67.04-104.87-.01-209.74.02-314.61.07-3.5 1.11-7.8 4.79-9.14 5.24-2.88 11.6 2.62 11.21 8.13-.01 105.21-.01 210.43-.01 315.64 11.29 2.16 21.57 8.07 30.03 15.75 92.81-64.1 185.17-128.86 278.15-192.71-2.01-8.74-5.33-17.58-3.79-26.68 2.52-25.04 24.4-46.56 49.49-48.62 17.32-1.53 34.7 6.87 45.56 20.23 7.54 9.07 11.98 20.64 12.56 32.42-.2 7.81-2.06 15.49-4.7 22.83 63.14 54.6 126.02 109.51 189.14 164.12 11.13-10.29 26.23-17.04 41.58-15.71 11.77 1 22.57 6.66 31.73 13.86 69.44-122.48 139.29-244.71 208.58-367.27-2.31-2.06-4.68-4.06-6.93-6.17-8.58-8.08-14.8-18.88-16.54-30.61-2.16-11.78.49-24.24 6.69-34.43 8.16-13.97 22.61-23.87 38.41-27.08.09-32.51.02-65.02.04-97.52-.49-14.09-6.95-28.05-17.81-37.12-9.75-8.13-22.56-12.54-35.26-11.85-48.66-.18-97.32.27-145.99-.22-3.09-.04-6.88.1-8.93-2.68-3.07-4.12-1.52-10.48 2.82-13.1m204.67 178.59c-6.83 1.44-13.41 4.57-18.41 9.5-14.93 14.24-15.04 40.79-.45 55.29 13.01 13.03 35.54 14.25 50.37 3.61 19.93-13.97 20.19-47.44.52-61.75-9.09-6.76-21.05-8.61-32.03-6.65m-550.03 228c-7.52 1.56-14.67 5.27-19.86 10.99-13.2 14.23-12.96 38.55.06 52.82 12.19 13.17 33.84 15.35 48.98 6.15 7.92-4.73 13.62-12.75 16-21.61 4-14.31-.05-31.17-11.84-40.7-9.2-7.51-21.83-9.78-33.34-7.65m-165.43 163.78c-.11 49.21.02 98.43-.07 147.64-.32 3.21-.71 7.35-4.11 8.84-4.84 2.68-12.22-.83-11.71-6.78-.33-46.11-.06-92.22-.15-138.33-42.8 29.68-85.59 59.37-128.39 89.02 2.03 5.32 4.29 10.6 5.36 16.22 2.32 10.32.26 21.25-4.15 30.73-7.66 16.11-23.17 28.48-40.82 31.6-.01 38.55 0 77.11 0 115.67-1.17 14.95 4.43 30.28 15.2 40.77 9.37 9.32 22.63 14.37 35.8 14.24 39 .01 78 .01 117 .01.16-50.32-.34-100.63.31-150.94-.33-3.3.9-7.26 4.44-8.24 4.82-2.23 11.51 1.49 11.04 7.12.43 50.68.11 101.37.21 152.05 55.33.01 110.67.01 166 0 .02-140.87-.06-281.75.05-422.63-12.69-2.44-24.47-9.29-32.95-19.03-44.46 30.52-88.52 61.63-133.06 92.04m443.17 59.95c-6.52 1.11-12.91 3.62-18.03 7.89-14.52 11.86-17.33 34.63-7.84 50.43 9.38 16.06 31.19 21.44 47.91 14.63 8.57-3.35 15.73-10.13 19.4-18.58 6.8-15.21 3.63-35.08-9.41-46.01-8.65-7.68-20.83-9.91-32.03-8.36m-643.69 28.26c-6.85 1.46-13.47 4.58-18.46 9.57-11.73 11.22-14.19 30-7.73 44.56 4.28 9.88 13.38 17.34 23.77 20.01 14.53 3.95 31.67-.42 41.04-12.63 7.05-9.01 9.27-21.12 7.26-32.24-2.21-11.16-9.52-21.54-20.04-26.25-7.99-3.84-17.19-4.39-25.84-3.02zM52.12 266.25c3.74-1.36 7.55 1.54 8.91 4.91 2.14 4.55 1.34 11.01-3.31 13.69-4 2.69-9.89-.06-11.22-4.49-1.59-5.12-.53-12.71 5.62-14.11zM968.1 696.26c3.4-1.18 6.98 1.14 8.7 4.03 1.88 2.78 1.5 6.38.92 9.51-1.32 5.65-9.39 8.1-13.44 3.84-3.91-5.29-3.41-15.23 3.82-17.38z"/></g></svg>
