<svg width="700pt" height="700pt" viewBox="0 0 700 700" xmlns="http://www.w3.org/2000/svg"><path d="M336.83 161.99c-.34-7.73 6.34-14.92 14.1-15 7.37-.44 14.43 5.58 15.07 12.95 1.12 14.94 2.01 29.9 3.04 44.85 9.63 11.44 19.25 22.87 28.89 34.3 17.74 0 35.48.02 53.22 0 .06-7.38-.1-14.77.04-22.14-.12-4.16 3.73-7.74 7.87-7.42 25.5-.05 51 .01 76.51-.02-5.24-14.87-10.74-29.64-15.83-44.55-1.83-5.3 3.96-11.04 9.24-9.11 21.59 7.07 43.08 14.46 64.65 21.6 3.19.76 5.91 3.16 6.45 6.5 5.84 23.75 11.67 47.51 17.51 71.27 1.09 4.53 2.6 9.05 2.43 13.77-.09 24.71.07 49.42-.07 74.12.11 4.21-3.84 7.7-7.97 7.4-12.97.04-25.93-.01-38.9.01-.04 23.18.06 46.37-.05 69.55.21 4.7-4.45 8.18-8.92 7.56-25.04-.05-50.08.02-75.12-.04.82 4.08.6 8.25.59 12.39-.01 35.69.02 71.38-.01 107.06.33 4.59-3.93 8.5-8.46 7.96-87.09-.02-174.18.03-261.27-.02-4.3.3-8.14-3.62-7.81-7.9-.05-36.05.01-72.09-.03-108.13-.06-3.81-.12-7.63.58-11.39-25.9.1-51.81.04-77.72.04-3.46.2-6.93-2.19-7.69-5.62-.48-2.95-.24-5.95-.27-8.92.02-20.85 0-41.69 0-62.54-12.99-.02-25.98.03-38.96-.01-3.45.18-6.89-2.17-7.67-5.59-.49-2.95-.24-5.95-.28-8.92.02-20.34.01-40.68.01-61.01.04-4.42-.35-8.93.76-13.26 6.42-25.89 12.74-51.81 19.12-77.71.52-3.02 2.75-5.52 5.73-6.3 21.81-7.27 43.57-14.71 65.41-21.87 5.29-1.93 11.04 3.86 9.21 9.14-5.08 14.89-10.59 29.65-15.82 44.5 25.53.03 51.05-.02 76.58.02 4.09-.25 7.9 3.3 7.79 7.43.16 7.38-.01 14.76.05 22.15 18 .01 35.99 0 53.98 0 12.08-14.41 24.24-28.75 36.25-43.22-.71-11.3-1.63-22.58-2.23-33.88m11.43-6.69c-2.84 1.35-4.31 4.6-3.89 7.65 3.4 50.67 6.8 101.34 10.2 152 .23 4.17.91 8.38.17 12.54-3.47 19.86-6.86 39.73-10.28 59.6-.81 3.04 1.29 6.07 4.02 7.25 3.82 1.9 9.01-.48 9.86-4.69 3.59-20.56 7.14-41.12 10.76-61.67.62-3.3.18-6.66-.03-9.97-3.54-52.31-6.9-104.63-10.49-156.92-.24-4.85-6.05-8.18-10.32-5.79m-208.94 23.06c-1.27 4.89-3.08 9.65-4.01 14.62-.29 1.76.13 5.04 2.54 4.71 3.19-.72 5.12-3.82 6.06-6.73 1.61-5.19 2.99-10.45 4.53-15.65-3.04 1.01-6.08 2.03-9.12 3.05m16.51-1.55c-1.7 5.65-3.17 11.37-4.96 17-1.82 5.64-6.58 10.96-12.78 11.43-4.26.4-8.27-2.6-9.58-6.57-1.64-4.25-.38-8.81.83-12.99-5.23 1.77-10.47 3.5-15.69 5.26-4.77 19.34-9.52 38.69-14.27 58.04 15.54-10.44 31.14-20.81 46.63-31.33.82-4.37 2.59-8.47 4.05-12.64 3.55-9.96 7.12-19.9 10.66-29.85l-4.89 1.65m383.4-1.65c3.54 9.95 7.12 19.89 10.67 29.84 1.47 4.17 3.23 8.28 4.05 12.65 15.49 10.51 31.09 20.88 46.63 31.32-4.75-19.35-9.49-38.69-14.26-58.03-5.23-1.76-10.47-3.49-15.69-5.26 1.27 4.34 2.52 9.15.61 13.51-1.53 4.06-5.99 6.77-10.31 5.96-5.78-.97-10.1-5.97-11.84-11.34-1.78-5.62-3.27-11.34-4.95-16.99-1.64-.55-3.29-1.11-4.91-1.66m12.3.15c1.54 5.22 2.94 10.48 4.55 15.69.92 2.93 2.89 6.01 6.08 6.73 2.39.19 2.78-2.97 2.51-4.74-.93-4.97-2.75-9.73-4.01-14.62-3.04-1.03-6.09-2.05-9.13-3.06m-238.89 63.79l18.37.01c3.38-4.02 6.76-8.04 10.13-12.08-.46-6.77-.91-13.54-1.36-20.31-9.06 10.78-18.1 21.58-27.14 32.38m57.26-21.64c.45 7.21.95 14.43 1.43 21.64 5.58.01 11.17.01 16.76 0-6.06-7.22-12.11-14.44-18.19-21.64m-270.87 40.86l40.21.01c3.35-5.66 7.16-11.06 10.24-16.86.55-5.68.03-11.43.2-17.14-16.88 11.33-33.78 22.64-50.65 33.99m58.76-33.69c-.01 4.64-.01 9.27 0 13.91 23.63.01 47.26 0 70.89 0 1.36-4.63 2.72-9.27 4.06-13.91-24.98 0-49.97-.01-74.95 0m310.12 0c1.27 4.64 2.55 9.27 3.84 13.91 23.48.01 46.96.01 70.45 0v-13.91c-24.77 0-49.53-.01-74.29 0m82.39-.31c.17 5.71-.34 11.45.2 17.14 3.08 5.8 6.9 11.2 10.26 16.85 13.39-.01 26.79.01 40.19-.01-16.87-11.34-33.77-22.66-50.65-33.98m-209.03 13.92l-166.27 8.44c5.64 3.49 11.26 7.03 16.9 10.54 2.6 1.8 5.93.89 8.87 1.11-5.58-3.53-11.19-7-16.78-10.51-2.63-1.85-5.99-1.01-8.99-1.14m340.95 1.17c-5.57 3.5-11.17 6.95-16.73 10.48 2.93-.21 6.27.68 8.86-1.12 5.64-3.5 11.26-7.03 16.9-10.54-3.01.15-6.39-.71-9.03 1.18m-355.19-1.19c5.63 3.55 11.29 7.08 16.95 10.6 2.59 1.76 5.88.84 8.8 1.06-5.48-3.47-11.01-6.87-16.5-10.32-2.67-2.03-6.16-1.19-9.25-1.34m28.52 0c5.54 3.49 11.11 6.94 16.66 10.42 2.65 1.92 6.07 1.08 9.11 1.24-5.63-3.54-11.27-7.05-16.9-10.56-2.6-1.8-5.94-.89-8.87-1.1m14.27.01c6.42 3.99 12.76 8.09 19.29 11.92.37-1.22.74-2.44 1.1-3.65-4.47-2.62-8.67-5.71-13.29-8.06-2.34-.43-4.74-.17-7.1-.21m14.26-.02c2.4 1.54 4.81 3.04 7.24 4.53.36-1.43.72-2.85 1.09-4.27-2.77-.22-5.55-.28-8.33-.26m256.24.27c.28 1.03.85 3.09 1.14 4.12 2.34-1.45 4.67-2.9 6.98-4.39-2.72-.02-5.42.05-8.12.27m2.18 7.93c.26.92.79 2.77 1.05 3.7 6.44-3.87 12.79-7.9 19.15-11.89-2.37.05-4.77-.21-7.1.22-4.56 2.32-8.7 5.38-13.1 7.97m25.64-7.11c-5.69 3.51-11.31 7.11-17.02 10.59 3.07-.17 6.51.68 9.19-1.24 5.55-3.48 11.12-6.93 16.66-10.43-2.93.21-6.25-.7-8.83 1.08m28.07.28c-5.49 3.44-11 6.84-16.47 10.3 2.9-.22 6.2.71 8.78-1.05 5.67-3.52 11.33-7.05 16.97-10.61-3.11.14-6.61-.69-9.28 1.36m-374.62-.26c-.66 1.06-1.32 2.12-1.97 3.19 3.99 2.32 7.69 5.16 11.86 7.17 2.32.4 4.69.16 7.03.2-5.61-3.56-11.27-7.05-16.92-10.56m372.42 10.56c2.33-.04 4.71.2 7.04-.2 4.16-2.02 7.86-4.85 11.86-7.17-.67-1.07-1.33-2.13-1.99-3.19-5.64 3.51-11.3 7-16.91 10.56m-292 14.65c.06 6.4.01 12.81.03 19.22 2.19-12.72 4.4-25.43 6.55-38.16-.6.06-1.8.16-2.4.21-1.86 6.09-4.54 12.22-4.18 18.73m14.77-18.76c-1.43 8.38-2.88 16.76-4.32 25.15 9.33 0 18.66 0 27.99-.01.88-8.38 1.73-16.76 2.59-25.15l-26.26.01m41.37 0c-.84 7.94-1.62 15.88-2.48 23.82-.94 7.75-.4 15.57-.54 23.35 19.08.01 38.16.01 57.24 0-1.04-15.72-2.09-31.45-3.15-47.18l-51.07.01m80.46 0c1.05 15.73 2.07 31.45 3.13 47.18 12.46-.01 24.91.01 37.36-.01-1.31-15.75-3.18-31.45-4.73-47.17-11.92 0-23.84-.02-35.76 0m50.86-.01c.87 8.39 1.72 16.77 2.6 25.16h27.99c-1.44-8.39-2.88-16.77-4.33-25.16h-26.26m34.47.07c2.2 12.49 4.25 24.99 6.51 37.47.08-6.58 0-13.16.07-19.74.26-6.25-2.48-12.03-3.83-18.02l-2.75.29m-308.43 3.45c2.86.72 5.83.67 8.76.6-2.21-1.4-4.44-2.78-6.66-4.16-.71 1.18-1.41 2.37-2.1 3.56m392.72.6c2.88.02 5.77-.02 8.65-.22-.62-1.34-1.24-2.66-1.85-3.99-2.29 1.38-4.54 2.79-6.8 4.21m-446.95 15.1c-.01 3.58-.01 7.16-.01 10.75 8.69.04 17.37-.06 26.05.04 4.92-.03 9.25 2.81 12.41 6.38 14.77 14.97 29.62 29.88 44.44 44.82 14.28 0 28.55-.01 42.83 0 .04-20.66.01-41.32.02-61.99-41.92 0-83.83.01-125.74 0m384.23 0c-.01 20.66 0 41.32 0 61.98 14.28.01 28.56 0 42.84 0 15.32-15.42 30.65-30.85 45.94-46.3 2.83-2.94 6.78-4.85 10.9-4.89 8.68-.09 17.37 0 26.06-.04v-10.75c-41.92.01-83.83 0-125.74 0m-233.16 13.48c8.54 5.37 17.12 10.68 25.69 16.02.13-1.39.27-2.78.41-4.17-5.72-3.56-11.43-7.14-17.15-10.71-2.62-1.81-5.98-.97-8.95-1.14m14.27 0c4.07 2.59 8.17 5.12 12.26 7.67.14-1.4.28-2.79.43-4.18-1.32-.85-2.62-1.71-3.98-2.48-2.58-1.67-5.83-.83-8.71-1.01m166.59 3.49c.14 1.39.28 2.79.43 4.18 4.09-2.55 8.19-5.08 12.26-7.67-2.26 0-4.53-.14-6.77.15-2.18.7-3.99 2.18-5.92 3.34m18.1-2.4l-17.24 10.76c.13 1.39.27 2.78.42 4.17 8.56-5.34 17.14-10.65 25.68-16.02-2.94.18-6.25-.67-8.86 1.09m-200.73 2.28l-.68 4.01c9.08 5.66 18.17 11.32 27.26 16.98l.43-4.15c-9-5.62-18-11.23-27.01-16.84m184.36 16.84c.14 1.38.28 2.76.43 4.14 9.09-5.64 18.16-11.31 27.25-16.96-.17-1.01-.5-3.02-.66-4.02-9.01 5.61-18.02 11.22-27.02 16.84m-333.65-15.39c-.01 4.82-.01 9.64 0 14.46 8.66-.04 17.32.13 25.98-.02 3.86.12 7.2-3.41 7.1-7.22.08-3.76-3.2-7.23-7.01-7.14-8.69-.16-17.38-.02-26.07-.08m476.86 7.25c-.1 3.82 3.26 7.33 7.12 7.2 8.66.13 17.32-.03 25.98.01v-14.46c-8.67.06-17.34-.07-26.01.07-3.85-.12-7.2 3.38-7.09 7.18m-328.95-.68l-.7 4c9.27 5.77 18.53 11.55 27.8 17.31.14-1.4.28-2.79.41-4.18-9.19-5.68-18.33-11.43-27.51-17.13m186.6 17.14c.13 1.39.27 2.78.42 4.17 9.28-5.75 18.53-11.53 27.8-17.29-.18-1-.52-3-.7-4.01-9.18 5.71-18.34 11.44-27.52 17.13m-304.55-2.08c15.65 15.59 31.12 31.36 46.74 46.99 2.7 3.05 7.93 3.09 10.64.03 2.73-2.82 2.4-7.68-.49-10.25-15.54-15.72-31.16-31.35-46.68-47.08-1.73 4.79-5.45 8.52-10.21 10.31m392.67 37.3c-3.38 3.31-2.07 9.66 2.31 11.4 3.08 1.44 6.73.26 8.87-2.24 15.38-15.49 30.71-31.04 46.17-46.46-4.76-1.8-8.49-5.53-10.22-10.32-15.65 15.93-31.51 31.67-47.13 47.62m-276.8-40.34c9.42 5.9 18.88 11.77 28.32 17.65l.43-4.17c-9.35-5.82-18.71-11.65-28.07-17.47-.23 1.32-.46 2.65-.68 3.99m189.55 13.48l.41 4.17c9.45-5.88 18.9-11.75 28.33-17.65l-.69-3.99c-9.36 5.82-18.7 11.65-28.05 17.47m-115.94-14.84c10.76 6.76 21.56 13.45 32.36 20.16l.67-4c-7.93-4.96-15.9-9.88-23.82-14.87-2.66-1.99-6.14-1.14-9.21-1.29m14.27-.02c6.2 3.93 12.45 7.78 18.68 11.67l-.3-4.63c-3.81-2.2-7.33-4.93-11.32-6.82-2.32-.43-4.72-.18-7.06-.22m14.98.58c.4 1.16 3.05 2.05 3.29.41-.36-1.23-3.03-1.99-3.29-.41m32.3-.84l.14 3.2c13.5 8.41 26.99 16.82 40.51 25.21-.18-1.58-.35-3.16-.52-4.74l-30.51-19c-3.06-1.83-5.92-4.33-9.62-4.67m9.69.09c7.74 5.14 15.7 9.94 23.62 14.79-3.84-3.86-8.08-7.31-12.72-10.17-3.39-2.04-6.78-4.49-10.9-4.62m-79.47 3.93c13.05 8.17 26.13 16.31 39.21 24.43.22-1.33.45-2.65.68-3.98-12.06-7.52-24.12-15.03-36.19-22.54-1.24.69-2.47 1.39-3.7 2.09m-211.23 1.06v21.65c13.78 0 27.55.01 41.32 0-7.14-7.22-14.3-14.43-21.46-21.63-6.62-.01-13.24-.02-19.86-.02m490.13.01c-7.16 7.21-14.31 14.42-21.46 21.64 13.77.01 27.54 0 41.31 0v-21.65l-19.85.01m-344.97.59l-.69 4.01c9.66 5.71 18.81 12.35 28.82 17.42l.45-3.64-28.58-17.79m59.23 2.98c14.87 9.29 29.77 18.55 44.65 27.82.19-.98.56-2.95.74-3.94-14-8.79-28.06-17.49-42.08-26.24-1.11.79-2.22 1.57-3.31 2.36m131.85 14.8c.12.91.34 2.74.45 3.66 10-5.09 19.16-11.72 28.82-17.43l-.68-4.01-28.59 17.78m-54.75-15.6c.09 1.53.2 3.06.3 4.6 13.51 8.43 27.02 16.85 40.55 25.25-.05-1.5-.09-2.99-.12-4.48-13.58-8.46-27.15-16.92-40.73-25.37m-83.07 5.97c16.42 10.24 32.84 20.48 49.27 30.69.22-1.34.45-2.67.68-3.99-15.68-9.78-31.37-19.53-47.04-29.32-.97.88-1.94 1.75-2.91 2.62m-55.32 3.89c4.26 2.6 8.45 5.29 12.69 7.92 2.61 1.82 5.96.91 8.92 1.1-6.96-4.37-13.95-8.7-20.93-13.05l-.68 4.03m202.17 9.02c2.98-.19 6.37.73 8.99-1.14 4.21-2.62 8.38-5.29 12.61-7.88-.22-1.35-.45-2.69-.66-4.03-6.99 4.34-13.98 8.68-20.94 13.05m-151.85-7.13c17.63 10.99 35.26 21.97 52.9 32.94.23-1.33.45-2.66.69-3.98-17.08-10.64-34.16-21.27-51.23-31.9-.8.97-1.58 1.95-2.36 2.94m88.68-2.5c-.25 1.33-.48 2.66-.71 4l40.9 25.48c0-1.48 0-2.96.01-4.43-13.4-8.36-26.81-16.69-40.2-25.05m-140.49 8.92c2.85.9 5.85.77 8.81.72-2.66-1.71-5.34-3.37-8.01-5.04-.28 1.44-.54 2.88-.8 4.32m217.95.72c2.95.05 5.96.17 8.81-.71l-.79-4.32c-2.68 1.66-5.37 3.32-8.02 5.03m-168.32-4c-.46.8-1.38 2.41-1.84 3.22 18.49 11.56 37.02 23.06 55.52 34.61l.75-3.91c-18.09-11.39-36.26-22.66-54.43-33.92m89.47 2.37c-.25 1.32-.5 2.65-.73 3.98 14.1 8.79 28.21 17.58 42.32 26.35.01-1.1.01-3.31.01-4.41-13.86-8.65-27.73-17.28-41.6-25.92m-92.52 4.59l-.43 4.13c18.59 11.58 37.15 23.21 55.78 34.72l.73-3.94c-18.69-11.64-37.38-23.28-56.08-34.91m91.08 3.43c-.24 1.32-.47 2.65-.69 3.99l43.72 27.22c.01-1.11.01-3.31.01-4.42-14.34-8.94-28.68-17.88-43.04-26.79m-91.59 5.13l-.01 4.41c16.24 10.14 32.5 20.24 48.73 30.38 1.14-.77 2.27-1.54 3.42-2.3-17.37-10.85-34.76-21.67-52.14-32.49m90.21 2.87l-.72 3.96c15.02 9.42 30.09 18.77 45.14 28.14l-.02-4.47c-14.81-9.18-29.59-18.43-44.4-27.63m-230.96.71c-.01 20.66-.01 41.32 0 61.97 35.14.01 70.28.02 105.42 0-4.05-4.16-9.39-8.2-9.72-14.54-1.16-8.62 6.66-16.9 15.35-16.08 6.36-.06 10.66 5.03 14.67 9.22.01-13.53.01-27.05 0-40.57-25.53-.01-51.06.02-76.59-.02 1.29 5 .73 10.69-2.88 14.63-4.94 6.12-14.98 6.92-20.74 1.52-5.49-5.26-10.71-10.8-16.13-16.14l-9.38.01m290.39 40.56c4.01-4.18 8.3-9.27 14.65-9.21 8.69-.83 16.51 7.45 15.37 16.06-.34 6.33-5.66 10.39-9.73 14.56 35.15.02 70.29.01 105.43 0 .01-20.65.01-41.31 0-61.97-3.13 0-6.25-.01-9.36-.02-5.26 5.18-10.36 10.52-15.63 15.68-4.64 4.67-12.54 5.44-18.02 1.79-5.85-3.56-8.04-11.08-6.14-17.48-25.52.06-51.05.01-76.57.02-.01 13.53-.01 27.05 0 40.57m-149.63-35.26c-.01 1.47-.01 2.94 0 4.42 13.96 8.72 27.95 17.43 41.93 26.13 1.12-.77 2.25-1.55 3.38-2.33-15.09-9.41-30.21-18.8-45.31-28.22m88.79 2c-.24 1.33-.47 2.66-.7 3.99 15.51 9.66 31.01 19.33 46.53 28.97-.01-1.48-.01-2.95-.01-4.42-15.29-9.5-30.53-19.05-45.82-28.54m-88.8 6.88c-.01 1.47-.01 2.94-.01 4.42l35.12 21.88c1.13-.78 2.26-1.55 3.4-2.31-12.83-8.01-25.67-16-38.51-23.99m87.42 1.14l-.75 3.93c15.95 10.02 31.97 19.94 47.96 29.9-.01-1.48-.01-2.96-.01-4.43l-47.2-29.4m-87.42 7.75c-.01 1.47-.01 2.94-.01 4.42 9.43 5.88 18.86 11.75 28.3 17.63 1.13-.78 2.26-1.55 3.4-2.31-10.56-6.58-21.12-13.17-31.69-19.74m85.99.26c-.31 1.73-.61 3.45-.9 5.19 15.63 10 31.28 19.99 46.93 29.98 1.14-1.36 4.11-3.72 1.84-5.32-15.9-10.03-31.92-19.9-47.87-29.85m-85.99 8.63c-.01 1.46-.01 2.93-.01 4.4 7.15 4.47 14.31 8.94 21.48 13.39 1.13-.78 2.27-1.55 3.41-2.32l-24.88-15.47m-35.05 65.26c-3.12 1.84-3.28 6.32-1.48 9.15 1.93 3.31 6.73 4.41 9.9 2.23 28.94-19.74 57.93-39.42 86.9-59.12-3.91-3.15-6.21-7.83-6.35-12.85-29.56 20.34-59.34 40.36-88.97 60.59m-.83-46.62c7.38 7.73 15.05 15.2 22.54 22.83l12.14-8.25c-7.49-7.57-15.03-15.09-22.48-22.69-1.99-2.2-4.68-4.35-7.86-3.67-5.34.6-8.08 7.87-4.34 11.78m119.52-12.55c-.47 4.96-3.26 9.28-7.33 12.05 28.57 18.89 57.14 37.79 85.59 56.84 2.89 1.61 6.88.69 8.86-1.94 2.3-2.84 2.05-7.74-1.16-9.81-28.61-19.11-57.37-37.99-85.96-57.14m76.19 2.97c-7.69 7.75-15.49 15.4-23.01 23.31 4.03 2.72 8.09 5.39 12.14 8.08 7.01-7.1 14.1-14.12 21.08-21.26 3.11-2.87 2.82-8.33-.55-10.86-2.78-2.34-7.25-1.98-9.66.73m-159.81-.16c-.01 1.47-.01 2.93-.01 4.4 4.88 3.05 9.77 6.1 14.66 9.14 1.13-.78 2.26-1.56 3.39-2.32l-18.04-11.22m-.02 8.87c-.01 1.98-.01 3.97-.01 5.96l5.14 5.18c2.03-1.38 4.06-2.77 6.1-4.15-3.73-2.35-7.48-4.67-11.23-6.99m62.12 7.58c7.66 4.79 15.35 9.54 22.99 14.36 2.68 2.03 6.18 1.2 9.29 1.33-9.64-6.04-19.3-12.02-28.94-18.05-1.11.79-2.21 1.59-3.34 2.36m-3.46 2.28c-1.13.77-2.27 1.54-3.4 2.32 5.26 3.28 10.52 6.55 15.75 9.86 2.64 1.95 6.09 1.05 9.12 1.23-7.13-4.5-14.31-8.94-21.47-13.41m-10.21 6.95c3.48 2.02 6.7 4.54 10.36 6.26 2.33.4 4.71.17 7.06.2-4.65-2.94-9.34-5.83-14-8.75-1.14.76-2.29 1.52-3.42 2.29m-6.94 4.79c2.97 2.15 6.65 1.72 10.09 1.66-2.19-1.39-4.39-2.76-6.58-4.13-1.18.82-2.35 1.64-3.51 2.47m-34.03 23.09c4.52 4.46 8.87 9.1 13.47 13.47 2.77 2.69 7.72 2.37 10.2-.56 2.37-2.61 2.38-6.99-.08-9.55-3.68-4.01-7.67-7.72-11.46-11.62-4.05 2.74-8.09 5.5-12.13 8.26m-63.14-6.33c-.01 33.76 0 67.52 0 101.28 82.51-.01 165.03.01 247.55-.01l-.02-101.27c-6.37-.03-12.75.08-19.12-.08 6.93 4.01 9.13 13.83 4.73 20.47-3.92 6.58-13.39 8.99-19.85 4.78-7.59-5.37-15.42-10.38-23.15-15.56-5.18 5.14-10.23 10.41-15.44 15.52-4.17 4.2-10.98 5.33-16.31 2.79-6.15-2.75-9.78-10-8.23-16.56.82-4.81 4.69-8.1 7.95-11.36h-70.29c3.24 3.26 7.1 6.53 7.94 11.31 1.63 6.83-2.36 14.37-8.89 16.9-5.22 2.16-11.62.94-15.61-3.06-4.89-4.78-9.61-9.71-14.45-14.53-7.82 5.4-15.8 10.54-23.46 16.15-4.2 3.02-10.1 3.26-14.68.94-6.79-3.23-10.01-12-7.02-18.89 1.46-4.24 5.59-6.46 9.07-8.81-6.91-.01-13.82-.01-20.72-.01m158.76 10.25c-2.55 3.13-1.51 8.3 1.95 10.33 2.85 1.82 6.84 1.25 9.13-1.23 4.68-4.61 9.24-9.33 13.89-13.96-2.68-1.75-5.21-3.76-8.08-5.19-2.27-.39-4.6-.2-6.89-.22-3.29 3.47-6.92 6.62-10 10.27zm-245.78-256c-4.42-.63-1.62-6.04 1.16-7.16 2.55 2.02 1.83 5.94-1.16 7.16zm418.27-6.5c3.61-.9 6.02 6.31 1.69 6.48-2.39-.96-4-4.63-1.69-6.48zm-389.94 42.02c2.43-.88 5.09 1.69 4.28 4.15-.58 2.39-3.91 3.31-5.62 1.53-1.88-1.63-1.06-5.07 1.34-5.68zm361.13.05c4.01-1.7 6.5 4.98 2.4 6.33-4.05 1.85-6.61-5.02-2.4-6.33zm-208.05 29.04c2.42-.61 4.85 2.08 3.88 4.43-.65 2.27-3.85 3.05-5.51 1.39-2.05-1.71-1-5.43 1.63-5.82zm57.94-.02c2.4-.52 4.73 2.09 3.82 4.42-.66 2.27-3.88 3.1-5.54 1.42-2.1-1.73-.95-5.52 1.72-5.84zm-115.91 1.13c2.26-1.47 5.56.74 5.04 3.4-.2 2.54-3.61 3.87-5.49 2.18-1.88-1.37-1.59-4.53.45-5.58zm34.89-.4c1.86-1.7 5.18-.47 5.54 2 .58 2.55-2.39 4.92-4.74 3.72-2.24-.9-2.72-4.24-.8-5.72zm100.95.06c1.8-1.77 5.19-.58 5.55 1.9.65 2.54-2.34 4.96-4.69 3.76-2.23-.88-2.73-4.17-.86-5.66zm-207.19 33.79c-3.06-1.09-3.07-5.89-.04-7.01 4.61-.5 9.3-.41 13.92-.09 2.37.38 2.94 3.04 2.79 5.06-.11 5.21.28 10.46-.22 15.65-.72 3.48-6.35 3.51-7.1.03-.51-4.43-.09-8.92-.21-13.37-3.04-.03-6.12.24-9.14-.27zm298.58-.04c.07-2.44-.49-5.95 2.42-7 4.58-.45 9.24-.39 13.84-.06 3.21.59 3.72 5.49.84 6.9-3.09.9-6.38.35-9.55.46-.14 4.54.34 9.12-.27 13.63-1.01 3.15-6.02 3.14-7-.03-.58-4.6-.11-9.27-.28-13.9zm-370.25 4.52c2.24-1.09 5.11.98 4.72 3.46-.17 2.53-3.52 3.97-5.44 2.29-2.03-1.41-1.58-4.89.72-5.75zm456.89-.16c2.18-.7 4.62 1.36 4.25 3.65-.2 2.66-3.83 3.99-5.67 2.06-1.95-1.64-1.07-5.17 1.42-5.71zm-403 55.04c2.34-1.54 5.74.92 5 3.62-.33 2.4-3.55 3.58-5.39 2.03-1.9-1.35-1.69-4.57.39-5.65zm348.05 0c2.31-1.48 5.68.97 4.91 3.63-.29 2.26-3.36 3.56-5.15 2.13-2.14-1.21-1.95-4.72.24-5.76zm-311.38 12.63c1.01-2.41 3.88-2.2 6.03-2.21 11.7.09 23.4-.04 35.1.06 1.87-.18 4.06 1.01 4.15 3.07.29 3.66.33 7.37-.04 11.03-.53 3.31-5.6 3.81-6.92.79-.7-2.38-.36-4.92-.44-7.37-11.3-.03-22.6.06-33.9-.03-2.86.45-5.28-2.72-3.98-5.34zm232.92 0c1-2.42 3.89-2.2 6.05-2.21 12.05.16 24.11-.16 36.15.15 4.26.15 4.14 7.32-.14 7.33-11.61.26-23.23.02-34.84.1-.08 2.45.27 5-.45 7.38-1.33 3-6.41 2.51-6.91-.81-.32-3.96-.46-8 .14-11.94zm-94.39 19.59c1.99-1.48 5.14.04 5.27 2.5.38 2.63-2.88 4.71-5.1 3.25-2.15-1.12-2.24-4.51-.17-5.75zm-98.17 10.68c2.04-1.39 5.19.22 5.17 2.71.32 2.67-3.13 4.62-5.27 3.01-2.03-1.25-1.96-4.54.1-5.72zm193.88-.11c2.06-1.21 4.93.4 5.01 2.78.31 2.57-2.9 4.6-5.07 3.16-2.31-1.14-2.24-4.83.06-5.94zm0 52.86c2.47-1.57 5.9 1.18 4.9 3.93-.56 2.37-3.91 3.3-5.58 1.51-1.68-1.45-1.3-4.45.68-5.44zm-193.86 2.26c1.78-1.5 4.81-.41 5.31 1.83.86 2.56-2.12 5.21-4.57 4.04-2.39-.88-2.82-4.44-.74-5.87zm54.01-.12c1.85-1.48 4.91-.28 5.31 2.04.69 2.5-2.21 5.01-4.59 3.87-2.44-.85-2.88-4.5-.72-5.91zm84.94-.02c2.08-1.67 5.55.16 5.35 2.82.1 2.24-2.51 4.05-4.57 3.14-2.51-.8-2.98-4.54-.78-5.96zm-234.71 21.84c-.6-1.96 1.93-2.78 3.41-2.54 3.23.49 6.02 2.35 8.96 3.69 3.73 1.9 8.62 3.31 9.58 8.02-3.21 2.26-6.87.62-9.97-.91-5.68 9.67-10.81 19.68-16.86 29.13l-.4-2.17c3.72-9.96 7.95-19.74 11.84-29.63-2.42-1.45-5.81-2.51-6.56-5.59zm295.97 31.16c.18-3.66 5.89-4.33 7.07-.91.76 5.86.08 11.84.35 17.75-.13 2.51.62 6.26-2.39 7.39-3.16.58-6.4.21-9.58.29-15.31-.06-30.62.09-45.92-.07-2.76.19-4.73-3.19-3.29-5.53.91-1.98 3.26-1.99 5.11-1.98 16.18.04 32.35.02 48.53.02.11-5.65-.21-11.32.12-16.96zm-323.6 7.83c1.71-1.01 4.61-1.83 5.85.28.41 3.56-3.25 5.46-5.59 7.37 5.13 8.58 10.24 17.17 15.41 25.74.59 1.16 1.64 2.47.6 3.82-7.23-8.5-13.95-17.41-20.97-26.08-2.62 1.53-5.81 4.46-8.99 2.55-1.35-2.57 1.13-4.96 3.04-6.34 3.53-2.48 6.98-5.09 10.65-7.34zm206.37 9.43c11.51-.74 23.12-.05 34.67-.33 2.37.19 5.6-.65 7.11 1.77 1.66 2.34-.31 6-3.22 5.76-12.32.1-24.66.09-36.98 0-4.02.4-5.34-5.86-1.58-7.2z"/></svg>