<svg width="462pt" height="173pt" viewBox="0 0 462 173" xmlns="http://www.w3.org/2000/svg"><path d="M249.62 33.19c21.77-11.03 43.57-22 65.36-32.99-10.58 23.6-21.19 47.19-31.79 70.78-2.82-6.58-5.59-13.19-8.4-19.78-12 11.78-23.98 23.59-35.98 35.38 7.37 7.43 14.79 14.81 22.19 22.21 6.2-1.59 12.4-3.21 18.6-4.79 11.79 12.01 23.6 23.99 35.39 35.99-8.4 2.22-16.8 4.39-25.19 6.61l-6.62 25.18c-11.8-11.8-23.63-23.59-35.39-35.44 1.62-6.17 3.2-12.36 4.8-18.54-7.4-7.41-14.79-14.81-22.2-22.2-7.6 7.61-15.22 15.19-22.8 22.82 1.62 6.18 3.2 12.38 4.8 18.57-11.79 11.8-23.59 23.6-35.4 35.38-2.22-8.38-4.4-16.77-6.59-25.16-8.39-2.24-16.8-4.4-25.2-6.62 11.8-11.81 23.6-23.63 35.42-35.41 6.18 1.63 12.38 3.21 18.56 4.82 7.61-7.6 15.2-15.21 22.8-22.81l-36.58-36.59c-3.03 5.58-5.99 11.19-9.01 16.77-11.01-21.77-22-43.56-32.99-65.35 23.6 10.57 47.18 21.18 70.76 31.77-6.57 2.83-13.18 5.58-19.76 8.4 11.99 12 23.98 24 35.99 35.99 12.01-11.99 24-23.99 35.99-35.99-5.58-3.01-11.18-5.98-16.76-9m25.77.62c3.64 1.42 6.69 3.87 7.8 7.77l7.19-15.57c-5 2.59-10 5.18-14.99 7.8m-105.57-7.2c2.38 4.8 4.78 9.6 7.19 14.39 1.92-3.31 4.68-5.98 8.36-7.21-5.18-2.4-10.36-4.8-15.55-7.18m94.76 93.6c-.99 3.78-1.98 7.56-3 11.34 5.17 5.23 10.39 10.42 15.6 15.62 1.01-3.79 2-7.59 3.02-11.38 3.79-1 7.59-1.99 11.38-3-5.19-5.21-10.39-10.4-15.58-15.6-3.81.99-7.62 1.99-11.42 3.02m-95.97 13.78c4 1.02 8.01 2 12 3.04.98 3.99 1.98 7.97 2.98 11.96 5.01-5.4 10-10.8 15-16.2l-3-11.4c-3.8-1-7.6-2-11.39-3-5.21 5.19-10.4 10.39-15.59 15.6zm-168.01-53.39c43.8-.01 87.6-.01 131.4-.01.01 4.01 0 8.01-.01 12.01l-131.4-.01c0-4 0-8 .01-11.99zm330 0c43.8-.01 87.6-.01 131.4-.01v12c-43.8.01-87.6.02-131.4 0-.02-4-.01-8 0-11.99z"/></svg>