<svg width="942pt" height="940pt" viewBox="0 0 942 940" xmlns="http://www.w3.org/2000/svg"><g fill="#fff"><path d="M463.39 0h15.83c23.39 2.2 46.41 10.33 65.19 24.59 25.37 18.78 43.5 47.35 48.78 78.55 6.02 33.76-3.51 69.62-24.47 96.61-30.69 42.08-53.23 89.98-66.64 140.28-3.06 10.9-12.97 18.76-23.63 21.62-12.12 2.95-25.22-2.66-32.89-12.16-4.75-6.29-5.82-14.32-8.14-21.64-2.18-8.03-5.84-15.67-7.07-23.93-.58-7.76 12.28-10.51 14.77-2.99 5.89 12.13 7.42 25.79 12.84 38.09 4.7 9.51 19.54 9.85 25.96 1.98 2.39-2.92 2.84-6.81 3.95-10.3 12.54-43.4 31.09-85.16 55.87-122.98 7.06-11.13 15.41-21.4 22.1-32.77 22.84-40.39 15.21-95.32-17.9-127.87-16.94-17.13-39.95-27.94-63.89-30.42-27.19-2.99-55.64 4.2-77.49 20.85-20.74 15.57-35.51 38.9-40.38 64.41-4.74 23.63-1.78 48.98 9.48 70.39 7.57 14.55 19.24 26.51 26.68 41.13 2.81 5.95-4.89 12.9-10.57 9.77-4.43-2.97-6.78-7.98-9.73-12.25-4.59-7.3-10.2-13.89-14.85-21.15-14.67-23.68-21.8-52.29-18.34-80.06 3.18-28.95 17.74-56.13 38.9-75.97 20.39-19.44 47.61-31.32 75.64-33.78zM460.49 62.59c28.15-5.74 57.96 12.22 68.39 38.51 6.35 14.57 5.67 31.65-.64 46.11-5.44 12.89-15.45 23.64-27.61 30.46-11.67 6.46-25.51 9.04-38.7 6.88-28.61-4.7-52.25-31.33-52.28-60.53-.59-29.14 22.55-55.93 50.84-61.43m.07 16.15c-15.3 3.14-28.44 14.97-32.78 30.03-5.01 16.02-1.47 34.9 10.41 47.07 16.78 17.43 47.58 18.04 65.15 1.44 12.14-11.27 16.51-29.4 12.7-45.29-2.62-11.74-10.25-22.31-20.72-28.29-10.43-5.93-23.09-7.44-34.76-4.96zM416.34 250.54c6.1-2.13 10.85 4.19 11.93 9.49 2.14 6.08-5.18 12.08-10.83 9.46-4.4-2.33-6.93-7.64-6.5-12.53.24-3.02 2.53-5.58 5.4-6.42zM271.35 261.26c2.26-1.67 4.72-3.63 7.69-3.5 2.52.43 4.6 2.09 6.69 3.47 56.9 45.8 114.08 91.28 171.06 137 4.22 3.43 8.24 7.32 13.24 9.6 2.69.51 4.8-1.65 6.84-3.02 14.58-11.69 29.22-23.32 43.74-35.09 2.96-2.11 6.35-5.15 10.28-3.89 4.77 1.28 7.65 7.52 4.63 11.72-2.44 3.22-5.87 5.5-8.95 8.07-15.94 12.63-31.86 25.31-47.64 38.15.21 11.22.03 22.44.07 33.66 60.1-45.85 120.06-91.91 180.21-137.7-.07-12.6-1.99-25.39-2.73-38.06-23.54 18.73-47.03 37.53-70.46 56.39-4.25 3.4-8.26 7.35-13.36 9.48-5.83 1.75-11.81-5.44-8.98-10.84 2.74-4.16 6.98-6.95 10.8-10.02 27.72-22.05 55.36-44.21 82.95-66.43 2.38-1.85 5.58-3.02 8.58-2.15 2.3.75 4 2.59 5.89 4.02 62.38 50.3 125.11 100.16 187.63 150.28 2.37 1.9 4.27 4.56 4.57 7.65 17.19 113.48 34.35 226.97 51.59 340.44 1.01 6.69 2.71 13.48 1.98 20.28-2.15 7.1-13.86 6.1-15.31-.94-17.91-118.46-35.87-236.92-53.81-355.38-58.31-47.3-117.11-93.97-175.77-140.82.9 12.09 1.96 24.17 3.03 36.25 45.47 37.71 91.48 74.78 137.22 112.16 2.52 2.12 5.42 3.98 7.12 6.89 1.86 2.96 1.87 6.57 2.45 9.92 17.5 118.45 35.5 236.83 52.74 355.32 1.19 6.04-6.87 11.28-11.77 7.31-7.18-5.04-13.2-11.52-19.92-17.13-45.92-40.76-91.93-81.43-137.82-122.22 1.28 13.17 2.37 26.36 3.36 39.55 70.48 65.29 141.53 129.96 212.35 194.88-3.75-27.58-8.89-54.96-12.12-82.61-.92-5.73 6.06-9.22 10.85-7.32 2.79.81 4.37 3.58 4.61 6.35 6.13 36.26 11.16 72.71 16.59 109.07 1.06 4.47-4.67 8.54-8.52 6.06-6.25-3.57-10.67-9.43-16.15-13.98-12.97-12.7-26.79-24.46-40.06-36.82-58.19-53.33-116.37-106.66-174.57-159.97-10.25 8.65-20.02 17.86-29.87 26.96-60.05 54.97-120.07 109.99-180.06 165.02-4.12 4.53-9.2 8.12-13.07 12.89-1.84 1.96-3.87 3.84-6.3 5.04-3.15 1.29-5.8-1.38-7.98-3.25-10.55-10.42-21.22-20.74-32.42-30.47-62.95-57.74-126-115.39-188.88-173.2-1.44-1.28-3.82-2.98-5.63-1.41-28.65 26.33-57.39 52.58-85.92 79.03-2.15 1.8-4.43 3.51-7.04 4.59-5.19.82-10.48-4.42-9.1-9.65 1.01-3.57 4.2-5.85 6.7-8.36 28.14-25.51 55.96-51.38 84.12-76.87 2.52-2.41 5.52-4.99 5.88-8.69 1.31-12.18 1.79-24.43 3.22-36.6-49.68 44.15-99.52 88.12-149.15 132.32-3.05 2.62-5.9 5.61-9.55 7.4-3.65 1.82-8.83-.16-9.98-4.15-.82-2.59-.51-5.33-.13-7.95 17.77-119.03 35.52-238.06 53.19-357.1.48-3.67 3.18-6.48 5.92-8.72 46.9-38.03 93.81-76.06 140.37-114.52.97-12.19 1.95-24.37 3.1-36.54-58.66 47.18-117.78 93.79-176.14 141.35-3.82 23.55-7.1 47.18-10.77 70.76-.57 3.47-1.63 7.77-5.4 9.02-3.89 1.8-8.62-.49-10.24-4.3-1.45-2.82-.31-5.99.06-8.93 3.4-22.73 6.96-45.44 10.22-68.19.56-3.63 1.52-7.58 4.52-9.98 63.23-50.45 126.26-101.16 189.51-151.58m14.39 20.64c-.74 11.73-2.44 23.39-2.74 35.14-.64 3.67 3.4 5.14 5.59 7.2 58.18 44.28 116.16 88.82 174.29 133.16.17-11.21.07-22.43.14-33.64-59.03-47.37-118.16-94.61-177.28-141.86m-22.42 258.99c-.35 3.34-.97 7.42-4.33 9.1-4.89 3.24-12.42-1.14-11.88-7 5.63-67 11.53-133.98 17.41-200.96-41.05 33.79-82.36 67.26-123.6 100.81-2.55 2.09-5.22 4.6-5.71 8.04-16.49 111.08-33.12 222.15-49.59 333.24 48.56-42.93 96.87-86.12 145.54-128.91 1.74-1.6 3.76-2.94 5.18-4.84 3.02-4.85 1.07-11.12 3.91-16.02 3.24-4.97 11.89-3.82 13.83 1.75 1.08 5.37-.13 10.84-.61 16.22 69.55 64.32 139.72 127.98 209.5 192.04-.02-77.48.06-154.96-.04-232.45.22-4.79 5.32-8.92 10.07-7.44 3.86.73 6.11 4.83 5.96 8.54.17 77.08-.12 154.16.15 231.24 69.65-64.04 139.88-127.46 209.18-191.88-2.2-20.45-3.46-40.99-5.44-61.47-.22-3.73-1.09-8.21 1.82-11.16 3.98-4.73 13.25-2.11 13.57 4.26 1.94 18.97 3.33 38 4.95 57.01.27 2.7.06 5.69 1.74 8.02 2.31 3.34 5.58 5.85 8.56 8.57 47.66 42.07 95.1 84.39 142.79 126.43-16.4-111.08-33.12-222.11-49.54-333.19-.46-3.15-2.82-5.54-5.17-7.47-41.33-33.72-82.73-67.34-123.93-101.2 5.6 64.29 11.1 128.58 16.46 192.89.11 2.55.96 5.3-.24 7.72-2.47 4.65-9.78 5.67-13.39 1.83-1.9-2.02-1.73-4.98-2.04-7.53-6.06-66.23-11.33-132.52-17.16-198.76-59.58 45.39-119.04 90.93-178.51 136.47-1.23.99-2.7 1.77-3.63 3.08-.63 13.58.58 27.23-.62 40.79-1.6 7.37-14.22 6.86-15.14-.65-.96-13.39-.25-26.83-.32-40.24-60.68-46.5-121.43-92.91-182.16-139.33-5.86 67.48-11.82 134.96-17.57 202.45m-11.58 131.94c-.89 12.43-2.38 24.8-3.09 37.24-.55 3.07 2.21 5.13 4.11 7.07 70.15 64.14 140.13 128.46 210.23 192.65-.14-14.57.05-29.14-.01-43.71-61.73-56.64-123.68-113.04-185.36-169.73-8.68-7.78-16.98-16-25.88-23.52m418.93 17.79c-63.8 58.57-127.88 116.84-191.68 175.4.13 14.57-.08 29.15.02 43.72 71.39-65.26 142.37-130.98 214-195.99-.52-13.47-1.96-26.9-3.09-40.33-6.58 5.55-12.92 11.37-19.25 17.2zM64.3 535.39c4.95-2.16 11.28 2.19 11.04 7.6.21 4.02-1.1 8.49-4.65 10.78-3.7 2.46-9.28.64-11.05-3.38-2.31-5.14-.6-12.38 4.66-15zM468.47 554.57c6.59-2.44 12.47 5.3 10.7 11.42.25 7.14-10.13 11-14.46 5.3-3.21-5.24-2.88-14.37 3.76-16.72zM248.41 581.58c4.46-1.72 10.1 1.42 10.46 6.32 1.36 5.73-1.99 13.93-8.93 13.12-9.54-.86-9.83-16.38-1.53-19.44zM52.9 588.91c2.17-4.67 9.27-5.17 12.59-1.48 2.84 2.72 1.97 7 1.61 10.49-15.49 102.84-31.36 205.63-46.61 308.5 25.71-23.23 51.13-46.79 76.68-70.2 2.73-2.31 5.79-5.51 9.74-4.73 5.49.62 9.06 8.3 5.03 12.48-4.6 5.73-10.66 10.03-15.89 15.14-25.14 22.49-49.98 45.33-74.84 68.13-4.67 3.79-8.18 8.9-13.28 12.18-3.2 1.65-5.9-1.35-7-4.06 5.44-46.58 12.99-92.88 19.94-139.25 9.59-63.32 19.19-126.64 28.77-189.96.91-5.77 1.22-11.72 3.26-17.24z"/></g></svg>
