<svg width="700pt" height="700pt" viewBox="0 0 700 700" xmlns="http://www.w3.org/2000/svg"><path d="M331.65 161.67c13.16-8.53 31.89-6.35 42.86 4.83 14.73 14.58 19.01 36.47 18.25 56.49-.43 30.09 7.35 61.05 26.46 84.8 10.74 14.16 24.31 25.98 34.19 40.8 7.76 11.56 12.2 25.47 11.77 39.43.01 2.53-2.57 3.7-4.46 4.73-17.26 8.45-34.9 16.18-53.1 22.39-.26 2.54-1.18 4.92-2.71 6.96.82 3.22 2.64 6.41 2.21 9.81-1.6 4.17-6.76 2.91-10.22 3.09 6.91 4.84 9.03 14.42 4.79 21.74 2.7 3.53 3.45 8.72 7.89 10.66 12.59 7.33 15.06 25.7 6.28 36.93 4.58 5.45 6.64 12.75 4.61 19.71 6.23 2.98 12.27 7.95 13.83 14.98.28 4.05-5.82 6.33-7.93 2.69-2.48-4.44-5.99-8.94-11.41-9.6-3.14-.16-7.26-2.16-5.99-5.97 1.99-3.57 4.65-7.6 2.62-11.8-1.15-4.48-8.39-5.01-7.52-10.21 1.81-3.39 5.52-5.49 6.8-9.26 2.9-6.5.72-14.25-4.4-18.99-1.9 5.43-5.37 10.18-10.24 13.3 1.2 3.96 1.01 8.16-.68 11.96 3.07 3.92 5.52 8.66 5.09 13.79-.22 9.48-9.12 17.74-18.61 17.01-3.8-.32-5.2-5.81-2.11-7.98 2.81-1.36 6.42-.93 8.77-3.26 3.89-3.25 4.07-10.15-.1-13.23-1.85-1.65-4.86-2.63-5.11-5.46-.22-3.02 2.86-4.49 4.78-6.2.67-4.62-6.77-4.95-5.39-9.75.59-3.3 4.52-3.25 7.01-4.23 6.43-1.74 9.82-9.76 7.04-15.71-1.19-3.29-4.7-4.86-6.34-7.8-1.19-3.95 4.04-5.78 4.36-9.43.5-3.85-3.02-7.53-6.91-7.16-9.6.16-19.28-.5-28.84.35-5.29 3.26 3.95 7.58.39 11.44-3.11 2.83-6.48 5.64-7.46 9.97 5.15 4.04 8.64 9.96 9.2 16.54 3.21 1.54 6.78 1.73 10.19 2.53 3.43 1.53 2.88 7.18-.72 8.16-3.38.75-6.79-.45-10.09-1.12-1.52 3.29-2.11 7.89-5.79 9.5-3.79 1.37-7.7-3.18-5.27-6.59 3.56-5.9 4.05-14.14-.5-19.64-2.31-3.01-6.61-3.32-9.04-6.12-1.65-3.04 1.24-5.51 2.73-7.85 3.99-5.55 1.47-14.49-4.89-16.99-8.64-.44-17.32-.11-25.97-.17-3.58-.33-6.94 2.71-6.97 6.29-.26 3.51 3.54 5.29 4.53 8.33.55 3.11-2.8 4.64-4.46 6.7-5.45 5.49-3.02 16.02 4.29 18.56 2.67 1.19 6.97.87 7.72 4.44 1.07 3.66-3.05 5.03-5.07 7.12-1.41 4.08 4.96 4.92 4.48 8.82-.21 2.85-3.25 3.81-5.09 5.47-4.2 3.08-4.04 9.99-.11 13.25 2.36 2.32 5.97 1.87 8.78 3.26 3.05 2.17 1.67 7.59-2.09 7.96-9.5.77-18.44-7.5-18.66-16.99-.42-5.13 2.02-9.88 5.1-13.79-1.73-3.81-1.91-8.01-.67-11.98-4.88-3.11-8.39-7.85-10.25-13.3-7.26 6.28-7.64 18.56-.22 24.86 3.12 2.04 3.74 6.75-.06 8.45-5.52 2.69-7.28 10.12-3.33 14.89 2.6 2.74.89 7.53-2.99 7.59-5.7.52-10.38 4.28-12.81 9.34-1.73 4.34-8.69 2.57-8.44-1.99 1.62-7.01 7.58-12.02 13.85-14.97-2.06-6.99.04-14.28 4.61-19.77-8.88-11.18-6.29-29.57 6.27-36.89 4.45-1.93 5.17-7.13 7.88-10.67-4.22-7.32-2.11-16.9 4.83-21.72-3.49-.17-8.62 1.06-10.28-3.08-.38-3.41 1.4-6.58 2.25-9.8-1.58-2.03-2.48-4.42-2.7-6.97-18.2-6.22-35.85-13.92-53.11-22.38-1.91-1.03-4.53-2.19-4.47-4.75-.4-13.49 3.68-26.95 11-38.23 13.47-20.49 33.68-35.81 45.36-57.61 9.87-17.38 14.6-37.27 15.73-57.12.87-12.3-.6-24.8 2.3-36.9 3.12-14.12 9.94-28.47 22.48-36.49m.2 11.19c10.74 7 25.55 6.99 36.29 0-9.65-9.8-26.64-9.81-36.29 0m-5.77 7.07c-6.73 11.09-9.87 24.15-9.83 37.07 0 49.05.01 98.1-.01 147.15 7.52-.28 14.79 2.65 20.2 7.83 2.25-3.22 5.4-5.65 8.99-7.23.1-6.24.06-12.47.02-18.7-4.12-.08-8.27.3-12.36-.24-4.03-1.08-3.95-7.58.14-8.48 4.04-.61 8.15-.18 12.22-.29.05-7.17.05-14.33 0-21.5-4.21-.17-8.51.45-12.66-.4-3.76-1.29-3.54-7.35.31-8.33 4.1-.59 8.27-.18 12.4-.36-.04-7.15.02-14.31-.04-21.47-4.3-.18-8.74.57-12.94-.5-3.51-1.55-3.11-7.21.57-8.27 4.11-.51 8.28-.14 12.42-.28-.05-7.17-.02-14.33-.02-21.5-4.38-.24-8.93.58-13.18-.61-3.74-1.95-2.45-8.28 1.86-8.3 10.54-.2 21.12-.21 31.67 0 4.26.03 5.53 6.35 1.85 8.28-4.25 1.23-8.81.39-13.19.63-.01 7.17.02 14.33-.02 21.5 4.14.14 8.31-.23 12.43.29 3.98 1.14 3.92 7.51-.12 8.49-4.08.59-8.22.18-12.32.34.06 7.16.01 14.31.04 21.47 4.13.1 8.29-.32 12.39.3 3.8.96 4 7.04.3 8.31-4.16.86-8.46.24-12.67.41-.05 7.17-.05 14.33 0 21.5 4.08.11 8.2-.32 12.25.29 4.04.96 4.13 7.36.13 8.48-4.1.54-8.25.16-12.37.24-.05 6.23-.09 12.46.01 18.69 3.59 1.58 6.72 4.02 8.98 7.24 5.41-5.2 12.69-8.1 20.21-7.85-.01-48.04-.02-96.09 0-144.13.41-13.91-2.57-28.11-9.85-40.07-14.06 9.54-33.75 9.54-47.81 0m-51.32 148.84c-14.26 15.28-30.08 32.22-30.92 54.36 3.71.05 7.42.05 11.12.02.12-2.91-.3-5.94.57-8.76 1.47-3.22 6.51-3.23 8-.02.88 2.82.41 5.86.53 8.78 4.29.04 8.58.04 12.88 0 .11-2.92-.35-5.96.52-8.78 1.49-3.21 6.54-3.2 8.01.03.87 2.83.45 5.87.57 8.8 2.49-.02 4.99-.08 7.48-.18 2.12-7.05 7.11-12.95 13.63-16.34.09-28.94.31-57.91-.11-86.85-7.41 18.29-18.8 34.63-32.28 48.94m118.22-48.9c-.43 28.93-.19 57.87-.12 86.8 6.51 3.41 11.48 9.3 13.59 16.35 2.5.1 5 .16 7.51.18.12-2.93-.31-5.98.55-8.81 1.47-3.22 6.53-3.23 8.01-.01.89 2.81.41 5.85.54 8.77 4.29.04 8.58.04 12.87 0 .11-2.92-.35-5.96.52-8.79 1.51-3.25 6.67-3.17 8.06.16.77 2.79.42 5.75.52 8.62 3.71.04 7.42.05 11.14 0-.79-20.04-13.97-36.28-27.12-50.17-14.84-15.57-28.08-32.97-36.07-53.1m-91.27 109.14c-.15 7.96-.03 15.94-.02 23.91 10.91.02 21.82.01 32.72 0 .02-7.97.13-15.94-.01-23.9-.04-8.55-7.88-16.02-16.4-15.75-8.48-.21-16.26 7.23-16.29 15.74m41.76-8.16c1.3 18.61 2.67 37.35 6.53 55.63 3.62-16.6 4.73-33.65 6.24-50.55.19-3.91 1.3-9.07-2.64-11.6-4.46-3.29-11.11 1.14-10.13 6.52m22.11 8.17c-.14 7.96-.03 15.94-.01 23.9 10.91.01 21.82.02 32.73-.01 0-7.97.13-15.94-.03-23.91-.06-8.5-7.8-15.93-16.27-15.73-8.53-.27-16.4 7.18-16.42 15.75m-106.07 3.22c10.75 5.11 21.86 9.48 33.06 13.49.12-4.52.1-9.04.08-13.55-11.04.02-22.09-.09-33.14.06m147.84-.06c-.02 4.51-.05 9.02.08 13.53 11.21-3.99 22.29-8.38 33.05-13.47-11.04-.15-22.09-.04-33.13-.06m-102.96 29.93c-.35 1.29-.69 2.58-1.04 3.88 1.78-.04 3.57-.07 5.35-.1.34-1.36.68-2.7 1.03-4.05-1.78.07-3.56.16-5.34.27m14.73-.16c-1.06 3.57-2.06 7.17-3.03 10.78 5.64.01 11.27.01 16.91 0-.97-3.62-1.98-7.23-3.04-10.83-3.62-.05-7.23-.04-10.84.05m50.92-.05c-1.07 3.6-2.08 7.21-3.04 10.83 5.62.01 11.25.01 16.89 0-.95-3.61-1.95-7.21-3.01-10.78-3.62-.09-7.23-.1-10.84-.05m20.22-.08c.34 1.36.69 2.72 1.03 4.09l5.5.05c-.25-3.71-3.23-4.69-6.53-4.14zm-45.88-226.3c11.94-2.75 25.24 3.86 30.1 15.12 1.61 3.68-3.12 7.56-6.45 5.36-2.45-2.28-3.68-5.62-6.32-7.74-6.26-5.55-16.39-5.75-22.87-.47-2.97 2.13-4.29 5.73-6.88 8.2-3.32 2.22-8.07-1.68-6.46-5.36 3.35-7.67 10.71-13.4 18.88-15.11zm-25.06 258.87c3.53-2.48 8.71 1.42 6.88 5.47-1.93 2.19-4.97 3.7-4.34 7.17.55 4.09-5.42 6.01-7.68 2.78-3.38-5.25-.45-12.98 5.14-15.42zm62.92 7.7c2.5-1.52 6.13.15 6.6 3.05.99 6.86-6.05 13.92-12.92 12.12-4.2-1.4-3.41-8.01.99-8.49 3.71-.42 2.57-5.2 5.33-6.68zm-45.88 36.27c6.17-.46 10.25 5.09 11.98 10.33 3.66 4 7.57 8.47 7.44 14.29.81 10.49-9.38 19.91-19.79 18.28-3.25-.13-5.4-4.15-3.54-6.87 2.37-3.53 7.5-1 10.57-3.48 5.78-3.63 4.5-12.78-1.64-15.33-3.94-1.58-.91-7.61-5.42-8.5-4.61-1.04-4.29-8.16.4-8.72z"/></svg>