<svg width="1013pt" height="1344pt" viewBox="0 0 1013 1344" xmlns="http://www.w3.org/2000/svg"><path d="M295.34 12.36c10.72-11.97 29.66-14.9 43.76-7.41 8.93 4.55 15.67 13.81 16.19 23.94.18 2.14.21 4.29.27 6.43 13.33-.01 26.71-1.97 40.02-.31-.66-6.86-.49-13.75-.26-20.62 1.18-.27 2.37-.53 3.57-.81.51 7.49.94 15.02.4 22.52 6.86.15 13.73.09 20.6-.07 1.13-1.07 2.28-2.13 3.4-3.22-2.71-.56-5.43-1.05-8.18-1.35-1.59-9.98.17-20.08-.57-30.1 1.97.24 3.95.5 5.93.77-.25 8.5.32 17 .08 25.5 2.85.51 5.75.66 8.6 1.14-.31 6.84-.57 13.69-.28 20.53 1.15.33 2.31.65 3.47.97.12-4.64.22-9.29.3-13.94 5.45-.12 10.93 0 16.34-.91-1.22-6.41.13-13.99 6.05-17.67 3.31 1.35 7.31 2.17 9.47 5.28 1.62 4.14 1.07 8.72 1.9 13.03 7.31-1.33 14.83 1.69 22.02-.85.03-8.33.01-16.66-.31-24.98 8.2.34 16.41.13 24.61.03-.04 9.28.08 18.56-.2 27.83 7.92-.15 15.84-.15 23.74.26.47 9.03.5 18.08.55 27.12-2.22.06-4.43.12-6.63.21-.36-6.55-.36-13.16-1.39-19.64-1.11-1.23-2.49-2.18-3.76-3.22 1.39 14.68.26 29.45 1.02 44.15.32 3.59.33 7.25 1.48 10.7l2.81-.21c.96-9.04.03-18.1-.28-27.15 2.19-.19 4.4-.44 6.6-.72.01 23.82-.54 47.62-1.03 71.42-.24 5.64 6.07 11.31 11.51 8.38 2.98-2.91 2.34-7.53 2.32-11.33-1-10.86 1.9-21.71.21-32.54-1.02.04-2.02.08-3.02.13-.44 12.56-1.26 25.12-.75 37.7-1.97.53-3.91 1.12-5.86 1.64-1.31-15.64.61-31.32.02-46.99 7.51-.18 15.15 1.01 22.53-.9.27-7.86-1.05-15.8.17-23.61 1.62-3.67 7.32-1 7.2 2.44.98 10.66-.49 21.4.72 32.04 1.58-1.23 3.59-2.65 3.43-4.94 0-20.65.26-41.3.32-61.95 21.69.62 43.23 3.5 64.72 6.34 17.99 2.47 35.98 4.97 53.93 7.76 12.12 1.92 24.17 4.46 35.81 8.41.5 17.38-.93 34.82.53 52.17 3.79 1.06 8.03.61 12 1.26.49 6.74-1.26 13.52.17 20.21.83 0 2.51-.02 3.34-.03.93-10.04-1.2-20.06-.45-30.11.35-3.43 1.55-7.98 5.52-8.69 6.79-.46 13.6-.23 20.4-.41-.29 14.49-.61 28.99.45 43.46-3.73-3.44-7.35-7.04-11.64-9.79-.23 1.45-.32 2.91-.3 4.38 1.58 1.79 3.8 2.79 5.61 4.32 7.68 6.03 13.88 14.16 23.08 18.06-.56-8.09-11.72-8.71-13.05-16.26-.68-21.37-.46-42.75-.96-64.13 19.89 4.66 39.81 9.32 59.32 15.41-.01 17.1-.66 34.21.04 51.31-4.44.72-8.6 3.42-10.29 7.71-2.06 4.32-.71 9.84 2.97 12.84 3.2 2.15 7.21 1.75 10.84 2.42 2.91.48 4.49 4.21 2.87 6.63-2.49 2.25-5.9 2.96-8.98 4.02.95 6.48 1.45 13 1.41 19.55l4 .29c-.22-5.53-.46-11.06-1.08-16.56 4.15-1.59 9.8-4.41 8.99-9.76.2-4.54-4.04-7-7.62-8.64-2.93-.2-6.66 1.21-8.8-1.56-2.82-2.96-1.13-7.45 1.01-10.3 1.55-3.05 5.83.22 7.98-2.04 1.7-2.39 2.14-5.43 1.91-8.3-1.08-11.32-.92-22.71-1.09-34.06 2.27 1.33 4.55 2.65 6.86 3.94-.05 5.02-.19 10.04-.01 15.06 1.11.43 2.23.88 3.35 1.34.62-10.33-.27-20.67.37-31 11.93 5.02 23.57 10.68 35.18 16.38.27-3.81.34-7.62.4-11.44 5.67 3.45 11.39 6.84 17.09 10.24.43-8.1-.02-16.2-.12-24.3 5.08.18 10.15.33 15.23.54.44 13.78 1.81 27.53 1.3 41.33 7.17 7.2 18.04 8.22 25.77 14.56 2.57 1.86 1.89 5.48 2.32 8.23.84 8.1.49 16.28 1.61 24.35 9.59.84 18.94-1.75 28.37-2.93.61 5.35.64 10.74.69 16.12 7.62-1.68 15.48-1.25 23.24-1.34.56 23.09 1.29 46.19-.12 69.26 4.34.52 8.7.9 13.07 1.26 1.25 5.01.4 10.13-.17 15.17-5.61.1-11.23.28-16.82.77.68 8.57 1.08 17.2.29 25.77-6.04 1.97-12.47 1.35-18.71 1.27.79 7.2 1.44 14.44 1.25 21.69-4.28.36-8.53.95-12.68 2.04 3.74 11.32 1.9 23.37 2.64 35.04-2.74.14-5.47.25-8.2.37.12-13.73-.53-27.45-.18-41.17 3.12-.24 6.27-.48 9.28-1.42l.05-3.5c-5.27-1.17-10.33 1.18-15.44 2.03 3.83 33.66 2.16 67.6 2.5 101.39-.6 34.56-4.42 68.93-6.36 103.42-.69 15.17-1.43 30.34-1.46 45.53-.1 17.74-2.5 35.34-2.99 53.05-1.45 26.36-3.18 52.7-4.3 79.07-1.76 13.96-3.74 27.9-5.02 41.92-1.56 12.61-1.46 25.35-3.27 37.94-1.47 13.49-2.77 27.02-4.81 40.45-3.68 21.78-8.96 43.26-15.13 64.45-1.07 2.02 0 3.91 1.79 4.98 6.11-8.44 6.64-19.16 9.74-28.79 2.08.38 4.17.82 6.26 1.27-4.17 21.51-10.5 42.54-17.44 63.29-1.93 2.07-5.14 1.57-7.69 1.49 2.23-10.17 6.95-19.8 7.59-30.3-3.61-1.13-4.76 2.51-5.43 5.2-7.64 24.38-17.82 47.9-28.96 70.87-2.68 5.63-5.45 11.22-8.78 16.5-9.34 16.02-19.14 31.97-31.77 45.64-1.41 18.02-2.61 36.11-2.77 54.22-1.81-.12-3.61-.24-5.4-.34.2-16.81 3.66-33.66 1.22-50.44-3.54 1.92-5.64 5.46-7.2 9.04-2.68 6.48-7.58 11.62-11.54 17.31-23.67 31.77-48.57 62.59-73.72 93.19-9.23 12.13-20.52 22.4-30.93 33.46.12-8.7-.13-17.39-.92-26.05-1.44.9-2.88 1.78-4.31 2.68.35 6.59 1.07 13.2.51 19.8-1.18 2.14-5.32 4.79-6.71 1.56-2.34-11.27.5-23.04-2.67-34.2-2.53-.15-5.06-.27-7.57-.36-.02-2.88-.05-5.75-.08-8.61 4.45.02 8.9.14 13.35.38.14-1.29.29-2.57.46-3.83-4.48-.48-8.96-.81-13.45-1.08-.58-13.46-3.41-27.28.43-40.52.89-2.53 1.42-5.68 4.02-7.05 5.37-3.44 13.02-2.15 17.32 2.43 2.34 2.52 2.86 6.06 3.37 9.33 1.61 9.31.45 18.79.96 28.17.65 2.33 2.77 3.67 4.57 5.09-.85-13.37 1.64-27.09-2.13-40.15-1.27-5.73-6.52-9.86-12.14-10.86-9.1-1.95-20.35 3.17-22.33 12.85-.45 13.82.05 27.66-.02 41.49-5.95.17-14.01-1.94-17.43 4.55 5.81-.12 11.62-.36 17.43-.19l.06 8.25c-3.02.17-6.03.34-9.05.48.74 22.38 1.85 44.75 1.96 67.14-8.92 8.95-19.31 16.22-29.71 23.34-2.08 1.55-4.53 2.74-6.27 4.7-.63 22.01-.28 44.05.1 66.07-7.95-1.1-15.98-1.08-23.97-1.52-.41 9.81-.21 19.65-1.11 29.45-6.49-.08-13.03.1-19.46-.96-1.59-24.54-2.18-49.19-.37-73.74.39-8.54.5-17.13-.57-25.62-3.21.01-6.41-.04-9.61-.16-2.83-3.2-1.6-7.64-.44-11.27 3.58-.03 7.17.15 10.75.43 3-3.28 5.57-7.14 6.47-11.55-1.33-4.05-5.22-6.66-8.45-9.23-.09-3.53.13-8.11-3.87-9.59-.59 5.1-.73 10.25-1.52 15.33 2.63-.11 5.26-.2 7.9-.24 1.11 3 1.96 6.65-.02 9.49-4.2 2.03-9.87-.22-13.56 3.3-2.78 3.24-4.39 8.11-2.17 12.1 1.99 4.47 7.18 6.43 11.81 5.33.26 8.67-.72 17.29-1.02 25.94-12.74 8.08-27.33 12.36-41.25 17.87.19 6.77.48 13.55.42 20.34-2.39 1.03-4.76 2.09-7.1 3.21 1.07-7.13.69-14.44-1.18-21.4-13.38 5.48-26.83 10.8-40.61 15.21 2.85-7.52 6.35-14.83 8.45-22.61.76-1.93-1.13-5.61-3.36-4-2.55 3.88-3.35 8.64-4.99 12.96-6.71-5.8-13.93-10.96-20.85-16.49 1.74-3.33 4.49-6.49 4.52-10.41.13-1.69-1.49-2.65-2.36-3.82-2.81 4.47-5.26 9.25-8.79 13.24-7.06 3.56-15.12 4.69-22.12 8.44.81 1.46 1.63 2.93 2.48 4.41 5.82-2.68 11.66-5.48 17.92-6.97 4.11-1.13 7.7 1.67 10.66 4.12 5.18 4.45 10.8 8.34 16.24 12.46-.76 1.58-1.7 3.06-2.54 4.6-7.27-4.77-14.21-10.01-20.97-15.47-8.37 3.14-17.22 4.65-25.64 7.62-1.46-3.94-2.83-7.91-4.49-11.77-1.7.4-3.42.76-5.13 1.12 3.45 8.82 7.3 17.5 10.26 26.51-19.5-7.28-37.7-17.84-54.17-30.53-1.88-1.47-3.69-3.49-3.78-5.98-.41-10.12-.06-20.24.19-30.35-6.99-1.19-14.09-1.17-21.13-1.83.18-11 .12-22.03 1.03-33.01.57-4.85 4.4-9.72 9.59-9.75 4.01-.51 8.57 1.79 9.44 5.98 1.1 7.91-.57 15.82-1.09 23.72-2.39-.57-4.79-1.11-7.17-1.67.09-5.58-.19-11.15-1.14-16.64-.97.86-1.94 1.75-2.9 2.63-.65 6.26-.43 12.56-.81 18.84 5.31.71 10.54 1.98 15.89 2.48.46-10.48 1.62-20.95 1.12-31.44-1.28-4.99-6.63-7.31-11.25-8.17-6.76-1.27-12.67 4.38-15.06 10.21-.95 6.4-.62 12.94-1.21 19.39-6.84.47-13.7.7-20.54.3-14.22-20.9-23.34-44.74-30.79-68.75-.74-3.13-3.46-5.04-6.04-6.57 1.58 11.83 6.7 22.75 11.22 33.67 1.91 5.03 4.87 9.68 5.77 15.07 1.74 10.57.03 21.27-.43 31.88-5.51-.05-11.02-.15-16.53-.23.32-13.33-.52-26.76 1.68-39.96-1.89.28-3.77.57-5.66.82.28 6.39.51 12.77.71 19.16-7.74.3-15.42-.91-23.15-1.08.01-12.61.24-25.22 1.21-37.79.06-3.46-.07-8.25 3.78-9.78 2.16-1.03 3.58.92 3.55 2.92-.77 11.42-1.18 22.89-1.81 34.32 2.61.25 5.69-1.45 5.45-4.39.1-9.33 1.26-18.62 1.18-27.94.03-4.71-3.38-9.52-8.39-9.6-4.3-.32-7.29 3.55-8.29 7.31-2.32 7.29-.83 15.04-.64 22.52-2.21.14-4.43.25-6.64.36-.6-3.27.29-7.32-2.22-9.89-12.31-1.64-24.8-.43-37.19-1.03.94-12.6-.09-25.22-1.57-37.72-.13-4.25-1.28-8.51-.95-12.72.73-.56 2.18-1.69 2.91-2.26 1.24 2.99.82 6.35 1.82 9.42-.68-3.85-1.16-7.73-.39-11.61-1.84-3.23-4.14-6.19-5.86-9.5 6.96-3.38 13.23-8.24 20.78-10.33-.18-2.18-1.02-4.12-2.8-5.43-2.31 1.35-4.49 2.93-6.68 4.48-2.71-5.67-5.61-11.25-8.13-17 6.91-8.88 10.24-20.04 10.54-31.2 4.75-3.6 9.73-6.88 14.59-10.32-6.15-8.93-11.35-19.25-21.05-24.92-5.3 9.88-4.84 21.45-3.35 32.22 1.6 9.73-3.62 18.65-8.14 26.82-4.97 7.22-14.6 7.85-22.09 11.04 8.88 11.03 11.3 25.45 14.95 38.75-3.03.9-6.04 1.83-9.09 2.61-21.51-51.1-52.18-98.17-89.19-139.39-7.5-8.23-12.51-18.29-19.19-27.13-1.16 1.11-2.33 2.21-3.49 3.33 6.03 10.36 12.5 20.47 18.68 30.74l-3.18.98c-15.46-18.19-27.54-38.91-39.24-59.62 1.02-1.35 1.95-2.8 3.27-3.88 4.42 7.45 8.86 14.91 13.86 21.99 1.16 1.7 3.39 2.03 5.05 3.05-1.09-4.47-3.26-8.55-5.85-12.31-10.75-16.01-19.2-33.53-25.25-51.85-7.22-21.11-11.44-43.06-15.74-64.9-1.84-9.92-2.89-19.96-4.05-29.97-2.97-21.8-6.06-43.6-7.92-65.53 9.77 9.92 19.91 19.55 31.45 27.41-2.69 19.51-3.01 39.37-1.05 58.96.26 3.54 1.46 6.9 2.52 10.26 2.62-.37 5.23-.75 7.86-1.02-2.8 2.99-5.86 5.72-8.87 8.5 2.1.3 4.22.57 6.34.76 2.72-4.09 7.47-6.92 8.49-12.02-3.34-1.22-6.86-1.76-10.38-2.18-.23-2.3-.42-4.6-.63-6.89 7.02 2.72 15.36 3.25 22.19-.31 7.64-4.6 12.29-14.19 21.67-15.68 4.49 1.82 8.7 4.25 12.89 6.67-4.24 9.55-3.63 20.64.13 30.22.9 2.12 3.24 2.87 5.14 3.82-1.31-9.6-5.36-19.53-1.81-29.13 2.22-8.18 8.91-14.36 16.54-17.59.27-4.59.47-9.17.48-13.76-4.71-1.05-9.56-.7-14.33-1.12-4.55-.44-8.67-2.52-12.92-4.02-9.5-3.53-19.22-6.98-27.56-12.88-14.37-10.7-25.9-24.96-34.14-40.83-8.05-16.16-15.07-33.01-18.73-50.76-1.63-7.52-2.23-15.21-3.21-22.83-2.65-24.12-2.45-49.47 7.18-72.15 5.7-15.31 16.39-29.14 31.05-36.75 1.61 12.83.16 25.77 1.24 38.63 3.76-2.33 4.5-6.93 3.9-10.99-.59-4.41-.47-10.04 4.14-12.26 1.84 2.91 4.47 5.71 4.28 9.41.27 9.46-.65 18.9-.35 28.36.78.96 1.58 1.91 2.39 2.85 2.85-19.29.04-38.85 1.56-58.22.31-6.78 5.95-11.79 11.36-15.08 5.69-3.24 12.12-4.99 18.57-5.89-7.16-10.78-9.89-26.27-1.67-37.24.19 1.42.4 2.84.65 4.27-.1-1.64-.25-3.27-.36-4.89 4.82-4.1 10.33-7.25 15.37-11.07-.75-4.18-3.7-7.75-3.57-12.09-.23-5.6 3.2-11.19 8.29-13.51 3.48-1.69 7.43-.26 11.02-1.43 3.25-1.07 5.9-3.3 8.55-5.38-10.89-23.58-22.36-47.56-25.56-73.64-1.58-13.7 3.39-28.6 14.8-36.89-1.48-9.13-.83-18.43-.81-27.64 1.73-.09 3.46-.17 5.19-.24.09 18.63 1.02 37.24 2.36 55.81l3.15-.08c.5-10.88-1.12-21.71-.98-32.58 15.63-6.28 33.33-4.38 48.81 1.32.2 7.14.58 14.28.77 21.42-2.02.72-4.09 1.32-6.01 2.28-1.56 3.81-3.75 8.36-1.37 12.31 3.4 6.16 12.09 4.91 16.29 10.24 3.66 3.99 1.98 11.34-3.02 13.32-2.14.66-4.36.98-6.55 1.42.89 4.72.61 9.54 1.11 14.29.83 1.76 2.87 1.09 4.27.52-.19-3.65-.61-7.27-1.07-10.88 5.09-1.65 9.82-5.43 11.14-10.81 1.27-3.41-.46-7.06-2.7-9.64-3.66-4.02-8.83-6.04-13.4-8.78-2.46-1.42-2.48-4.67-2.01-7.12 1.72-2.05 4.69-2.13 6.98-3.23-1.08-19.54-.66-39.12-1-58.69-9.7-2.49-21.72-.5-29.04-8.72-6.09-12.42.39-28.68 12.73-34.52 8.2-4.71 17.61-7.32 27.08-7.25 3.48-.36 7.62-.13 10.19-2.9-.18-1.2-.56-2.34-1.13-3.42-3.47.78-6.91 1.66-10.39 2.4 5.97-9.64 11.15-19.76 17.64-29.07 6.63 5.94 14.13 10.74 21.24 16.05-1.93 4.22-4.68 8.18-5.26 12.9l3 1.41c3.67-6.72 5.77-14.26 10.37-20.47-1.15-4-3.67-7.4-5.09-11.28-2.45-8.59-2.99-17.71-1.66-26.55 2.11-16.41 8.72-31.73 12.89-47.65-16.86-2.34-33.24-7.1-49.88-10.54 1.03-12.97 2.46-25.91 4.22-38.79 7.35-.33 14.55 1.29 21.85 1.69 10.46.96 21.01.08 31.44 1.51 1.41-15.62.61-31.57-3.43-46.77 4.03-.51 8.04-1.19 12.11-1.4-.73-8.57.51-17.87 6.15-24.7m20.71-6.2c-11.23 2.88-20.99 12.99-21.47 24.9-1.57 15.48 12.83 30.35 28.39 29.07 16.08-.45 29.68-17.42 25.58-33.2-2.92-14.12-18.48-23.91-32.5-20.77m186.74 12.74c.23 5.86.89 11.72.8 17.61 1.49-.34 3-.69 4.49-1.1-.75-6.39-.12-12.89-1.09-19.25-1.58-1.7-3.85 1.12-4.2 2.74m-8.92-.85c-.82 6.89.22 13.84 2.01 20.5.85-.95 1.69-1.89 2.58-2.82-.05-6.31-.15-12.63-.46-18.94-1.33.03-4.35-1.18-4.13 1.26m-38.04 5.75c-.22 7.15-.12 14.3-.06 21.45 1.01.17 2.02.34 3.04.5.67-6.23.79-12.53 2.12-18.68-1.71-1.08-3.4-2.18-5.1-3.27m-10.37 19.52c-.02 11.91.7 23.83-.1 35.73-10.02 2.38-14.71 15.74-8.78 24.01 4.02 4.71 10.83 4.22 16.44 3.99 1.68 2.48 3.26 5.04 4.72 7.67-1.16 2.67-2.25 5.37-3.31 8.09-2.96 1.14-5.93 2.26-8.92 3.32.4 6.5.7 13 1.07 19.5 1 .68 2.02 1.36 3.03 2.04.25-6.14-.01-12.29-.11-18.43 9.22-1.79 14-13.63 8.71-21.35-3.45-6.01-11.28-4.97-17.14-4.97-3.93-4.11-5.14-10.81-1.8-15.63 1.98-3.49 6.5-2.88 9.87-3.5-.33-12.67.18-25.34-.13-38.01-1.18-.82-2.38-1.64-3.55-2.46m8.1 8.82c1.88 1.5 3.81 2.95 5.75 4.38.44-1.8 2.16-4.54-.35-5.6-1.85.08-3.61.85-5.4 1.22m192.08 1.49c-.3 1.36-.6 2.72-.9 4.09 2.96.44 5.94.68 8.92 1.04.1 12.71-.25 25.42-.82 38.12 1.51.29 3.01.57 4.53.86-.07-5.53-.23-11.06-.39-16.58 6.64 4.03 14.2 6.56 20.41 11.24.63 4.24.4 8.56.67 12.83-3.5 2.69-7.53 5.91-7.29 10.82-.71 6.01 5.88 9.91 11.23 9.55-1.27-3.59-4.99-4.96-7.42-7.56-.28-2.31.59-4.53 1-6.77 1.99-.53 4.02-.89 5.99-1.57 1.21-4.17.05-8.47-.07-12.7-.77-12.73.98-25.51-.5-38.22-11.94-.44-23.62-3.14-35.36-5.15m-414.66 32.05c-.29 6.62-1.78 13.09-2.56 19.64 3.98 1.56 8.2 2.56 12.5 2.2.45-6.2 1.37-12.36 2.77-18.42-.75-.87-1.5-1.74-2.24-2.61-3.48-.35-6.97-.65-10.47-.81m16.01 22.34c1.16 3.33 3.93 5.81 5.74 8.8-6.82-.36-13.14-3.27-19.81-4.29-2.41-.58-2.9 2.02-2.81 3.76 14.39 3.98 29.06 6.79 43.58 10.24 3.29-12 4.39-24.42 6.61-36.62-7.57-.68-15.18-.5-22.77-.34-.01 5.72.31 11.53-1.02 17.13-1.39 2.14-4.96 2.62-6.01-.1-.72-5.29 1.62-10.34 1.95-15.56.17-2.15-2-3.11-3.58-3.91-1.15 6.89-2.77 13.87-1.88 20.89m658.68-15.84c.62 9.43 2.29 18.83 1.72 28.3-7.15-3-13.37-7.93-20.82-10.25 1.88 7.11 9.52 9.1 15.34 11.88 2.05 1.23 5.11 2.22 5.4 4.97.87 8.43-.04 16.92.64 25.37l3.58-.12c-.35-18.76-.11-37.53-1.15-56.27-.36-2.23-3.11-2.8-4.71-3.88m-334.45 21.74c-.31 5.66-.35 11.33-.04 16.98 6.08-4.2 2.7-12.04 2.84-18.07-.94.37-1.87.73-2.8 1.09m104.76 17.49c2 1.54 4.14 2.91 6.29 4.25.06-1.9.12-3.81.15-5.71-2.19.31-4.34.8-6.44 1.46m167.94.01c.63 3.86.7 7.8 1.64 11.61 3.6-2.18 2.95-6.49 2.76-10.07-1.47-.5-2.94-1.03-4.4-1.54m-272.3 6.13c-.02 1.02 0 2.05.07 3.07.86 1.14 2.4.43 3.58.57-.02-1.13.01-2.26-.11-3.38-1.09-.57-2.38-.19-3.54-.26m272.09 8.49c.51 2.18 1.28 4.29 2.35 6.26 1.43-1.36 2.28-3.13 2.83-5.01-1.72-.44-3.46-.85-5.18-1.25m-402.65 8.74c3.6.82 7.28 1.98 11.02 1.47 2.05-.3 3.04-2.19 4.07-3.75-5.09-.56-10.86-1.3-15.09 2.28m324.85-.45c4.38 4.99 9.7 9.02 14.44 13.65 1.27-.92 2.45-1.96 3.57-3.09-4.96-3.85-9.95-7.75-13.99-12.59-1.36.66-2.69 1.33-4.02 2.03m143.13 5.62c-2.83 3.1-1.17 9.38 3.5 9.39.16-3.32.85-6.69.2-10-1.26-.41-2.82-.59-3.7.61m-461.33 1.93c-.25 9.82-.43 19.79 1.05 29.53l2.13.14c1.4-3.03.4-6.33.41-9.5-.18-5.99-.86-11.95-.83-17.94-.93-.74-1.85-1.48-2.76-2.23m121.59 4.11c.09 2.7 3.26 2.7 5.25 2.62.04-1.69.03-3.37.02-5.05-2.02-.57-5.35-.34-5.27 2.43m-282.91-.35c-.05 1.22-.59 2.63.33 3.67 1.09.05 2.19-.04 3.28-.11.06-1.19-.07-2.35-.39-3.48-1.08-.07-2.15-.09-3.22-.08m621.4 11.43c1.33 2 3.91.8 5.86.75-1.68-1.95-3.39-3.88-5.41-5.47-.52 1.51-.94 3.14-.45 4.72m-620.47 14.09c4.45-4.62 2.17-11.15 1.27-16.67-4.92 4.37-2.24 11.22-1.27 16.67m658.91-10.21c3.28 28.91 4.91 57.97 6.37 87.02.98.05 2.93.15 3.9.21.05-6.93-1.23-13.76-1.37-20.68 7.7-.4 15.39-.79 23.08-1.23-3.08-3.82-8.31-3.49-12.72-3.5-.03-3.95-1.2-7.8-1.07-11.75.07-3.01 2.17-6.43 5.48-6.48 5.89-.48 11.82-.47 17.72-1.13.36 11.24-1.09 22.61 1 33.74 1.16.9 2.31 1.81 3.49 2.72-.17-20.94 1.02-41.94-.54-62.85-7.15-3.12-14.76.1-22.07.66-.57-6.39-.08-12.88-1.67-19.16-7.19.9-14.36 2.07-21.6 2.43m-497.85 17.62c-2.61 2.02-3.87 6.54-.78 8.73 3.94 5 10.65-4.07 6.55-7.41-1.38-1.53-4.02-3.44-5.77-1.32m-161.76-.43c-.23 9.31 1.23 19.05-2.67 27.85-4.36-2.42-8.6-5.07-12.85-7.66-2.9 6.31-5.64 12.8-9.93 18.34 8.14 4.94 17.71 6.28 26.69 8.98.04 10.42-1.03 20.82-.93 31.25 1.07 1 2.14 2 3.23 3 .04-12.35.39-24.69 1.5-36.99-3.64-1.18-7.27-2.33-10.92-3.46 1.24-2.57 2.57-5.09 3.91-7.61 4.02 2.37 7.89 5.27 12.61 6.04-2.19-3.79-5.87-6.88-6.57-11.4-1.1-8.68.28-17.52-1.16-26.16-.94-.78-1.9-1.51-2.91-2.18m540.13 7.05c4.04 4.16 10.15 3.06 15.23 1.96-3.7-4.85-10.22-3.6-15.23-1.96m2.91 9.51c-1.56 1.66-3.94 3.71-2.68 6.23 1.6 3.56 5.99 4.12 9.4 4.59 1.43-3.82 2.71-8.96-.79-12.06-1.77-2.17-4.45-.21-5.93 1.24m-590.2 1.12c-3.5 1.55 1.24 7.73 4.12 5.79 1.14-2.68-1.69-5.32-4.12-5.79m206.83-.33c-1.9 2.05-3.58 4.68-3.53 7.57.86 3.99 4.82 7.73 9.14 6.69 3.75-.49 6.9-3.81 6.77-7.66.78-6.26-7.75-9.69-12.38-6.6m-203.74 21.43c5.01-3.55 10.08-9 8.66-15.68-6.2 2.56-7.48 9.84-8.66 15.68m728.88-6.34c-2.92 3.78-.94 11.1 4.59 10.67 3.87.65 5.52-3.47 7.18-6.14-1.57-2.66-2.6-6.49-6.09-7.15-2.18-.14-4.49.72-5.68 2.62m-314.9 3.56l.15 4.41c4.62-1.17 9.31-2.1 13.92-3.31.79 3.33 1.54 6.68 2.34 10.01 5.82-2.3 12-3.7 18.25-4.11.52-4.16 1.13-8.32 1.32-12.51-12.09 1.14-24.02 3.44-35.98 5.51m39.82-5.38c.68 4.88 5.91 3.2 9.32 3.23l-.02 2.29c-3.69.09-9.06.03-9.32 4.99 10.12-1.96 20.36-3.88 30.72-3.21 3.57.37 7.69-.69 8.83-4.55-13.06-2.01-26.29-3.83-39.53-2.75m43.15 3.82c-.84 7-.35 14.03.4 21.01 1.27-.78 2.55-1.55 3.85-2.32-.51-4.93-.66-9.89-.58-14.84 5.57.33 12.62 4.05 16.78-1.53-6.77-1.13-13.6-1.93-20.45-2.32m23.39 2.92c.17 1.37.36 2.75.55 4.13 11.25 3.28 23.04 5.12 33.61 10.43 2 1.14 3.3-1.76 4.64-2.79-12.62-4.92-25.76-8.22-38.8-11.77m-160.57 19.08c7.82 4.59 17.21 3.45 25.68 5.81 11.62-7.29 24.71-11.84 37.89-15.37 1.68-1.4 1.67-3.85 2.49-5.72-6.82 1.3-13.58 2.91-20.37 4.36-.98-2.43-1.97-4.84-2.94-7.26-13.91 6.88-29.6 9.69-42.75 18.18m-303.29-12.71c7.38 5.09 15.66 8.91 22.45 14.84-7.44-2.69-14.26-6.75-21.45-9.98-1.38.89-2.76 1.8-4.12 2.71 22.9 9.18 44.61 21.48 63.86 36.95.46-1.13.94-2.26 1.43-3.38-18.42-16.21-38.31-30.75-59.15-43.7-1.01.85-2.02 1.7-3.02 2.56m506.48 8.85c.03.38.08 1.13.1 1.51 1.46 1.27 2.96 2.51 4.47 3.73.28-2.01.38-4.03.28-6.05l-1.41-1.43c-1.16.74-2.31 1.48-3.44 2.24m153.72.96c1.65 6.54 2.03 13.31 2.17 20.03-2.57.93-6 .4-7.83 2.7.26 8.87-.26 17.77.09 26.66 1.29.54 2.6 1.08 3.91 1.64-.04-5.57-.21-11.14-.3-16.71 9.13.35 18.29-.31 27.29-1.91-.02 3.71 0 7.43.14 11.15 1.46-.98 3.51-1.5 4.24-3.27.61-7.61-.25-15.23-.25-22.85 6.31.39 12.59-.41 18.79-1.47-.91-1.45-1.9-2.85-3.06-4.09-6.65.49-13.28 1.33-19.95 1.33-.17-4.86-1.02-9.65-1.61-14.46-7.89.2-15.73 1.42-23.63 1.25m-217.99 5.58c-3.91 1.4-.13 6.39 2.97 5.09 2.84-1.77-.23-5.92-2.97-5.09m-151.08 2.94c-.81 1.36-1.64 2.71-2.42 4.09 6.91.31 14.06-.11 20.72 2.04-9.15 3.63-19.08 1.85-28.6 1.6-.2 1.51-.18 3.04-.26 4.56 4.92.25 9.83.48 14.75.7-3.07 2.4-6.44 4.48-8.98 7.5.85 7.76.32 15.57.68 23.36.03 2.05 1.63 3.55 2.72 5.15 1.3-8.49-.21-17.13.95-25.62 6.36-6.31 14.5-10.49 22.51-14.34 3.11-1.41 5.9-3.67 7.01-7.01-9.7-.58-19.34-2.56-29.08-2.03m246.34 1.11c-.67 1.18-1.86 2.22-1.76 3.7.91 2.27 3.38.89 4.95.36.23-2.21-1.17-3.54-3.19-4.06m-267.28 13.69c-8.78 12.71-13.29 27.81-15.66 42.95 2.33-.91 4.76-1.93 6.3-4.01 6.73-8.71 15.13-15.91 23.27-23.25-1.99-1.37-4-2.72-6.02-4.02 2.37-2.88 4.52-6 5.53-9.65-4.5-.53-8.97-1.24-13.42-2.02m-282.99 10.54c-.48 1.34-.58 4.52 1.8 3.71 2.33.28 1.65-2.17 1.84-3.64-1.22-.04-2.43-.06-3.64-.07m78.61 1.92c-.03.88-.08 2.66-.1 3.54 3.53 4.09 7.75 7.52 11.83 11.05.8-.82 1.63-1.61 2.45-2.42-5.03-3.71-8.52-9.34-14.18-12.17m359.02 3.48c-2.32.55-3.56 2.73-3.81 4.96 5.84-.26 11.58-1.49 17.42-1.85-.55 11.85-1.15 23.71-.84 35.58 10.31-1.38 19.63-6.89 30.09-7.5.15 8.79-.4 17.6.23 26.39 1.36-.86 3.79-1.47 3.51-3.57-.23-17.71-.06-35.42.84-53.11-15.74-1.64-31.68-2.99-47.44-.9m53.31.55c.27 6.19.35 12.39.17 18.59 1 .84 2.01 1.67 3.03 2.52 1.64-5.72 1.28-11.73.98-17.59-.91-1.64-2.78-2.38-4.18-3.52m-561.58.3c.72 11.73-.12 23.47.11 35.2 8.4 2.41 16.53 5.81 24.07 10.23 1.37.78 2.75 1.59 4.28 2.04 1.71.12 2.77-1.68 1.79-3.12-6.88-4.15-14.57-6.73-21.69-10.39-2.44-1.21-3.92-3.59-4.81-6.07 10.25 2.72 19.58 10.16 30.7 8.58 7.52-1.76 9.75-10.66 16.42-13.72 4.69-.89 8.86 2.11 12.94 3.92-1.47 3.54-4.12 6.66-4.57 10.57.36 1.57 1.5 2.77 2.34 4.1 3.93-8.39 7.78-16.83 12.15-25-14.15-6.32-29.37-9.6-44.43-12.97-9.66-1.83-19.37-4.62-29.3-3.37m458.65 7.54c-.81 18.15-1.56 36.31-2.74 54.45 1.33.31 2.68.64 4.02.97.97-8.93.08-18.01 1.66-26.87.24-2.73 4.11-4.59 6.11-2.26 2.34 3.68.62 8.24 1.09 12.31 2.06-1.4 4.14-3.29 4.06-6.02.51-5.93-2.06-13.28 3.4-17.66 2.55 3.44 5.66 7.2 5.08 11.8-.87 11.09.36 22.27-.97 33.33 1.72-.03 3.44-.05 5.18-.07.91-20.92 1.49-41.85 1.06-62.79 3.98.18 7.94.59 11.93.64-.17-1.47.53-3.37-.99-4.3-3.17-1.72-6.91-.71-10.28-.33-9.62 1.71-20.21.98-28.61 6.8m115.03-5.25c-1.33 1.56-2.2 3.41-2.87 5.32 1.8.2 3.6.43 5.42.57-.36-2.15-1.22-4.17-2.55-5.89m174.77 2.99c4.7 1.61 9.67.89 14.51.52.14-1.28.3-2.56.48-3.83-5.12-.12-11.43-1.43-14.99 3.31m-168.66.19c.01 1.44.04 2.88.08 4.33 4.09 1.25 8.24 2.31 12.26 3.79.65-.99 1.15-2.06 1.55-3.18-4.45-2.12-9.03-4.02-13.89-4.94m-68.09 4.86c-.55 9.03 0 18.14-.93 27.13-4.55 4.38-12.56 3.92-15.5 10.18 7.58.34 13.62-4.78 20.3-7.47-.44-10.97 1.22-22.08-.89-32.95-1.01 1.02-1.99 2.07-2.98 3.11m-68.95 3.22c-2.21 3.43-.29 8.48 3.43 9.88 2.8.62 5.7.21 8.55.19.62-4.57.75-9.36-1.3-13.62-3.54 1.02-8.75-.38-10.68 3.55m-276.67-.66c-1.57 2.5 1.91 6.12 4.34 4.04 2.55-2.58-1.92-7.18-4.34-4.04m430.98 1.83c6.57 3.2 12.95 6.79 19.47 10.1-1.4 4.43-3.25 8.7-4.74 13.1 10.19 3.59 20.5 7.75 28.72 14.97 2.08-4.15 3.96-8.39 5.84-12.64-13.85-11.76-29.96-20.4-46.12-28.52-1.08.98-2.14 1.97-3.17 2.99m139.8 1.48c1.01 1.11 1.83 2.88 3.6 2.91 4.89-.62 9.8-1.23 14.75-1.46-.15-1.22-.27-2.43-.36-3.64-6.09-.65-12.27-.01-17.99 2.19m-325.28 14.7c4 3.31 8.06 6.65 11.28 10.77 10.01 13.31 8.49 33.93-3.66 45.41-12.8 13.02-35.97 12.99-48.93.23-6.79-5.89-9.08-15.02-10.64-23.5-1.51-.54-3.02-1.07-4.51-1.58-1.31 12.41 5.02 24.98 15.35 31.83-4.98 5.68-3.96 15.25-11.13 19.13-5.5 3.46-11.61-.16-17.1-1.62 1.06 2.62 2.75 5.22 5.54 6.23 4.73 1.77 9.96.59 14.58-1.02 2.33 4.65 5.03 9.11 8.02 13.37 12.72-7.29 24.63-15.86 36.37-24.62 3.77-2.88 7.78-5.51 11.13-8.92 8.07-7.49 16.49-14.62 25.18-21.4-1.13-6.16-1.62-12.41-2.09-18.64 4-.92 8.28-.94 11.93-3.06-.19-8.05-.02-16.11-.56-24.15-7.51-1.51-13.39-7.09-17.3-13.43-7.9 4.85-15.97 9.48-23.46 14.97m164.65-12.87c-1.34 3.02-2.59 6.08-3.83 9.15-2.99-.04-5.99-.45-8.97-.12-2.32.37-2.28 2.87-2.17 4.69 4.64-.06 9.29-.08 13.92.47 1.07-3.02 2.21-6.02 3.36-9.02 2.94.6 5.85 1.35 8.75 2.17.42-1.67.9-3.33 1.42-4.97-4.26-.18-8.47-.93-12.48-2.37m-497.8.78c-1.83 3.81-4.13 7.5-4.61 11.79 6.08 4.29 12.57 8.88 20.26 9.33-3.52-5.76-10.08-8.11-15.63-11.35.51-1.3 1.02-2.6 1.54-3.9 5 2.71 10.01 5.4 14.94 8.24v-4.02c-5.24-3.77-10.91-6.88-16.5-10.09m96.17 2.13c-.22 1.25-.15 2.49.19 3.7 1.02.11 2.04.2 3.08.26l.74-3.16c-1.29-.48-2.63-.78-4.01-.8m415 9.51c-2.59-.48-5.16-.98-7.7-1.62.09 1.45.18 2.9.28 4.36 8.32 1.63 16.77 2.63 24.98 4.81 1.41-3.9 2.64-7.85 3.6-11.89-5.62-1.9-11.2-3.88-16.83-5.7-1.31 3.4-2.53 6.85-4.33 10.04m-220.57-6.25c.58 2.18 2.08 4.03 4.52 4.06.8-1.74.68-4.12-1.06-5.25-1.32-.51-2.37.73-3.46 1.19m-326.71 25.8c-3.12-1.14-6.37-2.06-9.73-1.88 7.37 7.12 16.87 11.4 24.64 18.03 5.14-4.92 6.18-12.3 10.22-17.95 2.44-3.66 5.41-8.13 2.91-12.55-3.6 3.48-5.35 8.23-7.65 12.56-4.25-1.61-8.41-3.45-12.59-5.24 1.78-4.04 6.29-8.9 2.12-13.03-3.17 6.75-6.76 13.3-9.92 20.06m59.46-17.25c-.11 1.76-1.18 3.75.07 5.34 4.86 7.43 9.72 14.87 14.7 22.22l-10.47 9.43c-2.87-1.64-5.25-4.73-8.73-4.87l-2.26 1.98c4.31 3.69 9.97 6.59 12.08 12.19 1.77 5.21-1.86 9.96-4.44 14.15-11.44-11.2-25.4-19.23-38.42-28.39-2.92 12.67-.33 25.72-1.47 38.55l2.9 2.48c1.63-11.38-.13-22.85.68-34.27 25.08 14.17 45.22 35.95 59.94 60.5 2.19 4.26 3.55 8.89 5.86 13.09 4.15-2.42.89-7.24.77-10.79 5.01 1.72 10.03 3.94 15.4 4.09 5.94-.66 11.68-2.44 17.5-3.69 5.74 3.81 11.12 8.15 16.22 12.78 1.03 10.41-.08 21.23 3.74 31.2-2.02-.36-4.04-.69-6.06-.96-1.56-9.56-2.34-19.26-2.08-28.95-13.52 1.08-26.85-2.41-40.35-1.79-1.12 1.33-2.21 2.69-3.23 4.1 11.14 7.19 21.4 17.06 25.52 30.01.33 1.72 2.58.74 3.77 1.07 9.21-.04 18.34 1.59 27.57 1.34.77-1.63 1.42-3.43.8-5.23-1.4-5.29-3.21-10.59-3.15-16.13-.36-16.09 8.3-30.86 7.94-46.94-2.85-15.78-12.05-29.62-22.85-41.14-11.79-11.21-25.53-20.09-39.45-28.39-4.85 3.96-9.64 7.99-14.28 12.18-6.55-8.07-9.74-18.67-18.22-25.16m13.01 5.16l-1.79 2.44c2.94 4.2 6.05 8.28 8.94 12.52 2.66-3.3 6.43-6.52 5.95-11.22-3.1-.6-4.48 2.42-6.18 4.4-2.15-2.82-3.6-6.46-6.92-8.14m-46.12 22.83c.95.48 1.91.98 2.87 1.46 2.3-7.9 8.4-14.06 10.26-22.13-7.83 3.93-10.23 13.11-13.13 20.67m575.82-4.59c9.16 5.82 17.73 12.69 24.77 20.99 3.13 3.59 4.68 8.31 8.24 11.58.3-1.35 2.57-2.71 1.49-4.11-8.93-14.04-19.14-27.24-29.97-39.86-3.9 2.49-3.62 7.4-4.53 11.4m-548.02-.04c.24 4.06 4.27 6.24 7.9 6.67 1.9-1.8 3.74-3.67 5.56-5.57-2-2.84-3.68-7.1-7.66-7.35-2.76 1.03-5.02 3.41-5.8 6.25m370.55-5.33c1.19 2.37 2.85 4.47 5.01 6.03 1.04-1.86 1.98-3.78 2.84-5.73-2.62-.13-5.24-.24-7.85-.3m-19.5 8.79c-1.34 4.72-1.66 9.81.16 14.46 1.05 1.31 3.07-.61 2.98-1.85.26-3.32.33-6.68-.03-9.98-.3-1.53-1.97-1.96-3.11-2.63m104.37 3.29c-3.57 1.73.26 7.11 3.09 4.65 2.61-1.88-.4-6.27-3.09-4.65m-472.01 1.9c-3.72.32-1.85 6.93 1.42 5.51 3.16-.85 1.66-6.18-1.42-5.51m374.44.77c1.03 2.75 2.37 5.5 4.93 7.16.96-.81 1.92-1.63 2.87-2.47-1.38-3.14-4.94-3.64-7.8-4.69m-514.5 5.33c-3.56 2.1 1.06 7.12 3.61 4.19 2.28-2.22-1.26-6.02-3.61-4.19m145.1.27c2.9 4.78 8 7.31 12.83 9.7.35-.49 1.06-1.47 1.41-1.95-2.28-3.65-6.4-5.57-9.71-8.14-1.52.13-3.03.26-4.53.39m627.43 4.09c1.7 2.85 3.8 5.45 5.3 8.43-2.63.84-4.78 2.56-6.27 4.86 4.29.69 8.78 1.37 12.91-.48-1.35-1.2-4-1.59-4.03-3.79.34-2.99 2.73-5.07 4.39-7.37-1.34-2.8-3.84-4.62-6.44-6.13-2.03 1.4-4.09 2.77-5.86 4.48m-384.16 23.8c-3.21 5.8-6.92 11.55-7.99 18.22-.53 4.2-.54 8.76 1.61 12.56 4.11 6.8 11.36 12.13 19.52 12.28 8.91.5 16.1-5.56 23.32-9.86-1.73-3.78-3.45-7.57-5.23-11.32-1.86.97-3.71 1.96-5.55 2.96 2.23 2.71 5.51 5.46 4.25 9.43-5.64-1.2-5.78-8.75-11.31-10.14.79 4.55 3.2 8.53 5.31 12.55-5.71 1.63-12.25 3.7-17.87.64-5.67-3.26-10.82-9.15-10.41-16.07 1.11-10.53 7.16-19.59 13.06-28.05 2.39 4.58 4.75 9.37 8.63 12.91 2.67 2.36 6.26 4.09 9.9 3.55 5.59-2.36 5.46-9.44 8.61-13.86-3.18-2.78-6.62-5.44-8.86-9.08-2.38-4.31-3.73-9.16-6.71-13.13-8.52 7.28-14.8 16.73-20.28 26.41m152.73-24.62c.16 11.89-1.88 23.77-.75 35.67 1.03-1.21 3.48-1.74 3.25-3.73.24-10.24 1.67-20.43 1.23-30.69-1.25-.43-2.49-.84-3.73-1.25m67.83 2.82c1.04.98 1.9 2.91 3.67 2.51 2.84.28 3.37-4.44.63-5.02-2.02-1.2-3.46 1.01-4.3 2.51m162.59 17.34c2.2.23 4.4.46 6.63.67-1.73 4.15-2.13 8.66-1.74 13.11-3.67 1.86-8.63 3.88-8.72 8.72-1.38 5.92 4.45 9.59 8.69 12.29-.3 4.02-.96 8-1.3 12.02 2.91.12 5.83.29 8.75.6-1.35 3.22-4.78 4.35-7.81 5.36 1.26 5.89-3.55 13.71 2.76 17.8.55-4.94 1.04-9.9 1.11-14.87 3.62-1.73 7.94-4.46 7.14-9.17-1.34-2.78-4.73-3.07-7.3-4.03-.16-3.52.51-7.19-.52-10.59-2.63-2.48-7.36-3.23-8.16-7.22.11-2.44 1.64-4.45 2.81-6.49 2.15-.12 4.29-.22 6.46-.3.3-5.35-1.94-11.4 1.29-16.18.69-1.32 1.55-2.73 1.23-4.29-3.81-1.53-9.57-2.11-11.32 2.57m-32.38 1.57c.78 1.42 1.57 2.84 2.39 4.26 1.53-.94 3.06-1.87 4.62-2.77-1.42-1.39-2.84-2.77-4.44-3.94-.88.81-1.73 1.62-2.57 2.45m-250.1 5.56c-.11.74-.34 2.22-.46 2.96 1.27.57 2.61.46 3.96.32-.07-1.34-.18-2.66-.4-3.97-.77.17-2.32.51-3.1.69m254.77.81c-2.75 2.43 1.91 7.47 4.4 4.36 2.37-2.55-1.8-6.89-4.4-4.36m-351.03 4.68c1.8 1.4 3.92 2.21 6.03 3.02.34-2.25.76-4.49 1.15-6.73-2.52.97-5.16 1.83-7.18 3.71m243.86-3.83c-1.8.88-3.72 2.6-3.33 4.82.46 3.87 5.55 7.83 9.03 4.76 4-3.54-.87-11.29-5.7-9.58m-160.98 11.92c-15.7 13.48-33.88 23.59-52.2 33-3.61 2.73-7.71 5.03-10.4 8.77 3.22 3.88 6.84 7.41 10.93 10.36 1.58-4.45-1.73-8.18-4.28-11.39.98-.67 1.96-1.35 2.95-2.01 2.1 3.11 4.18 6.74 8.14 7.7 1.36-4.21-2.18-7.19-4.25-10.33 20.67-10.91 40.6-23.55 57.86-39.4 1.49-1.28 1.89-3.29 2.48-5.06-4.43 1.77-7.61 5.42-11.23 8.36m270.36-5.67c1.21 6.16 3.89 12.36 2.37 18.74 1.29.69 2.58 1.38 3.9 2.06.75-3.51 1.18-7.21.01-10.68-.82-3.98-1.98-8.59-6.28-10.12m-700.45 7.01c5.75 1.38 11.9 1.38 17.52-.56-1.51-1.32-3.21-2.96-5.42-2.71-4.16.25-9.64-1.24-12.1 3.27m76.29-1.99c-2.87 2.03.99 7.26 3.53 4.5 2.32-2.07-1.03-6.71-3.53-4.5m417.34 3.5c.74 1.24 1.54 2.46 2.4 3.64 1.11-.76 2.3-1.46 3.29-2.39-.07-1.22-.89-2.23-1.33-3.3-1.49.62-2.94 1.3-4.36 2.05m97.5.04c-.54 6.96-.38 13.97-1.45 20.89-2.48 2.49-7 3.28-7.88 7.07.21 7.35 10.51 5.35 12.34 11.77-4.23.39-8.47.34-12.7.45.14 5.1.06 10.2-.04 15.3-6.25-1.85-12.72-2.89-18.88-5.04-1.05-1.34-1.74-2.97-2.54-4.44 5.69 1.67 11.39 3.37 17.27 4.27.09-2.99.18-5.97.25-8.94-6.35-1.95-12.45-4.68-18.97-6.06-1.04 5.64-1.59 11.38-2.85 16.99 1.94 1.34 3.94 2.91 6.43 2.96 9.71.57 18.65 4.76 27.88 7.42 9.81 3.34 20.01 6.06 28.84 11.65 2.13 1.27 3.89 3.11 6.13 4.2 1.24.58 4.6-.78 2.91-2.25-11.46-11.99-23.15-24.61-38.66-31.32 3.59-.69 8.28-2.26 7.68-6.87-1.37-5.98-8.81-6.39-13.03-9.64 2.99-1.43 6.19-2.33 9.32-3.37.01-6.69 1.1-13.33 1.08-20.01.47-2.33-1.9-3.5-3.13-5.03m-589.3 3.75l-.4 3.33c4.53.8 9.14.65 13.71.26l.88-3.68c-4.73-.01-9.46-.1-14.19.09m74.55 1.87c-2.03 1.91.99 6.15 3.27 3.84 2.57-1.83-1.03-6.81-3.27-3.84m419.09 3.06c-1.17.35-2.37 2.18-1.16 3.19 1.26 1.96 5.11 2.39 6.2.07.92-2.94-2.83-4.23-5.04-3.26m-487.77 3.84c.39 6.71.34 13.43.37 20.15l3.65.04c.22-6.17.25-12.4-.96-18.48l-3.06-1.71m696.53 3.12c-10.16 20.67-21.28 41.4-37.71 57.85-2.59 2.41-5.14 4.93-6.73 8.14 8.53-.01 12.93-8.37 19.23-12.73 4.66-4.76 11.74-5.45 17.98-4.18 3.98-12.12 9.12-24.01 10.48-36.81.8-4.18.66-8.47-.55-12.55l-2.7.28m-527.36 6.18c-2.42.88-2.95 3.26-2.19 5.52 1.78-.38 4.9.21 5.19-2.32.76-1.79-.97-4.55-3-3.2m-100.55 5.5c-1.24.93-1.29 3.19.11 4.03 1.53 1.57 4.32-.18 3.85-2.2-.19-1.65-2.62-3.4-3.96-1.83m416.99-.02c.01 3.04 2.42 4.94 5.24 5.37.44-3.14-1.73-6.49-5.24-5.37m-532.83 5.27c-2.79 1.35-4.07 4.73-7.04 5.78-4.01.86-8.21.6-12.17 1.74-2.94 2.02-3.81 5.79-4.78 9.01.92 3.21 2.48 6.19 3.7 9.29 10.12-3.51 20.44-6.62 31.09-8.01.4-1.28.8-2.55 1.21-3.81-10.38.36-20.65 2.39-30.61 5.24.83-2.37 1.36-4.97 3.02-6.93 1.86-2.15 4.84-.6 7.23-1.04 5.74-.45 10.65-4.61 12.61-9.94-1.33-.63-2.68-2.15-4.26-1.33m579.1.13c-.03 3.74-.11 7.48-.26 11.22-4.82-.26-9.37-2.55-14.24-2.17-1.9-.01-3.16 1.53-4.49 2.64 10.34 3.07 21.5 3.1 31.35 7.84.25-5.83 1.26-11.59 1.33-17.43-3.95-3.03-9.08-2.06-13.69-2.1m-65.13 15.33c.96 2.06 3.22 3.93 5.59 2.74 11.37-4.83 23.87-5.32 35.99-6.64.21-1.92.36-3.85.74-5.75 5.5-.57 11.07-.12 16.6-.12 1.49-1.11 2.27-2.91 3.42-4.34-21.56-1.53-43.59 3.29-62.34 14.11m-328.47 6.93c4.78 4.28 7.54 10.74 6.86 17.18-.21 5.46-3.62 10.27-8.15 13.13 4.26 4.74 7.62 10.3 9.7 16.34 10.13-6.29 21.76-9.29 32.86-13.34 3.98 6.63 8.11 13.18 12.66 19.44 7.04-3.1 14.18-6.05 20.91-9.82-5.32-8.45-7.53-18.3-11.23-27.47-13.55.44-27.08-.78-40.62-1.11-.29-11.58-7.25-22.4-17.11-28.24-4.71 2.84-3.82 9.39-5.88 13.89m196.97 6.56c2.79 9.84 6.75 19.87 14.49 26.91 1-1.01 3-1.61 2.74-3.37.49-9.18 1.83-18.95 7.87-26.29-3.05-3.3-6.17-6.55-8.86-10.16 2.01-.88 4.73-1.16 6.14.89 1.64 2.52 3.36 5 5.89 6.74.63-1.72 1.25-3.44 1.88-5.15-3.32-3.48-6.45-7.17-10.06-10.36-6.21 7.36-12.55 14.72-20.09 20.79m-290.84-18.2c-1.69.49-1.99 2.38-1.51 3.86 1.41 1.33 4.12 1.74 5.14-.27 1.77-2.22-1.63-4.84-3.63-3.59m9.94-.18c.03 1.86.18 3.72.39 5.58.97-.16 1.95-.35 2.92-.57.36-2.28-1.97-3.57-3.31-5.01m8.14 4.1c3.85 4.4 10.17 4.17 15.27 6.12.49-1.33.98-2.66 1.46-3.98-4.01-.96-7.86-2.47-11.89-3.35-1.62-.15-4.41-1.33-4.84 1.21m657.67 11.61c-2.94 7.65-9.23 13.44-16.16 17.52 2.65 6.52 4.59 13.29 6.91 19.93 14.25-10.67 17.88-30.47 14.51-47.1-3.73 1.84-3.81 6.28-5.26 9.65m-638.06-8.04c-.81 2.28.58 4.69 2.59 5.79 5.77 3.23 12.39 4.56 18.08 7.96 7.96 4.3 14.76 10.38 22.64 14.81 2.87-4.91 4.49-10.51 4.23-16.22 1.89 1.1 4.56 2.16 4.59 4.75.71 3.18-.67 6.23-2.69 8.61-.92 1.77-3.49 3.68-2.14 5.82 2.79 1.19 4.6-2.13 6.38-3.71 5.35-5.73 2.24-14.1-.07-20.48-9.51.67-18.36-3.38-27.62-4.66-.33 2.23-.74 4.45-1.12 6.69-6.66-3.17-13.47-6.03-20.44-8.47-1.44-.44-2.89-1.15-4.43-.89m368.45 4.35c.45 1.75 1.07 3.47 1.77 5.15 3.69-2.71 10.63-3.12 10.58-8.94-4.41.14-8.32 2.27-12.35 3.79m-9.73 6c-.49 2.49 3.13 4.53 4.8 2.42 2.03-1.97-.6-4.25-2.3-5.2-.74.93-2.5 1.4-2.5 2.78m-459.94 5.28c-3.39.43-6.83-.82-10.11.31-8.11 2.16-16.46 3.15-24.65 4.97 1.31 18.42.74 36.92.27 55.36.76 1.62 1.83 3.07 2.7 4.64.98-8.57.74-17.22 1.41-25.81 6.88 2.71 13.94 4.93 21.12 6.68.24-1.43.48-2.84.73-4.25-7.13-1.38-14.4-3.05-20.71-6.79-1.42-1.71-1.26-4.29-2.06-6.3 8.02 3.39 16.24 6.41 24.78 8.23.54-12.27.75-24.57 2.14-36.78 1.51-.03 3.02-.07 4.54-.11-.09 6.34.07 12.67.18 19.01 4.2.59 8.43.78 12.65 1.04.04-7.59.25-15.18-.26-22.76l-3.64.29c.02 6.25.3 12.56-.85 18.73l-3.42-.54c-.3-6.19.24-12.44-1.01-18.55-1.28.86-2.55 1.73-3.81 2.63m18.05-2.61c0 14.81-.59 29.68 1.27 44.4 5.43-3.63 2.75-10.73 2.58-16.04 6.78 4.57 14.14 8.16 21.27 12.14.49 5.89.13 12.04 2.31 17.64 1.06 2.89 3.47 4.91 5.86 6.68-.07-8.05-6.04-15.45-3.4-23.58 1.42-6 7.89-7.91 12.29-11.2 4.83-3.65 5.64-10.21 5.46-15.84-.49-4.53-2.59-10.04-7.85-10.54 2.08 6.99 5.91 15.38 1.15 22.11-4.53 3.99-10.3 6.31-14.63 10.56-1.72-1.02-3.46-2.01-5.1-3.16 3.16-3.28 7.05-5.73 10.46-8.73 1.91-1.72 4.12-3.51 4.68-6.17 1.33-5.51-.81-11.01-3.19-15.89-10.74-3.06-22.1-3.21-33.16-2.38m503.01.34c-.68 5.94.92 11.72 2.44 17.4 3.56-1.83 7.55-2.85 11.56-1.97-.6-3.39-1.26-6.77-1.62-10.19 5.46-.41 12.27 1.92 16.46-2.75-1.08-.92-2.22-1.74-3.42-2.44-5.76.38-11.57.45-17.25 1.52.25 4.68.73 9.9-2.48 13.77-.98-4.82-1.53-9.71-2.42-14.54l-3.27-.8m30.85 6.81c-2.01 6.53-.18 13.34 1.51 19.71-9.65 5.55-20.94 6.65-31.2 10.63.03 1.28.07 2.57.12 3.86 4.46-.87 8.82-2.2 13.07-3.82.92 8.53 2.3 17 4.21 25.37 14.45-3.21 29.75-5.03 42.61-12.93-1.69-3.57-2.1-8.7-6.36-10.22-5.29-2.54-11.94-3.35-15.48-8.55-6.21-9.16-5.23-20.87-3.46-31.24-2.23 1.94-4.21 4.29-5.02 7.19m-39.87-1.94c-.49 4.82 2.42 9.05 3.62 13.57l3.08.56c.82-6.15-2.12-11.8-3.72-17.56-1.37.73-3.04 1.58-2.98 3.43m50.09-3.47c-.5 6.11-2.78 12.27-1.59 18.39 3.43 9.23 14.08 11.27 21.98 15.09 2.62 4.49 3.84 9.65 5.09 14.66 13.2-6.6 27.9-11.35 38.32-22.33-4.69-5.15-10.59-9.04-16.76-12.2-14.69-7.44-31.1-10.17-47.04-13.61m-58.04.97c-.74 3.44.26 6.85 1.26 10.12-3.58 1.35-7.22 2.55-10.93 3.48-1.92-4.54-2.98-10.87-8.75-11.97 2.08 6.91 7.12 13.29 6.13 20.86-1.47 8.38-10.01 12.36-14.11 19.2-2.5 5.22-2.75 11.11-3.48 16.76 1.72.96 3.44 1.93 5.17 2.91-.4-6.15-1.36-13.13 2.4-18.48 3.96-4.67 8.82-8.6 12.03-13.89 4.88-.98 9.8-1.74 14.73-2.43 1.42 4.21 2.91 8.77 6.85 11.32-.13-2.16-.05-4.39-.84-6.43-3.7-9.69-4.57-20.12-7.14-30.11-1.11-.47-2.21-.92-3.32-1.34m-10.89 2.36c.53 1.26.96 2.57 1.61 3.8 1.9.66 3.92 1.02 5.88 1.53-.55-2.03-.79-4.65-3.07-5.5-1.48-.25-2.97.04-4.42.17m197.96 4.84c-1.66 2.48-1 5.7.21 8.22 1.14 1.72 3.38 1.76 5.16 2.33-.64-2.73-1.27-5.46-1.87-8.19 3.35-2.28 7.37-3.05 11.37-3.04-.79-1.75-1.53-3.98-3.62-4.5-4.35-1.08-8.94 1.55-11.25 5.18m-242.57 7.56c-3.25.98-6.09 2.88-8.93 4.68 1.14.81 2.31 1.61 3.52 2.36 3.04-1.16 5.93-2.67 8.91-3.97-.06 12.61-3.83 25.02-2.6 37.68 1.7-1.03 3.47-1.97 5.03-3.22 1.29-6.05.87-12.28 1.54-18.4 1.65.03 3.31.08 4.98.15.89 6.99-.39 13.98-2.45 20.66 1.99.37 3.95 1.29 6.02 1.06 1.64-1.67.89-4.22 1.23-6.31.78-9.32 1.08-18.67 1.8-27.99 4.54-2.22 9.27-4 14.06-5.57-.83 4.98-3.55 9.35-6.77 13.14 1.43 1.45 2.93 2.85 4.59 4.08 8.17-7.25 7.52-20.36 1.17-28.57-11.22 1.6-21.32 7.06-32.1 10.22m-381.95-6.79l1.94.27c.25 4.46.93 9.03-.31 13.42-1.85 9.21-12.8 12.74-14.96 21.82-.78 6.06 3.04 11.29 5.31 16.61 6.59-.31 13.19-.95 19.66-2.26.95-6.48.27-13.04-.45-19.5 9.3-.91 18.54-2.5 27.6-4.79 3.01-.77 4.39-3.89 6.08-6.2-6.98 1.19-13.68 3.51-20.55 5.12-.09-5.65-.06-11.3.11-16.95 10.89 3.12 21.3 7.64 31.82 11.8 2.25.84 4.41 1.98 6.2 3.62-13.98 5.87-28.69 10.54-43.88 11.59-.23 5.2-.45 10.4-.52 15.6 19.26-1.4 37.8-7.83 55.32-15.64l-.4 3.13c.41-1.13.76-2.27 1.14-3.4 1.72-1.58 2.9-3.6 3.96-5.66-7.19 1.56-13.48 5.54-20.34 7.98-11.31 4.63-23.41 6.7-35.38 8.8-.14-2.1-.26-4.2-.37-6.3 17.48-1.77 34.35-7.73 49.71-16.13l-.36-.74c-22.19-10.15-44.93-19.56-68.82-24.83-.9.82-1.68 1.75-2.51 2.64m-110.44.31c-3.11 2.8-6.19 5.61-9.21 8.5 4.82 3.18 9.97 6.85 11.42 12.82-5.84-2.3-11.01-5.92-16.3-9.25l-2.19 3.19c6.29 4.97 13.51 8.55 20.95 11.46-.06-9.3.22-18.6.15-27.89-1.61.39-3.21.82-4.82 1.17m465.71 3.22c1.78 1.31 3.85 2.11 6.01 2.54-.22-2.31-1.07-4.46-2.55-6.24-1.31 1.08-2.46 2.33-3.46 3.7m-10.35 4.61c2.11 1 4.43.7 6.58-.01-.72-1.47-1.43-2.95-2.29-4.33-1.96.2-3.71 2.5-4.29 4.34m291.06 2.32c2.74 8.61 12.52 10.49 19.77 13.79 1.18-1.08 2.37-2.14 3.58-3.2-3.67-5.65-4.58-12.52-7.81-18.38-5.19 2.58-10.37 5.17-15.54 7.79m-59.01-4.49c.83 1.59 1.05 3.8 2.81 4.73 11.42 7.29 25.58 7.48 37.62 13.33 5.1 2.08 9.14 5.94 13.94 8.56 1.84-2.72 3.29-5.71 5.37-8.27 1.22 1.27 2.39 2.63 3.2 4.22-1.44 2.95-4.67 4.93-4.75 8.52 3.61.33 5.67-2.98 8.64-4.29 1.4-.29 2.51.8 3.71 1.3-1.63 2.25-3.4 4.38-5.17 6.52 10.23 7.49 18.36 18 22.32 30.11 1.42 3.91 1.79 8.69 5.71 11.09-1.92-14.99-7.43-29.53-15.79-42.12-7.81-11.76-18.72-21.56-31.69-27.29-1.77 2.5-3.57 4.99-5.28 7.54-6.96-3.34-14.6-4.6-21.9-6.91 1.98-1.07 3.97-2.13 5.99-3.16-.71-1.11-1.41-2.23-2.1-3.34-3.77 1.5-7.48 4-11.7 3.62-3.79-.96-7.24-2.9-10.93-4.16m32.86 5.77c2.29 1.41 4.79 2.51 7.57 1.99-1.03-2.05-2.27-3.97-3.61-5.8-1.35 1.24-2.68 2.5-3.96 3.81m-270.86.08c-2.31 2.72-5.4 5.12-6.4 8.69l1.96 2.14c3.26-3.23 6.8-6.32 9.17-10.3-.05-2.58-3.63-2.25-4.73-.53m-32.68 4.46c-2.54.87-1.62 3.99.43 4.88 1.56-.25 2.47-1.72 3.65-2.6-.76-1.65-2.08-3.53-4.08-2.28m41.57 14.62c7.73 7.33 18.14 10.74 28.32 13.08 2.34-8.53 2.81-17.44 2.94-26.24-2.46.64-4.9 1.33-7.37 1.95-1.87-1.7-3.77-3.37-5.8-4.87-6.85 4.32-13.48 9.31-18.09 16.08m-414.36-14.64c-.08 8.28.03 16.56-.3 24.83 1.35.39 2.72.79 4.08 1.19.43-8.85 1.68-17.71.68-26.57l-4.46.55m10.27.49c-1.77 5.08-1.03 10.53-1.25 15.8.64 1.52 3.61 3.39 4.24.93.97-5.35.94-10.85.52-16.25l-3.51-.48m154.31 16.13c-.88 3.16-.44 6.74-2.19 9.63-4.49 4.85-10.75 7.43-16.23 10.93-5.36 3.45-11.21 6.01-16.91 8.84-2.33.81-2.36 3.67-3.31 5.56 6.73-1.66 13.1-4.44 19.28-7.53 1.08 2.54 2.18 5.07 3.23 7.62 4.09-2.4 8.25-4.69 12.38-7.03 1.95 3.13 3.97 6.22 6.05 9.26 5.34-3.98 11.33-6.97 17.32-9.85 4.36 6.13 9.25 11.9 13.27 18.27-5.41 1.27-10.97 1.91-16.29 3.58.28.73.83 2.19 1.1 2.92 10.73.02 21.62-1.69 31.48-6.06 4.33-2.05 8.78-4.33 11.81-8.16 4.9-5.65 11.08-9.94 17.39-13.84-2.66-8.98-5.46-17.94-8.68-26.74-8.45 2.7-16.81 5.66-24.9 9.31-3.87-6.69-7.67-13.46-12.43-19.57-10.38 5.28-21.67 8.38-32.37 12.86m232.85-8.1c-3.11 5.83-6.15 12.02-6.24 18.78-.1 6.77 3.32 12.84 6.72 18.46 2.14-2.05 4.21-4.19 6.26-6.33 5.72 4.39 11.72 8.51 18.29 11.53 1.85 1.14 3.92.19 5.82-.27-3.77-3.35-8.18-5.83-12.55-8.28 1.03-2.13 2.06-4.25 3.13-6.35-6.68-3.88-14.3-8.6-16.24-16.63-.97-3.82.16-10.29-5.19-10.91m107.39 2.05c-.18 3.51.81 6.88 1.58 10.27-3.34.59-6.71.95-10.08 1.23-.39 4.26-.51 8.54-.95 12.8-3.18-.06-6.35-.07-9.52-.05.49 1.18.97 2.37 1.45 3.57 9.04 1.54 18.19.61 27.29.94-2.2-8.97-3.14-18.25-6.11-27.03l-3.66-1.73m-477.53 3.59c-.14 4.18-.2 8.37-.26 12.56-3.15-.19-6.3-.25-9.44-.21.61.95 1.22 1.91 1.83 2.88 7.02 2.26 14.32 3.47 21.62 4.37-1.96-5.54-2.84-11.37-3.37-17.2-3.02-2.02-6.75-4.63-10.38-2.4m495.28 3.49c-1.62 1.33-3.29 3.24-2.96 5.5.23 2.49 2.18 4.25 3.73 6.02 1.62-.75 3.27-1.45 4.87-2.27 6.19-2.34-.55-12.8-5.64-9.25m-515.92 4.65c1.12 2.5 2.3 4.97 3.53 7.43 1.29-.77 4.63-1.16 3.28-3.51-.47-3.29-4.17-3.69-6.81-3.92m512.1 12.69l.12 3.41c5.63.99 10.69-2.03 15.81-3.81-1.27-1.21-2.41-3.08-4.43-2.79-4.06.01-7.66 2.18-11.5 3.19m94.57 2.67c-8.97 3.46-17.29 8.69-24 15.59.21 1.39.42 2.79.64 4.19 8.49-7.27 17.53-14.88 28.77-17.21 1.47 3.07 3.08 6.06 4.72 9.05 10.14-3.86 21.11-7.15 32.04-5.05-.8-1.62-.87-4.17-3.14-4.36-9.11-2.77-18.57-4.65-28.11-4.74-3.82-.19-7.43 1.2-10.92 2.53m-189.49 4.05c2.72 1.31 6.32 1.73 8.05 4.46-.13 3.7-.93 7.35-1.31 11.03-9.97-1.26-18.67-6.72-27.1-11.81.68 2.09.37 4.91 2.54 6.2 11.97 9.69 28.21 10.74 42.97 10.05.43 14.77-1.19 29.49-1.06 44.26 1.71.03 4.74.14 3.96-2.51-1.45-16.93 1.95-33.9-.04-50.81 9.48 2.85 19.26 4.47 28.84 6.89 1.4-1.14 2.45-2.6 3.24-4.21-20-3.18-39.9-8.34-57.98-17.64-.71 1.36-1.41 2.72-2.11 4.09m239.89 1.1c-4.35.6-.57 7.21 2.6 4.9 2.75-1.5-.05-5.62-2.6-4.9m-64.34 11.47c1.5 2.29 3.37 4.3 5.14 6.39 5.3-3.67 11.03-6.64 16.6-9.86-1.59-2.39-3.22-4.76-4.83-7.13-5.87 3.12-11.9 6.18-16.91 10.6m-358.66-5.44c-7.52 4.59-12.13 12.88-20.21 16.71-16.62 7.75-35.24 9.79-53.39 9.69-1.6 1.43-3.15 2.9-4.67 4.41 12.16.29 24.43.37 36.43-1.93.59 3.38 1.16 6.78 1.31 10.23-14.67 4.11-29 11.21-39.07 22.93-3.56-1.4-7.12-2.8-10.68-4.18.75-10.87 1.54-21.76 3.38-32.51-9.88-1.04-19.74-2.45-29.42-4.68.9-3.04 2.62-5.98 2.31-9.25-.19-2.47.34-4.88.81-7.28-.67 2.1-.78 4.47-2.21 6.26-6.04 7.95-5.63 18.78-11.33 26.92 12.4 20.99 16.55 46.98 10.08 70.6-2.55 8.7-4.99 17.54-9.29 25.58 5.26 7.92 9.29 16.57 13.01 25.31 8.9-4.44 17.74-8.98 26.7-13.27 6.71 6.57 12.87 14 21.24 18.56 3.71 2.36 8.12 3.54 11.51 6.41 1.78 1.5 2.01 3.88 2.27 6.04-3.73-1.25-7.39-2.75-11.17-3.84-5.92 7.35-10.43 15.67-14.89 23.95-.9 1.84-2.47 3.38-2.9 5.44.61-.47 1.19-.99 1.71-1.56l4.71.3c3.81-7.65 7.79-15.24 12.26-22.52 4.41 1.96 8.72 4.15 13.31 5.66.43-6.49 1.19-12.96 1.39-19.46 21.55 6.26 44.86-2.2 60.96-16.93-.53-1.39-1.05-2.78-1.56-4.17-5.42 3.19-10.06 7.54-15.62 10.5-20.05 11.01-46.81 8.32-64.06-6.79-22.33-17.88-27.89-53.24-11.5-76.85 8.27-12.31 21.45-21.3 36.06-24.08 14.04-3.31 29.07-.26 41.51 6.77 6.88 3.88 12.11 9.93 17.96 15.12.26-14.21-6.55-27.28-7.49-41.33-2.63.2-5.28 1.1-7.91.64-3.07-.64-3.6-4.75-2.21-7.08 2.23-3.29 6.07-4.97 8.52-8.1-3.29-.47-7.26-1.32-9.92 1.26-4.35 3.32-3.89 9.27-3.6 14.13-3.22 4.48-6.5 8.94-9.77 13.39-2.53-.37-5.06-.71-7.59-.99 5.06-4.38 10.02-9.44 11.73-16.14-6.54 3.54-10.89 9.74-15.92 14.99-2.8-.11-5.61-.12-8.37-.56-.92-3.24-2.55-7.3-.55-10.35 8.27-3.35 17.61-4.75 24.65-10.64 5.35-4.8 11.11-9.22 15.76-14.75-.56-1.9-2.21-3.66-4.28-2.56m-166.9 11.27c-.26.92-.5 1.85-.75 2.78 14.52-.22 27.76 7.6 37.59 17.76 3.55-10.19 7.19-20.39 9.04-31.05-14.09 7.64-30.48 7.73-45.88 10.51m321.63-4.57c.12 4.46-1.46 11.12 4.09 12.95-.05-4.55.4-10.22-4.09-12.95m125.16 6.4c2.88-1.34 6.87-3.26 4.8-7.1-3.55.53-4.76 3.94-4.8 7.1m-496.84-4.02c-3.16.83-2.2 6.11.97 5.69 3.59-.34 2.52-6.65-.97-5.69m465.41-1.55c.28 1.73.56 3.47.83 5.22 8.31-.42 16.97 1.79 25.02-.94-.35-.98-.69-1.94-1.04-2.9-8.29.39-16.7.66-24.81-1.38m90.34 13.39c3.18-3.32 7.41-7.01 6.56-12.13-4.94 1.34-11.13 7.08-6.56 12.13m14.67-4.2c.77-.02 2.32-.07 3.1-.1 2.26-2.13.77-4.94-1.34-6.45-2.7 1.25-3.44 4.1-1.76 6.55m-553.47-4.78c-3.2.82-1.3 6.93 2.02 5.75 2.61-1.44 1.08-6.58-2.02-5.75m12.46 1.29c-1.82.42-2.47 2.35-3.28 3.79 3.83-.11 7.66-.36 11.49-.6.04 12.12-.43 24.24-.58 36.36-6.98-4.93-13.34-10.88-21.24-14.35l-.84 2.89c6.7 4.83 14 8.89 20.12 14.49 2.31 1.63 1.56 4.8 2.08 7.22-8.08-4.6-14.81-11.57-23.83-14.47.9 1.66 1.56 3.61 3.17 4.75 6.6 4.75 13.91 8.56 19.95 14.06.12 5.99-.44 11.99-.14 18 1.18.71 2.36 1.43 3.55 2.15.1-9.35-.46-18.71.21-28.05 5.96 4.05 11.18 9.06 16.8 13.54 1.94 1.6 4.54.4 5.83-1.41-6.61-6.35-14.72-10.8-22.07-16.18-.44-14.49 1.9-28.94.69-43.41-3.96.57-8.03.19-11.91 1.22m682.19 10.07c.9 6.9 2.12 13.77 2.91 20.69 1.42-.39 3.83-.41 3.44-2.58-.34-5.11-.93-10.27-2.18-15.24-.37-2.08-2.41-2.57-4.17-2.87m-164.04.83c-.81 1.78-1.88 3.97.21 5.37 1.39 1.59 3.43-.65 3.21-2.27.38-2.06-2.03-2.53-3.42-3.1m-362.14 5.71l-1.45 2.84c1.29 1.59 3.01 2.7 4.81 3.65.16-1.63.63-3.27.43-4.9-.25-1.92-2.44-1.27-3.79-1.59m-322.39 7.91c-.15.78-.47 2.34-.63 3.12 1.58.92 4.51 1.03 4.26-1.57-.05-2.11-2.21-1.76-3.63-1.55m508.1 22.81c.89.01 2.67.05 3.56.07.01-6.87.12-13.74.18-20.6l-2.89.07c-.01 6.83-.61 13.63-.85 20.46m-234.41-17.9c-3.1.86-4.89 3.9-5.37 6.91.5 4.71 7.3 6.61 10.15 2.74 4.33-3.14.21-11.23-4.78-9.65m576.28 7.59c.79 1.33 1.41 3.99 3.56 3.39 1.62-.84 2.85-2.24 4.23-3.41-2.46-1.17-5.48-1.84-7.79.02m-774.05 4.74c-.06 1.27-.12 2.55-.15 3.84l3.59-.06c.11-1.09.3-2.18.01-3.25-1.11-.37-2.3-.42-3.45-.53m-64.08 1.3c-.44 8.03-.71 16.06-.65 24.11 1.05.36 2.1.75 3.15 1.14.02-8.01.34-16.02.65-24.02-1.05-.42-2.1-.83-3.15-1.23m542.8 4.67c-.12 1.06-.35 3.19-.46 4.25 6.12.75 12.31.61 18.46.48-.49-1.34-.97-2.68-1.44-4.01-5.51-.6-11.05-.32-16.56-.72m3.17 9.89c-9 3.32-14.83 14.52-10.88 23.58 2.14 4.13 5.39 8.06 9.92 9.61 7.48 2.59 16.85-.08 21.01-7.03 1.75-3.21 3.25-6.78 3.04-10.51-.43-10.84-12.71-19.84-23.09-15.65m-480.67 1.23c.59 12.52-.59 25.1.94 37.56.97.78 1.94 1.58 2.9 2.4-.1-10.54-.8-21.08-.3-31.62.31-3.21-.88-6.42-3.54-8.34m430.86 7.3c.02 1.2.05 2.41.11 3.63 1.83.13 4.46-.1 3.63-2.8-.47-1.89-2.42-.82-3.74-.83m-381.04 3.75c.33 3.36 2.83 5.81 6.23 5.78-1.08-2.82-3.02-5.37-6.23-5.78m-115.99 6c-1.68 1.16-1.44 4.42.71 4.88 1.69.97 3.72-.96 3.51-2.74.08-1.95-2.73-3.8-4.22-2.14m842.98.84c-.03 1.19-.72 2.7.38 3.65 1.09.11 2.16.01 3.27-.01l-.06-2.42c-.13-1.92-2.39-.92-3.59-1.22m-345.86 1.89c-.03 1.04-.02 2.09.05 3.14 1.08.47 2.23.67 3.45.6.09-1.26.18-2.52.23-3.78-1.25-.03-2.5-.01-3.73.04m-379.35 4.91c-2.65 2.02.91 6.73 3.85 4.86 3.44-2-.87-7.46-3.85-4.86m724.56 1.97c-.36 3.67-.43 7.37-.46 11.06 3.4-1.63 5.34-5.93 3.2-9.32-.68-.8-1.5-2.61-2.74-1.74m-843.14 2.91c.3 1.56-.49 3.83 1.42 4.59 2.64 1.3 3.84-2.76 2.59-4.54-.66-2.09-2.72-.46-4.01-.05m119.28 6.54c.54 5.89-3.58 13.71 2.69 17.72.95-5.81.76-11.71.48-17.56l-3.17-.16m433.56.27c-2.27 2.25-4.84 4.27-6.6 6.97 1.7 2.84 4.15 5.22 7.09 6.77 2.15-1.65 5.19-3.63 4.43-6.82-1.29-2.54-3.18-4.7-4.92-6.92m287.89 4.33c-3.1 24.79-9.97 50.16-26.15 69.78 3.57 2.4 7.86 3.01 11.96 4-3.87 5.59-10.48-.45-15.49 1.65-.9 1.05-1.16 2.48-1.66 3.75 6.1.48 12.09 1.76 17.92 3.61 4.31-26.38 13.82-51.68 17.27-78.23-.29-2.09-2.54-3.12-3.85-4.56m-288.98 13.16c-.19 5.51-.09 11.03.09 16.54.96-.78 1.97-1.51 2.83-2.4 1.19-4.79 1.7-10.98-2.92-14.14m-551.86 1.11c.19 6.3.64 12.6.46 18.92l3.27-.39c0-5.66.14-11.36-.73-16.97-1-.53-2-1.05-3-1.56m119.43 3.74c-.44 6.96-.3 13.93-.13 20.9 1.19.32 2.37.65 3.56.99-.12-6.5-.06-13-.48-19.49-.98-.8-1.97-1.61-2.95-2.4m91.91 15.35c-5.43 18.97-18.2 34.43-29.55 50.14 3.23 5.7 6.28 11.6 10.76 16.47 4.95-1.7 9.41-5.47 14.93-4.96 5.29.47 10.58 2.52 14.61 6 5.52 5.39 5.18 13.68 6.06 20.79 1.21.62 2.43 1.26 3.66 1.9 1.18-9.19.25-19.38-6.16-26.59 5.48-6.73 11.54-12.97 16.75-19.92-.98-1.44-1.93-2.9-2.88-4.34-2.62 3.23-5.25 6.46-7.83 9.74-3.08-2.17-7.07-3.62-8.88-7.14-1.18-5.2 1.68-10.86-.84-15.83-2.94-4.63-7.81-7.45-12.17-10.56 3.04-5.62 7.26-11.15 6.93-17.88-2-.18-4.86-.38-5.39 2.18m-145.2 3.23l-.04 2.44c1.36.48 2.73.9 4.11 1.31-.15-1.7-.31-3.39-.46-5.07-1.2.44-2.41.87-3.61 1.32m484.76 1.46c-2.16 1.6.04 5.63 2.53 5.19 2.6.25 3.43-3.65 1.45-4.94-1.08-1.03-2.88-1.49-3.98-.25m-433.64 6.33c-4.12 2.94-3.52 8.8-1.24 12.73 3.46 2.55 7.63 3.95 11.12 6.47.04 2.75.67 6.66-2.15 8.29-4.07.98-8.5 1.78-11.59 4.85-3.26 2.77-4.31 7.99-1.74 11.56 2.1 2.93 5.85 3.7 9.2 4.15-.03 10.1-1.06 20.19-.8 30.3.75 2.14 3.37 3.02 5.45 2.94 7.79-1.55 15.74-3.86 21.9-9.1-1.36-.84-2.73-1.65-4.09-2.48-5.48 2.51-10.98 5.08-16.83 6.65-5.04-8.99-.98-19.29-2.13-28.9 4.63-.02 9.23-.66 13.84-1.01-.92-1.38-1.82-2.76-2.73-4.13-6.53.08-13.45 2.04-19.73-.51-1.72-.7-1.63-2.88-.83-4.24 3.14-6.14 12.19-4.3 15.74-10.13 2.55-4.75.3-11.63-4.8-13.67-3.48-2.04-8.79-4.01-8.17-8.97 3.98-1.8 8.37-1.03 12.58-1.18-3.01-3.93-8.43-4.94-13-3.62m185.24 14.75c-.24 7.35-.01 14.7-.16 22.05-6.38-2.49-12.26-6.96-19.39-6.92.88 4.6 5.63 6.1 9.44 7.54 15.3 5.28 31.13 9.31 45.56 16.81-2.06 17.47-.33 35.63 6.44 51.96.37 1.75 2.16 2.2 3.58 2.85.14-1.92.7-3.92-.08-5.77-9.6-26.45-5.18-55.33 1.15-82 1.09-6.93 6.01-13.5 3.65-20.69-13.64 11.85-32.49 16.17-50.19 14.17m375.44-13.39c-.14 1.79-.6 4.07 1.12 5.31 1.34.26 2.79-1.12 2.92-2.38.21-2.19-2.53-2.42-4.04-2.93m-611.94 3.9c1.27.85 2.61 1.59 4.04 2.15.55-1.06 1.1-2.12 1.64-3.17-1.08-.67-2.04-1.66-3.35-1.84-1.44.19-1.56 1.92-2.33 2.86m613.27 7.62c-2.23 1.68-.85 4.5.75 6.05.91-.82 1.78-1.69 2.6-2.6.01-1.76-1.24-4.33-3.35-3.45m-29.36 10.41c3.27 4.26 7.95 7 12.22 10.12.3-1.37.61-2.74.92-4.09-3.22-2.4-5.62-6.12-9.63-7.3-1.2.35-2.37.77-3.51 1.27m29.14-.78c-.28 5.09.48 10.14 1.24 15.16-4.12-1.87-7.72-5.4-12.55-5.07.84 6.2 7.87 7.03 12.38 9.5.15 8.68.23 17.36.09 26.04-6.71-1.2-13.35-2.87-20.16-3.38.11 1.46.22 2.93.34 4.41 12.54 1.58 24.95 4.09 37.55 5.26 1.46 6.28 1.89 12.74 2.98 19.09.8.34 2.4 1.01 3.2 1.34 1.18-3.51-.47-7.06-.11-10.59.32-1.3 2.13-3.35 3.49-2.27 1.3 3.85 2.08 7.88 3.38 11.75 9.02-2.67 18.4-3.66 27.66-5.13-.44 7.72-2.66 15.24-2.69 23.01 1.82.41 3.63.82 5.47 1.2 2.17 5.37 5.67 10.72 11.25 12.97 2.22.85 3.64-2.53 2.27-4-2.17-1.08-4.75-1.59-6.41-3.48-3.31-3.61-3.71-9.08-2.41-13.61 3.06-5.09 9.64-5.39 14.93-5.3 1.58-5.64 2.4-11.44 3.87-17.09 5.46-2.02 10.93-4.06 16.13-6.69-1.99-5.64-5.14-10.74-7.96-15.98-2.72 1.64-5.44 3.36-8.51 4.27-14.99 4.27-30.64 5.88-46.2 5.62.8 3.78 1.53 7.57 2.42 11.33-2.04.97-4.11 1.88-6.17 2.8-.67-4.74-1.26-9.49-2.19-14.19-9.21-.37-18.41-.74-27.58-1.72-.15-7.73-.01-15.47-.55-23.19 3.2 1.65 7.83 4.24 10.53.41-3.49-2.13-7.43-3.56-10.62-6.13-.65-3.88.25-7.88-.7-11.71-.57-2.21-2.65-3.41-4.37-4.63m-119.01 8.29c1.14 1.86 4.03.62 4.12-1.39.93-1.47-.79-2.52-1.32-3.67-1.45 1.24-3.95 2.77-2.8 5.06m9.53.81c.51 1.6-.01 3.9 1.73 4.86 8.82 6.18 18.03 11.99 28.16 15.77-.57 2.3-1.19 4.59-1.73 6.91 18.59 7.78 35.73 18.78 54.85 25.32 11.95 3.99 24.06 7.51 36.3 10.51.97 3.76.95 7.76 2.4 11.39.8 2.18 3.04 3.13 4.95 4.13.34-10.87-.88-21.78-3.61-32.31-7.85.06-15.72-.42-23.33-2.4-16.34-3.42-32.84-6.23-48.87-11-6.11-1.75-11.46-5.3-16.88-8.49.75-2.45 1.86-4.77 2.77-7.15-13.92-1.59-24.86-11.06-36.74-17.54m-322.68 4.77c-4.88 5.9-10.24 11.43-14.56 17.78 1.1 1.3 3.47 2.22 4.65.51 4.21-4.71 8.14-9.66 12.32-14.39-.8-1.32-1.6-2.61-2.41-3.9m33.81 1.65c-2.3 4.37-4.82 8.71-6.05 13.53-.47 1.86 1.62 2.4 2.86 2.97 1.98-2.87 3.41-6.07 4.85-9.23 1.4-2.57.45-5.47-1.66-7.27m502.87 15.88c2.44 4.55 4.85 9.12 7.48 13.58 3.84-3.61 7.51-7.41 11.26-11.11 5.86 15.99.41 32.88-2.07 48.97-1.25 11.97-5.25 23.38-7.58 35.14 1.29 1.82 4.66 3.6 5.58.52 7.14-18.87 11.99-38.51 18.31-57.65 3.07-13.69 8.85-26.82 9.72-40.95-8.72-.79-17.1-3.8-25.89-3.95-4.36 6.3-9.45 12.59-16.81 15.45m-606.92-10.24c-5.56 9.98-14.62 17.82-25.15 22.17.74 1.59 1.52 3.16 2.26 4.77 6.03-3.55 11.58-7.81 17.28-11.84 1.97-1.03 2.9 2.21 1.21 3.11-5.59 4.94-12.17 8.58-18.08 13.1-11.32 8.39-25.74 10.16-39.26 12.24-.19-3.61-.7-7.18-1.33-10.73-15.13.91-30.45 2.11-45.45-.78-3.13 5.72-2.01 12.37-2.18 18.6 3.18 2.76 6.22 5.68 9.03 8.83 24.06 26.22 36.55 60.25 56.68 89.21 1.63-.61 3.27-1.22 4.9-1.82-15.53-18.58-25.35-40.92-37.4-61.73 5.61-3.84 11.33-7.49 17.17-10.98-5.28-7.61-8.79-16.22-12.39-24.7 13.26 1.87 26.72-.73 39.19-5.26 16.94-6.91 29.31-21.46 46.16-28.55-3.29-5.89-7.48-11.28-12.64-15.64m96.71 48.67c-2.43-2.36-5.37-4.51-6.32-7.93 1.72-7.03 6.75-12.86 7.64-20.13-.74-6.85-6.46-11.86-12.31-14.73l-.44-1.7c-1.98.59-4.34-.71-5.94 1.01-2.24 1.58-2.02 4.54-2.29 6.96 2.2-.8 4.25-2.23 6.62-2.44 4.99 2.25 9.8 7.03 9.22 12.93-1.1 6.31-5.45 11.58-6.26 17.97.98 4.37 3.51 8.14 5.81 11.9-1.12.64-2.23 1.3-3.34 1.95-4.23-4.05-8.6-8.02-13.67-10.98-2.51 5.25-5.1 10.45-7.92 15.54-4.22-4.49-7.7-9.58-11.31-14.54-.93.72-1.86 1.44-2.77 2.18 5.73 13.05 17.84 22.07 30.68 27.44 10.18 4.13 21.59 2.67 31.79-.63 2.09-.78 4.47-1.19 6.14-2.78.01-1.36-.79-2.9-2.32-2.83-5.7.97-10.92 4.34-16.85 4.07-2.97-.18-5.51-1.99-7.08-4.43 5.09-9.49 13.58-18.34 24.87-19.45 4.27-.81 9.85.97 12.85-3.04-1.47.2-4.25 1.19-4.06-1.48-1.67-.57-3.34-1.14-5.01-1.66-2.28-5.18-3.12-12.01 1.12-16.44 4.33-5.03 11.65-4.43 17.64-4.29-.01-3.66.03-7.32.09-10.97-9.49-3.3-19.23-5.77-28.8-8.78-6.96 15.37-8.16 33.06-17.78 47.28m-208.39-44.32c-2.88 2.15 1.2 6.61 3.89 4.59 2.66-2.31-1.24-6.12-3.89-4.59m485.88-.15c-1.69 1.15-1.35 4.37.69 4.89 1.61.98 3.79-.75 3.45-2.53.32-1.99-2.65-4.11-4.14-2.36m60.97 7.63c12.97 4.97 26.31 9.11 40.04 11.34-.13-1.38-.37-2.73-.72-4.04-6.47-1.91-13.22-2.69-19.64-4.77-6.64-1.83-12.89-4.9-19.69-6.14 0 1.2 0 2.39.01 3.61m-285.25 25.16c-3.18 4.01-8.79 5.9-11.54 10.47-.73 2.42 2.4 3.25 3.93 1.92 3.76-2.56 7.17-5.63 11.11-7.93-1.18 4.77-4.97 8.05-8.41 11.26.95 1.14 1.89 2.31 2.87 3.45.18 1.72 1.19 3.13 2.6 4.11 1.18-.83 2.39-1.61 3.48-2.55-1.39.23-2.63 1.72-4.1 1.1-1.09-.81-1.36-2.14-1.65-3.35 3.73-1.47 6.93-3.95 9.76-6.74-.81-3.06-1.67-6.1-2.57-9.12-3.14-9.45.57-19.66-2.59-29.11-6.84 7.25-3.84 17.72-2.89 26.49m451.51-24.01c.59 6 3.94 11.11 6.53 16.39 1.2-1.6 3.44-3.52 1.79-5.62-2.13-4-2.73-10.25-8.32-10.77m-520.47 2.8c-1.61.59-3.12 1.55-4.15 2.95-1.77 3.79.24 8.68 3.95 10.48 2.69 1.47 5.37-.98 7.07-2.88 3.47-4.39-1.31-12.47-6.87-10.55m52.99 10.08c-3.5 1.13-5.83 5.19-4.31 8.72 1.87 4.98 9.52 5.65 12.54 1.46 1.98-4.78-2.65-12.47-8.23-10.18m128.12 23.97c-8.18 7.52-15.47 16.45-25.69 21.33-7.04 3.13-14.59 4.85-21.93 7.13-1.77 6.9-3.25 14-6.64 20.34-1.35 2.87-4.06 4.93-7.08 5.78-6.41 1.85-13.02-1.07-18.26-4.62 2.53 17.26-.36 34.65-.22 51.97 11.55-13.26 19.68-29.02 30.63-42.73 2.96 3.66 5.68 7.5 8.36 11.37 5.25-9.77 14.15-17.25 24.14-21.85 1.42 1.68 3.23 3.25 3.42 5.61-9.54 4.88-17.44 12.36-24.01 20.74.88 1.94 2.09 3.7 3.52 5.29 3.97-7.21 8.76-14.79 16.53-18.33 9.04-2.29 16.85 5.48 25.89 4.25 5.2.08 9.7-2.8 13.84-5.6-3.54-7.55-9.13-13.83-13.38-20.94-4.27-7.07-8.11-14.38-12.63-21.28 4.17-4.19 8.34-8.8 14-10.94 7.18-2.46 14.86-2.19 22.29-3.2 1.76-5.3 4.59-10.17 6.06-15.57-1.41-.03-2.82-.05-4.21-.06-1.8 3.53-2.8 7.54-5.38 10.63-1.51 1.88-3.99 2.34-6.23 2.65.89-4.27 3.83-7.87 4.25-12.23.28-1.81-1.02-3.1-2.03-4.38-9.24 3.26-17.56 8.64-25.24 14.64m111.15-8.75c.76.8 1.56 1.58 2.37 2.35 1.83-1.25 1.98-3.26.02-4.47-.81.69-1.62 1.39-2.39 2.12m-65.89-.12c-3.61 4.4-5.84 9.71-8.37 14.77 5.87-.12 12.64 3.56 13.54 9.78.7 5.02-4.77 7.76-5.32 12.48 6.33.01 9.14-7.07 9.73-12.37-.08-6.25-5-11.18-10.14-14.08 1.08-2.63 2.79-5.12 2.92-8.04-.47-1.06-.67-3.41-2.36-2.54m70.02 16.13c1.74-1.31 1.23-3.5.58-5.23-1.41-.13-2.82-.21-4.22-.22-1.42 2.25.75 6.6 3.64 5.45m70.97 58.04c-5.52 4.53-11.74 8.23-16.72 13.42.94 12.47-1.28 24.96.12 37.42 8.69-4.38 14.59-12.32 21.42-18.97 9.6-9.2 17.57-19.89 26.49-29.72 7.87-8.67 13.91-18.78 19.84-28.82.12-5.93-.12-11.88-.44-17.81-5.14 4.13-6.64 10.85-10.57 15.89-6.2 8.17-12.81 16.01-19.3 23.95.05-3.7.37-7.38.77-11.05 9.94-12.19 19.34-24.89 27.2-38.54l6.41-.05c.45 6.26.88 12.52 1.62 18.75 1.31-.53 2.62-1.05 3.95-1.57.3-6.39.64-13.14-1.8-19.17-3.23-3.75-8.68-3.18-12.99-4.66-12.23 22.39-26.8 43.91-46 60.93m-293.99-58.6c2.75 4.5 4.49 9.72 4.25 15.05.11 6.3-2.93 11.99-5.52 17.53-8.4 17.51-20.13 33.21-33.26 47.43.33.66.99 2 1.32 2.67 11.58.37 23.01-1.76 34.53-2.43.13 7.93-.72 15.84-.72 23.76.33 2.22 2.46 2.79 4.29 1.85 1.18-16.57.6-33.25 2.5-49.76.27-4.75 6.37-4.38 9.65-5.6-.13 7.61-1.14 15.18-.96 22.81 1.61-1.58 3.89-2.87 4.46-5.21.73-8.82-.27-17.71.63-26.51.36-3.02 1.62-7.24 5.34-7.21 4.48 2.11 7.66 6.84 12.84 7.45 3.61.03 7.55-.87 10.04-3.7 3.88-4.05 4.5-10.33 2.52-15.43-4.87-1.72-10.12-1.66-15.03-3.17-5.76-1.83-10.43-5.82-15.63-8.74-4.08 1.25-7.89 3.2-11.61 5.26-.05-4.84.14-10.22-2.86-14.3-1.61-2.07-4.46-1.87-6.78-1.75m-308.1 6.12c-4.17 3.87-8.3 7.79-12.54 11.59-.9 1.06-2.62 1.85-2.41 3.52 1.27 1.29 3.61 1.91 5.02.5 4.29-3.42 8.27-7.22 12.36-10.87.64-.89 2.15-1.54 1.9-2.8.16-2.17-2.89-3.52-4.33-1.94m280.68 3.36c1.37 1.18 2.84 2.26 4.57 2.87.21-1.77.37-3.54.49-5.31-1.72.74-3.41 1.54-5.06 2.44m-279.44 10.26c-10.73 11.06-23.54 19.78-34.85 30.2-2.06 1.69-1.47 5.12.53 6.69 10.1-10.06 21.68-18.45 32.39-27.83 3.83-3.46 7.72-7.34 9.04-12.51-2.94-.39-5.28 1.38-7.11 3.45m711.88-2.89c-1.87 6.01-2.46 12.33-4.32 18.36-3.49 12.83-10.36 24.37-14.74 36.88-3.97 11.27-9.58 21.91-15.95 32.01.06 1.37.14 2.76.24 4.16 9.95-8.42 11.83-22.41 20.46-31.86 3.24-5.27 9.83-6.9 15.63-5.89 4.54-13.16 12.38-25.36 13.72-39.47-5.33-4.4-10.01-9.48-15.04-14.19m-259.43 4.46c-2.7 2.5 1.96 7.31 4.36 4.25 3-2.46-1.96-6.76-4.36-4.25m-486.25 12.85c-2.15 1.73-4.11 3.69-5.91 5.8.7 1.12.06 3.44 1.51 4 6.78-4.9 12.63-10.93 19.22-16.05-1.59-1.46-3.18-2.9-4.77-4.35-3.08 3.78-6.49 7.26-10.05 10.6m116.51-2.91c10.13 16.46 18.74 33.87 29.91 49.68 3.73-4.57 7.25-9.36 11.86-13.1-11.57-13.81-19.48-30.21-30.82-44.19-3.78 2.34-7.45 4.86-10.95 7.61m-39-6.54c-2.96 2 1.07 6.73 3.61 4.34 2.7-1.93-1.22-6.74-3.61-4.34m7.39 12.47c2.48 4.34 4.68 9.12 8.81 12.18 1.64-6.76-5.16-10.75-8.16-15.84-.32 1.17-1.63 2.45-.65 3.66m-47.12-1.33c-5.18 2.53-1.97 11.26 3.38 10.97 3.26-.14 5.35-3.71 4.49-6.72-.47-3.54-4.59-6.12-7.87-4.25m-6.09 27.88c-2.38 1.28-2.34 4.16-1.4 6.37 4.96-2.33 8.88-6.29 12.85-9.96 1.88 2.44 3.88 4.8 5.86 7.17 3.68-2.74 7.24-5.64 10.91-8.39 5.31 8.38 10.31 17.06 14.46 26.06.05 14.77-1.66 29.48-3.36 44.14-.69 7.66-2.03 15.33-1.18 23.05 1.51-.62 3-1.28 4.48-1.96 1.23-21.06 2.9-42.09 4.65-63.12.03-4.99-3.06-9.17-5.32-13.39-3.91-6.86-6.76-14.45-12.15-20.35-3.87 2.7-7.49 5.72-11.28 8.52-.99-2.13-1.85-4.84-.07-6.81 2.9-3.2 7.06-4.77 10.6-7.1-1.07-1.88-2.16-3.75-3.26-5.6-8.77 6.92-16.52 15.08-25.79 21.37m-23.06-5.36c-3.13 2.3-6.27 4.61-8.99 7.4 6.59 12.55 11.98 25.68 18.36 38.34 3.82 8.39 8.86 16.22 11.94 24.95 5.62-4.18 7.81-11.01 11.24-16.8 7.62-11.97 14.1-24.64 21.99-36.44-1.9-2.82-3.88-5.58-6.03-8.21-3.07 2.54-5.92 5.34-8.78 8.11-1.83-2.47-3.65-4.95-5.56-7.36-3.98 3.54-7.97 7.09-11.92 10.68-5.42-6.51-10.64-13.18-16.33-19.45 4.29-3.68 8.67-7.29 12.36-11.58-1.18-1.04-2.36-2.05-3.55-3.06-4.77 4.61-9.52 9.28-14.73 13.42m794.06-12.92c-4.03 3.45-3.42 9.05-4.8 13.7 1.33.59 2.67 1.2 4 1.82.9-5.01 4.99-11.02.8-15.52m-779.4 12.68l2.21 4.05c3.5-3.48 7.24-6.7 10.79-10.11-.72-1.06-1.54-2.03-2.3-3.03-3.58 3.01-7.14 6.05-10.7 9.09m75.45 3.79c1.35-1.65 2.86-3.29 3.31-5.44-1.38-.55-2.7-1.26-4.1-1.71-.17 2.41.15 4.8.79 7.15m607.16-1.14c1.75-.04 3.51-.1 5.28-.2.48-2.01.05-4.27-2.15-4.99-3.05-.6-3.71 2.97-3.13 5.19m-260.88 2.5c-2.91-.63-5.81-2.49-8.82-1.29-8.81 2.29-15.3 9.69-18.51 17.96 2.84 3.24 5.77 6.41 8.84 9.46 7.55-5.34 14.7-11.23 22.32-16.47 4.71 7.13 9.77 14.02 14.8 20.94-7.05 5.03-14.48 9.7-20.35 16.15 1.52 5.49 5.64 9.72 9.71 13.48 25.09.07 50.18-.94 75.2-2.62 8.95-.57 18.9-3.97 23.33-12.38 2.65-4.13 2.66-10.43 7.89-12.45-.77 5.64-1.56 11.64-5.06 16.34-1.8 2.42-3.8 4.88-3.86 8.07 20.15-2.41 40.5-4.49 59.99-10.46-.17-12.04.04-24.07.38-36.1-16.18 2.77-32.68 2.48-49.04 3.01-.9 1.44-1.81 2.87-2.64 4.36 9.52.44 19.06.12 28.56-.55.2 2.13.39 4.24.68 6.38-10.84 1.59-21.81 2.06-32.76 1.83-1.11-4.55-1.12-10.45-5.63-13.13-1.56-.85-2.94.33-4.2 1.07 1.22 4.16 4.03 7.79 4.32 12.23 1.56 10.16-4.37 21.05-14.07 24.75-13.05 5.7-29.69-3.7-31.72-17.74-.77-6.53 1.62-12.82 3.99-18.77-6.98-.09-13.98.78-20.94.26-5.12-5.35-9.27-11.53-13.69-17.45-8.38 5.72-19.25 5.77-28.72 3.12m245.3 14.9c-3.16 3.97-7.33 7.61-7.91 12.98 5.53-2.92 8.81-8.39 12.78-12.97 3.66-4.25 7.2-8.68 9.59-13.78-6.46 2.56-10.16 8.7-14.46 13.77m106.44-13.61c.23 1.18-.18 2.72.87 3.61.95.03 1.92-.03 2.89-.08.01-1.23.01-2.46.01-3.68-1.27 0-2.53.06-3.77.15m-694.73 3.17c7.78 15.94 16.25 31.6 26.12 46.35 17.28 24.55 36.27 48.69 61.23 65.9 1.06-.77 2.17-1.44 3.34-2.02-6.11-9.49-18.86-12.76-23.24-23.62 7.7 2.51 12.17 10.41 20.14 12.38.03-1.71-.12-3.58-1.79-4.47-3.38-2.62-6.98-4.93-10.33-7.58-11.78-9.1-22.06-19.9-32.79-30.15-8.09-7.62-14.66-16.66-20.65-25.96l1.93-1.24c-.81.19-1.62.38-2.43.59-6.13-10.26-12.58-20.36-17.58-31.24-1.32.35-2.64.7-3.95 1.06m48.13 18.36c9.65 6.84 19.39 16.8 32.29 15.22 4.4-7 4.89-16.18 1.3-23.6-4.02-.68-8.31-2.22-12.33-1.35-3.73 3.73-6.7 8.13-10.25 12.03-1.29-1.25-2.58-2.48-3.88-3.69 2.45-3.25 5.33-6.17 7.5-9.62.67-2.1-1.2-3.19-2.88-3.73-4.36 4.53-8.31 9.49-11.75 14.74m206.98-7.86c-2.04 1.2-1.18 3.75-.39 5.45 1.71-.1 4.71-.14 4.72-2.49.72-2.51-2.28-4.76-4.33-2.96m379.63 1.87c0 2.79 3.35 3.27 5.51 3.23-.52-2.58-1.25-5.19-3.5-6.78-.74 1.1-2.52 1.93-2.01 3.55m-545.58-1.52c1.53 10.16-2.06 20.08-5.59 29.44-12.7-1.06-25.2-5.07-35.61-12.51-1.45 1.15-3.03 3.45-1.31 5.1 6.19 3.73 12.59 7.31 19.5 9.52 8.45 2.33 17.28 2.64 25.92 3.93.6-3.2 1.36-6.35 2.08-9.51 13.65 2.07 27.52 2.46 41.13 4.83 2.24.25 3.75 2.03 5.02 3.72-12.13 1.03-24.11-1.95-36.18-2.51-2.75-.37-3.95 2.64-5.04 4.57 14.82 2.31 29.7 4.17 44.53 6.36-.29-11.65-.52-23.32-.17-34.98-1.12-1.15-2.24-2.28-3.36-3.42-17.09.65-34.08-1.9-50.92-4.54m72.52 5.63c-4.36-.57-8.75-.09-13.02.85 2.22 11.24.37 22.74 1.36 34.07.75 2.05 2.49 3.56 3.59 5.45 1.31-12.1-.44-24.26.81-36.36 1.94.04 3.89.08 5.83.13.1 10.22-.26 20.45.37 30.66.17 2.08 1.82 3.64 2.86 5.36 1.75-5.21 2.07-10.73 1.7-16.17l8.36.07c.05-3.24.11-6.47.19-9.69 2.9-.28 5.79-.61 8.67-1.01-.12-3.02-.2-6.04-.26-9.05 5.08-.55 10.18-1.12 15.17-2.26.48.82.96 1.65 1.48 2.49-.01-2.38-1.28-4.46-1.77-6.73-11.58 2.54-23.54 3.43-35.34 2.19m-229.02 50.8c9.13 3.48 18.67 5.99 28.43 6.78 1.96-15.88 2.28-31.91 4.27-47.79.49-3.67.17-7.48-2-10.58-9.97 17.35-20.21 34.55-30.7 51.59m395.57-38.73l2.96 1.12c4.6-1.5 7.12-5.88 10.52-8.97 1.07 1.7 3.1 3.25 3.21 5.32-3.53 3.28-9.16 4.96-10.01 10.39 7.48-.7 12.63-6.57 17.53-11.6-2.54-3.35-4.99-6.76-7.26-10.29-5.93 4.28-13.14 7.44-16.95 14.03m-122.48-6.44c.37 4.94.98 9.89.72 14.86-7.78.27-15.64-.49-23.34.87.65 3.3 3.69 4.53 6.76 4.2-.2 3.31-.37 6.63-.64 9.95-6.58-.11-13.13-.7-19.71-.78.62 1.44 1.25 2.89 1.86 4.35 15.57-.24 31.14 1.72 46.7.51 7.63-.63 15.49 1.8 22.98-.22 5.83-4.25 10.77-9.59 15.38-15.12 1.86-2.01 1.74-4.95 2.02-7.49.15-4.05.37-8.25-.88-12.15-1.96-.41-3.87-.34-3.55 2.12-.65 5.41 1.48 11.48-1.64 16.39-4.94 6.57-11.64 12.91-20.31 13.42-.6-11.08.71-22.16.37-33.25-8.64 2.83-17.8 1.93-26.72 2.34m424.41-1.47c-5.56 9.32-10.72 18.93-17.29 27.59-3.02-1.16-6.03-2.31-9.08-3.33.43 3.96 4.04 5.94 7.24 7.53-1.8.95-3.59 1.93-5.39 2.87-1.55-2.19-3.11-4.38-4.67-6.55-1.17 1.65-2.39 3.27-3.58 4.91 3.42 2.49 6.83 4.99 10.3 7.44 10.64-10.82 18.31-23.99 26.02-36.93-.6-1.74-1.85-2.92-3.55-3.53m-436.48 3.97c-.22 1.66-.72 3.49.27 5.03.93 1.47 2.88 1.47 4.34 2.06.47-3.22-.85-7.05-4.61-7.09m379.2 5.24c1.53 1.32 3.75 1.08 5.64 1.48-1.17-2.15-2.34-4.37-4.43-5.75-.58 1.3-2.09 2.72-1.21 4.27m-588.06 4.66c-1.15 1.67-2.49 3.34-2.92 5.38-1.27 18.29-2.28 36.63-4.16 54.88-8.03-1.34-16.14-2.45-24.27-2.66.19-1.27.36-2.51.54-3.74-.78 2.19-1.53 4.41-2.4 6.59 2.7 1.5 4.47 4.11 6.5 6.35 13.33 15.95 22.79 34.59 33.18 52.47 11.05-11.4 23.14-21.73 35.46-31.71 2.92-2.43 6.53-4.62 7.59-8.52-.64-.41-1.92-1.22-2.56-1.62-6.88 5.19-12.53 11.92-20.02 16.34-9.72-10.57-19.52-21.17-27.71-33.01-.93-1.09-.76-2.61-.82-3.91-.06-7.02.21-14.03.36-21.05.53-11.89 4.12-23.95 1.23-35.79m564.29 19.75c-3.69 3.44-8.17 5.88-11.92 9.25-16.34 13.74-32.6 27.7-50.64 39.2-17.58 12.13-37.23 20.7-55.91 30.91.55 1.91 1.36 3.77 1.68 5.76-1.7.62-3.45 1.07-5.17 1.63-2.95-2.23-5.97-4.35-9.14-6.23.13 7.52 7.83 10.76 11.57 16.3 9.55-2.46 18.66-6.27 27.81-9.89-.44 13.82-1.36 27.66-.95 41.49 1-.02 2.02-.02 3.04 0 1.51-11.43-.56-23.12 2.06-34.42 1.18-.27 2.4-1.72 3.62-.83 2.67 2.34.1 9.58 5.14 9.26 1.77-7.28.8-14.89 2.18-22.25 14.38-10.65 29.04-21.32 40.69-35.05 17.9-18.42 35.93-36.73 52.97-55.96 2.41-1.84-1.13-3.57-2.08-5.06-5.06 5.23-9.54 11-14.95 15.89m-556.78.25c-1.13 2.1-1.98 4.38-1.84 6.82.03 11.26-1.83 22.43-1.65 33.7 6.02-3.03 10.72-7.95 16.18-11.78 5.95 7.8 11.37 15.98 16.82 24.14-2.34 1.83-4.62 3.74-6.93 5.61-5.08-6.03-9.64-12.6-15.77-17.65-.63 1.5-1.28 3.02-1.88 4.55 5.91 6.06 11 12.84 16.13 19.56 5.02-3.72 9.81-7.74 14.95-11.29-3.22-4.51-6.36-9.09-9.8-13.44-9.74-12.74-15.65-28.07-26.21-40.22m568.56 44.59c-1.47 1.19-1.2 3.08-1.1 4.76 3.04-.33 5.24-2.49 7.32-4.51 2.05.75 4.56 3.71 6.56 1.53 11.14-11.39 22.87-22.37 32.14-35.41-3.85-2.81-7.75-5.54-11.73-8.14-8.91 15.52-21.74 28.18-33.19 41.77m-131.6-32.08c-4.45 1.13-9.42.43-13.34 3.18.36 4.31 1.09 8.59 2.14 12.8 12.16-3.05 24.45-6.03 35.95-11.13 3.17-1.4 6.42-3.94 6.21-7.78-10.37-3.02-20.76 1.31-30.96 2.93m-290.32 1.12c-.38 2.11-.82 4.2-1.24 6.31 5.55 2.92 11.68 4.47 17.83 5.59 6.53 1.14 12.94 2.91 19.49 3.97 9.47 1.7 19.08 2.59 28.54 4.42 1.59 7.91.53 15.95.71 23.94-.33 2.26 1.96 3.41 3.17 4.94.41-10.35-.11-20.7-.01-31.05-1.59-2.48-3.71-4.88-4.17-7.87 1.04-1.83 2.41-3.45 3.67-5.13-.43-1.1-.86-2.2-1.29-3.27-10.41 2.07-21.09 1.37-31.62 1.17-4.65-.14-9.33.12-13.93-.67-7.03-.99-14.02-2.65-21.15-2.35m77.56 2.75c-5.16.84-8.8 6.46-6.68 11.45 3.01 6.88 14.79 7.72 17.81.41 1.96-4.85-2.65-9.13-5.93-12.08-1.48-1.19-3.55.01-5.2.22m191.19.01c-1.41 2.79-.67 6.03-.23 8.98-1.67.49-3.33 1-4.99 1.5-.26-3.46-.68-6.9-1.04-10.34-5.03.56-10.48-.06-15.1 2.37-.64 3.16-.48 6.42-.6 9.64-4.29.16-8.7-.41-12.83 1.07-.4 5.46.06 10.93.3 16.39 1.09.18 2.18.36 3.28.58.12-3.79.45-7.56.71-11.33 11.72-2.08 23.45-4.23 35.31-5.36.29-4.73.2-9.47-.25-14.18-1.44-.04-3.89-1.35-4.56.68m-174.84-.16c-.53 1.09-1.05 2.2-1.56 3.31.81 1.25 1.68 2.5 2.38 3.85-.88 4.16-2.35 8.17-3.62 12.22 9.35-.03 18.68.53 28.03.54 6.98.21 13.99-.44 20.94.55 3.83.57 7.7.03 11.42-.97.04-1.2.09-2.39.14-3.57-6.23-.39-13.64 1.77-18.79-2.83-1.34-2.65-2.12-5.53-3.2-8.28-12.08.16-24.14-1.46-35.74-4.82m116.28 3.16c-23.41 2.71-47.12.13-70.51 3.17l.02 3.72c5.34.09 11.09-1.31 16.11 1.13 1.97 2.82 2.87 6.25 4.41 9.32 5.47.4 11.29-1.19 16.42 1.43 2.32 4.41.76 9.46 1.09 14.19 1.61-.54 3.79-.72 4.41-2.62 1.32-4.25.2-8.78.71-13.13 11.21-.37 22.51.26 33.61-1.74-.03-3.93-.03-7.84-.04-11.76 8.49.02 17-.01 25.46-.9-.93-1.81-1.85-3.61-2.76-5.41-9.14 4.31-19.32 1.3-28.93 2.6m11.75 12.3c1.31 1.24 2.58 2.54 3.97 3.73 1.51-2.22 1.72-4.92 1.82-7.51-1.97 1.19-3.91 2.44-5.79 3.78m-265.28 12.88c.45 11.93-.4 23.89.25 35.81-1.17-.13-2.33-.2-3.49-.19 2.16.58 6.83 1.46 4.25 4.53 1.3-.38 2.33-1.51 2.32-2.9.5-4.9.28-9.83.48-14.74 1.82 1.03 3.65 2.08 5.49 3.1 1.5 8.68.4 17.56 1.64 26.27 1.5-2.32 3.57-4.7 3.17-7.66-1.38-12.52 1.74-25.05.06-37.54-4.74-2.19-9.39-4.57-14.17-6.68m458.91 5.61c-3.35 4.94-7.18 9.52-11.2 13.92-1.46 1.42-.91 3.65-1.19 5.49 5.38-2.72 8.67-7.93 13.08-11.82.29 6.2-5.33 9.93-7.71 15.09 2.08-.72 4.87-.44 6.24-2.52 4.64-5.3 9.36-10.54 13.74-16.05 1.38-1.23.02-2.89-.23-4.26-3.23.33-5.13 3.01-6.82 5.46-1.94-1.82-3.94-3.55-5.91-5.31m-183.12 3.79c1 1.54 2.06 3.05 3.2 4.51 1.24-1.94 2.47-3.89 3.55-5.93-2.26.47-4.51.93-6.75 1.42m-255.41.26c-.01 6.31.09 12.63.02 18.95 9.57 5.97 20.47 9.16 30.89 13.28.3 15.81-1.59 31.57-1 47.38 1.11.51 2.22 1.04 3.33 1.58-.38-22.53 1.03-45.04 2.96-67.47-12.78-2.51-24-9.51-36.2-13.72m202.01 3.77c-.23 5.45-3.59 12.76 2.1 16.57-.01-5.43 3.83-12.94-2.1-16.57m54.32 6.21c-1.94 2.28.51 7.35 3.92 6.01 2.63-2.32-1.15-7.82-3.92-6.01m-378.07 38.75c4.54 8.09 9.29 16.05 13.87 24.12 2.57-1.09 5.05-2.52 7.81-3.03 4.92-1.17 8.34 4.63 8.6 8.85-1.78 3.68-5.79 5.3-8.88 7.66.91 1.7 1.82 3.39 2.75 5.1 5.83-2.18 9.91-10.43 17.01-7.34-3.92 5.48-10.42 8.11-16.67 9.92.43 1.55.84 3.11 1.24 4.7 6.78-1.16 13.76-3.39 18.62-8.5 3.28-3.18 4.78-7.62 6.33-11.79 3.53-11.5-3.2-23.53.89-34.97 1.36-5.8 6.77-9.93 7.67-15.74-4.46-6.75-10.76-12-17.16-16.82-14.72 11.82-28.06 25.22-42.08 37.84m211.3-33.61c-3.75.55-2.12 6.35 1.57 5.22 3.48-1.14 1.71-6-1.57-5.22m333.34.88c-6.87 12.74-17.26 23.05-25.11 35.13-2.09 2.01 1.89 6.81 3.8 3.98 9.21-11.22 20.44-20.53 30.07-31.36-2.97-2.53-5.84-5.17-8.76-7.75m-381.13.59c.16 6.95.09 13.9-.05 20.85 6.1 1.26 12.15 2.75 18.17 4.37 1.31 5.27-1.32 12.17 3.98 15.81 1.24-9.65.34-19.43.53-29.13 18.34 5.6 36.86 10.92 55.88 13.63l.1-6.56c-23.45-2.15-46.57-8.03-68.28-17.16-3.26-1.41-6.85-1.51-10.33-1.81m159.5 7.43c-1.67 1.22-.78 4.53 1.19 5.08 1.49.78 3.78-.72 3.13-2.46.05-1.95-2.58-4.16-4.32-2.62m87 8.07c2.08 2.97 4.27 5.86 6.42 8.8-11 1.87-21.98 4.24-33.16 4.62.01-1.62.03-3.23.05-4.83 2.81-.37 5.75-.17 8.47-1.06 2.14-.79 2.34-3.25 2.55-5.17-10.72 1.49-21.44 2.91-32.21 3.94.71 1.5 1.1 3.4 2.71 4.27 1.48.4 3.03.11 4.56.14-.21 3.41-.07 6.83.18 10.25 9.84-1.06 19.51-3.22 29.31-4.58 9.42-1.59 19.14-2.35 27.99-6.22-4.08-4.51-8.64-8.57-13.11-12.69-1.27.82-2.52 1.67-3.76 2.53m-10.73 5.48c.98 2.47 4.16 1.35 5.7.05-.77-1.72-1.61-3.42-3.07-4.64-1.44.99-3.71 2.47-2.63 4.59m-299.11 2.53c2.22.08 4.31-.81 4.91-3.14-.42-.54-1.27-1.63-1.69-2.18-1.08 1.76-2.16 3.53-3.22 5.32m91.71 3.62c13.87 5.04 29.07 6.6 41.9 14.32 7.28 4.37 12.71 11.06 18.12 17.47 4.14 4.66 5.89 10.85 9.78 15.7 6.47-6.84 13.66-12.92 20.45-19.42 8.31 1.8 17.48 1.81 24.68 6.89 6.59 4.92 6.97 15.42 1.71 21.45-4.61 5.55-12.22 7.99-15.85 14.44-1.9 4.01-2.8 8.59-2.23 13.02.31 2.92 3.16 6.83 6.32 4.35-1.83-4.57-3-9.83-1.15-14.58 1.29-3.46 4.69-5.26 7.63-7.11 6.02-3.86 11.41-9.45 13.01-16.63 2.18-6.41-1.48-13.14-6.43-17.13-6.69-5.66-15.7-6.66-23.81-9.08-4.61-1.51-10.25-5.3-8.95-10.92 1.2-5.06 5.53-8.5 8.07-12.86-12.25-.65-24.11-4.25-36.35-5.13-.22 4.05-.38 8.12-1 12.15-18.35-3.52-36.34-8.71-54.03-14.69-.79 2.54-1.44 5.12-1.87 7.76m153.71-3.69c1.04 15.48 1.27 31.02.57 46.52-.04 1.48.31 2.96.55 4.43 1.59.21 3.47.13 3.91-1.77 3.9-7.47 7.14-15.5 13.17-21.59-1.87-6.32 2.09-15.13-4.84-19.17.11 3.81.48 7.63.3 11.45-2.75.5-5.51 1.01-8.26 1.5-.07-5.89.12-11.78 0-17.66-1.82-1.22-3.62-2.45-5.4-3.71m-10.06 2.64c1.32 19.45.03 39.01 1.87 58.43-5.18 3.55-10.27 7.23-15.54 10.64 1.03 1.43 2.12 2.84 3.17 4.29 4.27-2.91 8.55-5.81 12.8-8.74.28 1.86.54 3.74.8 5.63-5.84 3.27-11.48 6.86-16.89 10.79.83 1.09 1.66 2.2 2.5 3.32 5.55-2.75 10.8-6.06 15.76-9.77 1.66 7.13 4.56 13.9 7.95 20.37-2.22.13-4.49.11-6.64.71-2.25.42-1.02 3.06.51 3.55 3.69 1.59 7.87.73 11.77 1.31.23-.88.68-2.63.91-3.5-8.32-10.89-11.81-24.58-13.05-38.01-1.05-13.68-.92-27.41-1.5-41.1-.08-5.84.84-11.83-1.07-17.49l-3.35-.43m-223.89 15.51c1.73-1.45 4.45-2.84 3.53-5.58-.35-2.01-.7-5.79-3.44-5.61-2.8 3.06-.48 7.57-.09 11.19m403.77-.12c-3.73 4.92-7.1 10.13-11.29 14.68 1.42.64 2.85 1.32 4.28 1.98 2.67-4.8 5.97-9.21 8.83-13.9-.61-.93-1.22-1.85-1.82-2.76m-330.6 10.15c2.73-1.3 2.88-5.44-.41-5.89-3.44.47-2.41 5.2.41 5.89m-76.01-6.01c.72 2.52 1.57 5 2.41 7.49.96-1.67 1.86-3.36 2.79-5.03-1.74-.82-3.48-1.64-5.2-2.46m-38.4 13.56c2.58 5.28 6.27 9.9 9.36 14.88 3.65 5.77 6.11 13 12.58 16.28-2.46-10.14-10.26-17.66-14.24-27.1.72-1.45 1.44-2.87 2.16-4.29 6.95 8.66 11.82 18.7 17.38 28.25-5.03 11.33-11.01 22.23-15.71 33.7.71 1.36 1.63 2.6 2.48 3.9 1.43-2.95 2.9-5.88 4.3-8.83 5.22 4.04 10.84 7.53 16.66 10.62-3.4 6.11-4.03 13.36-7.68 19.36-2.15 3.29-5.65 6.32-9.84 6.01-6.37.42-13.36-1.65-17.25-7-1.51-2.58-1.95-5.68-3.69-8.12-1.13-1.49-3.05-1.91-4.61-2.75 2.06 5.2 2.16 11.64 6.89 15.46 6.54 5.09 15.24 9.2 23.65 6.94 6.41-1.55 9.85-7.89 11.8-13.67 1.84-4.49 2.72-10.05 7.21-12.76 5.76-3.52 12.99-2.26 19-.05-4.94-12.43-12.33-23.64-18.23-35.6-4.29-8.5-8.61-17.01-13.95-24.91-4.51-7.14-8.26-15.02-14.88-20.53-4.64 3.16-9.43 6.17-13.39 10.21m426.62 5.31c2.08 1.42 4.43 3 7.01 1.71-.64-1.59-1.28-3.16-1.95-4.71-1.71.96-3.41 1.95-5.06 3m-35.53-.61c.05 5.17-2.44 11.67 2.46 15.45.9-5.16 2.7-11.89-2.46-15.45m-198.07 15.79c.71 3.12 1.34 6.26 1.84 9.44 1.34 7.35-4.42 13.21-6.94 19.63 1.23.68 2.47 1.28 3.73 1.96 3.18-4.94 5.72-10.26 7.82-15.73.5-1.62 1.51-2.97 2.72-4.11 5.68-5.88 12.87-10.08 18.33-16.19-1.4-.59-2.79-1.15-4.19-1.7-6.29 4.15-10.92 10.5-17.81 13.79.13-2.14-.08-4.49 1.35-6.26 4.04-5.48 12.3-7.33 13.83-14.69-8.6 1.71-13.33 9.88-20.68 13.86m230.63-9.37c-1.22 1.06-1.67 2.78-.52 4.13 1.18 2.1 4.91 1.14 4.69-1.35.36-2.07-2.38-4.21-4.17-2.78m-10.67 9.3c3.79 1.67 7.61 3.27 11.53 4.62.39-1.3.66-2.63 1-3.91-3.02-1.01-5.89-2.57-9.08-2.95-1.77-.49-2.7.9-3.45 2.24m-331.8-.84c-.66 6.77-1.46 13.63-.45 20.4.37.94-.14 2.71 1.3 2.91 2.79-.87 1.35-3.95 1.64-6.06-.01-5.79 1.74-12.43-2.49-17.25m309.21 4.17c-.68 1.72-.61 3.96 1.1 5.08 1.96 2.1 5.4-.87 3.75-3.17-.53-2.13-2.99-3.18-4.85-1.91m20.57.75c-.07 5.9 7.14 5.68 11.24 6.91.39-6.13-6.99-6.03-11.24-6.91m-415.48 6.28c1.66 1.54 3.71-.3 5.3-1.02-.76-2.03-2.3-3.45-4.3-4.18-.83 1.52-2.86 3.6-1 5.2m412.54 4.7c-5.12 3.47.03 12.47 5.62 10.3 2.96-2.24 3.53-6.34 4.53-9.68-3.19-1-7.22-3.49-10.15-.62m-63.56 15.13c3.83.22 4.13-5.04.96-6.34-3.06.6-4.04 5.07-.96 6.34m-263.62.97c-.41 1.98-.71 3.99-.96 6.02 1.88-.16 4.42-.06 4.81-2.47.37-2.29-2.12-3.1-3.85-3.55m324.4.68c-3.09 5.83-6.34 11.71-8.21 18.06 1.97.19 4.1-.2 4.56-2.43 1.72-4.98 6.88-10.25 3.65-15.63m-143.22 3.45c-.64 2.42 1.71 3.95 3.59 4.77 1.39-2.03 1.89-4.47 2.29-6.84-2.07-.23-5.22-.54-5.88 2.07m-77.86 2.78c-8.48 8.3-12.43 20-14.89 31.34-.77 17.54-1.26 35.75 5.05 52.44 1.34.51 2.32-1.5 3.49-1.98-.89-5.25-2.48-10.34-3.32-15.58 2.11-.9 4.33-1.52 6.51-2.24 2.76 11.81 4.21 23.9 7.31 35.64-2.04.26-4.08.5-6.11.75-.43-3.65-.94-7.46-3.51-10.28-.95 1.07-1.89 2.15-2.83 3.26 1.9 11.42 4.34 22.77 7.37 33.95.76 2.1.98 4.99 3.36 5.97 2.12-.96 3.73-2.71 5.53-4.13 7.01-6.19 13.66-12.81 21.11-18.48-6.9-6.42-10.25-15.48-12.78-24.33-3.37-12.05-3.19-25.47 2.68-36.73-8.15-11.38-16.17-22.86-23.55-34.76 2.75-4.03 5.78-7.88 8.31-12.05.48-1.17 1.79-3.34.27-4.12-1.46-1.38-2.96.41-4 1.33m-103.62 6.01c-.11.9-.27 1.85-.23 2.8.71 1.33 2.46.67 3.67.98.04-1.27.06-2.52.06-3.76-1.17-.02-2.34-.03-3.5-.02m121.79 3.88c-4.29 3.72-8.63 7.4-12.86 11.2 6.04 8.02 12.97 15.53 17.41 24.64.78 1.76 2.11 3.65 1.09 5.64-3.18 8.92-5.65 18.56-3.58 28.04 1.84 11.02 6.29 22.96 16.58 28.72-1.26-6.93-7.23-11.46-9.56-17.89-6.95-16.22-1.85-36.9 12.31-47.58 8.57-6.67 19.35-9.61 29.93-11.11.35-6.48-.29-13.03 1.09-19.41-14.27-4.17-29.49 1.64-40.38 11-3.49-4.67-6.83-9.44-9.67-14.53-.99-.08-1.64.73-2.36 1.28m59.99 23.56c3.45 4.12 8.96 5.47 13.09 8.75 8.75 5.34 11.24 16.43 19.5 22.33.19-16.73-1.49-33.88-8.34-49.33-8.35-.62-16.55-2.49-24.72-4.26.15 7.49-.42 15.06.47 22.51m-217.96-17.38c-4.72 3.17-2.94 11.37 2.57 12.59 6.27 2.45 10.74-6.26 7.71-11.21-3.09-1.57-7.02-3.83-10.28-1.38m348.48 1.55c.26 1.79-.03 4.09 1.59 5.36 1.49 1.43 4.06-.88 2.96-2.52-.86-1.78-2.92-2.15-4.55-2.84m-47.88 2.2c-.61 1.39-1.14 2.81-1.58 4.28 1.14.27 2.49 1.99 3.68.89 1.54-1.22.87-3.42.83-5.08-.99-.06-1.96-.09-2.93-.09m124.57 3.94c-.53 1.52-1.53 3.4-.12 4.81 1.16 2.05 5.86 1.78 4.95-1.24-.41-2.32-3.07-2.72-4.83-3.57m-125.71 18.6c-.22 5.3-.6 10.61-.75 15.93 1.44-.85 3.66-1.14 4.14-3.05.67-5.06 1.3-10.25.2-15.3-1.16.7-3.4.74-3.59 2.42m-281.04 20.36c-3.78 1.47-.46 6.97 2.62 4.68 3.13-1.63.14-6.16-2.62-4.68m275.86 1.97c-.43.92-.83 1.85-1.22 2.81 5.1 2.13 10.84 1.2 15.9-.58-3.8-4.36-9.77-1.86-14.68-2.23m-45.38 11.14c3.56-1.39 1.62-5.39.79-7.94-2.67 1.63-4.79 6.8-.79 7.94m44.46-1.54c-.24.63-.72 1.89-.97 2.52 4.4 1.95 9.32.81 13.96.9.35-1.3.7-2.57 1.07-3.83-4.69.08-9.41-.29-14.06.41m-62.24 32.15c-13.75 11.14-34.31 11.47-49.14 2.25-11.77 11.38-24.93 21.21-36.46 32.84.11 1.44.24 2.89.38 4.35 4.99-.15 7.23-5.29 11.12-7.37 16.41-.59 32.82-1.49 49.21-2.58.16 4.46-.22 9.03.88 13.41 1.32 2.31 4.21.74 6.25.61-1.28-9.29-2.38-18.66-1.92-28.05 5.94-2.25 11.74-4.88 17.43-7.71 7.48-4 12.34-11.21 17.69-17.52-.67-1.7-1.32-3.46-1.93-5.14-4.77 4.73-8.06 10.84-13.51 14.91m-14.35 20.67c1.06 7.73 1.92 15.51 1.8 23.33-.14 2.88 1.6 5.35 3.06 7.69 2.44-3.27 3.04-7.79 4.59-11.59 2.85-10.1 8.06-19.39 10.33-29.66-6.56 3.47-13.1 7.01-19.78 10.23m94.42 23.17c.03 20.63.79 41.25 1.44 61.87 1.26.66 2.53 1.33 3.8 2.03 1.26-13.35.55-26.76.13-40.12 6.39.05 12.79.14 19.18-.27-.21 5.17-.75 10.57 1.17 15.52 1 1.28 2.78 1.04 4.22 1.38.18-14.1-1.49-28.22-.11-42.31.55-4.62.18-9.37-1.96-13.56-8.43 6.55-18.02 11.42-27.87 15.46m-166.58 4.1c1.33 1.59 2.67 3.21 4 4.84 3.59-.79 1.04-4.59.03-6.54-1.36.52-2.71 1.09-4.03 1.7m180.23 29.91c-.81 2.97 1.81 5.23 3.77 7.02.82-2.97 1.04-6.28-1.24-8.64l-2.53 1.62zm-291.15-1267.44c7.9.04 15.81-.04 23.71-.01-1.66 11.81-12.67 20.41-24.17 21.52.04-7.17.11-14.35.46-21.51zm349.74 27.6l6.21-.03c.41 8.78.24 17.58.15 26.37-2.17-1.17-4.32-2.38-6.44-3.62.11-7.57.15-15.15.08-22.72zm76.08 2.5c6.04-2.22 13.36.58 16.23 6.37 3.76 6.51.08 16.36-7.52 17.89-6.99 1.85-16.03-2.13-17.19-9.8-1.58-6.11 2.79-12.42 8.48-14.46zm-511.35 25.38c1.2.48 2.39.97 3.58 1.46-.94 4.19-1.64 8.43-2.48 12.64-1.24-1.11-3.01-2.12-2.91-4.04-.01-3.43 1.24-6.7 1.81-10.06zm-33.03 19.85c2.16.47 4.3 1.02 6.43 1.62l-.69 7.58c-2.64-.82-5.28-1.63-7.9-2.49.67-2.26 1.4-4.49 2.16-6.71zm627.12 109.43c.89-.9 1.8-1.77 2.76-2.61.66.77 1.31 1.56 1.94 2.37-.52.89-1.18 1.64-1.98 2.27-1.2-.21-1.86-1.31-2.72-2.03zm-383.8 1.77c.76-2.3 3.62-2.68 5.7-2.93 2.15.07 2.88 2.25 3.75 3.83-1.14 1.44-1.72 3.82-3.85 4.1-2.78.57-6.49-1.89-5.6-5zm528 11.24c1.16-.05 2.33-.05 3.52.01.54 1.04.55 2.24.75 3.39-1.42.32-2.83.58-4.27.51-.04-1.31-.04-2.61 0-3.91zm-297.08 2.26c3.79-1.21 7.85-.79 11.77-.87-3.52 4.38-9.42 4.4-14.41 5.73.35-1.85.61-4.08 2.64-4.86zm-529.76 7.11c8.17-2.2 17.63 3.88 18.67 12.35.56 7.44-4.92 14.78-12.29 16.23-7.89 2.1-16.6-4.34-17.38-12.37-.81-7.09 3.74-14.77 11-16.21zm818.71 13.58c4.08-.08 8.17-.16 12.26.05.81 3.17.54 6.43.35 9.66-4.13.66-8.32.87-12.49.95-.06-3.55-.09-7.11-.12-10.66zm-745.78 39.9c1.74.24 3.56.22 5.22.88.14 7.01-.03 14.03-.41 21.04-1.65-.79-3.29-1.61-4.91-2.43.15-6.5.23-13 .1-19.49zm442.88 11.37c3.58-2.17 6.49 4.12 2.64 5.46-3.33 1.03-5.31-3.53-2.64-5.46zm315.75 28.92c2.83-.51 5.65-1.07 8.51-1.46.01 8.37.15 16.76-.4 25.12-2.26.79-4.57 1.43-6.9 1.94-1.78-8.42-.87-17.07-1.21-25.6zm-663.13 10.48c1.03-.12 2.09-.29 3.15-.23 1.63.72.7 2.63.61 3.93-1.28-.01-2.54-.04-3.8-.07-.02-1.21-.01-2.43.04-3.63zm42.69 15.79c18.5-4.02 37.94 12.51 37.17 31.36.59 15.05-12.13 28.49-26.68 30.65-6.86.85-14.05-.33-20.11-3.69-10.37-5.96-16.86-18.1-15.83-30.05 1.09-13.67 12.05-25.59 25.45-28.27zm433.5 36.68c1.28.02 2.57.07 3.87.15.11 1.37-.07 2.73-.28 4.09-1.21-.17-2.48-.11-3.57-.69-.11-1.18-.11-2.37-.02-3.55zm-431.41 45.58c4.35.97 8.71 1.91 13.13 2.52-.09 4.22-.07 8.45-.12 12.68-4.28-5.12-8.53-10.27-13.01-15.2zm383.85 3.11c2.17.26 4.36.59 6.52 1.05-.87 2.6-1 6.34-4.06 7.38l-2.95-.32c.09-2.71.26-5.42.49-8.11zm-722.01 24.99c2.88-8.12 11.22-12 17.81-16.64 2.16 4.01 4.75 7.79 6.94 11.78.09 9.3-.87 18.6-.53 27.91 1.13-.75 2.22-1.54 3.27-2.39 1.18-7.39-.1-14.95 1.11-22.34 5.3 4.28 4.61 11.5 4.63 17.58 3.23-1.35 4.49-4.75 4.08-8.05 7.01 7.76 15.8 13.78 25.34 18 1.28.44 2.21 1.44 3.15 2.37-15.9 5.86-34.36 6.6-49.88-.84-6.15-3.09-12.22-7.22-15.76-13.27-2.63-4.35-.93-9.51-.16-14.11m11.8-4.56c-3.18 1.59-5.36 5.96-3 9.12 1.29 2.76 4.78 3.45 7.53 2.95 4.72-.36 5.96-7.26 2.74-10.08-1.88-1.74-4.8-2.72-7.27-1.99m20.12 23.9c-2.75 2.53 1.9 6.74 4.57 4.63 2.34-2.67-2.09-7.31-4.57-4.63zm-18.08-20.77c3.36-1.29 5.02 4.43 2.16 5.82-1.36.52-3.34.78-4.18-.72-.87-1.92-.19-4.53 2.02-5.1zm621.14 18.11c3.87-1.11 8.25-3.96 11.91-.67-4.11 1.81-8.34 3.31-12.51 4.94.18-1.43.39-2.85.6-4.27zm-513.16.62c3.58-.92 4.79 5.61 1.51 6.44-3.32.3-4.7-5.21-1.51-6.44zm634.71 13.53c.4-4.19 3.61-8.32 7.92-9.04 3.98-1.39 6.72 2.77 9.6 4.78.05 3.97.32 8.88-3.33 11.48-2.75 3.17-7.25 1.44-10.32-.24-3.04-.88-3.11-4.45-3.87-6.98zm122.38-2.72c1.81-1.3 3.73-2.43 5.73-3.41.55 1.81 1.17 3.61 1.74 5.43-2.52-.57-5.01-1.26-7.47-2.02zm-172.61 10.26c4.41-1.45 8.88-2.75 13.3-4.18 1.27 1.76 2.58 3.49 3.84 5.27-4.96 2.56-10.25 4.39-15.49 6.28-.61-2.44-1.2-4.9-1.65-7.37zm-141.8 6.45c1.44 3.96 2.82 7.94 4.23 11.92-1.89 1.84-3.73 3.73-5.69 5.49-1.53-5.8-.65-11.89 1.46-17.41zm317.3 6.35c3.85-.83 5.85 3.35 5.32 6.61-3.85.79-6.01-3.34-5.32-6.61zm-548.7 19.85c3.8-2.35 7.48-4.89 11.38-7.06 1.09 1.45 2.03 3 2.99 4.53-4.24 2.5-8.5 4.98-12.77 7.44-.57-1.63-1.08-3.28-1.6-4.91zm459.7-2.63c3.56-.93 7.19.37 10.71.97-4.11 1.04-8.53 4.88-12.71 2.08-1.07-1.58.9-2.37 2-3.05zm-19.5 13.31c1.26-2.7 5.07-5.43 7.85-3.5.03 3.48-5.16 5.83-7.85 3.5zm-516.09 8.68c7.94-1.35 16-1.88 23.93-3.33-1.47 4.66-3.01 9.29-4.67 13.88-5.85-4.48-12.59-7.54-19.26-10.55zm69.03 34.37c1.05-.18 2.11-.33 3.17-.43-.21 1.57-1.04 2.83-2.34 3.71-.2-.82-.62-2.46-.83-3.28zm285.65 27c10.18-4.74 23.01 6.58 19.19 17.24-1.76 7.13-9.69 11.33-16.68 9.97-6.35-.77-11.53-6.71-11.62-13.06-.05-5.93 3.49-11.95 9.11-14.15zm3.01 39.59c1.54-.07 4.29-.65 4.08 1.77.5 2.41-2.89 3.23-4.14 1.51-.04-1.1-.02-2.2.06-3.28zm-636.66 26.92c10.18-4.49 20.95-7.58 30.79-12.83 3.02 7.65 4.04 15.95 7.35 23.5 5.21 11.54 9.59 23.46 15.2 34.83-2.11 2.05-4.21 4.11-6.28 6.2-4.58-4.08-8.84-8.49-12.99-13.01-1.29-1.78-3.59-1.74-5.56-1.9-.95 8.64-.97 17.53 1.36 25.97-6.12-1.6-12.41-2.73-18.23-5.29-3.09-7.16-4.06-14.94-5.54-22.52 2.15-.92 4.3-1.81 6.47-2.67 1.65 7.59 2.24 15.49 5.31 22.71 1.13-1.58 3.21-3.23 2.46-5.39-3.82-14.48-3.65-29.77-8.49-44.02-3.37-.28-6.74-.02-10.12-.08-.59-1.84-1.2-3.66-1.73-5.5zm2.15 10.94c2.09.09 4.18.21 6.27.35 1.95 5.81 3.08 11.85 3.84 17.92-2.18-.27-4.36-.52-6.55-.74-1.01-5.88-2.27-11.71-3.56-17.53zm901.55 52c1.17-1.48 2.76-.45 4.05.28.32 1.18-.31 2.36-.56 3.51-2.59 8.37-2.95 17.79-8.61 24.92-1.39-9.95 3.42-19.14 5.12-28.71zm-28.73 8.95c4.07-2.81 7.87-6 12.08-8.6-1.8 5.42-4.71 10.72-9.61 13.92-.85-1.77-1.69-3.53-2.47-5.32zm-615.2.56c1.73-1.76 3.49-3.48 5.31-5.13 1.14 2.53 2.75 5.46.74 8.01-2.06-.9-4.09-1.81-6.05-2.88zm84.92 6.81c3.54-.95 4.82 5.11 1.44 5.92-3.59 1.02-5.32-5.25-1.44-5.92zm50.97 10.81c1.07-.93 3.41-1.82 4.33-.24 2.08 1.82.15 6.34-2.75 5.61-2.56-.24-3.37-3.69-1.58-5.37zm56.03 51.1c3.99.55 8.01.8 12.03 1.05.38 2.85.64 6.1-1.41 8.44-2.31 3.28-7.83 3.71-10.3.41-1.92-3-.79-6.66-.32-9.9zm-253.24 7.72c1.09-.61 1.95-2.14 3.29-2 3.62 3.42 6.04 7.85 8.67 12.03-1.27 1.36-2.6 2.67-3.9 4.01-2.96-4.52-5.58-9.25-8.06-14.04zm-83.42 7.15c.81.03 2.43.07 3.24.09.01 1.09 0 2.18-.01 3.28l-3.48.12c.09-1.17.17-2.33.25-3.49zm698.71 17.55c3.16.81 6.23 1.91 9.31 3-.51 1.77-1.17 3.52-1.66 5.32-4.46.44-8.82 1.46-13.09 2.8 1.82-3.71 3.65-7.41 5.44-11.12zm-115.27 16.7c2.81-1.31 5.6-2.63 8.45-3.86-.07 6.79-.55 13.58-.27 20.38-2.71 3.35-5.45 6.69-8.25 9.97-1.42-8.79-.29-17.67.07-26.49zm-447.17 5.93c2.34.83 4.77 2.27 5.38 4.88.79 3.89 0 7.89-.83 11.72-3.96-1.3-7.86-2.78-11.72-4.35 2.23-4.18 4.72-8.21 7.17-12.25zm-112.65 17.39c-.82 9.34-1.68 18.67-2.13 28.04-4.06-1.21-8.13-2.37-12.22-3.47 4.88-8.13 8.67-16.93 14.35-24.57zm501.52-.38c2.86.06 5.71.19 8.57.4-.46 1.6-.3 3.74-1.94 4.72-2.16 1.58-5.03 1.06-7.52 1.34.23-2.18.52-4.33.89-6.46zm-266.87 12.92c1.81-.25 3.63-.48 5.45-.76-.04 3.08.42 6.19-.06 9.26-.36 2.14-2.88 2.51-4.64 2-.69-3.46-.56-7.01-.75-10.5zm-310.05 7.93c.73-.12 2.21-.35 2.94-.46 1.95 2.82 3.75 5.74 5.43 8.74-1.6.58-3.21 1.14-4.82 1.73-1.46-3.23-3.59-6.33-3.55-10.01zm57.29 9.81c5.19 1.54 10.45 2.84 15.68 4.28-.46 1.72-.91 3.46-1.4 5.2-5.25-1.71-10.58-3.1-15.86-4.64.5-1.63 1.03-3.24 1.58-4.84zm273.26 16.17c1.79-2.68 5.53.54 6.39 2.7 1.95 2.8-.71 6.94-4.12 5.79-3.91-.58-4.06-5.81-2.27-8.49zm312.83 70.52c3.54-5.86 7.42-11.67 12.79-16.01-1.12 7.26-7.85 11.37-12.79 16.01zm-498.01 36.25c3.08-1.63 6.52-2.43 9.75-3.7-.68 2.84-1.47 5.66-2.29 8.48-2.8-.48-5.58-1.08-8.38-1.57l.92-3.21zm619.95 36.25c1.6.34 3.95-.15 4.82 1.67.61 7.04-.12 14.11-.51 21.16-1.6-.15-3.2-.3-4.78-.39.49-7.47.33-14.96.47-22.44zm-175.97 3.96c1.12-.13 2.25-.21 3.39-.27-.04 1.13-.08 2.27-.14 3.42l-3.26.17c-.04-1.12-.04-2.23.01-3.32zm-445.37 37.18c2.9-.46 5.78-1.02 8.7-1.33 1.97 12.64 4.8 25.31 4.07 38.19-4.74-12.12-7.67-24.87-12.77-36.86zm231.74 2.98c1.32-.74 2.64-1.47 3.97-2.17 4.88 8.19 10.86 15.65 15.86 23.76-1.02 2.97-4.36 1.85-5.52-.37-4.93-6.96-10-13.86-14.31-21.22zm-148.59-.36c3.33-2.63 6.02 4.44 2.7 5.98-3.44 1.95-6.16-4.34-2.7-5.98zm135.04 85.99c3 .02 6 .08 9 .32-2.23 2.02-4.82 3.59-7.57 4.79-.46-1.73-.94-3.42-1.43-5.11zm-96.79 8.17c1.06-2.88 3.88-4.41 6.47-5.67 1.63 2.32 3.29 4.63 4.95 6.95-.65 2.04-1.3 4.08-1.97 6.13-2.62.46-5.65 1.05-7.97-.63-2.08-1.56-2.15-4.52-1.48-6.78zm181.64 16.79c2.06-1.43 4.17-2.79 6.34-4.05-1.72 5.19-3.55 10.36-6.04 15.24-.34-3.73-.51-7.47-.3-11.19z" fill="#fff"/><path fill="#c7c6c6" opacity=".24" d="M70.96 846.89c1.8-2.11 3.76-4.07 5.91-5.8-1.96 1.93-3.9 3.9-5.91 5.8z"/></svg>