<svg width="700pt" height="700pt" viewBox="0 0 700 700" xmlns="http://www.w3.org/2000/svg"><g><path d="M243.46 83.57c11.14-3.53 24.09 2.81 28.25 13.68 3.56 8.47 1.41 18.9-5.18 25.3-6.4 6.55-16.81 8.68-25.26 5.12-8.97-3.51-15.15-12.99-14.6-22.63.26-9.79 7.4-18.82 16.79-21.47m3.83 14.81c-3.5 1.21-5.86 5.01-5.29 8.69.45 4.29 4.79 7.67 9.08 6.99 4.65-.49 8.09-5.52 6.8-10.03-1.01-4.51-6.28-7.34-10.59-5.65zM296.32 112.51c7.37-2.12 15.72-.33 21.51 4.71 6.25 5.23 9.37 13.87 7.87 21.88-1.55 9.33-9.31 17.22-18.63 18.86-8.37 1.72-17.46-1.72-22.7-8.44-4.76-5.9-6.32-14.19-4.02-21.41 2.25-7.45 8.48-13.51 15.97-15.6m3.85 14.79c-5.66 1.6-7.52 9.68-3.08 13.57 4.12 4.34 12.25 1.97 13.46-3.87 1.79-5.87-4.63-11.9-10.38-9.7zM243.35 141.59c11.15-3.6 24.18 2.73 28.36 13.64 3.57 8.49 1.4 18.93-5.2 25.32-6.57 6.72-17.36 8.75-25.91 4.83-8.94-3.82-14.84-13.65-13.86-23.35.66-9.38 7.6-17.84 16.61-20.44m3.97 14.77c-3.16 1.09-5.45 4.29-5.39 7.64-.12 4.31 3.73 8.18 8.03 8.12 4.75.17 8.87-4.49 8.1-9.19-.5-4.92-6.11-8.4-10.74-6.57zM218.16 215.91c.67-9.95 9.84-18.32 19.82-18.1 25.66-.02 51.32-.03 76.97 0 7.83-.04 15.32 5.09 18.21 12.34 4.43 9.97-1.18 22.36-11.22 26.24-.05 42.1-.04 84.2-.01 126.31 34.82 12.63 63.58 40.77 76.83 75.38 14.49 36.72 11.2 79.93-8.95 113.91-17.24 29.71-46.54 52.16-79.8 60.85-34.4 9.27-72.5 3.68-102.69-15.27-27.84-17.17-48.89-45.05-57.53-76.61-7.91-28.39-5.9-59.42 5.65-86.53 13.8-32.97 41.79-59.55 75.38-71.74.02-42.1.01-84.19 0-126.29-8.01-3.25-13.67-11.76-12.66-20.49m18.13-2.53c-4.75 1.53-3.25 9.38 1.77 8.95 25.31.09 50.62.02 75.93.04 2.25.22 4.64-1.09 5.22-3.36.91-2.73-1.34-5.94-4.24-5.89-24.31-.15-48.63.01-72.94-.08-1.92.05-3.88-.16-5.74.34m9.82 24.28c0 43.11-.01 86.21.01 129.31.31 3.43-1.53 7.12-4.93 8.23-4.8 1.73-9.64 3.4-14.24 5.64-27.77 12.84-49.81 37.22-59.98 66.06 26.63-6.74 54.24-8.3 81.59-9.51 27.81-.92 55.67-.55 83.42 1.54 18.06 1.49 36.2 3.35 53.76 7.97-11.61-33.16-39.14-60.23-72.59-71.06-3.6-.83-6.74-3.96-6.5-7.84-.07-43.45.01-86.9-.04-130.34-20.17 0-40.33-.01-60.5 0m-47.04 218.77c-10.69 1.45-21.46 3.02-31.75 6.36 8.2 2.69 16.73 4.15 25.24 5.46 21.04 3.07 42.29 4.33 63.52 4.89 26.34.59 52.72.16 78.98-2.03 16.91-1.63 34.02-3.25 50.31-8.33-11.97-3.83-24.49-5.46-36.91-6.98-26.38-2.97-52.95-3.76-79.48-3.57-23.35.24-46.73 1.28-69.91 4.2m-21.57 90.19c16.84 27.59 45.65 47.56 77.48 53.36 34.53 6.7 71.78-3.56 98.01-27 27.25-23.64 42.17-60.48 39.1-96.43-14.55 5.15-29.98 6.98-45.23 8.75-42.5 4.21-85.39 4.34-127.96 1.2-19.6-1.82-39.52-3.51-58.25-9.94-1.93 24.35 3.94 49.29 16.85 70.06zM426.99 235.95c.21-10.95 10.09-20.54 21.05-20.37 28.3-.05 56.61 0 84.91-.03 6.64-.22 13.29 2.8 17.39 8.05 5.39 6.54 6.2 16.39 1.92 23.72-2.45 4.5-6.68 7.74-11.35 9.7-.04 103.34 0 206.67-.02 310.01.14 14.04-6.02 27.97-16.48 37.33-10.28 9.38-24.61 14.11-38.46 12.62-14.26-1.36-27.67-9.3-35.83-21.05-5.91-8.38-9.1-18.61-9.03-28.86-.02-103.35.03-206.7-.02-310.05-8.49-3.19-14.69-11.89-14.08-21.07m19.19-4.76c-3.17 1.1-4.89 5.08-3.43 8.13 1 2.4 3.6 3.78 6.15 3.6 28.04.01 56.09.01 84.13 0 3.39.36 6.72-2.43 6.7-5.88.2-3.56-3.17-6.61-6.69-6.21-27.32-.02-54.65.04-81.98-.03-1.63.05-3.3-.09-4.88.39m10.18 27.02c-.01 20.86.01 41.72-.01 62.58 11.21-3.26 22.95-4.14 34.58-4.22 11.66.07 23.45.96 34.7 4.22-.02-20.86 0-41.72 0-62.58-23.09-.01-46.18-.01-69.27 0m5.1 77.03c9.61 2.64 19.64 3.34 29.58 3.4 9.9-.06 19.89-.77 29.48-3.39-9.6-2.65-19.61-3.35-29.53-3.39-9.92.04-19.93.74-29.53 3.38m-5.08 232.8c.05 13.97 9.6 27.2 22.75 31.83 12.15 4.61 26.72 1.48 35.95-7.67 6.48-6.25 10.38-15.1 10.52-24.11.07-10.05-.01-20.1.03-30.14l-32.74-.08c-4.08.02-7.63-3.79-7.37-7.85.04-3.91 3.5-7.42 7.44-7.34 10.88-.11 21.77 0 32.66-.04 0-2.51 0-5.01.01-7.5-4.69-.32-9.59.69-14.14-.71-5.85-2.33-5.82-11.58.02-13.9 4.55-1.38 9.43-.38 14.12-.68-.01-2.5-.01-4.99-.01-7.49-10.89-.05-21.78.08-32.67-.04-3.92.06-7.37-3.43-7.43-7.32-.26-4.08 3.29-7.96 7.42-7.88 10.89-.14 21.79.04 32.69-.08l-.02-7.48c-4.77-.37-9.82.88-14.38-.82-5.72-2.54-5.4-11.73.49-13.86 4.49-1.23 9.27-.32 13.87-.58.02-2.47.03-4.95.1-7.42-10.89-.26-21.79.03-32.68-.13-4.09.07-7.68-3.67-7.49-7.74-.03-4 3.53-7.6 7.56-7.46 10.84-.1 21.69 0 32.54-.04 0-2.5 0-5 .01-7.5-4.66-.31-9.52.68-14.05-.66-5.86-2.27-5.98-11.49-.17-13.9 4.56-1.46 9.51-.4 14.23-.74-.02-2.5-.03-5-.04-7.5-10.86-.02-21.73.07-32.59-.03-3.89.08-7.37-3.33-7.48-7.19-.34-4.13 3.24-8.1 7.41-8.01 10.89-.13 21.79.01 32.69-.06-.02-12.07.01-24.15-.02-36.22-11.24 3.27-23.01 4.14-34.66 4.22-11.62-.09-23.37-.95-34.57-4.22-.03 72.78-.04 145.56 0 218.34zM285.22 253.16c3.4-1.6 7.82-.19 9.66 3.09 1.29 2 1.03 4.49 1.1 6.76-.12 14.32.11 28.64-.1 42.95-.19 4.93-5.93 8.39-10.41 6.39-2.93-1.14-4.93-4.2-4.77-7.35-.05-14.65.01-29.31-.02-43.96-.27-3.25 1.48-6.6 4.54-7.88zM285.33 324.46c4.51-2.16 10.42 1.4 10.55 6.41.23 5.36-.02 10.73.1 16.1-.09 2.89.4 6.17-1.53 8.61-2.47 3.53-8.01 4.11-11.17 1.18-2.02-1.64-2.72-4.31-2.6-6.82.05-6.3-.1-12.61.06-18.9.04-2.86 1.99-5.48 4.59-6.58zM226.38 394.5c4.1-1.59 9.05 1.26 9.9 5.53.84 3.31-.92 6.84-3.86 8.46-9.04 5.68-17.27 12.62-24.44 20.54-2.45 2.96-7.17 3.59-10.26 1.26-3.76-2.53-4.26-8.41-1-11.56 8.65-9.4 18.47-18 29.66-24.23zM354.44 523.66c5.81-2.79 12.7 3.88 10.05 9.77-3.19 5.89-7.4 11.22-11.8 16.25-3.83 4.58-12.16 2.16-13.02-3.73-1.11-5.35 4.12-8.61 6.64-12.58 2.78-3.15 4.13-7.83 8.13-9.71zM329.37 551.42c3.7-1.87 8.62.11 10.15 3.92 1.49 3.29.21 7.37-2.74 9.38-16.87 13.09-37.46 21.42-58.74 23.42-4.51.57-8.69-3.7-8.2-8.17.2-3.71 3.43-6.87 7.13-7.02 17.12-1.85 33.77-8.11 47.69-18.28 1.54-1.12 3.02-2.36 4.71-3.25z"/></g></svg>