<svg width="938pt" height="939pt" viewBox="0 0 938 939" xmlns="http://www.w3.org/2000/svg"><g fill="#212121"><path d="M409.3 0h120.08c11.51 2.16 22.15 11.1 24.31 22.9 3.44 29.47 3.73 59.22 7.3 88.68 33.63 8.32 65.47 22.62 95.73 39.28 21.22-18.5 42.57-36.86 63.86-55.28 10.7-9.51 28.72-9.13 38.88 1.02 25.88 25.76 51.59 51.68 77.51 77.41 3.53 3.54 7.11 7.27 9.02 11.98 3.89 9.72 2.6 21.65-4.21 29.78-18.51 21.64-37.38 42.99-55.78 64.73 17.05 30 30.84 62.01 39.36 95.5 28.64 3.13 57.46 4.1 86.14 6.77 14.27 1.38 25.89 14.97 25.52 29.22-.1 18.01.15 36.03-.11 54.05.08 2.32-.81 4.74-2.79 6.08-4.15 3.34-12.23 1.81-12.74-4.18-1.24-20 .3-40.06-.7-60.07-.09-3.24-2.25-6.08-5.01-7.6-3.2-1.9-7.04-1.74-10.61-2.04-28.74-2.06-57.49-4.05-86.22-6.35-3.91.03-7.17-3.16-7.8-6.92-8.44-35.64-22.91-69.77-41.96-101.02-2.74-4.35.1-9.38 3.35-12.48 19.34-22.35 38.71-44.68 57.96-67.11 3.08-3.42 3.65-8.94 1.02-12.78-1.67-2.31-3.87-4.17-5.84-6.2-25.24-25.39-50.69-50.57-75.88-76.01-2.71-2.59-5.73-5.54-9.7-5.71-4.3-.05-7.65 3.02-10.73 5.61-19.92 17.43-40.06 34.6-60.06 51.94-3.06 2.59-5.92 5.53-9.54 7.32-3.43 1.53-6.82-.9-9.72-2.47-27.21-16.45-56.7-29.06-87.35-37.47-4.48-1.25-9.11-1.98-13.41-3.76-2.4-.87-3.6-3.4-3.98-5.76-.63-3.7-.74-7.47-1.02-11.21-1.76-25.66-3.87-51.3-5.51-76.97-.41-4.3-.57-9.34-4.14-12.37-3.18-2.79-7.67-2.45-11.6-2.57-37.32.2-74.64-.1-111.95.13-3.65-.21-7.38 1.42-9.42 4.5-1.81 2.44-1.73 5.62-2.04 8.5-2.44 30-4.18 60.05-6.73 90.03-.21 4.46-4.91 6.45-8.65 7.31-34.88 8.21-68.07 22.72-98.79 41.04-1.86 1.11-4.07 2.02-6.25 1.31-3.72-1.09-6.42-4.09-9.3-6.51-21.66-18.71-43-37.81-65.11-56.01-1.65-1.28-3.47-2.7-5.68-2.66-6.02.23-9.9 6.72-16.06 6.36-5.86-.52-9.1-8.64-4.89-12.88 10.04-10.66 28.46-10.94 39.36-1.42 21.32 18.42 42.58 36.91 63.95 55.27 30.15-16.88 62.08-30.99 95.7-39.27 2.84-28.68 4.21-57.48 6.68-86.19 1.28-13.07 12.78-23.69 25.55-25.45zM151.34 124.43c4.99-2.29 11.39 2.1 11.13 7.59-.23 4.38-3.82 7.89-7.62 9.62-4.83 1.68-10.76-2.42-10.54-7.63-.12-4.34 3.67-7.49 7.03-9.58zM115.5 159.47c2.09-1.98 4.4-4.54 7.58-4.16 5.9-.25 10.2 7.58 6.61 12.33-7.29 8.7-16.49 15.63-23.5 24.58-2.93 4.2-1.12 9.93 2.26 13.29 19.72 22.96 39.54 45.83 59.37 68.69 2.59 2.8 2.84 7.3.67 10.41-19.2 31.28-33.32 65.65-41.9 101.32-.63 3.5-3.97 5.99-7.46 6-30.66 2.43-61.36 4.36-92.02 6.85-5.35.01-10.11 4.81-10.02 10.17-.16 39.03-.07 78.06-.06 117.09-.46 5.59 4.28 10.81 9.83 11.11 30.35 2.4 60.72 4.4 91.07 6.76 3.89-.25 7.79 2.22 8.74 6.08 8.39 36.04 22.94 70.57 42.24 102.11 1.8 3.01 1.22 7.1-1.14 9.66-19.62 22.75-39.23 45.5-58.92 68.19-2.62 2.95-5 6.9-3.91 11 1.57 4.67 5.6 7.83 8.96 11.2 25.89 25.81 51.64 51.75 77.58 77.49 3.79 3.64 10.01 2.86 13.96-.13 23.13-20.24 46.5-40.22 69.76-60.33 3.15-3.07 8.37-2.71 11.77-.22 9.81 6.98 21.07 11.51 31.35 17.71 6.01 4.3.96 15.48-6.28 13.83-10.81-3.94-20.35-10.61-30.78-15.41-21.26 18.43-42.57 36.8-63.85 55.22-9.63 8.52-25.07 9.16-35.56 1.85-2.7-1.9-4.91-4.39-7.25-6.69-25.69-25.67-51.38-51.34-77.03-77.05-9.93-9.99-10.46-27.57-1.4-38.28 18.15-21.21 36.65-42.12 54.67-63.44 1.51-1.69-.31-3.8-1.03-5.42-16.37-28.57-29.02-59.29-37.17-91.19-25.43-3.06-51.05-4-76.56-6.07-5.03-.54-10.21-.45-15.07-2.02-11.68-3.85-20.37-15.65-20.06-28.03.06-35.65-.02-71.29.03-106.94.03-4.67-.28-9.47 1.27-13.95 3.33-10.6 13.05-19.26 24.26-20.29 28.72-2.62 57.56-3.68 86.23-6.82 8.1-33.68 22.54-65.44 39.09-95.73-16.39-18.92-32.74-37.89-49.14-56.81-4.11-4.69-8.72-9.23-10.99-15.18-3.68-10-2.18-22.3 5.35-30.18 6.04-6.31 12.34-12.36 18.45-18.6zM451.56 280.84c37.89-3.68 76.82 4.84 109.76 23.91 32.86 18.73 59.82 47.55 76.53 81.46 14.86 30.11 21.39 64.27 18.4 97.72-2.36 27.58-10.75 54.69-24.79 78.56-2.93 5.23-11.65 4.27-13.86-1.12-1.8-3.36.07-7.04 1.75-10 19.67-34.64 25.98-76.33 18.67-115.38-5.46-31.08-20.06-60.4-41.16-83.82-19.84-22.08-45.62-38.82-73.95-47.76-27.27-8.69-56.65-10.6-84.84-5.68-28.46 4.88-55.58 17.23-77.96 35.46-29.23 23.87-50.12 57.67-58.68 94.4-.7 2.84-.93 6.36-3.74 8.02-4.85 3.37-13.57-.15-12.69-6.61 3.87-20.87 12-40.88 23.08-58.95 30.58-49.88 84.85-85.27 143.48-90.21zM286.32 460.37c3.98-1.55 8.98.84 10.28 4.91.52 2.52.26 5.13.39 7.7 1.15 36.75 13.75 73.35 36.79 102.15 16.9 21.55 39.2 38.75 64.21 49.88 36.57 16.32 78.87 19.46 117.42 8.6 17.77-4.93 34.72-12.77 49.99-23.11 6-3.82 13.86 4.01 11.21 10.2-1.06 2.5-3.66 3.71-5.76 5.19-35.35 23.25-78.89 33.24-120.89 29.01-34.65-3.27-67.96-17.2-95.42-38.43-43.29-33.57-71.71-86.4-73.41-141.4-.5-5.2-.89-12.62 5.19-14.7zM922.39 509.37c2.59-4.51 9.66-4.45 12.79-.55 1.74 1.94 1.55 4.69 1.73 7.12.31 6.86.44 14.06-2.55 20.42-4.18 8.72-12.65 15.74-22.44 16.74-28.87 2.67-57.87 3.71-86.68 6.9-8.26 33.6-22.47 65.43-39.22 95.61 16.89 19.57 33.78 39.14 50.73 58.67 3.22 3.8 6.93 7.38 8.88 12.07 3.86 8.77 3.3 19.42-1.72 27.61-2.1 3.45-5.18 6.12-7.99 8.97-23.32 23.35-46.68 46.67-69.98 70.04-3.77 3.57-7.02 7.83-11.64 10.37-9.56 5.39-22.32 5.27-31.37-1.15-4.69-3.26-8.64-7.4-13-11.04-17.78-15.33-35.55-30.67-53.27-46.06-30.26 16.59-62.02 30.99-95.66 39.16-2.44 20.52-3.35 41.17-4.94 61.76-.42 5.99-1.18 11.96-1.1 17.98-.04 6.39-.95 13.04-4.36 18.58-5.08 8.07-13.91 14.36-23.71 14.28-3.6.81-7.32.28-10.94-.05-3.05-.37-6.13 1.06-9.11.02-2.31.62-4.66.38-6.98.12-4.56.36-9.17.52-13.72-.05-2.49-.52-5.03.89-7.41-.38l-.45 1.14c-.58-.27-1.74-.82-2.33-1.09-2.08 1.46-4.68.32-6.99.37-5.97.42-12.01.53-17.97-.13-4.1.19-8.24.89-12.32.11-6.21.68-12.44-.59-18.67.16-3.33-.4-6.68-.27-10.02-.29-10.78-.66-20.32-8.43-24.36-18.26-1.61-4.31-2.3-8.91-2.53-13.49-2.02-26.9-3.11-53.9-6.18-80.73-9.89-2.58-19.76-5.33-29.31-8.97-5.77-1.93-6.14-10.86-1.1-13.84 3.15-2.35 7.23-.98 10.56.19 9.97 3.69 20.33 6.14 30.59 8.9 3.63.97 5.41 4.89 5.37 8.41 2.2 31.05 4.73 62.07 7.14 93.1.47 3.35 2.57 6.43 5.53 8.09 6.51 1.51 13.2.97 19.83 1.03 7.01-1.19 14.09.99 21.11-.45 6.59.95 13.29.23 19.93.48 6.74-.83 13.57.78 20.31-.41 8.06.78 16.23.22 24.34.4 1.56-.07 3.27.3 4.72-.48 2.27.78 4.73.69 7-.07.48.18 1.45.53 1.93.7 2.82-.99 6.13-.11 8.65-2.03 2.05-1.56 3.72-3.79 4.33-6.32 2.48-31.62 4.72-63.27 7.08-94.91-.22-3.72 2.61-7.03 6.15-7.85 34.09-7.96 66.76-21.54 96.98-39.14 2.58-1.41 4.95-3.33 7.83-4.12 3.28-.67 6.31 1.25 8.68 3.31 8.68 8.4 18.14 15.94 27.17 23.96 13.74 11.92 27.48 23.85 41.43 35.54 2.64 2.48 6.66 2.94 9.98 1.64 3.32-1.16 5.54-4 7.96-6.38 26.32-26.34 52.71-52.62 78.95-79.04 3.73-3.59 4.12-10.03.76-13.98-19.7-22.95-39.42-45.88-59.39-68.6-2.5-2.83-4.99-7.08-2.64-10.74 19.19-31.83 34.03-66.43 42.48-102.67.76-3.05 3.38-5.81 6.63-5.98l92.62-6.84c3.65-.25 7.54-2.01 9.13-5.51 3.29-7.08-1.09-15.42 2.75-22.35zM599.33 582.45c5.02-1.17 10.44 3.45 9.62 8.66-.77 6.66-9.87 12.63-15.42 7.33-5.76-5.13-.67-14.42 5.8-15.99z"/></g></svg>
