<svg width="700pt" height="700pt" viewBox="0 0 700 700" xmlns="http://www.w3.org/2000/svg"><path d="M343.1 88.84c.07-4.5 4.48-8.24 8.92-7.74 4.02.25 7.54 3.82 7.57 7.88.16 6.02-.01 12.05.06 18.07 6.1.08 12.2-.12 18.3.07 4.45.13 8.1 4.5 7.64 8.89-.24 3.9-3.62 7.39-7.56 7.55-6.13.22-12.26 0-18.38.09l-.01 33.01 85.42.02c4.54-.31 8.73 3.71 8.59 8.26.06 26.36.02 52.72.01 79.09.04 15.4-6.59 30.49-17.52 41.27 5.23.08 10.62-.54 15.69 1.08 8.21 2.44 14.91 9.35 17.06 17.65 1.97 7.13.54 15.08-3.76 21.09-4.51 6.46-12.18 10.61-20.07 10.71-7.73.09-15.45 0-23.18.03-11.85 25.07-23.67 50.15-35.51 75.22 13.4 35.53 26.81 71.06 40.2 106.6 7.47.22 15-.46 22.44.42 10.54 1.78 19.25 10.93 20.52 21.54.98 6.55-1.1 13.19-4.86 18.55 19.6 9.85 33.26 30.82 33.33 52.88.14 4.72-4.35 8.66-8.99 8.21h-277.97c-2.96.16-6.03-1.1-7.66-3.64-2.21-3.15-1.29-7.2-1.01-10.75 2.27-19.8 15.21-37.75 32.93-46.7-3.97-5.61-6.01-12.68-4.7-19.52 1.72-10.93 11.4-20 22.46-20.84 6.78-.35 13.58-.04 20.37-.15 13.38-35.54 26.78-71.08 40.18-106.61-11.78-25.07-23.39-50.22-35.28-75.24-7.78.08-15.57.08-23.35.02-7.44-.09-14.7-3.74-19.28-9.59-4.73-5.87-6.55-13.94-4.82-21.28 1.88-8.69 8.75-16.06 17.27-18.59 5.08-1.6 10.46-1.02 15.7-1.09-10.95-10.76-17.56-25.86-17.53-41.26-.01-26.35-.03-52.7.01-79.06-.17-4.61 4.09-8.65 8.68-8.3 29.34-.03 58.69 0 88.03-.01.01-11.01.01-22.02 0-33.02-6.02-.07-12.03.1-18.04-.06-4.05-.01-7.65-3.5-7.92-7.52-.52-4.49 3.3-8.95 7.85-8.96 6.03-.16 12.07.01 18.11-.06.07-6.07-.12-12.14.06-18.21m-80.2 84.41c-.01 23.58-.01 47.16 0 70.74.01 10.54 4.3 20.95 11.62 28.51 7.61 7.97 18.49 12.72 29.52 12.76 30.33.04 60.67.01 91 .02 6.04.02 12.09-1.19 17.58-3.72 14.19-6.28 24.14-21.04 24.41-36.59.1-23.9.02-47.81.04-71.72h-141.12c0 18.58-.04 37.16.02 55.74.03 6.5 2.43 12.73 5.98 18.11 2.55 3.85.83 9.57-3.3 11.55-3.54 1.94-8.38.73-10.59-2.64-5.7-8.15-8.75-18.09-8.7-28.03 0-18.23-.01-36.47.01-54.71-5.49-.04-10.98-.02-16.47-.02m-10.56 129.21c-4.07 1.52-6.49 6.33-5.21 10.5 1.03 3.82 4.88 6.55 8.83 6.31 62.68.01 125.35.01 188.02 0 3.97.25 7.85-2.5 8.87-6.35 1.77-5.48-3.14-11.54-8.85-11.04-62.34-.02-124.67.03-187.01-.02-1.56.05-3.18.01-4.65.6m44.43 33.41c10.35 22.19 20.73 44.37 31.11 66.55 5.99.06 11.99-.12 17.99.06 4.31.12 7.91 4.22 7.68 8.49-.04 4.38-4.03 8.24-8.43 8.02-5.6.1-11.2-.03-16.8.03l-37.19 98.67 117.72-.01c-13.08-34.77-26.26-69.51-39.29-104.3-1.41-3.41.54-6.8 1.99-9.8 10.68-22.56 21.32-45.14 31.97-67.71-35.59-.01-71.17-.01-106.75 0m-43.36 198.65c-4.17.94-7.18 5.3-6.54 9.54.45 4.39 4.64 7.89 9.05 7.62 62.71.01 125.43.01 188.14 0 4.06.23 8-2.7 8.87-6.68 1.51-5.37-3.27-11.14-8.81-10.73-51.37-.01-102.75 0-154.12 0-12.2.17-24.42-.35-36.59.25m-33.92 68.16c86.99.04 173.99.03 260.99 0-4.14-19-21.91-34.09-41.47-34.36-59.35-.06-118.71-.06-178.07 0-19.55.27-37.34 15.35-41.45 34.36z"/></svg>