<svg width="700pt" height="700pt" viewBox="0 0 700 700" xmlns="http://www.w3.org/2000/svg"><path d="M333.39 74.5c36.26-2.2 72.97 2.8 107.26 14.81 62 21.43 115.56 65.92 148.31 122.73 35.58 60.84 46.14 135.61 29.02 203.96-15.24 62.71-53.6 119.32-105.82 157.17-54.98 40.42-125.37 58.99-193.14 51.09-61.36-6.71-119.96-35.07-163.58-78.7-26.27-26.11-47.25-57.52-61.2-91.84-25.25-61.58-26.93-132.4-4.67-195.13 20.42-58.46 61.3-109.41 113.74-142.29 38.92-24.59 84.11-39.15 130.08-41.8m.99 11.96c-52.97 2.95-104.79 22.61-146.53 55.33-50.14 38.93-85.58 96.38-97.22 158.84-12.66 65.5.75 135.62 37.07 191.62 35.98 56.4 94.04 98.27 159.08 114.08 65.55 16.38 137.27 6.26 195.55-27.99 55.63-32.17 98.81-85.26 118.62-146.42 21.9-66.11 15.99-140.86-16.22-202.63-30.26-59.02-83.53-105.81-146.07-127.96-33.29-11.94-69-16.97-104.28-14.87zm-11.61 53.32c7.15-7.87 15.9-16.71 27.26-16.81 11.24 1.36 19.66 10.18 26.72 18.3 20.74 25.81 30.9 58.79 33.61 91.44 5.86-5.56 13.32-12.19 22.06-10.14 9.83 2.99 16.89 11.2 22.84 19.16 16.16 22.97 23.39 51.4 23.48 79.26-.02 42.02.05 84.03-.03 126.04-.02 1.98.1 4.14 1.69 5.57 6.94 7.73 14.2 15.27 20.09 23.86 6.91 9.01 5.76 22.07.56 31.6 6.58 7.09 3.44 17.29 4.16 25.97.58 3.81-1.95 8.07-6.15 7.86-28.33.17-56.68-.03-85.02.09.46 4.87 3.26 12.72-3.17 14.72-13.61.71-27.31.11-40.96.3-3.45.38-7.12-2.34-6.85-5.99.35-5.77 1.49-11.45 2.03-17.19-11.07-.03-22.14-.03-33.2 0 .52 5.74 1.69 11.41 2.03 17.17.27 3.65-3.38 6.38-6.83 6-13.65-.17-27.35.41-40.96-.29-6.48-1.97-3.66-9.85-3.18-14.72-27.34-.11-54.68.08-82.01-.09-4.76.25-6.86-4.84-6.18-8.89.67-8.35-2.26-18.16 4.18-24.93-4.25-7.26-5.11-16.34-3.26-24.43 5.04-11.75 14.89-20.43 22.91-30.11 1.08-1.23.87-2.96.98-4.46-.09-39.03-.01-78.05-.04-117.07-1.04-31.34 5.06-63.99 23.37-90.02 5.91-7.99 12.94-16.2 22.72-19.31 8.86-2.34 16.39 4.52 22.28 10.15 2.75-33.3 13.2-67.08 34.87-93.04m23.13-4c-8.11 4.2-13.96 11.6-19.32 18.79-19.25 27.37-27.32 61.33-27.26 94.47.73 5.32-6.6 8.99-10.16 4.87-5.56-7.23-10.59-15.96-19.38-19.64-5.39.15-9.11 5.25-12.62 8.84-17.62 21.36-25.38 49.54-25.61 76.89.02 39.8-.08 79.59.04 119.38 10.74-11.98 21.41-24.19 29.86-37.95 3.68-6.31 7.38-13.02 7.79-20.48.41-7.65 4.28-14.44 7.59-21.14 9.36-18.02 19.71-35.55 27.78-54.22 3.18-7.85 6.66-15.95 6.42-24.59 0-13.68-.14-27.35.1-41.03.75-22.18 7.2-44.94 21.62-62.2 4.66-5.27 10.65-11.01 18.2-10.67 7.37 1.2 12.86 6.98 17.49 12.42 13.25 16.78 19.54 38.27 20.37 59.42.36 14.7.1 29.4.19 44.1.04 5.85 2.07 11.43 4.07 16.85 9.36 24.18 23.73 45.96 34.63 69.41 3.81 7.19 2.19 15.81 6.01 23 7.98 17.06 20.76 31.22 33.03 45.29-.03-39.87.07-79.74-.07-119.61-.81-28.66-9.44-58.83-30.09-79.57-2.61-2.13-6.08-5.58-9.65-3.56-7.85 4.37-12.66 12.24-17.92 19.2-3.62 4.09-10.92.36-10.04-4.97-.03-30.38-6.75-61.26-22.63-87.41-5.38-8.68-11.61-17.06-19.75-23.34-2.98-2.24-6.98-4.62-10.69-2.55m-5.99 52.13c-11.93 16.02-16.91 36.33-16.87 56.08.14 10.96.14 21.92.12 32.88 17.89-.02 35.78-.01 53.67 0-.11-11.97.12-23.93.05-35.89-.42-18.52-5.37-37.36-16.38-52.46-2.92-3.68-5.98-7.74-10.5-9.51-4.35 1.55-7.27 5.44-10.09 8.9m-16.85 100.96c-.02 28.87-.01 57.74 0 86.61 17.96.03 35.92.03 53.88 0 .01-28.87.01-57.74 0-86.61-17.96-.02-35.92-.02-53.88 0m-38.6 82.55c-1.76 3.26-2.84 6.87-2.76 10.6-.35 29.6.19 59.22-.26 88.8-.39 6.53-11.08 6.7-11.66.18-.42-20-.11-40.04-.14-60.05-16.75 25.9-40.08 46.53-59.13 70.59-4.32 4.57-4.49 11.28-2.96 17.05 1.15 3.33 5.53 2.8 8.37 3.29 31.7.16 63.4.06 95.1-.06 0-60.33.1-120.65-.05-180.98-8.43 17.07-18.03 33.54-26.51 50.58m104.56-50.54c-.17 60.31-.04 120.63-.05 180.94 31.37.18 62.74.14 94.1.1 3.02-.47 7.38.17 9.15-2.84 1.81-5.84 1.67-12.85-2.75-17.53-19.04-24.08-42.39-44.68-59.12-70.6-.04 20.02.29 40.05-.15 60.05-.58 6.52-11.27 6.35-11.65-.17-.43-29.25.04-58.53-.23-87.79.05-3.78-.61-7.57-2.45-10.91-8.54-17.29-18.3-33.95-26.85-51.25m-65.97 66.63c0 28.8-.03 57.6.02 86.41 17.95.02 35.91.02 53.86-.01.05-28.8.01-57.59.01-86.39-17.96-.03-35.92-.03-53.89-.01m.01 98.41c-.04 11.92.04 23.84-.02 35.76 17.96.27 35.93.02 53.9.12v-35.88c-17.96-.07-35.92-.07-53.88 0m-116.26 44.02c25.9-.01 51.8.05 77.7-.04.67-5.31 1.35-10.62 2-15.93-24.83-.1-49.69.13-74.51-.17-7.45 1.89-4.95 10.49-5.19 16.14m91.84-15.95c-1.43 10.32-2.5 20.69-4.01 30.99 8.83.03 17.67.03 26.51 0-.41-3.62-.89-7.24-1.37-10.85-3.16-.34-7.42-.69-8.35-4.42-.84-5.19-.21-10.48-.38-15.7-4.14-.02-8.27-.02-12.4-.02m90.31.01c-.28 5.44.71 11.06-.64 16.39-1.92 4.29-7.28 3.31-11.08 3.5-.48 3.69-.98 7.38-1.43 11.09 8.85.04 17.7.03 26.56 0-1.53-10.3-2.6-20.67-4.02-30.99-3.13 0-6.26.02-9.39.01m21.52-.03c.65 5.31 1.34 10.63 2.01 15.94 26.9.07 53.8.03 80.7.03 0-4.29-.01-8.57.01-12.85-1.94-1.24-3.7-3.2-6.1-3.37-25.53.5-51.08.08-76.62.25zm-63.02-304.46c10.05-1.04 16.94 9.51 17.56 18.5 1.18 5-5.76 9.33-9.45 5.46-3.26-3.47-9.13-3.78-12.47-.27-3.12 3.51-9.42 1.2-9.83-3.37-.15-8.68 5.17-18.43 14.19-20.32zm188.02 18.81c1.42-5.19 9.76-5.3 11.23-.08.79 4.88.23 9.87.35 14.79 5.11.24 10.37-.66 15.37.59 4.81 1.94 4.39 9.78-.66 11.09-4.87.72-9.81.2-14.7.33-.22 5.13.63 10.4-.57 15.42-2.01 4.75-9.77 4.24-11.06-.76-.8-4.84-.23-9.79-.38-14.67-4.93-.14-9.92.45-14.79-.38-5.14-1.51-5.11-9.75.05-11.21 4.85-.87 9.83-.26 14.74-.41.16-4.9-.44-9.87.42-14.71zm-359.09 2.09c6.87-1.35 12.67 6.99 9.13 12.98-2.75 5.67-11.42 6.3-15.02 1.18-4.14-5.04-.6-13.52 5.89-14.16zm-23.02 163.88c1.71-4.9 9.66-4.71 11.12.27.87 4.89.23 9.9.41 14.84 5.03.21 10.19-.58 15.14.51 4.83 1.73 4.68 9.48-.21 11.04-4.9.96-9.95.29-14.91.45-.22 5 .5 10.09-.49 15.02-1.65 4.77-9.21 4.92-11.01.21-1.03-4.99-.29-10.17-.49-15.23-4.93-.12-9.91.44-14.8-.37-5.08-1.39-5.3-9.42-.35-11.15 4.97-1.03 10.12-.28 15.16-.48.17-5.03-.5-10.14.43-15.11zm368.01 22.09c6.1-.9 11.56 5.63 9.51 11.49-1.66 6.43-10.92 8.49-15.12 3.34-4.99-4.89-1.34-14.42 5.61-14.83z"/></svg>