<svg width="906pt" height="937pt" viewBox="0 0 906 937" xmlns="http://www.w3.org/2000/svg"><g fill="#fff"><path d="M476.84 0h10.84c20.58 2.55 40.06 11.23 56.38 23.91 16.4 12.51 30.15 28.13 42.26 44.75 22.53 31.75 40.06 66.83 53.91 103.16 13.87 36.49 24.26 74.23 32.47 112.37.79 4.43 1.98 8.99 1.18 13.51-2.3 6.33-13.2 5.67-14.48-1.07-10.8-53.32-25.6-106.13-48.39-155.65-13.61-29.49-29.88-58.12-51.46-82.55-13.73-15.32-29.86-29.16-49.16-36.87-16.63-6.78-35.68-7.61-52.76-1.98-21.41 6.87-38.95 21.98-53.83 38.37-15.45 17.45-27.81 37.32-39.46 57.43-1.79 3.88-6.94 4.79-10.41 2.72-2.27-1.25-3.06-3.9-4.26-6.02 2.62-7.6 7.17-14.28 11.24-21.14 15.66-25.46 34.41-49.57 58.36-67.74 16.69-12.66 36.6-21.27 57.57-23.2zM339.32 137.13c4.64-1.63 9.9 2.12 10.14 6.94.05 4.44-2.26 9.2-6.46 11.07-3.41 1.95-7.74-.37-9.56-3.46-2.11-5.35.52-12.27 5.88-14.55zM325.44 173.45c5.64-1.4 11.06 5.2 8.59 10.48-25.26 71.73-40.65 147.09-44.01 223.08-.84 19.63-1.47 39.32-.04 58.94-.26 8.75.98 17.41 1.27 26.13.77 6.02.78 12.12 1.9 18.11 49.95-.37 99.89-.11 149.83-.19 75.33 0 150.66-.01 225.99 0 3.42-25.83 4.41-51.92 4.39-77.96-.62-10.32.07-20.68-1.19-30.95-.41-12.73-2.51-25.37-2.37-38.11-.08-5.25 6.64-7.44 10.8-5.55 1.22.79 2.26 1.81 3.35 2.77 1.21 5.48 1.97 11.06 2.17 16.68 11.87 1.61 23.74 3.78 35 8.01 30.95 11.08 57.66 33.26 74.52 61.46 13.1 21.75 20.34 47.11 20 72.54-.2 4.3-4.55 7.05-8.54 7.05-41.03.1-82.06.06-123.1.03.56 7.06-.05 14.34-3.45 20.68-5.4 11.14-16.96 19.28-29.51 19.35h-77.05c-.23 10.66.79 21.51-1.96 31.95-4.62 16.75-18.83 30.42-35.7 34.5-8.33 1.92-16.92 1.4-25.39 1.55-24.99-.03-49.99.06-74.99-.05-20.97-.52-40.43-15.78-46.04-35.96-2.79-10.48-1.69-21.38-1.84-32.08-26.02.02-52.05.35-78.07-.16-12-.11-22.97-7.9-28.39-18.37-3.6-6.51-3.74-14.17-3.62-21.41-41.69.01-83.39.1-125.08-.04-3.79-.01-7.62-2.46-8.59-6.23-.76-3.5-.13-7.1.14-10.62.93-15.05 3.75-30.13 9.43-44.14 1.33-3.94 5.96-6.14 9.86-4.68 3.39 1.4 6.3 5.45 4.8 9.16-4.75 13.02-8.06 26.69-8.64 40.58 39.06 0 78.12.01 117.18-.01-1.46-18.63-3.31-37.27-3.19-55.99-.25-11.66-.03-23.31.07-34.97-.23-8.91 1.39-17.74 1.04-26.66-19.08 1.82-37.99 7.33-54.39 17.41-2.81 1.76-6.52 3.3-9.65 1.38-4.84-2.38-5.55-10.03-.84-12.93 19.64-13.18 43.1-19.28 66.39-21.66 5.95-66.89 19.87-133.16 42.45-196.44 1.02-3.01 3.09-6.13 6.47-6.68m361.74 219.43c1.18 7.33.68 14.78 1.28 22.16.92 9.96.41 19.97.55 29.96.25 9-1.07 17.95-.98 26.95-.69 12.71-2.09 25.37-3.17 38.05 38.42 0 76.84.02 115.26-.01-1.74-23.76-9.6-47.26-23.79-66.5-20.54-28.68-54.08-47.47-89.15-50.61m-393.39 133.12c.31 6.51-1.15 14.19 3.82 19.37 3.99 4.8 10.68 4.89 16.4 4.64 109.98-.02 219.97-.03 329.95.01 6.73-.05 14.71 1.25 19.89-4.14 5.51-5.15 3.96-13.23 4.28-19.96-124.78.18-249.56.02-374.34.08m110.21 40c.2 8.7-.59 17.42.25 26.1 1.36 11.17 9.72 20.81 20.29 24.38 5.88 2.29 12.28 1.34 18.43 1.52 28.01.02 56.02-.04 84.03.03 12.05.37 24.21-7.11 28.6-18.48 4.27-10.68 1.78-22.41 2.4-33.58-51.33.05-102.67.02-154 .03zM474.22 222.26c33.89-1.88 67.91 13.9 89.11 40.29 17.99 21.92 27.23 51.14 23.7 79.4-3.8 34.83-26.55 66.28-57.08 82.93-18.12 10.05-39.3 14.18-59.89 12.2-35.79-3.24-68.69-26.12-85.31-57.81-8.86-16.57-13.27-35.58-12.25-54.35 1.09-24.12 10.64-47.72 26.42-65.97 2.64-3.11 5.6-6.94 10.08-6.99 3.87.34 7.86 3.86 7.21 8.02.02 4.55-4.06 7.35-6.67 10.54-25.6 28.98-28.58 74.64-8.7 107.49 9.85 16.9 25.67 30.06 43.78 37.34 31.22 12.67 69.36 7.38 95.15-14.59 16.82-13.96 28.02-34.29 31.31-55.85 1.38-7.24.86-14.64.89-21.97-1.3-20.9-10.09-41.19-24.29-56.56-15.65-16.7-37.86-26.93-60.66-28.36-7.32.04-14.71-.49-21.94.93-6.57.93-12.9 2.96-19.16 5.08-6.01 2.17-11.95-5.66-8.88-10.96 1.39-2.78 4.73-3.62 7.35-4.85 9.57-3.46 19.73-5 29.83-5.96zM670.3 320.21c9.42-2.57 14.65 13.03 6.64 17.66-3.81 2.6-9.59.38-11.12-3.84-2.09-4.84-1.4-12.12 4.48-13.82zM184.36 420.12c5.13-1.43 11.17 3.54 9.66 8.98-1.35 4.99-5.79 9.31-11.01 9.93-3.88-.34-7.67-3.89-7.17-7.98.25-4.9 4.31-8.91 8.52-10.93zM253.36 578.32c4.1-2.37 9.04-1.13 13.49-.78 26.85 2.29 51.82 17.02 68.47 37.94 5.98 7.78 10.21 16.69 14.92 25.25 18.64 3.78 35.03 16.75 43.23 33.88 3.87 7.91 5.62 16.73 5.7 25.52 7.34 3.05 14.64 6.67 20.2 12.51 7.41 7.13 12.48 16.96 12.93 27.32 3.94.8 7.96 1.12 11.96 1.58 8.4-11.2 18.2-21.4 29.76-29.35.06-13.08-.23-26.17.15-39.24.34-3.43-.01-8.28 3.91-9.78 4.43-2.64 11.51.35 11.33 5.93 1.2 11.34.35 22.78.5 34.17 26.44-11.77 57.74-13.01 84.57-1.79 5.08 2.25 5.84 10.12 1.14 13.19-3.49 2.8-7.98.52-11.66-.58-24.09-8.5-51.5-5.83-74 6.03.1 18.62-.01 37.24.06 55.86-.06 3.88-.42 8.78-4.31 10.81-4.63 3.15-11.75-1.05-11.44-6.62-.61-16.26-.08-32.54-.3-48.8-7.23 6.39-13.24 14.04-18.48 22.12-1.42 2.23-3.47 4.58-6.35 4.55-5.11.04-9.97-2.03-15.09-2.02-5.25-.3-11.17 1.04-15.78-2.21-2.97-3.16-2.05-7.81-1.74-11.72.87-10.51-5.67-21.51-15.89-24.76-4.87-1.86-10.34-.67-15.11-2.85-2.03-.96-2.85-3.34-2.79-5.45-.06-7.35 1.28-14.87-.69-22.08-2.8-11.14-10.26-21.27-20.72-26.29-6.23-3.47-13.47-3.85-20.26-5.47-4.15-.89-4.79-5.78-6.28-9.04-10.2-30.03-39.88-52.58-71.75-53.22-4.01-.59-9.55.08-11.83-4.08-2.29-3.35-1-8.22 2.15-10.53zM211.04 589.06c4.65-3.12 11.77 1.4 11.22 6.9.39 5.47-5.63 7.45-9.27 10.07-17.72 11-30.44 29.4-35.21 49.64-.72 2.96-.97 6.05-2.05 8.93-1.59 2.84-5.06 4.76-8.31 3.96-24.16-5.04-49.83-2.98-72.78 6.16-2.87 1-5.91 3.27-9.03 1.84-4.23-1.25-7.12-6.63-4.77-10.63.93-2.04 2.84-3.38 4.85-4.2 24.03-10.34 51.01-13.71 76.84-9.74 7.12-26.19 24.35-50.05 48.51-62.93zM54.45 680.49c5.24-3.13 11.71 1.72 11.45 7.42-1.12 4.61-5.03 8.23-9.51 9.58-4.56 1.78-10.16-2.71-9.5-7.57.32-4.3 3.85-7.67 7.56-9.43zM693.07 709.18c12.49-9.82 29.24-14.59 44.92-11.16 22.53 4.31 40.67 23.05 46.39 44.96 43.1-11.28 92.45 12.18 111.02 52.69 3.31 6.4-6.54 13.68-11.66 8.66-3.42-3.77-5.57-8.45-8.33-12.67-8.35-12.94-20.71-23.2-34.89-29.19-19.05-8.12-41.24-8.93-60.73-1.81-4.36 1.55-9.69-1.8-9.73-6.54-1.01-9.68-3.39-19.63-9.92-27.15-10.84-13.06-29.92-17.43-45.86-12.6-16.09 4.58-27.81 20.02-28.7 36.6.13 4.31-1.95 9.1-6.56 10.02-4.03-.36-7.94-1.57-11.98-1.81-10.73-.6-22.05 2.46-29.94 10.03-3.09 2.55-6.56 6.59-11.02 5.08-4.07-.87-5.27-5.37-6.82-8.64-5.16-13-13.67-24.56-24.23-33.68-2.26-2.18-5.35-4.47-5.14-7.96-.53-5.63 7.13-10.29 11.67-6.61 12.77 9.39 22.07 22.67 29.64 36.42 11.7-7.44 25.68-11.2 39.54-10.1 3.37-13.56 11.13-26.09 22.33-34.54zM26.77 709.7c4.94-4.56 14.28 1.76 12 8.05-1.9 4.24-4.83 7.92-6.96 12.05-10.32 18.25-16.22 39.17-15.83 60.19-.9 31.73 10.92 63.5 31.72 87.39 21.97 25.44 54.63 41.69 88.34 42.62 225.31 0 450.62-.01 675.93.01 23.97-.79 47.46-12.98 61.33-32.66 3.76-4.75 6.22-10.36 9.86-15.17 4.89-5.59 15.65 1.43 12.26 8.17-7.2 16.47-20.29 29.63-34.97 39.66 9.8.43 19.64-.65 29.41.45 2.38.37 5.36.6 6.66 3 3.33 5.2-1.18 13.18-7.47 12.56-281.03-.11-562.07.16-843.11-.2-2.4-.06-5.09-.12-7-1.8-3.27-3.07-3.48-9.1-.04-12.12 2.68-1.67 6-1.57 9.04-1.83 10.19-.22 20.38.01 30.57-.01-34.42-18.53-61.19-50.91-72.29-88.46-4.01-12.67-5.45-25.91-6.22-39.12v-1.81c.65-6.87.82-13.79 1.92-20.61 2.85-18.9 9.57-37.21 19.75-53.4 1.56-2.41 2.99-4.97 5.1-6.96zM520.4 736.13c4.6-1.07 9.41 3.15 9.26 7.83.79 23.33.05 46.68.37 70.02-.03 4.44.19 10.35-4.34 12.81-4.29 2.95-11.03-.56-11.32-5.69-.4-4.37-.33-8.76-.37-13.14.02-21-.03-42 .02-62.99-.06-3.95 2.45-7.84 6.38-8.84zM156.68 757.73c11.14-6.6 24.99-8.76 37.47-5.04 13.26 3.73 24.53 13.04 31.79 24.61 7.87-7.47 18.04-13.23 29.13-13.3 17.04.7 31.99 13.78 36.48 29.98 11.33.36 22.73-.67 34.01.63 6.98.44 8.23 11.53 2.18 14.24-3.81.88-7.78.64-11.65.97-11.2.19-22.45.61-33.61-.5-5.28-.73-5.57-7.04-6.19-11.2-.38-8.1-6.57-15.07-14.2-17.34-7.92-2.24-17.39-1.1-23.37 4.98-4.1 3.85-4.78 9.74-7.52 14.42-2.1 3.55-7.13 3.79-10.56 2.33-4.15-1.91-4.01-7.12-5.39-10.84-2.06-8.31-7.38-15.8-14.8-20.15-14.07-8.44-33.97-6.45-45.39 5.6-5.66 5.84-8.56 13.9-9.09 21.93-.39 3.53-.64 7.97-4.3 9.76-3.29 2.31-7.86.63-10.12-2.33-2.25-3.02-1.32-6.9-.9-10.33 1.88-16.01 12.27-30.35 26.03-38.42zM440.26 770.26c4.55-1.21 9.72 2.85 9.41 7.66.27 20.52.91 41.09-.38 61.59-.24 7-11.46 8.19-14.13 2.2-1.18-4.46-1.08-9.15-1.17-13.72 0-15.69.09-31.37-.01-47.06-.2-4.37 1.53-9.56 6.28-10.67zM718.43 843.12c1.96-15.27 18.15-28.21 33.52-24.11 9.62 2.25 16.74 10.23 20.67 18.96 7.15.18 14.32-.24 21.46.2 2.92.45 6.67.43 8.32 3.37 2.84 4.16.63 11.46-4.87 11.78-10.14 1.24-20.38.45-30.56.7-3.39.3-6.59-1.77-8.46-4.45-.85-4.28.03-9.34-3.39-12.69-4.22-3.74-10.84-3.78-15.8-1.66-4.85 1.96-4.92 7.82-5.89 12.16-.55 4.62-6.22 8.29-10.44 5.76-3.72-1.7-5.74-6.11-4.56-10.02zM895.33 827.12c2.4-.6 5.07-.17 6.97 1.51 4.15 3.1 2.74 8.9 2.8 13.36-.16 5.7-7.39 9.23-12.01 5.87-4.12-2.4-3.27-7.8-3.4-11.83-.27-3.81 1.84-7.8 5.64-8.91z"/></g></svg>
