<svg width="1024pt" height="1024pt" viewBox="0 0 1024 1024" xmlns="http://www.w3.org/2000/svg"><g fill="212121"><path d="M799.9 48.82c14.37-6.62 32.15-5.84 45.51 2.84 27.05 17.57 54.05 36.02 75.86 60.06 14.74 16.6 27.7 34.71 39.82 53.29 3.43 5.45 7.36 10.72 9.33 16.93 5.56 16.48 1 35.6-10.66 48.36 5.75 5.88 11.72 11.56 17.46 17.46 2.45 2.56 5.1 5 6.94 8.07 6.26 10.39 4.83 24.9-3.6 33.68-99.73 99.61-199.27 199.4-299.06 298.95-5.28 5.18-15.3-1.16-13.07-8.16 2.3-4.43 6.25-7.67 9.73-11.15 97.23-97.11 194.3-194.38 291.56-291.46 3.21-3.31 4.68-9.15 1.42-12.92-7.16-8.27-15.46-15.45-22.94-23.42-35.79 35.84-71.66 71.6-107.42 107.47-3.35 3.3-6.44 7-10.49 9.47-4.53 2.12-10.35-1.44-10.87-6.33-.8-3.71 2.11-6.61 4.46-9.03 38.92-38.78 77.71-77.69 116.59-116.51 6.05-6.03 12.91-11.92 15.73-20.27 3.15-8.72.77-18.57-4.39-26.01-17.89-27.66-36.82-55.35-62.18-76.77-16.86-14.5-35.37-26.92-54.03-38.95-7.67-4.97-17.73-6.27-26.29-2.95-5.23 1.93-9.13 6.05-13.13 9.74-8.55 8.12-16.25 17.13-25.22 24.8-5.71 4.18-14.78-3.25-11.5-9.66 3.77-6.03 9.61-10.32 14.43-15.45 8.18-7.85 15.4-17.34 26.01-22.08zm-80.5 76.49c2.15-1.88 4.44-4.21 7.53-4.13 6.09.11 9.93 8.28 6.32 13.12-1.42 1.57-3.08 2.9-4.55 4.4L469.58 397.87c29.91 28.95 59.09 58.62 88.5 88.07 20.45 20.5 41.17 40.73 61.26 61.59 39.56-39.51 79.08-79.08 118.63-118.61 3.68-3.68 10.61-2.52 12.79 2.26 1.84 3.69.04 8.09-2.96 10.57-36.65 36.72-73.43 73.31-110 110.1-4.44 4.48-9.14 9.85-15.86 10.39-5.98 1-11.61-1.83-16.48-4.95-74.66 74.75-149.42 149.4-224.08 224.14-3.53 3.43-6.69 7.42-11.05 9.86-5.84 2.5-12.83-4.48-10.15-10.32 3.09-5.03 7.79-8.79 11.89-12.96 74.08-74.08 148.16-148.15 222.24-222.24-40.89-41.03-81.81-82.03-122.89-122.87-22.14 22.04-44.2 44.15-66.27 66.26-2.4 2.34-5.64 4.72-9.19 3.74-4.34-.83-6.91-5.84-5.75-9.95.55-2.35 2.59-3.84 4.16-5.51 21.72-22.06 43.75-43.81 65.62-65.72-5.83-7.29-7.6-19.12-.62-26.27 86.59-86.8 173.4-173.38 260.03-260.14zm65.02 258.28c5.87-2.72 12.76 4.29 10.26 10.15-1.94 3.92-5.33 7.47-9.69 8.54-4.8 1.19-9.84-3.46-9.16-8.32.67-4.7 4.36-8.53 8.59-10.37zM355.44 517.55c4.97-1.62 11.09 2.94 10.17 8.3-1.09 5.18-5.43 9.85-10.75 10.71-4.36.71-8.75-3.11-8.55-7.55.35-5.21 4.53-9.47 9.13-11.46zm-46.57 45.29c3.44-2.91 9.38-2.4 11.87 1.51 2.43 3.29 1.22 8.05-1.59 10.71-50.35 50.45-100.82 100.78-151.14 151.25 28.39 28.55 56.86 57.02 85.36 85.46 12.58 12.41 24.89 25.13 37.65 37.36 10.16-10.18 20.22-20.47 30.52-30.5 3.03-3.48 8.95-3.79 11.88-.03 2.42 2.7 3.05 7.33.34 10.07-10.84 11.88-22.85 22.61-33.82 34.37-2.1 2.18-4.22 4.55-7.14 5.63-44.26 16.99-88.31 34.54-132.49 51.71-4.63 1.76-9.21 3.94-14.21 4.35-11.29 1.22-22.69-3.79-30.22-12.13-17.09 17.15-34.27 34.21-51.33 51.39 60.85-.1 121.7.12 182.54-.11 5.39.1 9.91 6.48 7.19 11.48-1.44 3.62-5.7 4.69-9.23 4.65-67.03 0-134.06-.04-201.09.03-5.74-.76-9.65-8.82-5.06-13.12 21.77-21.96 43.69-43.78 65.6-65.61-9.92-9.18-15.43-24.17-10.49-37.24 17.84-46.1 36.18-92.01 53.86-138.17a17.76 17.76 0 0 1 3.34-5.63c52.74-52.28 105.01-105.06 157.66-157.43m-149.63 178.5c-16.77 42.54-33.32 85.16-50.05 127.71-2 4.83-2.09 11.02 1.61 15.08 6.12 6.87 13.03 12.99 19.27 19.75 4.02 4.44 10.62 6.68 16.41 4.75 43.09-16.92 86.23-33.72 129.31-50.66-38.72-39-77.7-77.76-116.55-116.63z"/></g></svg>
