<svg version="1" xmlns="http://www.w3.org/2000/svg" width="700pt" height="700pt" viewBox="0 0 700.000000 700.000000"><path d="M534 312.5c-15.9 4.4-27.8 19.1-28.5 35.4-.5 12.2 3.2 22 11.2 29.8 19.1 18.5 50.9 13.1 62.5-10.5 6.2-12.5 4.5-29.5-4-40.7-4.2-5.6-12.6-11.7-18.7-13.6-6.2-1.9-16.3-2-22.5-.4zm20.2 15.3c9.4 4.3 14.2 12 14.3 22.8 0 6.1-.4 7.7-3 12-8 12.8-25.8 15.7-37.2 5.9-15.2-13-9.2-37 10.7-42.5 3.9-1.1 10.6-.3 15.2 1.8zM117 320.4v6.6h20.4c11.3 0 21.6.4 23 1 3.5 1.3 10.1 8.1 12.6 13.1 3.6 6.9 2.5 15.9-2.7 22.8-6.7 8.8-7.7 9.1-32.8 9.1h-20.5v13.2l24.3-.4c23.4-.3 24.4-.4 29-2.8 6.1-3.1 12.2-9.6 15.4-16.5 3.1-6.8 3.6-9.4 3.6-17.6-.1-13.8-7.6-25.9-19.8-31.6-6-2.8-6.2-2.8-29.2-3.1l-23.3-.4v6.6zM200 320.5v6.5h58v-13h-58v6.5zM275.6 331.2c4.7 9.5 12.7 25.7 17.7 36l9.1 18.8h16.2l5.4-11.3c2.9-6.1 10.7-22 17.2-35.3 6.5-13.3 11.8-24.4 11.8-24.8 0-.3-3.8-.6-8.4-.6h-8.3l-2.8 6.2c-1.5 3.4-6.8 14.5-11.6 24.6-4.9 10.1-8.9 18.7-8.9 19.1 0 .3-.7 1.4-1.5 2.5-1.3 1.7-1.7 1.2-5.3-6.5-2.2-4.6-8-16.8-13-27.2l-9.1-18.7h-17.1l8.6 17.2zM362 320.5v6.5h58v-13h-58v6.5zM432 321v7h44.9l2.1 3c3.6 5.1 3.2 11.7-1.2 15.7-1.6 1.4-4.2 1.9-13.3 2.3l-11.2.5 7.6 9.1c4.2 5 8.7 10.5 10.1 12.1 1.4 1.7 4.8 5.8 7.5 9.1l5 6.1h9.3c5 .1 9.2-.2 9.2-.5 0-.5-3.3-4.8-8.5-11.1-.5-.7-1.4-1.8-2-2.5-.5-.7-2.7-3.4-4.7-6-3.9-4.7-4.7-6.8-2.7-6.8 2.3 0 7-4.3 9-8.3 2.7-5.2 3.5-14 1.9-20.7-1.6-6.6-7.6-13.3-13.5-14.9-2.4-.6-13.3-1.1-26.7-1.1h-22.8v7zM200 350.5v6.5h58v-13h-58v6.5zM362 350.5v6.5h58v-13h-58v6.5zM200 379.5v6.5h58v-13h-58v6.5zM362 379.5v6.5h58v-13h-58v6.5z"/></svg>